<?xml version="1.0" standalone="no"?>
<!DOCTYPE svg PUBLIC "-//W3C//DTD SVG 1.1//EN" "http://www.w3.org/Graphics/SVG/1.1/DTD/svg11.dtd" >
<svg xmlns="http://www.w3.org/2000/svg">
<metadata>
Nespresso Lucas is a licensed version of FS Lucas, Copyright (c) 2016. All rights reserved. This font may not be altered in any way without prior permission of Fontsmith Ltd.
</metadata>
<defs>
<font id="NespressoLucas-BoldItalic" horiz-adv-x="592" >
  <font-face 
    font-family="Nespresso Lucas Bold Italic"
    font-weight="700"
    font-style="italic"
    font-stretch="normal"
    units-per-em="1000"
    panose-1="2 11 6 3 6 3 2 10 2 3"
    ascent="800"
    descent="-200"
    x-height="451"
    cap-height="648"
    bbox="-439 -218 1315 901"
    underline-thickness="104"
    underline-position="4"
    slope="-8"
    unicode-range="U+000D-FB02"
  />
<missing-glyph horiz-adv-x="773" 
d="M134 648h504v-855h-504v855zM592 620h-412l206 -370zM371 221l-207 365v-731zM608 586l-207 -365l207 -366v731zM592 -178l-206 375l-206 -375h412z" />
    <glyph glyph-name="f_f.liga" unicode="ff" horiz-adv-x="690" 
d="M121 351h-77l14 100h77l4 30q14 96 59 141.5t132 45.5q28 0 51.5 -4.5t36.5 -10.5l-26 -105q-22 10 -47 10q-33 0 -50.5 -21t-23.5 -67l-3 -19h187l5 37q13 94 59.5 142.5t142.5 48.5q34 0 60 -6t39 -12l-15 -108q-9 5 -27 10t-38 5q-43 0 -63.5 -24.5t-26.5 -69.5
l-3 -23h103l-15 -100h-102l-49 -351h-133l49 351h-187l-49 -351h-133z" />
    <glyph glyph-name="f_f_i.liga" unicode="ffi" horiz-adv-x="949" 
d="M810.5 553.5q-18.5 18.5 -18.5 47.5q0 37 22 58.5t55 21.5q29 0 48 -18t19 -48q0 -38 -22.5 -59t-54.5 -21q-30 0 -48.5 18.5zM761 351h-187l-49 -351h-133l49 351h-187l-49 -351h-133l49 351h-77l14 100h77l4 30q14 96 59 141.5t132 45.5q45 0 77 -15l-15 -105
q-22 10 -47 10q-33 0 -50.5 -21t-23.5 -67l-3 -19h187l6 41q14 96 59 141.5t132 45.5q35 0 66 -11l-15 -106q-14 7 -37 7q-33 0 -50 -21t-23 -67l-5 -30h320l-63 -451h-133z" />
    <glyph glyph-name="f_f_j.liga" unicode="ffj" horiz-adv-x="948" 
d="M810 553q-18 18 -18 48q0 37 21.5 58.5t54.5 21.5q30 0 48.5 -18t18.5 -48q0 -38 -22 -59t-55 -21q-30 0 -48 18zM523 -192l15 102q25 -10 64 -10q41 0 64 17t34 47t18 78l43 309h-187l-49 -351h-133l49 351h-187l-49 -351h-133l49 351h-77l14 100h77l4 30
q14 96 59 141.5t132 45.5q45 0 77 -15l-15 -105q-22 10 -47 10q-33 0 -50.5 -21t-23.5 -67l-3 -19h187l6 41q14 96 59 141.5t132 45.5q35 0 66 -11l-15 -106q-14 7 -37 7q-33 0 -50 -21t-23 -67l-5 -30h320l-56 -400q-12 -85 -32 -138.5t-67 -86.5t-132 -33q-65 0 -98 15z
" />
    <glyph glyph-name="f_f_l.liga" unicode="ffl" horiz-adv-x="941" 
d="M121 351h-77l14 100h77l4 30q14 96 59 141.5t132 45.5q45 0 77 -15l-15 -105q-22 10 -47 10q-33 0 -50.5 -21t-23.5 -67l-3 -19h187l6 41q14 96 58.5 141.5t128.5 45.5q36 0 67 -11l-15 -106q-15 7 -37 7q-31 0 -47.5 -21.5t-22.5 -66.5l-5 -30h93l-15 -100h-92l-49 -351
h-133l49 351h-187l-49 -351h-133zM804 663h133l-93 -663h-133z" />
    <glyph glyph-name="f_f_t.liga" unicode="fft" horiz-adv-x="1061" 
d="M121 351h-77l14 100h77l4 30q14 96 59 141.5t132 45.5q45 0 77 -15l-15 -105q-22 10 -47 10q-33 0 -50.5 -21t-23.5 -67l-3 -19h187l6 41q14 96 59 141.5t132 45.5q35 0 66 -11l-19 -106q-8 7 -33 7q-33 0 -50 -21t-23 -67l-5 -30h76l-14 -100h-76l-49 -351h-133l49 351
h-187l-49 -351h-133zM777 28.5q-41 34.5 -41 95.5q0 28 9 84l20 143h-55l2 10q33 31 104.5 109t106.5 121h10l-20 -140h124l-15 -100h-123l-21 -144q-7 -45 -7 -61q0 -43 61 -43q22 0 39.5 5t36.5 14l-16 -111q-9 -6 -37.5 -11.5t-59.5 -5.5q-77 0 -118 34.5z" />
    <glyph glyph-name="f_j.liga" unicode="fj" horiz-adv-x="628" 
d="M490.5 553.5q-18.5 18.5 -18.5 47.5q0 37 22 58.5t55 21.5q29 0 47.5 -18t18.5 -48q0 -38 -22 -59t-54 -21q-30 0 -48.5 18.5zM203 -192l15 102q25 -10 65 -10q58 0 81.5 34.5t33.5 107.5l43 309h-187l-49 -351h-133l49 351h-77l14 100h77l6 41q14 96 59.5 141.5
t131.5 45.5q36 0 67 -11l-16 -106q-14 7 -36 7q-33 0 -50 -21t-24 -67l-5 -30h321l-57 -400q-11 -84 -31 -138t-67.5 -87t-132.5 -33q-65 0 -98 15z" />
    <glyph glyph-name="f_t.liga" unicode="ft" horiz-adv-x="729" 
d="M121 351h-77l14 100h77l6 41q14 96 59.5 141.5t131.5 45.5q36 0 67 -11l-16 -106q-14 7 -36 7q-33 0 -50 -21t-24 -67l-5 -30h71l-14 -100h-71l-49 -351h-133zM445.5 28q-40.5 34 -40.5 96q0 34 8 84l20 143h-55l2 10q33 31 104.5 109t106.5 121h10l-20 -140h124
l-15 -100h-123l-20 -144q-7 -45 -7 -61q0 -43 60 -43q22 0 39.5 5t36.5 14l-16 -111q-9 -5 -37 -11t-59 -6q-78 0 -118.5 34z" />
    <glyph glyph-name="fi" unicode="fi" horiz-adv-x="629" 
d="M491.5 553.5q-18.5 18.5 -18.5 47.5q0 37 22 58.5t55 21.5q29 0 47.5 -18t18.5 -48q0 -38 -22 -59t-54 -21q-30 0 -48.5 18.5zM441 351h-186l-50 -351h-133l50 351h-78l14 100h78l6 41q14 96 59 141.5t132 45.5q35 0 66 -11l-15 -106q-14 7 -37 7q-33 0 -50 -21t-24 -67
l-4 -30h320l-63 -451h-133z" />
    <glyph glyph-name="fl" unicode="fl" horiz-adv-x="622" 
d="M122 351h-78l14 100h78l6 41q14 96 58.5 141.5t128.5 45.5q36 0 67 -11l-16 -106q-14 7 -36 7q-30 0 -47 -21.5t-24 -66.5l-4 -30h80l-15 -100h-79l-50 -351h-133zM485 663h133l-93 -663h-133z" />
    <glyph glyph-name="t_t.liga" unicode="tt" horiz-adv-x="795" 
d="M121.5 28q-40.5 34 -40.5 96q0 24 10 94l18 129h-81l2 10q30 25 118.5 111.5t118.5 122.5h10l-19 -140h123l-15 -104h-123l-20 -140q-7 -37 -7 -61q0 -43 61 -43q37 0 75 19l-16 -111q-9 -5 -37 -11t-59 -6q-78 0 -118.5 34zM510.5 28q-40.5 34 -40.5 96q0 24 10 94
l18 129h-81l2 10q30 25 118.5 111.5t118.5 122.5h10l-19 -140h123l-15 -104h-123l-20 -140q-7 -37 -7 -61q0 -43 61 -43q37 0 75 19l-16 -111q-9 -5 -37 -11t-59 -6q-78 0 -118.5 34z" />
    <glyph glyph-name=".notdef" horiz-adv-x="773" 
d="M134 648h504v-855h-504v855zM592 620h-412l206 -370zM371 221l-207 365v-731zM608 586l-207 -365l207 -366v731zM592 -178l-206 375l-206 -375h412z" />
    <glyph glyph-name=".null" horiz-adv-x="0" 
 />
    <glyph glyph-name="nonmarkingreturn" unicode="&#xd;" horiz-adv-x="210" 
 />
    <glyph glyph-name="space" unicode=" " horiz-adv-x="210" 
 />
    <glyph glyph-name="A" unicode="A" horiz-adv-x="641" 
d="M377 658h10l205 -658h-143l-28 100h-233l-57 -100h-146zM396 207l-50 179l-100 -179h150z" />
    <glyph glyph-name="Aacute" unicode="&#xc1;" horiz-adv-x="641" 
d="M377 658h10l205 -658h-143l-28 100h-233l-57 -100h-146zM396 207l-50 179l-100 -179h150zM430 876h178l-188 -169h-135z" />
    <glyph glyph-name="Abreve" unicode="&#x102;" horiz-adv-x="641" 
d="M377 658h10l205 -658h-143l-28 100h-233l-57 -100h-146zM396 207l-50 179l-100 -179h150zM270.5 734.5q-37.5 36.5 -37.5 98.5q0 24 4 43h99q-2 -18 -2 -23q0 -52 63 -52q43 0 62.5 18.5t24.5 56.5h100q-9 -178 -192 -178q-84 0 -121.5 36.5z" />
    <glyph glyph-name="uni01CD" unicode="&#x1cd;" horiz-adv-x="641" 
d="M377 658h10l205 -658h-143l-28 100h-233l-57 -100h-146zM396 207l-50 179l-100 -179h150zM229 876h127l43 -54l57 54h137l-209 -178z" />
    <glyph glyph-name="Acircumflex" unicode="&#xc2;" horiz-adv-x="641" 
d="M377 658h10l205 -658h-143l-28 100h-233l-57 -100h-146zM396 207l-50 179l-100 -179h150zM412 885l155 -178h-127l-43 54l-57 -54h-137z" />
    <glyph glyph-name="Adieresis" unicode="&#xc4;" horiz-adv-x="641" 
d="M377 658h10l205 -658h-143l-28 100h-233l-57 -100h-146zM396 207l-50 179l-100 -179h150zM233 735q-20 20 -20 52q0 36 24.5 60t59.5 24q33 0 53 -20.5t20 -52.5q0 -36 -23.5 -59.5t-59.5 -23.5q-34 0 -54 20zM451.5 735q-20.5 20 -20.5 52q0 36 24.5 60t59.5 24
q33 0 53 -20.5t20 -52.5q0 -36 -23.5 -59.5t-59.5 -23.5q-33 0 -53.5 20z" />
    <glyph glyph-name="Agrave" unicode="&#xc0;" horiz-adv-x="641" 
d="M377 658h10l205 -658h-143l-28 100h-233l-57 -100h-146zM396 207l-50 179l-100 -179h150zM209 876h172l98 -169h-128z" />
    <glyph glyph-name="Amacron" unicode="&#x100;" horiz-adv-x="641" 
d="M377 658h10l205 -658h-143l-28 100h-233l-57 -100h-146zM396 207l-50 179l-100 -179h150zM253 846h309l-14 -104h-309z" />
    <glyph glyph-name="Aogonek" unicode="&#x104;" horiz-adv-x="641" 
d="M403 -185q-32 22 -32 67q0 40 20.5 71t57.5 50l-28 97h-233l-57 -100h-146l392 658h10l205 -658q-54 -8 -90 -37.5t-36 -63.5q0 -15 9.5 -23t27.5 -8q16 0 31 4.5t23 9.5l-11 -80q-27 -9 -61 -9q-50 0 -82 22zM397 207l-51 180l-100 -180h151z" />
    <glyph glyph-name="Aring" unicode="&#xc5;" horiz-adv-x="641" 
d="M592 0h-143l-28 100h-233l-57 -100h-146l361 606q-32 8 -50.5 32t-18.5 59q0 50 34.5 80.5t83.5 30.5q45 0 72.5 -25t27.5 -68q0 -46 -25.5 -74.5t-65.5 -35.5zM359.5 733q-12.5 -12 -12.5 -31q0 -16 9.5 -26t27.5 -10t30 11.5t12 30.5q0 17 -10 27t-27 10t-29.5 -12z
M396 207l-50 179l-100 -179h150z" />
    <glyph glyph-name="Atilde" unicode="&#xc3;" horiz-adv-x="641" 
d="M377 658h10l205 -658h-143l-28 100h-233l-57 -100h-146zM396 207l-50 179l-100 -179h150zM423.5 727q-17.5 6 -41.5 18q-17 9 -27 13t-21 4q-19 0 -28.5 -11t-11.5 -25h-81q7 62 38.5 95t83.5 33q24 0 42 -6.5t43 -18.5q16 -8 26 -12t20 -4q18 0 27.5 11t11.5 25h81
q-5 -59 -37 -93.5t-85 -34.5q-23 0 -40.5 6z" />
    <glyph glyph-name="AE" unicode="&#xc6;" horiz-adv-x="893" 
d="M371 648h307l36 -113h-289l46 -148h224l35 -113h-223l49 -160h285l36 -114h-428l-28 100h-233l-57 -100h-146zM396 207l-50 179l-100 -179h150z" />
    <glyph glyph-name="AEacute" unicode="&#x1fc;" horiz-adv-x="893" 
d="M371 648h307l36 -113h-289l46 -148h224l35 -113h-223l49 -160h285l36 -114h-428l-28 100h-233l-57 -100h-146zM396 207l-50 179l-100 -179h150zM547 876h178l-188 -169h-135z" />
    <glyph glyph-name="B" unicode="B" horiz-adv-x="593" 
d="M548 209q0 -79 -38 -127q-30 -39 -85.5 -60.5t-146.5 -21.5h-235l91 648h171q105 0 175.5 -34t70.5 -128q0 -37 -13.5 -69t-37.5 -52q-20 -16 -46 -24q94 -27 94 -132zM412 474q0 37 -31.5 50.5t-83.5 13.5h-41l-21 -156h43q44 0 69.5 7t41.5 22q23 23 23 63zM408 205
q0 40 -30.5 54t-88.5 14h-70l-22 -161h73q43 0 73.5 8.5t46.5 28.5q18 24 18 56z" />
    <glyph glyph-name="C" unicode="C" horiz-adv-x="633" 
d="M197.5 27q-69.5 37 -105 102.5t-35.5 148.5q0 29 5 59q26 150 126.5 235.5t254.5 85.5q59 0 106.5 -13.5t71.5 -33.5l-18 -130q-35 26 -76.5 39t-84.5 13q-62 0 -113 -27t-84.5 -74.5t-43.5 -107.5q-3 -18 -3 -38q0 -79 46 -124.5t132 -45.5q62 0 108 16t84 40l-20 -143
q-24 -15 -74.5 -27t-107.5 -12q-99 0 -168.5 37z" />
    <glyph glyph-name="Cacute" unicode="&#x106;" horiz-adv-x="633" 
d="M197.5 27q-69.5 37 -105 102.5t-35.5 148.5q0 29 5 59q26 150 126.5 235.5t254.5 85.5q59 0 106.5 -13.5t71.5 -33.5l-18 -130q-35 26 -76.5 39t-84.5 13q-62 0 -113 -27t-84.5 -74.5t-43.5 -107.5q-3 -18 -3 -38q0 -79 46 -124.5t132 -45.5q62 0 108 16t84 40l-20 -143
q-24 -15 -74.5 -27t-107.5 -12q-99 0 -168.5 37zM495 876h178l-188 -169h-135z" />
    <glyph glyph-name="Cacute.loclPLK" horiz-adv-x="633" 
d="M197.5 27q-69.5 37 -105 102.5t-35.5 148.5q0 29 5 59q26 150 126.5 235.5t254.5 85.5q59 0 106.5 -13.5t71.5 -33.5l-18 -130q-35 26 -76.5 39t-84.5 13q-62 0 -113 -27t-84.5 -74.5t-43.5 -107.5q-3 -18 -3 -38q0 -79 46 -124.5t132 -45.5q62 0 108 16t84 40l-20 -143
q-24 -15 -74.5 -27t-107.5 -12q-99 0 -168.5 37zM493 876h156l-134 -169h-127z" />
    <glyph glyph-name="Ccaron" unicode="&#x10c;" horiz-adv-x="633" 
d="M197.5 27q-69.5 37 -105 102.5t-35.5 148.5q0 29 5 59q26 150 126.5 235.5t254.5 85.5q59 0 106.5 -13.5t71.5 -33.5l-18 -130q-35 26 -76.5 39t-84.5 13q-62 0 -113 -27t-84.5 -74.5t-43.5 -107.5q-3 -18 -3 -38q0 -79 46 -124.5t132 -45.5q62 0 108 16t84 40l-20 -143
q-24 -15 -74.5 -27t-107.5 -12q-99 0 -168.5 37zM294 876h127l43 -54l57 54h137l-209 -178z" />
    <glyph glyph-name="Ccedilla" unicode="&#xc7;" horiz-adv-x="633" 
d="M197.5 27q-69.5 37 -105 102.5t-35.5 148.5q0 29 5 59q26 150 126.5 235.5t254.5 85.5q59 0 106.5 -13.5t71.5 -33.5l-18 -130q-35 26 -76.5 39t-84.5 13q-62 0 -113 -27t-84.5 -74.5t-43.5 -107.5q-3 -18 -3 -38q0 -79 46 -124.5t132 -45.5q62 0 108 16t84 40l-20 -143
q-24 -15 -74.5 -27t-107.5 -12q-99 0 -168.5 37zM419.5 -58q19.5 -17 19.5 -50q0 -99 -125 -99q-44 0 -70 12l9 63q20 -12 50 -12q20 0 32 8t12 25q0 12 -7.5 19.5t-21.5 7.5q-22 0 -36 -16l-11 7l49 116h78l-30 -63q32 -1 51.5 -18z" />
    <glyph glyph-name="Ccircumflex" unicode="&#x108;" horiz-adv-x="633" 
d="M197.5 27q-69.5 37 -105 102.5t-35.5 148.5q0 29 5 59q26 150 126.5 235.5t254.5 85.5q59 0 106.5 -13.5t71.5 -33.5l-18 -130q-35 26 -76.5 39t-84.5 13q-62 0 -113 -27t-84.5 -74.5t-43.5 -107.5q-3 -18 -3 -38q0 -79 46 -124.5t132 -45.5q62 0 108 16t84 40l-20 -143
q-24 -15 -74.5 -27t-107.5 -12q-99 0 -168.5 37zM477 885l155 -178h-127l-43 54l-57 -54h-137z" />
    <glyph glyph-name="Cdotaccent" unicode="&#x10a;" horiz-adv-x="633" 
d="M197.5 27q-69.5 37 -105 102.5t-35.5 148.5q0 29 5 59q26 150 126.5 235.5t254.5 85.5q59 0 106.5 -13.5t71.5 -33.5l-18 -130q-35 26 -76.5 39t-84.5 13q-62 0 -113 -27t-84.5 -74.5t-43.5 -107.5q-3 -18 -3 -38q0 -79 46 -124.5t132 -45.5q62 0 108 16t84 40l-20 -143
q-24 -15 -74.5 -27t-107.5 -12q-99 0 -168.5 37zM406.5 735q-20.5 20 -20.5 53q0 36 24.5 60t60.5 24q33 0 53.5 -20.5t20.5 -52.5q0 -37 -24 -60.5t-60 -23.5q-34 0 -54.5 20z" />
    <glyph glyph-name="D" unicode="D" horiz-adv-x="683" 
d="M134 648h124q112 0 194 -15.5t141.5 -74t59.5 -176.5q0 -34 -5 -70q-18 -130 -89 -199t-163 -91t-204 -22h-149zM203 113q129 0 209 47t97 168q3 21 3 45q0 69 -32.5 105t-84.5 47t-128 11h-12l-58 -423h6z" />
    <glyph glyph-name="Eth" unicode="&#xd0;" horiz-adv-x="717" 
d="M487 632.5q82 -15.5 141.5 -74t59.5 -176.5q0 -34 -5 -70q-18 -130 -89 -199t-163 -91t-204 -22h-149l39 277h-108l15 107h108l37 264h124q112 0 194 -15.5zM547 373q0 69 -32.5 105t-84.5 47t-128 11h-12l-21 -152h122l-15 -107h-122l-22 -164h6q129 0 209 47t97 168
q3 21 3 45z" />
    <glyph glyph-name="Dcaron" unicode="&#x10e;" horiz-adv-x="683" 
d="M134 648h124q112 0 194 -15.5t141.5 -74t59.5 -176.5q0 -34 -5 -70q-18 -130 -89 -199t-163 -91t-204 -22h-149zM203 113q129 0 209 47t97 168q3 21 3 45q0 69 -32.5 105t-84.5 47t-128 11h-12l-58 -423h6zM250 876h127l43 -54l57 54h137l-209 -178z" />
    <glyph glyph-name="Dcroat" unicode="&#x110;" horiz-adv-x="717" 
d="M487 632.5q82 -15.5 141.5 -74t59.5 -176.5q0 -34 -5 -70q-18 -130 -89 -199t-163 -91t-204 -22h-149l39 277h-108l15 107h108l37 264h124q112 0 194 -15.5zM547 373q0 69 -32.5 105t-84.5 47t-128 11h-12l-21 -152h122l-15 -107h-122l-22 -164h6q129 0 209 47t97 168
q3 21 3 45z" />
    <glyph glyph-name="E" unicode="E" horiz-adv-x="526" 
d="M134 648h401l-16 -113h-264l-21 -148h187l-16 -113h-187l-22 -160h276l-16 -114h-413z" />
    <glyph glyph-name="Eacute" unicode="&#xc9;" horiz-adv-x="526" 
d="M134 648h401l-16 -113h-264l-21 -148h187l-16 -113h-187l-22 -160h276l-16 -114h-413zM386 876h178l-188 -169h-135z" />
    <glyph glyph-name="Ebreve" unicode="&#x114;" horiz-adv-x="526" 
d="M134 648h401l-16 -113h-264l-21 -148h187l-16 -113h-187l-22 -160h276l-16 -114h-413zM226.5 734.5q-37.5 36.5 -37.5 98.5q0 24 4 43h99q-2 -18 -2 -23q0 -52 63 -52q43 0 62.5 18.5t24.5 56.5h100q-9 -178 -192 -178q-84 0 -121.5 36.5z" />
    <glyph glyph-name="Ecaron" unicode="&#x11a;" horiz-adv-x="526" 
d="M134 648h401l-16 -113h-264l-21 -148h187l-16 -113h-187l-22 -160h276l-16 -114h-413zM185 876h127l43 -54l57 54h137l-209 -178z" />
    <glyph glyph-name="Ecircumflex" unicode="&#xca;" horiz-adv-x="526" 
d="M134 648h401l-16 -113h-264l-21 -148h187l-16 -113h-187l-22 -160h276l-16 -114h-413zM368 885l155 -178h-127l-43 54l-57 -54h-137z" />
    <glyph glyph-name="Edieresis" unicode="&#xcb;" horiz-adv-x="526" 
d="M134 648h401l-16 -113h-264l-21 -148h187l-16 -113h-187l-22 -160h276l-16 -114h-413zM189 735q-20 20 -20 52q0 36 24.5 60t59.5 24q33 0 53 -20.5t20 -52.5q0 -36 -23.5 -59.5t-59.5 -23.5q-34 0 -54 20zM407.5 735q-20.5 20 -20.5 52q0 36 24.5 60t59.5 24
q33 0 53 -20.5t20 -52.5q0 -36 -23.5 -59.5t-59.5 -23.5q-33 0 -53.5 20z" />
    <glyph glyph-name="Edotaccent" unicode="&#x116;" horiz-adv-x="526" 
d="M134 648h401l-16 -113h-264l-21 -148h187l-16 -113h-187l-22 -160h276l-16 -114h-413zM297.5 735q-20.5 20 -20.5 53q0 36 24.5 60t60.5 24q33 0 53.5 -20.5t20.5 -52.5q0 -37 -24 -60.5t-60 -23.5q-34 0 -54.5 20z" />
    <glyph glyph-name="Egrave" unicode="&#xc8;" horiz-adv-x="526" 
d="M134 648h401l-16 -113h-264l-21 -148h187l-16 -113h-187l-22 -160h276l-16 -114h-413zM206 876h172l98 -169h-128z" />
    <glyph glyph-name="Emacron" unicode="&#x112;" horiz-adv-x="526" 
d="M134 648h401l-16 -113h-264l-21 -148h187l-16 -113h-187l-22 -160h276l-16 -114h-413zM209 846h309l-14 -104h-309z" />
    <glyph glyph-name="Eogonek" unicode="&#x118;" horiz-adv-x="526" 
d="M276.5 -185q-32.5 22 -32.5 67q0 37 21 68.5t55 49.5h-277l91 648h401l-16 -113h-264l-21 -148h187l-16 -113h-187l-22 -160h276l-16 -114q-50 -11 -83.5 -40t-33.5 -61q0 -31 38 -31q16 0 31.5 5t21.5 9l-11 -80q-25 -9 -60 -9q-50 0 -82.5 22z" />
    <glyph glyph-name="F" unicode="F" horiz-adv-x="509" 
d="M134 648h404l-16 -113h-267l-23 -163h193l-17 -112h-192l-36 -260h-137z" />
    <glyph glyph-name="G" unicode="G" horiz-adv-x="712" 
d="M137.5 66q-80.5 76 -80.5 209q0 27 5 64q15 102 68 174t133 108.5t177 36.5q75 0 128 -18.5t79 -39.5l-17 -127q-30 24 -81.5 42.5t-110.5 18.5q-93 0 -158 -58.5t-79 -155.5q-3 -21 -3 -40q0 -78 44.5 -121.5t121.5 -43.5q70 0 115.5 37t55.5 103h-165l15 109h310
l-10 -72q-11 -76 -38 -140.5t-95.5 -113t-187.5 -48.5q-146 0 -226.5 76z" />
    <glyph glyph-name="Gbreve" unicode="&#x11e;" horiz-adv-x="712" 
d="M137.5 66q-80.5 76 -80.5 209q0 27 5 64q15 102 68 174t133 108.5t177 36.5q75 0 128 -18.5t79 -39.5l-17 -127q-30 24 -81.5 42.5t-110.5 18.5q-93 0 -158 -58.5t-79 -155.5q-3 -21 -3 -40q0 -78 44.5 -121.5t121.5 -43.5q70 0 115.5 37t55.5 103h-165l15 109h310
l-10 -72q-11 -76 -38 -140.5t-95.5 -113t-187.5 -48.5q-146 0 -226.5 76zM334.5 734.5q-37.5 36.5 -37.5 98.5q0 24 4 43h99q-2 -18 -2 -23q0 -52 63 -52q43 0 62.5 18.5t24.5 56.5h100q-9 -178 -192 -178q-84 0 -121.5 36.5z" />
    <glyph glyph-name="Gcircumflex" unicode="&#x11c;" horiz-adv-x="712" 
d="M137.5 66q-80.5 76 -80.5 209q0 27 5 64q15 102 68 174t133 108.5t177 36.5q75 0 128 -18.5t79 -39.5l-17 -127q-30 24 -81.5 42.5t-110.5 18.5q-93 0 -158 -58.5t-79 -155.5q-3 -21 -3 -40q0 -78 44.5 -121.5t121.5 -43.5q70 0 115.5 37t55.5 103h-165l15 109h310
l-10 -72q-11 -76 -38 -140.5t-95.5 -113t-187.5 -48.5q-146 0 -226.5 76zM476 885l155 -178h-127l-43 54l-57 -54h-137z" />
    <glyph glyph-name="Gcommaaccent" unicode="&#x122;" horiz-adv-x="712" 
d="M137.5 66q-80.5 76 -80.5 209q0 27 5 64q15 102 68 174t133 108.5t177 36.5q75 0 128 -18.5t79 -39.5l-17 -127q-30 24 -81.5 42.5t-110.5 18.5q-93 0 -158 -58.5t-79 -155.5q-3 -21 -3 -40q0 -78 44.5 -121.5t121.5 -43.5q70 0 115.5 37t55.5 103h-165l15 109h310
l-10 -72q-11 -76 -38 -140.5t-95.5 -113t-187.5 -48.5q-146 0 -226.5 76zM316 -162q-22 2 -34.5 16t-12.5 36q0 30 19.5 48t48.5 18t47 -17.5t18 -48.5q0 -35 -19.5 -62.5t-48.5 -45.5h-72q34 28 54 56z" />
    <glyph glyph-name="Gdotaccent" unicode="&#x120;" horiz-adv-x="712" 
d="M137.5 66q-80.5 76 -80.5 209q0 27 5 64q15 102 68 174t133 108.5t177 36.5q75 0 128 -18.5t79 -39.5l-17 -127q-30 24 -81.5 42.5t-110.5 18.5q-93 0 -158 -58.5t-79 -155.5q-3 -21 -3 -40q0 -78 44.5 -121.5t121.5 -43.5q70 0 115.5 37t55.5 103h-165l15 109h310
l-10 -72q-11 -76 -38 -140.5t-95.5 -113t-187.5 -48.5q-146 0 -226.5 76zM405.5 735q-20.5 20 -20.5 53q0 36 24.5 60t60.5 24q33 0 53.5 -20.5t20.5 -52.5q0 -37 -24 -60.5t-60 -23.5q-34 0 -54.5 20z" />
    <glyph glyph-name="H" unicode="H" horiz-adv-x="698" 
d="M134 648h137l-36 -261h273l37 261h137l-91 -648h-137l38 272h-274l-38 -272h-137z" />
    <glyph glyph-name="Hbar" unicode="&#x126;" horiz-adv-x="752" 
d="M138 465h-102l14 103h102l11 80h138l-12 -80h274l12 80h137l-11 -80h97l-15 -103h-96l-66 -465h-137l37 272h-273l-38 -272h-138zM538 387l11 78h-273l-12 -78h274z" />
    <glyph glyph-name="Hcircumflex" unicode="&#x124;" horiz-adv-x="698" 
d="M134 648h137l-36 -261h273l37 261h137l-91 -648h-137l38 272h-274l-38 -272h-137zM440 885l155 -178h-127l-43 54l-57 -54h-137z" />
    <glyph glyph-name="I" unicode="I" horiz-adv-x="287" 
d="M134 648h137l-91 -648h-137z" />
    <glyph glyph-name="IJ" unicode="&#x132;" horiz-adv-x="760" 
d="M134 648h137l-91 -648h-137zM310 15l16 118q16 -10 44 -17t56 -7q60 0 90 32.5t41 113.5l40 281h-150l17 112h285l-60 -428q-16 -114 -73 -172t-173 -58q-86 0 -133 25z" />
    <glyph glyph-name="Iacute" unicode="&#xcd;" horiz-adv-x="287" 
d="M134 648h137l-91 -648h-137zM287 876h178l-188 -169h-135z" />
    <glyph glyph-name="Iacute_J.loclNLD" horiz-adv-x="759" 
d="M134 648h137l-91 -648h-137zM287 876h178l-188 -169h-135zM309 15l16 118q16 -10 44 -17t56 -7q60 0 90 32.5t41 113.5l40 281h-150l17 112h285l-60 -428q-16 -114 -73 -172t-173 -58q-86 0 -133 25zM617 876h178l-188 -169h-135z" />
    <glyph glyph-name="Ibreve" unicode="&#x12c;" horiz-adv-x="287" 
d="M134 648h137l-91 -648h-137zM93.5 734.5q-37.5 36.5 -37.5 98.5q0 24 4 43h99q-2 -18 -2 -23q0 -52 63 -52q43 0 62.5 18.5t24.5 56.5h100q-9 -178 -192 -178q-84 0 -121.5 36.5z" />
    <glyph glyph-name="Icircumflex" unicode="&#xce;" horiz-adv-x="287" 
d="M134 648h137l-91 -648h-137zM235 885l155 -178h-127l-43 54l-57 -54h-137z" />
    <glyph glyph-name="Idieresis" unicode="&#xcf;" horiz-adv-x="287" 
d="M134 648h137l-91 -648h-137zM56 735q-20 20 -20 52q0 36 24.5 60t59.5 24q33 0 53 -20.5t20 -52.5q0 -36 -23.5 -59.5t-59.5 -23.5q-34 0 -54 20zM274.5 735q-20.5 20 -20.5 52q0 36 24.5 60t59.5 24q33 0 53 -20.5t20 -52.5q0 -36 -23.5 -59.5t-59.5 -23.5
q-33 0 -53.5 20z" />
    <glyph glyph-name="Idotaccent" unicode="&#x130;" horiz-adv-x="287" 
d="M134 648h137l-91 -648h-137zM164.5 735q-20.5 20 -20.5 53q0 36 24.5 60t60.5 24q33 0 53.5 -20.5t20.5 -52.5q0 -37 -24 -60.5t-60 -23.5q-34 0 -54.5 20z" />
    <glyph glyph-name="Igrave" unicode="&#xcc;" horiz-adv-x="287" 
d="M134 648h137l-91 -648h-137zM9 876h172l98 -169h-128z" />
    <glyph glyph-name="Imacron" unicode="&#x12a;" horiz-adv-x="287" 
d="M134 648h137l-91 -648h-137zM76 846h309l-14 -104h-309z" />
    <glyph glyph-name="Iogonek" unicode="&#x12e;" horiz-adv-x="280" 
d="M-8.5 -185q-32.5 22 -32.5 67q0 41 20.5 72t57.5 50l91 644h138l-91 -648q-53 -11 -86.5 -39.5t-33.5 -61.5q0 -15 9.5 -23t27.5 -8q16 0 31 4.5t23 9.5l-11 -80q-27 -9 -61 -9q-50 0 -82.5 22z" />
    <glyph glyph-name="Itilde" unicode="&#x128;" horiz-adv-x="287" 
d="M134 648h137l-91 -648h-137zM246.5 727q-17.5 6 -41.5 18q-17 9 -27 13t-21 4q-19 0 -28.5 -11t-11.5 -25h-81q7 62 38.5 95t83.5 33q24 0 42 -6.5t43 -18.5q16 -8 26 -12t20 -4q18 0 27.5 11t11.5 25h81q-5 -59 -37 -93.5t-85 -34.5q-23 0 -40.5 6z" />
    <glyph glyph-name="J" unicode="J" horiz-adv-x="470" 
d="M20 15l16 118q16 -10 44 -17t56 -7q60 0 90 32.5t41 113.5l40 281h-150l17 112h285l-60 -428q-16 -114 -73 -172t-173 -58q-86 0 -133 25z" />
    <glyph glyph-name="Jcircumflex" unicode="&#x134;" horiz-adv-x="470" 
d="M20 15l16 118q16 -10 44 -17t56 -7q60 0 90 32.5t41 113.5l40 281h-150l17 112h285l-60 -428q-16 -114 -73 -172t-173 -58q-86 0 -133 25zM349 885l155 -178h-127l-43 54l-57 -54h-137z" />
    <glyph glyph-name="K" unicode="K" horiz-adv-x="679" 
d="M134 648h137l-43 -309l311 309h179l-329 -325l243 -323h-180l-227 316l-45 -316h-137z" />
    <glyph glyph-name="Kcommaaccent" unicode="&#x136;" horiz-adv-x="679" 
d="M134 648h137l-43 -309l311 309h179l-329 -325l243 -323h-180l-227 316l-45 -316h-137zM274 -162q-22 2 -34.5 16t-12.5 36q0 30 19.5 48t48.5 18t47 -17.5t18 -48.5q0 -35 -19.5 -62.5t-48.5 -45.5h-72q34 28 54 56z" />
    <glyph glyph-name="L" unicode="L" horiz-adv-x="528" 
d="M134 648h137l-75 -534h286l-16 -114h-423z" />
    <glyph glyph-name="Lacute" unicode="&#x139;" horiz-adv-x="528" 
d="M134 648h137l-75 -534h286l-16 -114h-423zM289 876h178l-188 -169h-135z" />
    <glyph glyph-name="Lcaron" unicode="&#x13d;" horiz-adv-x="528" 
d="M134 648h137l-75 -534h286l-16 -114h-423zM417 540q-23 3 -35.5 16.5t-12.5 35.5q0 30 20 48t49 18t47 -17.5t18 -48.5q0 -36 -24 -69t-62 -54h-72q50 38 72 71z" />
    <glyph glyph-name="Lcommaaccent" unicode="&#x13b;" horiz-adv-x="528" 
d="M134 648h137l-75 -534h286l-16 -114h-423zM225 -162q-22 2 -34.5 16t-12.5 36q0 30 19.5 48t48.5 18t47 -17.5t18 -48.5q0 -35 -19.5 -62.5t-48.5 -45.5h-72q34 28 54 56z" />
    <glyph glyph-name="Ldot" unicode="&#x13f;" horiz-adv-x="528" 
d="M326 271q-20 20 -20 53q0 38 25.5 63t59.5 25q33 0 54 -20.5t21 -54.5q0 -38 -25.5 -62t-60.5 -24q-34 0 -54 20zM134 648h137l-75 -534h286l-16 -114h-423z" />
    <glyph glyph-name="Lslash" unicode="&#x141;" horiz-adv-x="528" 
d="M74 224l-98 -53l16 115l98 52l44 310h137l-36 -254l141 76l-16 -117l-140 -75l-24 -164h286l-16 -114h-423z" />
    <glyph glyph-name="M" unicode="M" horiz-adv-x="858" 
d="M257 313l-97 -313h-140l220 658h10l180 -422l298 422h10l36 -658h-134l-11 313l-225 -323h-10z" />
    <glyph glyph-name="N" unicode="N" horiz-adv-x="706" 
d="M230 377l-53 -377h-134l93 658h10l358 -386l53 376h134l-92 -658h-10z" />
    <glyph glyph-name="Nacute" unicode="&#x143;" horiz-adv-x="706" 
d="M230 377l-53 -377h-134l93 658h10l358 -386l53 376h134l-92 -658h-10zM463 876h178l-188 -169h-135z" />
    <glyph glyph-name="Nacute.loclPLK" horiz-adv-x="706" 
d="M230 377l-53 -377h-134l93 658h10l358 -386l53 376h134l-92 -658h-10zM461 876h156l-134 -169h-127z" />
    <glyph glyph-name="Ncaron" unicode="&#x147;" horiz-adv-x="706" 
d="M230 377l-53 -377h-134l93 658h10l358 -386l53 376h134l-92 -658h-10zM262 876h127l43 -54l57 54h137l-209 -178z" />
    <glyph glyph-name="Ncommaaccent" unicode="&#x145;" horiz-adv-x="706" 
d="M230 377l-53 -377h-134l93 658h10l358 -386l53 376h134l-92 -658h-10zM287 -162q-22 2 -34.5 16t-12.5 36q0 30 19.5 48t48.5 18t47 -17.5t18 -48.5q0 -35 -19.5 -62.5t-48.5 -45.5h-72q34 28 54 56z" />
    <glyph glyph-name="Eng" unicode="&#x14a;" horiz-adv-x="706" 
d="M255 -193l15 104q26 -11 74 -11t75 19.5t38.5 50.5t17.5 79l7 55l-252 273l-53 -377h-134l93 658h10l358 -386l53 376h134l-85 -608q-12 -84 -35.5 -136.5t-73 -81.5t-134.5 -29q-66 0 -108 14z" />
    <glyph glyph-name="Ntilde" unicode="&#xd1;" horiz-adv-x="706" 
d="M230 377l-53 -377h-134l93 658h10l358 -386l53 376h134l-92 -658h-10zM456.5 727q-17.5 6 -41.5 18q-17 9 -27 13t-21 4q-19 0 -28.5 -11t-11.5 -25h-81q7 62 38.5 95t83.5 33q24 0 42 -6.5t43 -18.5q16 -8 26 -12t20 -4q18 0 27.5 11t11.5 25h81q-5 -59 -37 -93.5
t-85 -34.5q-23 0 -40.5 6z" />
    <glyph glyph-name="O" unicode="O" horiz-adv-x="763" 
d="M193.5 27q-67.5 37 -101.5 102t-34 149q0 30 4 57q14 96 62.5 169t127.5 113.5t180 40.5q93 0 161 -35t104 -99.5t36 -150.5q0 -29 -4 -57q-13 -93 -60.5 -167t-126.5 -116.5t-182 -42.5q-99 0 -166.5 37zM516 174.5q61 58.5 74 153.5q2 15 2 40q0 75 -43 120t-123 45
q-91 0 -151.5 -58.5t-73.5 -150.5q-3 -22 -3 -39q0 -76 43 -122.5t123 -46.5q91 0 152 58.5z" />
    <glyph glyph-name="Oacute" unicode="&#xd3;" horiz-adv-x="763" 
d="M193.5 27q-67.5 37 -101.5 102t-34 149q0 30 4 57q14 96 62.5 169t127.5 113.5t180 40.5q93 0 161 -35t104 -99.5t36 -150.5q0 -29 -4 -57q-13 -93 -60.5 -167t-126.5 -116.5t-182 -42.5q-99 0 -166.5 37zM516 174.5q61 58.5 74 153.5q2 15 2 40q0 75 -43 120t-123 45
q-91 0 -151.5 -58.5t-73.5 -150.5q-3 -22 -3 -39q0 -76 43 -122.5t123 -46.5q91 0 152 58.5zM492 876h178l-188 -169h-135z" />
    <glyph glyph-name="Oacute.loclPLK" horiz-adv-x="763" 
d="M193.5 27q-67.5 37 -101.5 102t-34 149q0 30 4 57q14 96 62.5 169t127.5 113.5t180 40.5q93 0 161 -35t104 -99.5t36 -150.5q0 -29 -4 -57q-13 -93 -60.5 -167t-126.5 -116.5t-182 -42.5q-99 0 -166.5 37zM516 174.5q61 58.5 74 153.5q2 15 2 40q0 75 -43 120t-123 45
q-91 0 -151.5 -58.5t-73.5 -150.5q-3 -22 -3 -39q0 -76 43 -122.5t123 -46.5q91 0 152 58.5zM490 876h156l-134 -169h-127z" />
    <glyph glyph-name="Obreve" unicode="&#x14e;" horiz-adv-x="763" 
d="M193.5 27q-67.5 37 -101.5 102t-34 149q0 30 4 57q14 96 62.5 169t127.5 113.5t180 40.5q93 0 161 -35t104 -99.5t36 -150.5q0 -29 -4 -57q-13 -93 -60.5 -167t-126.5 -116.5t-182 -42.5q-99 0 -166.5 37zM516 174.5q61 58.5 74 153.5q2 15 2 40q0 75 -43 120t-123 45
q-91 0 -151.5 -58.5t-73.5 -150.5q-3 -22 -3 -39q0 -76 43 -122.5t123 -46.5q91 0 152 58.5zM332.5 734.5q-37.5 36.5 -37.5 98.5q0 24 4 43h99q-2 -18 -2 -23q0 -52 63 -52q43 0 62.5 18.5t24.5 56.5h100q-9 -178 -192 -178q-84 0 -121.5 36.5z" />
    <glyph glyph-name="Ocircumflex" unicode="&#xd4;" horiz-adv-x="763" 
d="M193.5 27q-67.5 37 -101.5 102t-34 149q0 30 4 57q14 96 62.5 169t127.5 113.5t180 40.5q93 0 161 -35t104 -99.5t36 -150.5q0 -29 -4 -57q-13 -93 -60.5 -167t-126.5 -116.5t-182 -42.5q-99 0 -166.5 37zM516 174.5q61 58.5 74 153.5q2 15 2 40q0 75 -43 120t-123 45
q-91 0 -151.5 -58.5t-73.5 -150.5q-3 -22 -3 -39q0 -76 43 -122.5t123 -46.5q91 0 152 58.5zM474 885l155 -178h-127l-43 54l-57 -54h-137z" />
    <glyph glyph-name="Odieresis" unicode="&#xd6;" horiz-adv-x="763" 
d="M193.5 27q-67.5 37 -101.5 102t-34 149q0 30 4 57q14 96 62.5 169t127.5 113.5t180 40.5q93 0 161 -35t104 -99.5t36 -150.5q0 -29 -4 -57q-13 -93 -60.5 -167t-126.5 -116.5t-182 -42.5q-99 0 -166.5 37zM516 174.5q61 58.5 74 153.5q2 15 2 40q0 75 -43 120t-123 45
q-91 0 -151.5 -58.5t-73.5 -150.5q-3 -22 -3 -39q0 -76 43 -122.5t123 -46.5q91 0 152 58.5zM295 735q-20 20 -20 52q0 36 24.5 60t59.5 24q33 0 53 -20.5t20 -52.5q0 -36 -23.5 -59.5t-59.5 -23.5q-34 0 -54 20zM513.5 735q-20.5 20 -20.5 52q0 36 24.5 60t59.5 24
q33 0 53 -20.5t20 -52.5q0 -36 -23.5 -59.5t-59.5 -23.5q-33 0 -53.5 20z" />
    <glyph glyph-name="Ograve" unicode="&#xd2;" horiz-adv-x="763" 
d="M193.5 27q-67.5 37 -101.5 102t-34 149q0 30 4 57q14 96 62.5 169t127.5 113.5t180 40.5q93 0 161 -35t104 -99.5t36 -150.5q0 -29 -4 -57q-13 -93 -60.5 -167t-126.5 -116.5t-182 -42.5q-99 0 -166.5 37zM516 174.5q61 58.5 74 153.5q2 15 2 40q0 75 -43 120t-123 45
q-91 0 -151.5 -58.5t-73.5 -150.5q-3 -22 -3 -39q0 -76 43 -122.5t123 -46.5q91 0 152 58.5zM312 876h172l98 -169h-128z" />
    <glyph glyph-name="Ohungarumlaut" unicode="&#x150;" horiz-adv-x="763" 
d="M193.5 27q-67.5 37 -101.5 102t-34 149q0 30 4 57q14 96 62.5 169t127.5 113.5t180 40.5q93 0 161 -35t104 -99.5t36 -150.5q0 -29 -4 -57q-13 -93 -60.5 -167t-126.5 -116.5t-182 -42.5q-99 0 -166.5 37zM516 174.5q61 58.5 74 153.5q2 15 2 40q0 75 -43 120t-123 45
q-91 0 -151.5 -58.5t-73.5 -150.5q-3 -22 -3 -39q0 -76 43 -122.5t123 -46.5q91 0 152 58.5zM411 876h162l-166 -169h-126zM640 876h163l-167 -169h-125z" />
    <glyph glyph-name="Omacron" unicode="&#x14c;" horiz-adv-x="763" 
d="M193.5 27q-67.5 37 -101.5 102t-34 149q0 30 4 57q14 96 62.5 169t127.5 113.5t180 40.5q93 0 161 -35t104 -99.5t36 -150.5q0 -29 -4 -57q-13 -93 -60.5 -167t-126.5 -116.5t-182 -42.5q-99 0 -166.5 37zM516 174.5q61 58.5 74 153.5q2 15 2 40q0 75 -43 120t-123 45
q-91 0 -151.5 -58.5t-73.5 -150.5q-3 -22 -3 -39q0 -76 43 -122.5t123 -46.5q91 0 152 58.5zM315 846h309l-14 -104h-309z" />
    <glyph glyph-name="Oslash" unicode="&#xd8;" horiz-adv-x="763" 
d="M120 86q-62 74 -62 192q0 30 4 57q14 96 62.5 169t127.5 113.5t180 40.5q86 0 153 -31l52 60h127l-101 -117q70 -75 70 -197q0 -29 -4 -57q-13 -93 -60.5 -167t-126.5 -116.5t-182 -42.5q-95 0 -164 36l-49 -56h-127zM495 522q-25 11 -69 11q-91 0 -151.5 -58.5
t-73.5 -150.5q-3 -22 -3 -39q0 -51 19 -86zM516 174.5q61 58.5 74 153.5q2 15 2 40q0 53 -23 93l-283 -330q12 -7 33.5 -11t44.5 -4q91 0 152 58.5z" />
    <glyph glyph-name="Oslashacute" unicode="&#x1fe;" horiz-adv-x="763" 
d="M120 86q-62 74 -62 192q0 30 4 57q14 96 62.5 169t127.5 113.5t180 40.5q86 0 153 -31l52 60h127l-101 -117q70 -75 70 -197q0 -29 -4 -57q-13 -93 -60.5 -167t-126.5 -116.5t-182 -42.5q-95 0 -164 36l-49 -56h-127zM495 522q-25 11 -69 11q-91 0 -151.5 -58.5
t-73.5 -150.5q-3 -22 -3 -39q0 -51 19 -86zM516 174.5q61 58.5 74 153.5q2 15 2 40q0 53 -23 93l-283 -330q12 -7 33.5 -11t44.5 -4q91 0 152 58.5zM518 876h178l-188 -169h-135z" />
    <glyph glyph-name="Otilde" unicode="&#xd5;" horiz-adv-x="763" 
d="M193.5 27q-67.5 37 -101.5 102t-34 149q0 30 4 57q14 96 62.5 169t127.5 113.5t180 40.5q93 0 161 -35t104 -99.5t36 -150.5q0 -29 -4 -57q-13 -93 -60.5 -167t-126.5 -116.5t-182 -42.5q-99 0 -166.5 37zM516 174.5q61 58.5 74 153.5q2 15 2 40q0 75 -43 120t-123 45
q-91 0 -151.5 -58.5t-73.5 -150.5q-3 -22 -3 -39q0 -76 43 -122.5t123 -46.5q91 0 152 58.5zM485.5 727q-17.5 6 -41.5 18q-17 9 -27 13t-21 4q-19 0 -28.5 -11t-11.5 -25h-81q7 62 38.5 95t83.5 33q24 0 42 -6.5t43 -18.5q16 -8 26 -12t20 -4q18 0 27.5 11t11.5 25h81
q-5 -59 -37 -93.5t-85 -34.5q-23 0 -40.5 6z" />
    <glyph glyph-name="OE" unicode="&#x152;" horiz-adv-x="1024" 
d="M192 27q-67 37 -100.5 102t-33.5 149q0 30 4 57q14 96 62.5 169t127.5 113.5t180 40.5q71 0 123 -23.5t82 -60.5l11 74h385l-16 -113h-264l-20 -148h186l-16 -113h-187l-22 -160h276l-16 -114h-397l10 66q-37 -36 -91 -56t-121 -20q-96 0 -163 37zM516 174.5
q61 58.5 74 153.5q2 15 2 40q0 75 -43 120t-123 45q-91 0 -151.5 -58.5t-73.5 -150.5q-3 -22 -3 -39q0 -76 43 -122.5t123 -46.5q91 0 152 58.5z" />
    <glyph glyph-name="P" unicode="P" horiz-adv-x="586" 
d="M134 648h163q86 0 146 -12t100 -54t40 -126q0 -26 -3 -47q-13 -91 -65.5 -134.5t-115 -54t-147.5 -10.5h-42l-30 -210h-137zM259 321q54 0 88 5.5t60 28t34 69.5q2 12 2 26q0 39 -18 58t-49.5 24.5t-85.5 5.5h-34l-31 -217h34z" />
    <glyph glyph-name="Thorn" unicode="&#xde;" horiz-adv-x="585" 
d="M426 530q61 -13 101 -55.5t40 -124.5q0 -26 -3 -46q-12 -85 -63 -128.5t-116.5 -56.5t-147.5 -13h-42l-15 -106h-137l91 648h137l-15 -105h25q84 0 145 -13zM428 343q0 39 -18.5 58.5t-50.5 25.5t-85 6h-33l-31 -217h33q53 0 88 6t60.5 28t33.5 67q3 18 3 26z" />
    <glyph glyph-name="Q" unicode="Q" horiz-adv-x="763" 
d="M729 316q-17 -124 -92 -208l76 -70l-75 -78l-85 78q-86 -48 -193 -48q-99 0 -166.5 37t-101.5 102t-34 149q0 30 4 57q14 96 62.5 169t127.5 113.5t180 40.5q93 0 161 -35t104 -99.5t36 -150.5q0 -29 -4 -57zM538 199q41 54 52 129q2 15 2 40q0 75 -43 120t-123 45
q-91 0 -151.5 -58.5t-73.5 -150.5q-3 -22 -3 -39q0 -76 43 -122.5t123 -46.5q44 0 86 16l-79 73l75 79z" />
    <glyph glyph-name="R" unicode="R" horiz-adv-x="596" 
d="M536 316q-42 -58 -116 -79l121 -237h-154l-104 221h-72l-31 -221h-137l91 648h167q78 0 137 -12.5t99.5 -53t40.5 -118.5q0 -90 -42 -148zM341.5 338.5q35.5 6.5 60.5 28t33 63.5q3 12 3 25q0 37 -20.5 55t-50 22.5t-74.5 4.5h-37l-29 -205h28q51 0 86.5 6.5z" />
    <glyph glyph-name="Racute" unicode="&#x154;" horiz-adv-x="596" 
d="M536 316q-42 -58 -116 -79l121 -237h-154l-104 221h-72l-31 -221h-137l91 648h167q78 0 137 -12.5t99.5 -53t40.5 -118.5q0 -90 -42 -148zM341.5 338.5q35.5 6.5 60.5 28t33 63.5q3 12 3 25q0 37 -20.5 55t-50 22.5t-74.5 4.5h-37l-29 -205h28q51 0 86.5 6.5zM397 876
h178l-188 -169h-135z" />
    <glyph glyph-name="Rcaron" unicode="&#x158;" horiz-adv-x="596" 
d="M536 316q-42 -58 -116 -79l121 -237h-154l-104 221h-72l-31 -221h-137l91 648h167q78 0 137 -12.5t99.5 -53t40.5 -118.5q0 -90 -42 -148zM341.5 338.5q35.5 6.5 60.5 28t33 63.5q3 12 3 25q0 37 -20.5 55t-50 22.5t-74.5 4.5h-37l-29 -205h28q51 0 86.5 6.5zM196 876
h127l43 -54l57 54h137l-209 -178z" />
    <glyph glyph-name="Rcommaaccent" unicode="&#x156;" horiz-adv-x="596" 
d="M536 316q-42 -58 -116 -79l121 -237h-154l-104 221h-72l-31 -221h-137l91 648h167q78 0 137 -12.5t99.5 -53t40.5 -118.5q0 -90 -42 -148zM341.5 338.5q35.5 6.5 60.5 28t33 63.5q3 12 3 25q0 37 -20.5 55t-50 22.5t-74.5 4.5h-37l-29 -205h28q51 0 86.5 6.5zM241 -162
q-22 2 -34.5 16t-12.5 36q0 30 19.5 48t48.5 18t47 -17.5t18 -48.5q0 -35 -19.5 -62.5t-48.5 -45.5h-72q34 28 54 56z" />
    <glyph glyph-name="S" unicode="S" horiz-adv-x="500" 
d="M105.5 2q-45.5 12 -74.5 29l18 127q30 -22 71.5 -36.5t85.5 -14.5q53 0 79.5 22t26.5 61q0 28 -20 45t-63 39q-42 22 -69 41.5t-46.5 53.5t-19.5 85q0 98 62 151t169 53q49 0 92.5 -10.5t64.5 -23.5l-19 -126q-26 19 -63.5 31.5t-72.5 12.5q-45 0 -69 -22t-24 -54
q0 -30 20 -47.5t65 -41.5q42 -21 69 -40t46 -53t19 -85q0 -102 -66 -155.5t-177 -53.5q-59 0 -104.5 12z" />
    <glyph glyph-name="Sacute" unicode="&#x15a;" horiz-adv-x="500" 
d="M105.5 2q-45.5 12 -74.5 29l18 127q30 -22 71.5 -36.5t85.5 -14.5q53 0 79.5 22t26.5 61q0 28 -20 45t-63 39q-42 22 -69 41.5t-46.5 53.5t-19.5 85q0 98 62 151t169 53q49 0 92.5 -10.5t64.5 -23.5l-19 -126q-26 19 -63.5 31.5t-72.5 12.5q-45 0 -69 -22t-24 -54
q0 -30 20 -47.5t65 -41.5q42 -21 69 -40t46 -53t19 -85q0 -102 -66 -155.5t-177 -53.5q-59 0 -104.5 12zM377 876h178l-188 -169h-135z" />
    <glyph glyph-name="Sacute.loclPLK" horiz-adv-x="500" 
d="M105.5 2q-45.5 12 -74.5 29l18 127q30 -22 71.5 -36.5t85.5 -14.5q53 0 79.5 22t26.5 61q0 28 -20 45t-63 39q-42 22 -69 41.5t-46.5 53.5t-19.5 85q0 98 62 151t169 53q49 0 92.5 -10.5t64.5 -23.5l-19 -126q-26 19 -63.5 31.5t-72.5 12.5q-45 0 -69 -22t-24 -54
q0 -30 20 -47.5t65 -41.5q42 -21 69 -40t46 -53t19 -85q0 -102 -66 -155.5t-177 -53.5q-59 0 -104.5 12zM375 876h156l-134 -169h-127z" />
    <glyph glyph-name="Scaron" unicode="&#x160;" horiz-adv-x="500" 
d="M105.5 2q-45.5 12 -74.5 29l18 127q30 -22 71.5 -36.5t85.5 -14.5q53 0 79.5 22t26.5 61q0 28 -20 45t-63 39q-42 22 -69 41.5t-46.5 53.5t-19.5 85q0 98 62 151t169 53q49 0 92.5 -10.5t64.5 -23.5l-19 -126q-26 19 -63.5 31.5t-72.5 12.5q-45 0 -69 -22t-24 -54
q0 -30 20 -47.5t65 -41.5q42 -21 69 -40t46 -53t19 -85q0 -102 -66 -155.5t-177 -53.5q-59 0 -104.5 12zM176 876h127l43 -54l57 54h137l-209 -178z" />
    <glyph glyph-name="Scedilla" unicode="&#x15e;" horiz-adv-x="500" 
d="M105.5 2q-45.5 12 -74.5 29l18 127q30 -22 71.5 -36.5t85.5 -14.5q53 0 79.5 22t26.5 61q0 28 -20 45t-63 39q-42 22 -69 41.5t-46.5 53.5t-19.5 85q0 98 62 151t169 53q49 0 92.5 -10.5t64.5 -23.5l-19 -126q-26 19 -63.5 31.5t-72.5 12.5q-45 0 -69 -22t-24 -54
q0 -30 20 -47.5t65 -41.5q42 -21 69 -40t46 -53t19 -85q0 -102 -66 -155.5t-177 -53.5q-59 0 -104.5 12zM280.5 -58q19.5 -17 19.5 -50q0 -99 -125 -99q-44 0 -70 12l9 63q20 -12 50 -12q20 0 32 8t12 25q0 12 -7.5 19.5t-21.5 7.5q-22 0 -36 -16l-11 7l49 116h78l-30 -63
q32 -1 51.5 -18z" />
    <glyph glyph-name="Scircumflex" unicode="&#x15c;" horiz-adv-x="500" 
d="M105.5 2q-45.5 12 -74.5 29l18 127q30 -22 71.5 -36.5t85.5 -14.5q53 0 79.5 22t26.5 61q0 28 -20 45t-63 39q-42 22 -69 41.5t-46.5 53.5t-19.5 85q0 98 62 151t169 53q49 0 92.5 -10.5t64.5 -23.5l-19 -126q-26 19 -63.5 31.5t-72.5 12.5q-45 0 -69 -22t-24 -54
q0 -30 20 -47.5t65 -41.5q42 -21 69 -40t46 -53t19 -85q0 -102 -66 -155.5t-177 -53.5q-59 0 -104.5 12zM359 885l155 -178h-127l-43 54l-57 -54h-137z" />
    <glyph glyph-name="Scommaaccent" unicode="&#x218;" horiz-adv-x="500" 
d="M105.5 2q-45.5 12 -74.5 29l18 127q30 -22 71.5 -36.5t85.5 -14.5q53 0 79.5 22t26.5 61q0 28 -20 45t-63 39q-42 22 -69 41.5t-46.5 53.5t-19.5 85q0 98 62 151t169 53q49 0 92.5 -10.5t64.5 -23.5l-19 -126q-26 19 -63.5 31.5t-72.5 12.5q-45 0 -69 -22t-24 -54
q0 -30 20 -47.5t65 -41.5q42 -21 69 -40t46 -53t19 -85q0 -102 -66 -155.5t-177 -53.5q-59 0 -104.5 12zM171 -162q-22 2 -34.5 16t-12.5 36q0 30 19.5 48t48.5 18t47 -17.5t18 -48.5q0 -35 -19.5 -62.5t-48.5 -45.5h-72q34 28 54 56z" />
    <glyph glyph-name="uni1E9E" unicode="&#x1e9e;" horiz-adv-x="695" 
d="M680 638l-146 -249q53 -15 85 -56t32 -111q0 -116 -66.5 -174t-192.5 -58q-35 0 -72 5t-58 13l16 114q45 -18 108 -18q58 0 91.5 29.5t33.5 85.5q0 39 -24.5 62t-68.5 23q-49 0 -77 -23l-10 9l146 247h-222l-75 -537h-137l91 648h548z" />
    <glyph glyph-name="T" unicode="T" horiz-adv-x="562" 
d="M256 535h-177l16 113h490l-16 -113h-175l-75 -535h-138z" />
    <glyph glyph-name="Tbar" unicode="&#x166;" horiz-adv-x="562" 
d="M394 535l-26 -184h95l-15 -106h-95l-34 -245h-138l34 245h-92l15 106h92l26 184h-177l16 113h490l-16 -113h-175z" />
    <glyph glyph-name="Tcaron" unicode="&#x164;" horiz-adv-x="562" 
d="M256 535h-177l16 113h490l-16 -113h-175l-75 -535h-138zM189 876h127l43 -54l57 54h137l-209 -178z" />
    <glyph glyph-name="uni0162" unicode="&#x162;" horiz-adv-x="562" 
d="M256 535h-177l16 113h490l-16 -113h-175l-75 -535h-138zM214 -162q-22 2 -34.5 16t-12.5 36q0 30 19.5 48t48.5 18t47 -17.5t18 -48.5q0 -35 -19.5 -62.5t-48.5 -45.5h-72q34 28 54 56z" />
    <glyph glyph-name="uni021A" unicode="&#x21a;" horiz-adv-x="562" 
d="M256 535h-177l16 113h490l-16 -113h-175l-75 -535h-138zM214 -162q-22 2 -34.5 16t-12.5 36q0 30 19.5 48t48.5 18t47 -17.5t18 -48.5q0 -35 -19.5 -62.5t-48.5 -45.5h-72q34 28 54 56z" />
    <glyph glyph-name="U" unicode="U" horiz-adv-x="661" 
d="M130 43.5q-60 53.5 -60 158.5q0 29 4.5 59t5.5 38l48 349h138l-52 -371q-6 -36 -6 -66q0 -48 23.5 -73.5t78.5 -25.5q71 0 105.5 41.5t46.5 129.5l52 365h137l-54 -385q-10 -70 -35 -128.5t-86.5 -101.5t-169.5 -43q-116 0 -176 53.5z" />
    <glyph glyph-name="Uacute" unicode="&#xda;" horiz-adv-x="661" 
d="M130 43.5q-60 53.5 -60 158.5q0 29 4.5 59t5.5 38l48 349h138l-52 -371q-6 -36 -6 -66q0 -48 23.5 -73.5t78.5 -25.5q71 0 105.5 41.5t46.5 129.5l52 365h137l-54 -385q-10 -70 -35 -128.5t-86.5 -101.5t-169.5 -43q-116 0 -176 53.5zM439 876h178l-188 -169h-135z" />
    <glyph glyph-name="Ubreve" unicode="&#x16c;" horiz-adv-x="661" 
d="M130 43.5q-60 53.5 -60 158.5q0 29 4.5 59t5.5 38l48 349h138l-52 -371q-6 -36 -6 -66q0 -48 23.5 -73.5t78.5 -25.5q71 0 105.5 41.5t46.5 129.5l52 365h137l-54 -385q-10 -70 -35 -128.5t-86.5 -101.5t-169.5 -43q-116 0 -176 53.5zM279.5 734.5q-37.5 36.5 -37.5 98.5
q0 24 4 43h99q-2 -18 -2 -23q0 -52 63 -52q43 0 62.5 18.5t24.5 56.5h100q-9 -178 -192 -178q-84 0 -121.5 36.5z" />
    <glyph glyph-name="Ucircumflex" unicode="&#xdb;" horiz-adv-x="661" 
d="M130 43.5q-60 53.5 -60 158.5q0 29 4.5 59t5.5 38l48 349h138l-52 -371q-6 -36 -6 -66q0 -48 23.5 -73.5t78.5 -25.5q71 0 105.5 41.5t46.5 129.5l52 365h137l-54 -385q-10 -70 -35 -128.5t-86.5 -101.5t-169.5 -43q-116 0 -176 53.5zM421 885l155 -178h-127l-43 54
l-57 -54h-137z" />
    <glyph glyph-name="Udieresis" unicode="&#xdc;" horiz-adv-x="661" 
d="M130 43.5q-60 53.5 -60 158.5q0 29 4.5 59t5.5 38l48 349h138l-52 -371q-6 -36 -6 -66q0 -48 23.5 -73.5t78.5 -25.5q71 0 105.5 41.5t46.5 129.5l52 365h137l-54 -385q-10 -70 -35 -128.5t-86.5 -101.5t-169.5 -43q-116 0 -176 53.5zM242 735q-20 20 -20 52
q0 36 24.5 60t59.5 24q33 0 53 -20.5t20 -52.5q0 -36 -23.5 -59.5t-59.5 -23.5q-34 0 -54 20zM460.5 735q-20.5 20 -20.5 52q0 36 24.5 60t59.5 24q33 0 53 -20.5t20 -52.5q0 -36 -23.5 -59.5t-59.5 -23.5q-33 0 -53.5 20z" />
    <glyph glyph-name="Ugrave" unicode="&#xd9;" horiz-adv-x="661" 
d="M130 43.5q-60 53.5 -60 158.5q0 29 4.5 59t5.5 38l48 349h138l-52 -371q-6 -36 -6 -66q0 -48 23.5 -73.5t78.5 -25.5q71 0 105.5 41.5t46.5 129.5l52 365h137l-54 -385q-10 -70 -35 -128.5t-86.5 -101.5t-169.5 -43q-116 0 -176 53.5zM259 876h172l98 -169h-128z" />
    <glyph glyph-name="Uhungarumlaut" unicode="&#x170;" horiz-adv-x="661" 
d="M130 43.5q-60 53.5 -60 158.5q0 29 4.5 59t5.5 38l48 349h138l-52 -371q-6 -36 -6 -66q0 -48 23.5 -73.5t78.5 -25.5q71 0 105.5 41.5t46.5 129.5l52 365h137l-54 -385q-10 -70 -35 -128.5t-86.5 -101.5t-169.5 -43q-116 0 -176 53.5zM322 876h162l-166 -169h-126z
M551 876h163l-167 -169h-125z" />
    <glyph glyph-name="Umacron" unicode="&#x16a;" horiz-adv-x="661" 
d="M130 43.5q-60 53.5 -60 158.5q0 29 4.5 59t5.5 38l48 349h138l-52 -371q-6 -36 -6 -66q0 -48 23.5 -73.5t78.5 -25.5q71 0 105.5 41.5t46.5 129.5l52 365h137l-54 -385q-10 -70 -35 -128.5t-86.5 -101.5t-169.5 -43q-116 0 -176 53.5zM262 846h309l-14 -104h-309z" />
    <glyph glyph-name="Uogonek" unicode="&#x172;" horiz-adv-x="661" 
d="M273 -185q-32 22 -32 69q0 37 18 64t47 43q-5 -1 -15 -1q-105 0 -163 54.5t-58 157.5q0 29 4.5 59t5.5 38l48 349h138l-52 -371q-6 -36 -6 -67q0 -48 24 -73t79 -25q70 0 104.5 41.5t46.5 129.5l52 365h137l-54 -385q-12 -83 -41 -141t-95 -98q-71 -43 -98 -67.5
t-27 -56.5t37 -32q16 0 31 4.5t23 9.5l-11 -80q-27 -9 -61 -9q-50 0 -82 22z" />
    <glyph glyph-name="Uring" unicode="&#x16e;" horiz-adv-x="661" 
d="M130 43.5q-60 53.5 -60 158.5q0 29 4.5 59t5.5 38l48 349h138l-52 -371q-6 -36 -6 -66q0 -48 23.5 -73.5t78.5 -25.5q71 0 105.5 41.5t46.5 129.5l52 365h137l-54 -385q-10 -70 -35 -128.5t-86.5 -101.5t-169.5 -43q-116 0 -176 53.5zM328.5 716q-27.5 26 -27.5 69
q0 50 34.5 80.5t83.5 30.5q45 0 72.5 -25t27.5 -68q0 -54 -34.5 -83.5t-84.5 -29.5q-44 0 -71.5 26zM438 765.5q12 11.5 12 30.5q0 17 -10.5 27t-26.5 10q-18 0 -30 -12t-12 -31q0 -16 9.5 -26t27.5 -10t30 11.5z" />
    <glyph glyph-name="Utilde" unicode="&#x168;" horiz-adv-x="661" 
d="M130 43.5q-60 53.5 -60 158.5q0 29 4.5 59t5.5 38l48 349h138l-52 -371q-6 -36 -6 -66q0 -48 23.5 -73.5t78.5 -25.5q71 0 105.5 41.5t46.5 129.5l52 365h137l-54 -385q-10 -70 -35 -128.5t-86.5 -101.5t-169.5 -43q-116 0 -176 53.5zM432.5 727q-17.5 6 -41.5 18
q-17 9 -27 13t-21 4q-19 0 -28.5 -11t-11.5 -25h-81q7 62 38.5 95t83.5 33q24 0 42 -6.5t43 -18.5q16 -8 26 -12t20 -4q18 0 27.5 11t11.5 25h81q-5 -59 -37 -93.5t-85 -34.5q-23 0 -40.5 6z" />
    <glyph glyph-name="V" unicode="V" horiz-adv-x="667" 
d="M76 648h147l114 -384l218 384h155l-404 -657h-10z" />
    <glyph glyph-name="W" unicode="W" horiz-adv-x="1024" 
d="M83 648h147l104 -362l228 362h10l127 -362l206 362h154l-386 -657h-10l-131 374l-236 -374h-10z" />
    <glyph glyph-name="Wacute" unicode="&#x1e82;" horiz-adv-x="1024" 
d="M83 648h147l104 -362l228 362h10l127 -362l206 362h154l-386 -657h-10l-131 374l-236 -374h-10zM621 876h178l-188 -169h-135z" />
    <glyph glyph-name="Wcircumflex" unicode="&#x174;" horiz-adv-x="1024" 
d="M83 648h147l104 -362l228 362h10l127 -362l206 362h154l-386 -657h-10l-131 374l-236 -374h-10zM603 885l155 -178h-127l-43 54l-57 -54h-137z" />
    <glyph glyph-name="Wdieresis" unicode="&#x1e84;" horiz-adv-x="1024" 
d="M83 648h147l104 -362l228 362h10l127 -362l206 362h154l-386 -657h-10l-131 374l-236 -374h-10zM424 735q-20 20 -20 52q0 36 24.5 60t59.5 24q33 0 53 -20.5t20 -52.5q0 -36 -23.5 -59.5t-59.5 -23.5q-34 0 -54 20zM642.5 735q-20.5 20 -20.5 52q0 36 24.5 60t59.5 24
q33 0 53 -20.5t20 -52.5q0 -36 -23.5 -59.5t-59.5 -23.5q-33 0 -53.5 20z" />
    <glyph glyph-name="Wgrave" unicode="&#x1e80;" horiz-adv-x="1024" 
d="M83 648h147l104 -362l228 362h10l127 -362l206 362h154l-386 -657h-10l-131 374l-236 -374h-10zM385 876h172l98 -169h-128z" />
    <glyph glyph-name="X" unicode="X" horiz-adv-x="656" 
d="M259 330l-174 318h158l113 -222l173 222h165l-265 -318l178 -330h-158l-117 232l-181 -232h-166z" />
    <glyph glyph-name="Y" unicode="Y" horiz-adv-x="636" 
d="M252 257l-176 391h147l112 -271l190 271h153l-289 -391l-36 -257h-138z" />
    <glyph glyph-name="Yacute" unicode="&#xdd;" horiz-adv-x="636" 
d="M252 257l-176 391h147l112 -271l190 271h153l-289 -391l-36 -257h-138zM426 876h178l-188 -169h-135z" />
    <glyph glyph-name="Ycircumflex" unicode="&#x176;" horiz-adv-x="636" 
d="M252 257l-176 391h147l112 -271l190 271h153l-289 -391l-36 -257h-138zM408 885l155 -178h-127l-43 54l-57 -54h-137z" />
    <glyph glyph-name="Ydieresis" unicode="&#x178;" horiz-adv-x="636" 
d="M252 257l-176 391h147l112 -271l190 271h153l-289 -391l-36 -257h-138zM229 735q-20 20 -20 52q0 36 24.5 60t59.5 24q33 0 53 -20.5t20 -52.5q0 -36 -23.5 -59.5t-59.5 -23.5q-34 0 -54 20zM447.5 735q-20.5 20 -20.5 52q0 36 24.5 60t59.5 24q33 0 53 -20.5t20 -52.5
q0 -36 -23.5 -59.5t-59.5 -23.5q-33 0 -53.5 20z" />
    <glyph glyph-name="Ygrave" unicode="&#x1ef2;" horiz-adv-x="636" 
d="M252 257l-176 391h147l112 -271l190 271h153l-289 -391l-36 -257h-138zM246 876h172l98 -169h-128z" />
    <glyph glyph-name="Z" unicode="Z" horiz-adv-x="597" 
d="M3 10l374 525h-279l16 113h502l-2 -10l-372 -524h297l-16 -114h-522z" />
    <glyph glyph-name="Zacute" unicode="&#x179;" horiz-adv-x="597" 
d="M3 10l374 525h-279l16 113h502l-2 -10l-372 -524h297l-16 -114h-522zM404 876h178l-188 -169h-135z" />
    <glyph glyph-name="Zacute.loclPLK" horiz-adv-x="597" 
d="M3 10l374 525h-279l16 113h502l-2 -10l-372 -524h297l-16 -114h-522zM402 876h156l-134 -169h-127z" />
    <glyph glyph-name="Zcaron" unicode="&#x17d;" horiz-adv-x="597" 
d="M3 10l374 525h-279l16 113h502l-2 -10l-372 -524h297l-16 -114h-522zM203 876h127l43 -54l57 54h137l-209 -178z" />
    <glyph glyph-name="Zdotaccent" unicode="&#x17b;" horiz-adv-x="597" 
d="M3 10l374 525h-279l16 113h502l-2 -10l-372 -524h297l-16 -114h-522zM315.5 735q-20.5 20 -20.5 53q0 36 24.5 60t60.5 24q33 0 53.5 -20.5t20.5 -52.5q0 -37 -24 -60.5t-60 -23.5q-34 0 -54.5 20z" />
    <glyph glyph-name="a" unicode="a" horiz-adv-x="525" 
d="M419.5 421.5q49.5 -38.5 49.5 -110.5q0 -23 -6 -64l-35 -247h-121l4 44q-47 -53 -137 -53q-73 0 -112.5 34t-39.5 96q0 52 28.5 89t76.5 56t106 19q60 0 101 -19q2 20 2 29q0 31 -20 49t-72 18q-70 0 -145 -43l15 106q31 14 69 24.5t94 10.5q93 0 142.5 -38.5zM287 103.5
q27 26.5 34 75.5l1 5q-27 19 -72 19q-42 0 -67.5 -19.5t-25.5 -52.5q0 -26 17 -40t46 -14q40 0 67 26.5z" />
    <glyph glyph-name="aacute" unicode="&#xe1;" horiz-adv-x="525" 
d="M419.5 421.5q49.5 -38.5 49.5 -110.5q0 -23 -6 -64l-35 -247h-121l4 44q-47 -53 -137 -53q-73 0 -112.5 34t-39.5 96q0 52 28.5 89t76.5 56t106 19q60 0 101 -19q2 20 2 29q0 31 -20 49t-72 18q-70 0 -145 -43l15 106q31 14 69 24.5t94 10.5q93 0 142.5 -38.5zM287 103.5
q27 26.5 34 75.5l1 5q-27 19 -72 19q-42 0 -67.5 -19.5t-25.5 -52.5q0 -26 17 -40t46 -14q40 0 67 26.5zM338 689h178l-188 -169h-135z" />
    <glyph glyph-name="abreve" unicode="&#x103;" horiz-adv-x="525" 
d="M419.5 421.5q49.5 -38.5 49.5 -110.5q0 -23 -6 -64l-35 -247h-121l4 44q-47 -53 -137 -53q-73 0 -112.5 34t-39.5 96q0 52 28.5 89t76.5 56t106 19q60 0 101 -19q2 20 2 29q0 31 -20 49t-72 18q-70 0 -145 -43l15 106q31 14 69 24.5t94 10.5q93 0 142.5 -38.5zM287 103.5
q27 26.5 34 75.5l1 5q-27 19 -72 19q-42 0 -67.5 -19.5t-25.5 -52.5q0 -26 17 -40t46 -14q40 0 67 26.5zM178.5 547.5q-37.5 36.5 -37.5 98.5q0 24 4 43h99q-2 -18 -2 -23q0 -52 63 -52q43 0 62.5 18.5t24.5 56.5h100q-9 -178 -192 -178q-84 0 -121.5 36.5z" />
    <glyph glyph-name="uni01CE" unicode="&#x1ce;" horiz-adv-x="525" 
d="M419.5 421.5q49.5 -38.5 49.5 -110.5q0 -23 -6 -64l-35 -247h-121l4 44q-47 -53 -137 -53q-73 0 -112.5 34t-39.5 96q0 52 28.5 89t76.5 56t106 19q60 0 101 -19q2 20 2 29q0 31 -20 49t-72 18q-70 0 -145 -43l15 106q31 14 69 24.5t94 10.5q93 0 142.5 -38.5zM287 103.5
q27 26.5 34 75.5l1 5q-27 19 -72 19q-42 0 -67.5 -19.5t-25.5 -52.5q0 -26 17 -40t46 -14q40 0 67 26.5zM139 689h127l43 -54l57 54h137l-209 -178z" />
    <glyph glyph-name="acircumflex" unicode="&#xe2;" horiz-adv-x="525" 
d="M419.5 421.5q49.5 -38.5 49.5 -110.5q0 -23 -6 -64l-35 -247h-121l4 44q-47 -53 -137 -53q-73 0 -112.5 34t-39.5 96q0 52 28.5 89t76.5 56t106 19q60 0 101 -19q2 20 2 29q0 31 -20 49t-72 18q-70 0 -145 -43l15 106q31 14 69 24.5t94 10.5q93 0 142.5 -38.5zM287 103.5
q27 26.5 34 75.5l1 5q-27 19 -72 19q-42 0 -67.5 -19.5t-25.5 -52.5q0 -26 17 -40t46 -14q40 0 67 26.5zM322 698l155 -178h-127l-43 54l-57 -54h-137z" />
    <glyph glyph-name="adieresis" unicode="&#xe4;" horiz-adv-x="525" 
d="M419.5 421.5q49.5 -38.5 49.5 -110.5q0 -23 -6 -64l-35 -247h-121l4 44q-47 -53 -137 -53q-73 0 -112.5 34t-39.5 96q0 52 28.5 89t76.5 56t106 19q60 0 101 -19q2 20 2 29q0 31 -20 49t-72 18q-70 0 -145 -43l15 106q31 14 69 24.5t94 10.5q93 0 142.5 -38.5zM287 103.5
q27 26.5 34 75.5l1 5q-27 19 -72 19q-42 0 -67.5 -19.5t-25.5 -52.5q0 -26 17 -40t46 -14q40 0 67 26.5zM142 553q-18 18 -18 46q0 35 24 58.5t58 23.5q29 0 47 -18.5t18 -45.5q0 -37 -23 -59.5t-58 -22.5q-30 0 -48 18zM358.5 553q-17.5 18 -17.5 46q0 35 24 58.5t58 23.5
q29 0 46.5 -18t17.5 -46q0 -37 -22.5 -59.5t-57.5 -22.5q-31 0 -48.5 18z" />
    <glyph glyph-name="agrave" unicode="&#xe0;" horiz-adv-x="525" 
d="M419.5 421.5q49.5 -38.5 49.5 -110.5q0 -23 -6 -64l-35 -247h-121l4 44q-47 -53 -137 -53q-73 0 -112.5 34t-39.5 96q0 52 28.5 89t76.5 56t106 19q60 0 101 -19q2 20 2 29q0 31 -20 49t-72 18q-70 0 -145 -43l15 106q31 14 69 24.5t94 10.5q93 0 142.5 -38.5zM287 103.5
q27 26.5 34 75.5l1 5q-27 19 -72 19q-42 0 -67.5 -19.5t-25.5 -52.5q0 -26 17 -40t46 -14q40 0 67 26.5zM145 689h172l98 -169h-128z" />
    <glyph glyph-name="amacron" unicode="&#x101;" horiz-adv-x="525" 
d="M419.5 421.5q49.5 -38.5 49.5 -110.5q0 -23 -6 -64l-35 -247h-121l4 44q-47 -53 -137 -53q-73 0 -112.5 34t-39.5 96q0 52 28.5 89t76.5 56t106 19q60 0 101 -19q2 20 2 29q0 31 -20 49t-72 18q-70 0 -145 -43l15 106q31 14 69 24.5t94 10.5q93 0 142.5 -38.5zM287 103.5
q27 26.5 34 75.5l1 5q-27 19 -72 19q-42 0 -67.5 -19.5t-25.5 -52.5q0 -26 17 -40t46 -14q40 0 67 26.5zM160 656h309l-14 -104h-309z" />
    <glyph glyph-name="aogonek" unicode="&#x105;" horiz-adv-x="525" 
d="M419.5 421.5q49.5 -38.5 49.5 -110.5q0 -23 -6 -64l-35 -247q-49 -9 -84 -38t-35 -63q0 -31 38 -31q16 0 31.5 5t21.5 9l-11 -80q-25 -9 -60 -9q-50 0 -82.5 22t-32.5 67q0 44 25 76.5t69 51.5l3 34q-47 -53 -137 -53q-73 0 -112.5 34t-39.5 96q0 52 28.5 89t76.5 56
t106 19q60 0 101 -19q2 20 2 29q0 31 -20 49t-72 18q-70 0 -145 -43l15 106q31 14 69 24.5t94 10.5q93 0 142.5 -38.5zM287 103.5q27 26.5 34 75.5l1 5q-27 19 -72 19q-42 0 -67.5 -19.5t-25.5 -52.5q0 -26 17 -40t46 -14q40 0 67 26.5z" />
    <glyph glyph-name="aring" unicode="&#xe5;" horiz-adv-x="525" 
d="M419.5 421.5q49.5 -38.5 49.5 -110.5q0 -23 -6 -64l-35 -247h-121l4 44q-47 -53 -137 -53q-73 0 -112.5 34t-39.5 96q0 52 28.5 89t76.5 56t106 19q60 0 101 -19q2 20 2 29q0 31 -20 49t-72 18q-70 0 -145 -43l15 106q31 14 69 24.5t94 10.5q93 0 142.5 -38.5zM287 103.5
q27 26.5 34 75.5l1 5q-27 19 -72 19q-42 0 -67.5 -19.5t-25.5 -52.5q0 -26 17 -40t46 -14q40 0 67 26.5zM228 536q-27 26 -27 69q0 50 34 80.5t84 30.5q44 0 72 -25t28 -68q0 -54 -34.5 -83.5t-84.5 -29.5q-45 0 -72 26zM337 585.5q12 11.5 12 30.5q0 17 -10.5 27t-26.5 10
q-17 0 -29.5 -12.5t-12.5 -30.5q0 -16 10 -26t27 -10q18 0 30 11.5z" />
    <glyph glyph-name="atilde" unicode="&#xe3;" horiz-adv-x="525" 
d="M419.5 421.5q49.5 -38.5 49.5 -110.5q0 -23 -6 -64l-35 -247h-121l4 44q-47 -53 -137 -53q-73 0 -112.5 34t-39.5 96q0 52 28.5 89t76.5 56t106 19q60 0 101 -19q2 20 2 29q0 31 -20 49t-72 18q-70 0 -145 -43l15 106q31 14 69 24.5t94 10.5q93 0 142.5 -38.5zM287 103.5
q27 26.5 34 75.5l1 5q-27 19 -72 19q-42 0 -67.5 -19.5t-25.5 -52.5q0 -26 17 -40t46 -14q40 0 67 26.5zM331.5 540q-17.5 6 -41.5 18q-17 9 -27 13t-21 4q-19 0 -28.5 -11t-11.5 -25h-81q7 62 38.5 95t83.5 33q24 0 42 -6.5t43 -18.5q16 -8 26 -12t20 -4q18 0 27.5 11
t11.5 25h81q-5 -59 -37 -93.5t-85 -34.5q-23 0 -40.5 6z" />
    <glyph glyph-name="ae" unicode="&#xe6;" horiz-adv-x="800" 
d="M444 184v-5q0 -81 114 -81q91 0 168 40l-16 -113q-74 -34 -167 -34q-148 0 -186 80q-21 -34 -65 -57t-108 -23q-80 0 -121 34t-41 96q0 52 28.5 89t76.5 56t106 19q60 0 101 -19q2 20 2 29q0 31 -20 49t-72 18q-70 0 -145 -43l15 106q31 14 69 24.5t94 10.5
q100 0 133 -54q25 26 67 40t88 14q101 0 151 -49.5t50 -128.5q0 -46 -13 -98h-309zM492 331q-28 -24 -37 -63h178q2 8 2 19q0 30 -21 49t-55 19q-39 0 -67 -24zM287 103.5q27 26.5 34 75.5l1 5q-27 19 -72 19q-42 0 -67.5 -19.5t-25.5 -52.5q0 -26 17 -40t46 -14
q40 0 67 26.5z" />
    <glyph glyph-name="aeacute" unicode="&#x1fd;" horiz-adv-x="800" 
d="M444 184v-5q0 -81 114 -81q91 0 168 40l-16 -113q-74 -34 -167 -34q-148 0 -186 80q-21 -34 -65 -57t-108 -23q-80 0 -121 34t-41 96q0 52 28.5 89t76.5 56t106 19q60 0 101 -19q2 20 2 29q0 31 -20 49t-72 18q-70 0 -145 -43l15 106q31 14 69 24.5t94 10.5
q100 0 133 -54q25 26 67 40t88 14q101 0 151 -49.5t50 -128.5q0 -46 -13 -98h-309zM492 331q-28 -24 -37 -63h178q2 8 2 19q0 30 -21 49t-55 19q-39 0 -67 -24zM287 103.5q27 26.5 34 75.5l1 5q-27 19 -72 19q-42 0 -67.5 -19.5t-25.5 -52.5q0 -26 17 -40t46 -14
q40 0 67 26.5zM506 689h178l-188 -169h-135z" />
    <glyph glyph-name="b" unicode="b" horiz-adv-x="591" 
d="M221 7q-37 16 -56 45l-10 -52h-122l93 663h133l-35 -246q53 43 133 43q62 0 107.5 -26.5t69.5 -73t24 -105.5q0 -21 -3 -44q-10 -69 -45 -118.5t-88 -75.5t-114 -26q-50 0 -87 16zM383.5 146q36.5 43 36.5 104q0 46 -26.5 72.5t-71.5 26.5q-40 0 -70 -20.5t-46 -54
t-16 -72.5q0 -46 26.5 -72.5t71.5 -26.5q59 0 95.5 43z" />
    <glyph glyph-name="c" unicode="c" horiz-adv-x="443" 
d="M93.5 41.5q-60.5 51.5 -60.5 153.5q0 19 3 41q16 111 89.5 167.5t181.5 56.5q76 0 125 -29l-16 -111q-49 30 -104 30q-53 0 -91.5 -31t-48.5 -90q-2 -12 -2 -24q0 -48 27 -75.5t78 -27.5q37 0 64.5 11t51.5 26l-17 -122q-19 -11 -53.5 -19t-69.5 -8q-97 0 -157.5 51.5z
" />
    <glyph glyph-name="cacute" unicode="&#x107;" horiz-adv-x="443" 
d="M93.5 41.5q-60.5 51.5 -60.5 153.5q0 19 3 41q16 111 89.5 167.5t181.5 56.5q76 0 125 -29l-16 -111q-49 30 -104 30q-53 0 -91.5 -31t-48.5 -90q-2 -12 -2 -24q0 -48 27 -75.5t78 -27.5q37 0 64.5 11t51.5 26l-17 -122q-19 -11 -53.5 -19t-69.5 -8q-97 0 -157.5 51.5z
M365 689h178l-188 -169h-135z" />
    <glyph glyph-name="cacute.loclPLK" horiz-adv-x="443" 
d="M93.5 41.5q-60.5 51.5 -60.5 153.5q0 19 3 41q16 111 89.5 167.5t181.5 56.5q76 0 125 -29l-16 -111q-49 30 -104 30q-53 0 -91.5 -31t-48.5 -90q-2 -12 -2 -24q0 -48 27 -75.5t78 -27.5q37 0 64.5 11t51.5 26l-17 -122q-19 -11 -53.5 -19t-69.5 -8q-97 0 -157.5 51.5z
M350 689h157l-134 -169h-128z" />
    <glyph glyph-name="ccaron" unicode="&#x10d;" horiz-adv-x="443" 
d="M93.5 41.5q-60.5 51.5 -60.5 153.5q0 19 3 41q16 111 89.5 167.5t181.5 56.5q76 0 125 -29l-16 -111q-49 30 -104 30q-53 0 -91.5 -31t-48.5 -90q-2 -12 -2 -24q0 -48 27 -75.5t78 -27.5q37 0 64.5 11t51.5 26l-17 -122q-19 -11 -53.5 -19t-69.5 -8q-97 0 -157.5 51.5z
M166 689h127l43 -54l57 54h137l-209 -178z" />
    <glyph glyph-name="ccedilla" unicode="&#xe7;" horiz-adv-x="443" 
d="M93.5 41.5q-60.5 51.5 -60.5 153.5q0 19 3 41q16 111 89.5 167.5t181.5 56.5q76 0 125 -29l-16 -111q-49 30 -104 30q-53 0 -91.5 -31t-48.5 -90q-2 -12 -2 -24q0 -48 27 -75.5t78 -27.5q37 0 64.5 11t51.5 26l-17 -122q-19 -11 -53.5 -19t-69.5 -8q-97 0 -157.5 51.5z
M289.5 -58q19.5 -17 19.5 -50q0 -99 -125 -99q-44 0 -70 12l9 63q20 -12 50 -12q20 0 32 8t12 25q0 12 -7.5 19.5t-21.5 7.5q-22 0 -36 -16l-11 7l49 116h78l-30 -63q32 -1 51.5 -18z" />
    <glyph glyph-name="ccircumflex" unicode="&#x109;" horiz-adv-x="443" 
d="M93.5 41.5q-60.5 51.5 -60.5 153.5q0 19 3 41q16 111 89.5 167.5t181.5 56.5q76 0 125 -29l-16 -111q-49 30 -104 30q-53 0 -91.5 -31t-48.5 -90q-2 -12 -2 -24q0 -48 27 -75.5t78 -27.5q37 0 64.5 11t51.5 26l-17 -122q-19 -11 -53.5 -19t-69.5 -8q-97 0 -157.5 51.5z
M349 698l155 -178h-127l-43 54l-57 -54h-137z" />
    <glyph glyph-name="cdotaccent" unicode="&#x10b;" horiz-adv-x="443" 
d="M93.5 41.5q-60.5 51.5 -60.5 153.5q0 19 3 41q16 111 89.5 167.5t181.5 56.5q76 0 125 -29l-16 -111q-49 30 -104 30q-53 0 -91.5 -31t-48.5 -90q-2 -12 -2 -24q0 -48 27 -75.5t78 -27.5q37 0 64.5 11t51.5 26l-17 -122q-19 -11 -53.5 -19t-69.5 -8q-97 0 -157.5 51.5z
M281 553q-18 18 -18 46q0 35 24 58.5t58 23.5q29 0 47 -18.5t18 -45.5q0 -37 -23 -59.5t-58 -22.5q-30 0 -48 18z" />
    <glyph glyph-name="d" unicode="d" horiz-adv-x="590" 
d="M88.5 45.5q-54.5 54.5 -54.5 150.5q0 22 3 44q15 102 81 161t162 59q48 0 83 -14t54 -41l36 258h133l-92 -663h-122l3 46q-22 -25 -58.5 -40t-84.5 -15q-89 0 -143.5 54.5zM338 123q30 20 46.5 54t16.5 73q0 47 -26 73t-70 26q-60 0 -97 -42.5t-37 -104.5q0 -45 26 -72
t72 -27q39 0 69 20z" />
    <glyph glyph-name="eth" unicode="&#xf0;" horiz-adv-x="571" 
d="M92.5 45.5q-59.5 54.5 -59.5 149.5q0 21 3 40q9 64 43 114.5t87.5 79.5t120.5 29q37 0 72.5 -12.5t54.5 -39.5q-8 66 -45 115l-69 -39l-35 63l38 22q-41 16 -108 21l13 92q65 -3 116.5 -19.5t81.5 -37.5l74 40l34 -64l-50 -27q41 -46 61.5 -110t20.5 -133q0 -36 -6 -78
q-19 -128 -91 -194t-189 -66q-108 0 -167.5 54.5zM353 134.5q37 31.5 46 91.5q2 12 2 24q0 46 -25.5 72.5t-70.5 26.5q-49 0 -83 -30.5t-46 -77.5q-5 -20 -5 -41q0 -44 25.5 -70.5t69.5 -26.5q50 0 87 31.5z" />
    <glyph glyph-name="dcaron" unicode="&#x10f;" horiz-adv-x="758" 
d="M88.5 45.5q-54.5 54.5 -54.5 150.5q0 22 3 44q15 102 81 161t162 59q48 0 83 -14t54 -41l36 258h133l-92 -663h-122l3 46q-22 -25 -58.5 -40t-84.5 -15q-89 0 -143.5 54.5zM338 123q30 20 46.5 54t16.5 73q0 47 -26 73t-70 26q-60 0 -97 -42.5t-37 -104.5q0 -45 26 -72
t72 -27q39 0 69 20zM707 550q-23 3 -35.5 16.5t-12.5 35.5q0 30 20 48t49 18t47 -17.5t18 -48.5q0 -36 -24 -69t-62 -54h-72q50 38 72 71z" />
    <glyph glyph-name="dcroat" unicode="&#x111;" horiz-adv-x="568" 
d="M640 501h-76l-70 -501h-122l3 46q-22 -25 -58.5 -40t-84.5 -15q-89 0 -143.5 54.5t-54.5 150.5q0 22 3 44q15 102 81 161t162 59q48 0 83 -14t54 -41l13 96h-103l15 96h102l9 66h133l-9 -66h78zM338 123q30 20 46.5 54t16.5 73q0 47 -26 73t-70 26q-60 0 -97 -42.5
t-37 -104.5q0 -45 26 -72t72 -27q39 0 69 20z" />
    <glyph glyph-name="e" unicode="e" horiz-adv-x="525" 
d="M98 37.5q-64 46.5 -64 154.5q0 21 3 45q13 101 79 162t172 61q102 0 152 -49.5t50 -128.5q0 -46 -13 -98h-309v-4q0 -82 115 -82q88 0 168 40l-17 -113q-25 -13 -68 -23.5t-97 -10.5q-107 0 -171 46.5zM358 268q2 8 2 19q0 30 -21 49t-56 19q-38 0 -66.5 -24t-36.5 -63
h178z" />
    <glyph glyph-name="eacute" unicode="&#xe9;" horiz-adv-x="525" 
d="M98 37.5q-64 46.5 -64 154.5q0 21 3 45q13 101 79 162t172 61q102 0 152 -49.5t50 -128.5q0 -46 -13 -98h-309v-4q0 -82 115 -82q88 0 168 40l-17 -113q-25 -13 -68 -23.5t-97 -10.5q-107 0 -171 46.5zM358 268q2 8 2 19q0 30 -21 49t-56 19q-38 0 -66.5 -24t-36.5 -63
h178zM350 689h178l-188 -169h-135z" />
    <glyph glyph-name="ebreve" unicode="&#x115;" horiz-adv-x="525" 
d="M98 37.5q-64 46.5 -64 154.5q0 21 3 45q13 101 79 162t172 61q102 0 152 -49.5t50 -128.5q0 -46 -13 -98h-309v-4q0 -82 115 -82q88 0 168 40l-17 -113q-25 -13 -68 -23.5t-97 -10.5q-107 0 -171 46.5zM358 268q2 8 2 19q0 30 -21 49t-56 19q-38 0 -66.5 -24t-36.5 -63
h178zM190.5 547.5q-37.5 36.5 -37.5 98.5q0 24 4 43h99q-2 -18 -2 -23q0 -52 63 -52q43 0 62.5 18.5t24.5 56.5h100q-9 -178 -192 -178q-84 0 -121.5 36.5z" />
    <glyph glyph-name="ecaron" unicode="&#x11b;" horiz-adv-x="525" 
d="M98 37.5q-64 46.5 -64 154.5q0 21 3 45q13 101 79 162t172 61q102 0 152 -49.5t50 -128.5q0 -46 -13 -98h-309v-4q0 -82 115 -82q88 0 168 40l-17 -113q-25 -13 -68 -23.5t-97 -10.5q-107 0 -171 46.5zM358 268q2 8 2 19q0 30 -21 49t-56 19q-38 0 -66.5 -24t-36.5 -63
h178zM151 689h127l43 -54l57 54h137l-209 -178z" />
    <glyph glyph-name="ecircumflex" unicode="&#xea;" horiz-adv-x="525" 
d="M98 37.5q-64 46.5 -64 154.5q0 21 3 45q13 101 79 162t172 61q102 0 152 -49.5t50 -128.5q0 -46 -13 -98h-309v-4q0 -82 115 -82q88 0 168 40l-17 -113q-25 -13 -68 -23.5t-97 -10.5q-107 0 -171 46.5zM358 268q2 8 2 19q0 30 -21 49t-56 19q-38 0 -66.5 -24t-36.5 -63
h178zM334 698l155 -178h-127l-43 54l-57 -54h-137z" />
    <glyph glyph-name="edieresis" unicode="&#xeb;" horiz-adv-x="525" 
d="M98 37.5q-64 46.5 -64 154.5q0 21 3 45q13 101 79 162t172 61q102 0 152 -49.5t50 -128.5q0 -46 -13 -98h-309v-4q0 -82 115 -82q88 0 168 40l-17 -113q-25 -13 -68 -23.5t-97 -10.5q-107 0 -171 46.5zM358 268q2 8 2 19q0 30 -21 49t-56 19q-38 0 -66.5 -24t-36.5 -63
h178zM154 553q-18 18 -18 46q0 35 24 58.5t58 23.5q29 0 47 -18.5t18 -45.5q0 -37 -23 -59.5t-58 -22.5q-30 0 -48 18zM370.5 553q-17.5 18 -17.5 46q0 35 24 58.5t58 23.5q29 0 46.5 -18t17.5 -46q0 -37 -22.5 -59.5t-57.5 -22.5q-31 0 -48.5 18z" />
    <glyph glyph-name="edotaccent" unicode="&#x117;" horiz-adv-x="525" 
d="M98 37.5q-64 46.5 -64 154.5q0 21 3 45q13 101 79 162t172 61q102 0 152 -49.5t50 -128.5q0 -46 -13 -98h-309v-4q0 -82 115 -82q88 0 168 40l-17 -113q-25 -13 -68 -23.5t-97 -10.5q-107 0 -171 46.5zM358 268q2 8 2 19q0 30 -21 49t-56 19q-38 0 -66.5 -24t-36.5 -63
h178zM266 553q-18 18 -18 46q0 35 24 58.5t58 23.5q29 0 47 -18.5t18 -45.5q0 -37 -23 -59.5t-58 -22.5q-30 0 -48 18z" />
    <glyph glyph-name="egrave" unicode="&#xe8;" horiz-adv-x="525" 
d="M98 37.5q-64 46.5 -64 154.5q0 21 3 45q13 101 79 162t172 61q102 0 152 -49.5t50 -128.5q0 -46 -13 -98h-309v-4q0 -82 115 -82q88 0 168 40l-17 -113q-25 -13 -68 -23.5t-97 -10.5q-107 0 -171 46.5zM358 268q2 8 2 19q0 30 -21 49t-56 19q-38 0 -66.5 -24t-36.5 -63
h178zM157 689h172l98 -169h-128z" />
    <glyph glyph-name="emacron" unicode="&#x113;" horiz-adv-x="525" 
d="M98 37.5q-64 46.5 -64 154.5q0 21 3 45q13 101 79 162t172 61q102 0 152 -49.5t50 -128.5q0 -46 -13 -98h-309v-4q0 -82 115 -82q88 0 168 40l-17 -113q-25 -13 -68 -23.5t-97 -10.5q-107 0 -171 46.5zM358 268q2 8 2 19q0 30 -21 49t-56 19q-38 0 -66.5 -24t-36.5 -63
h178zM172 656h309l-14 -104h-309z" />
    <glyph glyph-name="eogonek" unicode="&#x119;" horiz-adv-x="525" 
d="M168 184v-4q0 -82 115 -82q85 0 168 40l-17 -113q-70 -27 -111 -57.5t-41 -68.5q0 -31 38 -31q16 0 31.5 5t21.5 9l-11 -80q-25 -9 -60 -9q-50 0 -82 22t-32 67q0 38 18.5 67t52.5 44q-102 0 -163.5 45.5t-61.5 152.5q0 22 3 46q13 101 79 162t172 61q102 0 152 -49.5
t50 -128.5q0 -46 -13 -98h-309zM216.5 331q-28.5 -24 -36.5 -63h177q2 8 2 19q0 30 -20.5 49t-55.5 19q-38 0 -66.5 -24z" />
    <glyph glyph-name="f" unicode="f" horiz-adv-x="370" 
d="M121 347h-78l15 104h77l5 37q13 94 59.5 142.5t142.5 48.5q34 0 60 -6t39 -12l-15 -108q-9 6 -27 10.5t-38 4.5q-43 0 -63 -24.5t-27 -69.5l-3 -23h103l-15 -104h-102l-49 -347h-133z" />
    <glyph glyph-name="g" unicode="g" horiz-adv-x="593" 
d="M77 -187l16 109q50 -20 113 -20q75 0 113.5 36.5t49.5 110.5l1 6q-20 -24 -56.5 -39.5t-83.5 -15.5q-90 0 -142.5 54t-52.5 148q0 21 3 43q16 102 82 158.5t164 56.5q50 0 87 -17.5t55 -48.5l13 57h121l-58 -408q-13 -94 -48 -149t-92 -78.5t-142 -23.5q-90 0 -143 21z
M335.5 131q29.5 20 46 53t16.5 69q0 47 -26.5 72t-67.5 25q-38 0 -68 -19.5t-47 -52.5t-17 -71q0 -44 26 -70t70 -26q38 0 67.5 20z" />
    <glyph glyph-name="gbreve" unicode="&#x11f;" horiz-adv-x="593" 
d="M77 -187l16 109q50 -20 113 -20q75 0 113.5 36.5t49.5 110.5l1 6q-20 -24 -56.5 -39.5t-83.5 -15.5q-90 0 -142.5 54t-52.5 148q0 21 3 43q16 102 82 158.5t164 56.5q50 0 87 -17.5t55 -48.5l13 57h121l-58 -408q-13 -94 -48 -149t-92 -78.5t-142 -23.5q-90 0 -143 21z
M335.5 131q29.5 20 46 53t16.5 69q0 47 -26.5 72t-67.5 25q-38 0 -68 -19.5t-47 -52.5t-17 -71q0 -44 26 -70t70 -26q38 0 67.5 20zM210.5 547.5q-37.5 36.5 -37.5 98.5q0 24 4 43h99q-2 -18 -2 -23q0 -52 63 -52q43 0 62.5 18.5t24.5 56.5h100q-9 -178 -192 -178
q-84 0 -121.5 36.5z" />
    <glyph glyph-name="gcircumflex" unicode="&#x11d;" horiz-adv-x="593" 
d="M77 -187l16 109q50 -20 113 -20q75 0 113.5 36.5t49.5 110.5l1 6q-20 -24 -56.5 -39.5t-83.5 -15.5q-90 0 -142.5 54t-52.5 148q0 21 3 43q16 102 82 158.5t164 56.5q50 0 87 -17.5t55 -48.5l13 57h121l-58 -408q-13 -94 -48 -149t-92 -78.5t-142 -23.5q-90 0 -143 21z
M335.5 131q29.5 20 46 53t16.5 69q0 47 -26.5 72t-67.5 25q-38 0 -68 -19.5t-47 -52.5t-17 -71q0 -44 26 -70t70 -26q38 0 67.5 20zM354 698l155 -178h-127l-43 54l-57 -54h-137z" />
    <glyph glyph-name="gcommaaccent" unicode="&#x123;" horiz-adv-x="593" 
d="M77 -187l16 109q50 -20 113 -20q75 0 113.5 36.5t49.5 110.5l1 6q-20 -24 -56.5 -39.5t-83.5 -15.5q-90 0 -142.5 54t-52.5 148q0 21 3 43q16 102 82 158.5t164 56.5q50 0 87 -17.5t55 -48.5l13 57h121l-58 -408q-13 -94 -48 -149t-92 -78.5t-142 -23.5q-90 0 -143 21z
M335.5 131q29.5 20 46 53t16.5 69q0 47 -26.5 72t-67.5 25q-38 0 -68 -19.5t-47 -52.5t-17 -71q0 -44 26 -70t70 -26q38 0 67.5 20zM340 638q23 -3 35.5 -16.5t12.5 -35.5q0 -30 -20 -48t-49 -18t-47 17.5t-18 48.5q0 36 24 69t62 54h72q-50 -38 -72 -71z" />
    <glyph glyph-name="gdotaccent" unicode="&#x121;" horiz-adv-x="593" 
d="M77 -187l16 109q50 -20 113 -20q75 0 113.5 36.5t49.5 110.5l1 6q-20 -24 -56.5 -39.5t-83.5 -15.5q-90 0 -142.5 54t-52.5 148q0 21 3 43q16 102 82 158.5t164 56.5q50 0 87 -17.5t55 -48.5l13 57h121l-58 -408q-13 -94 -48 -149t-92 -78.5t-142 -23.5q-90 0 -143 21z
M335.5 131q29.5 20 46 53t16.5 69q0 47 -26.5 72t-67.5 25q-38 0 -68 -19.5t-47 -52.5t-17 -71q0 -44 26 -70t70 -26q38 0 67.5 20zM286 553q-18 18 -18 46q0 35 24 58.5t58 23.5q29 0 47 -18.5t18 -45.5q0 -37 -23 -59.5t-58 -22.5q-30 0 -48 18z" />
    <glyph glyph-name="h" unicode="h" horiz-adv-x="547" 
d="M126 663h133l-34 -249q46 46 123 46q69 0 109.5 -38.5t40.5 -109.5q0 -14 -5 -56l-36 -256h-133l36 254q1 6 2.5 19t1.5 22q0 24 -14.5 39.5t-47.5 15.5q-50 0 -72.5 -33.5t-32.5 -96.5l-31 -220h-133z" />
    <glyph glyph-name="hbar" unicode="&#x127;" horiz-adv-x="565" 
d="M476.5 421.5q40.5 -38.5 40.5 -109.5q0 -14 -5 -56l-36 -256h-133l36 254q1 6 2.5 19t1.5 22q0 24 -14.5 39.5t-47.5 15.5q-50 0 -72.5 -33.5t-32.5 -96.5l-31 -220h-133l70 501h-77l15 96h76l9 66h133l-9 -66h104l-15 -96h-102l-12 -87q46 46 123 46q69 0 109.5 -38.5z
" />
    <glyph glyph-name="hcircumflex" unicode="&#x125;" horiz-adv-x="547" 
d="M126 663h133l-34 -249q46 46 123 46q69 0 109.5 -38.5t40.5 -109.5q0 -14 -5 -56l-36 -256h-133l36 254q1 6 2.5 19t1.5 22q0 24 -14.5 39.5t-47.5 15.5q-50 0 -72.5 -33.5t-32.5 -96.5l-31 -220h-133zM224 895l155 -178h-127l-43 54l-57 -54h-137z" />
    <glyph glyph-name="i" unicode="i" horiz-adv-x="281" 
d="M142.5 553.5q-18.5 18.5 -18.5 47.5q0 37 22 58.5t55 21.5q30 0 48.5 -18t18.5 -48q0 -38 -22 -59t-55 -21q-30 0 -48.5 18.5zM94 347h-57l15 104h189l-63 -451h-133z" />
    <glyph glyph-name="dotlessi" unicode="&#x131;" horiz-adv-x="281" 
d="M94 347h-57l15 104h189l-63 -451h-133z" />
    <glyph glyph-name="iacute" unicode="&#xed;" horiz-adv-x="281" 
d="M94 347h-57l15 104h189l-63 -451h-133zM218 689h178l-188 -169h-135z" />
    <glyph glyph-name="iacute_j.loclNLD" horiz-adv-x="562" 
d="M94 347h-57l15 104h189l-63 -451h-133zM218 689h178l-188 -169h-135zM137 -192l15 102q25 -10 64 -10q41 0 64 17t34 47t18 78l43 305h-57l15 104h189l-56 -400q-12 -84 -32 -138t-67 -87t-132 -33q-65 0 -98 15zM505 689h178l-188 -169h-135z" />
    <glyph glyph-name="ibreve" unicode="&#x12d;" horiz-adv-x="281" 
d="M94 347h-57l15 104h189l-63 -451h-133zM58.5 547.5q-37.5 36.5 -37.5 98.5q0 24 4 43h99q-2 -18 -2 -23q0 -52 63 -52q43 0 62.5 18.5t24.5 56.5h100q-9 -178 -192 -178q-84 0 -121.5 36.5z" />
    <glyph glyph-name="icircumflex" unicode="&#xee;" horiz-adv-x="281" 
d="M94 347h-57l15 104h189l-63 -451h-133zM202 698l155 -178h-127l-43 54l-57 -54h-137z" />
    <glyph glyph-name="idieresis" unicode="&#xef;" horiz-adv-x="281" 
d="M94 347h-57l15 104h189l-63 -451h-133zM22 553q-18 18 -18 46q0 35 24 58.5t58 23.5q29 0 47 -18.5t18 -45.5q0 -37 -23 -59.5t-58 -22.5q-30 0 -48 18zM238.5 553q-17.5 18 -17.5 46q0 35 24 58.5t58 23.5q29 0 46.5 -18t17.5 -46q0 -37 -22.5 -59.5t-57.5 -22.5
q-31 0 -48.5 18z" />
    <glyph glyph-name="i.loclTRK" horiz-adv-x="281" 
d="M94 347h-57l15 104h189l-63 -451h-133zM134 553q-18 18 -18 46q0 35 24 58.5t58 23.5q29 0 47 -18.5t18 -45.5q0 -37 -23 -59.5t-58 -22.5q-30 0 -48 18z" />
    <glyph glyph-name="igrave" unicode="&#xec;" horiz-adv-x="281" 
d="M94 347h-57l15 104h189l-63 -451h-133zM25 689h172l98 -169h-128z" />
    <glyph glyph-name="ij" unicode="&#x133;" horiz-adv-x="562" 
d="M142.5 553.5q-18.5 18.5 -18.5 47.5q0 37 22 58.5t55 21.5q30 0 48.5 -18t18.5 -48q0 -38 -22 -59t-55 -21q-30 0 -48.5 18.5zM94 347h-57l15 104h189l-63 -451h-133zM423.5 553.5q-18.5 18.5 -18.5 47.5q0 37 22 58.5t55 21.5q30 0 48.5 -18t18.5 -48q0 -38 -22 -59
t-55 -21q-30 0 -48.5 18.5zM137 -192l15 102q25 -10 64 -10q41 0 64 17t34 47t18 78l43 305h-57l15 104h189l-56 -400q-12 -84 -32 -138t-67 -87t-132 -33q-65 0 -98 15z" />
    <glyph glyph-name="imacron" unicode="&#x12b;" horiz-adv-x="281" 
d="M94 347h-57l15 104h189l-63 -451h-133zM40 656h309l-14 -104h-309z" />
    <glyph glyph-name="iogonek" unicode="&#x12f;" horiz-adv-x="281" 
d="M249.5 663q18.5 -18 18.5 -48q0 -38 -22 -59t-55 -21q-30 0 -48.5 18.5t-18.5 47.5q0 37 22 58.5t55 21.5q30 0 48.5 -18zM52 451h189l-63 -451q-52 -11 -85.5 -39.5t-33.5 -61.5q0 -31 38 -31q16 0 31.5 5t21.5 9l-11 -80q-25 -9 -60 -9q-50 0 -82.5 22t-32.5 67
q0 42 21.5 73t60.5 50l48 342h-57z" />
    <glyph glyph-name="itilde" unicode="&#x129;" horiz-adv-x="281" 
d="M94 347h-57l15 104h189l-63 -451h-133zM211.5 540q-17.5 6 -41.5 18q-17 9 -27 13t-21 4q-19 0 -28.5 -11t-11.5 -25h-81q7 62 38.5 95t83.5 33q24 0 42 -6.5t43 -18.5q16 -8 26 -12t20 -4q18 0 27.5 11t11.5 25h81q-5 -59 -37 -93.5t-85 -34.5q-23 0 -40.5 6z" />
    <glyph glyph-name="j" unicode="j" horiz-adv-x="281" 
d="M142.5 553.5q-18.5 18.5 -18.5 47.5q0 37 22 58.5t55 21.5q30 0 48.5 -18t18.5 -48q0 -38 -22 -59t-55 -21q-30 0 -48.5 18.5zM-144 -192l15 102q25 -10 64 -10q41 0 64 17t34 47t18 78l43 305h-57l15 104h189l-56 -400q-12 -84 -32 -138t-67 -87t-132 -33q-65 0 -98 15z
" />
    <glyph glyph-name="uni0237" unicode="&#x237;" horiz-adv-x="281" 
d="M-144 -192l15 102q25 -10 64 -10q41 0 64 17t34 47t18 78l43 305h-57l15 104h189l-56 -400q-12 -84 -32 -138t-67 -87t-132 -33q-65 0 -98 15z" />
    <glyph glyph-name="jcircumflex" unicode="&#x135;" horiz-adv-x="281" 
d="M-144 -192l15 102q25 -10 64 -10q41 0 64 17t34 47t18 78l43 305h-57l15 104h189l-56 -400q-12 -84 -32 -138t-67 -87t-132 -33q-65 0 -98 15zM207 698l155 -178h-127l-43 54l-57 -54h-137z" />
    <glyph glyph-name="k" unicode="k" horiz-adv-x="535" 
d="M126 663h133l-58 -415l190 203h166l-213 -214l153 -237h-160l-139 229l-32 -229h-133z" />
    <glyph glyph-name="kcommaaccent" unicode="&#x137;" horiz-adv-x="535" 
d="M126 663h133l-58 -415l190 203h166l-213 -214l153 -237h-160l-139 229l-32 -229h-133zM216 -162q-22 2 -34.5 16t-12.5 36q0 30 19.5 48t48.5 18t47 -17.5t18 -48.5q0 -35 -19.5 -62.5t-48.5 -45.5h-72q34 28 54 56z" />
    <glyph glyph-name="kgreenlandic" unicode="&#x138;" horiz-adv-x="531" 
d="M97 451h133l-30 -210l190 210h166l-212 -222l153 -229h-160l-140 220l-31 -220h-133z" />
    <glyph glyph-name="l" unicode="l" horiz-adv-x="263" 
d="M126 663h133l-93 -663h-133z" />
    <glyph glyph-name="lacute" unicode="&#x13a;" horiz-adv-x="298" 
d="M126 663h133l-93 -663h-133zM288 901h178l-188 -169h-135z" />
    <glyph glyph-name="lcaron" unicode="&#x13e;" horiz-adv-x="437" 
d="M126 663h133l-93 -663h-133zM386 550q-23 3 -35.5 16.5t-12.5 35.5q0 30 20 48t49 18t47 -17.5t18 -48.5q0 -36 -24 -69t-62 -54h-72q50 38 72 71z" />
    <glyph glyph-name="lcommaaccent" unicode="&#x13c;" horiz-adv-x="263" 
d="M126 663h133l-93 -663h-133zM65 -162q-22 2 -34.5 16t-12.5 36q0 30 19.5 48t48.5 18t47 -17.5t18 -48.5q0 -35 -19.5 -62.5t-48.5 -45.5h-72q34 28 54 56z" />
    <glyph glyph-name="ldot" unicode="&#x140;" horiz-adv-x="491" 
d="M126 663h133l-93 -663h-133zM331 280q-18 18 -18 46q0 35 24 58.5t58 23.5q29 0 47 -18.5t18 -45.5q0 -37 -23 -59.5t-58 -22.5q-30 0 -48 18z" />
    <glyph glyph-name="lslash" unicode="&#x142;" horiz-adv-x="359" 
d="M116 250l-82 -45l16 106l80 44l43 308h133l-34 -248l83 46l-15 -109l-83 -42l-44 -310h-133z" />
    <glyph glyph-name="m" unicode="m" horiz-adv-x="814" 
d="M97 451h121l-4 -52q20 27 54 44t76 17q44 0 75.5 -18t47.5 -51q23 31 60.5 50t86.5 19q71 0 111 -39t40 -110q0 -26 -5 -56l-36 -255h-133l35 244q5 35 5 52q0 54 -54 54q-43 0 -67.5 -33t-33.5 -100l-31 -217h-133l35 244q5 35 5 52q0 54 -54 54q-43 0 -67.5 -33
t-33.5 -100l-31 -217h-133z" />
    <glyph glyph-name="n" unicode="n" horiz-adv-x="547" 
d="M97 451h121l-4 -49q49 58 134 58q69 0 109.5 -39t40.5 -109q0 -14 -5 -56l-36 -256h-133l36 254q1 6 2.5 19t1.5 22q0 24 -14.5 39.5t-47.5 15.5q-50 0 -72.5 -33.5t-32.5 -96.5l-31 -220h-133z" />
    <glyph glyph-name="nacute" unicode="&#x144;" horiz-adv-x="547" 
d="M97 451h121l-4 -49q49 58 134 58q69 0 109.5 -39t40.5 -109q0 -14 -5 -56l-36 -256h-133l36 254q1 6 2.5 19t1.5 22q0 24 -14.5 39.5t-47.5 15.5q-50 0 -72.5 -33.5t-32.5 -96.5l-31 -220h-133zM379 689h178l-188 -169h-135z" />
    <glyph glyph-name="nacute.loclPLK" horiz-adv-x="547" 
d="M97 451h121l-4 -49q49 58 134 58q69 0 109.5 -39t40.5 -109q0 -14 -5 -56l-36 -256h-133l36 254q1 6 2.5 19t1.5 22q0 24 -14.5 39.5t-47.5 15.5q-50 0 -72.5 -33.5t-32.5 -96.5l-31 -220h-133zM364 689h157l-134 -169h-128z" />
    <glyph glyph-name="ncaron" unicode="&#x148;" horiz-adv-x="547" 
d="M97 451h121l-4 -49q49 58 134 58q69 0 109.5 -39t40.5 -109q0 -14 -5 -56l-36 -256h-133l36 254q1 6 2.5 19t1.5 22q0 24 -14.5 39.5t-47.5 15.5q-50 0 -72.5 -33.5t-32.5 -96.5l-31 -220h-133zM180 689h127l43 -54l57 54h137l-209 -178z" />
    <glyph glyph-name="ncommaaccent" unicode="&#x146;" horiz-adv-x="547" 
d="M97 451h121l-4 -49q49 58 134 58q69 0 109.5 -39t40.5 -109q0 -14 -5 -56l-36 -256h-133l36 254q1 6 2.5 19t1.5 22q0 24 -14.5 39.5t-47.5 15.5q-50 0 -72.5 -33.5t-32.5 -96.5l-31 -220h-133zM209 -162q-22 2 -34.5 16t-12.5 36q0 30 19.5 48t48.5 18t47 -17.5
t18 -48.5q0 -35 -19.5 -62.5t-48.5 -45.5h-72q34 28 54 56z" />
    <glyph glyph-name="eng" unicode="&#x14b;" horiz-adv-x="547" 
d="M188 -197l14 99q18 -5 37 -5q32 0 49.5 16.5t25 44t14.5 75.5l32 221q1 6 2.5 19t1.5 22q0 24 -14.5 39.5t-47.5 15.5q-50 0 -72.5 -33.5t-32.5 -96.5l-31 -220h-133l64 451h121l-4 -48q50 58 134 58q69 0 109.5 -39t40.5 -109q0 -15 -5 -57l-37 -256
q-14 -100 -55 -153.5t-136 -53.5q-51 0 -77 10z" />
    <glyph glyph-name="ntilde" unicode="&#xf1;" horiz-adv-x="547" 
d="M97 451h121l-4 -49q49 58 134 58q69 0 109.5 -39t40.5 -109q0 -14 -5 -56l-36 -256h-133l36 254q1 6 2.5 19t1.5 22q0 24 -14.5 39.5t-47.5 15.5q-50 0 -72.5 -33.5t-32.5 -96.5l-31 -220h-133zM372.5 540q-17.5 6 -41.5 18q-17 9 -27 13t-21 4q-19 0 -28.5 -11
t-11.5 -25h-81q7 62 38.5 95t83.5 33q24 0 42 -6.5t43 -18.5q16 -8 26 -12t20 -4q18 0 27.5 11t11.5 25h81q-5 -59 -37 -93.5t-85 -34.5q-23 0 -40.5 6z" />
    <glyph glyph-name="o" unicode="o" horiz-adv-x="573" 
d="M93 48.5q-59 57.5 -59 150.5q0 19 3 40q9 65 45.5 115.5t95.5 78t134 27.5q105 0 166.5 -54.5t61.5 -150.5q0 -20 -3 -41q-15 -104 -90 -163.5t-186 -59.5q-109 0 -168 57.5zM338 123q31 20 47.5 54t16.5 73q0 46 -25.5 72.5t-70.5 26.5q-40 0 -70.5 -21t-47 -55.5
t-16.5 -73.5q0 -44 25.5 -70t69.5 -26q40 0 71 20z" />
    <glyph glyph-name="oacute" unicode="&#xf3;" horiz-adv-x="573" 
d="M93 48.5q-59 57.5 -59 150.5q0 19 3 40q9 65 45.5 115.5t95.5 78t134 27.5q105 0 166.5 -54.5t61.5 -150.5q0 -20 -3 -41q-15 -104 -90 -163.5t-186 -59.5q-109 0 -168 57.5zM338 123q31 20 47.5 54t16.5 73q0 46 -25.5 72.5t-70.5 26.5q-40 0 -70.5 -21t-47 -55.5
t-16.5 -73.5q0 -44 25.5 -70t69.5 -26q40 0 71 20zM370 689h178l-188 -169h-135z" />
    <glyph glyph-name="oacute.loclPLK" horiz-adv-x="573" 
d="M93 48.5q-59 57.5 -59 150.5q0 19 3 40q9 65 45.5 115.5t95.5 78t134 27.5q105 0 166.5 -54.5t61.5 -150.5q0 -20 -3 -41q-15 -104 -90 -163.5t-186 -59.5q-109 0 -168 57.5zM338 123q31 20 47.5 54t16.5 73q0 46 -25.5 72.5t-70.5 26.5q-40 0 -70.5 -21t-47 -55.5
t-16.5 -73.5q0 -44 25.5 -70t69.5 -26q40 0 71 20zM355 689h157l-134 -169h-128z" />
    <glyph glyph-name="obreve" unicode="&#x14f;" horiz-adv-x="573" 
d="M93 48.5q-59 57.5 -59 150.5q0 19 3 40q9 65 45.5 115.5t95.5 78t134 27.5q105 0 166.5 -54.5t61.5 -150.5q0 -20 -3 -41q-15 -104 -90 -163.5t-186 -59.5q-109 0 -168 57.5zM338 123q31 20 47.5 54t16.5 73q0 46 -25.5 72.5t-70.5 26.5q-40 0 -70.5 -21t-47 -55.5
t-16.5 -73.5q0 -44 25.5 -70t69.5 -26q40 0 71 20zM210.5 547.5q-37.5 36.5 -37.5 98.5q0 24 4 43h99q-2 -18 -2 -23q0 -52 63 -52q43 0 62.5 18.5t24.5 56.5h100q-9 -178 -192 -178q-84 0 -121.5 36.5z" />
    <glyph glyph-name="ocircumflex" unicode="&#xf4;" horiz-adv-x="573" 
d="M93 48.5q-59 57.5 -59 150.5q0 19 3 40q9 65 45.5 115.5t95.5 78t134 27.5q105 0 166.5 -54.5t61.5 -150.5q0 -20 -3 -41q-15 -104 -90 -163.5t-186 -59.5q-109 0 -168 57.5zM338 123q31 20 47.5 54t16.5 73q0 46 -25.5 72.5t-70.5 26.5q-40 0 -70.5 -21t-47 -55.5
t-16.5 -73.5q0 -44 25.5 -70t69.5 -26q40 0 71 20zM354 698l155 -178h-127l-43 54l-57 -54h-137z" />
    <glyph glyph-name="odieresis" unicode="&#xf6;" horiz-adv-x="573" 
d="M93 48.5q-59 57.5 -59 150.5q0 19 3 40q9 65 45.5 115.5t95.5 78t134 27.5q105 0 166.5 -54.5t61.5 -150.5q0 -20 -3 -41q-15 -104 -90 -163.5t-186 -59.5q-109 0 -168 57.5zM338 123q31 20 47.5 54t16.5 73q0 46 -25.5 72.5t-70.5 26.5q-40 0 -70.5 -21t-47 -55.5
t-16.5 -73.5q0 -44 25.5 -70t69.5 -26q40 0 71 20zM174 553q-18 18 -18 46q0 35 24 58.5t58 23.5q29 0 47 -18.5t18 -45.5q0 -37 -23 -59.5t-58 -22.5q-30 0 -48 18zM390.5 553q-17.5 18 -17.5 46q0 35 24 58.5t58 23.5q29 0 46.5 -18t17.5 -46q0 -37 -22.5 -59.5
t-57.5 -22.5q-31 0 -48.5 18z" />
    <glyph glyph-name="ograve" unicode="&#xf2;" horiz-adv-x="573" 
d="M93 48.5q-59 57.5 -59 150.5q0 19 3 40q9 65 45.5 115.5t95.5 78t134 27.5q105 0 166.5 -54.5t61.5 -150.5q0 -20 -3 -41q-15 -104 -90 -163.5t-186 -59.5q-109 0 -168 57.5zM338 123q31 20 47.5 54t16.5 73q0 46 -25.5 72.5t-70.5 26.5q-40 0 -70.5 -21t-47 -55.5
t-16.5 -73.5q0 -44 25.5 -70t69.5 -26q40 0 71 20zM177 689h172l98 -169h-128z" />
    <glyph glyph-name="ohungarumlaut" unicode="&#x151;" horiz-adv-x="573" 
d="M93 48.5q-59 57.5 -59 150.5q0 19 3 40q9 65 45.5 115.5t95.5 78t134 27.5q105 0 166.5 -54.5t61.5 -150.5q0 -20 -3 -41q-15 -104 -90 -163.5t-186 -59.5q-109 0 -168 57.5zM338 123q31 20 47.5 54t16.5 73q0 46 -25.5 72.5t-70.5 26.5q-40 0 -70.5 -21t-47 -55.5
t-16.5 -73.5q0 -44 25.5 -70t69.5 -26q40 0 71 20zM278 689h156l-149 -169h-126zM494 689h156l-150 -169h-125z" />
    <glyph glyph-name="omacron" unicode="&#x14d;" horiz-adv-x="573" 
d="M93 48.5q-59 57.5 -59 150.5q0 19 3 40q9 65 45.5 115.5t95.5 78t134 27.5q105 0 166.5 -54.5t61.5 -150.5q0 -20 -3 -41q-15 -104 -90 -163.5t-186 -59.5q-109 0 -168 57.5zM338 123q31 20 47.5 54t16.5 73q0 46 -25.5 72.5t-70.5 26.5q-40 0 -70.5 -21t-47 -55.5
t-16.5 -73.5q0 -44 25.5 -70t69.5 -26q40 0 71 20zM192 656h309l-14 -104h-309z" />
    <glyph glyph-name="oslash" unicode="&#xf8;" horiz-adv-x="573" 
d="M96 45q-31 28 -46.5 67t-15.5 87q0 19 3 40q9 65 45.5 115.5t95.5 78t134 27.5q60 0 101 -17l35 45h94l-65 -81q63 -55 63 -152q0 -20 -3 -41q-15 -104 -90 -163.5t-186 -59.5q-58 0 -101 17l-35 -44h-93zM336 345q-11 4 -30 4q-40 0 -70.5 -21t-47 -55.5t-16.5 -73.5
q0 -29 10 -46zM338 123q31 20 47.5 54t16.5 73q0 26 -10 49l-154 -192q11 -4 29 -4q40 0 71 20z" />
    <glyph glyph-name="oslashacute" unicode="&#x1ff;" horiz-adv-x="573" 
d="M96 45q-31 28 -46.5 67t-15.5 87q0 19 3 40q9 65 45.5 115.5t95.5 78t134 27.5q60 0 101 -17l35 45h94l-65 -81q63 -55 63 -152q0 -20 -3 -41q-15 -104 -90 -163.5t-186 -59.5q-58 0 -101 17l-35 -44h-93zM336 345q-11 4 -30 4q-40 0 -70.5 -21t-47 -55.5t-16.5 -73.5
q0 -29 10 -46zM338 123q31 20 47.5 54t16.5 73q0 26 -10 49l-154 -192q11 -4 29 -4q40 0 71 20zM370 689h178l-188 -169h-135z" />
    <glyph glyph-name="otilde" unicode="&#xf5;" horiz-adv-x="573" 
d="M93 48.5q-59 57.5 -59 150.5q0 19 3 40q9 65 45.5 115.5t95.5 78t134 27.5q105 0 166.5 -54.5t61.5 -150.5q0 -20 -3 -41q-15 -104 -90 -163.5t-186 -59.5q-109 0 -168 57.5zM338 123q31 20 47.5 54t16.5 73q0 46 -25.5 72.5t-70.5 26.5q-40 0 -70.5 -21t-47 -55.5
t-16.5 -73.5q0 -44 25.5 -70t69.5 -26q40 0 71 20zM363.5 540q-17.5 6 -41.5 18q-17 9 -27 13t-21 4q-19 0 -28.5 -11t-11.5 -25h-81q7 62 38.5 95t83.5 33q24 0 42 -6.5t43 -18.5q16 -8 26 -12t20 -4q18 0 27.5 11t11.5 25h81q-5 -59 -37 -93.5t-85 -34.5q-23 0 -40.5 6z
" />
    <glyph glyph-name="oe" unicode="&#x153;" horiz-adv-x="885" 
d="M92.5 48.5q-58.5 57.5 -58.5 150.5q0 19 3 40q9 65 45.5 115.5t95.5 78t134 27.5q57 0 100 -19.5t65 -50.5q68 70 171 70q102 0 152 -49.5t50 -128.5q0 -46 -13 -98h-309v-4q0 -82 115 -82q88 0 168 40l-17 -113q-25 -13 -68 -23.5t-97 -10.5q-63 0 -111.5 17t-75.5 52
q-33 -33 -79.5 -51t-104.5 -18q-107 0 -165.5 57.5zM717 268q2 8 2 19q0 30 -20.5 49t-55.5 19q-38 0 -66.5 -24t-36.5 -63h177zM364 146q37 43 37 104q0 47 -25 73t-70 26q-40 0 -70.5 -21t-47.5 -55.5t-17 -73.5q0 -44 26 -70t70 -26q60 0 97 43z" />
    <glyph glyph-name="p" unicode="p" horiz-adv-x="591" 
d="M97 451h121l-3 -43q53 52 142 52q62 0 107 -26.5t69 -73t24 -105.5q0 -21 -3 -44q-10 -69 -45 -118.5t-87.5 -75.5t-113.5 -26q-46 0 -80.5 13.5t-55.5 38.5l-34 -241h-133zM383.5 146q36.5 43 36.5 104q0 46 -26.5 72.5t-71.5 26.5q-40 0 -70 -20.5t-46 -54t-16 -72.5
q0 -46 26.5 -72.5t71.5 -26.5q59 0 95.5 43z" />
    <glyph glyph-name="thorn" unicode="&#xfe;" horiz-adv-x="591" 
d="M126 663h133l-34 -245q51 41 132 41q62 0 107 -26.5t69 -72.5t24 -105q0 -21 -3 -44q-10 -69 -45 -118.5t-87.5 -75.5t-113.5 -26q-46 0 -80.5 13.5t-55.5 38.5l-34 -241h-133zM383.5 146q36.5 43 36.5 104q0 46 -26.5 72.5t-71.5 26.5q-40 0 -70 -20.5t-46 -54
t-16 -72.5q0 -46 26.5 -72.5t71.5 -26.5q59 0 95.5 43z" />
    <glyph glyph-name="q" unicode="q" horiz-adv-x="590" 
d="M366 36q-52 -45 -134 -45q-89 0 -143.5 54.5t-54.5 150.5q0 22 3 44q15 103 82 161.5t167 58.5q49 0 85.5 -16t54.5 -47l10 54h122l-85 -599l-141 -59zM338 123q30 20 46.5 54t16.5 73q0 47 -26 73t-70 26q-60 0 -97 -42.5t-37 -104.5q0 -45 26 -72t72 -27q39 0 69 20z
" />
    <glyph glyph-name="r" unicode="r" horiz-adv-x="344" 
d="M97 451h121l-4 -48q24 29 57.5 43t70.5 14q15 0 23 -2l-16 -114q-15 6 -39 6q-54 0 -79 -34.5t-34 -95.5l-31 -220h-133z" />
    <glyph glyph-name="racute" unicode="&#x155;" horiz-adv-x="344" 
d="M97 451h121l-4 -48q24 29 57.5 43t70.5 14q15 0 23 -2l-16 -114q-15 6 -39 6q-54 0 -79 -34.5t-34 -95.5l-31 -220h-133zM311 689h178l-188 -169h-135z" />
    <glyph glyph-name="rcaron" unicode="&#x159;" horiz-adv-x="344" 
d="M97 451h121l-4 -48q24 29 57.5 43t70.5 14q15 0 23 -2l-16 -114q-15 6 -39 6q-54 0 -79 -34.5t-34 -95.5l-31 -220h-133zM112 689h127l43 -54l57 54h137l-209 -178z" />
    <glyph glyph-name="rcommaaccent" unicode="&#x157;" horiz-adv-x="344" 
d="M97 451h121l-4 -48q24 29 57.5 43t70.5 14q15 0 23 -2l-16 -114q-15 6 -39 6q-54 0 -79 -34.5t-34 -95.5l-31 -220h-133zM63 -162q-22 2 -34.5 16t-12.5 36q0 30 19.5 48t48.5 18t47 -17.5t18 -48.5q0 -35 -19.5 -62.5t-48.5 -45.5h-72q34 28 54 56z" />
    <glyph glyph-name="s" unicode="s" horiz-adv-x="392" 
d="M73 -0.5q-36 8.5 -53 19.5l14 100q19 -11 49.5 -21.5t63.5 -10.5q70 0 70 50q0 21 -14.5 33t-46.5 25q-30 13 -49.5 25t-33 35t-13.5 60q0 66 44.5 105.5t128.5 39.5q40 0 74 -8.5t47 -16.5l-14 -99q-20 13 -45.5 21t-50.5 8q-29 0 -44 -11t-15 -30q0 -17 13 -26.5
t42 -22.5q31 -12 51.5 -25t35.5 -38t15 -66q0 -77 -52 -116t-138 -39q-43 0 -79 8.5z" />
    <glyph glyph-name="sacute" unicode="&#x15b;" horiz-adv-x="392" 
d="M73 -0.5q-36 8.5 -53 19.5l14 100q19 -11 49.5 -21.5t63.5 -10.5q70 0 70 50q0 21 -14.5 33t-46.5 25q-30 13 -49.5 25t-33 35t-13.5 60q0 66 44.5 105.5t128.5 39.5q40 0 74 -8.5t47 -16.5l-14 -99q-20 13 -45.5 21t-50.5 8q-29 0 -44 -11t-15 -30q0 -17 13 -26.5
t42 -22.5q31 -12 51.5 -25t35.5 -38t15 -66q0 -77 -52 -116t-138 -39q-43 0 -79 8.5zM296 689h178l-188 -169h-135z" />
    <glyph glyph-name="sacute.loclPLK" horiz-adv-x="392" 
d="M73 -0.5q-36 8.5 -53 19.5l14 100q19 -11 49.5 -21.5t63.5 -10.5q70 0 70 50q0 21 -14.5 33t-46.5 25q-30 13 -49.5 25t-33 35t-13.5 60q0 66 44.5 105.5t128.5 39.5q40 0 74 -8.5t47 -16.5l-14 -99q-20 13 -45.5 21t-50.5 8q-29 0 -44 -11t-15 -30q0 -17 13 -26.5
t42 -22.5q31 -12 51.5 -25t35.5 -38t15 -66q0 -77 -52 -116t-138 -39q-43 0 -79 8.5zM281 689h157l-134 -169h-128z" />
    <glyph glyph-name="scaron" unicode="&#x161;" horiz-adv-x="392" 
d="M73 -0.5q-36 8.5 -53 19.5l14 100q19 -11 49.5 -21.5t63.5 -10.5q70 0 70 50q0 21 -14.5 33t-46.5 25q-30 13 -49.5 25t-33 35t-13.5 60q0 66 44.5 105.5t128.5 39.5q40 0 74 -8.5t47 -16.5l-14 -99q-20 13 -45.5 21t-50.5 8q-29 0 -44 -11t-15 -30q0 -17 13 -26.5
t42 -22.5q31 -12 51.5 -25t35.5 -38t15 -66q0 -77 -52 -116t-138 -39q-43 0 -79 8.5zM97 689h127l43 -54l57 54h137l-209 -178z" />
    <glyph glyph-name="scedilla" unicode="&#x15f;" horiz-adv-x="392" 
d="M73 -0.5q-36 8.5 -53 19.5l14 100q19 -11 49.5 -21.5t63.5 -10.5q70 0 70 50q0 21 -14.5 33t-46.5 25q-30 13 -49.5 25t-33 35t-13.5 60q0 66 44.5 105.5t128.5 39.5q40 0 74 -8.5t47 -16.5l-14 -99q-20 13 -45.5 21t-50.5 8q-29 0 -44 -11t-15 -30q0 -17 13 -26.5
t42 -22.5q31 -12 51.5 -25t35.5 -38t15 -66q0 -77 -52 -116t-138 -39q-43 0 -79 8.5zM228.5 -58q19.5 -17 19.5 -50q0 -99 -125 -99q-44 0 -70 12l9 63q20 -12 50 -12q20 0 32 8t12 25q0 12 -7.5 19.5t-21.5 7.5q-22 0 -36 -16l-11 7l49 116h78l-30 -63q32 -1 51.5 -18z" />
    <glyph glyph-name="scircumflex" unicode="&#x15d;" horiz-adv-x="392" 
d="M73 -0.5q-36 8.5 -53 19.5l14 100q19 -11 49.5 -21.5t63.5 -10.5q70 0 70 50q0 21 -14.5 33t-46.5 25q-30 13 -49.5 25t-33 35t-13.5 60q0 66 44.5 105.5t128.5 39.5q40 0 74 -8.5t47 -16.5l-14 -99q-20 13 -45.5 21t-50.5 8q-29 0 -44 -11t-15 -30q0 -17 13 -26.5
t42 -22.5q31 -12 51.5 -25t35.5 -38t15 -66q0 -77 -52 -116t-138 -39q-43 0 -79 8.5zM280 698l155 -178h-127l-43 54l-57 -54h-137z" />
    <glyph glyph-name="scommaaccent" unicode="&#x219;" horiz-adv-x="392" 
d="M73 -0.5q-36 8.5 -53 19.5l14 100q19 -11 49.5 -21.5t63.5 -10.5q70 0 70 50q0 21 -14.5 33t-46.5 25q-30 13 -49.5 25t-33 35t-13.5 60q0 66 44.5 105.5t128.5 39.5q40 0 74 -8.5t47 -16.5l-14 -99q-20 13 -45.5 21t-50.5 8q-29 0 -44 -11t-15 -30q0 -17 13 -26.5
t42 -22.5q31 -12 51.5 -25t35.5 -38t15 -66q0 -77 -52 -116t-138 -39q-43 0 -79 8.5zM119 -162q-22 2 -34.5 16t-12.5 36q0 30 19.5 48t48.5 18t47 -17.5t18 -48.5q0 -35 -19.5 -62.5t-48.5 -45.5h-72q34 28 54 56z" />
    <glyph glyph-name="germandbls" unicode="&#xdf;" horiz-adv-x="675" 
d="M502.5 312q9.5 -8 30.5 -21q43 -27 68 -56.5t25 -78.5q0 -79 -55.5 -121.5t-140.5 -42.5q-82 0 -132 27l15 101q20 -13 48.5 -22.5t60.5 -9.5t51 15t19 43q0 22 -14.5 37.5t-44.5 35.5q-35 24 -53.5 45.5t-18.5 54.5q0 29 14 48.5t42 44.5t41.5 44t13.5 48
q0 31 -21.5 50.5t-62.5 19.5q-57 0 -86 -42.5t-40 -123.5l-57 -407h-133l49 347h-77l15 104h77l1 9q15 109 78.5 164t174.5 55q104 0 160.5 -44.5t56.5 -120.5q0 -53 -21.5 -83.5t-58.5 -60.5q-18 -14 -26 -23t-8 -18q0 -10 9.5 -18z" />
    <glyph glyph-name="germandbls.calt" horiz-adv-x="695" 
d="M680 638l-146 -249q53 -15 85 -56t32 -111q0 -116 -66.5 -174t-192.5 -58q-35 0 -72 5t-58 13l16 114q45 -18 108 -18q58 0 91.5 29.5t33.5 85.5q0 39 -24.5 62t-68.5 23q-49 0 -77 -23l-10 9l146 247h-222l-75 -537h-137l91 648h548z" />
    <glyph glyph-name="longs" unicode="&#x17f;" horiz-adv-x="370" 
d="M121 347h-78l15 104h77l5 37q13 94 59.5 142.5t142.5 48.5q34 0 60 -6t39 -12l-15 -108q-9 6 -27 10.5t-38 4.5q-43 0 -63 -24.5t-27 -69.5l-66 -474h-133z" />
    <glyph glyph-name="t" unicode="t" horiz-adv-x="405" 
d="M121.5 28q-40.5 34 -40.5 96q0 24 10 94l18 129h-81l2 10q30 25 118.5 111.5t118.5 122.5h10l-19 -140h123l-15 -104h-123l-20 -140q-7 -37 -7 -61q0 -43 61 -43q37 0 75 19l-16 -111q-9 -5 -37 -11t-59 -6q-78 0 -118.5 34z" />
    <glyph glyph-name="tbar" unicode="&#x167;" horiz-adv-x="405" 
d="M243 347l-9 -66h108l-13 -99h-110q-3 -21 -3 -36q0 -43 61 -43q37 0 75 19l-16 -111q-9 -5 -37 -11t-59 -6q-78 0 -118.5 34t-40.5 96q0 23 5 58h-51l13 99h52l9 66h-81l2 10q30 25 118.5 111.5t118.5 122.5h10l-19 -140h123l-15 -104h-123z" />
    <glyph glyph-name="tcaron" unicode="&#x165;" horiz-adv-x="450" 
d="M121.5 28q-40.5 34 -40.5 96q0 24 10 94l18 129h-81l2 10q30 25 118.5 111.5t118.5 122.5h10l-19 -140h123l-15 -104h-123l-20 -140q-7 -37 -7 -61q0 -43 61 -43q37 0 75 19l-16 -111q-9 -5 -37 -11t-59 -6q-78 0 -118.5 34zM419 572q-23 3 -35.5 16.5t-12.5 35.5
q0 30 20 48t49 18t47 -17.5t18 -48.5q0 -36 -24 -69t-62 -54h-72q50 38 72 71z" />
    <glyph glyph-name="uni0163" unicode="&#x163;" horiz-adv-x="405" 
d="M121.5 28q-40.5 34 -40.5 96q0 24 10 94l18 129h-81l2 10q30 25 118.5 111.5t118.5 122.5h10l-19 -140h123l-15 -104h-123l-20 -140q-7 -37 -7 -61q0 -43 61 -43q37 0 75 19l-16 -111q-9 -5 -37 -11t-59 -6q-78 0 -118.5 34zM169 -162q-22 2 -34.5 16t-12.5 36
q0 30 19.5 48t48.5 18t47 -17.5t18 -48.5q0 -35 -19.5 -62.5t-48.5 -45.5h-72q34 28 54 56z" />
    <glyph glyph-name="uni021B" unicode="&#x21b;" horiz-adv-x="405" 
d="M121.5 28q-40.5 34 -40.5 96q0 24 10 94l18 129h-81l2 10q30 25 118.5 111.5t118.5 122.5h10l-19 -140h123l-15 -104h-123l-20 -140q-7 -37 -7 -61q0 -43 61 -43q37 0 75 19l-16 -111q-9 -5 -37 -11t-59 -6q-78 0 -118.5 34zM169 -162q-22 2 -34.5 16t-12.5 36
q0 30 19.5 48t48.5 18t47 -17.5t18 -48.5q0 -35 -19.5 -62.5t-48.5 -45.5h-72q34 28 54 56z" />
    <glyph glyph-name="u" unicode="u" horiz-adv-x="520" 
d="M95 35.5q-44 44.5 -44 115.5q0 21 7 70l32 230h133l-36 -258q-4 -30 -4 -41q0 -52 58 -52q37 0 57.5 21.5t27.5 68.5l37 261h131l-37 -258q-12 -92 -61.5 -147t-160.5 -55q-96 0 -140 44.5z" />
    <glyph glyph-name="uacute" unicode="&#xfa;" horiz-adv-x="520" 
d="M95 35.5q-44 44.5 -44 115.5q0 21 7 70l32 230h133l-36 -258q-4 -30 -4 -41q0 -52 58 -52q37 0 57.5 21.5t27.5 68.5l37 261h131l-37 -258q-12 -92 -61.5 -147t-160.5 -55q-96 0 -140 44.5zM342 689h178l-188 -169h-135z" />
    <glyph glyph-name="ubreve" unicode="&#x16d;" horiz-adv-x="520" 
d="M95 35.5q-44 44.5 -44 115.5q0 21 7 70l32 230h133l-36 -258q-4 -30 -4 -41q0 -52 58 -52q37 0 57.5 21.5t27.5 68.5l37 261h131l-37 -258q-12 -92 -61.5 -147t-160.5 -55q-96 0 -140 44.5zM182.5 547.5q-37.5 36.5 -37.5 98.5q0 24 4 43h99q-2 -18 -2 -23q0 -52 63 -52
q43 0 62.5 18.5t24.5 56.5h100q-9 -178 -192 -178q-84 0 -121.5 36.5z" />
    <glyph glyph-name="ucircumflex" unicode="&#xfb;" horiz-adv-x="520" 
d="M95 35.5q-44 44.5 -44 115.5q0 21 7 70l32 230h133l-36 -258q-4 -30 -4 -41q0 -52 58 -52q37 0 57.5 21.5t27.5 68.5l37 261h131l-37 -258q-12 -92 -61.5 -147t-160.5 -55q-96 0 -140 44.5zM326 698l155 -178h-127l-43 54l-57 -54h-137z" />
    <glyph glyph-name="udieresis" unicode="&#xfc;" horiz-adv-x="520" 
d="M95 35.5q-44 44.5 -44 115.5q0 21 7 70l32 230h133l-36 -258q-4 -30 -4 -41q0 -52 58 -52q37 0 57.5 21.5t27.5 68.5l37 261h131l-37 -258q-12 -92 -61.5 -147t-160.5 -55q-96 0 -140 44.5zM146 553q-18 18 -18 46q0 35 24 58.5t58 23.5q29 0 47 -18.5t18 -45.5
q0 -37 -23 -59.5t-58 -22.5q-30 0 -48 18zM362.5 553q-17.5 18 -17.5 46q0 35 24 58.5t58 23.5q29 0 46.5 -18t17.5 -46q0 -37 -22.5 -59.5t-57.5 -22.5q-31 0 -48.5 18z" />
    <glyph glyph-name="ugrave" unicode="&#xf9;" horiz-adv-x="520" 
d="M95 35.5q-44 44.5 -44 115.5q0 21 7 70l32 230h133l-36 -258q-4 -30 -4 -41q0 -52 58 -52q37 0 57.5 21.5t27.5 68.5l37 261h131l-37 -258q-12 -92 -61.5 -147t-160.5 -55q-96 0 -140 44.5zM149 689h172l98 -169h-128z" />
    <glyph glyph-name="uhungarumlaut" unicode="&#x171;" horiz-adv-x="520" 
d="M95 35.5q-44 44.5 -44 115.5q0 21 7 70l32 230h133l-36 -258q-4 -30 -4 -41q0 -52 58 -52q37 0 57.5 21.5t27.5 68.5l37 261h131l-37 -258q-12 -92 -61.5 -147t-160.5 -55q-96 0 -140 44.5zM235 689h156l-149 -169h-126zM451 689h156l-150 -169h-125z" />
    <glyph glyph-name="umacron" unicode="&#x16b;" horiz-adv-x="520" 
d="M95 35.5q-44 44.5 -44 115.5q0 21 7 70l32 230h133l-36 -258q-4 -30 -4 -41q0 -52 58 -52q37 0 57.5 21.5t27.5 68.5l37 261h131l-37 -258q-12 -92 -61.5 -147t-160.5 -55q-96 0 -140 44.5zM164 656h309l-14 -104h-309z" />
    <glyph glyph-name="uogonek" unicode="&#x173;" horiz-adv-x="520" 
d="M201 -185q-32 22 -32 69q0 38 17.5 63.5t51.5 44.5q-4 -1 -11 -1q-89 0 -132.5 44t-43.5 116q0 21 7 70l32 230h133l-36 -258q-4 -30 -4 -41q0 -52 58 -52q37 0 57.5 21.5t27.5 68.5l37 261h131l-37 -258q-8 -57 -29 -100t-62 -74q-58 -42 -80 -66t-22 -53q0 -32 37 -32
q16 0 31 4.5t23 9.5l-12 -80q-25 -9 -60 -9q-50 0 -82 22z" />
    <glyph glyph-name="uring" unicode="&#x16f;" horiz-adv-x="520" 
d="M95 35.5q-44 44.5 -44 115.5q0 21 7 70l32 230h133l-36 -258q-4 -30 -4 -41q0 -52 58 -52q37 0 57.5 21.5t27.5 68.5l37 261h131l-37 -258q-12 -92 -61.5 -147t-160.5 -55q-96 0 -140 44.5zM232 536q-27 26 -27 69q0 50 34 80.5t84 30.5q44 0 72 -25t28 -68
q0 -54 -34.5 -83.5t-84.5 -29.5q-45 0 -72 26zM341 585.5q12 11.5 12 30.5q0 17 -10.5 27t-26.5 10q-17 0 -29.5 -12.5t-12.5 -30.5q0 -16 10 -26t27 -10q18 0 30 11.5z" />
    <glyph glyph-name="utilde" unicode="&#x169;" horiz-adv-x="520" 
d="M95 35.5q-44 44.5 -44 115.5q0 21 7 70l32 230h133l-36 -258q-4 -30 -4 -41q0 -52 58 -52q37 0 57.5 21.5t27.5 68.5l37 261h131l-37 -258q-12 -92 -61.5 -147t-160.5 -55q-96 0 -140 44.5zM335.5 540q-17.5 6 -41.5 18q-17 9 -27 13t-21 4q-19 0 -28.5 -11t-11.5 -25
h-81q7 62 38.5 95t83.5 33q24 0 42 -6.5t43 -18.5q16 -8 26 -12t20 -4q18 0 27.5 11t11.5 25h81q-5 -59 -37 -93.5t-85 -34.5q-23 0 -40.5 6z" />
    <glyph glyph-name="v" unicode="v" horiz-adv-x="510" 
d="M37 451h141l74 -230l137 230h148l-309 -460h-10z" />
    <glyph glyph-name="w" unicode="w" horiz-adv-x="717" 
d="M44 451h141l60 -213l137 213h10l75 -213l123 213h148l-289 -460h-10l-81 227l-145 -227h-10z" />
    <glyph glyph-name="wacute" unicode="&#x1e83;" horiz-adv-x="717" 
d="M44 451h141l60 -213l137 213h10l75 -213l123 213h148l-289 -460h-10l-81 227l-145 -227h-10zM442 689h178l-188 -169h-135z" />
    <glyph glyph-name="wcircumflex" unicode="&#x175;" horiz-adv-x="717" 
d="M44 451h141l60 -213l137 213h10l75 -213l123 213h148l-289 -460h-10l-81 227l-145 -227h-10zM426 698l155 -178h-127l-43 54l-57 -54h-137z" />
    <glyph glyph-name="wdieresis" unicode="&#x1e85;" horiz-adv-x="717" 
d="M44 451h141l60 -213l137 213h10l75 -213l123 213h148l-289 -460h-10l-81 227l-145 -227h-10zM246 553q-18 18 -18 46q0 35 24 58.5t58 23.5q29 0 47 -18.5t18 -45.5q0 -37 -23 -59.5t-58 -22.5q-30 0 -48 18zM462.5 553q-17.5 18 -17.5 46q0 35 24 58.5t58 23.5
q29 0 46.5 -18t17.5 -46q0 -37 -22.5 -59.5t-57.5 -22.5q-31 0 -48.5 18z" />
    <glyph glyph-name="wgrave" unicode="&#x1e81;" horiz-adv-x="717" 
d="M44 451h141l60 -213l137 213h10l75 -213l123 213h148l-289 -460h-10l-81 227l-145 -227h-10zM209 689h172l98 -169h-128z" />
    <glyph glyph-name="x" unicode="x" horiz-adv-x="552" 
d="M197 225l-146 226h152l84 -145l126 145h156l-211 -228l146 -223h-153l-86 142l-126 -142h-157z" />
    <glyph glyph-name="y" unicode="y" horiz-adv-x="518" 
d="M164 36l-126 415h142l69 -276l148 276h147l-372 -649h-145z" />
    <glyph glyph-name="yacute" unicode="&#xfd;" horiz-adv-x="518" 
d="M164 36l-126 415h142l69 -276l148 276h147l-372 -649h-145zM341 689h178l-188 -169h-135z" />
    <glyph glyph-name="ycircumflex" unicode="&#x177;" horiz-adv-x="518" 
d="M164 36l-126 415h142l69 -276l148 276h147l-372 -649h-145zM325 698l155 -178h-127l-43 54l-57 -54h-137z" />
    <glyph glyph-name="ydieresis" unicode="&#xff;" horiz-adv-x="518" 
d="M164 36l-126 415h142l69 -276l148 276h147l-372 -649h-145zM145 553q-18 18 -18 46q0 35 24 58.5t58 23.5q29 0 47 -18.5t18 -45.5q0 -37 -23 -59.5t-58 -22.5q-30 0 -48 18zM361.5 553q-17.5 18 -17.5 46q0 35 24 58.5t58 23.5q29 0 46.5 -18t17.5 -46
q0 -37 -22.5 -59.5t-57.5 -22.5q-31 0 -48.5 18z" />
    <glyph glyph-name="ygrave" unicode="&#x1ef3;" horiz-adv-x="518" 
d="M164 36l-126 415h142l69 -276l148 276h147l-372 -649h-145zM148 689h172l98 -169h-128z" />
    <glyph glyph-name="z" unicode="z" horiz-adv-x="466" 
d="M-5 10l252 337h-188l15 104h400l-2 -10l-252 -336h209l-16 -105h-420z" />
    <glyph glyph-name="zacute" unicode="&#x17a;" horiz-adv-x="466" 
d="M-5 10l252 337h-188l15 104h400l-2 -10l-252 -336h209l-16 -105h-420zM317 689h178l-188 -169h-135z" />
    <glyph glyph-name="zacute.loclPLK" horiz-adv-x="466" 
d="M-5 10l252 337h-188l15 104h400l-2 -10l-252 -336h209l-16 -105h-420zM302 689h157l-134 -169h-128z" />
    <glyph glyph-name="zcaron" unicode="&#x17e;" horiz-adv-x="466" 
d="M-5 10l252 337h-188l15 104h400l-2 -10l-252 -336h209l-16 -105h-420zM118 689h127l43 -54l57 54h137l-209 -178z" />
    <glyph glyph-name="zdotaccent" unicode="&#x17c;" horiz-adv-x="466" 
d="M-5 10l252 337h-188l15 104h400l-2 -10l-252 -336h209l-16 -105h-420zM233 553q-18 18 -18 46q0 35 24 58.5t58 23.5q29 0 47 -18.5t18 -45.5q0 -37 -23 -59.5t-58 -22.5q-30 0 -48 18z" />
    <glyph glyph-name="ordfeminine" unicode="&#xaa;" horiz-adv-x="376" 
d="M344.5 629q34.5 -29 34.5 -81q0 -12 -1 -20.5t-2 -14.5l-27 -189h-77l3 32q-36 -39 -95 -39q-55 0 -86 24.5t-31 70.5q0 59 43 88.5t110 29.5q34 0 65 -11l1 5q1 7 1 17q0 21 -15.5 30.5t-47.5 9.5q-25 0 -54.5 -7t-48.5 -16l12 82q18 7 47 12.5t62 5.5q72 0 106.5 -29z
M252 404q15 17 19 45l1 8q-22 10 -50 10q-27 0 -42 -12t-15 -33q0 -16 10.5 -25.5t33.5 -9.5q28 0 43 17zM52 277h299l-11 -81h-300z" />
    <glyph glyph-name="ordmasculine" unicode="&#xba;" horiz-adv-x="413" 
d="M110.5 354q-40.5 37 -40.5 105q0 29 6 54q16 67 65.5 105.5t123.5 38.5q71 0 111 -37t40 -105q0 -29 -6 -54q-16 -67 -65 -105.5t-123 -38.5q-71 0 -111.5 37zM283 419.5q22 21.5 31 61.5q3 17 3 29q0 34 -15.5 50.5t-42.5 16.5q-34 0 -56 -22t-30 -62q-4 -15 -4 -29
q0 -33 15.5 -49.5t42.5 -16.5q34 0 56 21.5zM64 277h299l-12 -81h-299z" />
    <glyph glyph-name="uni0410" unicode="&#x410;" horiz-adv-x="641" 
d="M377 658h10l205 -658h-143l-28 100h-233l-57 -100h-146zM396 207l-50 179l-100 -179h150z" />
    <glyph glyph-name="uni0411" unicode="&#x411;" horiz-adv-x="590" 
d="M255 535l-19 -133h42q84 0 142.5 -13t95 -53t36.5 -115q0 -22 -3 -42q-13 -82 -62 -121.5t-108.5 -48.5t-147.5 -9h-188l91 648h435l-16 -113h-298zM221 291l-26 -181h43q58 0 89.5 4t53.5 21.5t29 55.5q2 12 2 22q0 33 -14.5 50t-44 22.5t-81.5 5.5h-51z" />
    <glyph glyph-name="uni0412" unicode="&#x412;" horiz-adv-x="593" 
d="M548 209q0 -79 -38 -127q-30 -39 -85.5 -60.5t-146.5 -21.5h-235l91 648h171q105 0 175.5 -34t70.5 -128q0 -37 -13.5 -69t-37.5 -52q-20 -16 -46 -24q94 -27 94 -132zM412 474q0 37 -31.5 50.5t-83.5 13.5h-41l-21 -156h43q44 0 69.5 7t41.5 22q23 23 23 63zM408 205
q0 40 -30.5 54t-88.5 14h-70l-22 -161h73q43 0 73.5 8.5t46.5 28.5q18 24 18 56z" />
    <glyph glyph-name="uni0413" unicode="&#x413;" horiz-adv-x="500" 
d="M134 648h405l-16 -113h-268l-75 -535h-137z" />
    <glyph glyph-name="uni0403" unicode="&#x403;" horiz-adv-x="500" 
d="M431 876h177l-187 -169h-135zM134 648h405l-16 -113h-268l-75 -535h-137z" />
    <glyph glyph-name="uni0490" unicode="&#x490;" horiz-adv-x="501" 
d="M524 535h-268l-76 -535h-137l91 648h278l19 137h128z" />
    <glyph glyph-name="uni0414" unicode="&#x414;" horiz-adv-x="753" 
d="M700 114l-35 -251h-128l20 138h-444l-19 -138h-128l35 250h9q64 0 111 74q57 91 86 306l22 155h461l-75 -534h85zM290.5 262q-26.5 -92 -72.5 -148h261l59 421h-196l-6 -42q-19 -139 -45.5 -231z" />
    <glyph glyph-name="uni0414.loclBGR" horiz-adv-x="741" 
d="M691 114l-35 -251h-128l20 138h-417l-20 -138h-127l35 251h75l333 544h10l179 -544h75zM234 114h246l-83 282z" />
    <glyph glyph-name="uni0415" unicode="&#x415;" horiz-adv-x="526" 
d="M134 648h401l-16 -113h-264l-21 -148h187l-16 -113h-187l-22 -160h276l-16 -114h-413z" />
    <glyph glyph-name="uni0401" unicode="&#x401;" horiz-adv-x="526" 
d="M190 735q-20 20 -20 52q0 36 24 60t59 24q33 0 53 -20.5t20 -52.5q0 -36 -23.5 -59.5t-59.5 -23.5q-33 0 -53 20zM408 735q-20 20 -20 52q0 36 24 60t60 24q33 0 52.5 -20.5t19.5 -52.5q0 -36 -23.5 -59.5t-58.5 -23.5q-34 0 -54 20zM134 648h401l-16 -113h-264l-21 -148
h187l-16 -113h-187l-22 -160h276l-16 -114h-413z" />
    <glyph glyph-name="uni0416" unicode="&#x416;" horiz-adv-x="1033" 
d="M755 324l232 -324h-177l-211 318l-45 -318h-138l45 318l-300 -318h-178l327 340l-228 308h167l215 -310l44 310h137l-44 -310l298 310h173z" />
    <glyph glyph-name="uni0417" unicode="&#x417;" horiz-adv-x="533" 
d="M467 293.5q22 -30.5 22 -80.5q0 -112 -74 -167.5t-201 -55.5q-60 0 -108.5 10.5t-75.5 28.5l18 130q74 -52 174 -52q59 0 93.5 22.5t34.5 73.5q0 39 -27 54.5t-90 15.5h-61l15 110h51q135 0 135 88q0 33 -25.5 51t-77.5 18q-90 0 -175 -53l18 131q33 18 81.5 29t102.5 11
q97 0 156 -40.5t59 -124.5q0 -56 -28.5 -99t-73.5 -57q35 -13 57 -43.5z" />
    <glyph glyph-name="uni0418" unicode="&#x418;" horiz-adv-x="694" 
d="M681 658l-93 -658h-134l51 365l-453 -375h-10l93 658h134l-52 -365l454 375h10z" />
    <glyph glyph-name="uni0419" unicode="&#x419;" horiz-adv-x="694" 
d="M316 723q-38 35 -38 95q0 21 2 32l3 16h108q-2 -20 -2 -27q0 -62 58 -62q70 0 82 89h108l-3 -16q-10 -74 -60 -118t-140 -44q-80 0 -118 35zM681 658l-93 -658h-134l51 365l-453 -375h-10l93 658h134l-52 -365l454 375h10z" />
    <glyph glyph-name="uni040D" unicode="&#x40d;" horiz-adv-x="694" 
d="M405 707l-142 169h171l99 -169h-128zM681 658l-93 -658h-134l51 365l-453 -375h-10l93 658h134l-52 -365l454 375h10z" />
    <glyph glyph-name="uni041A" unicode="&#x41a;" horiz-adv-x="679" 
d="M134 648h137l-43 -309l311 309h179l-329 -325l243 -323h-180l-227 316l-45 -316h-137z" />
    <glyph glyph-name="uni040C" unicode="&#x40c;" horiz-adv-x="679" 
d="M437 876h178l-188 -169h-135zM134 648h137l-43 -309l311 309h179l-329 -325l243 -323h-180l-227 316l-45 -316h-137z" />
    <glyph glyph-name="uni041B" unicode="&#x41b;" horiz-adv-x="699" 
d="M684 648l-91 -648h-138l75 535h-201l-15 -104q-23 -167 -46.5 -254.5t-70.5 -135.5t-134 -48q-43 0 -74 11l18 124q16 -7 41 -7q39 0 63 31.5t40 96.5t33 185l31 214h469z" />
    <glyph glyph-name="uni041B.loclBGR" horiz-adv-x="631" 
d="M439 0l-99 384l-209 -384h-146l387 658h10l200 -658h-143z" />
    <glyph glyph-name="uni041C" unicode="&#x41c;" horiz-adv-x="858" 
d="M257 313l-97 -313h-140l220 658h10l180 -422l298 422h10l36 -658h-134l-11 313l-225 -323h-10z" />
    <glyph glyph-name="uni041D" unicode="&#x41d;" horiz-adv-x="698" 
d="M134 648h137l-36 -261h273l37 261h137l-91 -648h-137l38 272h-274l-38 -272h-137z" />
    <glyph glyph-name="uni041E" unicode="&#x41e;" horiz-adv-x="763" 
d="M193.5 27q-67.5 37 -101.5 102t-34 149q0 30 4 57q14 96 62.5 169t127.5 113.5t180 40.5q93 0 161 -35t104 -99.5t36 -150.5q0 -29 -4 -57q-13 -93 -60.5 -167t-126.5 -116.5t-182 -42.5q-99 0 -166.5 37zM516 174.5q61 58.5 74 153.5q2 15 2 40q0 75 -43 120t-123 45
q-91 0 -151.5 -58.5t-73.5 -150.5q-3 -22 -3 -39q0 -76 43 -122.5t123 -46.5q91 0 152 58.5z" />
    <glyph glyph-name="uni041F" unicode="&#x41f;" horiz-adv-x="688" 
d="M673 648l-91 -648h-138l75 535h-264l-75 -535h-137l91 648h539z" />
    <glyph glyph-name="uni0420" unicode="&#x420;" horiz-adv-x="586" 
d="M134 648h163q86 0 146 -12t100 -54t40 -126q0 -26 -3 -47q-13 -91 -65.5 -134.5t-115 -54t-147.5 -10.5h-42l-30 -210h-137zM259 321q54 0 88 5.5t60 28t34 69.5q2 12 2 26q0 39 -18 58t-49.5 24.5t-85.5 5.5h-34l-31 -217h34z" />
    <glyph glyph-name="uni0421" unicode="&#x421;" horiz-adv-x="633" 
d="M197.5 27q-69.5 37 -105 102.5t-35.5 148.5q0 29 5 59q26 150 126.5 235.5t254.5 85.5q59 0 106.5 -13.5t71.5 -33.5l-18 -130q-35 26 -76.5 39t-84.5 13q-62 0 -113 -27t-84.5 -74.5t-43.5 -107.5q-3 -18 -3 -38q0 -79 46 -124.5t132 -45.5q62 0 108 16t84 40l-20 -143
q-24 -15 -74.5 -27t-107.5 -12q-99 0 -168.5 37z" />
    <glyph glyph-name="uni0422" unicode="&#x422;" horiz-adv-x="562" 
d="M256 535h-177l16 113h490l-16 -113h-175l-75 -535h-138z" />
    <glyph glyph-name="uni0423" unicode="&#x423;" horiz-adv-x="640" 
d="M684 648l-400 -648h-139l125 206l-194 442h152l125 -306l187 306h144z" />
    <glyph glyph-name="uni040E" unicode="&#x40e;" horiz-adv-x="640" 
d="M269 723q-38 35 -38 95q0 21 2 32l3 16h108q-2 -20 -2 -27q0 -62 58 -62q70 0 82 89h108l-2 -16q-10 -73 -60.5 -117.5t-139.5 -44.5q-81 0 -119 35zM684 648l-400 -648h-139l125 206l-194 442h152l125 -306l187 306h144z" />
    <glyph glyph-name="uni0424" unicode="&#x424;" horiz-adv-x="849" 
d="M773 191q-44 -69 -123.5 -108t-183.5 -42l-9 -69h-134l9 70q-80 6 -141.5 38.5t-96.5 87.5t-35 127q0 91 45 160.5t125 109t183 42.5l9 69h134l-10 -70q81 -6 143 -39.5t95.5 -89t33.5 -126.5q0 -91 -44 -160zM241 202.5q42 -37.5 109 -43.5l46 331q-87 -8 -142 -57
t-55 -128q0 -65 42 -102.5zM624 213q54 48 54 127q0 63 -41 102.5t-109 46.5l-47 -331q89 7 143 55z" />
    <glyph glyph-name="uni0424.loclBGR" horiz-adv-x="841" 
d="M771.5 198.5q-37.5 -71.5 -116.5 -119.5t-196 -56l-8 -61h-134l8 62q-78 8 -138 44.5t-94 95t-34 130.5q0 80 37.5 153t116.5 122t197 57l9 60h134l-9 -61q79 -8 139 -46t93 -97.5t33 -131.5q0 -80 -37.5 -151.5zM239 193.5q40 -42.5 104 -53.5l51 368q-97 -11 -146 -69
t-49 -136q0 -67 40 -109.5zM582.5 177q43.5 30 65 73t21.5 91q0 68 -39.5 112.5t-103.5 54.5l-51 -369q64 8 107.5 38z" />
    <glyph glyph-name="uni0425" unicode="&#x425;" horiz-adv-x="656" 
d="M259 330l-174 318h158l113 -222l173 222h165l-265 -318l178 -330h-158l-117 232l-181 -232h-166z" />
    <glyph glyph-name="uni0427" unicode="&#x427;" horiz-adv-x="667" 
d="M652 648l-91 -648h-138l38 266q-57 -52 -169 -52q-100 0 -152.5 44t-52.5 140q0 34 11 111l20 139h137l-22 -161q-5 -32 -5 -53q0 -50 25 -74.5t84 -24.5q72 0 107.5 38.5t48.5 120.5l22 154h137z" />
    <glyph glyph-name="uni0426" unicode="&#x426;" horiz-adv-x="733" 
d="M680 114l-36 -251h-128l19 137h-492l91 648h138l-76 -534h261l75 534h138l-76 -534h86z" />
    <glyph glyph-name="uni0428" unicode="&#x428;" horiz-adv-x="1001" 
d="M985 648l-91 -648h-851l91 648h138l-76 -534h219l76 534h137l-75 -534h220l75 534h137z" />
    <glyph glyph-name="uni0429" unicode="&#x429;" horiz-adv-x="1049" 
d="M995 114l-36 -251h-127l19 137h-808l91 648h138l-76 -534h219l76 534h137l-75 -534h220l75 534h137l-75 -534h85z" />
    <glyph glyph-name="uni040F" unicode="&#x40f;" horiz-adv-x="685" 
d="M578 0h-204l-19 -137h-128l20 137h-204l91 648h137l-75 -534h260l76 534h137z" />
    <glyph glyph-name="uni042C" unicode="&#x42c;" horiz-adv-x="587" 
d="M491 394q63 -44 63 -147q0 -26 -3 -50q-11 -89 -59.5 -132.5t-107.5 -54t-140 -10.5h-201l92 648h137l-30 -210h77q109 0 172 -44zM412 239q0 51 -29 69.5t-88 18.5h-69l-30 -217h53q46 0 78 6.5t55 28.5t28 66q2 18 2 28z" />
    <glyph glyph-name="uni042A" unicode="&#x42a;" horiz-adv-x="724" 
d="M629 394.5q63 -43.5 63 -147.5q0 -26 -3 -50q-12 -89 -60.5 -132.5t-107.5 -54t-140 -10.5h-201l76 535h-177l16 113h315l-30 -210h76q110 0 173 -43.5zM549 239q0 51 -29 69.5t-88 18.5h-68l-30 -217h53q46 0 78 6.5t54.5 28.5t28.5 66q1 9 1 28z" />
    <glyph glyph-name="uni042B" unicode="&#x42b;" horiz-adv-x="866" 
d="M491 394q63 -44 63 -147q0 -26 -3 -50q-11 -89 -59.5 -132.5t-107.5 -54t-140 -10.5h-201l92 648h137l-30 -210h77q109 0 172 -44zM850 648l-91 -648h-137l91 648h137zM412 239q0 51 -29 69.5t-88 18.5h-69l-30 -217h53q46 0 78 6.5t55 28.5t28 66q2 18 2 28z" />
    <glyph glyph-name="uni0409" unicode="&#x409;" horiz-adv-x="1000" 
d="M904 394.5q63 -43.5 63 -147.5q0 -26 -3 -50q-12 -89 -60.5 -132.5t-107.5 -54t-140 -10.5h-201l75 535h-201l-15 -104q-23 -167 -46.5 -254.5t-70.5 -135.5t-134 -48q-43 0 -74 11l18 124q16 -7 41 -7q39 0 63 31.5t40 96.5t33 185l31 214h469l-29 -210h76
q110 0 173 -43.5zM824 239q0 51 -29 69.5t-88 18.5h-68l-31 -217h54q46 0 78 6.5t54.5 28.5t28.5 66q1 9 1 28z" />
    <glyph glyph-name="uni040A" unicode="&#x40a;" horiz-adv-x="998" 
d="M903 394.5q63 -43.5 63 -147.5q0 -26 -3 -50q-12 -89 -60.5 -132.5t-107.5 -54t-140 -10.5h-201l38 272h-274l-38 -272h-137l91 648h137l-37 -261h274l37 261h137l-29 -210h77q110 0 173 -43.5zM823 239q0 51 -29 69.5t-88 18.5h-68l-31 -217h53q47 0 79 6.5t54.5 28.5
t28.5 66q1 9 1 28z" />
    <glyph glyph-name="uni0405" unicode="&#x405;" horiz-adv-x="500" 
d="M105.5 2q-45.5 12 -74.5 29l18 127q30 -22 71.5 -36.5t85.5 -14.5q53 0 79.5 22t26.5 61q0 28 -20 45t-63 39q-42 22 -69 41.5t-46.5 53.5t-19.5 85q0 98 62 151t169 53q49 0 92.5 -10.5t64.5 -23.5l-19 -126q-26 19 -63.5 31.5t-72.5 12.5q-45 0 -69 -22t-24 -54
q0 -30 20 -47.5t65 -41.5q42 -21 69 -40t46 -53t19 -85q0 -102 -66 -155.5t-177 -53.5q-59 0 -104.5 12z" />
    <glyph glyph-name="uni0404" unicode="&#x404;" horiz-adv-x="644" 
d="M291.5 498q-58.5 -39 -79.5 -115h266l-15 -109h-266q0 -82 49.5 -122t138.5 -40q57 0 107 15t85 36l-18 -133q-71 -40 -196 -40q-96 0 -164.5 37t-104 102t-35.5 149q0 32 5 74q21 148 121.5 227t255.5 79q113 0 189 -42l-18 -128q-79 49 -176 49q-86 0 -144.5 -39z" />
    <glyph glyph-name="uni042D" unicode="&#x42d;" horiz-adv-x="644" 
d="M478 620.5q66 -37.5 100 -102t34 -143.5q0 -49 -5 -82q-22 -147 -117 -225t-256 -78q-58 0 -110.5 12t-92.5 33l18 129q43 -25 91.5 -38.5t97.5 -13.5q90 0 147.5 41.5t78.5 120.5h-270l15 109h264q-5 72 -52.5 112.5t-124.5 40.5q-58 0 -107 -16t-85 -38l18 133
q33 19 84 31t114 12q92 0 158 -37.5z" />
    <glyph glyph-name="uni0406" unicode="&#x406;" horiz-adv-x="287" 
d="M134 648h137l-91 -648h-137z" />
    <glyph glyph-name="uni0407" unicode="&#x407;" horiz-adv-x="287" 
d="M56 735q-20 20 -20 52q0 36 24 60t60 24q33 0 52.5 -20.5t19.5 -52.5q0 -36 -23.5 -59.5t-58.5 -23.5q-34 0 -54 20zM274 735q-20 20 -20 52q0 36 24 60t60 24q33 0 52.5 -20.5t19.5 -52.5q0 -36 -23.5 -59.5t-58.5 -23.5q-34 0 -54 20zM134 648h137l-91 -648h-137z" />
    <glyph glyph-name="uni0408" unicode="&#x408;" horiz-adv-x="470" 
d="M20 15l16 118q16 -10 44 -17t56 -7q60 0 90 32.5t41 113.5l40 281h-150l17 112h285l-60 -428q-16 -114 -73 -172t-173 -58q-86 0 -133 25z" />
    <glyph glyph-name="uni040B" unicode="&#x40b;" horiz-adv-x="800" 
d="M695 388.5q50 -44.5 50 -128.5q0 -47 -8 -102l-23 -158h-138l21 144q6 41 6 78q0 89 -104 89q-76 0 -112 -38t-48 -123l-21 -150h-137l75 535h-177l16 113h530l-16 -113h-216l-22 -157q68 55 186 55q88 0 138 -44.5z" />
    <glyph glyph-name="uni042E" unicode="&#x42e;" horiz-adv-x="1049" 
d="M881 623q68 -35 103.5 -99.5t35.5 -150.5q0 -29 -4 -57q-13 -93 -61 -167t-126.5 -116.5t-180.5 -42.5q-97 0 -164 36t-101 100t-35 146h-129l-39 -272h-137l92 648h137l-37 -261h128q33 125 127 198t230 73q93 0 161 -35zM879 368q0 75 -42.5 120t-121.5 45
q-91 0 -151 -58.5t-73 -150.5q-2 -15 -2 -39q0 -76 42 -122.5t122 -46.5q91 0 150.5 58.5t72.5 153.5q3 23 3 40z" />
    <glyph glyph-name="uni042F" unicode="&#x42f;" horiz-adv-x="606" 
d="M591 648l-92 -648h-138l31 221h-64l-172 -221h-163l199 243q-50 21 -81.5 65t-31.5 104q0 25 3 41q16 115 96.5 155t206.5 40h206zM408 332l30 206h-48q-78 0 -118.5 -17.5t-48.5 -72.5q-2 -10 -2 -24q0 -45 37 -68.5t95 -23.5h55z" />
    <glyph glyph-name="uni0402" unicode="&#x402;" horiz-adv-x="809" 
d="M657 407.5q48 -25.5 74.5 -71t26.5 -104.5q0 -107 -59.5 -175t-187.5 -68q-41 0 -64 7l16 114q18 -6 44 -6q56 0 83.5 32.5t27.5 84.5q0 42 -29 68t-81 26q-79 0 -117.5 -40.5t-50.5 -119.5l-22 -155h-137l75 535h-177l16 113h530l-16 -113h-216l-21 -155q70 53 176 53
q61 0 109 -25.5z" />
    <glyph glyph-name="uni0430" unicode="&#x430;" horiz-adv-x="530" 
d="M419.5 421.5q49.5 -38.5 49.5 -110.5q0 -23 -6 -64l-35 -247h-121l4 44q-47 -53 -137 -53q-73 0 -112.5 34t-39.5 96q0 52 28.5 89t76.5 56t106 19q60 0 101 -19q2 20 2 29q0 31 -20 49t-72 18q-70 0 -145 -43l15 106q31 14 69 24.5t94 10.5q93 0 142.5 -38.5zM287 103.5
q27 26.5 34 75.5l1 5q-27 19 -72 19q-42 0 -67.5 -19.5t-25.5 -52.5q0 -26 17 -40t46 -14q40 0 67 26.5z" />
    <glyph glyph-name="uni0431" unicode="&#x431;" 
d="M504.5 388.5q53.5 -52.5 53.5 -142.5q0 -22 -3 -45q-13 -98 -87 -154t-187 -56q-112 0 -171 56t-59 156q0 54 8 110q14 97 42.5 165t80.5 109q43 34 99 51t144 24q120 9 146 17l-17 -118q-28 -9 -128 -17q-75 -6 -109.5 -15.5t-60.5 -32.5q-42 -35 -58 -121
q29 33 71.5 49.5t93.5 16.5q88 0 141.5 -52.5zM419 234q0 44 -26.5 71t-71.5 27q-56 0 -91.5 -29t-41.5 -82q-2 -16 -2 -23q0 -44 28 -70.5t76 -26.5q52 0 86.5 28t40.5 78q2 16 2 27z" />
    <glyph glyph-name="uni0431.loclSRB" horiz-adv-x="574" 
d="M498.5 373.5q41.5 -49.5 41.5 -123.5q0 -63 -29 -122.5t-92.5 -98t-161.5 -38.5q-103 0 -163.5 54t-60.5 147q0 78 43.5 135t123.5 83q-40 19 -60 47t-20 68q0 57 44.5 97.5t155.5 40.5h138q52 0 90 11l-15 -104q-29 -11 -100 -11h-119q-29 0 -42.5 -9.5t-13.5 -29.5
q0 -19 17 -30t61 -26l33 -11q88 -30 129.5 -79.5zM366 141.5q34 38.5 34 94.5q0 46 -26.5 74.5t-72.5 28.5q-60 0 -94.5 -38t-34.5 -95q0 -47 27 -75t73 -28q60 0 94 38.5z" />
    <glyph glyph-name="uni0432" unicode="&#x432;" horiz-adv-x="501" 
d="M452 147q0 -62 -50.5 -104.5t-167.5 -42.5h-196l64 451h161q81 0 133.5 -24.5t52.5 -83.5q0 -38 -21 -63.5t-54 -35.5q78 -19 78 -97zM253 366h-30l-14 -98h33q34 0 52 14t18 42q0 42 -59 42zM295 98.5q21 12.5 21 42.5q0 44 -70 44h-49l-14 -99h50q41 0 62 12.5z" />
    <glyph glyph-name="uni0432.loclBGR" horiz-adv-x="550" 
d="M478 299q29 -41 29 -95q0 -49 -23 -97.5t-79 -82t-149 -33.5q-102 0 -155.5 44t-53.5 131q0 40 6 85l28 195q12 85 40.5 135.5t79 74t129.5 23.5q88 0 139.5 -45.5t51.5 -117.5q0 -63 -33 -106.5t-90 -57.5q51 -12 80 -53zM247 546.5q-24 -28.5 -33 -93.5l-9 -64h52
q70 0 97 31t27 82q0 34 -17.5 53.5t-48.5 19.5q-44 0 -68 -28.5zM344 125q25 30 25 75q0 44 -25.5 65.5t-79.5 21.5h-73l-8 -54q-4 -28 -4 -58q0 -40 23.5 -60t64.5 -20q52 0 77 30z" />
    <glyph glyph-name="uni0433" unicode="&#x433;" horiz-adv-x="401" 
d="M394 345h-174l-48 -345h-133l63 451h307z" />
    <glyph glyph-name="uni0433.loclBGR" horiz-adv-x="423" 
d="M74 20.5q-41 29.5 -41 92.5q0 44 20.5 72.5t49.5 45t72 33.5q43 18 62 30t19 33q0 18 -11.5 25.5t-38.5 7.5q-59 0 -117 -31l15 107q24 10 61.5 17t81.5 7q71 0 109 -29t38 -85q0 -45 -20.5 -74t-49 -45t-71.5 -32q-43 -17 -63 -30.5t-20 -36.5q0 -38 48 -38q61 0 131 42
l-15 -108q-25 -14 -65.5 -23.5t-81.5 -9.5q-72 0 -113 29.5z" />
    <glyph glyph-name="uni0433.loclSRB" horiz-adv-x="281" 
d="M38 656h308l-15 -104h-307zM99 347h-57l15 104h189l-63 -451h-133z" />
    <glyph glyph-name="uni0453" unicode="&#x453;" horiz-adv-x="401" 
d="M333 520h-136l146 169h177zM394 345h-174l-48 -345h-133l63 451h307z" />
    <glyph glyph-name="uni0453.loclMKD" horiz-adv-x="281" 
d="M218 689h177l-187 -169h-135zM94 347h-57l15 104h189l-63 -451h-133z" />
    <glyph glyph-name="uni0491" unicode="&#x491;" horiz-adv-x="392" 
d="M394 345h-173l-49 -345h-133l63 451h183l17 117h123z" />
    <glyph glyph-name="uni0434" unicode="&#x434;" horiz-adv-x="603" 
d="M561 106l-31 -223h-123l17 118h-302l-17 -118h-123l31 223h10q44 0 71 41q38 56 55 180l18 124h372l-48 -345h70zM268 327q-9 -73 -26.5 -126.5t-46.5 -94.5h164l33 240h-121z" />
    <glyph glyph-name="uni0434.loclBGR" horiz-adv-x="593" 
d="M77 -187l16 109q50 -20 113 -20q75 0 113.5 36.5t49.5 110.5l1 6q-20 -24 -56.5 -39.5t-83.5 -15.5q-90 0 -142.5 54t-52.5 148q0 21 3 43q16 102 82 158.5t164 56.5q50 0 87 -17.5t55 -48.5l13 57h121l-58 -408q-13 -94 -48 -149t-92 -78.5t-142 -23.5q-90 0 -143 21z
M335.5 131q29.5 20 46 53t16.5 69q0 47 -26.5 72t-67.5 25q-38 0 -68 -19.5t-47 -52.5t-17 -71q0 -44 26 -70t70 -26q38 0 67.5 20z" />
    <glyph glyph-name="uni0434.loclSRB" horiz-adv-x="593" 
d="M77 -187l16 109q50 -20 113 -20q75 0 113.5 36.5t49.5 110.5l1 6q-20 -24 -56.5 -39.5t-83.5 -15.5q-90 0 -142.5 54t-52.5 148q0 21 3 43q16 102 82 158.5t164 56.5q50 0 87 -17.5t55 -48.5l13 57h121l-58 -408q-13 -94 -48 -149t-92 -78.5t-142 -23.5q-90 0 -143 21z
M335.5 131q29.5 20 46 53t16.5 69q0 47 -26.5 72t-67.5 25q-38 0 -68 -19.5t-47 -52.5t-17 -71q0 -44 26 -70t70 -26q38 0 67.5 20z" />
    <glyph glyph-name="uni0435" unicode="&#x435;" horiz-adv-x="525" 
d="M98 37.5q-64 46.5 -64 154.5q0 21 3 45q13 101 79 162t172 61q102 0 152 -49.5t50 -128.5q0 -46 -13 -98h-309v-4q0 -82 115 -82q88 0 168 40l-17 -113q-25 -13 -68 -23.5t-97 -10.5q-107 0 -171 46.5zM358 268q2 8 2 19q0 30 -21 49t-56 19q-38 0 -66.5 -24t-36.5 -63
h178z" />
    <glyph glyph-name="uni0451" unicode="&#x451;" horiz-adv-x="525" 
d="M154 553q-18 18 -18 46q0 35 24 58.5t58 23.5q29 0 47 -18.5t18 -45.5q0 -37 -23 -59.5t-58 -22.5q-30 0 -48 18zM378 553q-18 18 -18 46q0 35 24 58.5t58 23.5q29 0 47 -18.5t18 -45.5q0 -37 -23 -59.5t-58 -22.5q-30 0 -48 18zM98 37.5q-64 46.5 -64 154.5q0 21 3 45
q13 101 79 162t172 61q102 0 152 -49.5t50 -128.5q0 -46 -13 -98h-309v-4q0 -82 115 -82q88 0 168 40l-17 -113q-25 -13 -68 -23.5t-97 -10.5q-107 0 -171 46.5zM358 268q2 8 2 19q0 30 -21 49t-56 19q-38 0 -66.5 -24t-36.5 -63h178z" />
    <glyph glyph-name="uni0436" unicode="&#x436;" horiz-adv-x="799" 
d="M609 228l152 -228h-168l-129 222l-31 -222h-133l31 223l-190 -223h-167l215 240l-142 211h161l125 -212l30 212h133l-30 -213l184 213h163z" />
    <glyph glyph-name="uni0436.loclBGR" horiz-adv-x="799" 
d="M609 228l152 -228h-168l-129 222l-31 -222h-133l31 223l-190 -223h-167l215 240l-142 211h161l125 -212l59 424h133l-59 -425l184 213h163z" />
    <glyph glyph-name="uni0437" unicode="&#x437;" horiz-adv-x="443" 
d="M371 208q21 -26 21 -70q0 -57 -47.5 -102t-168.5 -45q-44 0 -84 8t-71 23l15 101q68 -33 134 -33q44 0 67.5 11.5t23.5 38.5q0 21 -19 31t-60 10h-55l13 91h37q47 0 69.5 11.5t22.5 38.5q0 19 -15.5 29.5t-46.5 10.5q-35 0 -70.5 -11.5t-63.5 -28.5l15 104q25 13 67 23.5
t90 10.5q70 0 114 -28t44 -82q0 -43 -24.5 -70.5t-62.5 -36.5q34 -9 55 -35z" />
    <glyph glyph-name="uni0437.loclBGR" horiz-adv-x="436" 
d="M358.5 88.5q23.5 -35.5 23.5 -91.5q0 -85 -61 -145t-202 -60q-41 0 -83 8.5t-63 20.5l17 112q58 -30 131 -30q58 0 90.5 24t32.5 70q0 42 -24 61.5t-72 19.5h-55l14 105h38q124 0 124 95q0 33 -21 52.5t-62 19.5q-35 0 -70 -10t-63 -25l16 111q27 14 70 24t93 10
q77 0 128 -40t51 -114q0 -61 -32 -105.5t-84 -59.5q40 -17 63.5 -52.5z" />
    <glyph glyph-name="uni0438" unicode="&#x438;" horiz-adv-x="549" 
d="M512 460l-65 -460h-131l31 215l-300 -224h-10l65 460h131l-31 -218l300 227h10z" />
    <glyph glyph-name="uni0438.loclBGR" horiz-adv-x="553" 
d="M515 451l-63 -451h-122l4 47q-50 -56 -136 -56q-68 0 -106 34.5t-38 99.5q0 23 7 77l34 249h133l-34 -242q-4 -28 -4 -51q0 -57 64 -57q35 0 54.5 17t28.5 46t16 79l29 208h133z" />
    <glyph glyph-name="uni0439" unicode="&#x439;" horiz-adv-x="549" 
d="M515 670l-2 -13q-10 -71 -56.5 -114t-132.5 -43q-77 0 -111.5 33.5t-34.5 91.5q0 21 2 32l2 13h103v-3q-2 -16 -2 -24q0 -62 52 -62q33 0 51.5 23.5t24.5 62.5v3h104zM502 460h10l-65 -460h-131l31 215l-300 -224h-10l65 460h131l-31 -218z" />
    <glyph glyph-name="uni0439.loclBGR" horiz-adv-x="553" 
d="M200 533.5q-35 33.5 -35 91.5q0 10 2 32l2 13h104l-1 -3q-2 -16 -2 -23q0 -63 52 -63q33 0 51.5 23.5t24.5 62.5v3h104l-2 -13q-10 -71 -56.5 -114t-132.5 -43q-76 0 -111 33.5zM515 451l-63 -451h-122l4 47q-50 -56 -136 -56q-68 0 -106 34.5t-38 99.5q0 23 7 77l34 249
h133l-34 -242q-4 -28 -4 -51q0 -57 64 -57q35 0 54.5 17t28.5 46t16 79l29 208h133z" />
    <glyph glyph-name="uni045D" unicode="&#x45d;" horiz-adv-x="540" 
d="M294 520l-143 169h172l98 -169h-127zM512 460l-65 -460h-131l31 215l-300 -224h-10l65 460h131l-31 -218l300 227h10z" />
    <glyph glyph-name="uni045D.loclBGR" horiz-adv-x="553" 
d="M250 520l-142 169h171l99 -169h-128zM515 451l-63 -451h-122l4 47q-50 -56 -136 -56q-68 0 -106 34.5t-38 99.5q0 23 7 77l34 249h133l-34 -242q-4 -28 -4 -51q0 -57 64 -57q35 0 54.5 17t28.5 46t16 79l29 208h133z" />
    <glyph glyph-name="uni043A" unicode="&#x43a;" horiz-adv-x="541" 
d="M350 228l153 -228h-161l-139 220l-31 -220h-133l63 451h133l-29 -209l190 209h165z" />
    <glyph glyph-name="uni043A.loclBGR" horiz-adv-x="540" 
d="M131 663h133l-58 -415l190 203h166l-213 -214l153 -237h-160l-139 229l-32 -229h-133z" />
    <glyph glyph-name="uni045C" unicode="&#x45c;" horiz-adv-x="541" 
d="M380 520h-135l145 169h177zM561 451l-211 -223l153 -228h-161l-139 220l-31 -220h-133l63 451h133l-29 -209l190 209h165z" />
    <glyph glyph-name="uni043B" unicode="&#x43b;" horiz-adv-x="576" 
d="M538 451l-63 -451h-133l48 345h-125l-9 -64q-15 -99 -38 -161.5t-61 -95.5t-98 -33q-39 0 -68 11l15 107q13 -5 30 -5q40 0 61 42t34 139l23 166h384z" />
    <glyph glyph-name="uni043B.loclBGR" horiz-adv-x="510" 
d="M329 0l-74 229l-139 -229h-143l308 460h10l182 -460h-144z" />
    <glyph glyph-name="uni043C" unicode="&#x43c;" horiz-adv-x="680" 
d="M489 0l-22 195l-154 -204h-10l-96 204l-80 -195h-132l199 459h10l128 -276l206 276h10l72 -459h-131z" />
    <glyph glyph-name="uni043D" unicode="&#x43d;" horiz-adv-x="568" 
d="M530 451l-63 -451h-133l24 174h-162l-24 -174h-133l63 451h133l-24 -171h162l24 171h133z" />
    <glyph glyph-name="uni043E" unicode="&#x43e;" horiz-adv-x="573" 
d="M93 48.5q-59 57.5 -59 150.5q0 19 3 40q9 65 45.5 115.5t95.5 78t134 27.5q105 0 166.5 -54.5t61.5 -150.5q0 -20 -3 -41q-15 -104 -90 -163.5t-186 -59.5q-109 0 -168 57.5zM338 123q31 20 47.5 54t16.5 73q0 46 -25.5 72.5t-70.5 26.5q-40 0 -70.5 -21t-47 -55.5
t-16.5 -73.5q0 -44 25.5 -70t69.5 -26q40 0 71 20z" />
    <glyph glyph-name="uni043F" unicode="&#x43f;" horiz-adv-x="561" 
d="M523 451l-64 -451h-133l49 345h-155l-48 -345h-133l63 451h421z" />
    <glyph glyph-name="uni043F.loclBGR" horiz-adv-x="557" 
d="M102 451h121l-4 -49q49 58 134 58q69 0 109.5 -39t40.5 -109q0 -14 -5 -56l-36 -256h-133l36 254q1 6 2.5 19t1.5 22q0 24 -14.5 39.5t-47.5 15.5q-50 0 -72.5 -33.5t-32.5 -96.5l-31 -220h-133z" />
    <glyph glyph-name="uni043F.loclSRB" horiz-adv-x="553" 
d="M473 552h-309l14 104h309zM515 451l-63 -451h-122l4 47q-50 -56 -136 -56q-68 0 -106 34.5t-38 99.5q0 23 7 77l34 249h133l-34 -242q-4 -28 -4 -51q0 -57 64 -57q35 0 54.5 17t28.5 46t16 79l29 208h133z" />
    <glyph glyph-name="uni0440" unicode="&#x440;" horiz-adv-x="596" 
d="M102 451h121l-3 -43q53 52 142 52q62 0 107 -26.5t69 -73t24 -105.5q0 -21 -3 -44q-10 -69 -45 -118.5t-87.5 -75.5t-113.5 -26q-46 0 -80.5 13.5t-55.5 38.5l-34 -241h-133zM388.5 146q36.5 43 36.5 104q0 46 -26.5 72.5t-71.5 26.5q-40 0 -70 -20.5t-46 -54t-16 -72.5
q0 -46 26.5 -72.5t71.5 -26.5q59 0 95.5 43z" />
    <glyph glyph-name="uni0441" unicode="&#x441;" horiz-adv-x="443" 
d="M93.5 41.5q-60.5 51.5 -60.5 153.5q0 19 3 41q16 111 89.5 167.5t181.5 56.5q76 0 125 -29l-16 -111q-49 30 -104 30q-53 0 -91.5 -31t-48.5 -90q-2 -12 -2 -24q0 -48 27 -75.5t78 -27.5q37 0 64.5 11t51.5 26l-17 -122q-19 -11 -53.5 -19t-69.5 -8q-97 0 -157.5 51.5z
" />
    <glyph glyph-name="uni0442" unicode="&#x442;" horiz-adv-x="443" 
d="M430 345h-126l-48 -345h-133l48 345h-124l15 106h383z" />
    <glyph glyph-name="uni0442.loclBGR" horiz-adv-x="824" 
d="M102 451h121l-4 -52q20 27 54 44t76 17q44 0 75.5 -18t47.5 -51q23 31 60.5 50t86.5 19q71 0 111 -39t40 -110q0 -26 -5 -56l-36 -255h-133l35 244q5 35 5 52q0 54 -54 54q-43 0 -67.5 -33t-33.5 -100l-31 -217h-133l35 244q5 35 5 52q0 54 -54 54q-43 0 -67.5 -33
t-33.5 -100l-31 -217h-133z" />
    <glyph glyph-name="uni0442.loclSRB" horiz-adv-x="817" 
d="M718 552h-533l14 104h533zM778 451l-63 -451h-121l4 49q-22 -25 -55 -41.5t-73 -16.5q-42 0 -73.5 17.5t-47.5 49.5q-29 -35 -69 -51t-77 -16q-74 0 -111.5 36t-37.5 102q0 25 5 65l36 257h133l-35 -253q-4 -27 -4 -46q0 -52 60 -52q45 0 63.5 36t28.5 109l29 206h133
l-33 -241q-5 -35 -5 -54q0 -56 58 -56q44 0 63.5 36t29.5 109l29 206h133z" />
    <glyph glyph-name="uni0443" unicode="&#x443;" horiz-adv-x="518" 
d="M164 36l-126 415h142l69 -276l148 276h147l-372 -649h-145z" />
    <glyph glyph-name="uni045E" unicode="&#x45e;" horiz-adv-x="518" 
d="M183.5 533.5q-34.5 33.5 -34.5 91.5q0 21 2 32l2 13h104l-1 -3q-2 -16 -2 -24q0 -62 52 -62q33 0 51.5 23.5t24.5 62.5v3h104l-2 -13q-10 -71 -56.5 -114t-132.5 -43q-77 0 -111.5 33.5zM164 36l-126 415h142l69 -276l148 276h147l-372 -649h-145z" />
    <glyph glyph-name="uni0444" unicode="&#x444;" horiz-adv-x="706" 
d="M644 130.5q-27 -56.5 -91.5 -96t-168.5 -43.5l-27 -189h-129l27 190q-66 5 -116 34t-77.5 75.5t-27.5 102.5q0 60 29 117t93 96t164 43l29 203h129l-29 -203q104 -6 163 -64.5t59 -149.5q0 -59 -27 -115.5zM504.5 144.5q34.5 42.5 34.5 94.5q0 50 -28 81t-77 35l-37 -258
q73 5 107.5 47.5zM194.5 134q28.5 -30 75.5 -36l37 257q-66 -4 -103.5 -44t-37.5 -99q0 -48 28.5 -78z" />
    <glyph glyph-name="uni0445" unicode="&#x445;" horiz-adv-x="552" 
d="M197 225l-146 226h152l84 -145l126 145h156l-211 -228l146 -223h-153l-86 142l-126 -142h-157z" />
    <glyph glyph-name="uni0447" unicode="&#x447;" horiz-adv-x="538" 
d="M500 451l-64 -451h-132l25 174q-46 -37 -125 -37q-72 0 -111.5 35.5t-39.5 101.5q0 21 3 49l21 128h133l-16 -101q-4 -26 -4 -44q0 -28 16.5 -43.5t50.5 -15.5q47 0 67 26t29 84l14 94h133z" />
    <glyph glyph-name="uni0446" unicode="&#x446;" horiz-adv-x="584" 
d="M542 106l-31 -223h-123l16 117h-366l64 451h133l-49 -345h151l48 345h133l-47 -345h71z" />
    <glyph glyph-name="uni0446.loclBGR" horiz-adv-x="587" 
d="M545 102l-30 -219h-123l16 116q-26 1 -45 14.5t-23 41.5q-48 -64 -148 -64q-66 0 -102.5 34t-36.5 98q0 26 7 78l35 250h133l-33 -238q-5 -30 -5 -56q0 -27 15 -42t47 -15q47 0 69 34t32 109l29 208h133l-39 -276q-4 -23 -4 -41q0 -19 10 -27.5t32 -8.5q19 0 31 4z" />
    <glyph glyph-name="uni0448" unicode="&#x448;" horiz-adv-x="798" 
d="M760 451l-64 -451h-658l64 451h133l-49 -345h131l48 345h133l-49 -345h129l49 345h133z" />
    <glyph glyph-name="uni0448.loclBGR" horiz-adv-x="817" 
d="M778 451l-63 -451h-121l4 49q-22 -25 -55 -41.5t-73 -16.5q-42 0 -73.5 17.5t-47.5 49.5q-29 -35 -69 -51t-77 -16q-74 0 -111.5 36t-37.5 102q0 25 5 65l36 257h133l-35 -253q-4 -27 -4 -46q0 -52 60 -52q45 0 63.5 36t28.5 109l29 206h133l-33 -241q-5 -35 -5 -54
q0 -56 58 -56q44 0 63.5 36t29.5 109l29 206h133z" />
    <glyph glyph-name="uni0449" unicode="&#x449;" horiz-adv-x="826" 
d="M784 106l-31 -223h-123l16 117h-608l64 451h133l-49 -345h131l48 345h133l-49 -345h130l48 345h133l-48 -345h72z" />
    <glyph glyph-name="uni0449.loclBGR" horiz-adv-x="851" 
d="M809 102l-31 -219h-123l16 116q-27 2 -44.5 15.5t-21.5 41.5q-22 -28 -57.5 -46.5t-79.5 -18.5q-40 0 -72 17t-48 50q-28 -35 -68 -51t-78 -16q-73 0 -110.5 36.5t-37.5 102.5q0 23 6 72l35 249h133l-34 -246q-4 -21 -4 -45q0 -60 58 -60q45 0 64 35.5t29 109.5l29 206
h133l-35 -247q-4 -31 -4 -46q0 -58 60 -58q44 0 62.5 36t29.5 109l29 206h133l-40 -287q-3 -15 -3 -30q0 -19 10.5 -27.5t33.5 -8.5q18 0 30 4z" />
    <glyph glyph-name="uni045F" unicode="&#x45f;" horiz-adv-x="556" 
d="M454 0h-146l-17 -117h-123l17 117h-146l63 451h133l-49 -345h151l47 345h133z" />
    <glyph glyph-name="uni044C" unicode="&#x44c;" horiz-adv-x="490" 
d="M400 286q54 -37 54 -108q0 -86 -63 -135q-31 -23 -74 -33t-105 -10h-174l64 451h133l-18 -128h41q88 0 142 -37zM316 170q0 59 -82 59h-31l-19 -135h25q61 0 85 21q22 21 22 55z" />
    <glyph glyph-name="uni044C.loclBGR" horiz-adv-x="531" 
d="M419.5 343q35.5 -22 54.5 -59t19 -81q0 -50 -22.5 -98.5t-77 -81t-143.5 -32.5q-96 0 -145.5 45t-49.5 133q0 31 8 84l28 198h133l-18 -130q50 44 130 44q48 0 83.5 -22zM331.5 120q26.5 27 26.5 69q0 33 -19.5 54t-52.5 21q-44 0 -70.5 -27.5t-26.5 -68.5q0 -33 20 -54
t54 -21q42 0 68.5 27z" />
    <glyph glyph-name="uni044A" unicode="&#x44a;" horiz-adv-x="575" 
d="M485 286q54 -37 54 -108q0 -86 -63 -135q-30 -23 -73 -33t-106 -10h-174l49 345h-125l16 106h257l-18 -128h41q88 0 142 -37zM402 170q0 59 -83 59h-31l-19 -135h26q60 0 84 21q23 20 23 55z" />
    <glyph glyph-name="uni044A.loclBGR" horiz-adv-x="616" 
d="M504.5 343q35.5 -22 54.5 -59t19 -81q0 -51 -22.5 -99t-77 -80.5t-143.5 -32.5q-95 0 -144.5 45t-49.5 133q0 26 7 84l14 94h-124l14 104h257l-18 -130q50 44 130 44q48 0 83.5 -22zM417 120q26 27 26 69q0 33 -19.5 54t-52.5 21q-44 0 -70.5 -27.5t-26.5 -68.5
q0 -33 20 -54t55 -21q42 0 68 27z" />
    <glyph glyph-name="uni044B" unicode="&#x44b;" horiz-adv-x="751" 
d="M400 286q54 -37 54 -108q0 -86 -63 -135q-31 -23 -74 -33t-105 -10h-174l64 451h133l-18 -128h41q88 0 142 -37zM713 451l-64 -451h-133l64 451h133zM316 170q0 59 -82 59h-31l-19 -135h25q61 0 85 21q22 21 22 55z" />
    <glyph glyph-name="uni0459" unicode="&#x459;" horiz-adv-x="793" 
d="M703 286q54 -37 54 -108q0 -87 -64 -135q-30 -23 -72.5 -33t-105.5 -10h-173l48 345h-125l-9 -64q-15 -99 -38 -161.5t-61 -95.5t-98 -33q-39 0 -68 11l15 107q13 -5 30 -5q40 0 61 42t34 139l23 166h384l-18 -128h41q88 0 142 -37zM619 170q0 59 -83 59h-29l-19 -135h24
q61 0 85 21q22 21 22 55z" />
    <glyph glyph-name="uni045A" unicode="&#x45a;" horiz-adv-x="785" 
d="M695 286q54 -37 54 -108q0 -86 -63 -135q-31 -23 -74 -33t-105 -10h-174l25 174h-162l-24 -174h-133l63 451h133l-24 -171h162l24 171h133l-18 -128h41q88 0 142 -37zM611 170q0 59 -82 59h-31l-19 -135h25q61 0 85 21q22 21 22 55z" />
    <glyph glyph-name="uni0455" unicode="&#x455;" horiz-adv-x="392" 
d="M73 -0.5q-36 8.5 -53 19.5l14 100q19 -11 49.5 -21.5t63.5 -10.5q70 0 70 50q0 21 -14.5 33t-46.5 25q-30 13 -49.5 25t-33 35t-13.5 60q0 66 44.5 105.5t128.5 39.5q40 0 74 -8.5t47 -16.5l-14 -99q-20 13 -45.5 21t-50.5 8q-29 0 -44 -11t-15 -30q0 -17 13 -26.5
t42 -22.5q31 -12 51.5 -25t35.5 -38t15 -66q0 -77 -52 -116t-138 -39q-43 0 -79 8.5z" />
    <glyph glyph-name="uni0454" unicode="&#x454;" horiz-adv-x="456" 
d="M225 333q-35 -21 -51 -59h165l-12 -93h-165q6 -40 36 -61.5t79 -21.5q39 0 71 12t49 25l-15 -115q-19 -11 -57.5 -20t-77.5 -9q-93 0 -153.5 50t-60.5 148q0 21 3 45q15 110 88.5 168t185.5 58q38 0 71 -7.5t54 -19.5l-16 -112q-50 33 -110 33q-49 0 -84 -21z" />
    <glyph glyph-name="uni044D" unicode="&#x44d;" horiz-adv-x="458" 
d="M364 409.5q61 -50.5 61 -147.5q0 -21 -3 -45q-15 -110 -88.5 -168t-185.5 -58q-40 0 -75 7.5t-57 19.5l16 113q25 -16 52.5 -24.5t64.5 -8.5q51 0 86.5 21.5t50.5 61.5h-166l13 93h162q-7 38 -37 59t-77 21q-38 0 -68 -12t-50 -25l15 114q19 11 56.5 20t76.5 9
q92 0 153 -50.5z" />
    <glyph glyph-name="uni0456" unicode="&#x456;" horiz-adv-x="281" 
d="M147.5 553.5q-18.5 18.5 -18.5 47.5q0 37 22 58.5t55 21.5q30 0 48.5 -18t18.5 -48q0 -38 -22 -59t-55 -21q-30 0 -48.5 18.5zM99 347h-57l15 104h189l-63 -451h-133z" />
    <glyph glyph-name="uni0457" unicode="&#x457;" horiz-adv-x="281" 
d="M37.5 553q-17.5 18 -17.5 46q0 35 24 58.5t58 23.5q29 0 46.5 -18t17.5 -46q0 -37 -22.5 -59.5t-57.5 -22.5q-31 0 -48.5 18zM232.5 553q-17.5 18 -17.5 46q0 35 24 58.5t58 23.5q28 0 46 -18.5t18 -45.5q0 -37 -22.5 -59.5t-57.5 -22.5q-31 0 -48.5 18zM99 347h-57
l15 104h189l-63 -451h-133z" />
    <glyph glyph-name="uni0458" unicode="&#x458;" horiz-adv-x="308" 
d="M157 553q-18 18 -18 48q0 37 21.5 58.5t54.5 21.5q30 0 48.5 -18t18.5 -48q0 -38 -22 -59t-55 -21q-30 0 -48 18zM-130 -192l15 102q25 -10 65 -10q58 0 81.5 34.5t33.5 107.5l43 305h-57l15 104h189l-56 -400q-12 -85 -32 -138.5t-67 -86.5t-132 -33q-65 0 -98 15z" />
    <glyph glyph-name="uni045B" unicode="&#x45b;" horiz-adv-x="572" 
d="M482 395.5q37 -34.5 37 -103.5q0 -31 -6 -69l-32 -223h-133l30 212q4 34 4 47q0 61 -62 61q-52 0 -73 -34t-31 -108l-26 -178h-133l69 487h-94l14 96h94l11 80h133l-11 -80h143l-13 -96h-143l-15 -105q23 23 58 35.5t75 12.5q67 0 104 -34.5z" />
    <glyph glyph-name="uni044E" unicode="&#x44e;" horiz-adv-x="805" 
d="M710 405.5q61 -54.5 61 -150.5q0 -20 -3 -41q-14 -104 -88.5 -163.5t-184.5 -59.5q-101 0 -159 50t-66 134h-74l-25 -175h-133l64 451h133l-24 -172h70q24 83 94.5 132t169.5 49q104 0 165 -54.5zM596.5 146q36.5 43 36.5 104q0 46 -24.5 72.5t-68.5 26.5
q-39 0 -69.5 -21t-47 -55.5t-16.5 -73.5q0 -44 25.5 -70t68.5 -26q59 0 95.5 43z" />
    <glyph glyph-name="uni044F" unicode="&#x44f;" horiz-adv-x="513" 
d="M476 451l-64 -451h-133l20 141h-37l-111 -141h-148l131 156q-38 13 -61 45t-23 76q0 12 2 30q10 84 72 114t157 30h195zM312 234l17 124h-52q-39 0 -62 -11.5t-28 -44.5q-1 -7 -1 -18q0 -25 19.5 -37.5t55.5 -12.5h51z" />
    <glyph glyph-name="uni0452" unicode="&#x452;" horiz-adv-x="577" 
d="M494.5 387q41.5 -43 41.5 -132q0 -87 -50 -188.5t-134 -183.5h-145q105 105 148 193.5t43 157.5q0 86 -70 86q-39 0 -61 -15.5t-33 -45.5t-18 -81l-25 -178h-133l68 487h-94l14 96h94l11 80h133l-11 -80h143l-13 -96h-143l-15 -105q24 23 59 35.5t78 12.5q71 0 112.5 -43
z" />
    <glyph glyph-name="Alpha" unicode="&#x391;" horiz-adv-x="641" 
d="M377 658h10l205 -658h-143l-28 100h-233l-57 -100h-146zM396 207l-50 179l-100 -179h150z" />
    <glyph glyph-name="Beta" unicode="&#x392;" horiz-adv-x="593" 
d="M548 209q0 -79 -38 -127q-30 -39 -85.5 -60.5t-146.5 -21.5h-235l91 648h171q105 0 175.5 -34t70.5 -128q0 -37 -13.5 -69t-37.5 -52q-20 -16 -46 -24q94 -27 94 -132zM412 474q0 37 -31.5 50.5t-83.5 13.5h-41l-21 -156h43q44 0 69.5 7t41.5 22q23 23 23 63zM408 205
q0 40 -30.5 54t-88.5 14h-70l-22 -161h73q43 0 73.5 8.5t46.5 28.5q18 24 18 56z" />
    <glyph glyph-name="Gamma" unicode="&#x393;" horiz-adv-x="500" 
d="M134 648h405l-16 -113h-268l-75 -535h-137z" />
    <glyph glyph-name="uni0394" unicode="&#x394;" horiz-adv-x="639" 
d="M591 0h-607l391 658h10zM345 386l-150 -272h224z" />
    <glyph glyph-name="Epsilon" unicode="&#x395;" horiz-adv-x="526" 
d="M134 648h401l-16 -113h-264l-21 -148h187l-16 -113h-187l-22 -160h276l-16 -114h-413z" />
    <glyph glyph-name="Zeta" unicode="&#x396;" horiz-adv-x="597" 
d="M3 10l374 525h-279l16 113h502l-2 -10l-372 -524h297l-16 -114h-522z" />
    <glyph glyph-name="Eta" unicode="&#x397;" horiz-adv-x="698" 
d="M134 648h137l-36 -261h273l37 261h137l-91 -648h-137l38 272h-274l-38 -272h-137z" />
    <glyph glyph-name="Theta" unicode="&#x398;" horiz-adv-x="763" 
d="M193.5 27q-67.5 37 -101.5 102t-34 149q0 30 4 57q14 96 62.5 169t127.5 113.5t180 40.5q93 0 161 -35t104 -99.5t36 -150.5q0 -29 -4 -57q-13 -93 -60.5 -167t-126.5 -116.5t-182 -42.5q-99 0 -166.5 37zM516 174.5q61 58.5 74 153.5q2 15 2 40q0 75 -43 120t-123 45
q-91 0 -151.5 -58.5t-73.5 -150.5q-3 -22 -3 -39q0 -76 43 -122.5t123 -46.5q91 0 152 58.5zM286 387h235l-16 -115h-236z" />
    <glyph glyph-name="Iota" unicode="&#x399;" horiz-adv-x="287" 
d="M134 648h137l-91 -648h-137z" />
    <glyph glyph-name="Kappa" unicode="&#x39a;" horiz-adv-x="679" 
d="M134 648h137l-43 -309l311 309h179l-329 -325l243 -323h-180l-227 316l-45 -316h-137z" />
    <glyph glyph-name="Lambda" unicode="&#x39b;" horiz-adv-x="631" 
d="M439 0l-99 384l-209 -384h-146l387 658h10l200 -658h-143z" />
    <glyph glyph-name="Mu" unicode="&#x39c;" horiz-adv-x="858" 
d="M257 313l-97 -313h-140l220 658h10l180 -422l298 422h10l36 -658h-134l-11 313l-225 -323h-10z" />
    <glyph glyph-name="Nu" unicode="&#x39d;" horiz-adv-x="706" 
d="M230 377l-53 -377h-134l93 658h10l358 -386l53 376h134l-92 -658h-10z" />
    <glyph glyph-name="Xi" unicode="&#x39e;" horiz-adv-x="562" 
d="M113 648h456l-17 -113h-455zM131 386h346l-16 -112h-346zM33 114h465l-16 -114h-466z" />
    <glyph glyph-name="Omicron" unicode="&#x39f;" horiz-adv-x="763" 
d="M193.5 27q-67.5 37 -101.5 102t-34 149q0 30 4 57q14 96 62.5 169t127.5 113.5t180 40.5q93 0 161 -35t104 -99.5t36 -150.5q0 -29 -4 -57q-13 -93 -60.5 -167t-126.5 -116.5t-182 -42.5q-99 0 -166.5 37zM516 174.5q61 58.5 74 153.5q2 15 2 40q0 75 -43 120t-123 45
q-91 0 -151.5 -58.5t-73.5 -150.5q-3 -22 -3 -39q0 -76 43 -122.5t123 -46.5q91 0 152 58.5z" />
    <glyph glyph-name="Pi" unicode="&#x3a0;" horiz-adv-x="688" 
d="M673 648l-91 -648h-138l75 535h-264l-75 -535h-137l91 648h539z" />
    <glyph glyph-name="Rho" unicode="&#x3a1;" horiz-adv-x="586" 
d="M134 648h163q86 0 146 -12t100 -54t40 -126q0 -26 -3 -47q-13 -91 -65.5 -134.5t-115 -54t-147.5 -10.5h-42l-30 -210h-137zM259 321q54 0 88 5.5t60 28t34 69.5q2 12 2 26q0 39 -18 58t-49.5 24.5t-85.5 5.5h-34l-31 -217h34z" />
    <glyph glyph-name="Sigma" unicode="&#x3a3;" horiz-adv-x="582" 
d="M548 535h-259l122 -208l-180 -213h268l-17 -114h-498l1 10l272 323l-180 305l2 10h485z" />
    <glyph glyph-name="Tau" unicode="&#x3a4;" horiz-adv-x="562" 
d="M256 535h-177l16 113h490l-16 -113h-175l-75 -535h-138z" />
    <glyph glyph-name="Upsilon" unicode="&#x3a5;" horiz-adv-x="636" 
d="M252 257l-176 391h147l112 -271l190 271h153l-289 -391l-36 -257h-138z" />
    <glyph glyph-name="Phi" unicode="&#x3a6;" horiz-adv-x="849" 
d="M773 191q-44 -69 -123.5 -108t-183.5 -42l-9 -69h-134l9 70q-80 6 -141.5 38.5t-96.5 87.5t-35 127q0 91 45 160.5t125 109t183 42.5l9 69h134l-10 -70q81 -6 143 -39.5t95.5 -89t33.5 -126.5q0 -91 -44 -160zM241 202.5q42 -37.5 109 -43.5l46 331q-87 -8 -142 -57
t-55 -128q0 -65 42 -102.5zM624 213q54 48 54 127q0 63 -41 102.5t-109 46.5l-47 -331q89 7 143 55z" />
    <glyph glyph-name="Chi" unicode="&#x3a7;" horiz-adv-x="656" 
d="M259 330l-174 318h158l113 -222l173 222h165l-265 -318l178 -330h-158l-117 232l-181 -232h-166z" />
    <glyph glyph-name="Psi" unicode="&#x3a8;" horiz-adv-x="869" 
d="M851 648l-20 -141q-22 -146 -104 -221.5t-227 -81.5l-29 -204h-137l29 205q-122 5 -186.5 64t-64.5 161q0 38 7 90l18 128h138l-19 -132q-5 -35 -5 -74q0 -58 33 -86t96 -31l45 323h138l-46 -323q77 4 119.5 46.5t57.5 138.5l19 138h138z" />
    <glyph glyph-name="uni03A9" unicode="&#x3a9;" horiz-adv-x="766" 
d="M702 230.5q-35 -70.5 -109 -116.5h109l-15 -114h-277l16 116q80 39 124 100t44 144q0 78 -46.5 125.5t-124.5 47.5q-66 0 -116 -28t-77.5 -78t-27.5 -113q0 -68 30 -119t79 -79l-16 -116h-276l15 114h118q-41 37 -65.5 90t-24.5 112q0 83 41.5 161.5t126 129.5t206.5 51
q90 0 158.5 -38t105.5 -103t37 -142q0 -74 -35 -144.5z" />
    <glyph glyph-name="Alphatonos" unicode="&#x386;" horiz-adv-x="705" 
d="M441 658h10l205 -658h-143l-28 100h-233l-57 -100h-146zM127 648h140l-125 -169h-107zM460 207l-50 179l-100 -179h150z" />
    <glyph glyph-name="Epsilontonos" unicode="&#x388;" horiz-adv-x="761" 
d="M127 648h140l-125 -169h-107zM369 648h401l-16 -113h-264l-21 -148h187l-16 -113h-187l-22 -160h276l-16 -114h-413z" />
    <glyph glyph-name="Etatonos" unicode="&#x389;" horiz-adv-x="933" 
d="M127 648h140l-125 -169h-107zM369 648h137l-36 -261h273l37 261h137l-91 -648h-137l38 272h-274l-38 -272h-137z" />
    <glyph glyph-name="Iotatonos" unicode="&#x38a;" horiz-adv-x="522" 
d="M127 648h140l-125 -169h-107zM369 648h137l-91 -648h-137z" />
    <glyph glyph-name="Omicrontonos" unicode="&#x38c;" horiz-adv-x="921" 
d="M351.5 27q-67.5 37 -101.5 102t-34 149q0 30 4 57q14 96 62.5 169t127.5 113.5t180 40.5q94 0 162 -35t104 -99.5t36 -150.5q0 -29 -4 -57q-13 -93 -61 -167t-127 -116.5t-182 -42.5q-99 0 -166.5 37zM127 648h140l-125 -169h-107zM674.5 174.5q60.5 58.5 73.5 153.5
q3 23 3 40q0 75 -43 120t-123 45q-92 0 -152.5 -58.5t-73.5 -150.5q-2 -15 -2 -39q0 -76 43 -122.5t123 -46.5q91 0 151.5 58.5z" />
    <glyph glyph-name="Upsilontonos" unicode="&#x38e;" horiz-adv-x="916" 
d="M127 648h140l-125 -169h-107zM531 257l-176 391h148l112 -271l189 271h154l-289 -391l-37 -257h-137z" />
    <glyph glyph-name="Omegatonos" unicode="&#x38f;" horiz-adv-x="925" 
d="M861 230.5q-35 -70.5 -108 -116.5h108l-15 -114h-277l17 116q80 39 123.5 100.5t43.5 143.5q0 78 -46.5 125.5t-124.5 47.5q-66 0 -116 -28t-77.5 -78t-27.5 -113q0 -68 30 -119t79 -79l-16 -116h-276l16 114h117q-41 37 -65.5 90t-24.5 112q0 83 41.5 161.5t126 129.5
t206.5 51q90 0 158.5 -38t105.5 -103t37 -142q0 -74 -35 -144.5zM267 648l-125 -169h-107l92 169h140z" />
    <glyph glyph-name="Iotadieresis" unicode="&#x3aa;" horiz-adv-x="287" 
d="M56 735q-20 20 -20 52q0 36 24 60t60 24q33 0 52.5 -20.5t19.5 -52.5q0 -36 -23.5 -59.5t-58.5 -23.5q-34 0 -54 20zM274 735q-20 20 -20 52q0 36 24 60t60 24q33 0 52.5 -20.5t19.5 -52.5q0 -36 -23.5 -59.5t-58.5 -23.5q-34 0 -54 20zM134 648h137l-91 -648h-137z" />
    <glyph glyph-name="Upsilondieresis" unicode="&#x3ab;" horiz-adv-x="636" 
d="M228 735q-20 20 -20 52q0 36 24.5 60t59.5 24q33 0 53 -20.5t20 -52.5q0 -36 -23.5 -59.5t-59.5 -23.5q-34 0 -54 20zM446.5 735q-20.5 20 -20.5 52q0 36 24.5 60t59.5 24q33 0 53 -20.5t20 -52.5q0 -36 -23.5 -59.5t-59.5 -23.5q-33 0 -53.5 20zM252 257l-176 391h147
l112 -271l190 271h153l-289 -391l-36 -257h-138z" />
    <glyph glyph-name="alpha" unicode="&#x3b1;" horiz-adv-x="590" 
d="M88 46q-54 55 -54 150q0 22 3 44q16 105 83.5 162.5t166.5 57.5q49 0 83.5 -17t52.5 -46l12 54h121l-62 -451h-122l4 46q-51 -55 -142 -55q-92 0 -146 55zM336.5 123q29.5 20 45.5 53.5t16 72.5q0 51 -27 75.5t-67 24.5q-39 0 -69.5 -20t-47 -53.5t-16.5 -73.5
q0 -47 26.5 -73t70.5 -26q39 0 68.5 20z" />
    <glyph glyph-name="beta" unicode="&#x3b2;" horiz-adv-x="564" 
d="M501 393.5q-31 -32.5 -76 -45.5q45 -15 74 -53t29 -91q0 -11 -2 -29q-11 -93 -72.5 -138.5t-144.5 -45.5q-94 0 -138 45l-33 -234h-133l93 663q16 110 74.5 162t171.5 52q89 0 143 -45t54 -121q0 -13 -2 -35q-7 -52 -38 -84.5zM394 203q0 46 -29 64.5t-80 18.5h-24
l15 102h21q49 0 74.5 21.5t32.5 66.5q2 16 2 24q0 35 -20 55t-54 20q-86 0 -100 -107l-32 -227q-4 -24 -4 -56q0 -45 26 -67.5t72 -22.5q40 0 66 21.5t33 65.5q1 7 1 21z" />
    <glyph glyph-name="beta.ss02" unicode="&#x3d0;" horiz-adv-x="550" 
d="M478 299q29 -41 29 -95q0 -49 -23 -97.5t-79 -82t-149 -33.5q-102 0 -155.5 44t-53.5 131q0 40 6 85l28 195q12 85 40.5 135.5t79 74t129.5 23.5q88 0 139.5 -45.5t51.5 -117.5q0 -63 -33 -106.5t-90 -57.5q51 -12 80 -53zM247 546.5q-24 -28.5 -33 -93.5l-9 -64h52
q70 0 97 31t27 82q0 34 -17.5 53.5t-48.5 19.5q-44 0 -68 -28.5zM344 125q25 30 25 75q0 44 -25.5 65.5t-79.5 21.5h-73l-8 -54q-4 -28 -4 -58q0 -40 23.5 -60t64.5 -20q52 0 77 30z" />
    <glyph glyph-name="gamma" unicode="&#x3b3;" horiz-adv-x="515" 
d="M303 71l-38 -270h-133l38 271l-133 379h146l69 -257l149 257h142z" />
    <glyph glyph-name="delta" unicode="&#x3b4;" horiz-adv-x="570" 
d="M499 361.5q33 -44.5 33 -108.5q0 -75 -33.5 -134.5t-96 -93.5t-146.5 -34q-67 0 -116.5 24.5t-76 68t-26.5 100.5q0 84 47 146t127 85q-60 38 -60 103q0 70 58 115.5t175 45.5q41 0 82 -9.5t69 -23.5l-15 -114q-69 37 -140 37q-92 0 -92 -52q0 -17 14.5 -28.5t56.5 -31.5
l43 -20q64 -31 97 -75.5zM369 305.5q-24 25.5 -68 25.5q-40 0 -68 -19.5t-42.5 -50t-14.5 -63.5q0 -43 25 -69t70 -26q56 0 89 39t33 95q0 43 -24 68.5z" />
    <glyph glyph-name="epsilon" unicode="&#x3b5;" horiz-adv-x="456" 
d="M205 314q0 -22 21 -32t57 -10h50l-12 -92h-51q-100 0 -100 -49q0 -41 79 -41q78 0 144 35l-12 -108q-59 -26 -166 -26q-85 0 -135.5 30.5t-50.5 89.5q0 44 29.5 76.5t79.5 43.5q-30 9 -49 34.5t-19 58.5q0 58 51.5 97t158.5 39q43 0 81.5 -8t64.5 -20l-13 -104
q-57 34 -123 34q-85 0 -85 -48z" />
    <glyph glyph-name="zeta" unicode="&#x3b6;" horiz-adv-x="428" 
d="M381 541q-110 -123 -160.5 -207t-50.5 -149q0 -37 22 -55.5t77 -33.5q60 -16 86.5 -39t26.5 -61q0 -62 -66 -133h-116q43 48 43 81q0 20 -16.5 32.5t-63.5 23.5q-67 18 -101.5 53t-34.5 101q0 75 48.5 162.5t173.5 220.5l21 22h-184l14 104h382l-1 -10z" />
    <glyph glyph-name="eta" unicode="&#x3b7;" horiz-adv-x="547" 
d="M97 451h121l-4 -50q24 28 59 43.5t79 15.5q71 0 108.5 -35t37.5 -104q0 -22 -5 -65l-64 -454h-133l62 441q4 24 4 43q0 64 -63 64q-51 0 -72 -36t-31 -106l-29 -208h-133z" />
    <glyph glyph-name="theta" unicode="&#x3b8;" horiz-adv-x="604" 
d="M527.5 612.5q53.5 -66.5 53.5 -177.5q0 -60 -9 -116q-23 -155 -95 -241.5t-200 -86.5q-109 0 -166 67t-57 177q0 56 9 119q20 152 94.5 238.5t203.5 86.5q113 0 166.5 -66.5zM204 387h240q2 32 2 42q0 140 -95 140q-113 0 -147 -182zM430 283h-240q-2 -32 -2 -43
q0 -66 24 -102t75 -36q108 0 143 181z" />
    <glyph glyph-name="theta.ss02" unicode="&#x3d1;" horiz-adv-x="596" 
d="M536.5 611q52.5 -68 52.5 -176q0 -40 -7 -98q-20 -161 -87.5 -253.5t-206.5 -92.5q-93 0 -150 43.5t-57 119.5q0 17 1 30.5t2 22.5q2 18 2 25q0 10 -6 15t-21 5q-16 0 -28 -4l13 98q37 11 83 11q51 0 74 -19.5t23 -58.5q0 -4 -3 -49q-4 -38 -4 -56q0 -35 23 -53.5
t62 -18.5q66 0 101.5 59.5t48.5 177.5q0 5 1 8q-48 -19 -106 -19q-57 0 -99.5 21.5t-65 59t-22.5 84.5q0 53 26 95t76.5 66.5t119.5 24.5q102 0 154.5 -68zM459 448v7q0 58 -23 86.5t-65 28.5q-36 0 -57.5 -19.5t-21.5 -52.5q0 -31 21.5 -48t59.5 -17q47 0 86 15z" />
    <glyph glyph-name="iota" unicode="&#x3b9;" horiz-adv-x="281" 
d="M94 347h-57l15 104h189l-63 -451h-133z" />
    <glyph glyph-name="kappa" unicode="&#x3ba;" horiz-adv-x="541" 
d="M350 228l153 -228h-161l-139 220l-31 -220h-133l63 451h133l-29 -209l190 209h165z" />
    <glyph glyph-name="lambda" unicode="&#x3bb;" horiz-adv-x="537" 
d="M502 102l-14 -98q-28 -10 -62 -10q-54 0 -80 26t-41 91l-41 172l-155 -283h-139l254 447l-15 65q-7 30 -17.5 41.5t-28.5 11.5q-17 0 -32 -5l14 98q33 11 71 11q54 0 80 -25t41 -88l96 -404q8 -30 17 -42t25 -12q15 0 27 4z" />
    <glyph glyph-name="uni03BC" unicode="&#x3bc;" horiz-adv-x="548" 
d="M515 451l-64 -451h-121l5 50q-18 -28 -45.5 -43.5t-54.5 -15.5q-45 0 -69 23l-30 -212h-131l92 649h133l-34 -243q-4 -30 -4 -52q0 -56 61 -56q48 0 68.5 34.5t31.5 108.5l29 208h133z" />
    <glyph glyph-name="nu" unicode="&#x3bd;" horiz-adv-x="510" 
d="M37 451h141l74 -230l137 230h148l-309 -460h-10z" />
    <glyph glyph-name="xi" unicode="&#x3be;" horiz-adv-x="444" 
d="M273.5 548.5q-28.5 -21.5 -33.5 -59.5q-1 -7 -1 -16q0 -37 25 -57.5t71 -20.5h44l-15 -104h-57q-119 0 -131 -87q-1 -7 -1 -17q0 -33 22.5 -53.5t79.5 -36.5q64 -18 91 -40.5t27 -60.5q0 -63 -66 -133h-116q21 24 32.5 43t11.5 37q0 20 -15.5 32.5t-62.5 24.5
q-71 20 -108.5 59t-37.5 103q0 16 3 35q9 59 50 100t100 52q-38 15 -61 49.5t-23 76.5q0 12 2 28q11 88 80 132t169 44q43 0 78 -7.5t58 -19.5l-16 -111q-23 13 -54.5 21t-64.5 8q-52 0 -80.5 -21.5z" />
    <glyph glyph-name="xi.ss02" horiz-adv-x="427" 
d="M295 538q-32 -21 -39 -66q-1 -6 -1 -15q0 -34 24 -53.5t70 -19.5h36l-15 -103h-57q-63 0 -98.5 -19.5t-40.5 -62.5l-1 -17q0 -33 23 -51.5t72 -32.5q65 -19 92.5 -41.5t27.5 -58.5q0 -64 -66 -135h-116q22 25 33 44t11 37q0 19 -16.5 32t-61.5 24q-67 18 -103.5 57.5
t-36.5 100.5q0 16 3 35q9 60 51.5 99t109.5 51q-33 12 -53.5 38.5t-20.5 60.5q0 9 1 17q4 35 25.5 60.5t55.5 39.5h-119l14 104h365l-14 -104h-63q-60 0 -92 -21z" />
    <glyph glyph-name="omicron" unicode="&#x3bf;" horiz-adv-x="573" 
d="M93 48.5q-59 57.5 -59 150.5q0 19 3 40q9 65 45.5 115.5t95.5 78t134 27.5q105 0 166.5 -54.5t61.5 -150.5q0 -20 -3 -41q-15 -104 -90 -163.5t-186 -59.5q-109 0 -168 57.5zM338 123q31 20 47.5 54t16.5 73q0 46 -25.5 72.5t-70.5 26.5q-40 0 -70.5 -21t-47 -55.5
t-16.5 -73.5q0 -44 25.5 -70t69.5 -26q40 0 71 20z" />
    <glyph glyph-name="pi" unicode="&#x3c0;" horiz-adv-x="611" 
d="M590 347h-63l-49 -347h-133l49 347h-142l-50 -347h-133l49 347h-64l15 104h536z" />
    <glyph glyph-name="rho" unicode="&#x3c1;" horiz-adv-x="576" 
d="M50 226q17 119 87 176.5t183 57.5q69 0 119.5 -28t77 -75t26.5 -104q0 -22 -3 -43q-10 -72 -45 -121t-86.5 -73.5t-109.5 -24.5q-44 0 -81.5 13.5t-59.5 37.5l-34 -240h-133zM369 143q35 40 35 99q0 48 -27 77.5t-73 29.5q-53 0 -87.5 -32t-41.5 -91q-1 -10 -1 -21
q0 -46 28 -74t75 -28q57 0 92 40z" />
    <glyph glyph-name="uni03C2" unicode="&#x3c2;" horiz-adv-x="446" 
d="M236 -57q0 19 -13.5 30t-51.5 24q-69 23 -105.5 68t-36.5 119q0 25 4 49q16 109 90 168t187 59q35 0 67 -7t53 -18l-16 -112q-46 27 -101 27q-58 0 -97 -32t-45 -93q-1 -11 -1 -23q0 -45 22 -68.5t74 -38.5q59 -18 84 -40.5t25 -59.5q0 -61 -66 -132h-116q43 48 43 80z
" />
    <glyph glyph-name="sigma" unicode="&#x3c3;" horiz-adv-x="578" 
d="M572 347h-100q24 -21 37.5 -52t13.5 -67q0 -15 -3 -35q-10 -93 -81 -147.5t-180 -54.5q-66 0 -117.5 26t-80 72.5t-28.5 106.5q0 11 3 35q13 105 89 162.5t205 57.5h256zM356 139.5q34 36.5 34 96.5q0 48 -25.5 75.5t-69.5 27.5q-51 0 -84 -29.5t-39 -83.5l-1 -20
q0 -47 27 -75t70 -28q54 0 88 36.5z" />
    <glyph glyph-name="tau" unicode="&#x3c4;" horiz-adv-x="432" 
d="M273 154q-3 -18 -3 -30q0 -26 33 -26q19 0 29 3l-14 -97q-28 -10 -65 -10q-61 0 -90 27t-29 71q0 26 6 66l26 189h-118l14 104h371l-15 -104h-119z" />
    <glyph glyph-name="upsilon" unicode="&#x3c5;" horiz-adv-x="520" 
d="M95 35.5q-44 44.5 -44 115.5q0 21 7 70l32 230h133l-36 -258q-4 -30 -4 -41q0 -52 58 -52q37 0 57.5 21.5t27.5 68.5l37 261h131l-37 -258q-12 -92 -61.5 -147t-160.5 -55q-96 0 -140 44.5z" />
    <glyph glyph-name="phi" unicode="&#x3c6;" horiz-adv-x="706" 
d="M644 130.5q-27 -56.5 -91.5 -96t-168.5 -43.5l-27 -189h-129l27 190q-66 5 -116 34t-77.5 75.5t-27.5 102.5q0 60 29 117t93 96t164 43l29 203h129l-29 -203q104 -6 163 -64.5t59 -149.5q0 -59 -27 -115.5zM504.5 144.5q34.5 42.5 34.5 94.5q0 50 -28 81t-77 35l-37 -258
q73 5 107.5 47.5zM194.5 134q28.5 -30 75.5 -36l37 257q-66 -4 -103.5 -44t-37.5 -99q0 -48 28.5 -78z" />
    <glyph glyph-name="phi.ss02" unicode="&#x3d5;" horiz-adv-x="717" 
d="M614.5 400q68.5 -56 68.5 -153q0 -16 -3 -39q-13 -101 -91.5 -157t-193.5 -60l-27 -190h-130l27 190q-67 2 -119.5 30.5t-81 76t-28.5 106.5q0 24 2 41q16 118 98 206h135q-85 -94 -96 -206q-2 -14 -2 -25q0 -54 29 -85.5t78 -35.5l50 357h92q124 0 192.5 -56zM548 244
q0 48 -26.5 76t-76.5 29l-35 -250q57 4 93.5 35.5t42.5 86.5q2 18 2 23z" />
    <glyph glyph-name="chi" unicode="&#x3c7;" horiz-adv-x="546" 
d="M444 -91q10 -11 25 -11t24 3l-13 -97q-10 -4 -28 -7t-33 -3q-34 0 -55.5 10.5t-38 34t-34.5 68.5l-43 109l-136 -214h-156l242 339l-66 165q-12 29 -23 39t-29 10q-15 0 -29 -4l14 97q12 5 32.5 8t38.5 3q36 0 56.5 -9.5t34 -30t30.5 -62.5l41 -101l129 195h156
l-237 -314l75 -186q13 -31 23 -42z" />
    <glyph glyph-name="psi" unicode="&#x3c8;" horiz-adv-x="724" 
d="M697 451l-32 -228q-16 -112 -79 -171t-191 -61l-27 -191h-132l27 191q-104 1 -155.5 50t-51.5 131q0 33 5 69l29 210h133l-30 -211q-4 -35 -4 -57q0 -38 23 -59.5t66 -23.5l50 351h132l-50 -351q53 3 83.5 37.5t40.5 102.5l30 211h133z" />
    <glyph glyph-name="omega" unicode="&#x3c9;" horiz-adv-x="738" 
d="M690 365q14 -49 14 -106q0 -29 -4 -56q-14 -98 -70 -155t-133 -57q-115 0 -140 100q-52 -100 -170 -100q-70 0 -113 47.5t-43 127.5q0 20 3 47q8 74 40 134.5t76 103.5h135q-43 -43 -72 -103t-38 -125q-3 -22 -3 -39q0 -82 58 -82q69 0 90 155l8 58h109l-8 -58
q-6 -39 -6 -68q0 -44 16 -65.5t45 -21.5q33 0 53.5 32t28.5 90q3 23 3 49q0 50 -14 96.5t-38 81.5h136q23 -37 37 -86z" />
    <glyph glyph-name="iotatonos" unicode="&#x3af;" horiz-adv-x="281" 
d="M204 689h156l-130 -169h-124zM94 347h-57l15 104h189l-63 -451h-133z" />
    <glyph glyph-name="iotadieresis" unicode="&#x3ca;" horiz-adv-x="274" 
d="M42 538q-17 18 -17 47q0 35 24 58t58 23q28 0 46 -19t18 -47q0 -37 -23 -58.5t-58 -21.5q-31 0 -48 18zM226 538q-17 18 -17 47q0 35 23.5 58t57.5 23q29 0 47 -19t18 -47q0 -37 -23 -58.5t-58 -21.5q-31 0 -48 18zM94 347h-57l15 104h189l-63 -451h-133z" />
    <glyph glyph-name="iotadieresistonos" unicode="&#x390;" horiz-adv-x="281" 
d="M170 689h126l-93 -169h-91zM-19 537q-17 17 -17 43q0 34 23 56t55 22q28 0 44.5 -17t16.5 -44q0 -34 -22 -55.5t-55 -21.5q-28 0 -45 17zM296 537q-17 17 -17 43q0 34 23 56t55 22q29 0 45.5 -17t16.5 -44q0 -34 -22 -55.5t-55 -21.5q-29 0 -46 17zM94 347h-57l15 104
h189l-63 -451h-133z" />
    <glyph glyph-name="upsilontonos" unicode="&#x3cd;" horiz-adv-x="520" 
d="M331 689h157l-130 -169h-125zM95 35.5q-44 44.5 -44 115.5q0 21 7 70l32 230h133l-36 -258q-4 -30 -4 -41q0 -52 58 -52q37 0 57.5 21.5t27.5 68.5l37 261h131l-37 -258q-12 -92 -61.5 -147t-160.5 -55q-96 0 -140 44.5z" />
    <glyph glyph-name="upsilondieresis" unicode="&#x3cb;" horiz-adv-x="520" 
d="M148.5 538q-17.5 18 -17.5 46q0 35 24 58.5t58 23.5q28 0 46 -18.5t18 -45.5q0 -37 -22.5 -59.5t-57.5 -22.5q-31 0 -48.5 18zM365 538q-18 18 -18 46q0 35 24 58.5t58 23.5q29 0 47 -18.5t18 -45.5q0 -37 -23 -59.5t-58 -22.5q-30 0 -48 18zM95 35.5q-44 44.5 -44 115.5
q0 21 7 70l32 230h133l-36 -258q-4 -30 -4 -41q0 -52 58 -52q37 0 57.5 21.5t27.5 68.5l37 261h131l-37 -258q-12 -92 -61.5 -147t-160.5 -55q-96 0 -140 44.5z" />
    <glyph glyph-name="upsilondieresistonos" unicode="&#x3b0;" horiz-adv-x="520" 
d="M292 689h126l-93 -169h-92zM102 537q-17 17 -17 43q0 34 23 56t56 22q28 0 44.5 -17t16.5 -44q0 -34 -22 -55.5t-55 -21.5q-29 0 -46 17zM418 537q-17 17 -17 43q0 34 23 56t55 22q28 0 45 -17t17 -44q0 -34 -22.5 -55.5t-55.5 -21.5q-28 0 -45 17zM95 35.5
q-44 44.5 -44 115.5q0 21 7 70l32 230h133l-36 -258q-4 -30 -4 -41q0 -52 58 -52q37 0 57.5 21.5t27.5 68.5l37 261h131l-37 -258q-12 -92 -61.5 -147t-160.5 -55q-96 0 -140 44.5z" />
    <glyph glyph-name="omicrontonos" unicode="&#x3cc;" horiz-adv-x="573" 
d="M356 689h156l-130 -169h-124zM93 48.5q-59 57.5 -59 150.5q0 19 3 40q9 65 45.5 115.5t95.5 78t134 27.5q105 0 166.5 -54.5t61.5 -150.5q0 -20 -3 -41q-15 -104 -90 -163.5t-186 -59.5q-109 0 -168 57.5zM338 123q31 20 47.5 54t16.5 73q0 46 -25.5 72.5t-70.5 26.5
q-40 0 -70.5 -21t-47 -55.5t-16.5 -73.5q0 -44 25.5 -70t69.5 -26q40 0 71 20z" />
    <glyph glyph-name="omegatonos" unicode="&#x3ce;" horiz-adv-x="738" 
d="M465 520h-125l98 169h157zM690 365q14 -49 14 -106q0 -29 -4 -56q-14 -98 -70 -155t-133 -57q-115 0 -140 100q-52 -100 -170 -100q-70 0 -113 47.5t-43 127.5q0 20 3 47q8 74 40 134.5t76 103.5h135q-43 -43 -72 -103t-38 -125q-3 -22 -3 -39q0 -82 58 -82q69 0 90 155
l8 58h109l-8 -58q-6 -39 -6 -68q0 -44 16 -65.5t45 -21.5q33 0 53.5 32t28.5 90q3 23 3 49q0 50 -14 96.5t-38 81.5h136q23 -37 37 -86z" />
    <glyph glyph-name="alphatonos" unicode="&#x3ac;" horiz-adv-x="590" 
d="M357 689h156l-130 -169h-124zM88 46q-54 55 -54 150q0 22 3 44q16 105 83.5 162.5t166.5 57.5q49 0 83.5 -17t52.5 -46l12 54h121l-62 -451h-122l4 46q-51 -55 -142 -55q-92 0 -146 55zM336.5 123q29.5 20 45.5 53.5t16 72.5q0 51 -27 75.5t-67 24.5q-39 0 -69.5 -20
t-47 -53.5t-16.5 -73.5q0 -47 26.5 -73t70.5 -26q39 0 68.5 20z" />
    <glyph glyph-name="epsilontonos" unicode="&#x3ad;" horiz-adv-x="456" 
d="M337 520h-125l98 169h157zM121.5 421q51.5 39 158.5 39q43 0 81.5 -8t64.5 -20l-13 -104q-57 34 -123 34q-85 0 -85 -48q0 -22 21 -32t57 -10h50l-12 -92h-51q-100 0 -100 -49q0 -41 79 -41q78 0 144 35l-12 -108q-59 -26 -166 -26q-85 0 -135.5 30.5t-50.5 89.5
q0 44 29.5 76.5t79.5 43.5q-30 9 -49 34.5t-19 58.5q0 58 51.5 97z" />
    <glyph glyph-name="etatonos" unicode="&#x3ae;" horiz-adv-x="547" 
d="M351 689h157l-154 -169h-125zM97 451h121l-4 -50q24 28 59 43.5t79 15.5q71 0 108.5 -35t37.5 -104q0 -22 -5 -65l-64 -454h-133l62 441q4 24 4 43q0 64 -63 64q-51 0 -72 -36t-31 -106l-29 -208h-133z" />
    <glyph glyph-name="zero" unicode="0" horiz-adv-x="611" 
d="M116 60q-57 70 -57 190q0 33 6 77q21 156 97.5 243.5t195.5 87.5q106 0 164 -69t58 -192q0 -28 -5 -70q-19 -158 -96.5 -247.5t-197.5 -89.5q-108 0 -165 70zM382 167.5q39 58.5 53 164.5q5 33 5 62q0 147 -88 147q-55 0 -94.5 -58.5t-54.5 -164.5q-4 -33 -4 -63
q0 -74 23 -110t66 -36q55 0 94 58.5z" />
    <glyph glyph-name="one" unicode="1" horiz-adv-x="453" 
d="M246 487l-151 -66l17 118l283 119h10l-93 -658h-135z" />
    <glyph glyph-name="two" unicode="2" horiz-adv-x="542" 
d="M13 10l234 264q58 65 84.5 108t26.5 85q0 37 -23 55.5t-65 18.5q-45 0 -90.5 -22t-74.5 -45l20 136q78 48 174 48t147.5 -48.5t51.5 -132.5q0 -47 -16 -86.5t-45.5 -78.5t-88.5 -103l-86 -95h198l-16 -114h-433z" />
    <glyph glyph-name="three" unicode="3" horiz-adv-x="559" 
d="M539 638l-176 -251q54 -9 91.5 -49.5t37.5 -111.5q0 -118 -72 -177t-190 -59q-61 0 -109.5 12.5t-73.5 28.5l18 126q30 -22 70 -35.5t86 -13.5q64 0 97.5 31t33.5 82q0 45 -28 67t-75 22q-55 0 -94 -34l-12 10l175 249h-198l17 113h404z" />
    <glyph glyph-name="four" unicode="4" horiz-adv-x="571" 
d="M313 103h-317l1 10l510 545h10l-64 -455h89l-15 -100h-88l-14 -103h-127zM326 203l20 142l-132 -142h112z" />
    <glyph glyph-name="five" unicode="5" horiz-adv-x="561" 
d="M115 3q-46 13 -68 29l18 125q25 -21 68.5 -35t86.5 -14q64 0 97.5 31t33.5 80q0 46 -28.5 68.5t-76.5 22.5q-41 0 -76 -15.5t-59 -40.5l-12 6l107 388h307l-16 -113h-194l-34 -123q15 4 36 4q79 0 132 -48t53 -148q0 -113 -72.5 -171.5t-194.5 -58.5q-62 0 -108 13z" />
    <glyph glyph-name="six" unicode="6" horiz-adv-x="590" 
d="M486 377.5q54 -49.5 54 -147.5q0 -73 -32 -127.5t-89.5 -83.5t-133.5 -29q-104 0 -164.5 57t-60.5 169q0 86 39 169.5t105.5 152t147.5 110.5h206q-87 -44 -180.5 -116.5t-135.5 -135.5q42 31 107 31q83 0 137 -49.5zM370 138.5q31 31.5 31 83.5q0 44 -23 67.5t-64 23.5
q-52 0 -82.5 -32.5t-30.5 -82.5q0 -41 23.5 -66t65.5 -25q49 0 80 31.5z" />
    <glyph glyph-name="seven" unicode="7" horiz-adv-x="584" 
d="M223 279.5q70 154.5 154 254.5h-256l16 114h485l-2 -11q-68 -59 -139 -162.5t-127.5 -228.5t-83.5 -246h-144q27 125 97 279.5z" />
    <glyph glyph-name="eight" unicode="8" horiz-adv-x="588" 
d="M118.5 39.5q-56.5 49.5 -56.5 136.5q0 62 31.5 108.5t82.5 61.5q-29 14 -45 42t-16 67q0 59 29 105t81 72t120 26q85 0 140 -42.5t55 -128.5q0 -52 -25.5 -92t-68.5 -55q33 -15 52 -48.5t19 -84.5q0 -66 -30.5 -115t-85 -75.5t-126.5 -26.5q-100 0 -156.5 49.5z
M380.5 415q24.5 22 24.5 61q0 33 -19.5 50t-49.5 17q-39 0 -62 -25t-23 -61q0 -30 18.5 -47t49.5 -17q37 0 61.5 22zM352 131.5q29 24.5 29 69.5q0 36 -21.5 57.5t-60.5 21.5q-45 0 -73 -27t-28 -69q0 -35 22.5 -56t60.5 -21q42 0 71 24.5z" />
    <glyph glyph-name="nine" unicode="9" horiz-adv-x="582" 
d="M491.5 600q59.5 -58 59.5 -169q0 -131 -79 -241.5t-210 -189.5h-192q93 58 180 129.5t122 131.5q-39 -31 -105 -31q-63 0 -105.5 26.5t-63 69.5t-20.5 94q0 70 32 124t89.5 84t131.5 30q101 0 160.5 -58zM381 373q32 30 32 82q0 44 -24 66t-63 22q-48 0 -79.5 -32.5
t-31.5 -81.5q0 -41 23.5 -63.5t63.5 -22.5q47 0 79 30z" />
    <glyph glyph-name="zero.tf" 
d="M106 60q-57 70 -57 190q0 33 6 77q22 157 98 244t196 87q106 0 163.5 -69t57.5 -192q0 -28 -5 -70q-19 -158 -96.5 -247.5t-197.5 -89.5q-108 0 -165 70zM372 167.5q39 58.5 53 164.5q5 33 5 62q0 73 -22.5 110t-64.5 37q-55 0 -95 -58.5t-54 -164.5q-5 -31 -5 -63
q0 -74 23 -110t66 -36q55 0 94 58.5z" />
    <glyph glyph-name="one.tf" 
d="M304 487l-150 -66l16 118l284 119h10l-93 -658h-135z" />
    <glyph glyph-name="two.tf" 
d="M45 10l234 264q58 65 84.5 108t26.5 85q0 37 -23 55.5t-65 18.5q-45 0 -91 -22.5t-73 -44.5l19 136q78 48 174 48t147.5 -48.5t51.5 -132.5q0 -47 -15.5 -86.5t-45.5 -78t-88 -103.5l-87 -95h198l-16 -114h-433z" />
    <glyph glyph-name="three.tf" 
d="M565 638l-176 -251q54 -9 91.5 -49.5t37.5 -111.5q0 -118 -72 -177t-190 -59q-61 0 -109.5 12.5t-73.5 28.5l18 126q30 -22 70 -35.5t86 -13.5q64 0 97.5 31t33.5 82q0 45 -28 67t-75 22q-55 0 -94 -34l-12 10l175 249h-198l17 113h404z" />
    <glyph glyph-name="four.tf" 
d="M306 103h-317l1 10l510 545h10l-64 -455h88l-14 -100h-88l-14 -103h-127zM319 203l20 142l-132 -142h112z" />
    <glyph glyph-name="five.tf" 
d="M130 3q-46 13 -68 29l18 125q25 -21 68.5 -35t86.5 -14q65 0 98 31t33 80q0 46 -28.5 68.5t-76.5 22.5q-41 0 -76 -15.5t-58 -40.5l-12 6l106 388h307l-16 -113h-194l-33 -123q13 4 35 4q80 0 133 -48t53 -148q0 -113 -73 -171.5t-195 -58.5q-62 0 -108 13z" />
    <glyph glyph-name="six.tf" 
d="M477 377.5q54 -49.5 54 -147.5q0 -73 -32 -127.5t-89.5 -83.5t-133.5 -29q-104 0 -164.5 57t-60.5 169q0 86 39 169.5t105.5 152t147.5 110.5h206q-88 -45 -181.5 -117t-134.5 -136q41 32 107 32q83 0 137 -49.5zM361 138.5q31 31.5 31 83.5q0 44 -23 67.5t-64 23.5
q-52 0 -82.5 -32.5t-30.5 -82.5q0 -41 23.5 -66t65.5 -25q49 0 80 31.5z" />
    <glyph glyph-name="seven.tf" 
d="M226.5 280q70.5 154 153.5 254h-256l16 114h486l-2 -11q-68 -59 -139 -162.5t-128 -228.5t-83 -246h-145q27 126 97.5 280z" />
    <glyph glyph-name="eight.tf" 
d="M120.5 39.5q-56.5 49.5 -56.5 136.5q0 62 31.5 108.5t82.5 61.5q-28 14 -44 42.5t-16 66.5q0 59 28.5 105t80.5 72t120 26q85 0 140 -42.5t55 -128.5q0 -52 -25 -92t-69 -55q34 -15 52.5 -48t18.5 -85q0 -66 -30 -115t-85 -75.5t-127 -26.5q-100 0 -156.5 49.5zM383 415
q24 22 24 61q0 33 -19 50t-50 17q-38 0 -61.5 -25.5t-23.5 -60.5q0 -30 18.5 -47t50.5 -17q37 0 61 22zM354 131.5q29 24.5 29 69.5q0 36 -21.5 57.5t-60.5 21.5q-45 0 -73 -27t-28 -69q0 -35 22.5 -56t60.5 -21q42 0 71 24.5z" />
    <glyph glyph-name="nine.tf" 
d="M495.5 600q59.5 -58 59.5 -169q0 -131 -79 -241.5t-210 -189.5h-191q94 59 180 129.5t121 130.5q-39 -30 -105 -30q-63 0 -105.5 26.5t-63 69.5t-20.5 94q0 70 32 124t89.5 84t131.5 30q101 0 160.5 -58zM385.5 373q32.5 30 32.5 82q0 44 -24.5 66t-62.5 22
q-48 0 -80 -32.5t-32 -81.5q0 -41 23.5 -63.5t63.5 -22.5q47 0 79.5 30z" />
    <glyph glyph-name="uni00B9" unicode="&#xb9;" horiz-adv-x="385" 
d="M204 532l-101 -45l12 88l198 83h9l-56 -395h-100z" />
    <glyph glyph-name="uni00B2" unicode="&#xb2;" horiz-adv-x="380" 
d="M58 272l138 167q33 40 43 57.5t10 36.5q0 18 -12 28t-34 10q-46 0 -98 -44l14 101q16 12 44.5 21t62.5 9q62 0 93.5 -30.5t31.5 -81.5q0 -39 -19 -70.5t-71 -92.5l-30 -36h102l-12 -84h-265z" />
    <glyph glyph-name="uni00B3" unicode="&#xb3;" horiz-adv-x="381" 
d="M375 638l-99 -146q28 -5 48.5 -28t20.5 -65q0 -73 -44 -109.5t-118 -36.5q-70 0 -109 24l12 92q18 -14 42.5 -21.5t49.5 -7.5q32 0 49 14t17 41q0 19 -12 30t-37 11q-31 0 -57 -19l-8 8l93 139h-108l12 84h249z" />
    <glyph glyph-name="fraction" unicode="&#x2044;" horiz-adv-x="497" 
d="M419 648h137l-451 -648h-137z" />
    <glyph glyph-name="onehalf" unicode="&#xbd;" horiz-adv-x="950" 
d="M204 532l-101 -45l12 88l198 83h9l-56 -395h-100zM654 648h137l-451 -648h-137zM607 9l138 167q32 39 42.5 56.5t10.5 37.5q0 18 -12 28t-33 10q-47 0 -99 -44l14 101q16 12 44.5 21t62.5 9q62 0 93.5 -30.5t31.5 -81.5q0 -39 -19 -70.5t-71 -92.5l-30 -36h102l-12 -84
h-264z" />
    <glyph glyph-name="onequarter" unicode="&#xbc;" horiz-adv-x="950" 
d="M204 532l-101 -45l12 88l198 83h9l-56 -395h-100zM645 648h138l-451 -648h-138zM711 55h-181l2 10l308 330h10l-38 -273h54l-10 -67h-56l-6 -55h-91zM721 122l9 59l-56 -59h47z" />
    <glyph glyph-name="threequarters" unicode="&#xbe;" horiz-adv-x="950" 
d="M301 289.5q-44 -36.5 -118 -36.5q-70 0 -109 24l12 92q18 -14 42.5 -21.5t49.5 -7.5q32 0 49 14t17 41q0 19 -12 30t-37 11q-31 0 -57 -19l-8 8l93 139h-108l12 84h249l-1 -10l-99 -146q28 -5 48.5 -28t20.5 -65q0 -73 -44 -109.5zM791 648l-451 -648h-138l451 648h138z
M866 122l-10 -67h-56l-6 -55h-91l7 55h-180v7l310 333h10l-38 -273h54zM730 182l-56 -60h47z" />
    <glyph glyph-name="asterisk" unicode="*" horiz-adv-x="399" 
d="M201 452l-82 -61l-37 68l97 40l-85 40l46 69l73 -60l4 100h83l-24 -101l80 61l37 -69l-94 -40l85 -40l-46 -68l-75 61l-4 -102h-83z" />
    <glyph glyph-name="backslash" unicode="\" horiz-adv-x="515" 
d="M70 648h137l248 -846h-137z" />
    <glyph glyph-name="periodcentered" unicode="&#xb7;" horiz-adv-x="290" 
d="M86 172q-20 20 -20 53q0 38 25.5 63t59.5 25q33 0 54 -20.5t21 -54.5q0 -38 -25.5 -62t-60.5 -24q-34 0 -54 20z" />
    <glyph glyph-name="bullet" unicode="&#x2022;" horiz-adv-x="445" 
d="M141 148.5q-33 32.5 -33 83.5q0 49 34.5 81.5t81.5 32.5q50 0 82 -32.5t32 -82.5q0 -51 -32 -83t-82 -32t-83 32.5z" />
    <glyph glyph-name="periodcentered.case" horiz-adv-x="290" 
d="M100 271q-20 20 -20 53q0 38 25.5 63t59.5 25q33 0 54 -20.5t21 -54.5q0 -38 -25.5 -62t-60.5 -24q-34 0 -54 20z" />
    <glyph glyph-name="bullet.case" horiz-adv-x="446" 
d="M155 247.5q-33 32.5 -33 83.5q0 49 34.5 81.5t81.5 32.5q50 0 82 -32.5t32 -82.5q0 -51 -32 -83t-82 -32t-83 32.5z" />
    <glyph glyph-name="exclamdown.case" horiz-adv-x="309" 
d="M196 0h-142l65 439h132zM264 637q20 -20 20 -53q0 -37 -25.5 -62.5t-60.5 -25.5q-33 0 -53.5 20.5t-20.5 54.5q0 38 25 62t60 24t55 -20z" />
    <glyph glyph-name="questiondown.case" horiz-adv-x="435" 
d="M321 287q-65 0 -107.5 -27t-42.5 -82q0 -37 23.5 -55t63.5 -18q46 0 81 16.5t59 38.5l-19 -129q-21 -15 -59.5 -27.5t-86.5 -12.5q-94 0 -147.5 47.5t-53.5 127.5q0 81 47 133t121 58l11 83h132zM356 638q20 -20 20 -53q0 -38 -25.5 -63t-59.5 -25q-33 0 -54 20.5
t-21 54.5q0 38 25.5 62t60.5 24q34 0 54 -20z" />
    <glyph glyph-name="colon" unicode=":" horiz-adv-x="291" 
d="M109 326q-20 20 -20 53q0 38 25.5 63t59.5 25q33 0 54 -20.5t21 -54.5q0 -38 -25.5 -62t-60.5 -24q-34 0 -54 20zM64 11q-20 20 -20 53q0 38 25.5 63t59.5 25q33 0 54 -20.5t21 -54.5q0 -38 -25.5 -62t-60.5 -24q-34 0 -54 20z" />
    <glyph glyph-name="comma" unicode="," horiz-adv-x="291" 
d="M60.5 -76q26.5 36 38.5 68q-30 3 -46 20t-16 46q0 40 26.5 67t66.5 27q38 0 60.5 -23.5t22.5 -66.5q0 -55 -30.5 -109t-91.5 -96h-95q38 31 64.5 67z" />
    <glyph glyph-name="ellipsis" unicode="&#x2026;" horiz-adv-x="756" 
d="M529 11q-20 20 -20 53q0 38 25.5 63t59.5 25q33 0 54 -20.5t21 -54.5q0 -38 -25.5 -62t-60.5 -24q-34 0 -54 20zM296 11q-20 20 -20 53q0 38 25.5 63t59.5 25q33 0 54 -20.5t21 -54.5q0 -38 -25.5 -62t-60.5 -24q-34 0 -54 20zM64 11q-20 20 -20 53q0 38 25.5 63t59.5 25
q33 0 54 -20.5t21 -54.5q0 -38 -25.5 -62t-60.5 -24q-34 0 -54 20z" />
    <glyph glyph-name="exclam" unicode="!" horiz-adv-x="309" 
d="M141 648h142l-65 -439h-132zM73 11q-20 20 -20 53q0 37 25.5 62.5t60.5 25.5q33 0 53.5 -20.5t20.5 -54.5q0 -38 -25 -62t-60 -24t-55 20z" />
    <glyph glyph-name="exclamdown" unicode="&#xa1;" horiz-adv-x="309" 
d="M116.5 318.5q-20.5 20.5 -20.5 54.5q0 38 25 62t60 24t55 -20t20 -53q0 -37 -25.5 -62.5t-60.5 -25.5q-33 0 -53.5 20.5zM91 241h132l-55 -439h-142z" />
    <glyph glyph-name="numbersign" unicode="#" horiz-adv-x="578" 
d="M75 154h-89l37 95h88l61 150h-91l38 95h90l60 154h120l-60 -154h80l61 154h120l-61 -154h92l-39 -95h-89l-61 -150h92l-38 -95h-91l-60 -154h-120l60 154h-80l-61 -154h-120zM312 249l60 150h-80l-61 -150h81z" />
    <glyph glyph-name="period" unicode="." horiz-adv-x="291" 
d="M64 11q-20 20 -20 53q0 38 25.5 63t59.5 25q33 0 54 -20.5t21 -54.5q0 -38 -25.5 -62t-60.5 -24q-34 0 -54 20z" />
    <glyph glyph-name="question" unicode="?" horiz-adv-x="435" 
d="M142 362q65 0 107.5 27t42.5 82q0 37 -23.5 55t-63.5 18q-46 0 -81 -16.5t-59 -38.5l19 129q21 15 59.5 27.5t86.5 12.5q94 0 147.5 -47.5t53.5 -127.5q0 -81 -47 -133t-121 -58l-11 -83h-132zM107 11q-20 20 -20 53q0 38 25.5 63t59.5 25q33 0 54 -20.5t21 -54.5
q0 -38 -25.5 -62t-60.5 -24q-34 0 -54 20z" />
    <glyph glyph-name="questiondown" unicode="&#xbf;" horiz-adv-x="435" 
d="M209.5 319.5q-20.5 20.5 -20.5 54.5q0 38 25 62t60 24t55 -20t20 -53q0 -37 -25.5 -62.5t-60.5 -25.5q-33 0 -53.5 20.5zM58 -160q-53 48 -53 128q0 81 46.5 132.5t120.5 58.5l12 82h131l-21 -152q-65 -1 -107.5 -27.5t-42.5 -82.5q0 -37 23.5 -54.5t63.5 -17.5
q77 0 139 54l-18 -128q-20 -15 -59 -28t-88 -13q-94 0 -147 48z" />
    <glyph glyph-name="quotedbl" unicode="&#x22;" horiz-adv-x="509" 
d="M134 648h141l-51 -228h-104zM353 648h141l-51 -228h-103z" />
    <glyph glyph-name="quotesingle" unicode="'" horiz-adv-x="290" 
d="M134 648h141l-51 -228h-104z" />
    <glyph glyph-name="semicolon" unicode=";" horiz-adv-x="278" 
d="M60.5 -76q26.5 36 38.5 68q-30 3 -46 20t-16 46q0 40 26.5 67t66.5 27q38 0 60.5 -23.5t22.5 -66.5q0 -55 -30.5 -109t-91.5 -96h-95q38 31 64.5 67zM109 326q-20 20 -20 53q0 38 25.5 63t59.5 25q33 0 54 -20.5t21 -54.5q0 -38 -25.5 -62t-60.5 -24q-34 0 -54 20z" />
    <glyph glyph-name="slash" unicode="/" horiz-adv-x="430" 
d="M339 648h139l-399 -846h-139z" />
    <glyph glyph-name="numbersign.tf" 
d="M83 154h-89l37 95h88l61 150h-91l38 95h90l60 154h120l-60 -154h80l61 154h120l-61 -154h92l-39 -95h-89l-61 -150h92l-38 -95h-91l-60 -154h-120l60 154h-80l-61 -154h-120zM320 249l60 150h-80l-61 -150h81z" />
    <glyph glyph-name="underscore" unicode="_" horiz-adv-x="410" 
d="M-43 -82h410l-15 -104h-410z" />
    <glyph glyph-name="braceleft" unicode="{" horiz-adv-x="393" 
d="M73 -172q-46 35 -46 100q0 41 14.5 72.5t42.5 71.5q22 30 32.5 51t10.5 45q0 31 -15.5 46.5t-50.5 18.5l3 21q89 7 89 77q0 19 -5 35t-16 38q-12 27 -18.5 48t-6.5 50q0 80 56.5 128t151.5 48q60 0 110 -20l-14 -99q-17 10 -40.5 15t-42.5 5q-42 0 -65.5 -24t-23.5 -63
q0 -18 5.5 -34t15.5 -37q12 -23 18 -41.5t6 -41.5q0 -75 -94 -98q27 -8 47.5 -30t20.5 -57q0 -29 -13 -53t-38 -56q-24 -31 -35.5 -52t-11.5 -46q0 -53 64 -53q25 0 50.5 6t45.5 16l-15 -106q-24 -8 -52 -12t-51 -4q-83 0 -129 35z" />
    <glyph glyph-name="braceright" unicode="}" horiz-adv-x="393" 
d="M-29 -187l14 99q16 -9 38.5 -14t44.5 -5q42 0 65.5 23t23.5 65q0 17 -5 33.5t-16 40.5q-12 25 -18 44.5t-6 41.5q0 43 27 71t59 35q-26 9 -43.5 27t-17.5 46t12 49.5t37 54.5q24 29 36.5 51.5t12.5 49.5t-18 40.5t-50 13.5q-45 0 -91 -23l15 105q47 17 104 17
q83 0 128 -37t45 -106q0 -46 -15 -77t-44 -68q-21 -27 -30.5 -44.5t-9.5 -38.5q0 -48 68 -53l-4 -21q-41 -4 -65.5 -27t-24.5 -62q0 -16 5 -31.5t15 -37.5q13 -31 19.5 -53.5t6.5 -48.5q0 -84 -56.5 -132t-152.5 -48q-66 0 -109 20z" />
    <glyph glyph-name="bracketleft" unicode="[" horiz-adv-x="354" 
d="M134 648h250l-16 -110h-117l-87 -626h117l-16 -110h-250z" />
    <glyph glyph-name="bracketright" unicode="]" horiz-adv-x="355" 
d="M-14 -88h117l88 626h-118l16 110h250l-119 -846h-250z" />
    <glyph glyph-name="braceleft.case" horiz-adv-x="393" 
d="M89 -60q-46 35 -46 100q0 41 14.5 72.5t42.5 71.5q22 30 32.5 51t10.5 45q0 31 -15.5 46.5t-50.5 18.5l3 21q89 7 89 77q0 19 -5 35t-16 38q-12 27 -18.5 48t-6.5 50q0 80 56.5 128t151.5 48q60 0 110 -20l-14 -99q-17 10 -40.5 15t-42.5 5q-42 0 -65.5 -24t-23.5 -63
q0 -18 5.5 -34t15.5 -37q12 -23 18 -41.5t6 -41.5q0 -75 -94 -98q27 -8 47.5 -30t20.5 -57q0 -29 -13 -53t-38 -56q-24 -31 -35.5 -52t-11.5 -46q0 -53 64 -53q25 0 50.5 6t45.5 16l-15 -106q-24 -8 -52 -12t-51 -4q-83 0 -129 35z" />
    <glyph glyph-name="braceright.case" horiz-adv-x="393" 
d="M-13 -75l14 99q16 -9 38.5 -14t44.5 -5q42 0 65.5 23t23.5 65q0 17 -5 33.5t-16 40.5q-12 25 -18 44.5t-6 41.5q0 43 27 71t59 35q-26 9 -43.5 27t-17.5 46t12 49.5t37 54.5q24 29 36.5 51.5t12.5 49.5t-18 40.5t-50 13.5q-45 0 -91 -23l15 105q47 17 104 17
q83 0 128 -37t45 -106q0 -46 -15 -77t-44 -68q-21 -27 -30.5 -44.5t-9.5 -38.5q0 -48 68 -53l-4 -21q-41 -4 -65.5 -27t-24.5 -62q0 -16 5 -31.5t15 -37.5q13 -31 19.5 -53.5t6.5 -48.5q0 -84 -56.5 -132t-152.5 -48q-66 0 -109 20z" />
    <glyph glyph-name="bracketleft.case" horiz-adv-x="355" 
d="M149 751h250l-16 -110h-117l-87 -626h117l-16 -110h-250z" />
    <glyph glyph-name="bracketright.case" horiz-adv-x="354" 
d="M0 15h117l88 626h-118l16 110h250l-119 -846h-250z" />
    <glyph glyph-name="parenleft.case" horiz-adv-x="362" 
d="M85 45.5q-41 83.5 -41 194.5q0 157 69.5 290t186.5 221h162q-279 -209 -279 -517q0 -97 36 -176t114 -153h-145q-62 57 -103 140.5z" />
    <glyph glyph-name="parenright.case" horiz-adv-x="362" 
d="M209 422q0 97 -36 176t-114 153h144q62 -57 103.5 -140.5t41.5 -194.5q0 -157 -69.5 -290t-187.5 -221h-161q279 210 279 517z" />
    <glyph glyph-name="parenleft" unicode="(" horiz-adv-x="362" 
d="M70 -57.5q-41 83.5 -41 194.5q0 157 69.5 290t186.5 221h162q-279 -209 -279 -517q0 -97 36 -176t114 -153h-145q-62 57 -103 140.5z" />
    <glyph glyph-name="parenright" unicode=")" horiz-adv-x="362" 
d="M194 319q0 97 -36 176t-114 153h144q62 -57 103.5 -140.5t41.5 -194.5q0 -157 -69.5 -290t-187.5 -221h-161q279 210 279 517z" />
    <glyph glyph-name="emdash.case" horiz-adv-x="799" 
d="M57 383h730l-16 -106h-729z" />
    <glyph glyph-name="endash.case" horiz-adv-x="482" 
d="M57 383h413l-16 -106h-412z" />
    <glyph glyph-name="hyphen.case" horiz-adv-x="280" 
d="M57 382h210l-16 -104h-209z" />
    <glyph glyph-name="uni00AD.case" horiz-adv-x="280" 
d="M57 382h210l-16 -104h-209z" />
    <glyph glyph-name="emdash" unicode="&#x2014;" horiz-adv-x="799" 
d="M45 296h730l-16 -106h-729z" />
    <glyph glyph-name="endash" unicode="&#x2013;" horiz-adv-x="482" 
d="M45 296h413l-16 -106h-412z" />
    <glyph glyph-name="hyphen" unicode="-" horiz-adv-x="279" 
d="M45 295h210l-16 -104h-209z" />
    <glyph glyph-name="uni00AD" unicode="&#xad;" horiz-adv-x="279" 
d="M45 295h210l-16 -104h-209z" />
    <glyph glyph-name="guillemotleft.case" horiz-adv-x="669" 
d="M50 330l161 157h158l-174 -159l120 -155h-146zM323 330l161 157h158l-174 -159l120 -155h-146z" />
    <glyph glyph-name="guillemotright.case" horiz-adv-x="669" 
d="M232 330l-121 157h147l119 -157l-161 -157h-158zM505 330l-121 157h147l119 -157l-161 -157h-158z" />
    <glyph glyph-name="guilsinglleft.case" horiz-adv-x="397" 
d="M50 330l161 157h158l-174 -159l120 -155h-146z" />
    <glyph glyph-name="guilsinglright.case" horiz-adv-x="397" 
d="M202 330l-121 157h147l119 -157l-161 -157h-158z" />
    <glyph glyph-name="guillemotleft" unicode="&#xab;" horiz-adv-x="668" 
d="M36 231l161 157h158l-174 -159l120 -155h-146zM308 231l161 157h158l-174 -159l120 -155h-146z" />
    <glyph glyph-name="guillemotright" unicode="&#xbb;" horiz-adv-x="668" 
d="M218 231l-121 157h147l119 -157l-161 -157h-158zM490 231l-121 157h147l119 -157l-161 -157h-158z" />
    <glyph glyph-name="guilsinglleft" unicode="&#x2039;" horiz-adv-x="397" 
d="M36 231l161 157h158l-174 -159l120 -155h-146z" />
    <glyph glyph-name="guilsinglright" unicode="&#x203a;" horiz-adv-x="397" 
d="M218 231l-121 157h147l119 -157l-161 -157h-158z" />
    <glyph glyph-name="quotedblbase" unicode="&#x201e;" horiz-adv-x="522" 
d="M59.5 -86q26.5 36 38.5 68q-30 3 -46 20t-16 46q0 40 26.5 67t66.5 27q38 0 60.5 -23.5t22.5 -66.5q0 -55 -30.5 -109t-91.5 -96h-95q38 31 64.5 67zM290.5 -86q26.5 36 38.5 68q-30 3 -46 20t-16 46q0 40 26.5 67t66.5 27q38 0 60.5 -23.5t22.5 -66.5q0 -55 -30.5 -109
t-91.5 -96h-95q38 31 64.5 67z" />
    <glyph glyph-name="quotedblleft" unicode="&#x201c;" horiz-adv-x="524" 
d="M235.5 581q-26.5 -36 -38.5 -68q30 -3 46 -20t16 -46q0 -40 -26.5 -67t-66.5 -27q-38 0 -60.5 23.5t-22.5 66.5q0 55 30.5 109t91.5 96h95q-38 -31 -64.5 -67zM467.5 581q-26.5 -36 -38.5 -68q30 -3 46 -20t16 -46q0 -40 -26.5 -67t-66.5 -27q-38 0 -60.5 23.5
t-22.5 66.5q0 55 30.5 109t91.5 96h95q-38 -31 -64.5 -67z" />
    <glyph glyph-name="quotedblright" unicode="&#x201d;" horiz-adv-x="523" 
d="M134.5 426q26.5 36 38.5 68q-30 3 -46 20t-16 46q0 40 26.5 67t66.5 27q38 0 60.5 -23.5t22.5 -66.5q0 -55 -30.5 -109t-91.5 -96h-95q38 31 64.5 67zM366.5 426q26.5 36 38.5 68q-30 3 -46 20t-16 46q0 40 26.5 67t66.5 27q38 0 60.5 -23.5t22.5 -66.5q0 -55 -30.5 -109
t-91.5 -96h-95q38 31 64.5 67z" />
    <glyph glyph-name="quoteleft" unicode="&#x2018;" horiz-adv-x="291" 
d="M234.5 581q-26.5 -36 -38.5 -68q30 -3 46 -20t16 -46q0 -40 -26.5 -67t-66.5 -27q-38 0 -60.5 23.5t-22.5 66.5q0 55 30.5 109t91.5 96h95q-38 -31 -64.5 -67z" />
    <glyph glyph-name="quoteright" unicode="&#x2019;" horiz-adv-x="290" 
d="M133.5 426q26.5 36 38.5 68q-30 3 -46 20t-16 46q0 40 26.5 67t66.5 27q38 0 60.5 -23.5t22.5 -66.5q0 -55 -30.5 -109t-91.5 -96h-95q38 31 64.5 67z" />
    <glyph glyph-name="quotesinglbase" unicode="&#x201a;" horiz-adv-x="290" 
d="M59.5 -86q26.5 36 38.5 68q-30 3 -46 20t-16 46q0 40 26.5 67t66.5 27q38 0 60.5 -23.5t22.5 -66.5q0 -55 -30.5 -109t-91.5 -96h-95q38 31 64.5 67z" />
    <glyph glyph-name="anoteleia" unicode="&#x387;" horiz-adv-x="290" 
d="M105.5 310q-19.5 20 -19.5 54q0 37 25.5 62t59.5 25q33 0 53.5 -20.5t20.5 -53.5q0 -39 -25 -63t-60 -24t-54.5 20z" />
    <glyph glyph-name="uni037E" unicode="&#x37e;" horiz-adv-x="278" 
d="M60.5 -76q26.5 36 38.5 68q-30 3 -46 20t-16 46q0 40 26.5 67t66.5 27q38 0 60.5 -23.5t22.5 -66.5q0 -55 -30.5 -109t-91.5 -96h-95q38 31 64.5 67zM109 326q-20 20 -20 53q0 38 25.5 63t59.5 25q33 0 54 -20.5t21 -54.5q0 -38 -25.5 -62t-60.5 -24q-34 0 -54 20z" />
    <glyph glyph-name="uni2003" unicode="&#x2003;" horiz-adv-x="799" 
 />
    <glyph glyph-name="uni2002" unicode="&#x2002;" horiz-adv-x="482" 
 />
    <glyph glyph-name="uni200A" unicode="&#x200a;" horiz-adv-x="50" 
 />
    <glyph glyph-name="uni00A0" unicode="&#xa0;" horiz-adv-x="210" 
 />
    <glyph glyph-name="uni2009" unicode="&#x2009;" horiz-adv-x="160" 
 />
    <glyph glyph-name="cent" unicode="&#xa2;" horiz-adv-x="479" 
d="M263 91q-89 5 -145 56.5t-56 147.5q0 19 3 41q16 109 86.5 165.5t177.5 59.5l12 87h60l-13 -91q55 -4 97 -25l-16 -108q-18 12 -43.5 22t-50.5 13l-38 -267q32 3 60.5 16.5t47.5 26.5l-17 -121q-36 -18 -105 -23l-13 -91h-60zM315 458q-59 -9 -93 -52.5t-34 -104.5
q0 -43 23 -72t66 -36z" />
    <glyph glyph-name="currency" unicode="&#xa4;" 
d="M65 177l73 72q-15 31 -15 68q0 39 16 70l-74 74l89 86l73 -73q34 16 69 16t69 -16l74 73l88 -86l-74 -74q15 -33 15 -70q0 -34 -14 -68l73 -72l-89 -86l-70 70q-36 -17 -72 -17t-70 16l-72 -69zM354 257.5q23 20.5 23 58.5t-23.5 60t-57.5 22q-35 0 -57.5 -22t-22.5 -60
q0 -37 22.5 -58t57.5 -21t58 20.5z" />
    <glyph glyph-name="dollar" unicode="$" horiz-adv-x="537" 
d="M208 2q-100 6 -168 39l16 117q27 -19 74 -33t94 -17l22 164q-55 18 -91.5 38.5t-57.5 54t-21 83.5q0 95 59 143.5t165 55.5l13 101h60l-13 -102q43 -4 80 -13.5t58 -19.5l-17 -119q-27 18 -63.5 31t-73.5 16l-22 -161q52 -18 88 -38.5t59.5 -55.5t23.5 -89
q0 -93 -59 -141.5t-166 -53.5l-12 -92h-60zM285 541q-36 -5 -55.5 -24.5t-19.5 -51.5q0 -28 14 -43.5t41 -24.5zM339.5 132q19.5 20 19.5 53q0 29 -13.5 44.5t-41.5 25.5l-20 -148q36 5 55.5 25z" />
    <glyph glyph-name="Euro" unicode="&#x20ac;" horiz-adv-x="603" 
d="M179.5 42.5q-76.5 52.5 -86.5 153.5h-89l13 94h76q2 34 9 65h-76l13 94h88q35 99 117.5 154t207.5 55q59 0 106.5 -9t67.5 -21l-17 -119q-25 14 -65.5 24t-82.5 10q-71 0 -119 -25.5t-70 -68.5h188l-13 -94h-208q-6 -24 -10 -65h209l-13 -94h-195q11 -49 57.5 -69
t103.5 -20q51 0 96.5 9.5t75.5 22.5l-17 -123q-21 -9 -68.5 -17.5t-97.5 -8.5q-124 0 -200.5 52.5z" />
    <glyph glyph-name="florin" unicode="&#x192;" horiz-adv-x="467" 
d="M-67 -202.5q-23 4.5 -31 9.5l11 107q19 -8 48 -8q42 0 64.5 22.5t41.5 84.5l79 250h-75l16 111h95l33 103q29 92 79 136.5t139 44.5q29 0 52.5 -4.5t31.5 -8.5l-15 -111q-21 9 -49 9q-42 0 -66.5 -24t-42.5 -79l-21 -66h111l-16 -111h-130l-84 -269q-20 -63 -42.5 -104.5
t-64.5 -69t-111 -27.5q-30 0 -53 4.5z" />
    <glyph glyph-name="uni20B4" unicode="&#x20b4;" horiz-adv-x="524" 
d="M415 359q-23 -19 -53 -37.5t-37 -23.5h181l-13 -89l-283 1q-15 -21 -15 -45q0 -63 92 -63q39 0 84.5 15t80.5 38l-18 -128q-34 -15 -82.5 -26t-102.5 -11q-97 0 -147.5 37t-50.5 108q0 40 16 75h-41l12 88h104q28 22 93 62h-188l12 88h286q11 17 11 37q0 28 -22 44.5
t-65 16.5q-35 0 -75 -12.5t-74 -31.5l17 127q27 11 73 20t101 9q95 0 142 -36.5t47 -101.5q0 -39 -14 -72h41l-13 -89h-99z" />
    <glyph glyph-name="uni20BD" unicode="&#x20bd;" horiz-adv-x="634" 
d="M560.5 607q71.5 -41 71.5 -143q0 -12 -2 -44q-11 -94 -63 -141.5t-116.5 -60.5t-140.5 -13h-52l-7 -49h115l-14 -98h-115l-8 -58h-137l8 58h-83l14 98h83l7 49h-84l15 97h83l49 346h183q122 0 193.5 -41zM492 450q0 54 -36 71t-100 17h-51l-32 -226h49q78 0 118 23.5
t50 91.5q2 14 2 23z" />
    <glyph glyph-name="cent.ss01" horiz-adv-x="479" 
d="M238 93q-79 12 -127.5 62.5t-48.5 139.5q0 19 3 41q15 102 78 158t160 65l13 89h104l-13 -93q43 -7 78 -23l-16 -108q-59 36 -126 36q-70 0 -112.5 -44.5t-42.5 -114.5q0 -50 30 -79.5t90 -29.5q72 0 137 43l-17 -121q-31 -15 -86 -22l-13 -92h-104z" />
    <glyph glyph-name="dollar.ss01" horiz-adv-x="538" 
d="M189 4q-89 7 -148 37l16 118q31 -22 83.5 -37t105.5 -15q112 0 112 82q0 23 -14 38.5t-34.5 24.5t-60.5 23q-54 18 -88.5 35.5t-59 52.5t-24.5 93q0 90 56 136t143 53l14 103h104l-15 -104q83 -10 119 -30l-16 -120q-30 21 -77 35.5t-90 14.5q-49 0 -76 -21.5t-27 -57.5
q0 -34 26.5 -51.5t82.5 -36.5q54 -18 88.5 -36.5t59 -54.5t24.5 -94q0 -166 -200 -189l-13 -93h-104z" />
    <glyph glyph-name="cent.tf.ss01" 
d="M283 93q-79 12 -127.5 62.5t-48.5 139.5q0 19 3 41q15 102 78 158t160 65l13 89h104l-13 -93q43 -7 78 -23l-16 -108q-59 36 -126 36q-70 0 -112.5 -44.5t-42.5 -114.5q0 -50 30 -79.5t90 -29.5q72 0 137 43l-17 -121q-31 -15 -86 -22l-13 -92h-104z" />
    <glyph glyph-name="dollar.tf.ss01" 
d="M230 4q-89 7 -148 37l16 118q31 -22 83.5 -37t105.5 -15q112 0 112 82q0 23 -14 38.5t-34.5 24.5t-60.5 23q-54 18 -88.5 35.5t-59 52.5t-24.5 93q0 90 56 136t143 53l14 103h104l-15 -104q83 -10 119 -30l-16 -120q-30 21 -77 35.5t-90 14.5q-49 0 -76 -21.5t-27 -57.5
q0 -34 26.5 -51.5t82.5 -36.5q54 -18 88.5 -36.5t59 -54.5t24.5 -94q0 -166 -200 -189l-13 -93h-104z" />
    <glyph glyph-name="sterling" unicode="&#xa3;" horiz-adv-x="489" 
d="M10 10q65 59 113.5 126.5t48.5 113.5l-1 12h-116l16 111h63q-18 38 -18 79q0 53 26 100.5t78.5 76.5t128.5 29q52 0 94 -12.5t63 -30.5l-16 -123q-19 19 -51 34.5t-70 15.5q-51 0 -83 -29.5t-32 -76.5q0 -32 14 -63h156l-16 -111h-105q3 -7 3 -21q0 -32 -15 -64.5
t-42 -62.5h204l-16 -114h-429z" />
    <glyph glyph-name="cent.tf" 
d="M312 91q-89 5 -145 56.5t-56 147.5q0 19 3 41q16 109 86.5 165.5t177.5 59.5l12 87h60l-13 -91q55 -4 97 -25l-16 -108q-18 12 -43.5 22t-50.5 13l-38 -267q32 3 60.5 16.5t47.5 26.5l-17 -121q-36 -18 -105 -23l-13 -91h-60zM364 458q-59 -9 -93 -52.5t-34 -104.5
q0 -43 23 -72t66 -36z" />
    <glyph glyph-name="dollar.tf" 
d="M242 2q-100 6 -168 39l16 117q27 -19 74 -33t94 -17l22 164q-55 18 -91.5 38.5t-57.5 54t-21 83.5q0 95 59 143.5t165 55.5l13 101h60l-13 -102q43 -4 80 -13.5t58 -19.5l-17 -119q-27 18 -63.5 31t-73.5 16l-22 -161q52 -18 88 -38.5t59.5 -55.5t23.5 -89
q0 -93 -59 -141.5t-166 -53.5l-12 -92h-60zM319 541q-36 -5 -55.5 -24.5t-19.5 -51.5q0 -28 14 -43.5t41 -24.5zM373.5 132q19.5 20 19.5 53q0 29 -13.5 44.5t-41.5 25.5l-20 -148q36 5 55.5 25z" />
    <glyph glyph-name="Euro.tf" 
d="M178.5 42.5q-76.5 52.5 -86.5 153.5h-89l13 94h76q2 34 9 65h-76l13 94h88q35 99 117.5 154t207.5 55q59 0 106.5 -9t67.5 -21l-17 -119q-25 14 -65.5 24t-82.5 10q-71 0 -119 -25.5t-70 -68.5h188l-13 -94h-208q-6 -24 -10 -65h209l-13 -94h-195q11 -49 57.5 -69
t103.5 -20q51 0 96.5 9.5t75.5 22.5l-17 -123q-21 -9 -68.5 -17.5t-97.5 -8.5q-124 0 -200.5 52.5z" />
    <glyph glyph-name="florin.tf" 
d="M0 -202.5q-23 4.5 -31 9.5l11 107q19 -8 48 -8q42 0 64.5 22.5t41.5 84.5l79 250h-75l16 111h95l33 103q29 92 79 136.5t139 44.5q29 0 52.5 -4.5t31.5 -8.5l-15 -111q-21 9 -49 9q-42 0 -66.5 -24t-42.5 -79l-21 -66h111l-16 -111h-130l-84 -269q-20 -63 -42.5 -104.5
t-64.5 -69t-111 -27.5q-30 0 -53 4.5z" />
    <glyph glyph-name="uni20B4.tf" 
d="M440 359q-23 -19 -53 -37.5t-37 -23.5h181l-13 -89l-283 1q-15 -21 -15 -45q0 -63 92 -63q39 0 84.5 15t80.5 38l-18 -128q-34 -15 -82.5 -26t-102.5 -11q-97 0 -147.5 37t-50.5 108q0 40 16 75h-41l12 88h104q28 22 93 62h-188l12 88h286q11 17 11 37q0 28 -22 44.5
t-65 16.5q-35 0 -75 -12.5t-74 -31.5l17 127q27 11 73 20t101 9q95 0 142 -36.5t47 -101.5q0 -39 -14 -72h41l-13 -89h-99z" />
    <glyph glyph-name="uni20BD.tf" 
d="M530.5 607q71.5 -41 71.5 -143q0 -12 -2 -44q-11 -94 -63 -141.5t-116.5 -60.5t-140.5 -13h-52l-7 -49h115l-14 -98h-115l-8 -58h-137l8 58h-83l14 98h83l7 49h-84l15 97h83l49 346h183q122 0 193.5 -41zM462 450q0 54 -36 71t-100 17h-51l-32 -226h49q78 0 118 23.5
t50 91.5q2 14 2 23z" />
    <glyph glyph-name="sterling.tf" 
d="M59 10q65 59 113.5 126.5t48.5 113.5l-1 12h-116l16 111h63q-18 38 -18 79q0 53 26 100.5t78.5 76.5t128.5 29q52 0 94 -12.5t63 -30.5l-16 -123q-19 19 -51 34.5t-70 15.5q-51 0 -83 -29.5t-32 -76.5q0 -32 14 -63h156l-16 -111h-105q3 -7 3 -21q0 -32 -15 -64.5
t-42 -62.5h204l-16 -114h-429z" />
    <glyph glyph-name="yen.tf" 
d="M217 149h-144l14 100h150l-25 66h-130l15 100h68l-93 233h146l94 -287l175 287h153l-159 -233h65l-15 -100h-125l-44 -66h146l-14 -100h-143l-21 -149h-133z" />
    <glyph glyph-name="yen" unicode="&#xa5;" horiz-adv-x="573" 
d="M206 149h-144l14 100h150l-25 66h-130l15 100h68l-93 233h146l94 -287l175 287h153l-159 -233h65l-15 -100h-125l-44 -66h146l-14 -100h-143l-21 -149h-133z" />
    <glyph glyph-name="dotmath" unicode="&#x22c5;" horiz-adv-x="346" 
d="M114 172q-20 20 -20 53q0 38 25.5 63t59.5 25q33 0 54 -20.5t21 -54.5q0 -38 -25.5 -62t-60.5 -24q-34 0 -54 20z" />
    <glyph glyph-name="plus" unicode="+" 
d="M229 174h-157l14 104h158l23 163h119l-23 -163h158l-15 -104h-158l-22 -163h-120z" />
    <glyph glyph-name="minus" unicode="&#x2212;" 
d="M86 278h435l-15 -104h-434z" />
    <glyph glyph-name="multiply" unicode="&#xd7;" 
d="M44 88l161 141l-119 139l96 85l120 -140l162 143l80 -90l-161 -143l120 -141l-95 -84l-122 140l-163 -140z" />
    <glyph glyph-name="divide" unicode="&#xf7;" 
d="M260.5 350.5q-19.5 19.5 -19.5 50.5q0 34 24 57t56 23q31 0 50 -19.5t19 -50.5q0 -35 -23.5 -57.5t-55.5 -22.5q-31 0 -50.5 19.5zM81 278h435l-15 -104h-434zM209.5 -10q-19.5 19 -19.5 50q0 34 24 57.5t56 23.5q31 0 50 -19.5t19 -50.5q0 -36 -23 -58t-56 -22
q-31 0 -50.5 19z" />
    <glyph glyph-name="equal" unicode="=" 
d="M94 369h435l-15 -104h-434zM68 187h435l-15 -104h-434z" />
    <glyph glyph-name="notequal" unicode="&#x2260;" 
d="M155 84h-96l14 103h143l49 78h-181l15 104h228l54 82h109l-54 -82h97l-14 -104h-145l-49 -78h183l-15 -103h-229l-53 -84h-110z" />
    <glyph glyph-name="greater" unicode="&#x3e;" 
d="M65 125l231 101l-202 103l18 127l402 -225l-2 -10l-465 -225z" />
    <glyph glyph-name="less" unicode="&#x3c;" 
d="M527 327l-231 -101l202 -103l-18 -127l-402 225l2 10l465 225z" />
    <glyph glyph-name="greaterequal" unicode="&#x2265;" 
d="M91 303l231 101l-202 103l18 127l402 -225l-2 -10l-465 -225zM63 104h435l-15 -104h-434z" />
    <glyph glyph-name="lessequal" unicode="&#x2264;" 
d="M552 505l-231 -101l202 -103l-18 -127l-402 225l2 10l465 225zM62 104h435l-15 -104h-434z" />
    <glyph glyph-name="plusminus" unicode="&#xb1;" 
d="M250 311h-157l14 104h158l23 163h119l-23 -163h158l-15 -104h-158l-22 -163h-120zM64 104h435l-15 -104h-434z" />
    <glyph glyph-name="approxequal" unicode="&#x2248;" 
d="M301 62.5q-22 7.5 -53 21.5q-19 10 -31.5 14.5t-23.5 4.5q-36 0 -46 -43h-96q7 67 46 105t103 38q31 0 52 -7.5t46 -20.5q18 -10 31.5 -15t29.5 -5q22 0 33 13.5t14 29.5h97q-7 -68 -47.5 -105.5t-103.5 -37.5q-29 0 -51 7.5zM329 256.5q-22 7.5 -53 21.5
q-19 10 -31.5 14.5t-23.5 4.5q-36 0 -46 -43h-96q7 67 46 105t103 38q31 0 52 -7.5t46 -20.5q18 -10 31.5 -15t29.5 -5q22 0 33 13.5t14 29.5h97q-7 -68 -47.5 -105.5t-103.5 -37.5q-29 0 -51 7.5z" />
    <glyph glyph-name="asciitilde" unicode="~" 
d="M320 159.5q-22 7.5 -53 21.5q-19 10 -31.5 14.5t-23.5 4.5q-36 0 -46 -43h-96q7 67 46 105t103 38q31 0 52 -7.5t46 -20.5q18 -10 31.5 -15t29.5 -5q22 0 33 13.5t14 29.5h97q-7 -68 -47.5 -105.5t-103.5 -37.5q-29 0 -51 7.5z" />
    <glyph glyph-name="logicalnot" unicode="&#xac;" 
d="M399 261h-315l14 104h435l-39 -277h-119z" />
    <glyph glyph-name="infinity" unicode="&#x221e;" horiz-adv-x="683" 
d="M89 205.5q-40 36.5 -40 104.5q0 49 22 87.5t60.5 60t86.5 21.5q96 0 140 -88q69 88 162 88q60 0 101 -35.5t41 -105.5q0 -76 -47.5 -122.5t-120.5 -46.5q-50 0 -86.5 20t-59.5 65q-36 -47 -74.5 -66t-84.5 -19q-60 0 -100 36.5zM256.5 283.5q20.5 14.5 42.5 44.5
q-31 52 -75 52q-29 0 -46 -19.5t-17 -44.5q0 -23 14 -35t37 -12q24 0 44.5 14.5zM533 288.5q17 19.5 17 44.5q0 23 -14 35t-37 12q-25 0 -45 -14.5t-42 -44.5q29 -52 75 -52q29 0 46 19.5z" />
    <glyph glyph-name="integral" unicode="&#x222b;" horiz-adv-x="412" 
d="M2.5 -203q-25.5 4 -41.5 11l14 102q9 -4 26.5 -7t33.5 -3q47 0 67.5 28.5t30.5 95.5l62 439q12 93 60 144t148 51q52 0 87 -13l-15 -106q-9 4 -24 7t-31 3q-46 0 -67 -26.5t-27 -73.5l-60 -421q-11 -78 -29 -127t-61 -78.5t-121 -29.5q-27 0 -52.5 4z" />
    <glyph glyph-name="uni2126" unicode="&#x2126;" horiz-adv-x="766" 
d="M702 230.5q-35 -70.5 -109 -116.5h109l-15 -114h-277l16 116q80 39 124 100t44 144q0 78 -46.5 125.5t-124.5 47.5q-66 0 -116 -28t-77.5 -78t-27.5 -113q0 -68 30 -119t79 -79l-16 -116h-276l15 114h118q-41 37 -65.5 90t-24.5 112q0 83 41.5 161.5t126 129.5t206.5 51
q90 0 158.5 -38t105.5 -103t37 -142q0 -74 -35 -144.5z" />
    <glyph glyph-name="uni2206" unicode="&#x2206;" horiz-adv-x="639" 
d="M591 0h-607l391 658h10zM345 386l-150 -272h224z" />
    <glyph glyph-name="product" unicode="&#x220f;" horiz-adv-x="827" 
d="M204 535h-112l16 113h729l-16 -113h-112l-102 -733h-138l103 733h-231l-102 -733h-138z" />
    <glyph glyph-name="summation" unicode="&#x2211;" horiz-adv-x="567" 
d="M3 10l285 321l-194 307l2 10h481l-16 -113h-239l131 -208l-187 -213h247l-17 -114h-495z" />
    <glyph glyph-name="radical" unicode="&#x221a;" horiz-adv-x="609" 
d="M153 210h-106l14 104h193l38 -150l237 484h142l-329 -648h-132z" />
    <glyph glyph-name="uni00B5" unicode="&#xb5;" horiz-adv-x="548" 
d="M515 451l-64 -451h-121l5 50q-18 -28 -45.5 -43.5t-54.5 -15.5q-45 0 -69 23l-30 -212h-131l92 649h133l-34 -243q-4 -30 -4 -52q0 -56 61 -56q48 0 68.5 34.5t31.5 108.5l29 208h133z" />
    <glyph glyph-name="partialdiff" unicode="&#x2202;" horiz-adv-x="589" 
d="M91.5 48q-57.5 57 -57.5 149q0 21 3 40q10 65 43.5 115.5t86.5 79.5t120 29q50 0 88 -18t59 -50v28q0 78 -34 112.5t-108 34.5q-34 0 -66.5 -6t-51.5 -14l16 115q43 15 116 15q124 0 194 -66t70 -231q0 -46 -7 -95q-22 -145 -102 -220t-197 -75q-115 0 -172.5 57z
M357 134.5q38 32.5 47 92.5q2 12 2 23q0 47 -25.5 73.5t-71.5 26.5q-50 0 -84.5 -30.5t-47.5 -78.5q-6 -18 -6 -42q0 -44 26.5 -70.5t71.5 -26.5q50 0 88 32.5z" />
    <glyph glyph-name="percent" unicode="%" horiz-adv-x="952" 
d="M122.5 372q-42.5 38 -42.5 102q0 54 25.5 96t69 65.5t96.5 23.5q68 0 111 -38.5t43 -102.5q0 -57 -26 -98.5t-70 -63.5t-95 -22q-69 0 -111.5 38zM646 648h137l-451 -648h-137zM303 446q25 25 25 63q0 30 -18 46.5t-48 16.5q-37 0 -61 -26t-24 -63q0 -28 16.5 -45
t46.5 -17q38 0 63 25zM597.5 28q-42.5 38 -42.5 102q0 54 25.5 96t69 65.5t96.5 23.5q68 0 111 -38.5t43 -102.5q0 -56 -26 -98t-70 -64t-95 -22q-69 0 -111.5 38zM778 102q25 25 25 63q0 30 -18 46.5t-48 16.5q-37 0 -61.5 -26t-24.5 -63q0 -28 17 -45t47 -17q38 0 63 25z
" />
    <glyph glyph-name="perthousand" unicode="&#x2030;" horiz-adv-x="1367" 
d="M122.5 372q-42.5 38 -42.5 102q0 54 25.5 96t69 65.5t96.5 23.5q68 0 111 -38.5t43 -102.5q0 -57 -26 -98.5t-70 -63.5t-95 -22q-69 0 -111.5 38zM646 648h137l-451 -648h-137zM303 446q25 25 25 63q0 30 -18 46.5t-48 16.5q-37 0 -61 -26t-24 -63q0 -28 16.5 -45
t46.5 -17q38 0 63 25zM597.5 28q-42.5 38 -42.5 102q0 54 25.5 96t69 65.5t96.5 23.5q68 0 111 -38.5t43 -102.5q0 -56 -26 -98t-70 -64t-95 -22q-69 0 -111.5 38zM1012.5 28q-42.5 38 -42.5 102q0 54 25.5 96t69 65.5t96.5 23.5q68 0 111 -38.5t43 -102.5q0 -56 -26 -98
t-70 -64t-95 -22q-69 0 -111.5 38zM778 102q25 25 25 63q0 30 -18 46.5t-48 16.5q-37 0 -61.5 -26t-24.5 -63q0 -28 17 -45t47 -17q38 0 63 25zM1193 102q25 25 25 63q0 30 -18 46.5t-48 16.5q-37 0 -61.5 -26t-24.5 -63q0 -28 17 -45t47 -17q38 0 63 25z" />
    <glyph glyph-name="arrowup" unicode="&#x2191;" horiz-adv-x="665" 
d="M279 443l-185 -187v148l253 254l254 -254v-148l-185 187v-443h-137v443z" />
    <glyph glyph-name="arrowright" unicode="&#x2192;" horiz-adv-x="867" 
d="M577 268h-484v125h484l-231 232h170l297 -295l-297 -295h-170z" />
    <glyph glyph-name="arrowdown" unicode="&#x2193;" horiz-adv-x="665" 
d="M92 244v148l185 -187v443h137v-443l185 187v-148l-253 -254z" />
    <glyph glyph-name="arrowleft" unicode="&#x2190;" horiz-adv-x="867" 
d="M84 330l297 295h170l-232 -232h485v-125h-485l232 -233h-170z" />
    <glyph glyph-name="lozenge" unicode="&#x25ca;" horiz-adv-x="555" 
d="M38 318l294 340h10l201 -340l-293 -328h-10zM407 323l-93 157l-139 -162l92 -150z" />
    <glyph glyph-name="uniF8FF" unicode="&#xf8ff;" horiz-adv-x="602" 
d="M147.5 598q-8.5 9 -8.5 22q0 12 8.5 21t21.5 9q12 0 21.5 -9t9.5 -21q0 -13 -9.5 -22t-21.5 -9q-13 0 -21.5 9zM214 598q-9 9 -9 22q0 12 9 21t21 9q13 0 21.5 -9t8.5 -21q0 -13 -8.5 -22t-21.5 -9q-12 0 -21 9zM278.5 598q-9.5 9 -9.5 22q0 12 9.5 21t21.5 9
q13 0 21.5 -9t8.5 -21q0 -13 -8.5 -22t-21.5 -9q-12 0 -21.5 9zM344.5 598q-8.5 9 -8.5 22q0 12 8.5 21t21.5 9q12 0 21.5 -9t9.5 -21q0 -13 -9.5 -22t-21.5 -9q-13 0 -21.5 9zM410 598q-9 9 -9 22q0 12 9 21t22 9q11 0 20.5 -9t9.5 -21q0 -13 -9 -22t-21 -9q-13 0 -22 9z
M475.5 598q-9.5 9 -9.5 22q0 12 9.5 21t21.5 9q13 0 21.5 -9t8.5 -21q0 -13 -8.5 -22t-21.5 -9q-12 0 -21.5 9zM147.5 532.5q-8.5 8.5 -8.5 21.5q0 12 8.5 21t21.5 9q12 0 21.5 -9t9.5 -21t-9.5 -21t-21.5 -9q-13 0 -21.5 8.5zM147.5 467q-8.5 9 -8.5 22q0 12 8.5 20.5
t21.5 8.5q12 0 21.5 -8.5t9.5 -20.5q0 -13 -9.5 -22t-21.5 -9q-13 0 -21.5 9zM278.5 467q-9.5 9 -9.5 22q0 12 9.5 20.5t21.5 8.5q13 0 21.5 -8.5t8.5 -20.5q0 -13 -8.5 -22t-21.5 -9q-12 0 -21.5 9zM344.5 467q-8.5 9 -8.5 22q0 12 8.5 20.5t21.5 8.5q12 0 21.5 -8.5
t9.5 -20.5q0 -13 -9.5 -22t-21.5 -9q-13 0 -21.5 9zM410 467q-9 9 -9 22q0 12 9 20.5t22 8.5q12 0 21 -8.5t9 -20.5t-9 -21.5t-21 -9.5q-13 0 -22 9zM475.5 467q-9.5 9 -9.5 22q0 12 9.5 20.5t21.5 8.5q13 0 21.5 -8.5t8.5 -20.5q0 -13 -8.5 -22t-21.5 -9q-12 0 -21.5 9z
M147.5 402q-8.5 8 -8.5 21t8.5 21.5t21.5 8.5q12 0 21.5 -9t9.5 -21t-9.5 -20.5t-21.5 -8.5q-13 0 -21.5 8zM278.5 402.5q-9.5 8.5 -9.5 20.5t9.5 21t21.5 9q13 0 21.5 -8.5t8.5 -21.5t-8.5 -21t-21.5 -8q-12 0 -21.5 8.5zM147.5 335.5q-8.5 8.5 -8.5 21.5t8.5 22t21.5 9
q12 0 21.5 -9t9.5 -22q0 -12 -9.5 -21t-21.5 -9q-13 0 -21.5 8.5zM278.5 336q-9.5 9 -9.5 21q0 13 9.5 22t21.5 9q13 0 21.5 -9t8.5 -22t-8.5 -21.5t-21.5 -8.5q-12 0 -21.5 9zM344.5 335.5q-8.5 8.5 -8.5 21.5t8.5 22t21.5 9q12 0 21.5 -9t9.5 -22q0 -12 -9.5 -21t-21.5 -9
q-13 0 -21.5 8.5zM410 335.5q-9 8.5 -9 21.5t9 22t22 9q12 0 21 -9t9 -22q0 -12 -9 -21t-21 -9q-13 0 -22 8.5zM475.5 336q-9.5 9 -9.5 21q0 13 9.5 22t21.5 9q13 0 21.5 -9t8.5 -22t-8.5 -21.5t-21.5 -8.5q-12 0 -21.5 9zM147.5 270.5q-8.5 8.5 -8.5 21.5q0 12 8.5 21
t21.5 9q12 0 21.5 -9t9.5 -21t-9.5 -21t-21.5 -9q-13 0 -21.5 8.5zM475.5 271q-9.5 9 -9.5 21t9.5 21t21.5 9q13 0 21.5 -9t8.5 -21q0 -13 -8.5 -21.5t-21.5 -8.5q-12 0 -21.5 9zM147.5 205.5q-8.5 8.5 -8.5 21.5q0 12 8.5 20.5t21.5 8.5q12 0 21.5 -8.5t9.5 -20.5t-9.5 -21
t-21.5 -9q-13 0 -21.5 8.5zM278.5 206q-9.5 9 -9.5 21t9.5 20.5t21.5 8.5q13 0 21.5 -8.5t8.5 -20.5q0 -13 -8.5 -21.5t-21.5 -8.5q-12 0 -21.5 9zM344.5 205.5q-8.5 8.5 -8.5 21.5q0 12 8.5 20.5t21.5 8.5q12 0 21.5 -8.5t9.5 -20.5t-9.5 -21t-21.5 -9q-13 0 -21.5 8.5z
M410 205.5q-9 8.5 -9 21.5q0 12 9 20.5t22 8.5q12 0 21 -8.5t9 -20.5t-9 -21t-21 -9q-13 0 -22 8.5zM475.5 206q-9.5 9 -9.5 21t9.5 20.5t21.5 8.5q13 0 21.5 -8.5t8.5 -20.5q0 -13 -8.5 -21.5t-21.5 -8.5q-12 0 -21.5 9zM147.5 139q-8.5 9 -8.5 22t8.5 21.5t21.5 8.5
q12 0 21.5 -9t9.5 -21q0 -13 -9.5 -22t-21.5 -9q-13 0 -21.5 9zM147.5 73.5q-8.5 8.5 -8.5 21.5t8.5 21.5t21.5 8.5q12 0 21.5 -8.5t9.5 -21.5q0 -12 -9.5 -21t-21.5 -9q-13 0 -21.5 8.5zM278.5 74q-9.5 9 -9.5 21q0 13 9.5 21.5t21.5 8.5q13 0 21.5 -8.5t8.5 -21.5
t-8.5 -21.5t-21.5 -8.5q-12 0 -21.5 9zM147.5 8.5q-8.5 8.5 -8.5 21.5q0 12 9 21.5t21 9.5t21.5 -9.5t9.5 -21.5t-9.5 -21t-21.5 -9q-13 0 -21.5 8.5zM214 8.5q-9 8.5 -9 21.5q0 12 9 21.5t21 9.5t21 -9.5t9 -21.5q0 -13 -8.5 -21.5t-21.5 -8.5q-12 0 -21 8.5zM278.5 9
q-9.5 9 -9.5 21t9.5 21.5t21.5 9.5t21 -9.5t9 -21.5q0 -13 -8.5 -21.5t-21.5 -8.5q-12 0 -21.5 9z" />
    <glyph glyph-name="at" unicode="@" horiz-adv-x="1013" 
d="M699 273l-6 -24q-1 -6 -8.5 -35.5t-7.5 -48.5q0 -44 52 -44q58 0 90.5 62.5t32.5 145.5q0 84 -40.5 139t-107 81t-147.5 26q-115 0 -203.5 -55.5t-137 -150t-48.5 -208.5q0 -124 79 -193t218 -69q91 0 183 27t159 65l-17 -123q-21 -12 -71 -29.5t-118 -31.5t-139 -14
q-126 0 -220.5 42.5t-146 125.5t-51.5 200q0 156 65 273t181.5 180.5t268.5 63.5q116 0 210.5 -36.5t151.5 -114.5t57 -195q0 -87 -31 -157.5t-90 -111t-141 -40.5q-49 0 -84 18.5t-43 53.5q-23 -33 -58.5 -52.5t-76.5 -19.5q-80 0 -123.5 42t-43.5 118q0 67 28.5 123.5
t79 90t112.5 33.5q83 0 109 -60l16 48h103zM575 264q0 31 -14.5 47.5t-42.5 16.5q-33 0 -58 -20t-39 -52t-14 -66q0 -31 15.5 -47.5t43.5 -16.5q36 0 62 23t39 64q8 26 8 51z" />
    <glyph glyph-name="ampersand" unicode="&#x26;" horiz-adv-x="705" 
d="M606 120l58 -56l-81 -81l-64 64q-44 -27 -99 -41.5t-116 -14.5q-83 0 -143.5 27.5t-92.5 75.5t-32 109q0 68 39 115t101 70q-18 24 -26 47t-8 51q0 49 25 88t71.5 61.5t109.5 22.5q74 0 120 -28l-16 -110q-14 13 -37.5 21.5t-51.5 8.5q-42 0 -64 -20.5t-22 -51.5
q0 -24 16.5 -46t54.5 -59l178 -174q20 34 20 82q0 41 -21 68t-72 41l78 71q59 -14 97 -59t38 -116q0 -91 -60 -166zM213.5 127q40.5 -32 110.5 -32q66 0 116 25l-202 200q-65 -34 -65 -105q0 -56 40.5 -88z" />
    <glyph glyph-name="paragraph" unicode="&#xb6;" horiz-adv-x="795" 
d="M204.5 -202q-23.5 5 -37.5 12l13 95q16 -7 40 -7q26 0 36.5 14.5t17.5 50.5l35 247h-8q-107 0 -175.5 35.5t-68.5 140.5q0 15 4 47q13 94 63 141.5t110.5 60.5t134.5 13h466l-15 -113h-112l-103 -733h-138l104 733h-79l-86 -608q-9 -65 -42 -99.5t-108 -34.5
q-28 0 -51.5 5z" />
    <glyph glyph-name="section" unicode="&#xa7;" horiz-adv-x="436" 
d="M61 -199.5q-40 8.5 -66 21.5l15 102q66 -33 132 -33q43 0 71 18t28 54q0 29 -21 46.5t-66 40.5q-40 20 -64.5 36.5t-42 45t-17.5 70.5q0 59 34.5 99.5t86.5 56.5q-65 42 -65 121q0 84 59 131.5t154 47.5q35 0 68.5 -7.5t53.5 -16.5l-15 -101q-21 11 -49.5 18.5t-54.5 7.5
q-44 0 -69.5 -20t-25.5 -53q0 -30 21.5 -48t65.5 -40q40 -20 65 -37.5t43 -46.5t18 -71q0 -64 -37.5 -103t-89.5 -52q71 -42 71 -122q0 -85 -56 -129.5t-158 -44.5q-49 0 -89 8.5zM279 166.5q24 22.5 24 60.5q0 29 -19 49t-58 38q-34 -11 -57 -35t-23 -59q0 -30 18.5 -48.5
t55.5 -37.5q35 10 59 32.5z" />
    <glyph glyph-name="copyright" unicode="&#xa9;" horiz-adv-x="769" 
d="M229.5 33.5q-76.5 43.5 -121.5 120t-45 170.5t45 170.5t121.5 120t167.5 43.5t168 -43.5t122.5 -120t45.5 -170.5t-45.5 -170.5t-122.5 -120t-168 -43.5t-167.5 43.5zM522 108q54 32 83.5 88.5t29.5 128.5q0 71 -29.5 127.5t-83.5 88t-124 31.5q-69 0 -123 -31.5t-84 -88
t-30 -127.5q0 -72 30 -128.5t84 -88.5t123 -32q70 0 124 32zM290.5 200.5q-48.5 41.5 -48.5 120.5q0 77 46.5 123.5t125.5 46.5q48 0 84 -17v-82q-12 9 -32 16t-41 7q-38 0 -63 -24t-25 -68q0 -39 21 -63t66 -24q43 0 77 25v-82q-14 -8 -38.5 -14t-51.5 -6
q-72 0 -120.5 41.5z" />
    <glyph glyph-name="registered" unicode="&#xae;" horiz-adv-x="769" 
d="M229.5 33.5q-76.5 43.5 -121.5 120t-45 170.5t45 170.5t121.5 120t167.5 43.5t168 -43.5t122.5 -120t45.5 -170.5t-45.5 -170.5t-122.5 -120t-168 -43.5t-167.5 43.5zM522 108q54 32 83.5 88.5t29.5 128.5q0 71 -29.5 127.5t-83.5 88t-124 31.5q-69 0 -123 -31.5t-84 -88
t-30 -127.5q0 -72 30 -128.5t84 -88.5t123 -32q70 0 124 32zM283 487h125q56 0 90.5 -22t34.5 -83q0 -75 -56 -97l69 -122h-94l-59 112h-26v-112h-84v324zM386 335q34 0 48 9t14 38q0 26 -14.5 34t-44.5 8h-22v-89h19z" />
    <glyph glyph-name="trademark" unicode="&#x2122;" horiz-adv-x="955" 
d="M555 428l-31 -171h-99l85 401h10l145 -244l145 244h10l84 -401h-99l-30 172l-106 -178h-10zM184 564h-104v84h307v-84h-102v-307h-101v307z" />
    <glyph glyph-name="degree" unicode="&#xb0;" horiz-adv-x="531" 
d="M218 443q-37 35 -37 90q0 54 37 89.5t91 35.5t91 -35.5t37 -89.5q0 -55 -37 -90t-91 -35t-91 35zM348.5 491.5q15.5 15.5 15.5 41.5t-15.5 41.5t-39.5 15.5q-23 0 -39 -15.5t-16 -41.5t16 -41.5t39 -15.5q24 0 39.5 15.5z" />
    <glyph glyph-name="bar" unicode="|" horiz-adv-x="278" 
d="M130 648h136l-119 -846h-135z" />
    <glyph glyph-name="brokenbar" unicode="&#xa6;" horiz-adv-x="278" 
d="M130 648h136l-46 -331h-136zM58 133h136l-47 -331h-135z" />
    <glyph glyph-name="uni2113" unicode="&#x2113;" horiz-adv-x="263" 
d="M126 663h133l-93 -663h-133z" />
    <glyph glyph-name="dagger" unicode="&#x2020;" horiz-adv-x="585" 
d="M245 347h-154l16 104h151l23 197h141l-32 -197h153l-15 -104h-155l-88 -545h-104z" />
    <glyph glyph-name="daggerdbl" unicode="&#x2021;" horiz-adv-x="585" 
d="M373 347l-24 -151h140l-15 -104h-142l-47 -290h-104l34 290h-157l15 104h154l18 151h-154l16 104h151l23 197h141l-32 -197h153l-15 -104h-155z" />
    <glyph glyph-name="estimated" unicode="&#x212e;" horiz-adv-x="889" 
d="M270 35.5q-88 45.5 -139.5 124t-51.5 171.5t51.5 171.5t139.5 124.5t192 46q102 0 189.5 -46t139 -124.5t51.5 -171.5v-8h-617q-5 0 -6.5 -1t-1.5 -5v-187q0 -6 3 -11t9 -10q44 -46 105 -72t129 -26q72 0 135 29.5t109 80.5h56q-55 -61 -133.5 -96t-167.5 -35
q-104 0 -192 45.5zM695 342q8 0 8 5v190q0 9 -13 22q-42 44 -102 69t-125 25q-68 0 -128 -25.5t-106 -71.5q-12 -12 -12 -24v-185q0 -5 8 -5h470z" />
    <glyph glyph-name="uni2116" unicode="&#x2116;" horiz-adv-x="1119" 
d="M230 377l-53 -377h-134l93 658h10l358 -386l53 376h134l-92 -658h-10zM816.5 354q-40.5 37 -40.5 105q0 29 6 54q16 67 65.5 105.5t123.5 38.5q71 0 111 -37t40 -105q0 -29 -6 -54q-16 -67 -65 -105.5t-123 -38.5q-71 0 -111.5 37zM989 419.5q22 21.5 31 61.5q3 17 3 29
q0 34 -15.5 50.5t-42.5 16.5q-34 0 -56 -22t-30 -62q-4 -15 -4 -29q0 -33 15.5 -49.5t42.5 -16.5q34 0 56 21.5zM770 277h299l-12 -81h-299z" />
    <glyph glyph-name="asciicircum" unicode="^" 
d="M351 658h10l169 -336h-137l-61 134l-100 -134h-146z" />
    <glyph glyph-name="at.case" horiz-adv-x="1013" 
d="M713 375l-6 -24q-1 -6 -8.5 -35.5t-7.5 -48.5q0 -44 52 -44q58 0 90.5 62.5t32.5 145.5q0 84 -40.5 139t-107 81t-147.5 26q-115 0 -203.5 -55.5t-137 -150t-48.5 -208.5q0 -124 79 -193t218 -69q91 0 183 27t159 65l-17 -123q-21 -12 -71 -29.5t-118 -31.5t-139 -14
q-126 0 -220.5 42.5t-146 125.5t-51.5 200q0 156 65 273t181.5 180.5t268.5 63.5q116 0 210.5 -36.5t151.5 -114.5t57 -195q0 -87 -31 -157.5t-90 -111t-141 -40.5q-49 0 -84 18.5t-43 53.5q-23 -33 -58.5 -52.5t-76.5 -19.5q-80 0 -123.5 42t-43.5 118q0 67 28.5 123.5
t79 90t112.5 33.5q83 0 109 -60l16 48h103zM589 366q0 31 -14.5 47.5t-42.5 16.5q-33 0 -58 -20t-39 -52t-14 -66q0 -31 15.5 -47.5t43.5 -16.5q36 0 62 23t39 64q8 26 8 51z" />
    <glyph glyph-name="uni0374" unicode="&#x374;" horiz-adv-x="244" 
d="M88 648h141l-108 -236h-101z" />
    <glyph glyph-name="uni0375" unicode="&#x375;" horiz-adv-x="244" 
d="M78 98h141l-108 -236h-101z" />
    <glyph glyph-name="uni0308" unicode="&#x308;" horiz-adv-x="0" 
d="M-365 553q-18 18 -18 46q0 35 24 58.5t58 23.5q29 0 47 -18.5t18 -45.5q0 -37 -23 -59.5t-58 -22.5q-30 0 -48 18zM-148.5 553q-17.5 18 -17.5 46q0 35 24 58.5t58 23.5q29 0 46.5 -18t17.5 -46q0 -37 -22.5 -59.5t-57.5 -22.5q-31 0 -48.5 18z" />
    <glyph glyph-name="uni0307" unicode="&#x307;" horiz-adv-x="0" 
d="M-262 553q-18 18 -18 46q0 35 24 58.5t58 23.5q29 0 47 -18.5t18 -45.5q0 -37 -23 -59.5t-58 -22.5q-30 0 -48 18z" />
    <glyph glyph-name="gravecomb" unicode="&#x300;" horiz-adv-x="0" 
d="M-338 689h172l98 -169h-128z" />
    <glyph glyph-name="acutecomb" unicode="&#x301;" horiz-adv-x="0" 
d="M-222 689h178l-188 -169h-135z" />
    <glyph glyph-name="uni030B" unicode="&#x30b;" horiz-adv-x="0" 
d="M-320 689h156l-149 -169h-126zM-104 689h156l-150 -169h-125z" />
    <glyph glyph-name="uni0302" unicode="&#x302;" horiz-adv-x="0" 
d="M-186 698l155 -178h-127l-43 54l-57 -54h-137z" />
    <glyph glyph-name="uni030C" unicode="&#x30c;" horiz-adv-x="0" 
d="M-371 689h127l43 -54l57 54h137l-209 -178z" />
    <glyph glyph-name="uni0306" unicode="&#x306;" horiz-adv-x="0" 
d="M-331.5 547.5q-37.5 36.5 -37.5 98.5q0 24 4 43h99q-2 -18 -2 -23q0 -52 63 -52q43 0 62.5 18.5t24.5 56.5h100q-9 -178 -192 -178q-84 0 -121.5 36.5z" />
    <glyph glyph-name="uni030A" unicode="&#x30a;" horiz-adv-x="0" 
d="M-286 536q-27 26 -27 69q0 50 34 80.5t84 30.5q44 0 72 -25t28 -68q0 -54 -34.5 -83.5t-84.5 -29.5q-45 0 -72 26zM-177 585.5q12 11.5 12 30.5q0 17 -10.5 27t-26.5 10q-17 0 -29.5 -12.5t-12.5 -30.5q0 -16 10 -26t27 -10q18 0 30 11.5z" />
    <glyph glyph-name="tildecomb" unicode="&#x303;" horiz-adv-x="0" 
d="M-176.5 540q-17.5 6 -41.5 18q-17 9 -27 13t-21 4q-19 0 -28.5 -11t-11.5 -25h-81q7 62 38.5 95t83.5 33q24 0 42 -6.5t43 -18.5q16 -8 26 -12t20 -4q18 0 27.5 11t11.5 25h81q-5 -59 -37 -93.5t-85 -34.5q-23 0 -40.5 6z" />
    <glyph glyph-name="uni0304" unicode="&#x304;" horiz-adv-x="0" 
d="M-351 656h309l-14 -104h-309z" />
    <glyph glyph-name="uni0315" unicode="&#x315;" horiz-adv-x="0" 
d="M-216 540q-23 3 -35.5 16.5t-12.5 35.5q0 30 20 48t49 18t47 -17.5t18 -48.5q0 -36 -24 -69t-62 -54h-72q50 38 72 71z" />
    <glyph glyph-name="uni0326" unicode="&#x326;" horiz-adv-x="0" 
d="M-317 -162q-22 2 -34.5 16t-12.5 36q0 30 19.5 48t48.5 18t47 -17.5t18 -48.5q0 -35 -19.5 -62.5t-48.5 -45.5h-72q34 28 54 56z" />
    <glyph glyph-name="uni0327" unicode="&#x327;" horiz-adv-x="0" 
d="M-245.5 -58q19.5 -17 19.5 -50q0 -99 -125 -99q-44 0 -70 12l9 63q20 -12 50 -12q20 0 32 8t12 25q0 12 -7.5 19.5t-21.5 7.5q-22 0 -36 -16l-11 7l49 116h78l-30 -63q32 -1 51.5 -18z" />
    <glyph glyph-name="uni0328" unicode="&#x328;" horiz-adv-x="0" 
d="M-340.5 -185q-32.5 22 -32.5 67q0 57 39.5 94t105.5 50l62 -24q-49 -15 -80.5 -42.5t-31.5 -60.5q0 -15 9.5 -23t27.5 -8q16 0 32 5t22 9l-11 -80q-25 -9 -60 -9q-50 0 -82.5 22z" />
    <glyph glyph-name="uni0308.case" horiz-adv-x="0" 
d="M-342 735q-20 20 -20 52q0 36 24.5 60t59.5 24q33 0 53 -20.5t20 -52.5q0 -36 -23.5 -59.5t-59.5 -23.5q-34 0 -54 20zM-123.5 735q-20.5 20 -20.5 52q0 36 24.5 60t59.5 24q33 0 53 -20.5t20 -52.5q0 -36 -23.5 -59.5t-59.5 -23.5q-33 0 -53.5 20z" />
    <glyph glyph-name="uni0307.case" horiz-adv-x="0" 
d="M-239.5 735q-20.5 20 -20.5 53q0 36 24.5 60t60.5 24q33 0 53.5 -20.5t20.5 -52.5q0 -37 -24 -60.5t-60 -23.5q-34 0 -54.5 20z" />
    <glyph glyph-name="gravecomb.case" horiz-adv-x="0" 
d="M-309 876h172l98 -169h-128z" />
    <glyph glyph-name="acutecomb.case" horiz-adv-x="0" 
d="M-188 876h178l-188 -169h-135z" />
    <glyph glyph-name="uni030B.case" horiz-adv-x="0" 
d="M-296 876h162l-166 -169h-126zM-67 876h163l-167 -169h-125z" />
    <glyph glyph-name="uni0302.case" horiz-adv-x="0" 
d="M-160 885l155 -178h-127l-43 54l-57 -54h-137z" />
    <glyph glyph-name="uni030C.case" horiz-adv-x="0" 
d="M-345 876h127l43 -54l57 54h137l-209 -178z" />
    <glyph glyph-name="uni0306.case" horiz-adv-x="0" 
d="M-304.5 734.5q-37.5 36.5 -37.5 98.5q0 24 4 43h99q-2 -18 -2 -23q0 -52 63 -52q43 0 62.5 18.5t24.5 56.5h100q-9 -178 -192 -178q-84 0 -121.5 36.5z" />
    <glyph glyph-name="uni030A.case" horiz-adv-x="0" 
d="M-260.5 716q-27.5 26 -27.5 69q0 50 34.5 80.5t83.5 30.5q45 0 72.5 -25t27.5 -68q0 -54 -34.5 -83.5t-84.5 -29.5q-44 0 -71.5 26zM-151 765.5q12 11.5 12 30.5q0 17 -10.5 27t-26.5 10q-18 0 -30 -12t-12 -31q0 -16 9.5 -26t27.5 -10t30 11.5z" />
    <glyph glyph-name="tildecomb.case" horiz-adv-x="0" 
d="M-150.5 727q-17.5 6 -41.5 18q-17 9 -27 13t-21 4q-19 0 -28.5 -11t-11.5 -25h-81q7 62 38.5 95t83.5 33q24 0 42 -6.5t43 -18.5q16 -8 26 -12t20 -4q18 0 27.5 11t11.5 25h81q-5 -59 -37 -93.5t-85 -34.5q-23 0 -40.5 6z" />
    <glyph glyph-name="uni0304.case" horiz-adv-x="0" 
d="M-324 846h309l-14 -104h-309z" />
    <glyph glyph-name="acutecomb.loclPLK" horiz-adv-x="0" 
d="M-231 689h157l-134 -169h-128z" />
    <glyph glyph-name="acutecomb.case.loclPLK" horiz-adv-x="0" 
d="M-173 876h156l-134 -169h-127z" />
    <glyph glyph-name="acute" unicode="&#xb4;" horiz-adv-x="514" 
d="M299 689h178l-188 -169h-135z" />
    <glyph glyph-name="breve" unicode="&#x2d8;" horiz-adv-x="511" 
d="M184.5 547.5q-37.5 36.5 -37.5 98.5q0 24 4 43h99q-2 -18 -2 -23q0 -52 63 -52q43 0 62.5 18.5t24.5 56.5h100q-9 -178 -192 -178q-84 0 -121.5 36.5z" />
    </font>
</defs>
</svg>
