<?xml version="1.0" encoding="utf-8"?>
<!-- Generator: Adobe Illustrator 25.0.0, SVG Export Plug-In . SVG Version: 6.00 Build 0)  -->
<svg version="1.1" id="Layer_1" xmlns="http://www.w3.org/2000/svg" xmlns:xlink="http://www.w3.org/1999/xlink" x="0px" y="0px"
	 viewBox="0 0 64 64.7" style="enable-background:new 0 0 64 64.7;" xml:space="preserve">
<style type="text/css">
	.st0{fill:#FFFFFF;}
</style>
<circle cx="32" cy="32" r="31"/>
<g>
	<path class="st0" d="M32,14c-3.9,0-7.2,3.2-7.2,7.2v1.2h-1c-2.1,0-3.8,1.6-3.9,3.7l-1,19.6c-0.1,2.2,1.6,4,3.7,4.1
		c0.1,0,0.1,0,0.2,0h18.3c2.2,0,3.9-1.8,3.9-3.9c0-0.1,0-0.1,0-0.2l-1-19.6c-0.1-2.1-1.9-3.7-3.9-3.7h-1v-1.2
		C39.2,17.3,35.9,14,32,14z M27.3,21.2c0-2.7,2.2-4.7,4.7-4.7s4.7,2.2,4.7,4.7v1.2h-9.5V21.2z M25.2,27.4c0-0.6,0.6-1.2,1.2-1.2
		c0.6,0,1.2,0.6,1.2,1.2c0,0.6-0.6,1.2-1.2,1.2C25.8,28.6,25.2,28.1,25.2,27.4L25.2,27.4z M36.3,27.4c0-0.6,0.6-1.2,1.2-1.2
		s1.2,0.6,1.2,1.2c0,0.6-0.6,1.2-1.2,1.2S36.3,28.1,36.3,27.4L36.3,27.4z"/>
</g>
</svg>
