<?xml version="1.0" encoding="utf-8"?>
<!-- Generator: Adobe Illustrator 25.2.1, SVG Export Plug-In . SVG Version: 6.00 Build 0)  -->
<svg version="1.1" id="Layer_1" xmlns:sketch="http://www.bohemiancoding.com/sketch/ns"
	 xmlns="http://www.w3.org/2000/svg" xmlns:xlink="http://www.w3.org/1999/xlink" x="0px" y="0px" viewBox="0 0 100 100"
	 style="enable-background:new 0 0 100 100;" xml:space="preserve">
<style type="text/css">
	.st0{fill-rule:evenodd;clip-rule:evenodd;}
	.st1{fill-rule:evenodd;clip-rule:evenodd;fill:#FFFFFF;}
</style>
<path sketch:type="MSShapeGroup" class="st0" d="M49.7,85.9c-19.3,0-35-15.9-35-35.6s15.7-35.6,35-35.6s35,15.9,35,35.6
	S69,85.9,49.7,85.9L49.7,85.9z M49.7,89.7c21.4,0,38.8-17.6,38.8-39.4S71.1,10.9,49.7,10.9S10.9,28.6,10.9,50.3S28.3,89.7,49.7,89.7
	L49.7,89.7z"/>
<path sketch:type="MSShapeGroup" class="st1" d="M49.7,85.9c-19.3,0-35-15.9-35-35.6s15.7-35.6,35-35.6s35,15.9,35,35.6
	S69,85.9,49.7,85.9L49.7,85.9z"/>
<path sketch:type="MSShapeGroup" class="st0" d="M33.4,36.6l30,30L66,64L36,34L33.4,36.6L33.4,36.6z"/>
<path sketch:type="MSShapeGroup" class="st0" d="M36,66.6l30-30L63.4,34l-30,30L36,66.6L36,66.6z"/>
</svg>
