<?xml version="1.0" encoding="utf-8"?>
<!-- Generator: Adobe Illustrator 25.2.3, SVG Export Plug-In . SVG Version: 6.00 Build 0)  -->
<svg version="1.1" id="Layer_1" xmlns:serif="http://www.serif.com/"
	 xmlns="http://www.w3.org/2000/svg" xmlns:xlink="http://www.w3.org/1999/xlink" x="0px" y="0px" viewBox="0 0 32 32"
	 style="enable-background:new 0 0 32 32;" xml:space="preserve">
<path d="M27.3,27.3h-4.7v-7.4c0-1.8,0-4.1-2.5-4.1c-2.5,0-2.8,1.9-2.8,3.9v7.6h-4.7V12H17v2.1h0.1c0.9-1.6,2.7-2.5,4.5-2.5
	c4.8,0,5.7,3.2,5.7,7.3L27.3,27.3z M7.1,9.9C7.1,9.9,7.1,9.9,7.1,9.9c-1.5,0-2.8-1.2-2.8-2.8c0-1.5,1.2-2.8,2.8-2.8
	c1.5,0,2.8,1.2,2.8,2.8c0,0,0,0,0,0C9.9,8.7,8.6,9.9,7.1,9.9 M9.5,27.3H4.7V12h4.7V27.3z M29.6,0H2.4C1.1,0,0,1,0,2.3v27.4
	C0,31,1.1,32,2.4,32h27.3c1.3,0,2.4-1,2.4-2.3V2.3C32,1,30.9,0,29.6,0"/>
</svg>
