<?xml version="1.0" standalone="no"?>
<!DOCTYPE svg PUBLIC "-//W3C//DTD SVG 1.1//EN" "http://www.w3.org/Graphics/SVG/1.1/DTD/svg11.dtd" >
<svg xmlns="http://www.w3.org/2000/svg">
<metadata>
Nespresso Lucas is a licensed version of FS Lucas, Copyright (c) 2016. All rights reserved. This font may not be altered in any way without prior permission of Fontsmith Ltd.
</metadata>
<defs>
<font id="NespressoLucas-MedItalic" horiz-adv-x="585" >
  <font-face 
    font-family="Nespresso Lucas Med Italic"
    font-weight="500"
    font-style="italic"
    font-stretch="normal"
    units-per-em="1000"
    panose-1="2 11 6 3 6 3 2 10 2 3"
    ascent="800"
    descent="-200"
    x-height="449"
    cap-height="648"
    bbox="-412 -208 1210 898"
    underline-thickness="73"
    underline-position="-28"
    slope="-8"
    unicode-range="U+000D-FB02"
  />
<missing-glyph horiz-adv-x="793" 
d="M144 648h504v-855h-504v855zM602 620h-412l206 -370zM381 221l-207 365v-731zM618 586l-207 -365l207 -366v731zM602 -178l-206 375l-206 -375h412z" />
    <glyph glyph-name="f_f.liga" unicode="ff" horiz-adv-x="661" 
d="M129 376h-76l10 73h76l5 37q14 93 56.5 137.5t123.5 44.5q41 0 69 -12l-10 -76q-22 10 -53 10q-44 0 -66 -27.5t-31 -87.5l-4 -26h218l6 39q13 92 56.5 140.5t135.5 48.5q56 0 90 -17l-11 -76q-12 6 -31.5 10.5t-40.5 4.5q-51 0 -76.5 -30t-34.5 -93l-4 -27h125l-11 -73
h-124l-53 -376h-90l53 376h-218l-53 -376h-90z" />
    <glyph glyph-name="f_f_i.liga" unicode="ffi" horiz-adv-x="886" 
d="M745 376h-218l-53 -376h-90l53 376h-218l-53 -376h-90l53 376h-76l10 73h76l5 37q14 93 56.5 137.5t123.5 44.5q41 0 69 -12l-10 -76q-22 10 -53 10q-44 0 -66 -27.5t-31 -87.5l-4 -26h218l7 46q14 93 56 137.5t123 44.5q35 0 60 -9l-11 -75q-16 6 -42 6
q-44 0 -66.5 -27.5t-31.5 -88.5l-5 -34h309l-64 -449h-90zM782.5 568.5q-13.5 13.5 -13.5 35.5q0 27 16.5 43t41.5 16q22 0 36.5 -13t14.5 -36q0 -28 -17 -43.5t-42 -15.5q-23 0 -36.5 13.5z" />
    <glyph glyph-name="f_f_j.liga" unicode="ffj" horiz-adv-x="885" 
d="M540 -203q-23 4 -37 10l11 73q26 -12 66 -12q41 0 63.5 18t33 49t18.5 83l50 358h-218l-53 -376h-90l53 376h-218l-53 -376h-90l53 376h-76l10 73h76l5 37q14 93 56.5 137.5t123.5 44.5q41 0 69 -12l-10 -76q-22 10 -53 10q-44 0 -66 -27.5t-31 -87.5l-4 -26h218l7 46
q14 93 56 137.5t123 44.5q35 0 60 -9l-11 -75q-16 6 -42 6q-44 0 -66.5 -27.5t-31.5 -88.5l-5 -34h309l-62 -438q-10 -71 -26 -115.5t-56 -73.5t-113 -29q-26 0 -49 4zM781.5 568.5q-13.5 13.5 -13.5 35.5q0 27 17 43t42 16q22 0 36 -13t14 -36q0 -28 -17 -43.5t-42 -15.5
q-23 0 -36.5 13.5z" />
    <glyph glyph-name="f_f_l.liga" unicode="ffl" horiz-adv-x="885" 
d="M129 376h-76l10 73h76l5 37q14 93 56.5 137.5t123.5 44.5q41 0 69 -12l-10 -76q-22 10 -53 10q-44 0 -66 -27.5t-31 -87.5l-4 -26h218l7 46q14 93 55 137.5t118 44.5q35 0 60 -9l-11 -75q-17 6 -43 6q-39 0 -60.5 -28t-30.5 -88l-5 -34h118l-11 -73h-117l-53 -376h-90
l53 376h-218l-53 -376h-90zM785 663h90l-93 -663h-90z" />
    <glyph glyph-name="f_f_t.liga" unicode="fft" horiz-adv-x="1011" 
d="M129 376h-76l10 73h76l5 37q14 93 56.5 137.5t123.5 44.5q41 0 69 -12l-10 -76q-22 10 -53 10q-44 0 -66 -27.5t-31 -87.5l-4 -26h218l7 46q14 93 56 137.5t123 44.5q35 0 60 -9l-18 -75q-6 6 -35 6q-44 0 -66.5 -27.5t-31.5 -88.5l-5 -34h111l-10 -73h-111l-53 -376h-90
l53 376h-218l-53 -376h-90zM752 23q-34 29 -34 83q0 26 7 68l28 202h-55l2 12q34 26 81.5 81t80.5 103h9l-16 -123h127l-10 -73h-128l-29 -200q-6 -42 -6 -57q0 -49 63 -49q37 0 77 17l-11 -78q-8 -5 -33.5 -10t-51.5 -5q-67 0 -101 29z" />
    <glyph glyph-name="f_j.liga" unicode="fj" horiz-adv-x="577" 
d="M232 -203q-23 4 -37 10l11 73q26 -12 65 -12q41 0 64 18t34 49t18 83l50 358h-218l-53 -376h-90l53 376h-76l10 73h76l7 46q14 93 56 137.5t123 44.5q35 0 60 -9l-11 -75q-16 6 -43 6q-44 0 -66 -28t-31 -88l-5 -34h309l-62 -438q-10 -71 -26 -115.5t-56 -73.5t-113 -29
q-26 0 -49 4zM473.5 568.5q-13.5 13.5 -13.5 35.5q0 27 17 43t42 16q22 0 36 -13t14 -36q0 -28 -17 -43.5t-42 -15.5q-23 0 -36.5 13.5z" />
    <glyph glyph-name="f_t.liga" unicode="ft" horiz-adv-x="695" 
d="M129 376h-76l10 73h76l7 46q14 93 56 137.5t123 44.5q35 0 60 -9l-11 -75q-16 6 -43 6q-44 0 -66 -28t-31 -88l-5 -34h103l-11 -73h-102l-53 -376h-90zM436 23q-34 29 -34 83q0 26 7 68l28 202h-55l2 12q34 26 81.5 81t80.5 103h10l-17 -123h128l-11 -73h-128l-28 -200
q-7 -49 -7 -57q0 -49 64 -49q38 0 76 17l-11 -78q-7 -5 -33 -10t-52 -5q-67 0 -101 29z" />
    <glyph glyph-name="fi" unicode="fi" horiz-adv-x="578" 
d="M437 376h-218l-53 -376h-90l53 376h-76l10 73h76l7 46q14 93 56 137.5t123 44.5q35 0 60 -9l-11 -75q-16 6 -43 6q-44 0 -66 -28t-31 -88l-5 -34h309l-64 -449h-90zM474.5 568.5q-13.5 13.5 -13.5 35.5q0 27 16.5 43t41.5 16q22 0 36 -13t14 -36q0 -28 -16.5 -43.5
t-41.5 -15.5q-23 0 -36.5 13.5z" />
    <glyph glyph-name="fl" unicode="fl" horiz-adv-x="577" 
d="M129 376h-76l10 73h76l7 46q14 93 55 137.5t118 44.5q35 0 60 -9l-11 -75q-17 6 -43 6q-40 0 -61 -28t-30 -88l-5 -34h117l-11 -73h-116l-53 -376h-90zM477 663h90l-93 -663h-90z" />
    <glyph glyph-name="t_t.liga" unicode="tt" horiz-adv-x="728" 
d="M113 23q-34 29 -34 83q0 31 9 85l26 185h-73l2 10q39 27 94 84t85 102h10l-16 -123h128l-11 -73h-128l-29 -200q-6 -42 -6 -57q0 -49 63 -49q39 0 77 17l-11 -78q-8 -5 -33.5 -10t-51.5 -5q-67 0 -101 29zM469 23q-34 29 -34 83q0 31 9 85l26 185h-73l2 10q39 27 94 84
t85 102h10l-16 -123h128l-11 -73h-128l-29 -200q-6 -42 -6 -57q0 -49 63 -49q39 0 77 17l-11 -78q-8 -5 -33.5 -10t-51.5 -5q-67 0 -101 29z" />
    <glyph glyph-name=".notdef" horiz-adv-x="793" 
d="M144 648h504v-855h-504v855zM602 620h-412l206 -370zM381 221l-207 365v-731zM618 586l-207 -365l207 -366v731zM602 -178l-206 375l-206 -375h412z" />
    <glyph glyph-name=".null" horiz-adv-x="0" 
 />
    <glyph glyph-name="nonmarkingreturn" unicode="&#xd;" horiz-adv-x="210" 
 />
    <glyph glyph-name="space" unicode=" " horiz-adv-x="210" 
 />
    <glyph glyph-name="A" unicode="A" horiz-adv-x="645" 
d="M379 658h10l202 -658h-98l-38 128h-290l-73 -128h-101zM436 206l-76 266l-151 -266h227z" />
    <glyph glyph-name="Aacute" unicode="&#xc1;" horiz-adv-x="645" 
d="M379 658h10l202 -658h-98l-38 128h-290l-73 -128h-101zM436 206l-76 266l-151 -266h227zM461 876h120l-167 -164h-94z" />
    <glyph glyph-name="Abreve" unicode="&#x102;" horiz-adv-x="645" 
d="M379 658h10l202 -658h-98l-38 128h-290l-73 -128h-101zM436 206l-76 266l-151 -266h227zM277 738.5q-36 35.5 -36 96.5q0 24 4 41h69q-3 -12 -3 -28q0 -36 20 -54t64 -18q53 0 80 24.5t33 75.5h72q-14 -173 -187 -173q-80 0 -116 35.5z" />
    <glyph glyph-name="uni01CD" unicode="&#x1cd;" horiz-adv-x="645" 
d="M379 658h10l202 -658h-98l-38 128h-290l-73 -128h-101zM436 206l-76 266l-151 -266h227zM244 876h94l62 -78l84 78h101l-198 -173z" />
    <glyph glyph-name="Acircumflex" unicode="&#xc2;" horiz-adv-x="645" 
d="M379 658h10l202 -658h-98l-38 128h-290l-73 -128h-101zM436 206l-76 266l-151 -266h227zM413 885l144 -173h-95l-62 79l-83 -79h-101z" />
    <glyph glyph-name="Adieresis" unicode="&#xc4;" horiz-adv-x="645" 
d="M379 658h10l202 -658h-98l-38 128h-290l-73 -128h-101zM436 206l-76 266l-151 -266h227zM257.5 747q-15.5 15 -15.5 40q0 28 19.5 47.5t46.5 19.5q25 0 40.5 -15.5t15.5 -40.5q0 -30 -19.5 -48t-46.5 -18q-25 0 -40.5 15zM455 747q-15 15 -15 40q0 28 19 47.5t46 19.5
q25 0 40.5 -15.5t15.5 -40.5q0 -30 -19 -48t-46 -18q-26 0 -41 15z" />
    <glyph glyph-name="Agrave" unicode="&#xc0;" horiz-adv-x="645" 
d="M379 658h10l202 -658h-98l-38 128h-290l-73 -128h-101zM436 206l-76 266l-151 -266h227zM249 876h115l94 -164h-86z" />
    <glyph glyph-name="Amacron" unicode="&#x100;" horiz-adv-x="645" 
d="M379 658h10l202 -658h-98l-38 128h-290l-73 -128h-101zM436 206l-76 266l-151 -266h227zM261 830h294l-11 -73h-293z" />
    <glyph glyph-name="Aogonek" unicode="&#x104;" horiz-adv-x="645" 
d="M424 -186.5q-28 20.5 -28 63.5q0 44 26 77t70 52l-36 122h-291l-73 -128h-101l388 658h10l202 -658q-58 -14 -93 -45.5t-35 -69.5q0 -37 42 -37q33 0 59 16l-9 -60q-24 -11 -58 -11q-45 0 -73 20.5zM438 206l-78 267l-151 -267h229z" />
    <glyph glyph-name="Aring" unicode="&#xc5;" horiz-adv-x="645" 
d="M591 0h-98l-38 128h-290l-73 -128h-101l357 606q-30 8 -47.5 31.5t-17.5 58.5q0 51 34 81.5t83 30.5q43 0 70 -25t27 -68q0 -44 -25.5 -73.5t-65.5 -37.5zM354 742q-17 -17 -17 -43q0 -22 13 -34.5t36 -12.5q24 0 40.5 16t16.5 42q0 22 -13 35.5t-35 13.5q-24 0 -41 -17z
M436 206l-76 266l-151 -266h227z" />
    <glyph glyph-name="Atilde" unicode="&#xc3;" horiz-adv-x="645" 
d="M379 658h10l202 -658h-98l-38 128h-290l-73 -128h-101zM436 206l-76 266l-151 -266h227zM429 741.5q-17 7.5 -40 21.5q-18 12 -29.5 17.5t-26.5 5.5q-24 0 -36 -15.5t-14 -31.5h-59q7 56 36 84.5t77 28.5q24 0 42 -7.5t41 -22.5q18 -12 29.5 -17.5t24.5 -5.5
q22 0 33.5 15t13.5 33h59q-5 -53 -33.5 -83t-76.5 -30q-24 0 -41 7.5z" />
    <glyph glyph-name="AE" unicode="&#xc6;" horiz-adv-x="895" 
d="M373 648h299l24 -80h-279l60 -198h218l25 -79h-218l64 -210h281l25 -81h-379l-38 128h-290l-73 -128h-101zM436 206l-76 266l-151 -266h227z" />
    <glyph glyph-name="AEacute" unicode="&#x1fc;" horiz-adv-x="895" 
d="M373 648h299l24 -80h-279l60 -198h218l25 -79h-218l64 -210h281l25 -81h-379l-38 128h-290l-73 -128h-101zM436 206l-76 266l-151 -266h227zM547 876h120l-167 -164h-94z" />
    <glyph glyph-name="B" unicode="B" horiz-adv-x="591" 
d="M540 208q0 -32 -9.5 -67.5t-31.5 -63.5q-29 -37 -81 -57t-143 -20h-222l91 648h168q230 0 230 -155q0 -34 -13 -66.5t-36 -53.5q-26 -24 -62 -33q109 -20 109 -132zM199 368h82q102 0 139 42q16 17 22 38t6 39q0 49 -39 66t-107 17h-75zM439.5 165.5q5.5 22.5 5.5 38.5
q0 49 -38 67.5t-114 18.5h-105l-30 -211h107q56 0 94.5 10.5t58.5 34.5q16 19 21.5 41.5z" />
    <glyph glyph-name="C" unicode="C" horiz-adv-x="633" 
d="M194.5 25.5q-65.5 35.5 -98.5 98.5t-33 146q0 30 5 63q15 99 65 172.5t128 113t175 39.5q61 0 109.5 -14t73.5 -36l-13 -89q-35 26 -78.5 39.5t-90.5 13.5q-72 0 -130.5 -31.5t-96 -88.5t-48.5 -132q-3 -24 -3 -47q0 -94 53.5 -145t148.5 -51q110 0 198 55l-14 -100
q-25 -15 -77.5 -28.5t-112.5 -13.5q-95 0 -160.5 35.5z" />
    <glyph glyph-name="Cacute" unicode="&#x106;" horiz-adv-x="633" 
d="M194.5 25.5q-65.5 35.5 -98.5 98.5t-33 146q0 30 5 63q15 99 65 172.5t128 113t175 39.5q61 0 109.5 -14t73.5 -36l-13 -89q-35 26 -78.5 39.5t-90.5 13.5q-72 0 -130.5 -31.5t-96 -88.5t-48.5 -132q-3 -24 -3 -47q0 -94 53.5 -145t148.5 -51q110 0 198 55l-14 -100
q-25 -15 -77.5 -28.5t-112.5 -13.5q-95 0 -160.5 35.5zM518 876h120l-167 -164h-94z" />
    <glyph glyph-name="Cacute.loclPLK" horiz-adv-x="633" 
d="M194.5 25.5q-65.5 35.5 -98.5 98.5t-33 146q0 30 5 63q15 99 65 172.5t128 113t175 39.5q61 0 109.5 -14t73.5 -36l-13 -89q-35 26 -78.5 39.5t-90.5 13.5q-72 0 -130.5 -31.5t-96 -88.5t-48.5 -132q-3 -24 -3 -47q0 -94 53.5 -145t148.5 -51q110 0 198 55l-14 -100
q-25 -15 -77.5 -28.5t-112.5 -13.5q-95 0 -160.5 35.5zM503 876h109l-118 -164h-92z" />
    <glyph glyph-name="Ccaron" unicode="&#x10c;" horiz-adv-x="633" 
d="M194.5 25.5q-65.5 35.5 -98.5 98.5t-33 146q0 30 5 63q15 99 65 172.5t128 113t175 39.5q61 0 109.5 -14t73.5 -36l-13 -89q-35 26 -78.5 39.5t-90.5 13.5q-72 0 -130.5 -31.5t-96 -88.5t-48.5 -132q-3 -24 -3 -47q0 -94 53.5 -145t148.5 -51q110 0 198 55l-14 -100
q-25 -15 -77.5 -28.5t-112.5 -13.5q-95 0 -160.5 35.5zM301 876h94l62 -78l84 78h101l-198 -173z" />
    <glyph glyph-name="Ccedilla" unicode="&#xc7;" horiz-adv-x="633" 
d="M194.5 25.5q-65.5 35.5 -98.5 98.5t-33 146q0 30 5 63q15 99 65 172.5t128 113t175 39.5q61 0 109.5 -14t73.5 -36l-13 -89q-35 26 -78.5 39.5t-90.5 13.5q-72 0 -130.5 -31.5t-96 -88.5t-48.5 -132q-3 -24 -3 -47q0 -94 53.5 -145t148.5 -51q110 0 198 55l-14 -100
q-25 -15 -77.5 -28.5t-112.5 -13.5q-95 0 -160.5 35.5zM245 -195l7 50q9 -5 24 -9t32 -4q55 0 55 45q0 16 -9 25t-26 9q-27 0 -45 -20l-11 8l47 110h60l-29 -61q6 2 9 2q31 -1 50.5 -18t19.5 -51q0 -53 -32.5 -75.5t-84.5 -22.5q-43 0 -67 12z" />
    <glyph glyph-name="Ccircumflex" unicode="&#x108;" horiz-adv-x="633" 
d="M194.5 25.5q-65.5 35.5 -98.5 98.5t-33 146q0 30 5 63q15 99 65 172.5t128 113t175 39.5q61 0 109.5 -14t73.5 -36l-13 -89q-35 26 -78.5 39.5t-90.5 13.5q-72 0 -130.5 -31.5t-96 -88.5t-48.5 -132q-3 -24 -3 -47q0 -94 53.5 -145t148.5 -51q110 0 198 55l-14 -100
q-25 -15 -77.5 -28.5t-112.5 -13.5q-95 0 -160.5 35.5zM470 885l144 -173h-95l-62 79l-83 -79h-101z" />
    <glyph glyph-name="Cdotaccent" unicode="&#x10a;" horiz-adv-x="633" 
d="M194.5 25.5q-65.5 35.5 -98.5 98.5t-33 146q0 30 5 63q15 99 65 172.5t128 113t175 39.5q61 0 109.5 -14t73.5 -36l-13 -89q-35 26 -78.5 39.5t-90.5 13.5q-72 0 -130.5 -31.5t-96 -88.5t-48.5 -132q-3 -24 -3 -47q0 -94 53.5 -145t148.5 -51q110 0 198 55l-14 -100
q-25 -15 -77.5 -28.5t-112.5 -13.5q-95 0 -160.5 35.5zM415 747q-15 15 -15 39q0 29 19 48t45 19q25 0 40.5 -15.5t15.5 -40.5q0 -29 -19 -47t-46 -18q-25 0 -40 15z" />
    <glyph glyph-name="D" unicode="D" horiz-adv-x="681" 
d="M144 648h118q111 0 191.5 -16.5t136 -75t55.5 -174.5q0 -37 -5 -73q-27 -184 -149.5 -246.5t-294.5 -62.5h-143zM191 80q144 0 238.5 52.5t115.5 190.5q5 32 5 55q0 83 -38.5 125t-98.5 54t-151 12h-37l-67 -489h33z" />
    <glyph glyph-name="Eth" unicode="&#xd0;" horiz-adv-x="709" 
d="M481.5 631.5q80.5 -16.5 136 -75t55.5 -174.5q0 -37 -5 -73q-27 -184 -149.5 -246.5t-294.5 -62.5h-143l41 293h-103l10 75h104l39 280h118q111 0 191.5 -16.5zM578 378q0 83 -38.5 125t-98.5 54t-151 12h-37l-28 -201h143l-11 -75h-142l-29 -213h33q144 0 238.5 52.5
t115.5 190.5q5 32 5 55z" />
    <glyph glyph-name="Dcaron" unicode="&#x10e;" horiz-adv-x="681" 
d="M144 648h118q111 0 191.5 -16.5t136 -75t55.5 -174.5q0 -37 -5 -73q-27 -184 -149.5 -246.5t-294.5 -62.5h-143zM191 80q144 0 238.5 52.5t115.5 190.5q5 32 5 55q0 83 -38.5 125t-98.5 54t-151 12h-37l-67 -489h33zM260 876h94l62 -78l84 78h101l-198 -173z" />
    <glyph glyph-name="Dcroat" unicode="&#x110;" horiz-adv-x="709" 
d="M481.5 631.5q80.5 -16.5 136 -75t55.5 -174.5q0 -37 -5 -73q-27 -184 -149.5 -246.5t-294.5 -62.5h-143l41 293h-103l10 75h104l39 280h118q111 0 191.5 -16.5zM578 378q0 83 -38.5 125t-98.5 54t-151 12h-37l-28 -201h143l-11 -75h-142l-29 -213h33q144 0 238.5 52.5
t115.5 190.5q5 32 5 55z" />
    <glyph glyph-name="E" unicode="E" horiz-adv-x="513" 
d="M144 648h382l-11 -80h-290l-27 -198h212l-12 -79h-211l-30 -210h302l-12 -81h-394z" />
    <glyph glyph-name="Eacute" unicode="&#xc9;" horiz-adv-x="513" 
d="M144 648h382l-11 -80h-290l-27 -198h212l-12 -79h-211l-30 -210h302l-12 -81h-394zM416 876h120l-167 -164h-94z" />
    <glyph glyph-name="Ebreve" unicode="&#x114;" horiz-adv-x="513" 
d="M144 648h382l-11 -80h-290l-27 -198h212l-12 -79h-211l-30 -210h302l-12 -81h-394zM232 738.5q-36 35.5 -36 96.5q0 24 4 41h69q-3 -12 -3 -28q0 -36 20 -54t64 -18q53 0 80 24.5t33 75.5h72q-14 -173 -187 -173q-80 0 -116 35.5z" />
    <glyph glyph-name="Ecaron" unicode="&#x11a;" horiz-adv-x="513" 
d="M144 648h382l-11 -80h-290l-27 -198h212l-12 -79h-211l-30 -210h302l-12 -81h-394zM199 876h94l62 -78l84 78h101l-198 -173z" />
    <glyph glyph-name="Ecircumflex" unicode="&#xca;" horiz-adv-x="513" 
d="M144 648h382l-11 -80h-290l-27 -198h212l-12 -79h-211l-30 -210h302l-12 -81h-394zM368 885l144 -173h-95l-62 79l-83 -79h-101z" />
    <glyph glyph-name="Edieresis" unicode="&#xcb;" horiz-adv-x="513" 
d="M144 648h382l-11 -80h-290l-27 -198h212l-12 -79h-211l-30 -210h302l-12 -81h-394zM212.5 747q-15.5 15 -15.5 40q0 28 19.5 47.5t46.5 19.5q25 0 40.5 -15.5t15.5 -40.5q0 -30 -19.5 -48t-46.5 -18q-25 0 -40.5 15zM410 747q-15 15 -15 40q0 28 19 47.5t46 19.5
q25 0 40.5 -15.5t15.5 -40.5q0 -30 -19 -48t-46 -18q-26 0 -41 15z" />
    <glyph glyph-name="Edotaccent" unicode="&#x116;" horiz-adv-x="513" 
d="M144 648h382l-11 -80h-290l-27 -198h212l-12 -79h-211l-30 -210h302l-12 -81h-394zM313 747q-15 15 -15 39q0 29 19 48t45 19q25 0 40.5 -15.5t15.5 -40.5q0 -29 -19 -47t-46 -18q-25 0 -40 15z" />
    <glyph glyph-name="Egrave" unicode="&#xc8;" horiz-adv-x="513" 
d="M144 648h382l-11 -80h-290l-27 -198h212l-12 -79h-211l-30 -210h302l-12 -81h-394zM241 876h115l94 -164h-86z" />
    <glyph glyph-name="Emacron" unicode="&#x112;" horiz-adv-x="513" 
d="M144 648h382l-11 -80h-290l-27 -198h212l-12 -79h-211l-30 -210h302l-12 -81h-394zM216 830h294l-11 -73h-293z" />
    <glyph glyph-name="Eogonek" unicode="&#x118;" horiz-adv-x="513" 
d="M283 -186.5q-28 20.5 -28 63.5q0 40 25 73.5t59 49.5h-286l91 648h382l-11 -80h-290l-27 -198h212l-12 -79h-211l-30 -210h302l-12 -81q-53 -14 -89.5 -46t-36.5 -69t43 -37q32 0 58 16l-9 -60q-22 -11 -58 -11q-44 0 -72 20.5z" />
    <glyph glyph-name="F" unicode="F" horiz-adv-x="499" 
d="M144 648h385l-12 -80h-291l-30 -211h217l-12 -79h-216l-39 -278h-93z" />
    <glyph glyph-name="G" unicode="G" horiz-adv-x="711" 
d="M140.5 65.5q-77.5 75.5 -77.5 205.5q0 27 5 65q15 103 66.5 175.5t130 109.5t173.5 37q73 0 129 -19t80 -37l-13 -90q-31 23 -84.5 41.5t-109.5 18.5q-70 0 -129 -29.5t-98 -87t-51 -137.5q-3 -24 -3 -44q0 -88 52 -142.5t148 -54.5q92 0 148.5 50.5t69.5 140.5h-198
l11 80h295l-7 -55q-18 -126 -87 -214.5t-232 -88.5q-141 0 -218.5 75.5z" />
    <glyph glyph-name="Gbreve" unicode="&#x11e;" horiz-adv-x="711" 
d="M140.5 65.5q-77.5 75.5 -77.5 205.5q0 27 5 65q15 103 66.5 175.5t130 109.5t173.5 37q73 0 129 -19t80 -37l-13 -90q-31 23 -84.5 41.5t-109.5 18.5q-70 0 -129 -29.5t-98 -87t-51 -137.5q-3 -24 -3 -44q0 -88 52 -142.5t148 -54.5q92 0 148.5 50.5t69.5 140.5h-198
l11 80h295l-7 -55q-18 -126 -87 -214.5t-232 -88.5q-141 0 -218.5 75.5zM339 738.5q-36 35.5 -36 96.5q0 24 4 41h69q-3 -12 -3 -28q0 -36 20 -54t64 -18q53 0 80 24.5t33 75.5h72q-14 -173 -187 -173q-80 0 -116 35.5z" />
    <glyph glyph-name="Gcircumflex" unicode="&#x11c;" horiz-adv-x="711" 
d="M140.5 65.5q-77.5 75.5 -77.5 205.5q0 27 5 65q15 103 66.5 175.5t130 109.5t173.5 37q73 0 129 -19t80 -37l-13 -90q-31 23 -84.5 41.5t-109.5 18.5q-70 0 -129 -29.5t-98 -87t-51 -137.5q-3 -24 -3 -44q0 -88 52 -142.5t148 -54.5q92 0 148.5 50.5t69.5 140.5h-198
l11 80h295l-7 -55q-18 -126 -87 -214.5t-232 -88.5q-141 0 -218.5 75.5zM475 885l144 -173h-95l-62 79l-83 -79h-101z" />
    <glyph glyph-name="Gcommaaccent" unicode="&#x122;" horiz-adv-x="711" 
d="M140.5 65.5q-77.5 75.5 -77.5 205.5q0 27 5 65q15 103 66.5 175.5t130 109.5t173.5 37q73 0 129 -19t80 -37l-13 -90q-31 23 -84.5 41.5t-109.5 18.5q-70 0 -129 -29.5t-98 -87t-51 -137.5q-3 -24 -3 -44q0 -88 52 -142.5t148 -54.5q92 0 148.5 50.5t69.5 140.5h-198
l11 80h295l-7 -55q-18 -126 -87 -214.5t-232 -88.5q-141 0 -218.5 75.5zM322 -148q-19 2 -30 12t-11 28q0 23 16.5 38.5t38.5 15.5q23 0 37.5 -14.5t14.5 -40.5q0 -31 -18.5 -57t-43.5 -41h-55q37 30 51 59z" />
    <glyph glyph-name="Gdotaccent" unicode="&#x120;" horiz-adv-x="711" 
d="M140.5 65.5q-77.5 75.5 -77.5 205.5q0 27 5 65q15 103 66.5 175.5t130 109.5t173.5 37q73 0 129 -19t80 -37l-13 -90q-31 23 -84.5 41.5t-109.5 18.5q-70 0 -129 -29.5t-98 -87t-51 -137.5q-3 -24 -3 -44q0 -88 52 -142.5t148 -54.5q92 0 148.5 50.5t69.5 140.5h-198
l11 80h295l-7 -55q-18 -126 -87 -214.5t-232 -88.5q-141 0 -218.5 75.5zM420 747q-15 15 -15 39q0 29 19 48t45 19q25 0 40.5 -15.5t15.5 -40.5q0 -29 -19 -47t-46 -18q-25 0 -40 15z" />
    <glyph glyph-name="H" unicode="H" horiz-adv-x="698" 
d="M144 648h93l-39 -278h342l39 278h94l-91 -648h-94l41 289h-343l-40 -289h-93z" />
    <glyph glyph-name="Hbar" unicode="&#x126;" horiz-adv-x="732" 
d="M136 473h-92l11 73h92l14 102h94l-15 -102h343l14 102h93l-14 -102h92l-11 -73h-91l-67 -473h-93l40 289h-342l-40 -289h-94zM558 370l14 103h-342l-15 -103h343z" />
    <glyph glyph-name="Hcircumflex" unicode="&#x124;" horiz-adv-x="698" 
d="M144 648h93l-39 -278h342l39 278h94l-91 -648h-94l41 289h-343l-40 -289h-93zM439 885l144 -173h-95l-62 79l-83 -79h-101z" />
    <glyph glyph-name="I" unicode="I" horiz-adv-x="262" 
d="M144 648h93l-91 -648h-93z" />
    <glyph glyph-name="IJ" unicode="&#x132;" horiz-adv-x="726" 
d="M144 648h93l-91 -648h-93zM340.5 -3.5q-35.5 6.5 -53.5 16.5l11 84q17 -11 47 -17t62 -6q49 0 79 17t47 53.5t26 99.5l45 325h-162l11 79h256l-60 -429q-16 -114 -68 -171.5t-166 -57.5q-39 0 -74.5 6.5z" />
    <glyph glyph-name="Iacute" unicode="&#xcd;" horiz-adv-x="262" 
d="M144 648h93l-91 -648h-93zM293 876h120l-167 -164h-94z" />
    <glyph glyph-name="Iacute_J.loclNLD" horiz-adv-x="726" 
d="M144 648h93l-91 -648h-93zM293 876h120l-167 -164h-94zM340.5 -3.5q-35.5 6.5 -53.5 16.5l11 84q17 -11 47 -17t62 -6q49 0 79 17t47 53.5t26 99.5l45 325h-162l11 79h256l-60 -429q-16 -114 -68 -171.5t-166 -57.5q-39 0 -74.5 6.5zM604 876h120l-167 -164h-94z" />
    <glyph glyph-name="Ibreve" unicode="&#x12c;" horiz-adv-x="262" 
d="M144 648h93l-91 -648h-93zM86 738.5q-36 35.5 -36 96.5q0 24 4 41h69q-3 -12 -3 -28q0 -36 20 -54t64 -18q53 0 80 24.5t33 75.5h72q-14 -173 -187 -173q-80 0 -116 35.5z" />
    <glyph glyph-name="Icircumflex" unicode="&#xce;" horiz-adv-x="262" 
d="M144 648h93l-91 -648h-93zM222 885l144 -173h-95l-62 79l-83 -79h-101z" />
    <glyph glyph-name="Idieresis" unicode="&#xcf;" horiz-adv-x="262" 
d="M144 648h93l-91 -648h-93zM66.5 747q-15.5 15 -15.5 40q0 28 19.5 47.5t46.5 19.5q25 0 40.5 -15.5t15.5 -40.5q0 -30 -19.5 -48t-46.5 -18q-25 0 -40.5 15zM264 747q-15 15 -15 40q0 28 19 47.5t46 19.5q25 0 40.5 -15.5t15.5 -40.5q0 -30 -19 -48t-46 -18q-26 0 -41 15
z" />
    <glyph glyph-name="Idotaccent" unicode="&#x130;" horiz-adv-x="262" 
d="M144 648h93l-91 -648h-93zM167 747q-15 15 -15 39q0 29 19 48t45 19q25 0 40.5 -15.5t15.5 -40.5q0 -29 -19 -47t-46 -18q-25 0 -40 15z" />
    <glyph glyph-name="Igrave" unicode="&#xcc;" horiz-adv-x="262" 
d="M144 648h93l-91 -648h-93zM37 876h115l94 -164h-86z" />
    <glyph glyph-name="Imacron" unicode="&#x12a;" horiz-adv-x="262" 
d="M144 648h93l-91 -648h-93zM70 830h294l-11 -73h-293z" />
    <glyph glyph-name="Iogonek" unicode="&#x12e;" horiz-adv-x="250" 
d="M-19 -186.5q-28 20.5 -28 63.5q0 44 25 78t68 52l90 641h93l-91 -648q-51 -16 -85 -47.5t-34 -67.5q0 -37 43 -37q32 0 58 16l-8 -60q-24 -11 -59 -11q-44 0 -72 20.5z" />
    <glyph glyph-name="Itilde" unicode="&#x128;" horiz-adv-x="262" 
d="M144 648h93l-91 -648h-93zM238 741.5q-17 7.5 -40 21.5q-18 12 -29.5 17.5t-26.5 5.5q-24 0 -36 -15.5t-14 -31.5h-59q7 56 36 84.5t77 28.5q24 0 42 -7.5t41 -22.5q18 -12 29.5 -17.5t24.5 -5.5q22 0 33.5 15t13.5 33h59q-5 -53 -33.5 -83t-76.5 -30q-24 0 -41 7.5z" />
    <glyph glyph-name="J" unicode="J" horiz-adv-x="466" 
d="M80.5 -3.5q-35.5 6.5 -53.5 16.5l11 84q17 -11 47 -17t62 -6q49 0 79 17t47 53.5t26 99.5l45 325h-162l11 79h256l-60 -429q-16 -114 -68 -171.5t-166 -57.5q-39 0 -74.5 6.5z" />
    <glyph glyph-name="Jcircumflex" unicode="&#x134;" horiz-adv-x="466" 
d="M80.5 -3.5q-35.5 6.5 -53.5 16.5l11 84q17 -11 47 -17t62 -6q49 0 79 17t47 53.5t26 99.5l45 325h-162l11 79h256l-60 -429q-16 -114 -68 -171.5t-166 -57.5q-39 0 -74.5 6.5zM351 885l144 -173h-95l-62 79l-83 -79h-101z" />
    <glyph glyph-name="K" unicode="K" horiz-adv-x="632" 
d="M144 648h93l-44 -312l347 312h125l-361 -324l278 -324h-123l-268 320l-45 -320h-93z" />
    <glyph glyph-name="Kcommaaccent" unicode="&#x136;" horiz-adv-x="632" 
d="M144 648h93l-44 -312l347 312h125l-361 -324l278 -324h-123l-268 320l-45 -320h-93zM265 -148q-19 2 -30 12t-11 28q0 23 16.5 38.5t38.5 15.5q23 0 37.5 -14.5t14.5 -40.5q0 -31 -18.5 -57t-43.5 -41h-55q37 30 51 59z" />
    <glyph glyph-name="L" unicode="L" horiz-adv-x="525" 
d="M144 648h93l-79 -567h311l-12 -81h-404z" />
    <glyph glyph-name="Lacute" unicode="&#x139;" horiz-adv-x="525" 
d="M144 648h93l-79 -567h311l-12 -81h-404zM294 876h120l-167 -164h-94z" />
    <glyph glyph-name="Lcaron" unicode="&#x13d;" horiz-adv-x="525" 
d="M144 648h93l-79 -567h311l-12 -81h-404zM401 565q-40 3 -40 39q0 24 16 39t38 15q23 0 37.5 -14t14.5 -41q0 -32 -21 -60.5t-51 -46.5h-55q47 37 61 69z" />
    <glyph glyph-name="Lcommaaccent" unicode="&#x13b;" horiz-adv-x="525" 
d="M144 648h93l-79 -567h311l-12 -81h-404zM231 -148q-19 2 -30 12t-11 28q0 23 16.5 38.5t38.5 15.5q23 0 37.5 -14.5t14.5 -40.5q0 -31 -18.5 -57t-43.5 -41h-55q37 30 51 59z" />
    <glyph glyph-name="Ldot" unicode="&#x13f;" horiz-adv-x="525" 
d="M309.5 285q-14.5 15 -14.5 39q0 28 18.5 46.5t44.5 18.5q25 0 40 -15t15 -40q0 -28 -18.5 -46t-44.5 -18t-40.5 15zM144 648h93l-79 -567h311l-12 -81h-404z" />
    <glyph glyph-name="Lslash" unicode="&#x141;" horiz-adv-x="525" 
d="M87 248l-96 -50l11 81l97 50l45 319h93l-40 -280l168 87l-11 -83l-167 -85l-29 -206h311l-12 -81h-404z" />
    <glyph glyph-name="M" unicode="M" horiz-adv-x="846" 
d="M248 410l-131 -410h-95l219 658h10l163 -489l301 489h10l36 -658h-93l-15 410l-257 -420h-10z" />
    <glyph glyph-name="N" unicode="N" horiz-adv-x="708" 
d="M208 458l-64 -458h-91l92 658h10l372 -468l64 458h91l-92 -658h-10z" />
    <glyph glyph-name="Nacute" unicode="&#x143;" horiz-adv-x="708" 
d="M208 458l-64 -458h-91l92 658h10l372 -468l64 458h91l-92 -658h-10zM492 876h120l-167 -164h-94z" />
    <glyph glyph-name="Nacute.loclPLK" horiz-adv-x="708" 
d="M208 458l-64 -458h-91l92 658h10l372 -468l64 458h91l-92 -658h-10zM477 876h109l-118 -164h-92z" />
    <glyph glyph-name="Ncaron" unicode="&#x147;" horiz-adv-x="708" 
d="M208 458l-64 -458h-91l92 658h10l372 -468l64 458h91l-92 -658h-10zM275 876h94l62 -78l84 78h101l-198 -173z" />
    <glyph glyph-name="Ncommaaccent" unicode="&#x145;" horiz-adv-x="708" 
d="M208 458l-64 -458h-91l92 658h10l372 -468l64 458h91l-92 -658h-10zM295 -148q-19 2 -30 12t-11 28q0 23 16.5 38.5t38.5 15.5q23 0 37.5 -14.5t14.5 -40.5q0 -31 -18.5 -57t-43.5 -41h-55q37 30 51 59z" />
    <glyph glyph-name="Eng" unicode="&#x14a;" horiz-adv-x="708" 
d="M302 -202q-29 5 -46 12l11 75q14 -7 38.5 -11.5t51.5 -4.5q76 0 108 42.5t43 126.5l4 34l-304 386l-64 -458h-91l92 658h10l372 -468l64 458h91l-87 -620q-11 -80 -33.5 -130.5t-69.5 -77.5t-127 -27q-34 0 -63 5z" />
    <glyph glyph-name="Ntilde" unicode="&#xd1;" horiz-adv-x="708" 
d="M208 458l-64 -458h-91l92 658h10l372 -468l64 458h91l-92 -658h-10zM460 741.5q-17 7.5 -40 21.5q-18 12 -29.5 17.5t-26.5 5.5q-24 0 -36 -15.5t-14 -31.5h-59q7 56 36 84.5t77 28.5q24 0 42 -7.5t41 -22.5q18 -12 29.5 -17.5t24.5 -5.5q22 0 33.5 15t13.5 33h59
q-5 -53 -33.5 -83t-76.5 -30q-24 0 -41 7.5z" />
    <glyph glyph-name="O" unicode="O" horiz-adv-x="754" 
d="M192.5 27.5q-64.5 37.5 -96.5 101.5t-32 145q0 32 4 60q13 93 60 166.5t125 115.5t180 42q91 0 155.5 -37t97.5 -100.5t33 -141.5q0 -30 -4 -59q-12 -93 -57.5 -167.5t-123 -118.5t-182.5 -44q-95 0 -159.5 37.5zM484 109q57 32 92 89.5t45 130.5q3 26 3 46q0 89 -51 143
t-145 54q-71 0 -127.5 -32t-92 -88.5t-45.5 -127.5q-3 -24 -3 -46q0 -90 50.5 -145.5t144.5 -55.5q72 0 129 32z" />
    <glyph glyph-name="Oacute" unicode="&#xd3;" horiz-adv-x="754" 
d="M192.5 27.5q-64.5 37.5 -96.5 101.5t-32 145q0 32 4 60q13 93 60 166.5t125 115.5t180 42q91 0 155.5 -37t97.5 -100.5t33 -141.5q0 -30 -4 -59q-12 -93 -57.5 -167.5t-123 -118.5t-182.5 -44q-95 0 -159.5 37.5zM484 109q57 32 92 89.5t45 130.5q3 26 3 46q0 89 -51 143
t-145 54q-71 0 -127.5 -32t-92 -88.5t-45.5 -127.5q-3 -24 -3 -46q0 -90 50.5 -145.5t144.5 -55.5q72 0 129 32zM516 876h120l-167 -164h-94z" />
    <glyph glyph-name="Oacute.loclPLK" horiz-adv-x="754" 
d="M192.5 27.5q-64.5 37.5 -96.5 101.5t-32 145q0 32 4 60q13 93 60 166.5t125 115.5t180 42q91 0 155.5 -37t97.5 -100.5t33 -141.5q0 -30 -4 -59q-12 -93 -57.5 -167.5t-123 -118.5t-182.5 -44q-95 0 -159.5 37.5zM484 109q57 32 92 89.5t45 130.5q3 26 3 46q0 89 -51 143
t-145 54q-71 0 -127.5 -32t-92 -88.5t-45.5 -127.5q-3 -24 -3 -46q0 -90 50.5 -145.5t144.5 -55.5q72 0 129 32zM501 876h109l-118 -164h-92z" />
    <glyph glyph-name="Obreve" unicode="&#x14e;" horiz-adv-x="754" 
d="M192.5 27.5q-64.5 37.5 -96.5 101.5t-32 145q0 32 4 60q13 93 60 166.5t125 115.5t180 42q91 0 155.5 -37t97.5 -100.5t33 -141.5q0 -30 -4 -59q-12 -93 -57.5 -167.5t-123 -118.5t-182.5 -44q-95 0 -159.5 37.5zM484 109q57 32 92 89.5t45 130.5q3 26 3 46q0 89 -51 143
t-145 54q-71 0 -127.5 -32t-92 -88.5t-45.5 -127.5q-3 -24 -3 -46q0 -90 50.5 -145.5t144.5 -55.5q72 0 129 32zM332 738.5q-36 35.5 -36 96.5q0 24 4 41h69q-3 -12 -3 -28q0 -36 20 -54t64 -18q53 0 80 24.5t33 75.5h72q-14 -173 -187 -173q-80 0 -116 35.5z" />
    <glyph glyph-name="Ocircumflex" unicode="&#xd4;" horiz-adv-x="754" 
d="M192.5 27.5q-64.5 37.5 -96.5 101.5t-32 145q0 32 4 60q13 93 60 166.5t125 115.5t180 42q91 0 155.5 -37t97.5 -100.5t33 -141.5q0 -30 -4 -59q-12 -93 -57.5 -167.5t-123 -118.5t-182.5 -44q-95 0 -159.5 37.5zM484 109q57 32 92 89.5t45 130.5q3 26 3 46q0 89 -51 143
t-145 54q-71 0 -127.5 -32t-92 -88.5t-45.5 -127.5q-3 -24 -3 -46q0 -90 50.5 -145.5t144.5 -55.5q72 0 129 32zM468 885l144 -173h-95l-62 79l-83 -79h-101z" />
    <glyph glyph-name="Odieresis" unicode="&#xd6;" horiz-adv-x="754" 
d="M192.5 27.5q-64.5 37.5 -96.5 101.5t-32 145q0 32 4 60q13 93 60 166.5t125 115.5t180 42q91 0 155.5 -37t97.5 -100.5t33 -141.5q0 -30 -4 -59q-12 -93 -57.5 -167.5t-123 -118.5t-182.5 -44q-95 0 -159.5 37.5zM484 109q57 32 92 89.5t45 130.5q3 26 3 46q0 89 -51 143
t-145 54q-71 0 -127.5 -32t-92 -88.5t-45.5 -127.5q-3 -24 -3 -46q0 -90 50.5 -145.5t144.5 -55.5q72 0 129 32zM312.5 747q-15.5 15 -15.5 40q0 28 19.5 47.5t46.5 19.5q25 0 40.5 -15.5t15.5 -40.5q0 -30 -19.5 -48t-46.5 -18q-25 0 -40.5 15zM510 747q-15 15 -15 40
q0 28 19 47.5t46 19.5q25 0 40.5 -15.5t15.5 -40.5q0 -30 -19 -48t-46 -18q-26 0 -41 15z" />
    <glyph glyph-name="Ograve" unicode="&#xd2;" horiz-adv-x="754" 
d="M192.5 27.5q-64.5 37.5 -96.5 101.5t-32 145q0 32 4 60q13 93 60 166.5t125 115.5t180 42q91 0 155.5 -37t97.5 -100.5t33 -141.5q0 -30 -4 -59q-12 -93 -57.5 -167.5t-123 -118.5t-182.5 -44q-95 0 -159.5 37.5zM484 109q57 32 92 89.5t45 130.5q3 26 3 46q0 89 -51 143
t-145 54q-71 0 -127.5 -32t-92 -88.5t-45.5 -127.5q-3 -24 -3 -46q0 -90 50.5 -145.5t144.5 -55.5q72 0 129 32zM341 876h115l94 -164h-86z" />
    <glyph glyph-name="Ohungarumlaut" unicode="&#x150;" horiz-adv-x="754" 
d="M192.5 27.5q-64.5 37.5 -96.5 101.5t-32 145q0 32 4 60q13 93 60 166.5t125 115.5t180 42q91 0 155.5 -37t97.5 -100.5t33 -141.5q0 -30 -4 -59q-12 -93 -57.5 -167.5t-123 -118.5t-182.5 -44q-95 0 -159.5 37.5zM484 109q57 32 92 89.5t45 130.5q3 26 3 46q0 89 -51 143
t-145 54q-71 0 -127.5 -32t-92 -88.5t-45.5 -127.5q-3 -24 -3 -46q0 -90 50.5 -145.5t144.5 -55.5q72 0 129 32zM439 876h120l-155 -164h-91zM635 876h120l-155 -164h-91z" />
    <glyph glyph-name="Omacron" unicode="&#x14c;" horiz-adv-x="754" 
d="M192.5 27.5q-64.5 37.5 -96.5 101.5t-32 145q0 32 4 60q13 93 60 166.5t125 115.5t180 42q91 0 155.5 -37t97.5 -100.5t33 -141.5q0 -30 -4 -59q-12 -93 -57.5 -167.5t-123 -118.5t-182.5 -44q-95 0 -159.5 37.5zM484 109q57 32 92 89.5t45 130.5q3 26 3 46q0 89 -51 143
t-145 54q-71 0 -127.5 -32t-92 -88.5t-45.5 -127.5q-3 -24 -3 -46q0 -90 50.5 -145.5t144.5 -55.5q72 0 129 32zM316 830h294l-11 -73h-293z" />
    <glyph glyph-name="Oslash" unicode="&#xd8;" horiz-adv-x="755" 
d="M124 85q-59 75 -59 189q0 32 4 60q13 94 60 167t124.5 115t180.5 42q92 0 159 -39l60 68h97l-100 -114q34 -37 52 -87t18 -107q0 -30 -4 -59q-13 -93 -58 -167.5t-122.5 -118.5t-182.5 -44q-104 0 -174 48l-59 -68h-97zM531 548q-17 11 -44 17.5t-58 6.5
q-71 0 -127.5 -32t-92 -88t-46.5 -128q-3 -24 -3 -46q0 -69 30 -117zM484.5 109q56.5 32 91.5 89.5t45 130.5q3 26 3 46q0 76 -38 126l-345 -392q20 -15 50 -23.5t65 -8.5q72 0 128.5 32z" />
    <glyph glyph-name="Oslashacute" unicode="&#x1fe;" horiz-adv-x="755" 
d="M124 85q-59 75 -59 189q0 32 4 60q13 94 60 167t124.5 115t180.5 42q92 0 159 -39l60 68h97l-100 -114q34 -37 52 -87t18 -107q0 -30 -4 -59q-13 -93 -58 -167.5t-122.5 -118.5t-182.5 -44q-104 0 -174 48l-59 -68h-97zM531 548q-17 11 -44 17.5t-58 6.5
q-71 0 -127.5 -32t-92 -88t-46.5 -128q-3 -24 -3 -46q0 -69 30 -117zM484.5 109q56.5 32 91.5 89.5t45 130.5q3 26 3 46q0 76 -38 126l-345 -392q20 -15 50 -23.5t65 -8.5q72 0 128.5 32zM521 876h120l-167 -164h-94z" />
    <glyph glyph-name="Otilde" unicode="&#xd5;" horiz-adv-x="754" 
d="M192.5 27.5q-64.5 37.5 -96.5 101.5t-32 145q0 32 4 60q13 93 60 166.5t125 115.5t180 42q91 0 155.5 -37t97.5 -100.5t33 -141.5q0 -30 -4 -59q-12 -93 -57.5 -167.5t-123 -118.5t-182.5 -44q-95 0 -159.5 37.5zM484 109q57 32 92 89.5t45 130.5q3 26 3 46q0 89 -51 143
t-145 54q-71 0 -127.5 -32t-92 -88.5t-45.5 -127.5q-3 -24 -3 -46q0 -90 50.5 -145.5t144.5 -55.5q72 0 129 32zM484 741.5q-17 7.5 -40 21.5q-18 12 -29.5 17.5t-26.5 5.5q-24 0 -36 -15.5t-14 -31.5h-59q7 56 36 84.5t77 28.5q24 0 42 -7.5t41 -22.5q18 -12 29.5 -17.5
t24.5 -5.5q22 0 33.5 15t13.5 33h59q-5 -53 -33.5 -83t-76.5 -30q-24 0 -41 7.5z" />
    <glyph glyph-name="OE" unicode="&#x152;" horiz-adv-x="1033" 
d="M192.5 27.5q-64.5 37.5 -96.5 101.5t-32 145q0 32 4 60q13 93 60 166.5t125 115.5t180 42q81 0 138 -30.5t89 -81.5l14 102h373l-12 -80h-288l-28 -198h212l-12 -79h-212l-29 -210h302l-12 -81h-385l13 94q-40 -49 -102 -76.5t-142 -27.5q-95 0 -159.5 37.5zM484 109
q57 32 92 89.5t45 130.5q3 26 3 46q0 89 -51 143t-145 54q-71 0 -127.5 -32t-92 -88.5t-45.5 -127.5q-3 -24 -3 -46q0 -90 50.5 -145.5t144.5 -55.5q72 0 129 32z" />
    <glyph glyph-name="P" unicode="P" horiz-adv-x="584" 
d="M144 648h150q87 0 146 -11.5t97.5 -51t38.5 -117.5q0 -25 -3 -46q-13 -89 -63.5 -131.5t-112.5 -53t-149 -10.5h-70l-32 -227h-93zM256 305q66 0 109.5 8t74.5 36.5t39 86.5q2 18 2 28q0 46 -22.5 68.5t-61 29.5t-103.5 7h-68l-37 -264h67z" />
    <glyph glyph-name="Thorn" unicode="&#xde;" horiz-adv-x="583" 
d="M423 522q60 -13 98 -54t38 -119q0 -24 -3 -44q-12 -86 -61.5 -127.5t-112.5 -52.5t-151 -11h-69l-16 -114h-93l91 648h93l-16 -113h56q86 0 146 -13zM465 345q0 46 -22.5 70t-62.5 32.5t-104 8.5h-66l-37 -264h65q67 0 111 8t74.5 35.5t39.5 81.5q2 18 2 28z" />
    <glyph glyph-name="Q" unicode="Q" horiz-adv-x="754" 
d="M715 320q-17 -127 -90 -213l86 -78l-56 -59l-90 83q-88 -63 -213 -63q-95 0 -159.5 37.5t-96.5 101.5t-32 145q0 32 4 60q13 93 60 166.5t125 115.5t180 42q91 0 155.5 -37t97.5 -100.5t33 -141.5q0 -30 -4 -59zM556 170q53 67 65 159q3 26 3 46q0 89 -51 143t-145 54
q-71 0 -127.5 -32t-92 -88.5t-45.5 -127.5q-3 -24 -3 -46q0 -90 50.5 -145.5t144.5 -55.5q79 0 140 39l-91 83l56 58z" />
    <glyph glyph-name="R" unicode="R" horiz-adv-x="592" 
d="M527 325.5q-43 -58.5 -122 -76.5l126 -249h-105l-115 238h-131l-34 -238h-93l91 648h157q122 0 195.5 -35t73.5 -139q0 -90 -43 -148.5zM361.5 324q42.5 8 72.5 34.5t39 79.5q2 18 2 31q0 43 -23 65t-59.5 28.5t-92.5 6.5h-74l-35 -253h65q63 0 105.5 8z" />
    <glyph glyph-name="Racute" unicode="&#x154;" horiz-adv-x="592" 
d="M527 325.5q-43 -58.5 -122 -76.5l126 -249h-105l-115 238h-131l-34 -238h-93l91 648h157q122 0 195.5 -35t73.5 -139q0 -90 -43 -148.5zM361.5 324q42.5 8 72.5 34.5t39 79.5q2 18 2 31q0 43 -23 65t-59.5 28.5t-92.5 6.5h-74l-35 -253h65q63 0 105.5 8zM430 876h120
l-167 -164h-94z" />
    <glyph glyph-name="Rcaron" unicode="&#x158;" horiz-adv-x="592" 
d="M527 325.5q-43 -58.5 -122 -76.5l126 -249h-105l-115 238h-131l-34 -238h-93l91 648h157q122 0 195.5 -35t73.5 -139q0 -90 -43 -148.5zM361.5 324q42.5 8 72.5 34.5t39 79.5q2 18 2 31q0 43 -23 65t-59.5 28.5t-92.5 6.5h-74l-35 -253h65q63 0 105.5 8zM213 876h94
l62 -78l84 78h101l-198 -173z" />
    <glyph glyph-name="Rcommaaccent" unicode="&#x156;" horiz-adv-x="592" 
d="M527 325.5q-43 -58.5 -122 -76.5l126 -249h-105l-115 238h-131l-34 -238h-93l91 648h157q122 0 195.5 -35t73.5 -139q0 -90 -43 -148.5zM361.5 324q42.5 8 72.5 34.5t39 79.5q2 18 2 31q0 43 -23 65t-59.5 28.5t-92.5 6.5h-74l-35 -253h65q63 0 105.5 8zM253 -148
q-19 2 -30 12t-11 28q0 23 16.5 38.5t38.5 15.5q23 0 37.5 -14.5t14.5 -40.5q0 -31 -18.5 -57t-43.5 -41h-55q37 30 51 59z" />
    <glyph glyph-name="S" unicode="S" horiz-adv-x="495" 
d="M109 2q-43 12 -72 28l12 91q27 -20 69 -34t90 -14q68 0 102 31t34 84q0 37 -25 58.5t-77 47.5q-45 22 -72 40t-46.5 50t-19.5 79q0 91 59.5 143t160.5 52q46 0 88.5 -11t63.5 -24l-14 -89q-27 19 -65 30.5t-75 11.5q-59 0 -91.5 -30.5t-32.5 -75.5q0 -38 25.5 -59.5
t77.5 -46.5q46 -23 73.5 -41.5t47 -51t19.5 -81.5q0 -96 -63 -148t-171 -52q-55 0 -98 12z" />
    <glyph glyph-name="Sacute" unicode="&#x15a;" horiz-adv-x="495" 
d="M109 2q-43 12 -72 28l12 91q27 -20 69 -34t90 -14q68 0 102 31t34 84q0 37 -25 58.5t-77 47.5q-45 22 -72 40t-46.5 50t-19.5 79q0 91 59.5 143t160.5 52q46 0 88.5 -11t63.5 -24l-14 -89q-27 19 -65 30.5t-75 11.5q-59 0 -91.5 -30.5t-32.5 -75.5q0 -38 25.5 -59.5
t77.5 -46.5q46 -23 73.5 -41.5t47 -51t19.5 -81.5q0 -96 -63 -148t-171 -52q-55 0 -98 12zM397 876h120l-167 -164h-94z" />
    <glyph glyph-name="Sacute.loclPLK" horiz-adv-x="495" 
d="M109 2q-43 12 -72 28l12 91q27 -20 69 -34t90 -14q68 0 102 31t34 84q0 37 -25 58.5t-77 47.5q-45 22 -72 40t-46.5 50t-19.5 79q0 91 59.5 143t160.5 52q46 0 88.5 -11t63.5 -24l-14 -89q-27 19 -65 30.5t-75 11.5q-59 0 -91.5 -30.5t-32.5 -75.5q0 -38 25.5 -59.5
t77.5 -46.5q46 -23 73.5 -41.5t47 -51t19.5 -81.5q0 -96 -63 -148t-171 -52q-55 0 -98 12zM382 876h109l-118 -164h-92z" />
    <glyph glyph-name="Scaron" unicode="&#x160;" horiz-adv-x="495" 
d="M109 2q-43 12 -72 28l12 91q27 -20 69 -34t90 -14q68 0 102 31t34 84q0 37 -25 58.5t-77 47.5q-45 22 -72 40t-46.5 50t-19.5 79q0 91 59.5 143t160.5 52q46 0 88.5 -11t63.5 -24l-14 -89q-27 19 -65 30.5t-75 11.5q-59 0 -91.5 -30.5t-32.5 -75.5q0 -38 25.5 -59.5
t77.5 -46.5q46 -23 73.5 -41.5t47 -51t19.5 -81.5q0 -96 -63 -148t-171 -52q-55 0 -98 12zM180 876h94l62 -78l84 78h101l-198 -173z" />
    <glyph glyph-name="Scedilla" unicode="&#x15e;" horiz-adv-x="495" 
d="M109 2q-43 12 -72 28l12 91q27 -20 69 -34t90 -14q68 0 102 31t34 84q0 37 -25 58.5t-77 47.5q-45 22 -72 40t-46.5 50t-19.5 79q0 91 59.5 143t160.5 52q46 0 88.5 -11t63.5 -24l-14 -89q-27 19 -65 30.5t-75 11.5q-59 0 -91.5 -30.5t-32.5 -75.5q0 -38 25.5 -59.5
t77.5 -46.5q46 -23 73.5 -41.5t47 -51t19.5 -81.5q0 -96 -63 -148t-171 -52q-55 0 -98 12zM100 -195l7 50q9 -5 24 -9t32 -4q55 0 55 45q0 16 -9 25t-26 9q-27 0 -45 -20l-11 8l47 110h60l-29 -61q6 2 9 2q31 -1 50.5 -18t19.5 -51q0 -53 -32.5 -75.5t-84.5 -22.5
q-43 0 -67 12z" />
    <glyph glyph-name="Scircumflex" unicode="&#x15c;" horiz-adv-x="495" 
d="M109 2q-43 12 -72 28l12 91q27 -20 69 -34t90 -14q68 0 102 31t34 84q0 37 -25 58.5t-77 47.5q-45 22 -72 40t-46.5 50t-19.5 79q0 91 59.5 143t160.5 52q46 0 88.5 -11t63.5 -24l-14 -89q-27 19 -65 30.5t-75 11.5q-59 0 -91.5 -30.5t-32.5 -75.5q0 -38 25.5 -59.5
t77.5 -46.5q46 -23 73.5 -41.5t47 -51t19.5 -81.5q0 -96 -63 -148t-171 -52q-55 0 -98 12zM349 885l144 -173h-95l-62 79l-83 -79h-101z" />
    <glyph glyph-name="Scommaaccent" unicode="&#x218;" horiz-adv-x="495" 
d="M109 2q-43 12 -72 28l12 91q27 -20 69 -34t90 -14q68 0 102 31t34 84q0 37 -25 58.5t-77 47.5q-45 22 -72 40t-46.5 50t-19.5 79q0 91 59.5 143t160.5 52q46 0 88.5 -11t63.5 -24l-14 -89q-27 19 -65 30.5t-75 11.5q-59 0 -91.5 -30.5t-32.5 -75.5q0 -38 25.5 -59.5
t77.5 -46.5q46 -23 73.5 -41.5t47 -51t19.5 -81.5q0 -96 -63 -148t-171 -52q-55 0 -98 12zM171 -148q-19 2 -30 12t-11 28q0 23 16.5 38.5t38.5 15.5q23 0 37.5 -14.5t14.5 -40.5q0 -31 -18.5 -57t-43.5 -41h-55q37 30 51 59z" />
    <glyph glyph-name="uni1E9E" unicode="&#x1e9e;" horiz-adv-x="659" 
d="M638 637l-178 -243q66 -6 107.5 -49t41.5 -123q0 -111 -64 -171.5t-186 -60.5q-33 0 -67 5t-57 13l12 81q43 -18 110 -18q74 0 115.5 40t41.5 108q0 50 -30 78t-86 28q-31 0 -53.5 -7t-34.5 -16l-9 9l191 259h-266l-80 -570h-93l91 648h496z" />
    <glyph glyph-name="T" unicode="T" horiz-adv-x="553" 
d="M279 568h-191l12 80h472l-12 -80h-188l-80 -568h-94z" />
    <glyph glyph-name="Tbar" unicode="&#x166;" horiz-adv-x="553" 
d="M372 568l-33 -233h106l-11 -74h-105l-37 -261h-94l37 261h-108l11 74h108l33 233h-191l12 80h472l-12 -80h-188z" />
    <glyph glyph-name="Tcaron" unicode="&#x164;" horiz-adv-x="553" 
d="M279 568h-191l12 80h472l-12 -80h-188l-80 -568h-94zM198 876h94l62 -78l84 78h101l-198 -173z" />
    <glyph glyph-name="uni0162" unicode="&#x162;" horiz-adv-x="553" 
d="M279 568h-191l12 80h472l-12 -80h-188l-80 -568h-94zM218 -148q-19 2 -30 12t-11 28q0 23 16.5 38.5t38.5 15.5q23 0 37.5 -14.5t14.5 -40.5q0 -31 -18.5 -57t-43.5 -41h-55q37 30 51 59z" />
    <glyph glyph-name="uni021A" unicode="&#x21a;" horiz-adv-x="553" 
d="M279 568h-191l12 80h472l-12 -80h-188l-80 -568h-94zM218 -148q-19 2 -30 12t-11 28q0 23 16.5 38.5t38.5 15.5q23 0 37.5 -14.5t14.5 -40.5q0 -31 -18.5 -57t-43.5 -41h-55q37 30 51 59z" />
    <glyph glyph-name="U" unicode="U" horiz-adv-x="656" 
d="M134 43q-57 53 -57 156q0 35 8 91l50 358h94l-52 -368q-7 -49 -7 -76q0 -65 32 -97t103 -32q90 0 133 53.5t58 157.5l50 362h93l-54 -386q-16 -114 -74.5 -193t-206.5 -79q-113 0 -170 53z" />
    <glyph glyph-name="Uacute" unicode="&#xda;" horiz-adv-x="656" 
d="M134 43q-57 53 -57 156q0 35 8 91l50 358h94l-52 -368q-7 -49 -7 -76q0 -65 32 -97t103 -32q90 0 133 53.5t58 157.5l50 362h93l-54 -386q-16 -114 -74.5 -193t-206.5 -79q-113 0 -170 53zM466 876h120l-167 -164h-94z" />
    <glyph glyph-name="Ubreve" unicode="&#x16c;" horiz-adv-x="656" 
d="M134 43q-57 53 -57 156q0 35 8 91l50 358h94l-52 -368q-7 -49 -7 -76q0 -65 32 -97t103 -32q90 0 133 53.5t58 157.5l50 362h93l-54 -386q-16 -114 -74.5 -193t-206.5 -79q-113 0 -170 53zM282 738.5q-36 35.5 -36 96.5q0 24 4 41h69q-3 -12 -3 -28q0 -36 20 -54t64 -18
q53 0 80 24.5t33 75.5h72q-14 -173 -187 -173q-80 0 -116 35.5z" />
    <glyph glyph-name="Ucircumflex" unicode="&#xdb;" horiz-adv-x="656" 
d="M134 43q-57 53 -57 156q0 35 8 91l50 358h94l-52 -368q-7 -49 -7 -76q0 -65 32 -97t103 -32q90 0 133 53.5t58 157.5l50 362h93l-54 -386q-16 -114 -74.5 -193t-206.5 -79q-113 0 -170 53zM418 885l144 -173h-95l-62 79l-83 -79h-101z" />
    <glyph glyph-name="Udieresis" unicode="&#xdc;" horiz-adv-x="656" 
d="M134 43q-57 53 -57 156q0 35 8 91l50 358h94l-52 -368q-7 -49 -7 -76q0 -65 32 -97t103 -32q90 0 133 53.5t58 157.5l50 362h93l-54 -386q-16 -114 -74.5 -193t-206.5 -79q-113 0 -170 53zM262.5 747q-15.5 15 -15.5 40q0 28 19.5 47.5t46.5 19.5q25 0 40.5 -15.5
t15.5 -40.5q0 -30 -19.5 -48t-46.5 -18q-25 0 -40.5 15zM460 747q-15 15 -15 40q0 28 19 47.5t46 19.5q25 0 40.5 -15.5t15.5 -40.5q0 -30 -19 -48t-46 -18q-26 0 -41 15z" />
    <glyph glyph-name="Ugrave" unicode="&#xd9;" horiz-adv-x="656" 
d="M134 43q-57 53 -57 156q0 35 8 91l50 358h94l-52 -368q-7 -49 -7 -76q0 -65 32 -97t103 -32q90 0 133 53.5t58 157.5l50 362h93l-54 -386q-16 -114 -74.5 -193t-206.5 -79q-113 0 -170 53zM291 876h115l94 -164h-86z" />
    <glyph glyph-name="Uhungarumlaut" unicode="&#x170;" horiz-adv-x="656" 
d="M134 43q-57 53 -57 156q0 35 8 91l50 358h94l-52 -368q-7 -49 -7 -76q0 -65 32 -97t103 -32q90 0 133 53.5t58 157.5l50 362h93l-54 -386q-16 -114 -74.5 -193t-206.5 -79q-113 0 -170 53zM352 876h120l-155 -164h-91zM548 876h120l-155 -164h-91z" />
    <glyph glyph-name="Umacron" unicode="&#x16a;" horiz-adv-x="656" 
d="M134 43q-57 53 -57 156q0 35 8 91l50 358h94l-52 -368q-7 -49 -7 -76q0 -65 32 -97t103 -32q90 0 133 53.5t58 157.5l50 362h93l-54 -386q-16 -114 -74.5 -193t-206.5 -79q-113 0 -170 53zM266 830h294l-11 -73h-293z" />
    <glyph glyph-name="Uogonek" unicode="&#x172;" horiz-adv-x="656" 
d="M271.5 -186q-27.5 21 -27.5 66q0 39 22 68.5t55 43.5q-10 -2 -19 -2q-225 0 -225 209q0 35 8 91l50 358h94l-52 -368q-7 -49 -7 -78q0 -63 32 -95t104 -32q91 0 133 53.5t57 157.5l50 362h93l-54 -388q-12 -83 -39.5 -137t-85.5 -92l-52 -34q-51 -31 -74.5 -53.5
t-23.5 -55.5q0 -40 43 -40q18 0 34.5 5.5t23.5 10.5l-8 -60q-24 -11 -58 -11q-46 0 -73.5 21z" />
    <glyph glyph-name="Uring" unicode="&#x16e;" horiz-adv-x="656" 
d="M134 43q-57 53 -57 156q0 35 8 91l50 358h94l-52 -368q-7 -49 -7 -76q0 -65 32 -97t103 -32q90 0 133 53.5t58 157.5l50 362h93l-54 -386q-16 -114 -74.5 -193t-206.5 -79q-113 0 -170 53zM327.5 715.5q-26.5 25.5 -26.5 68.5q0 51 34 81.5t83 30.5q43 0 70 -25t27 -68
q0 -52 -33.5 -82.5t-83.5 -30.5q-44 0 -70.5 25.5zM444.5 756q16.5 16 16.5 42q0 22 -13 35.5t-35 13.5q-24 0 -41 -17t-17 -43q0 -22 13 -34.5t36 -12.5q24 0 40.5 16z" />
    <glyph glyph-name="Utilde" unicode="&#x168;" horiz-adv-x="656" 
d="M134 43q-57 53 -57 156q0 35 8 91l50 358h94l-52 -368q-7 -49 -7 -76q0 -65 32 -97t103 -32q90 0 133 53.5t58 157.5l50 362h93l-54 -386q-16 -114 -74.5 -193t-206.5 -79q-113 0 -170 53zM434 741.5q-17 7.5 -40 21.5q-18 12 -29.5 17.5t-26.5 5.5q-24 0 -36 -15.5
t-14 -31.5h-59q7 56 36 84.5t77 28.5q24 0 42 -7.5t41 -22.5q18 -12 29.5 -17.5t24.5 -5.5q22 0 33.5 15t13.5 33h59q-5 -53 -33.5 -83t-76.5 -30q-24 0 -41 7.5z" />
    <glyph glyph-name="V" unicode="V" horiz-adv-x="660" 
d="M82 648h101l139 -468l269 468h105l-394 -657h-10z" />
    <glyph glyph-name="W" unicode="W" horiz-adv-x="960" 
d="M90 648h101l102 -442l239 442h10l117 -442l224 442h105l-350 -657h-10l-118 450l-244 -450h-10z" />
    <glyph glyph-name="Wacute" unicode="&#x1e82;" horiz-adv-x="960" 
d="M90 648h101l102 -442l239 442h10l117 -442l224 442h105l-350 -657h-10l-118 450l-244 -450h-10zM618 876h120l-167 -164h-94z" />
    <glyph glyph-name="Wcircumflex" unicode="&#x174;" horiz-adv-x="960" 
d="M90 648h101l102 -442l239 442h10l117 -442l224 442h105l-350 -657h-10l-118 450l-244 -450h-10zM570 885l144 -173h-95l-62 79l-83 -79h-101z" />
    <glyph glyph-name="Wdieresis" unicode="&#x1e84;" horiz-adv-x="960" 
d="M90 648h101l102 -442l239 442h10l117 -442l224 442h105l-350 -657h-10l-118 450l-244 -450h-10zM414.5 747q-15.5 15 -15.5 40q0 28 19.5 47.5t46.5 19.5q25 0 40.5 -15.5t15.5 -40.5q0 -30 -19.5 -48t-46.5 -18q-25 0 -40.5 15zM612 747q-15 15 -15 40q0 28 19 47.5
t46 19.5q25 0 40.5 -15.5t15.5 -40.5q0 -30 -19 -48t-46 -18q-26 0 -41 15z" />
    <glyph glyph-name="Wgrave" unicode="&#x1e80;" horiz-adv-x="960" 
d="M90 648h101l102 -442l239 442h10l117 -442l224 442h105l-350 -657h-10l-118 450l-244 -450h-10zM398 876h115l94 -164h-86z" />
    <glyph glyph-name="X" unicode="X" horiz-adv-x="612" 
d="M266 332l-173 316h106l132 -250l200 250h111l-263 -317l179 -331h-106l-137 262l-211 -262h-113z" />
    <glyph glyph-name="Y" unicode="Y" horiz-adv-x="602" 
d="M257 256l-175 392h101l130 -310l222 310h104l-289 -392l-36 -256h-93z" />
    <glyph glyph-name="Yacute" unicode="&#xdd;" horiz-adv-x="602" 
d="M257 256l-175 392h101l130 -310l222 310h104l-289 -392l-36 -256h-93zM438 876h120l-167 -164h-94z" />
    <glyph glyph-name="Ycircumflex" unicode="&#x176;" horiz-adv-x="602" 
d="M257 256l-175 392h101l130 -310l222 310h104l-289 -392l-36 -256h-93zM390 885l144 -173h-95l-62 79l-83 -79h-101z" />
    <glyph glyph-name="Ydieresis" unicode="&#x178;" horiz-adv-x="602" 
d="M257 256l-175 392h101l130 -310l222 310h104l-289 -392l-36 -256h-93zM234.5 747q-15.5 15 -15.5 40q0 28 19.5 47.5t46.5 19.5q25 0 40.5 -15.5t15.5 -40.5q0 -30 -19.5 -48t-46.5 -18q-25 0 -40.5 15zM432 747q-15 15 -15 40q0 28 19 47.5t46 19.5q25 0 40.5 -15.5
t15.5 -40.5q0 -30 -19 -48t-46 -18q-26 0 -41 15z" />
    <glyph glyph-name="Ygrave" unicode="&#x1ef2;" horiz-adv-x="602" 
d="M257 256l-175 392h101l130 -310l222 310h104l-289 -392l-36 -256h-93zM263 876h115l94 -164h-86z" />
    <glyph glyph-name="Z" unicode="Z" horiz-adv-x="594" 
d="M15 10l423 558h-327l12 80h480l-2 -11l-421 -556h346l-12 -81h-500z" />
    <glyph glyph-name="Zacute" unicode="&#x179;" horiz-adv-x="594" 
d="M15 10l423 558h-327l12 80h480l-2 -11l-421 -556h346l-12 -81h-500zM433 876h120l-167 -164h-94z" />
    <glyph glyph-name="Zacute.loclPLK" horiz-adv-x="594" 
d="M15 10l423 558h-327l12 80h480l-2 -11l-421 -556h346l-12 -81h-500zM418 876h109l-118 -164h-92z" />
    <glyph glyph-name="Zcaron" unicode="&#x17d;" horiz-adv-x="594" 
d="M15 10l423 558h-327l12 80h480l-2 -11l-421 -556h346l-12 -81h-500zM216 876h94l62 -78l84 78h101l-198 -173z" />
    <glyph glyph-name="Zdotaccent" unicode="&#x17b;" horiz-adv-x="594" 
d="M15 10l423 558h-327l12 80h480l-2 -11l-421 -556h346l-12 -81h-500zM330 747q-15 15 -15 39q0 29 19 48t45 19q25 0 40.5 -15.5t15.5 -40.5q0 -29 -19 -47t-46 -18q-25 0 -40 15z" />
    <glyph glyph-name="a" unicode="a" horiz-adv-x="504" 
d="M400.5 419q41.5 -39 41.5 -105q0 -21 -6 -62l-35 -252h-82l6 53q-46 -62 -144 -62q-74 0 -114 34t-40 95q0 76 57 120.5t148 44.5q69 0 115 -26q4 23 4 42q0 83 -98 83q-42 0 -83 -13t-67 -28l12 80q33 15 70 25t90 10q84 0 125.5 -39zM294 89.5q34 34.5 42 90.5l2 13
q-15 13 -41 21t-59 8q-53 0 -85.5 -25t-32.5 -70q0 -35 23 -53.5t63 -18.5q54 0 88 34.5z" />
    <glyph glyph-name="aacute" unicode="&#xe1;" horiz-adv-x="504" 
d="M400.5 419q41.5 -39 41.5 -105q0 -21 -6 -62l-35 -252h-82l6 53q-46 -62 -144 -62q-74 0 -114 34t-40 95q0 76 57 120.5t148 44.5q69 0 115 -26q4 23 4 42q0 83 -98 83q-42 0 -83 -13t-67 -28l12 80q33 15 70 25t90 10q84 0 125.5 -39zM294 89.5q34 34.5 42 90.5l2 13
q-15 13 -41 21t-59 8q-53 0 -85.5 -25t-32.5 -70q0 -35 23 -53.5t63 -18.5q54 0 88 34.5zM350 684h119l-166 -164h-94z" />
    <glyph glyph-name="abreve" unicode="&#x103;" horiz-adv-x="504" 
d="M400.5 419q41.5 -39 41.5 -105q0 -21 -6 -62l-35 -252h-82l6 53q-46 -62 -144 -62q-74 0 -114 34t-40 95q0 76 57 120.5t148 44.5q69 0 115 -26q4 23 4 42q0 83 -98 83q-42 0 -83 -13t-67 -28l12 80q33 15 70 25t90 10q84 0 125.5 -39zM294 89.5q34 34.5 42 90.5l2 13
q-15 13 -41 21t-59 8q-53 0 -85.5 -25t-32.5 -70q0 -35 23 -53.5t63 -18.5q54 0 88 34.5zM179 546.5q-36 35.5 -36 96.5q0 24 4 41h68q-2 -16 -2 -29q0 -36 20.5 -54t63.5 -18q53 0 80 24.5t33 76.5h72q-14 -173 -187 -173q-80 0 -116 35.5z" />
    <glyph glyph-name="uni01CE" unicode="&#x1ce;" horiz-adv-x="504" 
d="M400.5 419q41.5 -39 41.5 -105q0 -21 -6 -62l-35 -252h-82l6 53q-46 -62 -144 -62q-74 0 -114 34t-40 95q0 76 57 120.5t148 44.5q69 0 115 -26q4 23 4 42q0 83 -98 83q-42 0 -83 -13t-67 -28l12 80q33 15 70 25t90 10q84 0 125.5 -39zM294 89.5q34 34.5 42 90.5l2 13
q-15 13 -41 21t-59 8q-53 0 -85.5 -25t-32.5 -70q0 -35 23 -53.5t63 -18.5q54 0 88 34.5zM145 684h94l61 -79l84 79h102l-198 -173z" />
    <glyph glyph-name="acircumflex" unicode="&#xe2;" horiz-adv-x="504" 
d="M400.5 419q41.5 -39 41.5 -105q0 -21 -6 -62l-35 -252h-82l6 53q-46 -62 -144 -62q-74 0 -114 34t-40 95q0 76 57 120.5t148 44.5q69 0 115 -26q4 23 4 42q0 83 -98 83q-42 0 -83 -13t-67 -28l12 80q33 15 70 25t90 10q84 0 125.5 -39zM294 89.5q34 34.5 42 90.5l2 13
q-15 13 -41 21t-59 8q-53 0 -85.5 -25t-32.5 -70q0 -35 23 -53.5t63 -18.5q54 0 88 34.5zM317 693l144 -172h-94l-63 78l-82 -78h-102z" />
    <glyph glyph-name="adieresis" unicode="&#xe4;" horiz-adv-x="504" 
d="M400.5 419q41.5 -39 41.5 -105q0 -21 -6 -62l-35 -252h-82l6 53q-46 -62 -144 -62q-74 0 -114 34t-40 95q0 76 57 120.5t148 44.5q69 0 115 -26q4 23 4 42q0 83 -98 83q-42 0 -83 -13t-67 -28l12 80q33 15 70 25t90 10q84 0 125.5 -39zM294 89.5q34 34.5 42 90.5l2 13
q-15 13 -41 21t-59 8q-53 0 -85.5 -25t-32.5 -70q0 -35 23 -53.5t63 -18.5q54 0 88 34.5zM164.5 568.5q-13.5 13.5 -13.5 34.5q0 26 18 43t44 17q21 0 34.5 -14t13.5 -34q0 -27 -17.5 -43.5t-43.5 -16.5q-22 0 -35.5 13.5zM360 568.5q-13 13.5 -13 34.5q0 26 18 43t43 17
q21 0 34.5 -14t13.5 -34q0 -27 -17.5 -43.5t-43.5 -16.5q-22 0 -35 13.5z" />
    <glyph glyph-name="agrave" unicode="&#xe0;" horiz-adv-x="504" 
d="M400.5 419q41.5 -39 41.5 -105q0 -21 -6 -62l-35 -252h-82l6 53q-46 -62 -144 -62q-74 0 -114 34t-40 95q0 76 57 120.5t148 44.5q69 0 115 -26q4 23 4 42q0 83 -98 83q-42 0 -83 -13t-67 -28l12 80q33 15 70 25t90 10q84 0 125.5 -39zM294 89.5q34 34.5 42 90.5l2 13
q-15 13 -41 21t-59 8q-53 0 -85.5 -25t-32.5 -70q0 -35 23 -53.5t63 -18.5q54 0 88 34.5zM170 684h115l94 -164h-86z" />
    <glyph glyph-name="amacron" unicode="&#x101;" horiz-adv-x="504" 
d="M400.5 419q41.5 -39 41.5 -105q0 -21 -6 -62l-35 -252h-82l6 53q-46 -62 -144 -62q-74 0 -114 34t-40 95q0 76 57 120.5t148 44.5q69 0 115 -26q4 23 4 42q0 83 -98 83q-42 0 -83 -13t-67 -28l12 80q33 15 70 25t90 10q84 0 125.5 -39zM294 89.5q34 34.5 42 90.5l2 13
q-15 13 -41 21t-59 8q-53 0 -85.5 -25t-32.5 -70q0 -35 23 -53.5t63 -18.5q54 0 88 34.5zM161 641h294l-10 -74h-294z" />
    <glyph glyph-name="aogonek" unicode="&#x105;" horiz-adv-x="504" 
d="M400.5 419q41.5 -39 41.5 -105q0 -21 -6 -62l-35 -252q-52 -12 -89 -44t-37 -71q0 -37 42 -37q33 0 59 16l-9 -60q-24 -11 -58 -11q-45 0 -73 20.5t-28 63.5q0 48 30.5 83t82.5 53l4 40q-21 -27 -56.5 -44.5t-87.5 -17.5q-74 0 -114 34t-40 95q0 76 57 120.5t148 44.5
q69 0 115 -26q4 23 4 42q0 83 -98 83q-42 0 -83 -13t-67 -28l12 80q33 15 70 25t90 10q84 0 125.5 -39zM294 89.5q34 34.5 42 90.5l2 13q-15 13 -41 21t-59 8q-53 0 -85.5 -25t-32.5 -70q0 -35 23 -53.5t63 -18.5q54 0 88 34.5z" />
    <glyph glyph-name="aring" unicode="&#xe5;" horiz-adv-x="504" 
d="M400.5 419q41.5 -39 41.5 -105q0 -21 -6 -62l-35 -252h-82l6 53q-46 -62 -144 -62q-74 0 -114 34t-40 95q0 76 57 120.5t148 44.5q69 0 115 -26q4 23 4 42q0 83 -98 83q-42 0 -83 -13t-67 -28l12 80q33 15 70 25t90 10q84 0 125.5 -39zM294 89.5q34 34.5 42 90.5l2 13
q-15 13 -41 21t-59 8q-53 0 -85.5 -25t-32.5 -70q0 -35 23 -53.5t63 -18.5q54 0 88 34.5zM224.5 535.5q-26.5 25.5 -26.5 68.5q0 51 34 81.5t83 30.5q43 0 69.5 -25t26.5 -68q0 -52 -33.5 -82.5t-82.5 -30.5q-44 0 -70.5 25.5zM341.5 576q16.5 16 16.5 42q0 22 -13.5 35.5
t-34.5 13.5q-24 0 -41 -17t-17 -43q0 -22 13 -34.5t35 -12.5q25 0 41.5 16z" />
    <glyph glyph-name="atilde" unicode="&#xe3;" horiz-adv-x="504" 
d="M400.5 419q41.5 -39 41.5 -105q0 -21 -6 -62l-35 -252h-82l6 53q-46 -62 -144 -62q-74 0 -114 34t-40 95q0 76 57 120.5t148 44.5q69 0 115 -26q4 23 4 42q0 83 -98 83q-42 0 -83 -13t-67 -28l12 80q33 15 70 25t90 10q84 0 125.5 -39zM294 89.5q34 34.5 42 90.5l2 13
q-15 13 -41 21t-59 8q-53 0 -85.5 -25t-32.5 -70q0 -35 23 -53.5t63 -18.5q54 0 88 34.5zM329 549.5q-18 7.5 -39 21.5q-17 12 -29.5 17.5t-26.5 5.5q-25 0 -36.5 -15.5t-13.5 -31.5h-60q7 56 36.5 84t77.5 28q24 0 42 -7.5t41 -22.5q15 -11 27 -16.5t26 -5.5q23 0 34 14.5
t13 32.5h60q-5 -53 -34 -82.5t-76 -29.5q-24 0 -42 7.5z" />
    <glyph glyph-name="ae" unicode="&#xe6;" horiz-adv-x="812" 
d="M428 192q-1 -5 -1 -15q0 -109 141 -109q52 0 95 12.5t73 28.5l-11 -82q-72 -36 -169 -36q-72 0 -122.5 22.5t-67.5 70.5q-20 -37 -65.5 -65t-111.5 -28q-81 0 -121.5 33.5t-40.5 95.5q0 76 57 120.5t148 44.5q69 0 115 -26q4 23 4 42q0 83 -98 83q-42 0 -83 -13t-67 -28
l12 80q33 15 70 25t90 10q61 0 95 -20.5t46 -50.5q25 32 70 51.5t99 19.5q92 0 141 -47t49 -127q0 -45 -12 -92h-335zM487.5 348.5q-39.5 -34.5 -51.5 -91.5h246q3 11 3 30q0 44 -28 70t-76 26q-54 0 -93.5 -34.5zM294 89.5q34 34.5 42 90.5l2 13q-15 13 -41 21t-59 8
q-53 0 -85.5 -25t-32.5 -70q0 -35 23 -53.5t63 -18.5q54 0 88 34.5z" />
    <glyph glyph-name="aeacute" unicode="&#x1fd;" horiz-adv-x="812" 
d="M428 192q-1 -5 -1 -15q0 -109 141 -109q52 0 95 12.5t73 28.5l-11 -82q-72 -36 -169 -36q-72 0 -122.5 22.5t-67.5 70.5q-20 -37 -65.5 -65t-111.5 -28q-81 0 -121.5 33.5t-40.5 95.5q0 76 57 120.5t148 44.5q69 0 115 -26q4 23 4 42q0 83 -98 83q-42 0 -83 -13t-67 -28
l12 80q33 15 70 25t90 10q61 0 95 -20.5t46 -50.5q25 32 70 51.5t99 19.5q92 0 141 -47t49 -127q0 -45 -12 -92h-335zM487.5 348.5q-39.5 -34.5 -51.5 -91.5h246q3 11 3 30q0 44 -28 70t-76 26q-54 0 -93.5 -34.5zM294 89.5q34 34.5 42 90.5l2 13q-15 13 -41 21t-59 8
q-53 0 -85.5 -25t-32.5 -70q0 -35 23 -53.5t63 -18.5q54 0 88 34.5zM521 684h119l-166 -164h-94z" />
    <glyph glyph-name="b" unicode="b" horiz-adv-x="582" 
d="M192.5 12.5q-40.5 21.5 -57.5 56.5l-12 -69h-83l93 663h90l-38 -266q31 29 71.5 45t86.5 16q92 0 146 -55t54 -145q0 -21 -3 -44q-9 -70 -44 -120t-88.5 -76.5t-116.5 -26.5q-58 0 -98.5 21.5zM370 94q38 25 58.5 68t20.5 94q0 59 -34.5 92t-93.5 33q-50 0 -88 -25.5
t-58.5 -68.5t-20.5 -95q0 -58 34 -90.5t93 -32.5q51 0 89 25z" />
    <glyph glyph-name="c" unicode="c" horiz-adv-x="443" 
d="M96 41.5q-58 50.5 -58 148.5q0 20 3 42q15 110 87.5 168t178.5 58q71 0 119 -26l-11 -82q-19 13 -46.5 22t-60.5 9q-67 0 -114.5 -40t-59.5 -115q-2 -16 -2 -29q0 -60 32.5 -94t96.5 -34q63 0 121 36l-12 -89q-19 -10 -51.5 -17.5t-69.5 -7.5q-95 0 -153 50.5z" />
    <glyph glyph-name="cacute" unicode="&#x107;" horiz-adv-x="443" 
d="M96 41.5q-58 50.5 -58 148.5q0 20 3 42q15 110 87.5 168t178.5 58q71 0 119 -26l-11 -82q-19 13 -46.5 22t-60.5 9q-67 0 -114.5 -40t-59.5 -115q-2 -16 -2 -29q0 -60 32.5 -94t96.5 -34q63 0 121 36l-12 -89q-19 -10 -51.5 -17.5t-69.5 -7.5q-95 0 -153 50.5zM377 684
h119l-166 -164h-94z" />
    <glyph glyph-name="cacute.loclPLK" horiz-adv-x="443" 
d="M96 41.5q-58 50.5 -58 148.5q0 20 3 42q15 110 87.5 168t178.5 58q71 0 119 -26l-11 -82q-19 13 -46.5 22t-60.5 9q-67 0 -114.5 -40t-59.5 -115q-2 -16 -2 -29q0 -60 32.5 -94t96.5 -34q63 0 121 36l-12 -89q-19 -10 -51.5 -17.5t-69.5 -7.5q-95 0 -153 50.5zM357 684
h109l-118 -164h-92z" />
    <glyph glyph-name="ccaron" unicode="&#x10d;" horiz-adv-x="443" 
d="M96 41.5q-58 50.5 -58 148.5q0 20 3 42q15 110 87.5 168t178.5 58q71 0 119 -26l-11 -82q-19 13 -46.5 22t-60.5 9q-67 0 -114.5 -40t-59.5 -115q-2 -16 -2 -29q0 -60 32.5 -94t96.5 -34q63 0 121 36l-12 -89q-19 -10 -51.5 -17.5t-69.5 -7.5q-95 0 -153 50.5zM172 684
h94l61 -79l84 79h102l-198 -173z" />
    <glyph glyph-name="ccedilla" unicode="&#xe7;" horiz-adv-x="443" 
d="M96 41.5q-58 50.5 -58 148.5q0 20 3 42q15 110 87.5 168t178.5 58q71 0 119 -26l-11 -82q-19 13 -46.5 22t-60.5 9q-67 0 -114.5 -40t-59.5 -115q-2 -16 -2 -29q0 -60 32.5 -94t96.5 -34q63 0 121 36l-12 -89q-19 -10 -51.5 -17.5t-69.5 -7.5q-95 0 -153 50.5zM122 -195
l7 50q9 -5 24 -9t32 -4q55 0 55 45q0 16 -9 25t-26 9q-27 0 -45 -20l-11 8l47 110h60l-29 -61q6 2 9 2q31 -1 50.5 -18t19.5 -51q0 -53 -32.5 -75.5t-84.5 -22.5q-43 0 -67 12z" />
    <glyph glyph-name="ccircumflex" unicode="&#x109;" horiz-adv-x="443" 
d="M96 41.5q-58 50.5 -58 148.5q0 20 3 42q15 110 87.5 168t178.5 58q71 0 119 -26l-11 -82q-19 13 -46.5 22t-60.5 9q-67 0 -114.5 -40t-59.5 -115q-2 -16 -2 -29q0 -60 32.5 -94t96.5 -34q63 0 121 36l-12 -89q-19 -10 -51.5 -17.5t-69.5 -7.5q-95 0 -153 50.5zM344 693
l144 -172h-94l-63 78l-82 -78h-102z" />
    <glyph glyph-name="cdotaccent" unicode="&#x10b;" horiz-adv-x="443" 
d="M96 41.5q-58 50.5 -58 148.5q0 20 3 42q15 110 87.5 168t178.5 58q71 0 119 -26l-11 -82q-19 13 -46.5 22t-60.5 9q-67 0 -114.5 -40t-59.5 -115q-2 -16 -2 -29q0 -60 32.5 -94t96.5 -34q63 0 121 36l-12 -89q-19 -10 -51.5 -17.5t-69.5 -7.5q-95 0 -153 50.5zM291 568.5
q-13 13.5 -13 34.5q0 26 18 43t44 17q21 0 34 -13.5t13 -34.5q0 -27 -17.5 -43.5t-42.5 -16.5q-23 0 -36 13.5z" />
    <glyph glyph-name="d" unicode="d" horiz-adv-x="582" 
d="M95 44.5q-56 53.5 -56 146.5q0 21 3 45q8 65 41.5 115.5t86.5 78.5t118 28q56 0 96.5 -19t58.5 -53l39 277h90l-93 -663h-83l6 60q-24 -31 -66 -50t-95 -19q-90 0 -146 53.5zM348 94.5q38 25.5 59 68t21 93.5q0 59 -33.5 92t-91.5 33q-50 0 -89 -24.5t-60.5 -67
t-21.5 -94.5q0 -58 33 -92t95 -34q50 0 88 25.5z" />
    <glyph glyph-name="eth" unicode="&#xf0;" horiz-adv-x="561" 
d="M94.5 44.5q-55.5 53.5 -55.5 149.5q0 20 3 41q9 64 43 114.5t89 79.5t123 29q46 0 80 -16.5t54 -41.5q-7 41 -26.5 77.5t-48.5 63.5l-83 -46l-29 50l59 33q-41 20 -107 31l9 68q48 -6 94 -23t77 -37l85 46l28 -50l-66 -35q52 -50 78.5 -119.5t26.5 -150.5q0 -35 -6 -73
q-17 -117 -88 -180.5t-180 -63.5q-104 0 -159.5 53.5zM366.5 110q47.5 41 58.5 116q3 14 3 30q0 58 -32.5 91.5t-91.5 33.5q-63 0 -107.5 -40t-58.5 -103q-6 -21 -6 -46q0 -57 33.5 -90t90.5 -33q63 0 110.5 41z" />
    <glyph glyph-name="dcaron" unicode="&#x10f;" horiz-adv-x="715" 
d="M95 44.5q-56 53.5 -56 146.5q0 21 3 45q8 65 41.5 115.5t86.5 78.5t118 28q56 0 96.5 -19t58.5 -53l39 277h90l-93 -663h-83l6 60q-24 -31 -66 -50t-95 -19q-90 0 -146 53.5zM348 94.5q38 25.5 59 68t21 93.5q0 59 -33.5 92t-91.5 33q-50 0 -89 -24.5t-60.5 -67
t-21.5 -94.5q0 -58 33 -92t95 -34q50 0 88 25.5zM686 575q-40 3 -40 39q0 24 16 39t38 15q23 0 37.5 -14t14.5 -41q0 -32 -21 -60.5t-51 -46.5h-55q47 37 61 69z" />
    <glyph glyph-name="dcroat" unicode="&#x111;" horiz-adv-x="561" 
d="M626 514h-75l-72 -514h-83l6 60q-24 -31 -66 -50t-95 -19q-90 0 -146 53.5t-56 146.5q0 21 3 45q8 65 41.5 115.5t86.5 78.5t118 28q56 0 96.5 -19t58.5 -53l18 128h-126l11 70h125l11 79h90l-11 -79h76zM348 94.5q38 25.5 59 68t21 93.5q0 59 -33.5 92t-91.5 33
q-50 0 -89 -24.5t-60.5 -67t-21.5 -94.5q0 -58 33 -92t95 -34q50 0 88 25.5z" />
    <glyph glyph-name="e" unicode="e" horiz-adv-x="516" 
d="M39 188q0 21 3 46q14 100 79 162t165 62q94 0 143.5 -47t49.5 -127q0 -45 -12 -92h-336v-13q0 -111 141 -111q52 0 95 12.5t73 28.5l-12 -82q-26 -14 -68.5 -25t-97.5 -11q-223 0 -223 197zM386 257q3 11 3 30q0 44 -28 70t-76 26q-54 0 -93.5 -34.5t-51.5 -91.5h246z
" />
    <glyph glyph-name="eacute" unicode="&#xe9;" horiz-adv-x="516" 
d="M39 188q0 21 3 46q14 100 79 162t165 62q94 0 143.5 -47t49.5 -127q0 -45 -12 -92h-336v-13q0 -111 141 -111q52 0 95 12.5t73 28.5l-12 -82q-26 -14 -68.5 -25t-97.5 -11q-223 0 -223 197zM386 257q3 11 3 30q0 44 -28 70t-76 26q-54 0 -93.5 -34.5t-51.5 -91.5h246z
M361 684h119l-166 -164h-94z" />
    <glyph glyph-name="ebreve" unicode="&#x115;" horiz-adv-x="516" 
d="M39 188q0 21 3 46q14 100 79 162t165 62q94 0 143.5 -47t49.5 -127q0 -45 -12 -92h-336v-13q0 -111 141 -111q52 0 95 12.5t73 28.5l-12 -82q-26 -14 -68.5 -25t-97.5 -11q-223 0 -223 197zM386 257q3 11 3 30q0 44 -28 70t-76 26q-54 0 -93.5 -34.5t-51.5 -91.5h246z
M190 546.5q-36 35.5 -36 96.5q0 24 4 41h68q-2 -16 -2 -29q0 -36 20.5 -54t63.5 -18q53 0 80 24.5t33 76.5h72q-14 -173 -187 -173q-80 0 -116 35.5z" />
    <glyph glyph-name="ecaron" unicode="&#x11b;" horiz-adv-x="516" 
d="M39 188q0 21 3 46q14 100 79 162t165 62q94 0 143.5 -47t49.5 -127q0 -45 -12 -92h-336v-13q0 -111 141 -111q52 0 95 12.5t73 28.5l-12 -82q-26 -14 -68.5 -25t-97.5 -11q-223 0 -223 197zM386 257q3 11 3 30q0 44 -28 70t-76 26q-54 0 -93.5 -34.5t-51.5 -91.5h246z
M156 684h94l61 -79l84 79h102l-198 -173z" />
    <glyph glyph-name="ecircumflex" unicode="&#xea;" horiz-adv-x="516" 
d="M39 188q0 21 3 46q14 100 79 162t165 62q94 0 143.5 -47t49.5 -127q0 -45 -12 -92h-336v-13q0 -111 141 -111q52 0 95 12.5t73 28.5l-12 -82q-26 -14 -68.5 -25t-97.5 -11q-223 0 -223 197zM386 257q3 11 3 30q0 44 -28 70t-76 26q-54 0 -93.5 -34.5t-51.5 -91.5h246z
M328 693l144 -172h-94l-63 78l-82 -78h-102z" />
    <glyph glyph-name="edieresis" unicode="&#xeb;" horiz-adv-x="516" 
d="M39 188q0 21 3 46q14 100 79 162t165 62q94 0 143.5 -47t49.5 -127q0 -45 -12 -92h-336v-13q0 -111 141 -111q52 0 95 12.5t73 28.5l-12 -82q-26 -14 -68.5 -25t-97.5 -11q-223 0 -223 197zM386 257q3 11 3 30q0 44 -28 70t-76 26q-54 0 -93.5 -34.5t-51.5 -91.5h246z
M175.5 568.5q-13.5 13.5 -13.5 34.5q0 26 18 43t44 17q21 0 34.5 -14t13.5 -34q0 -27 -17.5 -43.5t-43.5 -16.5q-22 0 -35.5 13.5zM371 568.5q-13 13.5 -13 34.5q0 26 18 43t43 17q21 0 34.5 -14t13.5 -34q0 -27 -17.5 -43.5t-43.5 -16.5q-22 0 -35 13.5z" />
    <glyph glyph-name="edotaccent" unicode="&#x117;" horiz-adv-x="516" 
d="M39 188q0 21 3 46q14 100 79 162t165 62q94 0 143.5 -47t49.5 -127q0 -45 -12 -92h-336v-13q0 -111 141 -111q52 0 95 12.5t73 28.5l-12 -82q-26 -14 -68.5 -25t-97.5 -11q-223 0 -223 197zM386 257q3 11 3 30q0 44 -28 70t-76 26q-54 0 -93.5 -34.5t-51.5 -91.5h246z
M275 568.5q-13 13.5 -13 34.5q0 26 18 43t44 17q21 0 34 -13.5t13 -34.5q0 -27 -17.5 -43.5t-42.5 -16.5q-23 0 -36 13.5z" />
    <glyph glyph-name="egrave" unicode="&#xe8;" horiz-adv-x="516" 
d="M39 188q0 21 3 46q14 100 79 162t165 62q94 0 143.5 -47t49.5 -127q0 -45 -12 -92h-336v-13q0 -111 141 -111q52 0 95 12.5t73 28.5l-12 -82q-26 -14 -68.5 -25t-97.5 -11q-223 0 -223 197zM386 257q3 11 3 30q0 44 -28 70t-76 26q-54 0 -93.5 -34.5t-51.5 -91.5h246z
M181 684h115l94 -164h-86z" />
    <glyph glyph-name="emacron" unicode="&#x113;" horiz-adv-x="516" 
d="M39 188q0 21 3 46q14 100 79 162t165 62q94 0 143.5 -47t49.5 -127q0 -45 -12 -92h-336v-13q0 -111 141 -111q52 0 95 12.5t73 28.5l-12 -82q-26 -14 -68.5 -25t-97.5 -11q-223 0 -223 197zM386 257q3 11 3 30q0 44 -28 70t-76 26q-54 0 -93.5 -34.5t-51.5 -91.5h246z
M172 641h294l-10 -74h-294z" />
    <glyph glyph-name="eogonek" unicode="&#x119;" horiz-adv-x="516" 
d="M131 192v-13q0 -111 141 -111q52 0 96 13t73 29l-13 -83q-74 -29 -119.5 -63.5t-45.5 -78.5q0 -37 43 -37q32 0 58 16l-9 -60q-22 -11 -58 -11q-44 0 -72 20.5t-28 63.5q0 36 19 67.5t53 46.5q-111 0 -170.5 45t-59.5 151q0 20 3 45q14 100 79 163t165 63q94 0 143.5 -47
t49.5 -127q0 -45 -12 -92h-336zM191.5 348.5q-39.5 -34.5 -51.5 -91.5h246q3 21 3 30q0 44 -28 70t-76 26q-54 0 -93.5 -34.5z" />
    <glyph glyph-name="f" unicode="f" horiz-adv-x="353" 
d="M129 376h-76l10 73h76l5 39q14 92 57.5 140.5t135.5 48.5q56 0 90 -17l-11 -76q-30 15 -73 15q-51 0 -76 -30t-34 -93l-4 -27h125l-11 -73h-124l-53 -376h-90z" />
    <glyph glyph-name="g" unicode="g" horiz-adv-x="581" 
d="M79 -187l12 78q51 -21 119 -21q88 0 130.5 46t54.5 133l3 19q-23 -30 -63.5 -49t-94.5 -19q-93 0 -146.5 53t-53.5 147q0 20 3 41q13 99 81.5 158t167.5 59q57 0 97 -22t59 -58l12 71h82l-57 -409q-19 -131 -83 -189t-190 -58q-86 0 -133 20zM346 103.5
q38 24.5 58.5 65.5t20.5 89q0 58 -33.5 90.5t-89.5 32.5q-49 0 -87.5 -24t-60 -64.5t-21.5 -89.5q0 -57 34 -90.5t93 -33.5q48 0 86 24.5z" />
    <glyph glyph-name="gbreve" unicode="&#x11f;" horiz-adv-x="581" 
d="M79 -187l12 78q51 -21 119 -21q88 0 130.5 46t54.5 133l3 19q-23 -30 -63.5 -49t-94.5 -19q-93 0 -146.5 53t-53.5 147q0 20 3 41q13 99 81.5 158t167.5 59q57 0 97 -22t59 -58l12 71h82l-57 -409q-19 -131 -83 -189t-190 -58q-86 0 -133 20zM346 103.5
q38 24.5 58.5 65.5t20.5 89q0 58 -33.5 90.5t-89.5 32.5q-49 0 -87.5 -24t-60 -64.5t-21.5 -89.5q0 -57 34 -90.5t93 -33.5q48 0 86 24.5zM212 546.5q-36 35.5 -36 96.5q0 24 4 41h68q-2 -16 -2 -29q0 -36 20.5 -54t63.5 -18q53 0 80 24.5t33 76.5h72q-14 -173 -187 -173
q-80 0 -116 35.5z" />
    <glyph glyph-name="gcircumflex" unicode="&#x11d;" horiz-adv-x="581" 
d="M79 -187l12 78q51 -21 119 -21q88 0 130.5 46t54.5 133l3 19q-23 -30 -63.5 -49t-94.5 -19q-93 0 -146.5 53t-53.5 147q0 20 3 41q13 99 81.5 158t167.5 59q57 0 97 -22t59 -58l12 71h82l-57 -409q-19 -131 -83 -189t-190 -58q-86 0 -133 20zM346 103.5
q38 24.5 58.5 65.5t20.5 89q0 58 -33.5 90.5t-89.5 32.5q-49 0 -87.5 -24t-60 -64.5t-21.5 -89.5q0 -57 34 -90.5t93 -33.5q48 0 86 24.5zM350 693l144 -172h-94l-63 78l-82 -78h-102z" />
    <glyph glyph-name="gcommaaccent" unicode="&#x123;" horiz-adv-x="581" 
d="M79 -187l12 78q51 -21 119 -21q88 0 130.5 46t54.5 133l3 19q-23 -30 -63.5 -49t-94.5 -19q-93 0 -146.5 53t-53.5 147q0 20 3 41q13 99 81.5 158t167.5 59q57 0 97 -22t59 -58l12 71h82l-57 -409q-19 -131 -83 -189t-190 -58q-86 0 -133 20zM346 103.5
q38 24.5 58.5 65.5t20.5 89q0 58 -33.5 90.5t-89.5 32.5q-49 0 -87.5 -24t-60 -64.5t-21.5 -89.5q0 -57 34 -90.5t93 -33.5q48 0 86 24.5zM331 613q40 -3 40 -39q0 -24 -16 -39t-38 -15q-23 0 -37.5 14t-14.5 41q0 32 21 60.5t51 46.5h55q-47 -37 -61 -69z" />
    <glyph glyph-name="gdotaccent" unicode="&#x121;" horiz-adv-x="581" 
d="M79 -187l12 78q51 -21 119 -21q88 0 130.5 46t54.5 133l3 19q-23 -30 -63.5 -49t-94.5 -19q-93 0 -146.5 53t-53.5 147q0 20 3 41q13 99 81.5 158t167.5 59q57 0 97 -22t59 -58l12 71h82l-57 -409q-19 -131 -83 -189t-190 -58q-86 0 -133 20zM346 103.5
q38 24.5 58.5 65.5t20.5 89q0 58 -33.5 90.5t-89.5 32.5q-49 0 -87.5 -24t-60 -64.5t-21.5 -89.5q0 -57 34 -90.5t93 -33.5q48 0 86 24.5zM297 568.5q-13 13.5 -13 34.5q0 26 18 43t44 17q21 0 34 -13.5t13 -34.5q0 -27 -17.5 -43.5t-42.5 -16.5q-23 0 -36 13.5z" />
    <glyph glyph-name="h" unicode="h" horiz-adv-x="538" 
d="M133 663h90l-38 -267q24 30 61 46t83 16q73 0 114 -38t41 -107q0 -24 -6 -63l-35 -250h-90l35 247q5 45 5 55q0 79 -86 79q-69 0 -102.5 -43.5t-44.5 -126.5l-30 -211h-90z" />
    <glyph glyph-name="hbar" unicode="&#x127;" horiz-adv-x="552" 
d="M457 420q41 -38 41 -107q0 -24 -6 -63l-35 -250h-90l35 247q5 45 5 55q0 79 -86 79q-69 0 -102.5 -43.5t-44.5 -126.5l-30 -211h-90l72 514h-77l11 70h76l11 79h90l-11 -79h125l-11 -70h-124l-17 -118q24 30 61 46t83 16q73 0 114 -38z" />
    <glyph glyph-name="hcircumflex" unicode="&#x125;" horiz-adv-x="538" 
d="M133 663h90l-38 -267q24 30 61 46t83 16q73 0 114 -38t41 -107q0 -24 -6 -63l-35 -250h-90l35 247q5 45 5 55q0 79 -86 79q-69 0 -102.5 -43.5t-44.5 -126.5l-30 -211h-90zM206 885l144 -173h-95l-62 79l-83 -79h-101z" />
    <glyph glyph-name="i" unicode="i" horiz-adv-x="239" 
d="M135.5 568.5q-13.5 13.5 -13.5 35.5q0 27 17 43t42 16q22 0 36 -13t14 -36q0 -28 -17 -43.5t-42 -15.5q-23 0 -36.5 13.5zM99 376h-62l11 73h151l-62 -449h-90z" />
    <glyph glyph-name="dotlessi" unicode="&#x131;" horiz-adv-x="239" 
d="M99 376h-62l11 73h151l-62 -449h-90z" />
    <glyph glyph-name="iacute" unicode="&#xed;" horiz-adv-x="239" 
d="M99 376h-62l11 73h151l-62 -449h-90zM210 684h119l-166 -164h-94z" />
    <glyph glyph-name="iacute_j.loclNLD" horiz-adv-x="478" 
d="M99 376h-62l11 73h151l-62 -449h-90zM210 684h119l-166 -164h-94zM133 -203q-23 4 -37 10l11 73q26 -12 66 -12q41 0 63.5 18t33 49t18.5 83l50 358h-62l11 73h152l-62 -438q-9 -70 -25.5 -115t-56.5 -74t-113 -29q-26 0 -49 4zM462 684h119l-166 -164h-94z" />
    <glyph glyph-name="ibreve" unicode="&#x12d;" horiz-adv-x="239" 
d="M99 376h-62l11 73h151l-62 -449h-90zM39 546.5q-36 35.5 -36 96.5q0 24 4 41h68q-2 -16 -2 -29q0 -36 20.5 -54t63.5 -18q53 0 80 24.5t33 76.5h72q-14 -173 -187 -173q-80 0 -116 35.5z" />
    <glyph glyph-name="icircumflex" unicode="&#xee;" horiz-adv-x="239" 
d="M99 376h-62l11 73h151l-62 -449h-90zM177 693l144 -172h-94l-63 78l-82 -78h-102z" />
    <glyph glyph-name="idieresis" unicode="&#xef;" horiz-adv-x="239" 
d="M99 376h-62l11 73h151l-62 -449h-90zM24.5 568.5q-13.5 13.5 -13.5 34.5q0 26 18 43t44 17q21 0 34.5 -14t13.5 -34q0 -27 -17.5 -43.5t-43.5 -16.5q-22 0 -35.5 13.5zM220 568.5q-13 13.5 -13 34.5q0 26 18 43t43 17q21 0 34.5 -14t13.5 -34q0 -27 -17.5 -43.5
t-43.5 -16.5q-22 0 -35 13.5z" />
    <glyph glyph-name="i.loclTRK" horiz-adv-x="239" 
d="M99 376h-62l11 73h151l-62 -449h-90zM127 568.5q-13 13.5 -13 34.5q0 26 18 43t44 17q21 0 34 -13.5t13 -34.5q0 -27 -17.5 -43.5t-42.5 -16.5q-23 0 -36 13.5z" />
    <glyph glyph-name="igrave" unicode="&#xec;" horiz-adv-x="239" 
d="M99 376h-62l11 73h151l-62 -449h-90zM30 684h115l94 -164h-86z" />
    <glyph glyph-name="ij" unicode="&#x133;" horiz-adv-x="478" 
d="M135.5 568.5q-13.5 13.5 -13.5 35.5q0 27 17 43t42 16q22 0 36 -13t14 -36q0 -28 -17 -43.5t-42 -15.5q-23 0 -36.5 13.5zM99 376h-62l11 73h151l-62 -449h-90zM374.5 568.5q-13.5 13.5 -13.5 35.5q0 27 17 43t42 16q22 0 36 -13t14 -36q0 -28 -17 -43.5t-42 -15.5
q-23 0 -36.5 13.5zM133 -203q-23 4 -37 10l11 73q26 -12 66 -12q41 0 63.5 18t33 49t18.5 83l50 358h-62l11 73h152l-62 -438q-9 -70 -25.5 -115t-56.5 -74t-113 -29q-26 0 -49 4z" />
    <glyph glyph-name="imacron" unicode="&#x12b;" horiz-adv-x="239" 
d="M99 376h-62l11 73h151l-62 -449h-90zM21 641h294l-10 -74h-294z" />
    <glyph glyph-name="iogonek" unicode="&#x12f;" horiz-adv-x="239" 
d="M217 650q14 -13 14 -36q0 -28 -17 -43.5t-42 -15.5q-23 0 -36.5 13.5t-13.5 35.5q0 27 17 43t42 16q22 0 36 -13zM47 449h152l-63 -449q-53 -16 -88 -46.5t-35 -68.5q0 -37 43 -37q33 0 59 16l-9 -60q-24 -11 -58 -11q-45 0 -73 20.5t-28 63.5q0 46 27 79.5t73 52.5
l52 367h-63z" />
    <glyph glyph-name="itilde" unicode="&#x129;" horiz-adv-x="239" 
d="M99 376h-62l11 73h151l-62 -449h-90zM189 549.5q-18 7.5 -39 21.5q-17 12 -29.5 17.5t-26.5 5.5q-25 0 -36.5 -15.5t-13.5 -31.5h-60q7 56 36.5 84t77.5 28q24 0 42 -7.5t41 -22.5q15 -11 27 -16.5t26 -5.5q23 0 34 14.5t13 32.5h60q-5 -53 -34 -82.5t-76 -29.5
q-24 0 -42 7.5z" />
    <glyph glyph-name="j" unicode="j" horiz-adv-x="239" 
d="M135.5 568.5q-13.5 13.5 -13.5 35.5q0 27 17 43t42 16q22 0 36 -13t14 -36q0 -28 -17 -43.5t-42 -15.5q-23 0 -36.5 13.5zM-106 -203q-23 4 -37 10l11 73q26 -12 66 -12q41 0 63.5 18t33 49t18.5 83l50 358h-62l11 73h152l-62 -438q-9 -70 -25.5 -115t-56.5 -74t-113 -29
q-26 0 -49 4z" />
    <glyph glyph-name="uni0237" unicode="&#x237;" horiz-adv-x="239" 
d="M-106 -203q-23 4 -37 10l11 73q26 -12 66 -12q41 0 63.5 18t33 49t18.5 83l50 358h-62l11 73h152l-62 -438q-9 -70 -25.5 -115t-56.5 -74t-113 -29q-26 0 -49 4z" />
    <glyph glyph-name="jcircumflex" unicode="&#x135;" horiz-adv-x="239" 
d="M-106 -203q-23 4 -37 10l11 73q26 -12 66 -12q41 0 63.5 18t33 49t18.5 83l50 358h-62l11 73h152l-62 -438q-9 -70 -25.5 -115t-56.5 -74t-113 -29q-26 0 -49 4zM190 693l144 -172h-94l-63 78l-82 -78h-102z" />
    <glyph glyph-name="k" unicode="k" horiz-adv-x="490" 
d="M133 663h90l-59 -419l228 205h116l-246 -215l185 -234h-110l-175 230l-32 -230h-90z" />
    <glyph glyph-name="kcommaaccent" unicode="&#x137;" horiz-adv-x="490" 
d="M133 663h90l-59 -419l228 205h116l-246 -215l185 -234h-110l-175 230l-32 -230h-90zM200 -148q-19 2 -30 12t-11 28q0 23 16.5 38.5t38.5 15.5q23 0 37.5 -14.5t14.5 -40.5q0 -31 -18.5 -57t-43.5 -41h-55q37 30 51 59z" />
    <glyph glyph-name="kgreenlandic" unicode="&#x138;" horiz-adv-x="489" 
d="M103 449h90l-30 -212l228 212h116l-244 -221l186 -228h-110l-178 222l-31 -222h-90z" />
    <glyph glyph-name="l" unicode="l" horiz-adv-x="232" 
d="M133 663h90l-93 -663h-90z" />
    <glyph glyph-name="lacute" unicode="&#x13a;" horiz-adv-x="232" 
d="M133 663h90l-93 -663h-90zM287 898h119l-166 -164h-94z" />
    <glyph glyph-name="lcaron" unicode="&#x13e;" horiz-adv-x="371" 
d="M133 663h90l-93 -663h-90zM342 575q-40 3 -40 39q0 24 16 39t38 15q23 0 37.5 -14t14.5 -41q0 -32 -21 -60.5t-51 -46.5h-55q47 37 61 69z" />
    <glyph glyph-name="lcommaaccent" unicode="&#x13c;" horiz-adv-x="232" 
d="M133 663h90l-93 -663h-90zM58 -148q-19 2 -30 12t-11 28q0 23 16.5 38.5t38.5 15.5q23 0 37.5 -14.5t14.5 -40.5q0 -31 -18.5 -57t-43.5 -41h-55q37 30 51 59z" />
    <glyph glyph-name="ldot" unicode="&#x140;" horiz-adv-x="420" 
d="M133 663h90l-93 -663h-90zM299 293.5q-13 13.5 -13 34.5q0 26 18 43t44 17q21 0 34 -13.5t13 -34.5q0 -27 -17.5 -43.5t-42.5 -16.5q-23 0 -36 13.5z" />
    <glyph glyph-name="lslash" unicode="&#x142;" horiz-adv-x="311" 
d="M117 276l-84 -46l11 75l84 46l43 312h90l-38 -273l85 47l-11 -77l-84 -43l-45 -317h-90z" />
    <glyph glyph-name="m" unicode="m" horiz-adv-x="805" 
d="M103 449h82l-6 -60q22 31 57 50t83 19q104 0 128 -81q23 37 61 59t91 22q73 0 113 -37t40 -106q0 -17 -4 -45l-38 -270h-90l35 252q6 40 6 55q0 74 -74 74q-58 0 -92 -42.5t-45 -127.5l-30 -211h-90l35 252q6 40 6 55q0 74 -74 74q-59 0 -92.5 -42.5t-44.5 -127.5
l-30 -211h-90z" />
    <glyph glyph-name="n" unicode="n" horiz-adv-x="538" 
d="M103 449h82l-6 -62q24 34 62 52.5t88 18.5q73 0 114 -38t41 -107q0 -24 -6 -63l-35 -250h-90l35 247q5 45 5 55q0 79 -86 79q-69 0 -102.5 -43.5t-44.5 -126.5l-30 -211h-90z" />
    <glyph glyph-name="nacute" unicode="&#x144;" horiz-adv-x="538" 
d="M103 449h82l-6 -62q24 34 62 52.5t88 18.5q73 0 114 -38t41 -107q0 -24 -6 -63l-35 -250h-90l35 247q5 45 5 55q0 79 -86 79q-69 0 -102.5 -43.5t-44.5 -126.5l-30 -211h-90zM388 684h119l-166 -164h-94z" />
    <glyph glyph-name="nacute.loclPLK" horiz-adv-x="538" 
d="M103 449h82l-6 -62q24 34 62 52.5t88 18.5q73 0 114 -38t41 -107q0 -24 -6 -63l-35 -250h-90l35 247q5 45 5 55q0 79 -86 79q-69 0 -102.5 -43.5t-44.5 -126.5l-30 -211h-90zM368 684h109l-118 -164h-92z" />
    <glyph glyph-name="ncaron" unicode="&#x148;" horiz-adv-x="538" 
d="M103 449h82l-6 -62q24 34 62 52.5t88 18.5q73 0 114 -38t41 -107q0 -24 -6 -63l-35 -250h-90l35 247q5 45 5 55q0 79 -86 79q-69 0 -102.5 -43.5t-44.5 -126.5l-30 -211h-90zM183 684h94l61 -79l84 79h102l-198 -173z" />
    <glyph glyph-name="ncommaaccent" unicode="&#x146;" horiz-adv-x="538" 
d="M103 449h82l-6 -62q24 34 62 52.5t88 18.5q73 0 114 -38t41 -107q0 -24 -6 -63l-35 -250h-90l35 247q5 45 5 55q0 79 -86 79q-69 0 -102.5 -43.5t-44.5 -126.5l-30 -211h-90zM213 -148q-19 2 -30 12t-11 28q0 23 16.5 38.5t38.5 15.5q23 0 37.5 -14.5t14.5 -40.5
q0 -31 -18.5 -57t-43.5 -41h-55q37 30 51 59z" />
    <glyph glyph-name="eng" unicode="&#x14b;" horiz-adv-x="538" 
d="M209 -199l10 71q17 -5 37 -5q37 0 56.5 17.5t27.5 47t15 85.5l33 230q5 45 5 55q0 79 -86 79q-69 0 -102.5 -43.5t-44.5 -126.5l-30 -211h-90l63 449h82l-6 -62q24 34 62 52.5t88 18.5q73 0 114 -38t41 -107q0 -24 -6 -63l-37 -262q-8 -60 -22 -100t-49 -67.5t-100 -27.5
q-40 0 -61 8z" />
    <glyph glyph-name="ntilde" unicode="&#xf1;" horiz-adv-x="538" 
d="M103 449h82l-6 -62q24 34 62 52.5t88 18.5q73 0 114 -38t41 -107q0 -24 -6 -63l-35 -250h-90l35 247q5 45 5 55q0 79 -86 79q-69 0 -102.5 -43.5t-44.5 -126.5l-30 -211h-90zM367 549.5q-18 7.5 -39 21.5q-17 12 -29.5 17.5t-26.5 5.5q-25 0 -36.5 -15.5t-13.5 -31.5h-60
q7 56 36.5 84t77.5 28q24 0 42 -7.5t41 -22.5q15 -11 27 -16.5t26 -5.5q23 0 34 14.5t13 32.5h60q-5 -53 -34 -82.5t-76 -29.5q-24 0 -42 7.5z" />
    <glyph glyph-name="o" unicode="o" horiz-adv-x="562" 
d="M93 46q-54 55 -54 147q0 21 3 42q15 100 85.5 161.5t180.5 61.5q98 0 156.5 -51t58.5 -149q0 -21 -3 -42q-15 -104 -87 -164.5t-181 -60.5q-105 0 -159 55zM346 94.5q39 25.5 60.5 68t21.5 93.5q0 58 -33 91.5t-90 33.5q-50 0 -89.5 -26t-61 -69.5t-21.5 -94.5
q0 -56 33.5 -89t89.5 -33q51 0 90 25.5z" />
    <glyph glyph-name="oacute" unicode="&#xf3;" horiz-adv-x="562" 
d="M93 46q-54 55 -54 147q0 21 3 42q15 100 85.5 161.5t180.5 61.5q98 0 156.5 -51t58.5 -149q0 -21 -3 -42q-15 -104 -87 -164.5t-181 -60.5q-105 0 -159 55zM346 94.5q39 25.5 60.5 68t21.5 93.5q0 58 -33 91.5t-90 33.5q-50 0 -89.5 -26t-61 -69.5t-21.5 -94.5
q0 -56 33.5 -89t89.5 -33q51 0 90 25.5zM380 684h119l-166 -164h-94z" />
    <glyph glyph-name="oacute.loclPLK" horiz-adv-x="562" 
d="M93 46q-54 55 -54 147q0 21 3 42q15 100 85.5 161.5t180.5 61.5q98 0 156.5 -51t58.5 -149q0 -21 -3 -42q-15 -104 -87 -164.5t-181 -60.5q-105 0 -159 55zM346 94.5q39 25.5 60.5 68t21.5 93.5q0 58 -33 91.5t-90 33.5q-50 0 -89.5 -26t-61 -69.5t-21.5 -94.5
q0 -56 33.5 -89t89.5 -33q51 0 90 25.5zM360 684h109l-118 -164h-92z" />
    <glyph glyph-name="obreve" unicode="&#x14f;" horiz-adv-x="562" 
d="M93 46q-54 55 -54 147q0 21 3 42q15 100 85.5 161.5t180.5 61.5q98 0 156.5 -51t58.5 -149q0 -21 -3 -42q-15 -104 -87 -164.5t-181 -60.5q-105 0 -159 55zM346 94.5q39 25.5 60.5 68t21.5 93.5q0 58 -33 91.5t-90 33.5q-50 0 -89.5 -26t-61 -69.5t-21.5 -94.5
q0 -56 33.5 -89t89.5 -33q51 0 90 25.5zM209 546.5q-36 35.5 -36 96.5q0 24 4 41h68q-2 -16 -2 -29q0 -36 20.5 -54t63.5 -18q53 0 80 24.5t33 76.5h72q-14 -173 -187 -173q-80 0 -116 35.5z" />
    <glyph glyph-name="ocircumflex" unicode="&#xf4;" horiz-adv-x="562" 
d="M93 46q-54 55 -54 147q0 21 3 42q15 100 85.5 161.5t180.5 61.5q98 0 156.5 -51t58.5 -149q0 -21 -3 -42q-15 -104 -87 -164.5t-181 -60.5q-105 0 -159 55zM346 94.5q39 25.5 60.5 68t21.5 93.5q0 58 -33 91.5t-90 33.5q-50 0 -89.5 -26t-61 -69.5t-21.5 -94.5
q0 -56 33.5 -89t89.5 -33q51 0 90 25.5zM347 693l144 -172h-94l-63 78l-82 -78h-102z" />
    <glyph glyph-name="odieresis" unicode="&#xf6;" horiz-adv-x="562" 
d="M93 46q-54 55 -54 147q0 21 3 42q15 100 85.5 161.5t180.5 61.5q98 0 156.5 -51t58.5 -149q0 -21 -3 -42q-15 -104 -87 -164.5t-181 -60.5q-105 0 -159 55zM346 94.5q39 25.5 60.5 68t21.5 93.5q0 58 -33 91.5t-90 33.5q-50 0 -89.5 -26t-61 -69.5t-21.5 -94.5
q0 -56 33.5 -89t89.5 -33q51 0 90 25.5zM194.5 568.5q-13.5 13.5 -13.5 34.5q0 26 18 43t44 17q21 0 34.5 -14t13.5 -34q0 -27 -17.5 -43.5t-43.5 -16.5q-22 0 -35.5 13.5zM390 568.5q-13 13.5 -13 34.5q0 26 18 43t43 17q21 0 34.5 -14t13.5 -34q0 -27 -17.5 -43.5
t-43.5 -16.5q-22 0 -35 13.5z" />
    <glyph glyph-name="ograve" unicode="&#xf2;" horiz-adv-x="562" 
d="M93 46q-54 55 -54 147q0 21 3 42q15 100 85.5 161.5t180.5 61.5q98 0 156.5 -51t58.5 -149q0 -21 -3 -42q-15 -104 -87 -164.5t-181 -60.5q-105 0 -159 55zM346 94.5q39 25.5 60.5 68t21.5 93.5q0 58 -33 91.5t-90 33.5q-50 0 -89.5 -26t-61 -69.5t-21.5 -94.5
q0 -56 33.5 -89t89.5 -33q51 0 90 25.5zM200 684h115l94 -164h-86z" />
    <glyph glyph-name="ohungarumlaut" unicode="&#x151;" horiz-adv-x="562" 
d="M93 46q-54 55 -54 147q0 21 3 42q15 100 85.5 161.5t180.5 61.5q98 0 156.5 -51t58.5 -149q0 -21 -3 -42q-15 -104 -87 -164.5t-181 -60.5q-105 0 -159 55zM346 94.5q39 25.5 60.5 68t21.5 93.5q0 58 -33 91.5t-90 33.5q-50 0 -89.5 -26t-61 -69.5t-21.5 -94.5
q0 -56 33.5 -89t89.5 -33q51 0 90 25.5zM311 684h111l-138 -164h-90zM494 684h110l-137 -164h-91z" />
    <glyph glyph-name="omacron" unicode="&#x14d;" horiz-adv-x="562" 
d="M93 46q-54 55 -54 147q0 21 3 42q15 100 85.5 161.5t180.5 61.5q98 0 156.5 -51t58.5 -149q0 -21 -3 -42q-15 -104 -87 -164.5t-181 -60.5q-105 0 -159 55zM346 94.5q39 25.5 60.5 68t21.5 93.5q0 58 -33 91.5t-90 33.5q-50 0 -89.5 -26t-61 -69.5t-21.5 -94.5
q0 -56 33.5 -89t89.5 -33q51 0 90 25.5zM191 641h294l-10 -74h-294z" />
    <glyph glyph-name="oslash" unicode="&#xf8;" horiz-adv-x="562" 
d="M94 45q-55 55 -55 148q0 21 3 42q15 100 85.5 161.5t180.5 61.5q65 0 112 -24l38 45h75l-64 -76q54 -52 54 -145q0 -21 -3 -42q-15 -104 -87 -164.5t-181 -60.5q-63 0 -111 24l-38 -45h-72zM365 368q-22 13 -60 13q-50 0 -89.5 -26t-61 -69.5t-21.5 -94.5q0 -44 21 -73z
M346 94.5q39 25.5 60.5 68t21.5 93.5q0 44 -19 74l-211 -248q20 -13 58 -13q51 0 90 25.5z" />
    <glyph glyph-name="oslashacute" unicode="&#x1ff;" horiz-adv-x="562" 
d="M94 45q-55 55 -55 148q0 21 3 42q15 100 85.5 161.5t180.5 61.5q65 0 112 -24l38 45h75l-64 -76q54 -52 54 -145q0 -21 -3 -42q-15 -104 -87 -164.5t-181 -60.5q-63 0 -111 24l-38 -45h-72zM365 368q-22 13 -60 13q-50 0 -89.5 -26t-61 -69.5t-21.5 -94.5q0 -44 21 -73z
M346 94.5q39 25.5 60.5 68t21.5 93.5q0 44 -19 74l-211 -248q20 -13 58 -13q51 0 90 25.5zM380 684h119l-166 -164h-94z" />
    <glyph glyph-name="otilde" unicode="&#xf5;" horiz-adv-x="562" 
d="M93 46q-54 55 -54 147q0 21 3 42q15 100 85.5 161.5t180.5 61.5q98 0 156.5 -51t58.5 -149q0 -21 -3 -42q-15 -104 -87 -164.5t-181 -60.5q-105 0 -159 55zM346 94.5q39 25.5 60.5 68t21.5 93.5q0 58 -33 91.5t-90 33.5q-50 0 -89.5 -26t-61 -69.5t-21.5 -94.5
q0 -56 33.5 -89t89.5 -33q51 0 90 25.5zM359 549.5q-18 7.5 -39 21.5q-17 12 -29.5 17.5t-26.5 5.5q-25 0 -36.5 -15.5t-13.5 -31.5h-60q7 56 36.5 84t77.5 28q24 0 42 -7.5t41 -22.5q15 -11 27 -16.5t26 -5.5q23 0 34 14.5t13 32.5h60q-5 -53 -34 -82.5t-76 -29.5
q-24 0 -42 7.5z" />
    <glyph glyph-name="oe" unicode="&#x153;" horiz-adv-x="898" 
d="M93 46q-54 55 -54 147q0 21 3 42q15 100 85 161.5t180 61.5q63 0 107.5 -23t67.5 -66q32 42 80 65.5t106 23.5q94 0 143.5 -47t49.5 -127q0 -45 -12 -92h-336v-13q0 -57 35.5 -84t105.5 -27q52 0 95 12.5t73 28.5l-12 -82q-26 -14 -68.5 -25t-97.5 -11q-146 0 -196 88
q-69 -88 -197 -88q-104 0 -158 55zM768 257q3 21 3 30q0 44 -28 70t-76 26q-54 0 -93.5 -34.5t-51.5 -91.5h246zM346 94.5q39 25.5 60.5 68t21.5 93.5q0 58 -33.5 91.5t-90.5 33.5q-50 0 -89.5 -26t-61 -69.5t-21.5 -94.5q0 -56 33.5 -89t90.5 -33q51 0 90 25.5z" />
    <glyph glyph-name="p" unicode="p" horiz-adv-x="581" 
d="M103 449h82l-7 -59q31 32 73.5 50t91.5 18q92 0 145.5 -55t53.5 -145q0 -21 -3 -44q-9 -70 -44 -120t-88.5 -76.5t-116.5 -26.5q-55 0 -94 20t-57 52l-37 -261h-90zM370 94q38 25 58.5 68t20.5 94q0 59 -34.5 92t-93.5 33q-50 0 -88 -25.5t-58.5 -68.5t-20.5 -95
q0 -58 34 -90.5t93 -32.5q51 0 89 25z" />
    <glyph glyph-name="thorn" unicode="&#xfe;" horiz-adv-x="581" 
d="M133 663h90l-38 -266q31 29 71.5 45t86.5 16q92 0 145.5 -55t53.5 -145q0 -21 -3 -44q-9 -70 -44 -120t-88.5 -76.5t-116.5 -26.5q-55 0 -94 20t-57 52l-37 -261h-90zM370 94q38 25 58.5 68t20.5 94q0 59 -34.5 92t-93.5 33q-50 0 -88 -25.5t-58.5 -68.5t-20.5 -95
q0 -58 34 -90.5t93 -32.5q51 0 89 25z" />
    <glyph glyph-name="q" unicode="q" horiz-adv-x="582" 
d="M397 53q-26 -28 -66.5 -45t-89.5 -17q-90 0 -146 53.5t-56 146.5q0 21 3 45q8 65 41.5 115.5t87.5 78.5t122 28q56 0 96.5 -20.5t60.5 -56.5l11 68h82l-87 -615l-95 -41zM348 94.5q38 25.5 59 68t21 93.5q0 59 -33.5 92t-91.5 33q-50 0 -89 -24.5t-60.5 -67t-21.5 -94.5
q0 -58 33 -92t95 -34q50 0 88 25.5z" />
    <glyph glyph-name="r" unicode="r" horiz-adv-x="336" 
d="M103 449h82l-6 -61q25 34 62.5 52t84.5 18q15 0 27 -3l-11 -80q-14 6 -39 6q-64 0 -98 -43.5t-45 -126.5l-30 -211h-90z" />
    <glyph glyph-name="racute" unicode="&#x155;" horiz-adv-x="336" 
d="M103 449h82l-6 -61q25 34 62.5 52t84.5 18q15 0 27 -3l-11 -80q-14 6 -39 6q-64 0 -98 -43.5t-45 -126.5l-30 -211h-90zM320 684h119l-166 -164h-94z" />
    <glyph glyph-name="rcaron" unicode="&#x159;" horiz-adv-x="336" 
d="M103 449h82l-6 -61q25 34 62.5 52t84.5 18q15 0 27 -3l-11 -80q-14 6 -39 6q-64 0 -98 -43.5t-45 -126.5l-30 -211h-90zM115 684h94l61 -79l84 79h102l-198 -173z" />
    <glyph glyph-name="rcommaaccent" unicode="&#x157;" horiz-adv-x="336" 
d="M103 449h82l-6 -61q25 34 62.5 52t84.5 18q15 0 27 -3l-11 -80q-14 6 -39 6q-64 0 -98 -43.5t-45 -126.5l-30 -211h-90zM57 -148q-19 2 -30 12t-11 28q0 23 16.5 38.5t38.5 15.5q23 0 37.5 -14.5t14.5 -40.5q0 -31 -18.5 -57t-43.5 -41h-55q37 30 51 59z" />
    <glyph glyph-name="s" unicode="s" horiz-adv-x="381" 
d="M72.5 -0.5q-34.5 8.5 -50.5 18.5l10 74q19 -12 49 -22t63 -10q39 0 66.5 17t27.5 57q0 27 -17.5 41.5t-54.5 29.5q-31 13 -51 25t-34 34.5t-14 57.5q0 60 40 98t118 38q38 0 70 -8.5t44 -17.5l-11 -72q-17 12 -44 20.5t-55 8.5q-38 0 -58 -17t-20 -43q0 -23 16.5 -35.5
t51.5 -27.5q33 -14 54.5 -26.5t36.5 -37t15 -62.5q0 -71 -48.5 -110t-129.5 -39q-40 0 -74.5 8.5z" />
    <glyph glyph-name="sacute" unicode="&#x15b;" horiz-adv-x="381" 
d="M72.5 -0.5q-34.5 8.5 -50.5 18.5l10 74q19 -12 49 -22t63 -10q39 0 66.5 17t27.5 57q0 27 -17.5 41.5t-54.5 29.5q-31 13 -51 25t-34 34.5t-14 57.5q0 60 40 98t118 38q38 0 70 -8.5t44 -17.5l-11 -72q-17 12 -44 20.5t-55 8.5q-38 0 -58 -17t-20 -43q0 -23 16.5 -35.5
t51.5 -27.5q33 -14 54.5 -26.5t36.5 -37t15 -62.5q0 -71 -48.5 -110t-129.5 -39q-40 0 -74.5 8.5zM299 684h119l-166 -164h-94z" />
    <glyph glyph-name="sacute.loclPLK" horiz-adv-x="381" 
d="M72.5 -0.5q-34.5 8.5 -50.5 18.5l10 74q19 -12 49 -22t63 -10q39 0 66.5 17t27.5 57q0 27 -17.5 41.5t-54.5 29.5q-31 13 -51 25t-34 34.5t-14 57.5q0 60 40 98t118 38q38 0 70 -8.5t44 -17.5l-11 -72q-17 12 -44 20.5t-55 8.5q-38 0 -58 -17t-20 -43q0 -23 16.5 -35.5
t51.5 -27.5q33 -14 54.5 -26.5t36.5 -37t15 -62.5q0 -71 -48.5 -110t-129.5 -39q-40 0 -74.5 8.5zM279 684h109l-118 -164h-92z" />
    <glyph glyph-name="scaron" unicode="&#x161;" horiz-adv-x="381" 
d="M72.5 -0.5q-34.5 8.5 -50.5 18.5l10 74q19 -12 49 -22t63 -10q39 0 66.5 17t27.5 57q0 27 -17.5 41.5t-54.5 29.5q-31 13 -51 25t-34 34.5t-14 57.5q0 60 40 98t118 38q38 0 70 -8.5t44 -17.5l-11 -72q-17 12 -44 20.5t-55 8.5q-38 0 -58 -17t-20 -43q0 -23 16.5 -35.5
t51.5 -27.5q33 -14 54.5 -26.5t36.5 -37t15 -62.5q0 -71 -48.5 -110t-129.5 -39q-40 0 -74.5 8.5zM94 684h94l61 -79l84 79h102l-198 -173z" />
    <glyph glyph-name="scedilla" unicode="&#x15f;" horiz-adv-x="381" 
d="M72.5 -0.5q-34.5 8.5 -50.5 18.5l10 74q19 -12 49 -22t63 -10q39 0 66.5 17t27.5 57q0 27 -17.5 41.5t-54.5 29.5q-31 13 -51 25t-34 34.5t-14 57.5q0 60 40 98t118 38q38 0 70 -8.5t44 -17.5l-11 -72q-17 12 -44 20.5t-55 8.5q-38 0 -58 -17t-20 -43q0 -23 16.5 -35.5
t51.5 -27.5q33 -14 54.5 -26.5t36.5 -37t15 -62.5q0 -71 -48.5 -110t-129.5 -39q-40 0 -74.5 8.5zM49 -195l7 50q9 -5 24 -9t32 -4q55 0 55 45q0 16 -9 25t-26 9q-27 0 -45 -20l-11 8l47 110h60l-29 -61q6 2 9 2q31 -1 50.5 -18t19.5 -51q0 -53 -32.5 -75.5t-84.5 -22.5
q-43 0 -67 12z" />
    <glyph glyph-name="scircumflex" unicode="&#x15d;" horiz-adv-x="381" 
d="M72.5 -0.5q-34.5 8.5 -50.5 18.5l10 74q19 -12 49 -22t63 -10q39 0 66.5 17t27.5 57q0 27 -17.5 41.5t-54.5 29.5q-31 13 -51 25t-34 34.5t-14 57.5q0 60 40 98t118 38q38 0 70 -8.5t44 -17.5l-11 -72q-17 12 -44 20.5t-55 8.5q-38 0 -58 -17t-20 -43q0 -23 16.5 -35.5
t51.5 -27.5q33 -14 54.5 -26.5t36.5 -37t15 -62.5q0 -71 -48.5 -110t-129.5 -39q-40 0 -74.5 8.5zM266 693l144 -172h-94l-63 78l-82 -78h-102z" />
    <glyph glyph-name="scommaaccent" unicode="&#x219;" horiz-adv-x="381" 
d="M72.5 -0.5q-34.5 8.5 -50.5 18.5l10 74q19 -12 49 -22t63 -10q39 0 66.5 17t27.5 57q0 27 -17.5 41.5t-54.5 29.5q-31 13 -51 25t-34 34.5t-14 57.5q0 60 40 98t118 38q38 0 70 -8.5t44 -17.5l-11 -72q-17 12 -44 20.5t-55 8.5q-38 0 -58 -17t-20 -43q0 -23 16.5 -35.5
t51.5 -27.5q33 -14 54.5 -26.5t36.5 -37t15 -62.5q0 -71 -48.5 -110t-129.5 -39q-40 0 -74.5 8.5zM120 -148q-19 2 -30 12t-11 28q0 23 16.5 38.5t38.5 15.5q23 0 37.5 -14.5t14.5 -40.5q0 -31 -18.5 -57t-43.5 -41h-55q37 30 51 59z" />
    <glyph glyph-name="germandbls" unicode="&#xdf;" horiz-adv-x="624" 
d="M443 305.5q10 -8.5 33 -24.5q43 -28 68 -56.5t25 -77.5q0 -74 -52 -115t-133 -41q-43 0 -76 8t-49 20l11 74q52 -33 110 -33q42 0 69 21t27 60q0 27 -16 44.5t-50 42.5q-33 23 -50.5 42.5t-17.5 48.5q0 26 14 44.5t43 41.5q33 27 50.5 51t17.5 62q0 39 -25 60.5t-75 21.5
q-63 0 -96 -46.5t-45 -128.5l-60 -425h-90l53 376h-76l10 73h76l3 23q30 205 226 205q94 0 142.5 -41t48.5 -115q0 -40 -13 -68.5t-30.5 -45.5t-44.5 -37q-20 -15 -29 -24.5t-9 -20.5t10 -19.5z" />
    <glyph glyph-name="germandbls.calt" horiz-adv-x="659" 
d="M638 637l-178 -243q66 -6 107.5 -49t41.5 -123q0 -111 -64 -171.5t-186 -60.5q-33 0 -67 5t-57 13l12 81q43 -18 110 -18q74 0 115.5 40t41.5 108q0 50 -30 78t-86 28q-31 0 -53.5 -7t-34.5 -16l-9 9l191 259h-266l-80 -570h-93l91 648h496z" />
    <glyph glyph-name="longs" unicode="&#x17f;" horiz-adv-x="353" 
d="M129 376h-76l10 73h76l5 39q14 92 58 140.5t136 48.5q55 0 89 -17l-11 -76q-30 15 -71 15q-51 0 -77.5 -29.5t-34.5 -92.5l-67 -477h-90z" />
    <glyph glyph-name="t" unicode="t" horiz-adv-x="372" 
d="M113 23q-34 29 -34 83q0 31 9 85l26 185h-73l2 10q39 27 94 84t85 102h10l-16 -123h128l-11 -73h-128l-29 -200q-6 -42 -6 -57q0 -49 63 -49q39 0 77 17l-11 -78q-8 -5 -33.5 -10t-51.5 -5q-67 0 -101 29z" />
    <glyph glyph-name="tbar" unicode="&#x167;" horiz-adv-x="372" 
d="M205 376l-15 -105h112l-10 -69h-112l-4 -26q-6 -42 -6 -57q0 -49 63 -49q39 0 77 17l-11 -78q-8 -5 -33.5 -10t-51.5 -5q-67 0 -101 29t-34 83q0 31 9 85l2 11h-51l10 69h50l15 105h-73l2 10q39 27 94 84t85 102h10l-16 -123h128l-11 -73h-128z" />
    <glyph glyph-name="tcaron" unicode="&#x165;" horiz-adv-x="397" 
d="M113 23q-34 29 -34 83q0 31 9 85l26 185h-73l2 10q39 27 94 84t85 102h10l-16 -123h128l-11 -73h-128l-29 -200q-6 -42 -6 -57q0 -49 63 -49q39 0 77 17l-11 -78q-8 -5 -33.5 -10t-51.5 -5q-67 0 -101 29zM387 585q-40 3 -40 39q0 24 16 39t38 15q23 0 37.5 -14t14.5 -41
q0 -32 -21 -60.5t-51 -46.5h-55q47 37 61 69z" />
    <glyph glyph-name="uni0163" unicode="&#x163;" horiz-adv-x="372" 
d="M113 23q-34 29 -34 83q0 31 9 85l26 185h-73l2 10q39 27 94 84t85 102h10l-16 -123h128l-11 -73h-128l-29 -200q-6 -42 -6 -57q0 -49 63 -49q39 0 77 17l-11 -78q-8 -5 -33.5 -10t-51.5 -5q-67 0 -101 29zM156 -148q-19 2 -30 12t-11 28q0 23 16.5 38.5t38.5 15.5
q23 0 37.5 -14.5t14.5 -40.5q0 -31 -18.5 -57t-43.5 -41h-55q37 30 51 59z" />
    <glyph glyph-name="uni021B" unicode="&#x21b;" horiz-adv-x="372" 
d="M113 23q-34 29 -34 83q0 31 9 85l26 185h-73l2 10q39 27 94 84t85 102h10l-16 -123h128l-11 -73h-128l-29 -200q-6 -42 -6 -57q0 -49 63 -49q39 0 77 17l-11 -78q-8 -5 -33.5 -10t-51.5 -5q-67 0 -101 29zM156 -148q-19 2 -30 12t-11 28q0 23 16.5 38.5t38.5 15.5
q23 0 37.5 -14.5t14.5 -40.5q0 -31 -18.5 -57t-43.5 -41h-55q37 30 51 59z" />
    <glyph glyph-name="u" unicode="u" horiz-adv-x="511" 
d="M97 34q-41 43 -41 112q0 19 7 70l33 233h89l-35 -250q-5 -37 -5 -52q0 -80 86 -80q105 0 123 129l36 253h89l-37 -259q-13 -88 -60 -143.5t-153 -55.5q-91 0 -132 43z" />
    <glyph glyph-name="uacute" unicode="&#xfa;" horiz-adv-x="511" 
d="M97 34q-41 43 -41 112q0 19 7 70l33 233h89l-35 -250q-5 -37 -5 -52q0 -80 86 -80q105 0 123 129l36 253h89l-37 -259q-13 -88 -60 -143.5t-153 -55.5q-91 0 -132 43zM355 684h119l-166 -164h-94z" />
    <glyph glyph-name="ubreve" unicode="&#x16d;" horiz-adv-x="511" 
d="M97 34q-41 43 -41 112q0 19 7 70l33 233h89l-35 -250q-5 -37 -5 -52q0 -80 86 -80q105 0 123 129l36 253h89l-37 -259q-13 -88 -60 -143.5t-153 -55.5q-91 0 -132 43zM184 546.5q-36 35.5 -36 96.5q0 24 4 41h68q-2 -16 -2 -29q0 -36 20.5 -54t63.5 -18q53 0 80 24.5
t33 76.5h72q-14 -173 -187 -173q-80 0 -116 35.5z" />
    <glyph glyph-name="ucircumflex" unicode="&#xfb;" horiz-adv-x="511" 
d="M97 34q-41 43 -41 112q0 19 7 70l33 233h89l-35 -250q-5 -37 -5 -52q0 -80 86 -80q105 0 123 129l36 253h89l-37 -259q-13 -88 -60 -143.5t-153 -55.5q-91 0 -132 43zM322 693l144 -172h-94l-63 78l-82 -78h-102z" />
    <glyph glyph-name="udieresis" unicode="&#xfc;" horiz-adv-x="511" 
d="M97 34q-41 43 -41 112q0 19 7 70l33 233h89l-35 -250q-5 -37 -5 -52q0 -80 86 -80q105 0 123 129l36 253h89l-37 -259q-13 -88 -60 -143.5t-153 -55.5q-91 0 -132 43zM169.5 568.5q-13.5 13.5 -13.5 34.5q0 26 18 43t44 17q21 0 34.5 -14t13.5 -34q0 -27 -17.5 -43.5
t-43.5 -16.5q-22 0 -35.5 13.5zM365 568.5q-13 13.5 -13 34.5q0 26 18 43t43 17q21 0 34.5 -14t13.5 -34q0 -27 -17.5 -43.5t-43.5 -16.5q-22 0 -35 13.5z" />
    <glyph glyph-name="ugrave" unicode="&#xf9;" horiz-adv-x="511" 
d="M97 34q-41 43 -41 112q0 19 7 70l33 233h89l-35 -250q-5 -37 -5 -52q0 -80 86 -80q105 0 123 129l36 253h89l-37 -259q-13 -88 -60 -143.5t-153 -55.5q-91 0 -132 43zM175 684h115l94 -164h-86z" />
    <glyph glyph-name="uhungarumlaut" unicode="&#x171;" horiz-adv-x="511" 
d="M97 34q-41 43 -41 112q0 19 7 70l33 233h89l-35 -250q-5 -37 -5 -52q0 -80 86 -80q105 0 123 129l36 253h89l-37 -259q-13 -88 -60 -143.5t-153 -55.5q-91 0 -132 43zM263 684h111l-138 -164h-90zM446 684h110l-137 -164h-91z" />
    <glyph glyph-name="umacron" unicode="&#x16b;" horiz-adv-x="511" 
d="M97 34q-41 43 -41 112q0 19 7 70l33 233h89l-35 -250q-5 -37 -5 -52q0 -80 86 -80q105 0 123 129l36 253h89l-37 -259q-13 -88 -60 -143.5t-153 -55.5q-91 0 -132 43zM166 641h294l-10 -74h-294z" />
    <glyph glyph-name="uogonek" unicode="&#x173;" horiz-adv-x="511" 
d="M193 -186q-28 21 -28 66q0 70 74 112q-6 -1 -18 -1q-82 0 -123.5 42t-41.5 113q0 19 7 70l33 233h89l-35 -250q-5 -37 -5 -52q0 -80 86 -80q105 0 123 129l36 253h89l-37 -259q-8 -59 -29.5 -100.5t-63.5 -69.5q-66 -44 -92 -71t-26 -62q0 -39 43 -39q33 0 59 16l-9 -60
q-24 -11 -58 -11q-45 0 -73 21z" />
    <glyph glyph-name="uring" unicode="&#x16f;" horiz-adv-x="511" 
d="M97 34q-41 43 -41 112q0 19 7 70l33 233h89l-35 -250q-5 -37 -5 -52q0 -80 86 -80q105 0 123 129l36 253h89l-37 -259q-13 -88 -60 -143.5t-153 -55.5q-91 0 -132 43zM229.5 535.5q-26.5 25.5 -26.5 68.5q0 51 34 81.5t83 30.5q43 0 69.5 -25t26.5 -68q0 -52 -33.5 -82.5
t-82.5 -30.5q-44 0 -70.5 25.5zM346.5 576q16.5 16 16.5 42q0 22 -13.5 35.5t-34.5 13.5q-24 0 -41 -17t-17 -43q0 -22 13 -34.5t35 -12.5q25 0 41.5 16z" />
    <glyph glyph-name="utilde" unicode="&#x169;" horiz-adv-x="511" 
d="M97 34q-41 43 -41 112q0 19 7 70l33 233h89l-35 -250q-5 -37 -5 -52q0 -80 86 -80q105 0 123 129l36 253h89l-37 -259q-13 -88 -60 -143.5t-153 -55.5q-91 0 -132 43zM334 549.5q-18 7.5 -39 21.5q-17 12 -29.5 17.5t-26.5 5.5q-25 0 -36.5 -15.5t-13.5 -31.5h-60
q7 56 36.5 84t77.5 28q24 0 42 -7.5t41 -22.5q15 -11 27 -16.5t26 -5.5q23 0 34 14.5t13 32.5h60q-5 -53 -34 -82.5t-76 -29.5q-24 0 -42 7.5z" />
    <glyph glyph-name="v" unicode="v" horiz-adv-x="493" 
d="M47 449h97l90 -296l175 296h101l-291 -458h-10z" />
    <glyph glyph-name="w" unicode="w" horiz-adv-x="717" 
d="M54 449h97l72 -277l163 277h10l80 -277l150 277h101l-265 -458h-10l-83 285l-167 -285h-10z" />
    <glyph glyph-name="wacute" unicode="&#x1e83;" horiz-adv-x="717" 
d="M54 449h97l72 -277l163 277h10l80 -277l150 277h101l-265 -458h-10l-83 285l-167 -285h-10zM461 684h119l-166 -164h-94z" />
    <glyph glyph-name="wcircumflex" unicode="&#x175;" horiz-adv-x="717" 
d="M54 449h97l72 -277l163 277h10l80 -277l150 277h101l-265 -458h-10l-83 285l-167 -285h-10zM428 693l144 -172h-94l-63 78l-82 -78h-102z" />
    <glyph glyph-name="wdieresis" unicode="&#x1e85;" horiz-adv-x="717" 
d="M54 449h97l72 -277l163 277h10l80 -277l150 277h101l-265 -458h-10l-83 285l-167 -285h-10zM275.5 568.5q-13.5 13.5 -13.5 34.5q0 26 18 43t44 17q21 0 34.5 -14t13.5 -34q0 -27 -17.5 -43.5t-43.5 -16.5q-22 0 -35.5 13.5zM471 568.5q-13 13.5 -13 34.5q0 26 18 43
t43 17q21 0 34.5 -14t13.5 -34q0 -27 -17.5 -43.5t-43.5 -16.5q-22 0 -35 13.5z" />
    <glyph glyph-name="wgrave" unicode="&#x1e81;" horiz-adv-x="717" 
d="M54 449h97l72 -277l163 277h10l80 -277l150 277h101l-265 -458h-10l-83 285l-167 -285h-10zM244 684h115l94 -164h-86z" />
    <glyph glyph-name="x" unicode="x" horiz-adv-x="511" 
d="M202 224l-147 225h104l104 -170l153 170h108l-212 -229l146 -220h-105l-104 166l-153 -166h-109z" />
    <glyph glyph-name="y" unicode="y" horiz-adv-x="496" 
d="M174 30l-127 419h98l88 -325l180 325h100l-372 -647h-99z" />
    <glyph glyph-name="yacute" unicode="&#xfd;" horiz-adv-x="496" 
d="M174 30l-127 419h98l88 -325l180 325h100l-372 -647h-99zM347 684h119l-166 -164h-94z" />
    <glyph glyph-name="ycircumflex" unicode="&#x177;" horiz-adv-x="496" 
d="M174 30l-127 419h98l88 -325l180 325h100l-372 -647h-99zM314 693l144 -172h-94l-63 78l-82 -78h-102z" />
    <glyph glyph-name="ydieresis" unicode="&#xff;" horiz-adv-x="496" 
d="M174 30l-127 419h98l88 -325l180 325h100l-372 -647h-99zM161.5 568.5q-13.5 13.5 -13.5 34.5q0 26 18 43t44 17q21 0 34.5 -14t13.5 -34q0 -27 -17.5 -43.5t-43.5 -16.5q-22 0 -35.5 13.5zM357 568.5q-13 13.5 -13 34.5q0 26 18 43t43 17q21 0 34.5 -14t13.5 -34
q0 -27 -17.5 -43.5t-43.5 -16.5q-22 0 -35 13.5z" />
    <glyph glyph-name="ygrave" unicode="&#x1ef3;" horiz-adv-x="496" 
d="M174 30l-127 419h98l88 -325l180 325h100l-372 -647h-99zM167 684h115l94 -164h-86z" />
    <glyph glyph-name="z" unicode="z" horiz-adv-x="469" 
d="M7 10l301 366h-233l11 73h379l-2 -10l-300 -365h253l-11 -74h-400z" />
    <glyph glyph-name="zacute" unicode="&#x17a;" horiz-adv-x="469" 
d="M7 10l301 366h-233l11 73h379l-2 -10l-300 -365h253l-11 -74h-400zM335 684h119l-166 -164h-94z" />
    <glyph glyph-name="zacute.loclPLK" horiz-adv-x="469" 
d="M7 10l301 366h-233l11 73h379l-2 -10l-300 -365h253l-11 -74h-400zM315 684h109l-118 -164h-92z" />
    <glyph glyph-name="zcaron" unicode="&#x17e;" horiz-adv-x="469" 
d="M7 10l301 366h-233l11 73h379l-2 -10l-300 -365h253l-11 -74h-400zM130 684h94l61 -79l84 79h102l-198 -173z" />
    <glyph glyph-name="zdotaccent" unicode="&#x17c;" horiz-adv-x="469" 
d="M7 10l301 366h-233l11 73h379l-2 -10l-300 -365h253l-11 -74h-400zM249 568.5q-13 13.5 -13 34.5q0 26 18 43t44 17q21 0 34 -13.5t13 -34.5q0 -27 -17.5 -43.5t-42.5 -16.5q-23 0 -36 13.5z" />
    <glyph glyph-name="ordfeminine" unicode="&#xaa;" horiz-adv-x="376" 
d="M369 553q0 -13 -4 -41l-26 -188h-55l3 38q-32 -45 -101 -45q-54 0 -86 23.5t-32 70.5q0 63 44 92t108 29q43 0 79 -17l1 7q2 18 2 24q0 29 -17.5 42t-56.5 13q-27 0 -56 -7t-50 -17l8 60q16 7 45 14t63 7q131 0 131 -105zM290 457l2 11q-34 16 -72 16q-37 0 -58 -17
t-21 -48q0 -23 15.5 -36.5t48.5 -13.5q73 0 85 88zM55 267h282l-8 -60h-283z" />
    <glyph glyph-name="ordmasculine" unicode="&#xba;" horiz-adv-x="411" 
d="M114 354q-39 37 -39 103q0 26 5 50q15 70 63 110t121 40q68 0 106.5 -36.5t38.5 -103.5q0 -26 -5 -50q-15 -70 -62.5 -110t-120.5 -40q-68 0 -107 37zM297 405q29 28 38 78q4 15 4 32q0 41 -20.5 62t-56.5 21q-45 0 -73.5 -27.5t-39.5 -77.5q-3 -19 -3 -34
q0 -41 20 -61.5t57 -20.5q45 0 74 28zM70 267h282l-8 -60h-283z" />
    <glyph glyph-name="uni0410" unicode="&#x410;" horiz-adv-x="645" 
d="M379 658h10l202 -658h-98l-38 128h-290l-73 -128h-101zM436 206l-76 266l-151 -266h227z" />
    <glyph glyph-name="uni0411" unicode="&#x411;" horiz-adv-x="584" 
d="M226 568l-26 -180h77q83 0 139.5 -12.5t91.5 -50t35 -109.5q0 -23 -3 -43q-12 -79 -59.5 -117t-107 -47t-146.5 -9h-174l91 648h413l-12 -80h-319zM189 309l-32 -231h78q66 0 106.5 6.5t69 29.5t35.5 72l2 25q0 41 -18.5 62t-55 28.5t-98.5 7.5h-87z" />
    <glyph glyph-name="uni0412" unicode="&#x412;" horiz-adv-x="591" 
d="M540 208q0 -32 -9.5 -67.5t-31.5 -63.5q-29 -37 -81 -57t-143 -20h-222l91 648h168q230 0 230 -155q0 -34 -13 -66.5t-36 -53.5q-26 -24 -62 -33q109 -20 109 -132zM199 368h82q102 0 139 42q16 17 22 38t6 39q0 49 -39 66t-107 17h-75zM439.5 165.5q5.5 22.5 5.5 38.5
q0 49 -38 67.5t-114 18.5h-105l-30 -211h107q56 0 94.5 10.5t58.5 34.5q16 19 21.5 41.5z" />
    <glyph glyph-name="uni0413" unicode="&#x413;" horiz-adv-x="490" 
d="M144 648h386l-12 -80h-293l-79 -568h-93z" />
    <glyph glyph-name="uni0403" unicode="&#x403;" horiz-adv-x="490" 
d="M439 876h119l-166 -164h-94zM144 648h386l-12 -80h-293l-79 -568h-93z" />
    <glyph glyph-name="uni0490" unicode="&#x490;" horiz-adv-x="490" 
d="M519 568h-294l-79 -568h-93l91 648h301l19 139h85z" />
    <glyph glyph-name="uni0414" unicode="&#x414;" horiz-adv-x="734" 
d="M671 81l-31 -220h-85l20 140h-498l-20 -140h-86l31 219h7q66 0 116 79q56 89 92 340l21 149h430l-80 -567h83zM251.5 229q-29.5 -95 -80.5 -148h325l69 487h-250l-10 -69q-24 -175 -53.5 -270z" />
    <glyph glyph-name="uni0414.loclBGR" horiz-adv-x="735" 
d="M677 81l-31 -220h-85l19 140h-489l-19 -140h-85l30 220h69l338 577h10l174 -577h69zM182 81h331l-109 393z" />
    <glyph glyph-name="uni0415" unicode="&#x415;" horiz-adv-x="513" 
d="M144 648h382l-11 -80h-290l-27 -198h212l-12 -79h-211l-30 -210h302l-12 -81h-394z" />
    <glyph glyph-name="uni0401" unicode="&#x401;" horiz-adv-x="513" 
d="M213.5 747q-15.5 15 -15.5 40q0 28 19.5 47.5t46.5 19.5q25 0 40 -15.5t15 -40.5q0 -30 -19 -48t-46 -18q-25 0 -40.5 15zM411 747q-15 15 -15 40q0 28 19 47.5t46 19.5q25 0 40.5 -15.5t15.5 -40.5q0 -30 -19 -48t-46 -18q-26 0 -41 15zM144 648h382l-11 -80h-290
l-27 -198h212l-12 -79h-211l-30 -210h302l-12 -81h-394z" />
    <glyph glyph-name="uni0416" unicode="&#x416;" horiz-adv-x="963" 
d="M652 323l261 -323h-122l-249 321l-45 -321h-94l45 320l-339 -320h-123l356 337l-255 311h117l246 -313l44 313h94l-44 -313l331 313h122z" />
    <glyph glyph-name="uni0417" unicode="&#x417;" horiz-adv-x="529" 
d="M453.5 296.5q24.5 -31.5 24.5 -84.5q0 -111 -71.5 -166.5t-191.5 -55.5q-62 0 -108 11.5t-72 28.5l12 93q65 -49 171 -49q73 0 119 29.5t46 100.5q0 47 -31 66.5t-102 19.5h-71l11 78h51q79 0 121 27t42 92q0 43 -33.5 65.5t-95.5 22.5q-91 0 -171 -50l13 94
q25 15 73.5 27t101.5 12q93 0 150 -37.5t57 -123.5q0 -61 -28 -104t-78 -56q36 -9 60.5 -40.5z" />
    <glyph glyph-name="uni0418" unicode="&#x418;" horiz-adv-x="697" 
d="M673 658l-92 -658h-92l64 450l-491 -460h-10l92 658h92l-64 -450l491 460h10z" />
    <glyph glyph-name="uni0419" unicode="&#x419;" horiz-adv-x="697" 
d="M325.5 728q-36.5 35 -36.5 95q0 21 2 32l2 11h80q-2 -18 -2 -25q0 -40 19 -60.5t56 -20.5q43 0 69.5 27t34.5 79h80l-2 -11q-10 -74 -58.5 -118t-132.5 -44q-75 0 -111.5 35zM673 658l-92 -658h-92l64 450l-491 -460h-10l92 658h92l-64 -450l491 460h10z" />
    <glyph glyph-name="uni040D" unicode="&#x40d;" horiz-adv-x="697" 
d="M418 712l-124 164h116l94 -164h-86zM673 658l-92 -658h-92l64 450l-491 -460h-10l92 658h92l-64 -450l491 460h10z" />
    <glyph glyph-name="uni041A" unicode="&#x41a;" horiz-adv-x="632" 
d="M144 648h93l-44 -312l347 312h125l-361 -324l278 -324h-123l-268 320l-45 -320h-93z" />
    <glyph glyph-name="uni040C" unicode="&#x40c;" horiz-adv-x="632" 
d="M446 876h120l-167 -164h-94zM144 648h93l-44 -312l347 312h125l-361 -324l278 -324h-123l-268 320l-45 -320h-93z" />
    <glyph glyph-name="uni041B" unicode="&#x41b;" horiz-adv-x="688" 
d="M663 648l-91 -648h-93l79 568h-255l-17 -121q-24 -175 -46 -265t-65 -138.5t-121 -48.5q-38 0 -63 10l13 87q17 -7 39 -7q42 0 68.5 34.5t46.5 111.5t40 218l28 199h437z" />
    <glyph glyph-name="uni041B.loclBGR" horiz-adv-x="638" 
d="M485 0l-129 471l-264 -471h-101l384 658h10l198 -658h-98z" />
    <glyph glyph-name="uni041C" unicode="&#x41c;" horiz-adv-x="846" 
d="M248 410l-131 -410h-95l219 658h10l163 -489l301 489h10l36 -658h-93l-15 410l-257 -420h-10z" />
    <glyph glyph-name="uni041D" unicode="&#x41d;" horiz-adv-x="698" 
d="M144 648h93l-39 -278h342l39 278h94l-91 -648h-94l41 289h-343l-40 -289h-93z" />
    <glyph glyph-name="uni041E" unicode="&#x41e;" horiz-adv-x="754" 
d="M192.5 27.5q-64.5 37.5 -96.5 101.5t-32 145q0 32 4 60q13 93 60 166.5t125 115.5t180 42q91 0 155.5 -37t97.5 -100.5t33 -141.5q0 -30 -4 -59q-12 -93 -57.5 -167.5t-123 -118.5t-182.5 -44q-95 0 -159.5 37.5zM484 109q57 32 92 89.5t45 130.5q3 26 3 46q0 89 -51 143
t-145 54q-71 0 -127.5 -32t-92 -88.5t-45.5 -127.5q-3 -24 -3 -46q0 -90 50.5 -145.5t144.5 -55.5q72 0 129 32z" />
    <glyph glyph-name="uni041F" unicode="&#x41f;" horiz-adv-x="688" 
d="M663 648l-91 -648h-94l79 568h-332l-79 -568h-93l91 648h519z" />
    <glyph glyph-name="uni0420" unicode="&#x420;" horiz-adv-x="584" 
d="M144 648h150q87 0 146 -11.5t97.5 -51t38.5 -117.5q0 -25 -3 -46q-13 -89 -63.5 -131.5t-112.5 -53t-149 -10.5h-70l-32 -227h-93zM256 305q66 0 109.5 8t74.5 36.5t39 86.5q2 18 2 28q0 46 -22.5 68.5t-61 29.5t-103.5 7h-68l-37 -264h67z" />
    <glyph glyph-name="uni0421" unicode="&#x421;" horiz-adv-x="633" 
d="M194.5 25.5q-65.5 35.5 -98.5 98.5t-33 146q0 30 5 63q15 99 65 172.5t128 113t175 39.5q61 0 109.5 -14t73.5 -36l-13 -89q-35 26 -78.5 39.5t-90.5 13.5q-72 0 -130.5 -31.5t-96 -88.5t-48.5 -132q-3 -24 -3 -47q0 -94 53.5 -145t148.5 -51q110 0 198 55l-14 -100
q-25 -15 -77.5 -28.5t-112.5 -13.5q-95 0 -160.5 35.5z" />
    <glyph glyph-name="uni0422" unicode="&#x422;" horiz-adv-x="553" 
d="M279 568h-191l12 80h472l-12 -80h-188l-80 -568h-94z" />
    <glyph glyph-name="uni0423" unicode="&#x423;" horiz-adv-x="601" 
d="M642 648l-398 -648h-98l126 207l-193 441h103l147 -349l213 349h100z" />
    <glyph glyph-name="uni040E" unicode="&#x40e;" horiz-adv-x="601" 
d="M254.5 728q-36.5 35 -36.5 95q0 21 2 32l2 11h80q-2 -18 -2 -25q0 -40 19 -60.5t56 -20.5q43 0 69.5 27t33.5 79h81l-2 -11q-10 -73 -58.5 -117.5t-132.5 -44.5q-75 0 -111.5 35zM642 648l-398 -648h-98l126 207l-193 441h103l147 -349l213 349h100z" />
    <glyph glyph-name="uni0424" unicode="&#x424;" horiz-adv-x="817" 
d="M735 189.5q-44 -68.5 -123.5 -106.5t-182.5 -41l-9 -70h-92l10 71q-80 6 -141.5 38t-96 87t-34.5 127q0 89 44.5 158.5t124 109.5t182.5 43l9 70h92l-9 -71q82 -6 143 -40t94 -90t33 -127q0 -90 -44 -158.5zM216 176.5q54 -44.5 134 -50.5l57 396q-69 -5 -125 -33.5
t-88 -77.5t-32 -112q0 -78 54 -122.5zM616 188q67 57 67 153q0 77 -51.5 125t-136.5 56l-56 -396q110 5 177 62z" />
    <glyph glyph-name="uni0424.loclBGR" horiz-adv-x="809" 
d="M732.5 198.5q-37.5 -72.5 -116 -121t-194.5 -55.5l-9 -60h-91l9 60q-78 7 -138 43t-93.5 95t-33.5 131q0 84 37.5 158t116.5 122.5t196 54.5l8 60h91l-8 -61q79 -7 138.5 -44.5t92 -97t32.5 -132.5q0 -80 -37.5 -152.5zM212.5 166q50.5 -51 130.5 -60l62 437
q-76 -6 -131 -41.5t-83.5 -89t-28.5 -113.5q0 -82 50.5 -133zM564 146q55 35 82.5 87t27.5 111q0 82 -50 135t-131 62l-61 -436q77 6 132 41z" />
    <glyph glyph-name="uni0425" unicode="&#x425;" horiz-adv-x="612" 
d="M266 332l-173 316h106l132 -250l200 250h111l-263 -317l179 -331h-106l-137 262l-211 -262h-113z" />
    <glyph glyph-name="uni0427" unicode="&#x427;" horiz-adv-x="655" 
d="M630 648l-91 -648h-93l40 288q-27 -30 -72.5 -49t-106.5 -19q-99 0 -155 42.5t-56 139.5q0 33 7 84l23 162h94l-22 -154q-6 -36 -6 -65q0 -62 31 -92.5t105 -30.5q89 0 131.5 48.5t57.5 145.5l21 148h92z" />
    <glyph glyph-name="uni0426" unicode="&#x426;" horiz-adv-x="724" 
d="M661 81l-32 -220h-85l19 139h-510l91 648h93l-79 -567h327l79 567h94l-79 -567h82z" />
    <glyph glyph-name="uni0428" unicode="&#x428;" horiz-adv-x="985" 
d="M960 648l-91 -648h-816l91 648h93l-80 -567h268l80 567h94l-80 -567h269l79 567h93z" />
    <glyph glyph-name="uni0429" unicode="&#x429;" horiz-adv-x="1026" 
d="M964 81l-32 -220h-85l19 139h-813l91 648h93l-80 -567h268l80 567h94l-80 -567h268l80 567h93l-80 -567h84z" />
    <glyph glyph-name="uni040F" unicode="&#x40f;" horiz-adv-x="684" 
d="M568 0h-215l-19 -139h-86l20 139h-215l91 648h93l-80 -567h329l79 567h94z" />
    <glyph glyph-name="uni042C" unicode="&#x42c;" 
d="M482 379.5q62 -41.5 62 -138.5q0 -29 -3 -53q-11 -83 -54.5 -124.5t-101.5 -52.5t-142 -11h-190l91 648h94l-32 -227h100q114 0 176 -41.5zM448 237q0 61 -37.5 83t-116.5 22h-99l-38 -264h88q59 0 99 8.5t67.5 35.5t34.5 80q2 20 2 35z" />
    <glyph glyph-name="uni042A" unicode="&#x42a;" horiz-adv-x="730" 
d="M628 379.5q62 -41.5 62 -138.5q0 -29 -3 -53q-11 -83 -55 -124.5t-102 -52.5t-142 -11h-190l80 568h-190l12 80h283l-32 -227h100q115 0 177 -41.5zM594 237q0 61 -37.5 83t-117.5 22h-99l-38 -264h88q59 0 99 8.5t67.5 35.5t34.5 80q3 15 3 35z" />
    <glyph glyph-name="uni042B" unicode="&#x42b;" horiz-adv-x="834" 
d="M482 379.5q62 -41.5 62 -138.5q0 -29 -3 -53q-11 -83 -54.5 -124.5t-101.5 -52.5t-142 -11h-190l91 648h94l-32 -227h100q114 0 176 -41.5zM809 648l-91 -648h-94l91 648h94zM448 237q0 61 -37.5 83t-116.5 22h-99l-38 -264h88q59 0 99 8.5t67.5 35.5t34.5 80q2 20 2 35z
" />
    <glyph glyph-name="uni0409" unicode="&#x409;" horiz-adv-x="1011" 
d="M908.5 379.5q62.5 -41.5 62.5 -138.5q0 -29 -3 -53q-11 -83 -55 -124.5t-102 -52.5t-142 -11h-190l79 568h-255l-17 -121q-24 -175 -46 -265t-65 -138.5t-121 -48.5q-38 0 -63 10l13 87q17 -7 39 -7q42 0 68.5 34.5t46.5 111.5t40 218l28 199h437l-32 -227h101
q114 0 176.5 -41.5zM874 237q0 61 -37.5 83t-116.5 22h-100l-37 -264h88q59 0 99 8.5t67.5 35.5t34.5 80q2 20 2 35z" />
    <glyph glyph-name="uni040A" unicode="&#x40a;" horiz-adv-x="1021" 
d="M918 379.5q62 -41.5 62 -138.5q0 -29 -3 -53q-11 -83 -55 -124.5t-102 -52.5t-141 -11h-191l41 289h-342l-41 -289h-93l91 648h93l-39 -278h342l39 278h94l-32 -227h101q114 0 176 -41.5zM884 237q0 61 -37.5 83t-116.5 22h-100l-37 -264h88q59 0 99 8.5t67.5 35.5
t34.5 80q2 20 2 35z" />
    <glyph glyph-name="uni0405" unicode="&#x405;" horiz-adv-x="495" 
d="M109 2q-43 12 -72 28l12 91q27 -20 69 -34t90 -14q68 0 102 31t34 84q0 37 -25 58.5t-77 47.5q-45 22 -72 40t-46.5 50t-19.5 79q0 91 59.5 143t160.5 52q46 0 88.5 -11t63.5 -24l-14 -89q-27 19 -65 30.5t-75 11.5q-59 0 -91.5 -30.5t-32.5 -75.5q0 -38 25.5 -59.5
t77.5 -46.5q46 -23 73.5 -41.5t47 -51t19.5 -81.5q0 -96 -63 -148t-171 -52q-55 0 -98 12z" />
    <glyph glyph-name="uni0404" unicode="&#x404;" horiz-adv-x="636" 
d="M258 519.5q-68 -52.5 -90 -152.5h292l-11 -77h-291q-1 -7 -1 -21q0 -96 56.5 -144t158.5 -48q53 0 102 14.5t87 37.5l-14 -96q-29 -17 -79.5 -30t-113.5 -13q-92 0 -157 35.5t-99 99t-34 146.5q0 31 5 68q20 149 115.5 234t248.5 85q59 0 107 -13.5t78 -33.5l-13 -91
q-78 52 -173 52q-106 0 -174 -52.5z" />
    <glyph glyph-name="uni042D" unicode="&#x42d;" horiz-adv-x="637" 
d="M471 621.5q63 -36.5 95.5 -101t32.5 -147.5q0 -43 -4 -74q-19 -148 -109 -228t-251 -80q-112 0 -197 46l12 92q86 -52 189 -52q113 0 177.5 55.5t82.5 157.5h-295l11 77h291v2q0 93 -53.5 147.5t-143.5 54.5q-56 0 -107.5 -15t-90.5 -39l13 96q83 45 197 45
q87 0 150 -36.5z" />
    <glyph glyph-name="uni0406" unicode="&#x406;" horiz-adv-x="262" 
d="M144 648h93l-91 -648h-93z" />
    <glyph glyph-name="uni0407" unicode="&#x407;" horiz-adv-x="262" 
d="M67 747q-15 15 -15 40q0 28 19 47.5t46 19.5q25 0 40.5 -15.5t15.5 -40.5q0 -30 -19 -48t-46 -18q-26 0 -41 15zM264 747q-15 15 -15 40q0 28 19.5 47.5t45.5 19.5q25 0 40.5 -15.5t15.5 -40.5q0 -30 -19 -48t-46 -18q-26 0 -41 15zM144 648h93l-91 -648h-93z" />
    <glyph glyph-name="uni0408" unicode="&#x408;" horiz-adv-x="466" 
d="M80.5 -3.5q-35.5 6.5 -53.5 16.5l11 84q17 -11 47 -17t62 -6q49 0 79 17t47 53.5t26 99.5l45 325h-162l11 79h256l-60 -429q-16 -114 -68 -171.5t-166 -57.5q-39 0 -74.5 6.5z" />
    <glyph glyph-name="uni040B" unicode="&#x40b;" horiz-adv-x="791" 
d="M681 383.5q51 -43.5 51 -126.5q0 -42 -8 -93l-23 -164h-94l22 150q6 45 6 82q0 51 -31 80.5t-97 29.5q-68 0 -107.5 -23.5t-59 -65.5t-28.5 -107l-21 -146h-94l80 568h-189l12 80h512l-12 -80h-229l-30 -210q35 35 83.5 52t113.5 17q92 0 143 -43.5z" />
    <glyph glyph-name="uni042E" unicode="&#x42e;" horiz-adv-x="1021" 
d="M857 621q64 -37 96.5 -100.5t32.5 -141.5q0 -30 -4 -59q-13 -93 -58 -167.5t-121.5 -118.5t-181.5 -44q-94 0 -158.5 37.5t-96 101.5t-31.5 145v15h-148l-41 -289h-93l91 648h94l-39 -278h147q18 84 65.5 149t121.5 102t169 37q91 0 155 -37zM891 375q0 89 -50.5 143
t-143.5 54q-71 0 -127 -32t-91 -88t-45 -128q-3 -24 -3 -46q0 -90 50 -145.5t143 -55.5q72 0 128 32t90.5 89.5t44.5 130.5q4 23 4 46z" />
    <glyph glyph-name="uni042F" unicode="&#x42f;" horiz-adv-x="598" 
d="M573 648l-92 -648h-93l34 238h-120l-192 -238h-112l209 254q-54 19 -87.5 62t-33.5 104q0 21 3 42q15 106 91.5 146t205.5 40h187zM433 316l35 253h-80q-96 0 -145.5 -24t-59.5 -87q-2 -13 -2 -31q0 -53 43 -82t111 -29h98z" />
    <glyph glyph-name="uni0402" unicode="&#x402;" horiz-adv-x="798" 
d="M641.5 402.5q47.5 -24.5 73.5 -68t26 -99.5q0 -115 -58.5 -180.5t-174.5 -65.5q-47 0 -69 8l11 81q21 -7 54 -7q74 0 108 44t34 111q0 56 -36 87.5t-99 31.5q-95 0 -139.5 -47.5t-58.5 -142.5l-22 -155h-94l80 568h-189l11 80h512l-11 -80h-229l-29 -207q33 32 82 49
t108 17q62 0 109.5 -24.5z" />
    <glyph glyph-name="uni0430" unicode="&#x430;" horiz-adv-x="509" 
d="M400.5 419q41.5 -39 41.5 -105q0 -21 -6 -62l-35 -252h-82l6 53q-46 -62 -144 -62q-74 0 -114 34t-40 95q0 76 57 120.5t148 44.5q69 0 115 -26q4 23 4 42q0 83 -98 83q-42 0 -83 -13t-67 -28l12 80q33 15 70 25t90 10q84 0 125.5 -39zM294 89.5q34 34.5 42 90.5l2 13
q-15 13 -41 21t-59 8q-53 0 -85.5 -25t-32.5 -70q0 -35 23 -53.5t63 -18.5q54 0 88 34.5z" />
    <glyph glyph-name="uni0431" unicode="&#x431;" horiz-adv-x="582" 
d="M193 463q-16 -38 -26 -95l-1 -5q28 38 75.5 58.5t104.5 20.5q88 0 142 -52t54 -142q0 -21 -3 -42q-14 -100 -83 -157.5t-180 -57.5q-100 0 -158.5 50.5t-58.5 150.5q0 42 8 102q14 109 42.5 180.5t79.5 112.5q42 34 94 49.5t138 23.5q115 10 137 18l-11 -79
q-32 -8 -134 -18q-74 -8 -108.5 -18.5t-65.5 -36.5q-30 -25 -46 -63zM207 326.5q-44 -39.5 -52 -100.5q-2 -20 -2 -33q0 -58 34.5 -91.5t94.5 -33.5q67 0 111 38t53 107q3 14 3 29q0 58 -34 91t-90 33q-74 0 -118 -39.5z" />
    <glyph glyph-name="uni0431.loclSRB" horiz-adv-x="563" 
d="M482 371q40 -49 40 -127q0 -69 -31 -126.5t-91.5 -92t-145.5 -34.5q-101 0 -158.5 54t-57.5 146q0 80 47.5 143t136.5 86q-94 38 -94 116q0 55 42 91t138 36h137q56 0 87 10l-11 -75q-13 -6 -35.5 -8t-63.5 -2h-119q-84 0 -84 -54q0 -26 21.5 -41t70.5 -30l42 -14
q89 -29 129 -78zM351.5 93.5q37.5 24.5 56.5 63.5t19 82q0 60 -34.5 96t-92.5 36q-75 0 -121 -48.5t-46 -123.5q0 -61 35 -95.5t93 -34.5q53 0 90.5 24.5z" />
    <glyph glyph-name="uni0432" unicode="&#x432;" horiz-adv-x="482" 
d="M424 146q0 -66 -47 -106t-152 -40h-180l63 449h148q73 0 118.5 -25t45.5 -81q0 -40 -21.5 -66t-56.5 -36q82 -16 82 -95zM308 373q-20 12 -60 12h-59l-18 -124h63q94 0 94 71q0 29 -20 41zM304 81.5q28 16.5 28 58.5q0 32 -23.5 44.5t-71.5 12.5h-75l-18 -132h78
q54 0 82 16.5z" />
    <glyph glyph-name="uni0432.loclBGR" horiz-adv-x="529" 
d="M452.5 299.5q30.5 -38.5 30.5 -97.5q0 -49 -22 -97t-74.5 -81t-136.5 -33q-96 0 -148 41t-52 125q0 41 9 98l27 192q17 120 72 175t161 55q80 0 127.5 -42t47.5 -111q0 -66 -33 -113t-91 -62q52 -11 82.5 -49.5zM218.5 565.5q-31.5 -38.5 -43.5 -125.5l-9 -64h79
q85 0 120 39t35 100q0 41 -24 65t-66 24q-60 0 -91.5 -38.5zM356.5 104q33.5 39 33.5 96q0 55 -33.5 80.5t-102.5 25.5h-98l-9 -66q-5 -36 -5 -76q0 -50 29 -74.5t84 -24.5q68 0 101.5 39z" />
    <glyph glyph-name="uni0433" unicode="&#x433;" horiz-adv-x="392" 
d="M383 376h-194l-54 -376h-90l63 449h286z" />
    <glyph glyph-name="uni0433.loclBGR" horiz-adv-x="409" 
d="M77 20q-39 29 -39 90q0 43 20.5 71t49 43.5t75.5 33.5q50 19 74 35.5t24 44.5q0 46 -68 46q-59 0 -117 -32l11 81q21 9 55.5 17t74.5 8q66 0 102 -27.5t36 -80.5q0 -44 -20 -72t-48.5 -43.5t-74.5 -32.5q-50 -18 -74.5 -35t-24.5 -48q0 -55 67 -55q64 0 130 41l-12 -80
q-21 -14 -57.5 -24t-76.5 -10q-68 0 -107 29z" />
    <glyph glyph-name="uni0433.loclSRB" horiz-adv-x="239" 
d="M34 641h269l-10 -74h-269zM104 376h-62l11 73h151l-62 -449h-90z" />
    <glyph glyph-name="uni0453" unicode="&#x453;" horiz-adv-x="392" 
d="M302 520h-94l141 164h119zM383 376h-194l-54 -376h-90l63 449h286z" />
    <glyph glyph-name="uni0453.loclMKD" horiz-adv-x="239" 
d="M210 684h119l-166 -164h-94zM99 376h-62l11 73h151l-62 -449h-90z" />
    <glyph glyph-name="uni0491" unicode="&#x491;" horiz-adv-x="383" 
d="M383 376h-195l-53 -376h-90l63 449h204l17 119h83z" />
    <glyph glyph-name="uni0434" unicode="&#x434;" horiz-adv-x="576" 
d="M525 73l-27 -192h-82l17 120h-354l-17 -120h-83l27 192h11q21 0 38.5 10.5t35.5 34.5q22 32 37 82t27 135l16 114h338l-53 -376h69zM203.5 177.5q-19.5 -62.5 -54.5 -104.5h218l43 304h-168l-6 -42q-13 -95 -32.5 -157.5z" />
    <glyph glyph-name="uni0434.loclBGR" horiz-adv-x="581" 
d="M79 -187l12 78q51 -21 119 -21q88 0 130.5 46t54.5 133l3 19q-23 -30 -63.5 -49t-94.5 -19q-93 0 -146.5 53t-53.5 147q0 20 3 41q13 99 81.5 158t167.5 59q57 0 97 -22t59 -58l12 71h82l-57 -409q-19 -131 -83 -189t-190 -58q-86 0 -133 20zM346 103.5
q38 24.5 58.5 65.5t20.5 89q0 58 -33.5 90.5t-89.5 32.5q-49 0 -87.5 -24t-60 -64.5t-21.5 -89.5q0 -57 34 -90.5t93 -33.5q48 0 86 24.5z" />
    <glyph glyph-name="uni0434.loclSRB" horiz-adv-x="581" 
d="M79 -187l12 78q51 -21 119 -21q88 0 130.5 46t54.5 133l3 19q-23 -30 -63.5 -49t-94.5 -19q-93 0 -146.5 53t-53.5 147q0 20 3 41q13 99 81.5 158t167.5 59q57 0 97 -22t59 -58l12 71h82l-57 -409q-19 -131 -83 -189t-190 -58q-86 0 -133 20zM346 103.5
q38 24.5 58.5 65.5t20.5 89q0 58 -33.5 90.5t-89.5 32.5q-49 0 -87.5 -24t-60 -64.5t-21.5 -89.5q0 -57 34 -90.5t93 -33.5q48 0 86 24.5z" />
    <glyph glyph-name="uni0435" unicode="&#x435;" horiz-adv-x="516" 
d="M39 188q0 21 3 46q14 100 79 162t165 62q94 0 143.5 -47t49.5 -127q0 -45 -12 -92h-336v-13q0 -111 141 -111q52 0 95 12.5t73 28.5l-12 -82q-26 -14 -68.5 -25t-97.5 -11q-223 0 -223 197zM386 257q3 11 3 30q0 44 -28 70t-76 26q-54 0 -93.5 -34.5t-51.5 -91.5h246z
" />
    <glyph glyph-name="uni0451" unicode="&#x451;" horiz-adv-x="516" 
d="M176 568.5q-13 13.5 -13 34.5q0 26 18 43t43 17q21 0 34.5 -14t13.5 -34q0 -27 -17.5 -43.5t-43.5 -16.5q-22 0 -35 13.5zM383 568.5q-13 13.5 -13 34.5q0 26 18.5 43t43.5 17q21 0 34 -13.5t13 -34.5q0 -27 -17.5 -43.5t-42.5 -16.5q-23 0 -36 13.5zM39 188q0 21 3 46
q14 100 79 162t165 62q94 0 143.5 -47t49.5 -127q0 -45 -12 -92h-336v-13q0 -111 141 -111q52 0 95 12.5t73 28.5l-12 -82q-26 -14 -68.5 -25t-97.5 -11q-223 0 -223 197zM386 257q3 11 3 30q0 44 -28 70t-76 26q-54 0 -93.5 -34.5t-51.5 -91.5h246z" />
    <glyph glyph-name="uni0436" unicode="&#x436;" horiz-adv-x="731" 
d="M512 226l176 -226h-116l-161 223l-31 -223h-90l31 224l-223 -224h-119l242 236l-169 213h111l160 -214l30 214h90l-30 -212l216 212h116z" />
    <glyph glyph-name="uni0436.loclBGR" horiz-adv-x="731" 
d="M513 226l176 -226h-117l-161 223l-31 -223h-90l31 224l-223 -224h-119l242 236l-169 213h111l160 -213l59 427h90l-59 -426l216 212h116z" />
    <glyph glyph-name="uni0437" unicode="&#x437;" horiz-adv-x="435" 
d="M355.5 206.5q20.5 -24.5 20.5 -68.5q0 -63 -49 -105t-152 -42q-90 0 -149 33l10 74q70 -35 141 -35q113 0 113 75q0 29 -21 42.5t-67 13.5h-66l9 68h47q105 0 105 69q0 29 -20 42.5t-56 13.5q-39 0 -76 -12t-64 -30l11 76q23 14 61.5 25.5t85.5 11.5q62 0 104 -26t42 -82
q0 -46 -22.5 -73.5t-60.5 -37.5q33 -8 53.5 -32.5z" />
    <glyph glyph-name="uni0437.loclBGR" horiz-adv-x="429" 
d="M341 92.5q25 -34.5 25 -91.5q0 -89 -57.5 -148.5t-188.5 -59.5q-44 0 -84 10.5t-62 23.5l13 81q58 -37 136 -37q72 0 111 33.5t39 96.5q0 52 -31 75t-92 23h-48l10 73h36q75 0 111.5 32.5t36.5 92.5q0 43 -26 63.5t-70 20.5q-76 0 -143 -40l11 80q22 14 64 25.5t90 11.5
q72 0 121 -35.5t49 -106.5q0 -67 -33.5 -112t-83.5 -63q41 -14 66 -48.5z" />
    <glyph glyph-name="uni0438" unicode="&#x438;" horiz-adv-x="547" 
d="M504 458l-64 -458h-90l39 275l-335 -284h-11l65 458h89l-41 -282l338 291h10z" />
    <glyph glyph-name="uni0438.loclBGR" horiz-adv-x="545" 
d="M500 449l-63 -449h-82l6 55q-52 -64 -144 -64q-75 0 -115.5 36t-40.5 100q0 22 5 72l35 250h90l-35 -248q-5 -33 -5 -56q0 -77 92 -77q64 0 94.5 41t42.5 129l30 211h90z" />
    <glyph glyph-name="uni0439" unicode="&#x439;" horiz-adv-x="547" 
d="M217.5 531.5q-32.5 31.5 -32.5 86.5q0 20 2 31l2 12h76l-1 -3q-2 -18 -2 -24q0 -36 16.5 -55.5t49.5 -19.5q39 0 62.5 26t29.5 73l1 3h76l-2 -12q-10 -67 -54 -108t-122 -41q-69 0 -101.5 31.5zM504 458l-64 -458h-90l39 275l-335 -284h-11l65 458h89l-41 -282l338 291
h10z" />
    <glyph glyph-name="uni0439.loclBGR" horiz-adv-x="545" 
d="M205.5 531.5q-32.5 31.5 -32.5 86.5q0 20 2 31l2 12h76l-1 -3q-2 -18 -2 -26q0 -35 16.5 -54t48.5 -19q39 0 63 26t30 73l1 3h76l-2 -12q-10 -67 -54 -108t-122 -41q-69 0 -101.5 31.5zM500 449l-63 -449h-82l6 55q-52 -64 -144 -64q-75 0 -115.5 36t-40.5 100q0 22 5 72
l35 250h90l-35 -248q-5 -33 -5 -56q0 -77 92 -77q64 0 94.5 41t42.5 129l30 211h90z" />
    <glyph glyph-name="uni045D" unicode="&#x45d;" horiz-adv-x="537" 
d="M301 520l-124 164h116l93 -164h-85zM504 458l-64 -458h-90l39 275l-335 -284h-11l65 458h89l-41 -282l338 291h10z" />
    <glyph glyph-name="uni045D.loclBGR" horiz-adv-x="545" 
d="M267 520l-124 164h115l94 -164h-85zM500 449l-63 -449h-82l6 55q-52 -64 -144 -64q-75 0 -115.5 36t-40.5 100q0 22 5 72l35 250h90l-35 -248q-5 -33 -5 -56q0 -77 92 -77q64 0 94.5 41t42.5 129l30 211h90z" />
    <glyph glyph-name="uni043A" unicode="&#x43a;" horiz-adv-x="496" 
d="M270 228l184 -228h-110l-177 222l-32 -222h-90l63 449h91l-30 -211l227 211h116z" />
    <glyph glyph-name="uni043A.loclBGR" horiz-adv-x="495" 
d="M138 663h90l-59 -419l228 205h116l-246 -215l185 -234h-110l-175 230l-32 -230h-90z" />
    <glyph glyph-name="uni045C" unicode="&#x45c;" horiz-adv-x="496" 
d="M337 520h-94l141 164h119zM270 228l184 -228h-110l-177 222l-32 -222h-90l63 449h91l-30 -211l227 211h116z" />
    <glyph glyph-name="uni043B" unicode="&#x43b;" horiz-adv-x="560" 
d="M516 449l-63 -449h-90l53 376h-173l-12 -80q-15 -104 -36 -169t-56 -100t-91 -35q-31 0 -53 10l11 78q15 -6 34 -6q44 0 66.5 53.5t39.5 171.5l21 150h349z" />
    <glyph glyph-name="uni043B.loclBGR" horiz-adv-x="493" 
d="M349 0l-93 294l-175 -294h-98l290 458h10l163 -458h-97z" />
    <glyph glyph-name="uni043C" unicode="&#x43c;" horiz-adv-x="683" 
d="M521 0l-27 256l-180 -265h-10l-102 264l-102 -255h-91l186 457h10l124 -316l212 316h10l60 -457h-90z" />
    <glyph glyph-name="uni043D" unicode="&#x43d;" horiz-adv-x="560" 
d="M516 449l-64 -449h-90l27 191h-227l-27 -191h-90l63 449h91l-26 -185h226l26 185h91z" />
    <glyph glyph-name="uni043E" unicode="&#x43e;" horiz-adv-x="562" 
d="M93 46q-54 55 -54 147q0 21 3 42q15 100 85.5 161.5t180.5 61.5q98 0 156.5 -51t58.5 -149q0 -21 -3 -42q-15 -104 -87 -164.5t-181 -60.5q-105 0 -159 55zM346 94.5q39 25.5 60.5 68t21.5 93.5q0 58 -33 91.5t-90 33.5q-50 0 -89.5 -26t-61 -69.5t-21.5 -94.5
q0 -56 33.5 -89t89.5 -33q51 0 90 25.5z" />
    <glyph glyph-name="uni043F" unicode="&#x43f;" horiz-adv-x="549" 
d="M505 449l-64 -449h-90l53 376h-216l-53 -376h-90l63 449h397z" />
    <glyph glyph-name="uni043F.loclBGR" horiz-adv-x="548" 
d="M108 449h82l-6 -62q24 34 62 52.5t88 18.5q73 0 114 -38t41 -107q0 -24 -6 -63l-35 -250h-90l35 247q5 45 5 55q0 79 -86 79q-69 0 -102.5 -43.5t-44.5 -126.5l-30 -211h-90z" />
    <glyph glyph-name="uni043F.loclSRB" horiz-adv-x="545" 
d="M464 567h-294l10 74h294zM500 449l-63 -449h-82l6 55q-52 -64 -144 -64q-75 0 -115.5 36t-40.5 100q0 22 5 72l35 250h90l-35 -248q-5 -33 -5 -56q0 -77 92 -77q64 0 94.5 41t42.5 129l30 211h90z" />
    <glyph glyph-name="uni0440" unicode="&#x440;" horiz-adv-x="586" 
d="M108 449h82l-7 -59q31 32 73.5 50t91.5 18q92 0 145.5 -55t53.5 -145q0 -21 -3 -44q-9 -70 -44 -120t-88.5 -76.5t-116.5 -26.5q-55 0 -94 20t-57 52l-37 -261h-90zM375 94q38 25 58.5 68t20.5 94q0 59 -34.5 92t-93.5 33q-50 0 -88 -25.5t-58.5 -68.5t-20.5 -95
q0 -58 34 -90.5t93 -32.5q51 0 89 25z" />
    <glyph glyph-name="uni0441" unicode="&#x441;" horiz-adv-x="443" 
d="M96 41.5q-58 50.5 -58 148.5q0 20 3 42q15 110 87.5 168t178.5 58q71 0 119 -26l-11 -82q-19 13 -46.5 22t-60.5 9q-67 0 -114.5 -40t-59.5 -115q-2 -16 -2 -29q0 -60 32.5 -94t96.5 -34q63 0 121 36l-12 -89q-19 -10 -51.5 -17.5t-69.5 -7.5q-95 0 -153 50.5z" />
    <glyph glyph-name="uni0442" unicode="&#x442;" horiz-adv-x="416" 
d="M408 376h-133l-53 -376h-90l52 376h-133l11 73h356z" />
    <glyph glyph-name="uni0442.loclBGR" horiz-adv-x="815" 
d="M108 449h82l-6 -60q22 31 57 50t83 19q104 0 128 -81q23 37 61 59t91 22q73 0 113 -37t40 -106q0 -17 -4 -45l-38 -270h-90l35 252q6 40 6 55q0 74 -74 74q-58 0 -92 -42.5t-45 -127.5l-30 -211h-90l35 252q6 40 6 55q0 74 -74 74q-59 0 -92.5 -42.5t-44.5 -127.5
l-30 -211h-90z" />
    <glyph glyph-name="uni0442.loclSRB" horiz-adv-x="807" 
d="M704 567h-511l10 74h511zM763 449l-63 -449h-83l6 55q-23 -30 -59 -47t-79 -17q-48 0 -82 20t-47 58q-25 -38 -65.5 -58t-86.5 -20q-71 0 -108 34t-37 96q0 31 5 65l37 263h90l-36 -258q-5 -33 -5 -56q0 -31 20 -49t64 -18q57 0 84 42.5t39 126.5l30 212h90l-36 -255
q-4 -28 -4 -55q0 -33 19.5 -52t61.5 -19q57 0 85 43t40 126l30 212h90z" />
    <glyph glyph-name="uni0443" unicode="&#x443;" horiz-adv-x="496" 
d="M174 30l-127 419h98l88 -325l180 325h100l-372 -647h-99z" />
    <glyph glyph-name="uni045E" unicode="&#x45e;" horiz-adv-x="496" 
d="M182.5 532q-32.5 32 -32.5 87q0 10 2 30l2 12h76l-1 -3q-2 -18 -2 -24q0 -36 16.5 -55.5t49.5 -19.5q39 0 62.5 26t29.5 73l1 3h76l-2 -12q-10 -67 -53.5 -108t-122.5 -41q-69 0 -101.5 32zM174 30l-127 419h98l88 -325l180 325h100l-372 -647h-99z" />
    <glyph glyph-name="uni0444" unicode="&#x444;" horiz-adv-x="663" 
d="M596.5 129.5q-26.5 -56.5 -89.5 -96t-166 -42.5l-27 -189h-86l27 190q-64 4 -113 32t-75.5 74.5t-26.5 104.5q0 60 28 116.5t91 95.5t161 43l30 205h86l-29 -205q102 -5 159 -63t57 -150q0 -59 -26.5 -115.5zM167.5 108.5q37.5 -37.5 98.5 -42.5l44 318
q-85 -3 -132.5 -52t-47.5 -124q0 -62 37.5 -99.5zM454.5 94.5q40.5 26.5 59 65.5t18.5 81q0 65 -36 102.5t-101 40.5l-44 -318q63 2 103.5 28.5z" />
    <glyph glyph-name="uni0445" unicode="&#x445;" horiz-adv-x="511" 
d="M202 224l-147 225h104l104 -170l153 170h108l-212 -229l146 -220h-105l-104 166l-153 -166h-109z" />
    <glyph glyph-name="uni0447" unicode="&#x447;" horiz-adv-x="529" 
d="M484 449l-63 -449h-90l27 190q-45 -53 -141 -53q-75 0 -114.5 37t-39.5 105q0 33 3 52l18 118h90l-15 -101q-4 -24 -4 -52q0 -81 92 -81q63 0 93 34.5t41 111.5l13 88h90z" />
    <glyph glyph-name="uni0446" unicode="&#x446;" horiz-adv-x="569" 
d="M517 73l-26 -192h-82l16 119h-380l63 449h90l-53 -376h212l53 376h90l-51 -376h68z" />
    <glyph glyph-name="uni0446.loclBGR" horiz-adv-x="578" 
d="M527 72l-27 -191h-82l17 116h-4q-30 0 -48.5 15t-21.5 46q-51 -67 -152 -67q-71 0 -110 35t-39 100q0 33 4 60l37 263h90l-35 -248q-4 -30 -4 -54q0 -79 90 -79q115 0 138 170l30 211h90l-43 -302q-4 -34 -4 -43q0 -19 10 -27.5t33 -8.5q21 0 31 4z" />
    <glyph glyph-name="uni0448" unicode="&#x448;" horiz-adv-x="768" 
d="M724 449l-64 -449h-616l64 449h90l-53 -376h173l53 376h90l-53 -376h173l53 376h90z" />
    <glyph glyph-name="uni0448.loclBGR" horiz-adv-x="807" 
d="M763 449l-63 -449h-83l6 55q-23 -30 -59 -47t-79 -17q-48 0 -82 20t-47 58q-25 -38 -65.5 -58t-86.5 -20q-71 0 -108 34t-37 96q0 31 5 65l37 263h90l-36 -258q-5 -33 -5 -56q0 -31 20 -49t64 -18q57 0 84 42.5t39 126.5l30 212h90l-36 -255q-4 -28 -4 -55
q0 -33 19.5 -52t61.5 -19q57 0 85 43t40 126l30 212h90z" />
    <glyph glyph-name="uni0449" unicode="&#x449;" horiz-adv-x="793" 
d="M741 73l-26 -192h-82l17 119h-606l64 449h90l-53 -376h173l53 376h90l-53 -376h173l53 376h90l-53 -376h70z" />
    <glyph glyph-name="uni0449.loclBGR" horiz-adv-x="841" 
d="M790 72l-27 -191h-83l17 116h-2q-30 0 -48.5 14t-22.5 43q-24 -30 -58.5 -46.5t-78.5 -16.5q-50 0 -84.5 19.5t-47.5 57.5q-25 -38 -63.5 -57.5t-88.5 -19.5q-70 0 -107 35t-37 96q0 25 6 70l36 257h90l-35 -246q-5 -32 -5 -57q0 -78 84 -78q55 0 82.5 42.5t39.5 126.5
l30 212h90l-37 -255q-4 -30 -4 -52q0 -74 85 -74q56 0 83 44t39 125l30 212h90l-45 -313q-3 -19 -3 -33q0 -18 10 -26.5t33 -8.5q22 0 32 4z" />
    <glyph glyph-name="uni045F" unicode="&#x45f;" horiz-adv-x="544" 
d="M436 0h-155l-16 -119h-82l16 119h-154l63 449h90l-53 -376h211l53 376h90z" />
    <glyph glyph-name="uni044C" unicode="&#x44c;" horiz-adv-x="471" 
d="M375 272q53 -32 53 -103q0 -88 -63 -132q-31 -21 -72 -29t-104 -8h-144l63 449h90l-20 -145h59q85 0 138 -32zM335 165q0 39 -28.5 54t-81.5 15h-57l-23 -164h50q44 0 69 6t41 19q30 23 30 70z" />
    <glyph glyph-name="uni044C.loclBGR" horiz-adv-x="516" 
d="M426.5 319q43.5 -44 43.5 -114q0 -52 -23 -101t-75 -81t-134 -32q-87 0 -133 41t-46 124q0 25 8 89l30 204h90l-19 -140q23 24 59.5 39t82.5 15q73 0 116.5 -44zM341 99q37 38 37 95q0 46 -26.5 73t-71.5 27q-60 0 -96.5 -38.5t-36.5 -96.5q0 -45 26 -71.5t73 -26.5
q58 0 95 38z" />
    <glyph glyph-name="uni044A" unicode="&#x44a;" horiz-adv-x="558" 
d="M462 272q53 -32 53 -103q0 -88 -63 -132q-31 -21 -72 -29t-104 -8h-144l52 376h-132l10 73h223l-20 -145h59q85 0 138 -32zM421 165q0 39 -28 54t-81 15h-57l-23 -164h50q44 0 69 6t41 19q29 22 29 70z" />
    <glyph glyph-name="uni044A.loclBGR" horiz-adv-x="604" 
d="M514.5 319q43.5 -44 43.5 -114q0 -52 -23 -101t-75 -81t-134 -32q-86 0 -132.5 41t-46.5 124q0 25 8 89l20 131h-133l10 73h223l-19 -140q23 24 59.5 39t82.5 15q73 0 116.5 -44zM429 99q37 38 37 95q0 46 -26.5 73t-71.5 27q-60 0 -96.5 -38.5t-36.5 -96.5
q0 -45 26.5 -71.5t72.5 -26.5q58 0 95 38z" />
    <glyph glyph-name="uni044B" unicode="&#x44b;" horiz-adv-x="721" 
d="M375 272q53 -32 53 -103q0 -88 -63 -132q-31 -21 -72 -29t-104 -8h-144l63 449h90l-20 -145h59q85 0 138 -32zM677 449l-64 -449h-90l64 449h90zM335 165q0 39 -28.5 54t-81.5 15h-57l-23 -164h50q44 0 69 6t41 19q30 23 30 70z" />
    <glyph glyph-name="uni0459" unicode="&#x459;" horiz-adv-x="789" 
d="M692 272q53 -32 53 -103q0 -88 -63 -132q-31 -21 -71.5 -29t-104.5 -8h-143l53 376h-173l-12 -80q-15 -104 -36 -169t-56 -100t-91 -35q-31 0 -53 10l11 78q15 -6 34 -6q44 0 66.5 53.5t39.5 171.5l21 150h349l-20 -145h58q85 0 138 -32zM652 165q0 39 -28 54t-81 15h-57
l-23 -164h50q44 0 69 6t41 19q29 22 29 70z" />
    <glyph glyph-name="uni045A" unicode="&#x45a;" horiz-adv-x="788" 
d="M692 272q53 -32 53 -103q0 -88 -63 -132q-31 -21 -72 -29t-104 -8h-144l27 191h-227l-27 -191h-90l63 449h91l-26 -185h226l26 185h91l-21 -145h59q85 0 138 -32zM651 165q0 39 -28 54t-81 15h-57l-23 -164h50q44 0 69 6t41 19q29 22 29 70z" />
    <glyph glyph-name="uni0455" unicode="&#x455;" horiz-adv-x="381" 
d="M72.5 -0.5q-34.5 8.5 -50.5 18.5l10 74q19 -12 49 -22t63 -10q39 0 66.5 17t27.5 57q0 27 -17.5 41.5t-54.5 29.5q-31 13 -51 25t-34 34.5t-14 57.5q0 60 40 98t118 38q38 0 70 -8.5t44 -17.5l-11 -72q-17 12 -44 20.5t-55 8.5q-38 0 -58 -17t-20 -43q0 -23 16.5 -35.5
t51.5 -27.5q33 -14 54.5 -26.5t36.5 -37t15 -62.5q0 -71 -48.5 -110t-129.5 -39q-40 0 -74.5 8.5z" />
    <glyph glyph-name="uni0454" unicode="&#x454;" horiz-adv-x="449" 
d="M197 349.5q-44 -31.5 -60 -87.5h185l-10 -70h-184q1 -59 36.5 -91t97.5 -32q38 0 70 11.5t50 24.5l-11 -87q-20 -10 -55 -18.5t-74 -8.5q-90 0 -147 50t-57 146q0 14 4 48q15 107 86.5 165t181.5 58q68 0 115 -26l-12 -83q-48 32 -107 32q-65 0 -109 -31.5z" />
    <glyph glyph-name="uni044D" unicode="&#x44d;" horiz-adv-x="452" 
d="M357 408q57 -50 57 -146q0 -16 -4 -48q-13 -106 -85 -164.5t-183 -58.5q-41 0 -72 8t-50 18l12 83q51 -31 114 -31q67 0 111 32.5t59 90.5h-189l9 70h188q-3 57 -37.5 87.5t-96.5 30.5q-38 0 -69.5 -11.5t-49.5 -24.5l11 86q20 11 55 19.5t74 8.5q89 0 146 -50z" />
    <glyph glyph-name="uni0456" unicode="&#x456;" horiz-adv-x="239" 
d="M140.5 568.5q-13.5 13.5 -13.5 35.5q0 27 17 43t42 16q22 0 36 -13t14 -36q0 -28 -17 -43.5t-42 -15.5q-23 0 -36.5 13.5zM104 376h-62l11 73h151l-62 -449h-90z" />
    <glyph glyph-name="uni0457" unicode="&#x457;" horiz-adv-x="239" 
d="M43 568.5q-13 13.5 -13 34.5q0 26 18 43t43 17q21 0 34.5 -13.5t13.5 -34.5q0 -27 -17.5 -43.5t-42.5 -16.5q-23 0 -36 13.5zM211 568.5q-13 13.5 -13 34.5q0 26 18 43t43 17q21 0 34.5 -14t13.5 -34q0 -27 -17.5 -43.5t-43.5 -16.5q-22 0 -35 13.5zM104 376h-62l11 73
h151l-62 -449h-90z" />
    <glyph glyph-name="uni0458" unicode="&#x458;" horiz-adv-x="280" 
d="M153.5 568.5q-13.5 13.5 -13.5 35.5q0 27 17 43t42 16q22 0 36 -13t14 -36q0 -28 -17 -43.5t-42 -15.5q-23 0 -36.5 13.5zM-125 -193l11 73q26 -12 66 -12q41 0 64 18t33.5 49.5t17.5 82.5l51 358h-63l11 73h152l-61 -438q-10 -70 -26 -115t-56.5 -74t-113.5 -29
q-53 0 -86 14z" />
    <glyph glyph-name="uni045B" unicode="&#x45b;" horiz-adv-x="567" 
d="M470.5 392.5q38.5 -35.5 38.5 -106.5q0 -30 -7 -70l-31 -216h-90l29 208q6 46 6 60q0 83 -88 83q-68 0 -100.5 -43t-43.5 -128l-26 -180h-90l71 500h-105l10 70h105l13 93h90l-13 -93h152l-10 -70h-152l-19 -132q25 29 63.5 44.5t86.5 15.5q72 0 110.5 -35.5z" />
    <glyph glyph-name="uni044E" unicode="&#x44e;" horiz-adv-x="770" 
d="M674.5 407q57.5 -51 57.5 -149q0 -21 -3 -42q-15 -104 -86.5 -164.5t-179.5 -60.5q-103 0 -156.5 54.5t-54.5 145.5h-91l-27 -191h-90l64 449h90l-26 -185h89q22 88 89 141t169 53q98 0 155.5 -51zM556.5 94.5q38.5 25.5 59.5 68t21 93.5q0 58 -32.5 91.5t-88.5 33.5
q-50 0 -88.5 -26t-60 -69.5t-21.5 -94.5q0 -56 32.5 -89t88.5 -33q51 0 89.5 25.5z" />
    <glyph glyph-name="uni044F" unicode="&#x44f;" horiz-adv-x="488" 
d="M444 449l-64 -449h-90l22 157h-66l-128 -157h-107l140 164q-41 8 -66 39.5t-25 77.5q0 16 2 32q10 77 61.5 106.5t131.5 29.5h189zM322 227l22 152h-84q-50 0 -76 -14t-33 -57q-1 -6 -1 -20q0 -61 90 -61h82z" />
    <glyph glyph-name="uni0452" unicode="&#x452;" horiz-adv-x="574" 
d="M521 262q0 -94 -53.5 -197t-141.5 -184h-104q106 95 156 192t50 178q0 49 -23 74.5t-73 25.5q-71 0 -104 -42t-44 -129l-25 -180h-90l70 500h-105l10 70h105l13 93h90l-13 -93h152l-10 -70h-152l-19 -132q55 60 150 60q161 0 161 -166z" />
    <glyph glyph-name="Alpha" unicode="&#x391;" horiz-adv-x="645" 
d="M379 658h10l202 -658h-98l-38 128h-290l-73 -128h-101zM436 206l-76 266l-151 -266h227z" />
    <glyph glyph-name="Beta" unicode="&#x392;" horiz-adv-x="591" 
d="M540 208q0 -32 -9.5 -67.5t-31.5 -63.5q-29 -37 -81 -57t-143 -20h-222l91 648h168q230 0 230 -155q0 -34 -13 -66.5t-36 -53.5q-26 -24 -62 -33q109 -20 109 -132zM199 368h82q102 0 139 42q16 17 22 38t6 39q0 49 -39 66t-107 17h-75zM439.5 165.5q5.5 22.5 5.5 38.5
q0 49 -38 67.5t-114 18.5h-105l-30 -211h107q56 0 94.5 10.5t58.5 34.5q16 19 21.5 41.5z" />
    <glyph glyph-name="Gamma" unicode="&#x393;" horiz-adv-x="490" 
d="M144 648h386l-12 -80h-293l-79 -568h-93z" />
    <glyph glyph-name="uni0394" unicode="&#x394;" horiz-adv-x="644" 
d="M590 0h-600l388 658h10zM359 473l-221 -392h331z" />
    <glyph glyph-name="Epsilon" unicode="&#x395;" horiz-adv-x="513" 
d="M144 648h382l-11 -80h-290l-27 -198h212l-12 -79h-211l-30 -210h302l-12 -81h-394z" />
    <glyph glyph-name="Zeta" unicode="&#x396;" horiz-adv-x="594" 
d="M15 10l423 558h-327l12 80h480l-2 -11l-421 -556h346l-12 -81h-500z" />
    <glyph glyph-name="Eta" unicode="&#x397;" horiz-adv-x="698" 
d="M144 648h93l-39 -278h342l39 278h94l-91 -648h-94l41 289h-343l-40 -289h-93z" />
    <glyph glyph-name="Theta" unicode="&#x398;" horiz-adv-x="754" 
d="M192.5 27.5q-64.5 37.5 -96.5 101.5t-32 145q0 32 4 60q13 93 60 166.5t125 115.5t180 42q91 0 155.5 -37t97.5 -100.5t33 -141.5q0 -30 -4 -59q-12 -93 -57.5 -167.5t-123 -118.5t-182.5 -44q-95 0 -159.5 37.5zM484 109q57 32 92 89.5t45 130.5q3 26 3 46q0 89 -51 143
t-145 54q-71 0 -127.5 -32t-92 -88.5t-45.5 -127.5q-3 -24 -3 -46q0 -90 50.5 -145.5t144.5 -55.5q72 0 129 32zM251 370h294l-12 -81h-294z" />
    <glyph glyph-name="Iota" unicode="&#x399;" horiz-adv-x="262" 
d="M144 648h93l-91 -648h-93z" />
    <glyph glyph-name="Kappa" unicode="&#x39a;" horiz-adv-x="632" 
d="M144 648h93l-44 -312l347 312h125l-361 -324l278 -324h-123l-268 320l-45 -320h-93z" />
    <glyph glyph-name="Lambda" unicode="&#x39b;" horiz-adv-x="638" 
d="M485 0l-129 471l-264 -471h-101l384 658h10l198 -658h-98z" />
    <glyph glyph-name="Mu" unicode="&#x39c;" horiz-adv-x="846" 
d="M248 410l-131 -410h-95l219 658h10l163 -489l301 489h10l36 -658h-93l-15 410l-257 -420h-10z" />
    <glyph glyph-name="Nu" unicode="&#x39d;" horiz-adv-x="708" 
d="M208 458l-64 -458h-91l92 658h10l372 -468l64 458h91l-92 -658h-10z" />
    <glyph glyph-name="Xi" unicode="&#x39e;" horiz-adv-x="545" 
d="M109 648h447l-11 -80h-448zM130 370h329l-11 -80h-330zM23 81h458l-12 -81h-457z" />
    <glyph glyph-name="Omicron" unicode="&#x39f;" horiz-adv-x="754" 
d="M192.5 27.5q-64.5 37.5 -96.5 101.5t-32 145q0 32 4 60q13 93 60 166.5t125 115.5t180 42q91 0 155.5 -37t97.5 -100.5t33 -141.5q0 -30 -4 -59q-12 -93 -57.5 -167.5t-123 -118.5t-182.5 -44q-95 0 -159.5 37.5zM484 109q57 32 92 89.5t45 130.5q3 26 3 46q0 89 -51 143
t-145 54q-71 0 -127.5 -32t-92 -88.5t-45.5 -127.5q-3 -24 -3 -46q0 -90 50.5 -145.5t144.5 -55.5q72 0 129 32z" />
    <glyph glyph-name="Pi" unicode="&#x3a0;" horiz-adv-x="688" 
d="M663 648l-91 -648h-94l79 568h-332l-79 -568h-93l91 648h519z" />
    <glyph glyph-name="Rho" unicode="&#x3a1;" horiz-adv-x="584" 
d="M144 648h150q87 0 146 -11.5t97.5 -51t38.5 -117.5q0 -25 -3 -46q-13 -89 -63.5 -131.5t-112.5 -53t-149 -10.5h-70l-32 -227h-93zM256 305q66 0 109.5 8t74.5 36.5t39 86.5q2 18 2 28q0 46 -22.5 68.5t-61 29.5t-103.5 7h-68l-37 -264h67z" />
    <glyph glyph-name="Sigma" unicode="&#x3a3;" horiz-adv-x="600" 
d="M551 568h-304l147 -241l-216 -246h314l-11 -81h-480l2 10l279 319l-188 309l2 10h467z" />
    <glyph glyph-name="Tau" unicode="&#x3a4;" horiz-adv-x="553" 
d="M279 568h-191l12 80h472l-12 -80h-188l-80 -568h-94z" />
    <glyph glyph-name="Upsilon" unicode="&#x3a5;" horiz-adv-x="602" 
d="M257 256l-175 392h101l130 -310l222 310h104l-289 -392l-36 -256h-93z" />
    <glyph glyph-name="Phi" unicode="&#x3a6;" horiz-adv-x="817" 
d="M735 189.5q-44 -68.5 -123.5 -106.5t-182.5 -41l-9 -70h-92l10 71q-80 6 -141.5 38t-96 87t-34.5 127q0 89 44.5 158.5t124 109.5t182.5 43l9 70h92l-9 -71q82 -6 143 -40t94 -90t33 -127q0 -90 -44 -158.5zM216 176.5q54 -44.5 134 -50.5l57 396q-69 -5 -125 -33.5
t-88 -77.5t-32 -112q0 -78 54 -122.5zM616 188q67 57 67 153q0 77 -51.5 125t-136.5 56l-56 -396q110 5 177 62z" />
    <glyph glyph-name="Chi" unicode="&#x3a7;" horiz-adv-x="612" 
d="M266 332l-173 316h106l132 -250l200 250h111l-263 -317l179 -331h-106l-137 262l-211 -262h-113z" />
    <glyph glyph-name="Psi" unicode="&#x3a8;" horiz-adv-x="846" 
d="M817 648l-19 -134q-20 -144 -98 -216t-231 -77l-31 -221h-94l31 221q-123 5 -187.5 61.5t-64.5 155.5q0 35 7 84l17 126h94l-19 -131q-4 -31 -4 -71q0 -136 169 -142l48 344h94l-48 -344q102 3 155 52.5t69 157.5l19 134h93z" />
    <glyph glyph-name="uni03A9" unicode="&#x3a9;" horiz-adv-x="758" 
d="M680 204.5q-42 -77.5 -123 -123.5h128l-11 -81h-270l12 81q101 39 156 112.5t55 173.5q0 92 -54.5 148.5t-148.5 56.5q-80 0 -139 -35.5t-90.5 -96t-31.5 -133.5q0 -81 39 -141t103 -85l-11 -81h-268l10 81h134q-47 35 -74.5 95.5t-27.5 128.5q0 86 40.5 167.5t123 133.5
t200.5 52q88 0 153.5 -37t101 -101.5t35.5 -144.5q0 -93 -42 -170.5z" />
    <glyph glyph-name="Alphatonos" unicode="&#x386;" horiz-adv-x="695" 
d="M430 658h10l201 -658h-98l-37 128h-290l-74 -128h-101zM131 648h101l-116 -164h-77zM487 206l-77 266l-151 -266h228z" />
    <glyph glyph-name="Epsilontonos" unicode="&#x388;" horiz-adv-x="708" 
d="M128 648h101l-116 -164h-77zM339 648h383l-12 -80h-289l-28 -198h212l-11 -79h-211l-30 -210h301l-11 -81h-395z" />
    <glyph glyph-name="Etatonos" unicode="&#x389;" horiz-adv-x="893" 
d="M128 648h101l-116 -164h-77zM339 648h93l-39 -278h343l39 278h93l-91 -648h-93l40 289h-342l-41 -289h-93z" />
    <glyph glyph-name="Iotatonos" unicode="&#x38a;" horiz-adv-x="457" 
d="M128 648h101l-116 -164h-77zM339 648h93l-91 -648h-93z" />
    <glyph glyph-name="Omicrontonos" unicode="&#x38c;" horiz-adv-x="886" 
d="M323.5 27.5q-64.5 37.5 -96 101.5t-31.5 145q0 32 4 60q13 94 60 167t124.5 115t179.5 42q91 0 155.5 -37t97.5 -100.5t33 -141.5q0 -30 -4 -59q-12 -93 -57 -167.5t-122.5 -118.5t-183.5 -44q-95 0 -159.5 37.5zM128 648h101l-116 -164h-77zM615.5 109
q56.5 32 91.5 89.5t45 130.5q3 26 3 46q0 89 -51 143t-144 54q-72 0 -128.5 -32t-91.5 -88t-46 -128q-3 -24 -3 -46q0 -90 50.5 -145.5t145.5 -55.5q72 0 128.5 32z" />
    <glyph glyph-name="Upsilontonos" unicode="&#x38e;" horiz-adv-x="839" 
d="M128 648h101l-116 -164h-77zM493 256l-175 392h101l131 -310l221 310h104l-288 -392l-36 -256h-94z" />
    <glyph glyph-name="Omegatonos" unicode="&#x38f;" horiz-adv-x="890" 
d="M812 205q-42 -78 -124 -124h128l-11 -81h-269l11 81q101 39 156 112.5t55 173.5q0 92 -54 148.5t-149 56.5q-79 0 -138.5 -35.5t-91 -96t-31.5 -133.5q0 -81 39 -141t103 -85l-11 -81h-268l11 81h133q-47 35 -74.5 95.5t-27.5 128.5q0 86 41 167.5t123 133.5t200 52
q88 0 154 -37t101.5 -101.5t35.5 -144.5q0 -92 -42 -170zM229 648l-116 -164h-77l92 164h101z" />
    <glyph glyph-name="Iotadieresis" unicode="&#x3aa;" horiz-adv-x="262" 
d="M67 747q-15 15 -15 40q0 28 19 47.5t46 19.5q25 0 40.5 -15.5t15.5 -40.5q0 -30 -19 -48t-46 -18q-26 0 -41 15zM264 747q-15 15 -15 40q0 28 19.5 47.5t45.5 19.5q25 0 40.5 -15.5t15.5 -40.5q0 -30 -19 -48t-46 -18q-26 0 -41 15zM144 648h93l-91 -648h-93z" />
    <glyph glyph-name="Upsilondieresis" unicode="&#x3ab;" horiz-adv-x="602" 
d="M233.5 747q-15.5 15 -15.5 40q0 28 19.5 47.5t46.5 19.5q25 0 40.5 -15.5t15.5 -40.5q0 -30 -19.5 -48t-46.5 -18q-25 0 -40.5 15zM431 747q-15 15 -15 40q0 28 19 47.5t46 19.5q25 0 40.5 -15.5t15.5 -40.5q0 -30 -19 -48t-46 -18q-26 0 -41 15zM257 256l-175 392h101
l130 -310l222 310h104l-289 -392l-36 -256h-93z" />
    <glyph glyph-name="alpha" unicode="&#x3b1;" horiz-adv-x="581" 
d="M94.5 44.5q-55.5 53.5 -55.5 147.5q0 22 3 44q15 104 84.5 163t167.5 59q58 0 97 -22.5t56 -58.5l12 72h82l-63 -449h-83l8 62q-57 -71 -160 -71q-93 0 -148.5 53.5zM346.5 94q37.5 25 57.5 67.5t20 94.5q0 63 -34.5 94t-86.5 31q-50 0 -89 -24.5t-60.5 -66.5t-21.5 -94
q0 -61 34.5 -94t92.5 -33q50 0 87.5 25z" />
    <glyph glyph-name="beta" unicode="&#x3b2;" horiz-adv-x="542" 
d="M472 391.5q-31 -32.5 -78 -44.5q44 -13 75.5 -50t31.5 -97q0 -15 -2 -33q-11 -90 -71 -133t-141 -43q-52 0 -90.5 16t-60.5 45l-34 -249h-90l93 663q15 110 70 160.5t159 50.5q84 0 132 -44t48 -120q0 -19 -3 -39q-8 -50 -39 -82.5zM422 507q0 45 -24.5 71t-70.5 26
q-57 0 -90 -35t-43 -110l-31 -217q-5 -35 -5 -64q0 -56 33 -84.5t93 -28.5q49 0 82 27t42 81q2 14 2 26q0 58 -37 82t-102 24h-28l10 71h28q62 0 96 25t43 78q2 20 2 28z" />
    <glyph glyph-name="beta.ss02" unicode="&#x3d0;" horiz-adv-x="529" 
d="M452.5 299.5q30.5 -38.5 30.5 -97.5q0 -49 -22 -97t-74.5 -81t-136.5 -33q-96 0 -148 41t-52 125q0 41 9 98l27 192q17 120 72 175t161 55q80 0 127.5 -42t47.5 -111q0 -66 -33 -113t-91 -62q52 -11 82.5 -49.5zM218.5 565.5q-31.5 -38.5 -43.5 -125.5l-9 -64h79
q85 0 120 39t35 100q0 41 -24 65t-66 24q-60 0 -91.5 -38.5zM356.5 104q33.5 39 33.5 96q0 55 -33.5 80.5t-102.5 25.5h-98l-9 -66q-5 -36 -5 -76q0 -50 29 -74.5t84 -24.5q68 0 101.5 39z" />
    <glyph glyph-name="gamma" unicode="&#x3b3;" horiz-adv-x="493" 
d="M269 57l-37 -255h-90l37 256l-132 391h99l89 -308l179 308h96z" />
    <glyph glyph-name="delta" unicode="&#x3b4;" horiz-adv-x="562" 
d="M485 361q33 -49 33 -119q0 -66 -28 -123.5t-86 -92.5t-144 -35q-66 0 -115 25.5t-75 70t-26 100.5q0 60 25 110.5t72 83t111 39.5l-7 3q-80 38 -80 112q0 59 48.5 100.5t159.5 41.5q45 0 84 -9.5t65 -24.5l-10 -81q-66 38 -144 38q-51 0 -80.5 -16.5t-29.5 -50.5
q0 -25 16.5 -39.5t61.5 -33.5l44 -19q72 -31 105 -80zM353.5 93q35.5 24 52.5 61.5t17 78.5q0 59 -31.5 92t-89.5 33q-53 0 -90 -23.5t-55 -61.5t-18 -80q0 -57 33.5 -90.5t93.5 -33.5q52 0 87.5 24z" />
    <glyph glyph-name="epsilon" unicode="&#x3b5;" horiz-adv-x="449" 
d="M202.5 369.5q-26.5 -17.5 -26.5 -50.5q0 -56 92 -56h54l-9 -69h-55q-59 0 -89.5 -19t-30.5 -53q0 -59 101 -59q76 0 140 35l-9 -78q-53 -29 -155 -29q-76 0 -124.5 29t-48.5 90q0 41 28 75t82 45q-31 10 -49.5 33.5t-18.5 57.5q0 60 49.5 98.5t146.5 38.5q77 0 137 -31
l-11 -76q-61 36 -127 36q-50 0 -76.5 -17.5z" />
    <glyph glyph-name="zeta" unicode="&#x3b6;" horiz-adv-x="417" 
d="M334 512q-108 -119 -153 -198.5t-45 -145.5q0 -43 22.5 -63t81.5 -35q67 -17 94 -37t27 -55q0 -53 -55 -117h-83q22 25 32.5 44.5t10.5 38.5q0 20 -17 32.5t-68 24.5q-69 16 -105 50t-36 101q0 72 46 156t171 217l61 65h-217l10 73h353l-1 -10z" />
    <glyph glyph-name="eta" unicode="&#x3b7;" horiz-adv-x="538" 
d="M103 449h82l-6 -60q24 34 64 51.5t90 17.5q73 0 111.5 -35.5t38.5 -105.5q0 -33 -6 -72l-62 -443h-90l63 446q4 32 4 47q0 86 -90 86q-64 0 -97.5 -43.5t-44.5 -126.5l-30 -211h-90z" />
    <glyph glyph-name="theta" unicode="&#x3b8;" horiz-adv-x="590" 
d="M512 613q49 -64 49 -175q0 -45 -9 -112q-21 -155 -90 -245t-192 -90q-104 0 -156.5 64.5t-52.5 171.5q0 55 8 117q20 154 91.5 243.5t196.5 89.5q106 0 155 -64zM229 541q-46 -59 -64 -171h300q4 33 4 62q0 82 -28 125t-91 43q-75 0 -121 -59zM455 297h-299
q-4 -32 -4 -64q0 -164 125 -164q140 0 178 228z" />
    <glyph glyph-name="theta.ss02" unicode="&#x3d1;" horiz-adv-x="596" 
d="M527.5 608.5q51.5 -68.5 51.5 -172.5q0 -48 -6 -96q-20 -157 -88 -253t-200 -96q-90 0 -141.5 44t-51.5 118q0 27 5 67q1 8 2 16.5t1 17.5q0 12 -7 18t-25 6q-11 0 -29 -4l10 69q29 9 64 9q42 0 60.5 -16t18.5 -50q0 -30 -3 -57q-5 -37 -5 -62q0 -48 28.5 -73t81.5 -25
q82 0 127 70t61 201l1 9q-56 -28 -134 -28q-84 0 -136 46.5t-52 122.5q0 52 25.5 94.5t74.5 67.5t115 25q100 0 151.5 -68.5zM491 427v12q0 79 -32 120t-92 41q-54 0 -86 -30.5t-32 -76.5q0 -44 31 -69t83 -25q73 0 128 28z" />
    <glyph glyph-name="iota" unicode="&#x3b9;" horiz-adv-x="239" 
d="M99 376h-62l11 73h151l-62 -449h-90z" />
    <glyph glyph-name="kappa" unicode="&#x3ba;" horiz-adv-x="496" 
d="M270 228l184 -228h-110l-177 222l-32 -222h-90l63 449h91l-30 -211l227 211h116z" />
    <glyph glyph-name="lambda" unicode="&#x3bb;" horiz-adv-x="517" 
d="M488 72l-10 -69q-24 -8 -49 -8q-44 0 -66.5 24t-36.5 83l-56 229l-188 -331h-97l256 447l-24 99q-6 28 -16.5 38.5t-27.5 10.5q-16 0 -32 -4l10 69q26 8 56 8q41 0 62.5 -22.5t35.5 -77.5l109 -449q7 -29 17 -40t29 -11q16 0 28 4z" />
    <glyph glyph-name="uni03BC" unicode="&#x3bc;" horiz-adv-x="537" 
d="M498 449l-64 -449h-82l7 61q-23 -34 -57.5 -52t-72.5 -18q-32 0 -56.5 10t-39.5 28l-32 -227h-89l91 647h90l-34 -246q-5 -42 -5 -61q0 -36 21 -55.5t65 -19.5q61 0 94 42.5t45 129.5l29 210h90z" />
    <glyph glyph-name="nu" unicode="&#x3bd;" horiz-adv-x="493" 
d="M47 449h97l90 -296l175 296h101l-291 -458h-10z" />
    <glyph glyph-name="xi" unicode="&#x3be;" horiz-adv-x="424" 
d="M245 574q-36 -26 -42 -75q-2 -18 -2 -20q0 -46 30.5 -71.5t85.5 -25.5h44l-10 -73h-53q-73 0 -114 -29.5t-48 -84.5q-1 -8 -1 -19q0 -42 26 -66t90 -41q66 -17 93 -36.5t27 -54.5q0 -51 -56 -117h-83q22 25 32.5 44t10.5 39t-16 32.5t-64 24.5q-74 17 -115.5 55
t-41.5 106q0 16 3 31q8 59 49.5 102t103.5 56q-40 14 -63.5 49.5t-23.5 78.5q0 15 2 29q11 84 74 126.5t154 42.5q79 0 131 -25l-11 -79q-52 27 -118 27q-58 0 -94 -26z" />
    <glyph glyph-name="xi.ss02" horiz-adv-x="422" 
d="M455 663l-11 -73h-62q-141 0 -157 -109q-1 -6 -1 -17q0 -43 29.5 -66.5t83.5 -23.5h42l-10 -73h-52q-165 0 -179 -109q-1 -9 -1 -21q0 -41 28.5 -63t92.5 -39q65 -18 90.5 -37t25.5 -54q0 -52 -55 -117h-83q43 46 43 82q0 21 -16 33.5t-64 24.5q-158 36 -158 158
q0 18 3 34q9 61 52 101t111 51q-34 14 -55.5 43t-21.5 65q0 15 1 22q6 42 29.5 71t61.5 44h-125l10 73h348z" />
    <glyph glyph-name="omicron" unicode="&#x3bf;" horiz-adv-x="562" 
d="M93 46q-54 55 -54 147q0 21 3 42q15 100 85.5 161.5t180.5 61.5q98 0 156.5 -51t58.5 -149q0 -21 -3 -42q-15 -104 -87 -164.5t-181 -60.5q-105 0 -159 55zM346 94.5q39 25.5 60.5 68t21.5 93.5q0 58 -33 91.5t-90 33.5q-50 0 -89.5 -26t-61 -69.5t-21.5 -94.5
q0 -56 33.5 -89t89.5 -33q51 0 90 25.5z" />
    <glyph glyph-name="pi" unicode="&#x3c0;" horiz-adv-x="594" 
d="M574 376h-65l-53 -376h-90l53 376h-201l-53 -376h-90l52 376h-65l11 73h512z" />
    <glyph glyph-name="rho" unicode="&#x3c1;" horiz-adv-x="567" 
d="M56 222q17 122 86 179t176 57q65 0 112.5 -26t73 -71.5t25.5 -102.5q0 -19 -3 -40q-15 -111 -82.5 -169t-162.5 -58q-53 0 -94.5 19t-62.5 51l-37 -259h-90zM358.5 94q37.5 25 57 66.5t19.5 89.5q0 61 -34.5 96t-91.5 35q-72 0 -115.5 -41.5t-52.5 -117.5q-2 -12 -2 -28
q0 -57 35 -91t96 -34q51 0 88.5 25z" />
    <glyph glyph-name="uni03C2" unicode="&#x3c2;" horiz-adv-x="444" 
d="M257 -94.5q10 19.5 10 38.5t-15 31t-56 22q-77 20 -117.5 65t-40.5 121q0 24 3 49q14 107 85 166.5t182 59.5q68 0 118 -24l-13 -80q-49 27 -109 27q-69 0 -115.5 -42.5t-53.5 -115.5q-1 -14 -1 -30q0 -56 26.5 -82.5t88.5 -42.5q63 -16 88.5 -35.5t25.5 -53.5
q0 -52 -55 -118h-83q22 25 32 44.5z" />
    <glyph glyph-name="sigma" unicode="&#x3c3;" horiz-adv-x="561" 
d="M562 376h-113q27 -23 43 -58.5t16 -76.5q0 -19 -3 -42q-14 -95 -82.5 -151.5t-171.5 -56.5q-63 0 -111.5 25t-75 70.5t-26.5 104.5q0 16 3 38q14 103 87 161.5t198 58.5h246zM339.5 91.5q36.5 22.5 57 62.5t20.5 89q0 60 -34 94t-89 34q-68 0 -110 -38.5t-50 -108.5
q-2 -20 -2 -25q0 -60 33.5 -95t90.5 -35q47 0 83.5 22.5z" />
    <glyph glyph-name="tau" unicode="&#x3c4;" horiz-adv-x="411" 
d="M236 121q-2 -18 -2 -28q0 -26 32 -26q20 0 32 4l-10 -69q-22 -8 -50 -8q-95 0 -95 80q0 19 5 58l34 244h-130l10 73h350l-10 -73h-130z" />
    <glyph glyph-name="upsilon" unicode="&#x3c5;" horiz-adv-x="511" 
d="M97 34q-41 43 -41 112q0 19 7 70l33 233h89l-35 -250q-5 -37 -5 -52q0 -80 86 -80q105 0 123 129l36 253h89l-37 -259q-13 -88 -60 -143.5t-153 -55.5q-91 0 -132 43z" />
    <glyph glyph-name="phi" unicode="&#x3c6;" horiz-adv-x="663" 
d="M596.5 129.5q-26.5 -56.5 -89.5 -96t-166 -42.5l-27 -189h-86l27 190q-64 4 -113 32t-75.5 74.5t-26.5 104.5q0 60 28 116.5t91 95.5t161 43l30 205h86l-29 -205q102 -5 159 -63t57 -150q0 -59 -26.5 -115.5zM167.5 108.5q37.5 -37.5 98.5 -42.5l44 318
q-85 -3 -132.5 -52t-47.5 -124q0 -62 37.5 -99.5zM454.5 94.5q40.5 26.5 59 65.5t18.5 81q0 65 -36 102.5t-101 40.5l-44 -318q63 2 103.5 28.5z" />
    <glyph glyph-name="phi.ss02" unicode="&#x3d5;" horiz-adv-x="658" 
d="M556 395.5q61 -58.5 61 -151.5q0 -16 -3 -39q-13 -100 -88.5 -155.5t-188.5 -58.5l-27 -189h-88l27 189q-66 3 -114.5 31t-74 73t-25.5 101q0 24 3 46q8 62 36 114.5t67 92.5h92q-40 -40 -68 -95.5t-36 -113.5q-2 -15 -2 -33q0 -63 35 -99.5t97 -40.5l55 387h59
q122 0 183 -58.5zM525 246q0 62 -34.5 97t-99.5 36l-44 -312q75 3 121 42t55 107q2 18 2 30z" />
    <glyph glyph-name="chi" unicode="&#x3c7;" horiz-adv-x="506" 
d="M391 -122q8 -10 23 -10q14 0 24 4l-9 -69q-8 -3 -21.5 -5.5t-25.5 -2.5q-29 0 -46.5 9.5t-29 30t-26.5 60.5l-54 146l-161 -239h-108l236 328l-74 203q-11 30 -20 40.5t-26 10.5t-27 -5l10 69q21 8 54 8q28 0 44 -9t26 -26.5t23 -53.5l57 -152l159 234h108l-234 -322
l79 -209q11 -30 19 -40z" />
    <glyph glyph-name="psi" unicode="&#x3c8;" horiz-adv-x="674" 
d="M641 449l-32 -226q-15 -111 -75.5 -171t-184.5 -61l-27 -192h-90l27 192q-102 1 -150 49t-48 124q0 38 5 72l30 213h90l-30 -212q-5 -34 -5 -65q0 -49 29.5 -76.5t89.5 -28.5l54 382h89l-53 -382q72 2 110.5 43t50.5 127l30 212h90z" />
    <glyph glyph-name="omega" unicode="&#x3c9;" horiz-adv-x="709" 
d="M659.5 360.5q13.5 -52.5 13.5 -109.5q0 -27 -3 -56q-12 -94 -63 -149t-122 -55q-61 0 -96 29t-46 81q-51 -110 -165 -110q-68 0 -108.5 44.5t-40.5 124.5q0 23 3 47q10 75 41 136.5t74 105.5h91q-40 -43 -70.5 -107t-38.5 -127q-3 -21 -3 -42q0 -104 77 -104q41 0 72 43
t43 130l9 72h80l-9 -72q-5 -33 -5 -62q0 -55 21 -83t61 -28q44 0 70 39.5t34 107.5q3 21 3 44q0 52 -12.5 102t-35.5 87h90q22 -36 35.5 -88.5z" />
    <glyph glyph-name="iotatonos" unicode="&#x3af;" horiz-adv-x="239" 
d="M194 684h109l-116 -162h-86zM99 376h-62l11 73h151l-62 -449h-90z" />
    <glyph glyph-name="iotadieresis" unicode="&#x3ca;" horiz-adv-x="239" 
d="M44 535.5q-13 13.5 -13 35.5q0 26 18 43t43 17q22 0 35.5 -14t13.5 -35q0 -27 -17.5 -43.5t-43.5 -16.5q-23 0 -36 13.5zM200 535.5q-13 13.5 -13 35.5q0 26 18 43t43 17q22 0 35.5 -14t13.5 -35q0 -27 -17.5 -43.5t-43.5 -16.5q-23 0 -36 13.5zM99 376h-62l11 73h151
l-62 -449h-90z" />
    <glyph glyph-name="iotadieresistonos" unicode="&#x390;" horiz-adv-x="239" 
d="M164 684h100l-86 -162h-72zM-14.5 536q-13.5 14 -13.5 35q0 26 18.5 43t43.5 17q22 0 35 -14t13 -35q0 -26 -17.5 -43t-42.5 -17q-23 0 -36.5 14zM268 535.5q-13 13.5 -13 35.5q0 26 18 43t43 17q22 0 35.5 -14t13.5 -35q0 -27 -17.5 -43.5t-43.5 -16.5q-23 0 -36 13.5z
M99 376h-62l11 73h151l-62 -449h-90z" />
    <glyph glyph-name="upsilontonos" unicode="&#x3cd;" horiz-adv-x="511" 
d="M340 684h108l-116 -162h-86zM97 34q-41 43 -41 112q0 19 7 70l33 233h89l-35 -250q-5 -37 -5 -52q0 -80 86 -80q105 0 123 129l36 253h89l-37 -259q-13 -88 -60 -143.5t-153 -55.5q-91 0 -132 43z" />
    <glyph glyph-name="upsilondieresis" unicode="&#x3cb;" horiz-adv-x="511" 
d="M167 536q-13 14 -13 35q0 26 18 43t43 17q21 0 34.5 -14t13.5 -35q0 -26 -18 -43t-43 -17q-22 0 -35 14zM362 535.5q-13 13.5 -13 35.5q0 26 18 43t43 17q21 0 34.5 -14t13.5 -35q0 -26 -17.5 -43t-42.5 -17q-23 0 -36 13.5zM97 34q-41 43 -41 112q0 19 7 70l33 233h89
l-35 -250q-5 -37 -5 -52q0 -80 86 -80q105 0 123 129l36 253h89l-37 -259q-13 -88 -60 -143.5t-153 -55.5q-91 0 -132 43z" />
    <glyph glyph-name="upsilondieresistonos" unicode="&#x3b0;" horiz-adv-x="511" 
d="M301 684h99l-86 -162h-71zM122 535.5q-13 13.5 -13 35.5q0 26 18 43t43 17q22 0 35.5 -14t13.5 -35q0 -27 -17.5 -43.5t-43.5 -16.5q-23 0 -36 13.5zM404.5 536q-13.5 14 -13.5 35q0 26 18.5 43t43.5 17q21 0 34.5 -14t13.5 -35q0 -26 -17.5 -43t-42.5 -17
q-23 0 -36.5 14zM97 34q-41 43 -41 112q0 19 7 70l33 233h89l-35 -250q-5 -37 -5 -52q0 -80 86 -80q105 0 123 129l36 253h89l-37 -259q-13 -88 -60 -143.5t-153 -55.5q-91 0 -132 43z" />
    <glyph glyph-name="omicrontonos" unicode="&#x3cc;" horiz-adv-x="562" 
d="M365 684h108l-116 -162h-85zM93 46q-54 55 -54 147q0 21 3 42q15 100 85.5 161.5t180.5 61.5q98 0 156.5 -51t58.5 -149q0 -21 -3 -42q-15 -104 -87 -164.5t-181 -60.5q-105 0 -159 55zM346 94.5q39 25.5 60.5 68t21.5 93.5q0 58 -33 91.5t-90 33.5q-50 0 -89.5 -26
t-61 -69.5t-21.5 -94.5q0 -56 33.5 -89t89.5 -33q51 0 90 25.5z" />
    <glyph glyph-name="omegatonos" unicode="&#x3ce;" horiz-adv-x="709" 
d="M431 522h-86l94 162h108zM659.5 360.5q13.5 -52.5 13.5 -109.5q0 -27 -3 -56q-12 -94 -63 -149t-122 -55q-61 0 -96 29t-46 81q-51 -110 -165 -110q-68 0 -108.5 44.5t-40.5 124.5q0 23 3 47q10 75 41 136.5t74 105.5h91q-40 -43 -70.5 -107t-38.5 -127q-3 -21 -3 -42
q0 -104 77 -104q41 0 72 43t43 130l9 72h80l-9 -72q-5 -33 -5 -62q0 -55 21 -83t61 -28q44 0 70 39.5t34 107.5q3 21 3 44q0 52 -12.5 102t-35.5 87h90q22 -36 35.5 -88.5z" />
    <glyph glyph-name="alphatonos" unicode="&#x3ac;" horiz-adv-x="581" 
d="M368 684h108l-116 -162h-86zM94.5 44.5q-55.5 53.5 -55.5 147.5q0 22 3 44q15 104 84.5 163t167.5 59q58 0 97 -22.5t56 -58.5l12 72h82l-63 -449h-83l8 62q-57 -71 -160 -71q-93 0 -148.5 53.5zM346.5 94q37.5 25 57.5 67.5t20 94.5q0 63 -34.5 94t-86.5 31
q-50 0 -89 -24.5t-60.5 -66.5t-21.5 -94q0 -61 34.5 -94t92.5 -33q50 0 87.5 25z" />
    <glyph glyph-name="epsilontonos" unicode="&#x3ad;" horiz-adv-x="449" 
d="M319 522h-86l94 162h108zM133.5 419.5q49.5 38.5 146.5 38.5q77 0 137 -31l-11 -76q-61 36 -127 36q-50 0 -76.5 -17.5t-26.5 -50.5q0 -56 92 -56h54l-9 -69h-55q-59 0 -89.5 -19t-30.5 -53q0 -59 101 -59q76 0 140 35l-9 -78q-53 -29 -155 -29q-76 0 -124.5 29t-48.5 90
q0 41 28 75t82 45q-31 10 -49.5 33.5t-18.5 57.5q0 60 49.5 98.5z" />
    <glyph glyph-name="etatonos" unicode="&#x3ae;" horiz-adv-x="538" 
d="M362 684h108l-138 -162h-86zM103 449h82l-6 -60q24 34 64 51.5t90 17.5q73 0 111.5 -35.5t38.5 -105.5q0 -33 -6 -72l-62 -443h-90l63 446q4 32 4 47q0 86 -90 86q-64 0 -97.5 -43.5t-44.5 -126.5l-30 -211h-90z" />
    <glyph glyph-name="zero" unicode="0" horiz-adv-x="598" 
d="M115 58.5q-54 68.5 -54 186.5q0 26 6 80q21 154 95 243.5t191 89.5q103 0 158 -68t55 -188q0 -33 -6 -74q-18 -155 -94 -246.5t-193 -91.5q-104 0 -158 68.5zM397.5 142.5q50.5 68.5 67.5 187.5q6 44 6 71q0 85 -30 130t-88 45q-73 0 -124 -68t-68 -188q-5 -32 -5 -73
q0 -84 30 -128.5t88 -44.5q73 0 123.5 68.5z" />
    <glyph glyph-name="one" unicode="1" horiz-adv-x="428" 
d="M253 539l-156 -68l11 83l246 104h9l-93 -658h-92z" />
    <glyph glyph-name="two" unicode="2" horiz-adv-x="525" 
d="M17 9l247 264q45 48 69 77.5t41 64t17 70.5q0 42 -25.5 66.5t-76.5 24.5q-81 0 -172 -63l14 96q76 49 170 49q90 0 137.5 -44.5t47.5 -125.5q0 -48 -16.5 -87.5t-46 -76.5t-87.5 -98l-141 -145h247l-12 -81h-415z" />
    <glyph glyph-name="three" unicode="3" horiz-adv-x="538" 
d="M521 638l-201 -252q41 0 75.5 -18t55.5 -54.5t21 -89.5q0 -116 -70 -175t-188 -59q-56 0 -103.5 13t-68.5 29l13 89q26 -20 68.5 -33.5t89.5 -13.5q79 0 121.5 40t42.5 106q0 54 -32 81t-87 27q-59 0 -102 -32l-10 9l212 263h-236l12 80h388z" />
    <glyph glyph-name="four" unicode="4" horiz-adv-x="559" 
d="M332 118h-327l1 9l480 531h9l-66 -467h91l-10 -73h-91l-17 -118h-87zM342 191l33 240l-216 -240h183z" />
    <glyph glyph-name="five" unicode="5" horiz-adv-x="539" 
d="M107 3q-45 13 -65 28l13 90q20 -19 64 -33t92 -14q80 0 123 40t43 106q0 56 -32 84.5t-89 28.5q-48 0 -87 -18.5t-62 -44.5l-11 5l103 373h297l-11 -80h-219l-48 -171q36 15 74 15q78 0 129 -46.5t51 -142.5q0 -113 -70.5 -173t-190.5 -60q-59 0 -104 13z" />
    <glyph glyph-name="six" unicode="6" horiz-adv-x="574" 
d="M466.5 373q51.5 -50 51.5 -142q0 -73 -30 -127.5t-85 -84t-127 -29.5q-98 0 -154.5 55.5t-56.5 159.5q0 86 38.5 171t105 156t149.5 116h144q-86 -44 -174.5 -120t-129.5 -153q50 48 131 48q86 0 137.5 -50zM382.5 116.5q40.5 42.5 40.5 110.5q0 55 -30 84.5t-83 29.5
q-68 0 -109 -43t-41 -107q0 -52 30.5 -84.5t85.5 -32.5q66 0 106.5 42.5z" />
    <glyph glyph-name="seven" unicode="7" horiz-adv-x="557" 
d="M246 310q77 157 170 257h-303l12 81h467l-2 -11q-77 -66 -149.5 -170.5t-126.5 -227t-80 -239.5h-97q32 153 109 310z" />
    <glyph glyph-name="eight" unicode="8" horiz-adv-x="579" 
d="M121 37.5q-52 47.5 -52 128.5q0 66 34 114.5t88 63.5q-28 13 -46 41.5t-18 73.5q0 58 27 103t76 70.5t112 25.5q80 0 130 -40.5t50 -119.5q0 -57 -27 -100.5t-77 -59.5q36 -13 58 -47t22 -89q0 -97 -62.5 -154.5t-167.5 -57.5q-95 0 -147 47.5zM395.5 405
q33.5 30 33.5 82q0 44 -25.5 66.5t-66.5 22.5q-53 0 -85 -34t-32 -81q0 -40 25 -63t67 -23q50 0 83.5 30zM365.5 105.5q38.5 31.5 38.5 89.5q0 47 -27.5 74t-79.5 27q-59 0 -96.5 -34.5t-37.5 -88.5q0 -46 28.5 -72.5t79.5 -26.5q56 0 94.5 31.5z" />
    <glyph glyph-name="nine" unicode="9" horiz-adv-x="573" 
d="M482.5 603.5q53.5 -54.5 53.5 -159.5q0 -130 -78 -244.5t-211 -199.5h-136q96 63 176.5 137.5t116.5 137.5q-17 -18 -50.5 -31t-79.5 -13q-90 0 -139.5 53t-49.5 137q0 69 30.5 122.5t86.5 84t130 30.5q97 0 150.5 -54.5zM398.5 351q42.5 40 42.5 108q0 58 -31.5 87.5
t-82.5 29.5q-64 0 -105.5 -42.5t-41.5 -107.5q0 -54 31 -84.5t83 -30.5q62 0 104.5 40z" />
    <glyph glyph-name="zero.tf" 
d="M108 58.5q-54 68.5 -54 186.5q0 26 6 80q22 154 96 243.5t191 89.5q103 0 157.5 -68t54.5 -188q0 -29 -5 -74q-19 -155 -95 -246.5t-193 -91.5q-104 0 -158 68.5zM391 142.5q51 68.5 68 187.5q5 36 5 71q0 85 -30 130t-88 45q-73 0 -123.5 -68t-67.5 -188q-6 -39 -6 -73
q0 -84 30 -128.5t88 -44.5q73 0 124 68.5z" />
    <glyph glyph-name="one.tf" 
d="M323 539l-157 -68l12 83l245 104h9l-93 -658h-92z" />
    <glyph glyph-name="two.tf" 
d="M48 9l247 264q45 48 69 77.5t41 64t17 70.5q0 42 -25.5 66.5t-76.5 24.5q-81 0 -172 -63l14 96q76 49 170 49q90 0 137.5 -44.5t47.5 -125.5q0 -48 -16.5 -87.5t-46 -76t-87.5 -98.5l-141 -145h246l-11 -81h-415z" />
    <glyph glyph-name="three.tf" 
d="M549 638l-200 -252q40 0 74.5 -18t55.5 -54.5t21 -89.5q0 -116 -69.5 -175t-188.5 -59q-55 0 -103 13t-69 29l13 89q27 -21 69 -34t89 -13q80 0 122 39.5t42 106.5q0 54 -31.5 81t-86.5 27q-59 0 -102 -32l-10 9l211 263h-236l12 80h389z" />
    <glyph glyph-name="four.tf" 
d="M331 118h-327l1 9l480 531h9l-66 -467h91l-10 -73h-91l-17 -118h-87zM341 191l33 240l-216 -240h183z" />
    <glyph glyph-name="five.tf" 
d="M131 3q-45 13 -65 28l13 90q20 -19 64 -33t92 -14q80 0 123 40t43 106q0 56 -32 84.5t-88 28.5q-49 0 -87.5 -18.5t-62.5 -44.5l-11 5l104 373h297l-12 -80h-219l-48 -171q36 15 74 15q79 0 129.5 -46t50.5 -143q0 -113 -70.5 -173t-190.5 -60q-59 0 -104 13z" />
    <glyph glyph-name="six.tf" 
d="M468 373q51 -50 51 -142q0 -73 -30 -127.5t-85 -84t-127 -29.5q-98 0 -154.5 55.5t-56.5 159.5q0 86 38.5 171t105 156t149.5 116h144q-86 -44 -173 -119t-129 -152q51 46 130 46q86 0 137 -50zM383.5 116.5q40.5 42.5 40.5 110.5q0 55 -30 84.5t-83 29.5
q-67 0 -108.5 -43t-41.5 -107q0 -52 31 -84.5t86 -32.5q65 0 105.5 42.5z" />
    <glyph glyph-name="seven.tf" 
d="M257.5 311q76.5 157 170.5 256h-303l12 81h467l-2 -11q-78 -66 -150 -170.5t-126.5 -227t-79.5 -239.5h-98q33 154 109.5 311z" />
    <glyph glyph-name="eight.tf" 
d="M124 38q-52 48 -52 128q0 66 34.5 114.5t87.5 63.5q-28 14 -46 42t-18 73q0 57 27.5 102.5t76.5 71t112 25.5q79 0 129.5 -40.5t50.5 -119.5q0 -57 -27 -100.5t-77 -59.5q36 -13 58 -47t22 -89q0 -97 -62.5 -154.5t-167.5 -57.5q-96 0 -148 48zM399 405q33 30 33 82
q0 44 -25.5 66.5t-66.5 22.5q-53 0 -84.5 -34t-31.5 -81q0 -40 25 -63t67 -23q50 0 83 30zM368.5 105.5q38.5 31.5 38.5 89.5q0 47 -27.5 74t-78.5 27q-60 0 -97 -34.5t-37 -88.5q0 -46 28.5 -72.5t79.5 -26.5q55 0 93.5 31.5z" />
    <glyph glyph-name="nine.tf" 
d="M490.5 603.5q53.5 -54.5 53.5 -159.5q0 -130 -78 -244.5t-211 -199.5h-136q95 62 175 136t116 137q-18 -17 -51 -29.5t-77 -12.5q-90 0 -139.5 53t-49.5 137q0 69 30.5 122.5t86.5 84t130 30.5q97 0 150.5 -54.5zM406.5 351q42.5 40 42.5 108q0 58 -31.5 87.5t-82.5 29.5
q-64 0 -105.5 -42.5t-41.5 -107.5q0 -54 31 -84.5t83 -30.5q62 0 104.5 40z" />
    <glyph glyph-name="uni00B9" unicode="&#xb9;" horiz-adv-x="376" 
d="M218 568l-103 -45l8 62l172 73h6l-56 -395h-70z" />
    <glyph glyph-name="uni00B2" unicode="&#xb2;" horiz-adv-x="372" 
d="M59 270l142 158q40 44 55 68t15 49t-15 38t-41 13q-46 0 -102 -41l10 73q18 12 44.5 21t58.5 9q57 0 87 -29t30 -78q0 -40 -19.5 -71t-71.5 -88l-63 -68h131l-9 -61h-253z" />
    <glyph glyph-name="uni00B3" unicode="&#xb3;" horiz-adv-x="374" 
d="M368 640l-114 -149q35 -2 59 -24.5t24 -69.5q0 -70 -42 -107t-114 -37q-37 0 -65 7.5t-43 18.5l9 65q36 -27 96 -27q43 0 65.5 19.5t22.5 56.5q0 26 -16.5 40.5t-47.5 14.5q-32 0 -59 -18l-6 8l116 149h-134l10 61h240z" />
    <glyph glyph-name="fraction" unicode="&#x2044;" horiz-adv-x="454" 
d="M418 648h95l-450 -648h-95z" />
    <glyph glyph-name="onehalf" unicode="&#xbd;" horiz-adv-x="894" 
d="M218 568l-103 -45l8 62l172 73h6l-56 -395h-70zM621 648h95l-450 -648h-95zM546 7l142 158q40 44 55 68t15 49t-14.5 38t-40.5 13q-47 0 -103 -41l10 73q46 30 103 30t87 -29t30 -78q0 -40 -19.5 -71.5t-70.5 -87.5l-64 -68h131l-9 -61h-253z" />
    <glyph glyph-name="onequarter" unicode="&#xbc;" horiz-adv-x="894" 
d="M218 568l-103 -45l8 62l172 73h6l-56 -395h-70zM623 648h95l-450 -648h-95zM673 65h-188l2 9l290 321h9l-39 -277h55l-8 -53h-55l-9 -65h-67zM680 118l16 110l-98 -110h82z" />
    <glyph glyph-name="threequarters" unicode="&#xbe;" horiz-adv-x="894" 
d="M295 290q-42 -37 -114 -37q-37 0 -65 7.5t-43 18.5l9 65q36 -27 96 -27q43 0 65.5 19.5t22.5 56.5q0 26 -16.5 40.5t-47.5 14.5q-32 0 -59 -18l-6 8l116 149h-134l10 61h240l-1 -8l-114 -149q35 -2 59 -24.5t24 -69.5q0 -70 -42 -107zM740 648l-450 -648h-95l450 648h95z
M802 118l-8 -53h-55l-9 -65h-67l9 65h-187v7l294 323h7l-39 -277h55zM696 229l-100 -111h84z" />
    <glyph glyph-name="asterisk" unicode="*" horiz-adv-x="376" 
d="M199 465l-98 -65l-27 51l110 49l-92 47l33 53l84 -62l7 110h61l-21 -112l95 64l27 -53l-107 -48l94 -48l-33 -51l-87 63l-7 -113h-61z" />
    <glyph glyph-name="backslash" unicode="\" horiz-adv-x="471" 
d="M70 648h94l248 -846h-94z" />
    <glyph glyph-name="periodcentered" unicode="&#xb7;" horiz-adv-x="261" 
d="M86.5 187q-14.5 15 -14.5 39q0 28 18.5 46.5t44.5 18.5q25 0 40 -15t15 -40q0 -28 -18.5 -46t-44.5 -18t-40.5 15z" />
    <glyph glyph-name="bullet" unicode="&#x2022;" horiz-adv-x="450" 
d="M150 155q-30 30 -30 77q0 44 31.5 74.5t75.5 30.5q46 0 75.5 -30t29.5 -76q0 -47 -30 -76.5t-75 -29.5q-47 0 -77 30z" />
    <glyph glyph-name="periodcentered.case" horiz-adv-x="261" 
d="M100.5 286q-14.5 15 -14.5 39q0 28 18.5 46.5t44.5 18.5q25 0 40 -15t15 -40q0 -28 -18.5 -46t-44.5 -18t-40.5 15z" />
    <glyph glyph-name="bullet.case" horiz-adv-x="451" 
d="M164 254q-30 30 -30 77q0 44 31.5 74.5t75.5 30.5q46 0 75.5 -30t29.5 -76q0 -47 -30 -76.5t-75 -29.5q-47 0 -77 30z" />
    <glyph glyph-name="exclamdown.case" horiz-adv-x="287" 
d="M160 0h-95l68 461h89zM240.5 642q14.5 -15 14.5 -39q0 -28 -18.5 -46.5t-44.5 -18.5q-25 0 -40 15t-15 40q0 28 18.5 46t44.5 18t40.5 -15z" />
    <glyph glyph-name="questiondown.case" horiz-adv-x="443" 
d="M310 300q-77 -1 -127.5 -35.5t-50.5 -99.5q0 -47 31 -70t81 -23q48 0 88.5 18t61.5 36l-14 -95q-23 -15 -61 -27.5t-90 -12.5q-88 0 -140 44.5t-52 121.5q0 86 54 139.5t138 58.5l15 107h89zM351.5 643q14.5 -15 14.5 -39q0 -28 -18.5 -46.5t-44.5 -18.5q-25 0 -40 15
t-15 40q0 28 18.5 46t44.5 18t40.5 -15z" />
    <glyph glyph-name="colon" unicode=":" horiz-adv-x="261" 
d="M105.5 316q-14.5 15 -14.5 39q0 28 18.5 46.5t44.5 18.5q25 0 40 -15t15 -40q0 -28 -18.5 -46t-44.5 -18t-40.5 15zM61.5 6q-14.5 15 -14.5 39q0 28 18.5 46.5t44.5 18.5q25 0 40 -15t15 -40q0 -28 -18.5 -46t-44.5 -18t-40.5 15z" />
    <glyph glyph-name="comma" unicode="," horiz-adv-x="260" 
d="M55 -66.5q21 31.5 29 57.5q-23 2 -36 15t-13 35q0 30 20 49.5t49 19.5q28 0 45 -19t17 -52q0 -46 -26.5 -90t-69.5 -74h-66q30 27 51 58.5z" />
    <glyph glyph-name="ellipsis" unicode="&#x2026;" horiz-adv-x="688" 
d="M488.5 6q-14.5 15 -14.5 39q0 28 18.5 46.5t44.5 18.5q25 0 40 -15t15 -40q0 -28 -18.5 -46t-44.5 -18t-40.5 15zM274.5 6q-14.5 15 -14.5 39q0 28 18.5 46.5t44.5 18.5q25 0 40 -15t15 -40q0 -28 -18.5 -46t-44.5 -18t-40.5 15zM61.5 6q-14.5 15 -14.5 39
q0 28 18.5 46.5t44.5 18.5q25 0 40 -15t15 -40q0 -28 -18.5 -46t-44.5 -18t-40.5 15z" />
    <glyph glyph-name="exclam" unicode="!" horiz-adv-x="287" 
d="M155 648h95l-68 -461h-89zM74.5 6q-14.5 15 -14.5 39q0 28 18.5 46.5t44.5 18.5q25 0 40 -15t15 -40q0 -28 -18.5 -46t-44.5 -18t-40.5 15z" />
    <glyph glyph-name="exclamdown" unicode="&#xa1;" horiz-adv-x="287" 
d="M124 354q-15 15 -15 40q0 28 18.5 46t44.5 18q25 0 40 -15t15 -39q0 -28 -19 -46.5t-45 -18.5q-24 0 -39 15zM105 263h89l-62 -461h-95z" />
    <glyph glyph-name="numbersign" unicode="#" horiz-adv-x="572" 
d="M87 169h-90l28 71h89l69 168h-93l29 71h90l66 169h90l-67 -169h124l67 169h89l-67 -169h92l-28 -71h-90l-69 -168h92l-28 -71h-90l-67 -169h-90l67 169h-124l-66 -169h-90zM327 240l69 168h-124l-69 -168h124z" />
    <glyph glyph-name="period" unicode="." horiz-adv-x="261" 
d="M61.5 6q-14.5 15 -14.5 39q0 28 18.5 46.5t44.5 18.5q25 0 40 -15t15 -40q0 -28 -18.5 -46t-44.5 -18t-40.5 15z" />
    <glyph glyph-name="question" unicode="?" horiz-adv-x="442" 
d="M161 349q77 1 127.5 35.5t50.5 99.5q0 47 -31 70t-81 23q-48 0 -88.5 -18t-61.5 -36l14 95q23 15 61 27.5t90 12.5q88 0 140 -44.5t52 -121.5q0 -86 -54 -139.5t-138 -58.5l-15 -107h-89zM119.5 6q-14.5 15 -14.5 39q0 28 18.5 46.5t44.5 18.5q25 0 40 -15t15 -40
q0 -28 -18.5 -46t-44.5 -18t-40.5 15z" />
    <glyph glyph-name="questiondown" unicode="&#xbf;" horiz-adv-x="443" 
d="M236 354q-15 15 -15 40q0 28 18.5 46t44.5 18q25 0 40 -15t15 -39q0 -28 -19 -46.5t-45 -18.5q-24 0 -39 15zM62 -162.5q-52 44.5 -52 121.5q0 86 54 139.5t138 58.5l15 107h88l-22 -162q-78 -1 -128.5 -35.5t-50.5 -99.5q0 -47 31.5 -70t81.5 -23q48 0 89 18t61 36
l-14 -95q-22 -15 -60.5 -27.5t-90.5 -12.5q-88 0 -140 44.5z" />
    <glyph glyph-name="quotedbl" unicode="&#x22;" horiz-adv-x="424" 
d="M144 648h96l-41 -208h-73zM303 648h96l-40 -208h-73z" />
    <glyph glyph-name="quotesingle" unicode="'" horiz-adv-x="265" 
d="M144 648h96l-41 -208h-73z" />
    <glyph glyph-name="semicolon" unicode=";" horiz-adv-x="252" 
d="M57 -66.5q21 31.5 29 57.5q-23 2 -36 15t-13 35q0 30 20 49.5t49 19.5q28 0 45 -19t17 -52q0 -46 -26.5 -90t-69.5 -74h-66q30 27 51 58.5zM105.5 316q-14.5 15 -14.5 39q0 28 18.5 46.5t44.5 18.5q25 0 40 -15t15 -40q0 -28 -18.5 -46t-44.5 -18t-40.5 15z" />
    <glyph glyph-name="slash" unicode="/" horiz-adv-x="389" 
d="M343 648h94l-402 -846h-94z" />
    <glyph glyph-name="numbersign.tf" 
d="M94 169h-90l28 71h89l69 168h-93l29 71h90l66 169h90l-67 -169h124l67 169h89l-67 -169h92l-28 -71h-90l-69 -168h92l-28 -71h-90l-67 -169h-90l67 169h-124l-66 -169h-90zM334 240l69 168h-124l-69 -168h124z" />
    <glyph glyph-name="underscore" unicode="_" horiz-adv-x="392" 
d="M-45 -97h392l-11 -73h-392z" />
    <glyph glyph-name="braceleft" unicode="{" horiz-adv-x="381" 
d="M81.5 -171.5q-42.5 35.5 -42.5 98.5q0 43 14.5 74.5t42.5 73.5q21 30 32 52t11 46q0 56 -67 62l2 17q42 3 66 23t24 57q0 17 -5 31.5t-15 34.5q-13 30 -19.5 50.5t-6.5 50.5q0 83 52.5 131t146.5 48q63 0 102 -18l-10 -72q-15 9 -39 14.5t-46 5.5q-55 0 -86 -32t-31 -82
q0 -19 5.5 -37t16.5 -41q11 -25 16.5 -42.5t5.5 -36.5q0 -38 -23.5 -62t-56.5 -34q22 -7 38.5 -26.5t16.5 -51.5q0 -28 -11.5 -51.5t-35.5 -58.5q-25 -34 -37.5 -60t-12.5 -57q0 -35 22.5 -53.5t63.5 -18.5q24 0 50 6t46 16l-11 -76q-44 -17 -97 -17q-79 0 -121.5 35.5z" />
    <glyph glyph-name="braceright" unicode="}" horiz-adv-x="381" 
d="M12.5 -202q-27.5 5 -47.5 14l10 72q15 -9 39.5 -14.5t48.5 -5.5q51 0 82.5 29t31.5 87q0 20 -5.5 38.5t-15.5 42.5q-11 29 -16 46t-5 37q0 41 22.5 68.5t49.5 32.5q-20 8 -34 26t-14 46t11 49t35 53q25 32 37.5 57t12.5 58q0 74 -91 74q-48 0 -90 -22l11 75q43 17 96 17
q79 0 121.5 -36t42.5 -105q0 -45 -14.5 -75.5t-42.5 -69.5q-20 -26 -30 -44.5t-10 -40.5q0 -27 17 -40t50 -15l-3 -17q-41 -3 -66 -25.5t-25 -63.5q0 -16 5 -32t14 -38q12 -28 19 -51t7 -50q0 -86 -52.5 -134t-145.5 -48q-28 0 -55.5 5z" />
    <glyph glyph-name="bracketleft" unicode="[" horiz-adv-x="317" 
d="M144 648h209l-10 -77h-120l-97 -692h120l-11 -77h-210z" />
    <glyph glyph-name="bracketright" unicode="]" horiz-adv-x="317" 
d="M-25 -121h120l96 692h-120l11 77h210l-118 -846h-210z" />
    <glyph glyph-name="braceleft.case" horiz-adv-x="381" 
d="M97.5 -59.5q-42.5 35.5 -42.5 98.5q0 43 14.5 74.5t42.5 73.5q21 30 32 52t11 46q0 56 -67 62l2 17q42 3 66 23t24 57q0 17 -5 31.5t-15 34.5q-13 30 -19.5 50.5t-6.5 50.5q0 83 52.5 131t146.5 48q63 0 102 -18l-10 -72q-15 9 -39 14.5t-46 5.5q-55 0 -86 -32t-31 -82
q0 -19 5.5 -37t16.5 -41q11 -25 16.5 -42.5t5.5 -36.5q0 -38 -23.5 -62t-56.5 -34q22 -7 38.5 -26.5t16.5 -51.5q0 -28 -11.5 -51.5t-35.5 -58.5q-25 -34 -37.5 -60t-12.5 -57q0 -35 22.5 -53.5t63.5 -18.5q24 0 50 6t46 16l-11 -76q-44 -17 -97 -17q-79 0 -121.5 35.5z" />
    <glyph glyph-name="braceright.case" horiz-adv-x="381" 
d="M28.5 -90q-27.5 5 -47.5 14l10 72q15 -9 39.5 -14.5t48.5 -5.5q51 0 82.5 29t31.5 87q0 20 -5.5 38.5t-15.5 42.5q-11 29 -16 46t-5 37q0 41 22.5 68.5t49.5 32.5q-20 8 -34 26t-14 46t11 49t35 53q25 32 37.5 57t12.5 58q0 74 -91 74q-48 0 -90 -22l11 75q43 17 96 17
q79 0 121.5 -36t42.5 -105q0 -45 -14.5 -75.5t-42.5 -69.5q-20 -26 -30 -44.5t-10 -40.5q0 -27 17 -40t50 -15l-3 -17q-41 -3 -66 -25.5t-25 -63.5q0 -16 5 -32t14 -38q12 -28 19 -51t7 -50q0 -86 -52.5 -134t-145.5 -48q-28 0 -55.5 5z" />
    <glyph glyph-name="bracketleft.case" horiz-adv-x="318" 
d="M159 751h209l-10 -77h-120l-97 -692h120l-11 -77h-210z" />
    <glyph glyph-name="bracketright.case" horiz-adv-x="318" 
d="M-10 -18h120l96 692h-120l11 77h210l-118 -846h-210z" />
    <glyph glyph-name="parenleft.case" horiz-adv-x="321" 
d="M49 240q0 161 72 292.5t189 218.5h109q-138 -102 -206.5 -232t-68.5 -282q0 -103 37.5 -182t112.5 -150h-100q-145 136 -145 335z" />
    <glyph glyph-name="parenright.case" horiz-adv-x="321" 
d="M137.5 137q68.5 130 68.5 282q0 103 -37.5 182t-113.5 150h100q146 -135 146 -335q0 -161 -72 -292.5t-189 -218.5h-109q138 102 206.5 232z" />
    <glyph glyph-name="parenleft" unicode="(" horiz-adv-x="322" 
d="M35 137q0 161 72 292.5t189 218.5h109q-138 -102 -206.5 -232t-68.5 -282q0 -103 37.5 -182t112.5 -150h-100q-145 136 -145 335z" />
    <glyph glyph-name="parenright" unicode=")" horiz-adv-x="322" 
d="M123.5 34q68.5 130 68.5 282q0 103 -37.5 182t-113.5 150h100q146 -135 146 -335q0 -161 -72 -292.5t-189 -218.5h-109q138 102 206.5 232z" />
    <glyph glyph-name="emdash.case" horiz-adv-x="793" 
d="M60 368h712l-10 -75h-712z" />
    <glyph glyph-name="endash.case" horiz-adv-x="476" 
d="M60 368h396l-11 -75h-395z" />
    <glyph glyph-name="hyphen.case" horiz-adv-x="273" 
d="M61 367h192l-11 -73h-191z" />
    <glyph glyph-name="uni00AD.case" horiz-adv-x="273" 
d="M61 367h192l-11 -73h-191z" />
    <glyph glyph-name="emdash" unicode="&#x2014;" horiz-adv-x="793" 
d="M48 281h712l-10 -75h-712z" />
    <glyph glyph-name="endash" unicode="&#x2013;" horiz-adv-x="476" 
d="M48 281h396l-11 -75h-395z" />
    <glyph glyph-name="hyphen" unicode="-" horiz-adv-x="273" 
d="M48 280h192l-11 -73h-191z" />
    <glyph glyph-name="uni00AD" unicode="&#xad;" horiz-adv-x="273" 
d="M48 280h192l-11 -73h-191z" />
    <glyph glyph-name="guillemotleft.case" horiz-adv-x="578" 
d="M55 330l162 157h109l-170 -159l118 -155h-100zM273 330l162 157h109l-170 -159l118 -155h-100z" />
    <glyph glyph-name="guillemotright.case" horiz-adv-x="577" 
d="M233 331l-119 156h101l119 -157l-161 -157h-109zM451 331l-119 156h101l119 -157l-161 -157h-109z" />
    <glyph glyph-name="guilsinglleft.case" horiz-adv-x="360" 
d="M55 330l162 157h109l-170 -159l118 -155h-100z" />
    <glyph glyph-name="guilsinglright.case" horiz-adv-x="360" 
d="M203 331l-119 156h101l119 -157l-161 -157h-109z" />
    <glyph glyph-name="guillemotleft" unicode="&#xab;" horiz-adv-x="577" 
d="M41 231l162 157h109l-170 -159l118 -155h-100zM258 231l162 157h109l-170 -159l118 -155h-100z" />
    <glyph glyph-name="guillemotright" unicode="&#xbb;" horiz-adv-x="577" 
d="M219 232l-119 156h101l119 -157l-161 -157h-109zM436 232l-119 156h101l119 -157l-161 -157h-109z" />
    <glyph glyph-name="guilsinglleft" unicode="&#x2039;" horiz-adv-x="360" 
d="M41 231l162 157h109l-170 -159l118 -155h-100z" />
    <glyph glyph-name="guilsinglright" unicode="&#x203a;" horiz-adv-x="360" 
d="M219 232l-119 156h101l119 -157l-161 -157h-109z" />
    <glyph glyph-name="quotedblbase" unicode="&#x201e;" horiz-adv-x="436" 
d="M53 -78.5q21 31.5 29 57.5q-23 2 -36 15t-13 35q0 30 20 49.5t49 19.5q28 0 45 -19t17 -52q0 -46 -26.5 -90t-69.5 -74h-66q30 27 51 58.5zM230 -78.5q21 31.5 29 57.5q-23 2 -36 15t-13 35q0 30 20 49.5t49 19.5q28 0 45 -19t17 -52q0 -46 -26.5 -90t-69.5 -74h-66
q30 27 51 58.5z" />
    <glyph glyph-name="quotedblleft" unicode="&#x201c;" horiz-adv-x="437" 
d="M211 589.5q-21 -31.5 -29 -57.5q23 -2 36 -15t13 -35q0 -30 -20 -49.5t-49 -19.5q-28 0 -45 19t-17 52q0 46 26.5 90t69.5 74h66q-30 -27 -51 -58.5zM388 589.5q-21 -31.5 -29 -57.5q23 -2 36 -15t13 -35q0 -30 -20 -49.5t-49 -19.5q-28 0 -45 19t-17 52q0 46 26.5 90
t69.5 74h66q-30 -27 -51 -58.5z" />
    <glyph glyph-name="quotedblright" unicode="&#x201d;" horiz-adv-x="436" 
d="M135 477.5q21 31.5 29 57.5q-23 2 -36 15t-13 35q0 30 20 49.5t49 19.5q28 0 45 -19t17 -52q0 -46 -26.5 -90t-69.5 -74h-66q30 27 51 58.5zM312 477.5q21 31.5 29 57.5q-23 2 -36 15t-13 35q0 30 20 49.5t49 19.5q28 0 45 -19t17 -52q0 -46 -26.5 -90t-69.5 -74h-66
q30 27 51 58.5z" />
    <glyph glyph-name="quoteleft" unicode="&#x2018;" horiz-adv-x="260" 
d="M211 589.5q-21 -31.5 -29 -57.5q23 -2 36 -15t13 -35q0 -30 -20 -49.5t-49 -19.5q-28 0 -45 19t-17 52q0 46 26.5 90t69.5 74h66q-30 -27 -51 -58.5z" />
    <glyph glyph-name="quoteright" unicode="&#x2019;" horiz-adv-x="259" 
d="M135 477.5q21 31.5 29 57.5q-23 2 -36 15t-13 35q0 30 20 49.5t49 19.5q28 0 45 -19t17 -52q0 -46 -26.5 -90t-69.5 -74h-66q30 27 51 58.5z" />
    <glyph glyph-name="quotesinglbase" unicode="&#x201a;" horiz-adv-x="259" 
d="M53 -78.5q21 31.5 29 57.5q-23 2 -36 15t-13 35q0 30 20 49.5t49 19.5q28 0 45 -19t17 -52q0 -46 -26.5 -90t-69.5 -74h-66q30 27 51 58.5z" />
    <glyph glyph-name="anoteleia" unicode="&#x387;" horiz-adv-x="261" 
d="M109 345q-15 15 -15 39q0 27 19 46t45 19q25 0 40 -15t15 -40q0 -28 -19 -46t-45 -18q-25 0 -40 15z" />
    <glyph glyph-name="uni037E" unicode="&#x37e;" horiz-adv-x="252" 
d="M57 -66.5q21 31.5 29 57.5q-23 2 -36 15t-13 35q0 30 20 49.5t49 19.5q28 0 45 -19t17 -52q0 -46 -26.5 -90t-69.5 -74h-66q30 27 51 58.5zM105.5 316q-14.5 15 -14.5 39q0 28 18.5 46.5t44.5 18.5q25 0 40 -15t15 -40q0 -28 -18.5 -46t-44.5 -18t-40.5 15z" />
    <glyph glyph-name="uni2003" unicode="&#x2003;" horiz-adv-x="793" 
 />
    <glyph glyph-name="uni2002" unicode="&#x2002;" horiz-adv-x="476" 
 />
    <glyph glyph-name="uni200A" unicode="&#x200a;" horiz-adv-x="50" 
 />
    <glyph glyph-name="uni00A0" unicode="&#xa0;" horiz-adv-x="210" 
 />
    <glyph glyph-name="uni2009" unicode="&#x2009;" horiz-adv-x="158" 
 />
    <glyph glyph-name="cent" unicode="&#xa2;" horiz-adv-x="479" 
d="M255 92q-84 5 -135 56t-51 142q0 20 3 42q15 106 81.5 164t166.5 62l13 90h51l-13 -91q34 -2 62.5 -10.5t44.5 -17.5l-11 -80q-17 12 -47.5 22t-59.5 11l-44 -316q35 2 66.5 14t50.5 24l-12 -88q-16 -9 -47.5 -16.5t-67.5 -9.5l-13 -90h-51zM310 481q-68 -9 -108 -61.5
t-40 -125.5q0 -52 26.5 -85.5t76.5 -40.5z" />
    <glyph glyph-name="currency" unicode="&#xa4;" 
d="M86 167l65 65q-25 38 -25 85q0 45 25 86l-65 64l60 61l65 -65q40 24 85 24q46 0 84 -25l66 66l59 -61l-65 -65q25 -39 25 -85q0 -45 -24 -85l64 -65l-60 -60l-65 64q-40 -24 -84 -24q-45 0 -84 23l-66 -63zM370.5 241q29.5 28 29.5 75t-30 76t-74 29q-45 0 -74.5 -29
t-29.5 -76q0 -46 29.5 -74.5t74.5 -28.5t74.5 28z" />
    <glyph glyph-name="dollar" unicode="$" horiz-adv-x="519" 
d="M206 2q-54 2 -96.5 12t-69.5 26l12 85q28 -21 71.5 -33.5t93.5 -14.5l29 214q-52 19 -84.5 37.5t-52.5 50t-20 81.5q0 88 55 135t153 52l14 101h51l-14 -102q43 -3 78.5 -12.5t56.5 -21.5l-12 -86q-27 19 -62 31.5t-72 14.5l-29 -206q46 -17 78 -35t56 -53t24 -89
q0 -89 -55 -135t-154 -52l-13 -92h-51zM286 572q-48 -5 -76 -31.5t-28 -70.5q0 -35 20 -55t58 -34zM345.5 109.5q27.5 26.5 27.5 73.5q0 40 -19.5 60.5t-58.5 34.5l-28 -201q51 6 78.5 32.5z" />
    <glyph glyph-name="Euro" unicode="&#x20ac;" horiz-adv-x="596" 
d="M177.5 49q-72.5 59 -77.5 168h-92l10 71h82q1 31 10 69h-82l10 71h89q34 109 116 169.5t211 60.5q53 0 97.5 -10t67.5 -24l-13 -85q-26 16 -66 26.5t-86 10.5q-86 0 -145 -41t-83 -107h213l-10 -71h-225q-9 -32 -11 -69h226l-10 -71h-217q6 -72 58 -107.5t130 -35.5
q97 0 175 37l-13 -91q-21 -10 -67 -20t-99 -10q-126 0 -198.5 59z" />
    <glyph glyph-name="florin" unicode="&#x192;" horiz-adv-x="466" 
d="M-67.5 -203q-21.5 4 -28.5 9l10 76q25 -10 55 -10q44 0 68 28t47 102l88 277h-94l11 78h107l36 112q31 98 75.5 143.5t125.5 45.5q26 0 47.5 -4t28.5 -9l-11 -78q-22 10 -52 10q-47 0 -74 -28.5t-50 -99.5l-29 -92h129l-12 -78h-141l-95 -297q-20 -62 -40 -101t-57 -63.5
t-97 -24.5q-26 0 -47.5 4z" />
    <glyph glyph-name="uni20B4" unicode="&#x20b4;" horiz-adv-x="513" 
d="M400 366q-24 -19 -56 -39t-63 -37h200l-9 -67h-287q-33 -31 -33 -69q0 -81 109 -81q47 0 93.5 14.5t82.5 36.5l-13 -95q-35 -16 -84 -27.5t-104 -11.5q-88 0 -134.5 35.5t-46.5 106.5q0 49 26 91h-40l9 67h95q24 19 56.5 39t63.5 37h-204l9 68h289q30 32 30 67
q0 37 -25.5 56t-73.5 19q-38 0 -81 -13t-78 -33l13 96q26 12 73 22t98 10q85 0 128.5 -34t43.5 -96q0 -50 -26 -94h40l-9 -68h-92z" />
    <glyph glyph-name="uni20BD" unicode="&#x20bd;" horiz-adv-x="623" 
d="M544 611q72 -37 72 -135q0 -21 -3 -47q-11 -92 -60 -138.5t-112.5 -59.5t-148.5 -13h-75l-9 -63h127l-11 -78h-127l-11 -77h-93l11 77h-83l11 78h83l9 63h-83l10 78h84l50 352h162q125 0 197 -37zM522 466q0 62 -45.5 82.5t-129.5 20.5h-81l-39 -273h76q68 0 111 10.5
t70 41.5t35 90q3 15 3 28z" />
    <glyph glyph-name="cent.ss01" horiz-adv-x="479" 
d="M246 93q-81 9 -129 59t-48 138q0 20 3 42q14 103 78 160.5t161 64.5l13 91h73l-13 -92q29 -3 54 -11t40 -16l-11 -80q-21 14 -53 24t-72 10q-83 0 -131.5 -53t-48.5 -136q0 -59 34.5 -92.5t101.5 -34.5q76 0 135 37l-12 -88q-14 -8 -41 -15t-61 -10l-13 -91h-73z" />
    <glyph glyph-name="dollar.ss01" horiz-adv-x="519" 
d="M194 2q-98 6 -154 38l12 85q31 -22 83 -35.5t104 -13.5q63 0 98.5 28t35.5 83q0 30 -16 49t-40 30.5t-66 25.5q-53 18 -85 35t-54.5 49t-22.5 84q0 85 52 131.5t143 54.5l14 102h74l-15 -102q42 -4 75 -13.5t51 -20.5l-12 -86q-29 20 -72 33.5t-85 13.5q-59 0 -95.5 -27
t-36.5 -76q0 -29 15.5 -48t38.5 -30t65 -26q53 -18 86 -35.5t56 -51.5t23 -90q0 -86 -51.5 -132t-146.5 -55l-13 -92h-73z" />
    <glyph glyph-name="cent.tf.ss01" 
d="M290 93q-81 9 -129 59t-48 138q0 20 3 42q14 103 78 160.5t161 64.5l13 91h73l-13 -92q29 -3 54 -11t40 -16l-11 -80q-21 14 -53 24t-72 10q-83 0 -131.5 -53t-48.5 -136q0 -59 34.5 -92.5t101.5 -34.5q76 0 135 37l-12 -88q-14 -8 -41 -15t-61 -10l-13 -91h-73z" />
    <glyph glyph-name="dollar.tf.ss01" 
d="M238 2q-98 6 -154 38l12 85q31 -22 83 -35.5t104 -13.5q63 0 98.5 28t35.5 83q0 30 -16 49t-40 30.5t-66 25.5q-53 18 -85 35t-54.5 49t-22.5 84q0 85 52 131.5t143 54.5l14 102h74l-15 -102q42 -4 75 -13.5t51 -20.5l-12 -86q-29 20 -72 33.5t-85 13.5q-59 0 -95.5 -27
t-36.5 -76q0 -29 15.5 -48t38.5 -30t65 -26q53 -18 86 -35.5t56 -51.5t23 -90q0 -86 -51.5 -132t-146.5 -55l-13 -92h-73z" />
    <glyph glyph-name="sterling" unicode="&#xa3;" horiz-adv-x="504" 
d="M19 9q71 61 117 128t46 118q0 15 -3 24h-113l12 78h74q-26 46 -26 97q0 55 25.5 101.5t76.5 74.5t123 28q48 0 88.5 -12t61.5 -29l-12 -89q-22 19 -55 33.5t-75 14.5q-62 0 -101 -36.5t-39 -94.5q0 -43 26 -88h165l-11 -78h-128q3 -9 3 -24q0 -40 -23 -86.5t-62 -87.5
h253l-11 -81h-414z" />
    <glyph glyph-name="cent.tf" 
d="M300 92q-84 5 -135 56t-51 142q0 20 3 42q15 106 81.5 164t166.5 62l13 90h51l-13 -91q34 -2 62.5 -10.5t44.5 -17.5l-11 -80q-17 12 -47.5 22t-59.5 11l-44 -316q35 2 66.5 14t50.5 24l-12 -88q-16 -9 -47.5 -16.5t-67.5 -9.5l-13 -90h-51zM355 481q-68 -9 -108 -61.5
t-40 -125.5q0 -52 26.5 -85.5t76.5 -40.5z" />
    <glyph glyph-name="dollar.tf" 
d="M242 2q-54 2 -96.5 12t-69.5 26l12 85q28 -21 71.5 -33.5t93.5 -14.5l29 214q-52 19 -84.5 37.5t-52.5 50t-20 81.5q0 88 55 135t153 52l14 101h51l-14 -102q43 -3 78.5 -12.5t56.5 -21.5l-12 -86q-27 19 -62 31.5t-72 14.5l-29 -206q46 -17 78 -35t56 -53t24 -89
q0 -89 -55 -135t-154 -52l-13 -92h-51zM322 572q-48 -5 -76 -31.5t-28 -70.5q0 -35 20 -55t58 -34zM381.5 109.5q27.5 26.5 27.5 73.5q0 40 -19.5 60.5t-58.5 34.5l-28 -201q51 6 78.5 32.5z" />
    <glyph glyph-name="Euro.tf" 
d="M176.5 49q-72.5 59 -77.5 168h-92l10 71h82q1 31 10 69h-82l10 71h89q34 109 116 169.5t211 60.5q53 0 97.5 -10t67.5 -24l-13 -85q-26 16 -66 26.5t-86 10.5q-86 0 -145 -41t-83 -107h213l-10 -71h-225q-9 -32 -11 -69h226l-10 -71h-217q6 -72 58 -107.5t130 -35.5
q97 0 175 37l-13 -91q-21 -10 -67 -20t-99 -10q-126 0 -198.5 59z" />
    <glyph glyph-name="florin.tf" 
d="M4.5 -203q-21.5 4 -28.5 9l10 76q25 -10 55 -10q44 0 68 28t47 102l88 277h-94l11 78h107l36 112q31 98 75.5 143.5t125.5 45.5q26 0 47.5 -4t28.5 -9l-11 -78q-22 10 -52 10q-47 0 -74 -28.5t-50 -99.5l-29 -92h129l-12 -78h-141l-95 -297q-20 -62 -40 -101t-57 -63.5
t-97 -24.5q-26 0 -47.5 4z" />
    <glyph glyph-name="uni20B4.tf" 
d="M425 366q-24 -19 -56 -39t-63 -37h200l-9 -67h-287q-33 -31 -33 -69q0 -81 109 -81q47 0 93.5 14.5t82.5 36.5l-13 -95q-35 -16 -84 -27.5t-104 -11.5q-88 0 -134.5 35.5t-46.5 106.5q0 49 26 91h-40l9 67h95q24 19 56.5 39t63.5 37h-204l9 68h289q30 32 30 67
q0 37 -25.5 56t-73.5 19q-38 0 -81 -13t-78 -33l13 96q26 12 73 22t98 10q85 0 128.5 -34t43.5 -96q0 -50 -26 -94h40l-9 -68h-92z" />
    <glyph glyph-name="uni20BD.tf" 
d="M517 611q72 -37 72 -135q0 -21 -3 -47q-11 -92 -60 -138.5t-112.5 -59.5t-148.5 -13h-75l-9 -63h127l-11 -78h-127l-11 -77h-93l11 77h-83l11 78h83l9 63h-83l10 78h84l50 352h162q125 0 197 -37zM495 466q0 62 -45.5 82.5t-129.5 20.5h-81l-39 -273h76q68 0 111 10.5
t70 41.5t35 90q3 15 3 28z" />
    <glyph glyph-name="sterling.tf" 
d="M64 9q71 61 117 128t46 118q0 15 -3 24h-113l12 78h74q-26 46 -26 97q0 55 25.5 101.5t76.5 74.5t123 28q48 0 88.5 -12t61.5 -29l-12 -89q-22 19 -55 33.5t-75 14.5q-62 0 -101 -36.5t-39 -94.5q0 -43 26 -88h165l-11 -78h-128q3 -9 3 -24q0 -40 -23 -86.5t-62 -87.5
h253l-11 -81h-414z" />
    <glyph glyph-name="yen.tf" 
d="M240 178h-144l10 71h148l-26 68h-126l10 71h85l-99 260h99l108 -318l199 318h105l-173 -260h84l-10 -71h-124l-46 -68h146l-10 -71h-145l-25 -178h-91z" />
    <glyph glyph-name="yen" unicode="&#xa5;" horiz-adv-x="530" 
d="M211 178h-144l10 71h148l-26 68h-126l10 71h85l-99 260h99l108 -318l199 318h105l-173 -260h84l-10 -71h-124l-46 -68h146l-10 -71h-145l-25 -178h-91z" />
    <glyph glyph-name="dotmath" unicode="&#x22c5;" horiz-adv-x="294" 
d="M103.5 187q-14.5 15 -14.5 39q0 28 18.5 46.5t44.5 18.5q25 0 40 -15t15 -40q0 -28 -18.5 -46t-44.5 -18t-40.5 15z" />
    <glyph glyph-name="plus" unicode="+" 
d="M247 189h-167l10 74h167l24 170h82l-25 -170h168l-11 -74h-167l-24 -172h-82z" />
    <glyph glyph-name="minus" unicode="&#x2212;" 
d="M90 263h416l-11 -74h-415z" />
    <glyph glyph-name="multiply" unicode="&#xd7;" 
d="M60 79l172 149l-128 149l66 58l128 -149l171 151l54 -63l-170 -150l129 -150l-67 -59l-128 150l-173 -150z" />
    <glyph glyph-name="divide" unicode="&#xf7;" 
d="M266.5 350q-14.5 14 -14.5 37q0 27 18 45t43 18q23 0 37.5 -15t14.5 -38q0 -27 -17.5 -44t-42.5 -17q-24 0 -38.5 14zM83 263h416l-11 -74h-415zM220 17q-14 14 -14 37q0 27 17.5 45t42.5 18q23 0 38 -15t15 -38q0 -27 -18 -44t-43 -17q-24 0 -38 14z" />
    <glyph glyph-name="equal" unicode="=" 
d="M97 351h416l-11 -74h-415zM72 175h416l-11 -74h-415z" />
    <glyph glyph-name="notequal" unicode="&#x2260;" 
d="M176 101h-109l11 74h139l66 102h-191l11 74h224l61 92h78l-61 -92h114l-11 -74h-147l-66 -102h199l-11 -74h-229l-62 -94h-78z" />
    <glyph glyph-name="greater" unicode="&#x3e;" 
d="M66 95l288 132l-250 133l12 88l386 -217l-2 -10l-447 -217z" />
    <glyph glyph-name="less" unicode="&#x3c;" 
d="M520 357l-288 -132l250 -133l-12 -88l-386 217l2 10l447 217z" />
    <glyph glyph-name="greaterequal" unicode="&#x2265;" 
d="M84 220l288 132l-250 133l12 88l386 -217l-2 -10l-447 -217zM63 74h416l-11 -74h-415z" />
    <glyph glyph-name="lessequal" unicode="&#x2264;" 
d="M538 482l-288 -132l250 -133l-12 -88l-386 217l2 10l447 217zM62 74h416l-11 -74h-415z" />
    <glyph glyph-name="plusminus" unicode="&#xb1;" 
d="M262 289h-167l10 74h167l24 170h82l-25 -170h168l-11 -74h-167l-24 -172h-82zM64 74h416l-11 -74h-415z" />
    <glyph glyph-name="approxequal" unicode="&#x2248;" 
d="M306 83q-24 8 -55 24q-23 12 -37.5 17.5t-29.5 5.5q-47 0 -57 -48h-68q6 54 39.5 86.5t89.5 32.5q29 0 52 -8t51 -23q26 -13 41 -18.5t33 -5.5q47 0 57 48h68q-7 -56 -40.5 -87.5t-89.5 -31.5q-30 0 -54 8zM331 259q-24 8 -55 24q-23 12 -37.5 17.5t-29.5 5.5
q-47 0 -57 -48h-68q6 54 39.5 86.5t89.5 32.5q29 0 52 -8t51 -23q26 -13 41 -18.5t33 -5.5q47 0 57 48h68q-7 -56 -40.5 -87.5t-89.5 -31.5q-30 0 -54 8z" />
    <glyph glyph-name="asciitilde" unicode="~" 
d="M324 171q-24 8 -55 24q-23 12 -37.5 17.5t-29.5 5.5q-47 0 -57 -48h-68q6 54 39.5 86.5t89.5 32.5q29 0 52 -8t51 -23q26 -13 41 -18.5t33 -5.5q47 0 57 48h68q-7 -56 -40.5 -87.5t-89.5 -31.5q-30 0 -54 8z" />
    <glyph glyph-name="logicalnot" unicode="&#xac;" 
d="M427 278h-335l11 73h416l-36 -251h-81z" />
    <glyph glyph-name="infinity" unicode="&#x221e;" horiz-adv-x="689" 
d="M92 204q-38 35 -38 101q0 51 21.5 90.5t59.5 61.5t86 22q101 0 140 -100q69 100 164 100q59 0 98.5 -34t39.5 -102q0 -80 -47 -127t-120 -47q-101 0 -144 102q-69 -102 -162 -102q-60 0 -98 35zM264 264.5q28 21.5 55 64.5q-35 77 -96 77q-42 0 -65.5 -28.5t-23.5 -69.5
q0 -32 18 -48.5t51 -16.5t61 21.5zM558 270q24 27 24 70q0 32 -18 49t-51 17q-34 0 -61.5 -21t-53.5 -63q35 -79 96 -79q40 0 64 27z" />
    <glyph glyph-name="integral" unicode="&#x222b;" horiz-adv-x="375" 
d="M-45 -194l10 74q26 -11 61 -11q48 0 68 27t29 95l70 490q11 82 49.5 129.5t128.5 47.5q46 0 75 -12l-11 -76q-21 10 -55 10q-47 0 -69.5 -28t-29.5 -82l-68 -484q-9 -65 -23.5 -105t-51 -64t-103.5 -24q-48 0 -80 13z" />
    <glyph glyph-name="uni2126" unicode="&#x2126;" horiz-adv-x="758" 
d="M680 204.5q-42 -77.5 -123 -123.5h128l-11 -81h-270l12 81q101 39 156 112.5t55 173.5q0 92 -54.5 148.5t-148.5 56.5q-80 0 -139 -35.5t-90.5 -96t-31.5 -133.5q0 -81 39 -141t103 -85l-11 -81h-268l10 81h134q-47 35 -74.5 95.5t-27.5 128.5q0 86 40.5 167.5t123 133.5
t200.5 52q88 0 153.5 -37t101 -101.5t35.5 -144.5q0 -93 -42 -170.5z" />
    <glyph glyph-name="uni2206" unicode="&#x2206;" horiz-adv-x="644" 
d="M590 0h-600l388 658h10zM359 473l-221 -392h331z" />
    <glyph glyph-name="product" unicode="&#x220f;" horiz-adv-x="781" 
d="M208 568h-104l12 80h668l-12 -80h-103l-107 -766h-94l108 766h-275l-107 -766h-94z" />
    <glyph glyph-name="summation" unicode="&#x2211;" horiz-adv-x="560" 
d="M16 10l287 321l-197 307l2 10h467l-11 -80h-300l156 -241l-221 -246h307l-12 -81h-480z" />
    <glyph glyph-name="radical" unicode="&#x221a;" horiz-adv-x="589" 
d="M163 241h-102l11 73h162l49 -199l266 533h96l-330 -648h-89z" />
    <glyph glyph-name="uni00B5" unicode="&#xb5;" horiz-adv-x="537" 
d="M498 449l-64 -449h-82l7 61q-23 -34 -57.5 -52t-72.5 -18q-32 0 -56.5 10t-39.5 28l-32 -227h-89l91 647h90l-34 -246q-5 -42 -5 -61q0 -36 21 -55.5t65 -19.5q61 0 94 42.5t45 129.5l29 210h90z" />
    <glyph glyph-name="partialdiff" unicode="&#x2202;" horiz-adv-x="573" 
d="M94 46q-55 55 -55 147q0 21 3 42q10 65 43.5 115.5t88 79t122.5 28.5q63 0 102.5 -25t56.5 -64q1 13 1 36q0 107 -42 151.5t-123 44.5q-34 0 -65 -6.5t-48 -14.5l12 81q17 7 45.5 12t62.5 5q119 0 184 -67.5t65 -229.5q0 -57 -8 -109q-21 -134 -97.5 -207.5t-189.5 -73.5
q-103 0 -158 55zM366.5 110q47.5 41 58.5 116q3 14 3 30q0 58 -33.5 91.5t-90.5 33.5q-63 0 -107.5 -40t-58.5 -103q-6 -21 -6 -46q0 -57 33.5 -90t90.5 -33q63 0 110.5 41z" />
    <glyph glyph-name="percent" unicode="%" horiz-adv-x="877" 
d="M126 380q-40 37 -40 99q0 53 24 93.5t65 63t90 22.5q64 0 104 -37t40 -99q0 -55 -24.5 -95.5t-65.5 -62t-89 -21.5q-64 0 -104 37zM629 648h95l-450 -648h-95zM309.5 438q30.5 31 30.5 78q0 38 -21.5 58.5t-60.5 20.5q-43 0 -73 -32t-30 -78q0 -36 20.5 -57t57.5 -21
q46 0 76.5 31zM535 27q-40 37 -40 99q0 53 24 93.5t65 63t90 22.5q65 0 105 -37t40 -99q0 -55 -24.5 -95.5t-66 -62t-89.5 -21.5q-64 0 -104 37zM719 85q30 31 30 78q0 38 -21.5 58.5t-59.5 20.5q-44 0 -74 -32t-30 -78q0 -36 21 -57t58 -21q46 0 76 31z" />
    <glyph glyph-name="perthousand" unicode="&#x2030;" horiz-adv-x="1268" 
d="M126 380q-40 37 -40 99q0 53 24 93.5t65 63t90 22.5q64 0 104 -37t40 -99q0 -55 -24.5 -95.5t-65.5 -62t-89 -21.5q-64 0 -104 37zM629 648h95l-450 -648h-95zM309.5 438q30.5 31 30.5 78q0 38 -21.5 58.5t-60.5 20.5q-43 0 -73 -32t-30 -78q0 -36 20.5 -57t57.5 -21
q46 0 76.5 31zM535 27q-40 37 -40 99q0 53 24 93.5t65 63t90 22.5q65 0 105 -37t40 -99q0 -55 -24.5 -95.5t-66 -62t-89.5 -21.5q-64 0 -104 37zM926 27q-40 37 -40 99q0 53 24 93.5t65 63t90 22.5q65 0 105 -37t40 -99q0 -55 -24.5 -95.5t-66 -62t-89.5 -21.5
q-64 0 -104 37zM719 85q30 31 30 78q0 38 -21.5 58.5t-59.5 20.5q-44 0 -74 -32t-30 -78q0 -36 21 -57t58 -21q46 0 76 31zM1110 85q30 31 30 78q0 38 -21.5 58.5t-59.5 20.5q-44 0 -73.5 -32t-29.5 -78q0 -36 20.5 -57t57.5 -21q46 0 76 31z" />
    <glyph glyph-name="arrowup" unicode="&#x2191;" horiz-adv-x="681" 
d="M312 505l-208 -206v105l254 254l254 -254v-105l-208 206v-505h-92v505z" />
    <glyph glyph-name="arrowright" unicode="&#x2192;" horiz-adv-x="869" 
d="M646 287h-546v87h546l-240 238h116l283 -282l-283 -282h-116z" />
    <glyph glyph-name="arrowdown" unicode="&#x2193;" horiz-adv-x="680" 
d="M96 244v105l208 -206v505h93v-505l207 206v-105l-254 -254z" />
    <glyph glyph-name="arrowleft" unicode="&#x2190;" horiz-adv-x="870" 
d="M94 330l283 282h115l-239 -238h546v-87h-546l239 -239h-115z" />
    <glyph glyph-name="lozenge" unicode="&#x25ca;" horiz-adv-x="550" 
d="M45 318l285 340h10l191 -340l-283 -328h-10zM438 321l-118 212l-180 -215l118 -204z" />
    <glyph glyph-name="uniF8FF" unicode="&#xf8ff;" horiz-adv-x="605" 
d="M148.5 598q-8.5 9 -8.5 22q0 12 8.5 21t21.5 9q12 0 21.5 -9t9.5 -21q0 -13 -9.5 -22t-21.5 -9q-13 0 -21.5 9zM215 598q-9 9 -9 22q0 12 9 21t21 9q13 0 21.5 -9t8.5 -21q0 -13 -8.5 -22t-21.5 -9q-12 0 -21 9zM279.5 598q-9.5 9 -9.5 22q0 12 9.5 21t21.5 9
q13 0 21.5 -9t8.5 -21q0 -13 -8.5 -22t-21.5 -9q-12 0 -21.5 9zM345.5 598q-8.5 9 -8.5 22q0 12 8.5 21t21.5 9q12 0 21.5 -9t9.5 -21q0 -13 -9.5 -22t-21.5 -9q-13 0 -21.5 9zM411 598q-9 9 -9 22q0 12 9 21t22 9q11 0 20.5 -9t9.5 -21q0 -13 -9 -22t-21 -9q-13 0 -22 9z
M476.5 598q-9.5 9 -9.5 22q0 12 9.5 21t21.5 9q13 0 21.5 -9t8.5 -21q0 -13 -8.5 -22t-21.5 -9q-12 0 -21.5 9zM148.5 532.5q-8.5 8.5 -8.5 21.5q0 12 8.5 21t21.5 9q12 0 21.5 -9t9.5 -21t-9.5 -21t-21.5 -9q-13 0 -21.5 8.5zM148.5 467q-8.5 9 -8.5 22q0 12 8.5 20.5
t21.5 8.5q12 0 21.5 -8.5t9.5 -20.5q0 -13 -9.5 -22t-21.5 -9q-13 0 -21.5 9zM279.5 467q-9.5 9 -9.5 22q0 12 9.5 20.5t21.5 8.5q13 0 21.5 -8.5t8.5 -20.5q0 -13 -8.5 -22t-21.5 -9q-12 0 -21.5 9zM345.5 467q-8.5 9 -8.5 22q0 12 8.5 20.5t21.5 8.5q12 0 21.5 -8.5
t9.5 -20.5q0 -13 -9.5 -22t-21.5 -9q-13 0 -21.5 9zM411 467q-9 9 -9 22q0 12 9 20.5t22 8.5q12 0 21 -8.5t9 -20.5t-9 -21.5t-21 -9.5q-13 0 -22 9zM476.5 467q-9.5 9 -9.5 22q0 12 9.5 20.5t21.5 8.5q13 0 21.5 -8.5t8.5 -20.5q0 -13 -8.5 -22t-21.5 -9q-12 0 -21.5 9z
M148.5 402q-8.5 8 -8.5 21t8.5 21.5t21.5 8.5q12 0 21.5 -9t9.5 -21t-9.5 -20.5t-21.5 -8.5q-13 0 -21.5 8zM279.5 402.5q-9.5 8.5 -9.5 20.5t9.5 21t21.5 9q13 0 21.5 -8.5t8.5 -21.5t-8.5 -21t-21.5 -8q-12 0 -21.5 8.5zM148.5 335.5q-8.5 8.5 -8.5 21.5t8.5 22t21.5 9
q12 0 21.5 -9t9.5 -22q0 -12 -9.5 -21t-21.5 -9q-13 0 -21.5 8.5zM279.5 336q-9.5 9 -9.5 21q0 13 9.5 22t21.5 9q13 0 21.5 -9t8.5 -22t-8.5 -21.5t-21.5 -8.5q-12 0 -21.5 9zM345.5 335.5q-8.5 8.5 -8.5 21.5t8.5 22t21.5 9q12 0 21.5 -9t9.5 -22q0 -12 -9.5 -21t-21.5 -9
q-13 0 -21.5 8.5zM411 335.5q-9 8.5 -9 21.5t9 22t22 9q12 0 21 -9t9 -22q0 -12 -9 -21t-21 -9q-13 0 -22 8.5zM476.5 336q-9.5 9 -9.5 21q0 13 9.5 22t21.5 9q13 0 21.5 -9t8.5 -22t-8.5 -21.5t-21.5 -8.5q-12 0 -21.5 9zM148.5 270.5q-8.5 8.5 -8.5 21.5q0 12 8.5 21
t21.5 9q12 0 21.5 -9t9.5 -21t-9.5 -21t-21.5 -9q-13 0 -21.5 8.5zM476.5 271q-9.5 9 -9.5 21t9.5 21t21.5 9q13 0 21.5 -9t8.5 -21q0 -13 -8.5 -21.5t-21.5 -8.5q-12 0 -21.5 9zM148.5 205.5q-8.5 8.5 -8.5 21.5q0 12 8.5 20.5t21.5 8.5q12 0 21.5 -8.5t9.5 -20.5t-9.5 -21
t-21.5 -9q-13 0 -21.5 8.5zM279.5 206q-9.5 9 -9.5 21t9.5 20.5t21.5 8.5q13 0 21.5 -8.5t8.5 -20.5q0 -13 -8.5 -21.5t-21.5 -8.5q-12 0 -21.5 9zM345.5 205.5q-8.5 8.5 -8.5 21.5q0 12 8.5 20.5t21.5 8.5q12 0 21.5 -8.5t9.5 -20.5t-9.5 -21t-21.5 -9q-13 0 -21.5 8.5z
M411 205.5q-9 8.5 -9 21.5q0 12 9 20.5t22 8.5q12 0 21 -8.5t9 -20.5t-9 -21t-21 -9q-13 0 -22 8.5zM476.5 206q-9.5 9 -9.5 21t9.5 20.5t21.5 8.5q13 0 21.5 -8.5t8.5 -20.5q0 -13 -8.5 -21.5t-21.5 -8.5q-12 0 -21.5 9zM148.5 139q-8.5 9 -8.5 22t8.5 21.5t21.5 8.5
q12 0 21.5 -9t9.5 -21q0 -13 -9.5 -22t-21.5 -9q-13 0 -21.5 9zM148.5 73.5q-8.5 8.5 -8.5 21.5t8.5 21.5t21.5 8.5q12 0 21.5 -8.5t9.5 -21.5q0 -12 -9.5 -21t-21.5 -9q-13 0 -21.5 8.5zM279.5 74q-9.5 9 -9.5 21q0 13 9.5 21.5t21.5 8.5q13 0 21.5 -8.5t8.5 -21.5
t-8.5 -21.5t-21.5 -8.5q-12 0 -21.5 9zM148.5 8.5q-8.5 8.5 -8.5 21.5q0 12 9 21.5t21 9.5t21.5 -9.5t9.5 -21.5t-9.5 -21t-21.5 -9q-13 0 -21.5 8.5zM215 8.5q-9 8.5 -9 21.5q0 12 9 21.5t21 9.5t21 -9.5t9 -21.5q0 -13 -8.5 -21.5t-21.5 -8.5q-12 0 -21 8.5zM279.5 9
q-9.5 9 -9.5 21t9.5 21.5t21.5 9.5t21 -9.5t9 -21.5q0 -13 -8.5 -21.5t-21.5 -8.5q-12 0 -21.5 9z" />
    <glyph glyph-name="at" unicode="@" horiz-adv-x="1014" 
d="M684 244q-8 -29 -14.5 -57.5t-6.5 -43.5q0 -22 15.5 -35.5t45.5 -13.5q49 0 85.5 32t55.5 85.5t19 116.5q0 94 -46 156t-119.5 91t-159.5 29q-125 0 -221 -57.5t-148.5 -158t-52.5 -223.5q0 -94 40.5 -161t114.5 -101.5t173 -34.5q91 0 177 24.5t154 65.5l-12 -89
q-46 -27 -134 -51.5t-188 -24.5q-126 0 -218.5 44.5t-142.5 128t-50 198.5q0 153 64 269.5t179.5 180.5t265.5 64q112 0 205.5 -38t149.5 -116t56 -193q0 -85 -29.5 -155.5t-86.5 -111.5t-135 -41q-53 0 -84.5 21t-36.5 58q-24 -38 -63 -58.5t-80 -20.5q-78 0 -120 43
t-42 118q0 65 28.5 121.5t78.5 90.5t113 34q48 0 79 -19t45 -54l16 61h74zM544.5 127.5q34.5 31.5 49.5 82.5q10 37 10 62q0 40 -20 63t-61 23q-43 0 -76.5 -25t-51.5 -65.5t-18 -84.5q0 -42 21.5 -64.5t61.5 -22.5q50 0 84.5 31.5z" />
    <glyph glyph-name="ampersand" unicode="&#x26;" horiz-adv-x="696" 
d="M589 -13l-69 69q-42 -32 -97.5 -48.5t-118.5 -16.5q-77 0 -135 27t-90 74.5t-32 109.5q0 69 38.5 118.5t99.5 72.5q-34 46 -34 95q0 77 54.5 123.5t142.5 46.5q73 0 119 -28l-11 -80q-15 12 -42 21t-59 9q-51 0 -80 -27t-29 -67q0 -27 18.5 -53t60.5 -67l196 -196
q26 43 26 97q0 95 -94 127l56 52q54 -17 88.5 -62t34.5 -114q0 -86 -53 -158l68 -67zM191 106q48 -39 125 -39q87 0 147 44l-232 233q-42 -19 -65 -53.5t-23 -78.5q0 -67 48 -106z" />
    <glyph glyph-name="paragraph" unicode="&#xb6;" horiz-adv-x="707" 
d="M202.5 -203q-19.5 4 -29.5 10l9 68q16 -7 42 -7q24 0 34.5 13.5t14.5 42.5l43 303h-9q-72 0 -123.5 12t-85 48.5t-33.5 105.5q0 13 4 47q13 93 60 138.5t106 57.5t140 12h361l-10 -80h-101l-108 -766h-93l108 766h-75l-93 -663q-8 -55 -35 -83.5t-85 -28.5q-22 0 -41.5 4
z" />
    <glyph glyph-name="section" unicode="&#xa7;" horiz-adv-x="439" 
d="M7 -181l11 76q62 -32 135 -32q55 0 86.5 24.5t31.5 69.5q0 36 -24.5 56.5t-74.5 43.5q-42 21 -67.5 37.5t-43.5 45t-18 70.5q0 56 33 97t81 57q-29 19 -45 48.5t-16 66.5q0 84 57 131.5t151 47.5q33 0 66 -7.5t48 -14.5l-11 -74q-20 12 -48 19t-58 7q-56 0 -88.5 -26.5
t-32.5 -72.5q0 -39 25.5 -61.5t77.5 -47.5q42 -20 67 -37t42.5 -44.5t17.5 -68.5q0 -61 -36 -99.5t-86 -51.5q68 -40 68 -115q0 -83 -53 -127.5t-149 -44.5q-86 0 -147 27zM299.5 150q28.5 26 28.5 70q0 25 -14.5 43.5t-37 32t-64.5 33.5q-34 -10 -60.5 -40t-26.5 -70
q0 -34 24 -55.5t82 -49.5q40 10 68.5 36z" />
    <glyph glyph-name="copyright" unicode="&#xa9;" horiz-adv-x="777" 
d="M234.5 33.5q-75.5 43.5 -120 120t-44.5 170.5q0 96 44 172.5t120 119t167 42.5t167.5 -42.5t121.5 -119t45 -172.5q0 -94 -45 -170.5t-121.5 -120t-167.5 -43.5t-166.5 43.5zM536 88q59 35 92 97t33 140q0 80 -33 141t-92 95t-134 34q-74 0 -133 -34t-92 -95t-33 -141
q0 -78 33 -140t92 -97t133 -35q75 0 134 35zM295.5 200.5q-48.5 41.5 -48.5 120.5q0 77 46 123.5t123 46.5q49 0 85 -17v-62q-43 23 -79 23q-48 0 -77.5 -29.5t-29.5 -81.5q0 -50 28 -78.5t77 -28.5q46 0 84 24v-62q-14 -8 -38.5 -14t-51.5 -6q-70 0 -118.5 41.5z" />
    <glyph glyph-name="registered" unicode="&#xae;" horiz-adv-x="777" 
d="M234.5 33.5q-75.5 43.5 -120 120t-44.5 170.5q0 96 44 172.5t120 119t167 42.5t167.5 -42.5t121.5 -119t45 -172.5q0 -94 -45 -170.5t-121.5 -120t-167.5 -43.5t-166.5 43.5zM536 88q59 35 92 97t33 140q0 80 -33 141t-92 95t-134 34q-74 0 -133 -34t-92 -95t-33 -141
q0 -78 33 -140t92 -97t133 -35q75 0 134 35zM291 487h112q59 0 92 -20.5t33 -79.5q0 -77 -66 -94l78 -130h-71l-70 124h-46v-124h-62v324zM384 334q32 0 48 3.5t24 14.5t8 35q0 32 -17 42t-60 10h-34v-105h31z" />
    <glyph glyph-name="trademark" unicode="&#x2122;" horiz-adv-x="913" 
d="M519 487l-38 -218h-69l78 389h10l135 -270l137 270h10l77 -389h-70l-36 218l-113 -224h-10zM191 587h-107v61h285v-61h-107v-318h-71v318z" />
    <glyph glyph-name="degree" unicode="&#xb0;" horiz-adv-x="538" 
d="M223 443q-36 35 -36 90q0 54 36 89.5t90 35.5t90 -35.5t36 -89.5q0 -55 -36 -90t-90 -35t-90 35zM363.5 480q20.5 20 20.5 53t-20.5 53t-50.5 20t-50.5 -20t-20.5 -53q0 -34 20 -53.5t51 -19.5q30 0 50.5 20z" />
    <glyph glyph-name="bar" unicode="|" horiz-adv-x="250" 
d="M138 648h92l-118 -846h-92z" />
    <glyph glyph-name="brokenbar" unicode="&#xa6;" horiz-adv-x="250" 
d="M138 648h92l-46 -331h-92zM66 133h92l-46 -331h-92z" />
    <glyph glyph-name="uni2113" unicode="&#x2113;" horiz-adv-x="232" 
d="M133 663h90l-93 -663h-90z" />
    <glyph glyph-name="dagger" unicode="&#x2020;" horiz-adv-x="586" 
d="M270 376h-165l11 73h164l24 199h97l-31 -199h164l-11 -73h-164l-89 -576h-72z" />
    <glyph glyph-name="daggerdbl" unicode="&#x2021;" horiz-adv-x="587" 
d="M359 376l-30 -195h147l-11 -73h-147l-48 -308h-72l39 308h-170l11 73h168l24 195h-165l11 73h164l24 199h97l-31 -199h164l-11 -73h-164z" />
    <glyph glyph-name="estimated" unicode="&#x212e;" horiz-adv-x="891" 
d="M271 35.5q-88 45.5 -139.5 124t-51.5 171.5t51.5 171.5t139.5 124.5t192 46q102 0 189.5 -46t139 -124.5t51.5 -171.5v-8h-617q-5 0 -6.5 -1t-1.5 -5v-187q0 -6 3 -11t9 -10q44 -46 105 -72t129 -26q72 0 135 29.5t109 80.5h56q-55 -61 -133.5 -96t-167.5 -35
q-104 0 -192 45.5zM696 342q8 0 8 5v190q0 9 -13 22q-42 44 -102 69t-125 25q-68 0 -128 -25.5t-106 -71.5q-12 -12 -12 -24v-185q0 -5 8 -5h470z" />
    <glyph glyph-name="uni2116" unicode="&#x2116;" horiz-adv-x="1119" 
d="M208 458l-64 -458h-91l92 658h10l372 -468l64 458h91l-92 -658h-10zM822 354q-39 37 -39 103q0 26 5 50q15 70 63 110t121 40q68 0 106.5 -36.5t38.5 -103.5q0 -26 -5 -50q-15 -70 -62.5 -110t-120.5 -40q-68 0 -107 37zM1005 405q29 28 38 78q4 15 4 32q0 41 -20.5 62
t-56.5 21q-45 0 -73.5 -27.5t-39.5 -77.5q-3 -19 -3 -34q0 -41 20 -61.5t57 -20.5q45 0 74 28zM778 267h282l-8 -60h-283z" />
    <glyph glyph-name="asciicircum" unicode="^" 
d="M348 658h10l163 -330h-95l-89 193l-143 -193h-102z" />
    <glyph glyph-name="at.case" horiz-adv-x="1013" 
d="M698 346q-8 -29 -14.5 -57.5t-6.5 -43.5q0 -22 15.5 -35.5t45.5 -13.5q49 0 85.5 32t55.5 85.5t19 116.5q0 94 -46 156t-119.5 91t-159.5 29q-125 0 -221 -57.5t-148.5 -158t-52.5 -223.5q0 -94 40.5 -161t114.5 -101.5t173 -34.5q91 0 177 24.5t154 65.5l-12 -89
q-46 -27 -134 -51.5t-188 -24.5q-126 0 -218.5 44.5t-142.5 128t-50 198.5q0 153 64 269.5t179.5 180.5t265.5 64q112 0 205.5 -38t149.5 -116t56 -193q0 -85 -29.5 -155.5t-86.5 -111.5t-135 -41q-53 0 -84.5 21t-36.5 58q-24 -38 -63 -58.5t-80 -20.5q-78 0 -120 43
t-42 118q0 65 28.5 121.5t78.5 90.5t113 34q48 0 79 -19t45 -54l16 61h74zM558.5 229.5q34.5 31.5 49.5 82.5q10 37 10 62q0 40 -20 63t-61 23q-43 0 -76.5 -25t-51.5 -65.5t-18 -84.5q0 -42 21.5 -64.5t61.5 -22.5q50 0 84.5 31.5z" />
    <glyph glyph-name="uni0374" unicode="&#x374;" horiz-adv-x="200" 
d="M90 648h97l-100 -236h-68z" />
    <glyph glyph-name="uni0375" unicode="&#x375;" horiz-adv-x="200" 
d="M79 98h97l-100 -236h-68z" />
    <glyph glyph-name="uni0308" unicode="&#x308;" horiz-adv-x="0" 
d="M-338.5 568.5q-13.5 13.5 -13.5 34.5q0 26 18 43t44 17q21 0 34.5 -14t13.5 -34q0 -27 -17.5 -43.5t-43.5 -16.5q-22 0 -35.5 13.5zM-143 568.5q-13 13.5 -13 34.5q0 26 18 43t43 17q21 0 34.5 -14t13.5 -34q0 -27 -17.5 -43.5t-43.5 -16.5q-22 0 -35 13.5z" />
    <glyph glyph-name="uni0307" unicode="&#x307;" horiz-adv-x="0" 
d="M-248 568.5q-13 13.5 -13 34.5q0 26 18 43t44 17q21 0 34 -13.5t13 -34.5q0 -27 -17.5 -43.5t-42.5 -16.5q-23 0 -36 13.5z" />
    <glyph glyph-name="gravecomb" unicode="&#x300;" horiz-adv-x="0" 
d="M-307 684h115l94 -164h-86z" />
    <glyph glyph-name="acutecomb" unicode="&#x301;" horiz-adv-x="0" 
d="M-194 684h119l-166 -164h-94z" />
    <glyph glyph-name="uni030B" unicode="&#x30b;" horiz-adv-x="0" 
d="M-280 684h111l-138 -164h-90zM-97 684h110l-137 -164h-91z" />
    <glyph glyph-name="uni0302" unicode="&#x302;" horiz-adv-x="0" 
d="M-184 693l144 -172h-94l-63 78l-82 -78h-102z" />
    <glyph glyph-name="uni030C" unicode="&#x30c;" horiz-adv-x="0" 
d="M-358 684h94l61 -79l84 79h102l-198 -173z" />
    <glyph glyph-name="uni0306" unicode="&#x306;" horiz-adv-x="0" 
d="M-323 546.5q-36 35.5 -36 96.5q0 24 4 41h68q-2 -16 -2 -29q0 -36 20.5 -54t63.5 -18q53 0 80 24.5t33 76.5h72q-14 -173 -187 -173q-80 0 -116 35.5z" />
    <glyph glyph-name="uni030A" unicode="&#x30a;" horiz-adv-x="0" 
d="M-283.5 535.5q-26.5 25.5 -26.5 68.5q0 51 34 81.5t83 30.5q43 0 69.5 -25t26.5 -68q0 -52 -33.5 -82.5t-82.5 -30.5q-44 0 -70.5 25.5zM-166.5 576q16.5 16 16.5 42q0 22 -13.5 35.5t-34.5 13.5q-24 0 -41 -17t-17 -43q0 -22 13 -34.5t35 -12.5q25 0 41.5 16z" />
    <glyph glyph-name="tildecomb" unicode="&#x303;" horiz-adv-x="0" 
d="M-173 549.5q-18 7.5 -39 21.5q-17 12 -29.5 17.5t-26.5 5.5q-25 0 -36.5 -15.5t-13.5 -31.5h-60q7 56 36.5 84t77.5 28q24 0 42 -7.5t41 -22.5q15 -11 27 -16.5t26 -5.5q23 0 34 14.5t13 32.5h60q-5 -53 -34 -82.5t-76 -29.5q-24 0 -42 7.5z" />
    <glyph glyph-name="uni0304" unicode="&#x304;" horiz-adv-x="0" 
d="M-344 641h294l-10 -74h-294z" />
    <glyph glyph-name="uni0315" unicode="&#x315;" horiz-adv-x="0" 
d="M-214 565q-40 3 -40 39q0 24 16 39t38 15q23 0 37.5 -14t14.5 -41q0 -32 -21 -60.5t-51 -46.5h-55q47 37 61 69z" />
    <glyph glyph-name="uni0326" unicode="&#x326;" horiz-adv-x="0" 
d="M-311 -148q-19 2 -30 12t-11 28q0 23 16.5 38.5t38.5 15.5q23 0 37.5 -14.5t14.5 -40.5q0 -31 -18.5 -57t-43.5 -41h-55q37 30 51 59z" />
    <glyph glyph-name="uni0327" unicode="&#x327;" horiz-adv-x="0" 
d="M-412 -195l7 50q9 -5 24 -9t32 -4q55 0 55 45q0 16 -9 25t-26 9q-27 0 -45 -20l-11 8l47 110h60l-29 -61q6 2 9 2q31 -1 50.5 -18t19.5 -51q0 -53 -32.5 -75.5t-84.5 -22.5q-43 0 -67 12z" />
    <glyph glyph-name="uni0328" unicode="&#x328;" horiz-adv-x="0" 
d="M-334 -186.5q-28 20.5 -28 63.5q0 55 38 92t100 52l55 -19q-55 -16 -91 -47.5t-36 -69.5q0 -37 43 -37q19 0 35 5.5t23 10.5l-8 -60q-24 -11 -58 -11q-45 0 -73 20.5z" />
    <glyph glyph-name="uni0308.case" horiz-adv-x="0" 
d="M-318.5 747q-15.5 15 -15.5 40q0 28 19.5 47.5t46.5 19.5q25 0 40.5 -15.5t15.5 -40.5q0 -30 -19.5 -48t-46.5 -18q-25 0 -40.5 15zM-121 747q-15 15 -15 40q0 28 19 47.5t46 19.5q25 0 40.5 -15.5t15.5 -40.5q0 -30 -19 -48t-46 -18q-26 0 -41 15z" />
    <glyph glyph-name="uni0307.case" horiz-adv-x="0" 
d="M-226 747q-15 15 -15 39q0 29 19 48t45 19q25 0 40.5 -15.5t15.5 -40.5q0 -29 -19 -47t-46 -18q-25 0 -40 15z" />
    <glyph glyph-name="gravecomb.case" horiz-adv-x="0" 
d="M-278 876h115l94 -164h-86z" />
    <glyph glyph-name="acutecomb.case" horiz-adv-x="0" 
d="M-158 876h120l-167 -164h-94z" />
    <glyph glyph-name="uni030B.case" horiz-adv-x="0" 
d="M-261 876h120l-155 -164h-91zM-65 876h120l-155 -164h-91z" />
    <glyph glyph-name="uni0302.case" horiz-adv-x="0" 
d="M-157 885l144 -173h-95l-62 79l-83 -79h-101z" />
    <glyph glyph-name="uni030C.case" horiz-adv-x="0" 
d="M-332 876h94l62 -78l84 78h101l-198 -173z" />
    <glyph glyph-name="uni0306.case" horiz-adv-x="0" 
d="M-296 738.5q-36 35.5 -36 96.5q0 24 4 41h69q-3 -12 -3 -28q0 -36 20 -54t64 -18q53 0 80 24.5t33 75.5h72q-14 -173 -187 -173q-80 0 -116 35.5z" />
    <glyph glyph-name="uni030A.case" horiz-adv-x="0" 
d="M-258.5 715.5q-26.5 25.5 -26.5 68.5q0 51 34 81.5t83 30.5q43 0 70 -25t27 -68q0 -52 -33.5 -82.5t-83.5 -30.5q-44 0 -70.5 25.5zM-141.5 756q16.5 16 16.5 42q0 22 -13 35.5t-35 13.5q-24 0 -41 -17t-17 -43q0 -22 13 -34.5t36 -12.5q24 0 40.5 16z" />
    <glyph glyph-name="tildecomb.case" horiz-adv-x="0" 
d="M-146 741.5q-17 7.5 -40 21.5q-18 12 -29.5 17.5t-26.5 5.5q-24 0 -36 -15.5t-14 -31.5h-59q7 56 36 84.5t77 28.5q24 0 42 -7.5t41 -22.5q18 -12 29.5 -17.5t24.5 -5.5q22 0 33.5 15t13.5 33h59q-5 -53 -33.5 -83t-76.5 -30q-24 0 -41 7.5z" />
    <glyph glyph-name="uni0304.case" horiz-adv-x="0" 
d="M-316 830h294l-11 -73h-293z" />
    <glyph glyph-name="acutecomb.loclPLK" horiz-adv-x="0" 
d="M-226 684h109l-118 -164h-92z" />
    <glyph glyph-name="acutecomb.case.loclPLK" horiz-adv-x="0" 
d="M-143 876h109l-118 -164h-92z" />
    <glyph glyph-name="acute" unicode="&#xb4;" horiz-adv-x="513" 
d="M331 684h119l-166 -164h-94z" />
    <glyph glyph-name="breve" unicode="&#x2d8;" horiz-adv-x="506" 
d="M189 546.5q-36 35.5 -36 96.5q0 24 4 41h68q-2 -16 -2 -29q0 -36 20.5 -54t63.5 -18q53 0 80 24.5t33 76.5h72q-14 -173 -187 -173q-80 0 -116 35.5z" />
    <glyph glyph-name="caron" unicode="&#x2c7;" horiz-adv-x="504" 
d="M154 684h94l61 -79l84 79h102l-198 -173z" />
    <glyph glyph-name="acute.case" horiz-adv-x="514" 
d="M369 876h120l-167 -164h-94z" />
    <glyph glyph-name="breve.case" horiz-adv-x="505" 
d="M215 738.5q-36 35.5 -36 96.5q0 24 4 41h69q-3 -12 -3 -28q0 -36 20 -54t64 -18q53 0 80 24.5t33 75.5h72q-14 -173 -187 -173q-80 0 -116 35.5z" />
    <glyph glyph-name="caron.case" horiz-adv-x="504" 
d="M180 876h94l62 -78l84 78h101l-198 -173z" />
    <glyph glyph-name="circumflex.case" horiz-adv-x="504" 
d="M355 885l144 -173h-95l-62 79l-83 -79h-101z" />
    </font>
</defs>
</svg>
