<?xml version="1.0" standalone="no"?>
<!DOCTYPE svg PUBLIC "-//W3C//DTD SVG 1.1//EN" "http://www.w3.org/Graphics/SVG/1.1/DTD/svg11.dtd" >
<svg xmlns="http://www.w3.org/2000/svg">
<metadata>
Nespresso Lucas is a licensed version of FS Lucas, Copyright (c) 2016. All rights reserved. This font may not be altered in any way without prior permission of Fontsmith Ltd.
</metadata>
<defs>
<font id="NespressoLucas-Med" horiz-adv-x="596" >
  <font-face 
    font-family="Nespresso Lucas Med"
    font-weight="500"
    font-stretch="normal"
    units-per-em="1000"
    panose-1="2 11 6 3 6 3 2 3 2 3"
    ascent="800"
    descent="-200"
    x-height="449"
    cap-height="648"
    bbox="-449 -208 1216 898"
    underline-thickness="73"
    underline-position="-28"
    unicode-range="U+000D-FB02"
  />
<missing-glyph horiz-adv-x="673" 
d="M84 648h504v-855h-504v855zM542 620h-412l206 -370zM321 221l-207 365v-731zM558 586l-207 -365l207 -366v731zM542 -178l-206 375l-206 -375h412z" />
    <glyph glyph-name="f_f.liga" unicode="ff" horiz-adv-x="663" 
d="M108 376h-77v73h77v33q0 93 38.5 139.5t122.5 46.5q42 0 71 -12v-77q-26 11 -58 11q-42 0 -63 -25t-21 -82v-34h218v41q0 93 41 140t130 47q27 0 51 -4.5t38 -11.5v-79q-39 17 -79 17q-51 0 -71 -27.5t-20 -86.5v-36h124v-73h-124v-376h-90v376h-218v-376h-90v376z" />
    <glyph glyph-name="f_f_i.liga" unicode="ffi" horiz-adv-x="884" 
d="M108 376h-77v73h77v33q0 93 38.5 139.5t122.5 46.5q39 0 67 -11v-78q-22 11 -54 11q-42 0 -63 -25t-21 -82v-34h217v41q0 91 37.5 139t120.5 48q40 0 60 -9v-78q-6 3 -18 6t-26 3q-41 0 -62.5 -25t-21.5 -82v-43h308v-449h-90v376h-218v-376h-90v376h-217v-376h-90v376z
M728.5 570q-15.5 15 -15.5 39t16 39t39 15t38.5 -15t15.5 -39t-15.5 -39t-38.5 -15q-24 0 -39.5 15z" />
    <glyph glyph-name="f_f_j.liga" unicode="ffj" horiz-adv-x="888" 
d="M558 -195v77q31 -13 67 -13q54 0 76 33t22 97v377h-218v-376h-90v376h-217v-376h-90v376h-77v73h77v33q0 93 38.5 139.5t122.5 46.5q39 0 67 -11v-78q-22 11 -54 11q-42 0 -63 -25t-21 -82v-34h217v41q0 91 37.5 139t120.5 48q40 0 60 -9v-78q-6 3 -18 6t-26 3
q-41 0 -62.5 -25t-21.5 -82v-43h308v-445q0 -106 -41.5 -158.5t-132.5 -52.5q-45 0 -81 12zM725.5 566q-16.5 17 -16.5 43t17 43t42 17t41.5 -17t16.5 -43q0 -27 -16.5 -43.5t-41.5 -16.5q-26 0 -42.5 17z" />
    <glyph glyph-name="f_f_l.liga" unicode="ffl" horiz-adv-x="884" 
d="M108 376h-77v73h77v33q0 93 38.5 139.5t122.5 46.5q39 0 67 -11v-78q-22 11 -54 11q-42 0 -63 -25t-21 -82v-34h217v41q0 91 37.5 139t120.5 48q40 0 60 -9v-78q-6 3 -18 6t-26 3q-41 0 -62.5 -25t-21.5 -82v-43h117v-73h-117v-376h-90v376h-217v-376h-90v376zM723 663
h90v-663h-90v663z" />
    <glyph glyph-name="f_f_t.liga" unicode="fft" horiz-adv-x="1005" 
d="M108 376h-77v73h77v33q0 93 38.5 139.5t122.5 46.5q39 0 67 -11v-78q-22 11 -54 11q-42 0 -63 -25t-21 -82v-34h218v41q0 91 37.5 139t120.5 48q38 0 60 -9v-78q-18 9 -44 9q-44 0 -64 -25t-20 -90v-35h100v-73h-100v-376h-90v376h-218v-376h-90v376zM758 30
q-34 39 -34 115v231h-56v9q81 89 137 187h9v-123h128v-73h-128v-217q0 -47 15 -69.5t59 -22.5q36 0 74 16v-76q-36 -16 -93 -16q-77 0 -111 39z" />
    <glyph glyph-name="f_j.liga" unicode="fj" horiz-adv-x="576" 
d="M251 -195v77q31 -13 66 -13q54 0 76 33t22 97v377h-217v-376h-90v376h-77v73h77v41q0 91 37 139t119 48q38 0 60 -9v-78q-21 9 -44 9q-40 0 -61 -25.5t-21 -81.5v-43h307v-445q0 -106 -41.5 -158.5t-132.5 -52.5q-44 0 -80 12zM421.5 570q-15.5 15 -15.5 39t16 39t39 15
t38 -15t15 -39t-15.5 -39t-37.5 -15q-24 0 -39.5 15z" />
    <glyph glyph-name="f_t.liga" unicode="ft" horiz-adv-x="696" 
d="M108 376h-77v73h77v41q0 91 37.5 139t120.5 48q38 0 60 -9v-78q-18 9 -44 9q-41 0 -62.5 -25t-21.5 -82v-43h100v-73h-100v-376h-90v376zM449.5 30q-34.5 39 -34.5 115v231h-56v9q81 89 137 187h9v-123h128v-73h-128v-217q0 -47 15 -69.5t59 -22.5q36 0 74 16v-76
q-36 -16 -93 -16q-76 0 -110.5 39z" />
    <glyph glyph-name="fi" unicode="fi" horiz-adv-x="576" 
d="M108 376h-77v73h77v41q0 91 37 139t119 48q38 0 60 -9v-78q-21 9 -44 9q-40 0 -61 -25.5t-21 -81.5v-43h307v-449h-90v376h-217v-376h-90v376zM421.5 570q-15.5 15 -15.5 39t16 39t39 15t38 -15t15 -39t-15.5 -39t-37.5 -15q-24 0 -39.5 15z" />
    <glyph glyph-name="fl" unicode="fl" horiz-adv-x="576" 
d="M108 376h-77v73h77v41q0 91 37 139t119 48q38 0 60 -9v-78q-21 9 -44 9q-40 0 -61 -25.5t-21 -81.5v-43h117v-73h-117v-376h-90v376zM415 662h90v-662h-90v662z" />
    <glyph glyph-name="t_t.liga" unicode="tt" horiz-adv-x="721" 
d="M131 30q-34 39 -34 115v231h-73v10q35 31 82 87.5t71 98.5h10v-123h128v-73h-128v-217q0 -47 15 -69.5t59 -22.5q34 0 74 16v-76q-36 -16 -93 -16q-77 0 -111 39zM474.5 30q-34.5 39 -34.5 115v231h-73v10q35 30 82 86.5t72 99.5h9v-123h129v-73h-129v-217
q0 -47 15 -69.5t59 -22.5q36 0 74 16v-76q-36 -16 -93 -16q-76 0 -110.5 39z" />
    <glyph glyph-name=".notdef" horiz-adv-x="673" 
d="M84 648h504v-855h-504v855zM542 620h-412l206 -370zM321 221l-207 365v-731zM558 586l-207 -365l207 -366v731zM542 -178l-206 375l-206 -375h412z" />
    <glyph glyph-name=".null" horiz-adv-x="0" 
 />
    <glyph glyph-name="nonmarkingreturn" unicode="&#xd;" horiz-adv-x="210" 
 />
    <glyph glyph-name="space" unicode=" " horiz-adv-x="210" 
 />
    <glyph glyph-name="A" unicode="A" horiz-adv-x="645" 
d="M318 658h10l294 -658h-100l-55 128h-292l-55 -128h-97zM437 206l-115 267l-115 -267h230z" />
    <glyph glyph-name="Aacute" unicode="&#xc1;" horiz-adv-x="645" 
d="M318 658h10l294 -658h-100l-55 128h-292l-55 -128h-97zM437 206l-115 267l-115 -267h230zM385 876h120l-148 -164h-89z" />
    <glyph glyph-name="Abreve" unicode="&#x102;" horiz-adv-x="645" 
d="M318 658h10l294 -658h-100l-55 128h-292l-55 -128h-97zM437 206l-115 267l-115 -267h230zM193 746q-39 43 -39 119v11h72q0 -49 22.5 -73.5t73.5 -24.5t74 24.5t23 73.5h72v-11q0 -162 -169 -162q-90 0 -129 43z" />
    <glyph glyph-name="uni01CD" unicode="&#x1cd;" horiz-adv-x="645" 
d="M318 658h10l294 -658h-100l-55 128h-292l-55 -128h-97zM437 206l-115 267l-115 -267h230zM152 876h97l73 -78l73 78h98l-171 -173z" />
    <glyph glyph-name="Acircumflex" unicode="&#xc2;" horiz-adv-x="645" 
d="M318 658h10l294 -658h-100l-55 128h-292l-55 -128h-97zM437 206l-115 267l-115 -267h230zM322 885l171 -173h-98l-73 79l-73 -79h-97z" />
    <glyph glyph-name="Adieresis" unicode="&#xc4;" horiz-adv-x="645" 
d="M318 658h10l294 -658h-100l-55 128h-292l-55 -128h-97zM437 206l-115 267l-115 -267h230zM181 749.5q-17 17.5 -17 43.5t17 43.5t43 17.5t43 -17.5t17 -43.5t-17 -43.5t-43 -17.5t-43 17.5zM377 749.5q-17 17.5 -17 43.5t17 43.5t43 17.5t43 -17.5t17 -43.5t-17 -43.5
t-43 -17.5t-43 17.5z" />
    <glyph glyph-name="Agrave" unicode="&#xc0;" horiz-adv-x="645" 
d="M318 658h10l294 -658h-100l-55 128h-292l-55 -128h-97zM437 206l-115 267l-115 -267h230zM155 876h119l117 -164h-89z" />
    <glyph glyph-name="Amacron" unicode="&#x100;" horiz-adv-x="645" 
d="M318 658h10l294 -658h-100l-55 128h-292l-55 -128h-97zM437 206l-115 267l-115 -267h230zM176 830h293v-73h-293v73z" />
    <glyph glyph-name="Aogonek" unicode="&#x104;" horiz-adv-x="645" 
d="M472.5 -184q-29.5 23 -29.5 70q0 38 21 68.5t57 48.5l-54 125h-291l-56 -128h-97l295 658h10l294 -658q-51 -11 -82.5 -38t-31.5 -62q0 -25 13.5 -38.5t39.5 -13.5q32 0 50 13v-56q-10 -5 -27 -8.5t-35 -3.5q-47 0 -76.5 23zM437 206l-115 267l-115 -267h230z" />
    <glyph glyph-name="Aring" unicode="&#xc5;" horiz-adv-x="645" 
d="M291 607q-33 9 -53.5 36t-20.5 62q0 43 30.5 73t75.5 30t75.5 -30t30.5 -73q0 -35 -20.5 -62t-53.5 -36l267 -607h-100l-55 128h-291l-56 -128h-97zM360.5 666q15.5 15 15.5 39q0 22 -15.5 38t-37.5 16t-37 -15t-15 -39t15 -39t37 -15t37.5 15zM437 206l-115 270
l-115 -270h230z" />
    <glyph glyph-name="Atilde" unicode="&#xc3;" horiz-adv-x="645" 
d="M318 658h10l294 -658h-100l-55 128h-292l-55 -128h-97zM437 206l-115 267l-115 -267h230zM353 741.5q-18 7.5 -44 22.5q-17 11 -30 16.5t-26 5.5q-24 0 -33.5 -16t-9.5 -31h-59q0 47 26 80t72 33q24 0 43 -7.5t47 -23.5q17 -11 29.5 -16.5t24.5 -5.5q21 0 31 15.5
t10 32.5h59q0 -46 -25.5 -79.5t-72.5 -33.5q-24 0 -42 7.5z" />
    <glyph glyph-name="AE" unicode="&#xc6;" horiz-adv-x="895" 
d="M314 648h298l36 -80h-280l89 -198h218l36 -79h-219l94 -210h281l37 -81h-382l-55 128h-292l-55 -128h-97zM437 206l-115 267l-114 -267h229z" />
    <glyph glyph-name="AEacute" unicode="&#x1fc;" horiz-adv-x="895" 
d="M314 648h298l36 -80h-280l89 -198h218l36 -79h-219l94 -210h281l37 -81h-382l-55 128h-292l-55 -128h-97zM437 206l-115 267l-114 -267h229zM450 876h120l-148 -164h-89z" />
    <glyph glyph-name="B" unicode="B" horiz-adv-x="590" 
d="M509 294.5q36 -37.5 36 -112.5q0 -106 -75 -144t-178 -38h-208v648h162q77 0 132.5 -12t91.5 -50.5t36 -111.5q0 -55 -24.5 -87.5t-61.5 -43.5q53 -11 89 -48.5zM388 535.5q-23 22.5 -57.5 28.5t-85.5 6h-67v-202h68q50 0 84.5 6.5t57.5 28.5t23 66t-23 66.5zM407 103
q42 23 42 83t-40.5 82.5t-113.5 22.5h-117v-211h113q74 0 116 23z" />
    <glyph glyph-name="C" unicode="C" horiz-adv-x="634" 
d="M205 32.5q-74 42.5 -113 118t-39 172.5q0 98 39 174t113 118.5t174 42.5q60 0 110 -14t74 -33v-94q-82 55 -179 55q-72 0 -125 -31t-82 -86.5t-29 -129.5q0 -77 31 -133t86.5 -85.5t125.5 -29.5q52 0 99.5 15.5t82.5 38.5v-95q-24 -17 -76 -31.5t-115 -14.5
q-103 0 -177 42.5z" />
    <glyph glyph-name="Cacute" unicode="&#x106;" horiz-adv-x="634" 
d="M205 32.5q-74 42.5 -113 118t-39 172.5q0 98 39 174t113 118.5t174 42.5q60 0 110 -14t74 -33v-94q-82 55 -179 55q-72 0 -125 -31t-82 -86.5t-29 -129.5q0 -77 31 -133t86.5 -85.5t125.5 -29.5q52 0 99.5 15.5t82.5 38.5v-95q-24 -17 -76 -31.5t-115 -14.5
q-103 0 -177 42.5zM426 876h120l-148 -164h-89z" />
    <glyph glyph-name="Cacute.loclPLK" horiz-adv-x="634" 
d="M205 32.5q-74 42.5 -113 118t-39 172.5q0 98 39 174t113 118.5t174 42.5q60 0 110 -14t74 -33v-94q-82 55 -179 55q-72 0 -125 -31t-82 -86.5t-29 -129.5q0 -77 31 -133t86.5 -85.5t125.5 -29.5q52 0 99.5 15.5t82.5 38.5v-95q-24 -17 -76 -31.5t-115 -14.5
q-103 0 -177 42.5zM411 876h108l-101 -164h-84z" />
    <glyph glyph-name="Ccaron" unicode="&#x10c;" horiz-adv-x="634" 
d="M205 32.5q-74 42.5 -113 118t-39 172.5q0 98 39 174t113 118.5t174 42.5q60 0 110 -14t74 -33v-94q-82 55 -179 55q-72 0 -125 -31t-82 -86.5t-29 -129.5q0 -77 31 -133t86.5 -85.5t125.5 -29.5q52 0 99.5 15.5t82.5 38.5v-95q-24 -17 -76 -31.5t-115 -14.5
q-103 0 -177 42.5zM208 876h97l73 -78l73 78h98l-171 -173z" />
    <glyph glyph-name="Ccedilla" unicode="&#xc7;" horiz-adv-x="634" 
d="M205 32.5q-74 42.5 -113 118t-39 172.5q0 98 39 174t113 118.5t174 42.5q60 0 110 -14t74 -33v-94q-82 55 -179 55q-72 0 -125 -31t-82 -86.5t-29 -129.5q0 -77 31 -133t86.5 -85.5t125.5 -29.5q52 0 99.5 15.5t82.5 38.5v-95q-24 -17 -76 -31.5t-115 -14.5
q-103 0 -177 42.5zM286 -195v51q10 -5 26 -9.5t32 -4.5q50 0 50 39q0 20 -11 29.5t-30 9.5q-15 0 -24 -4.5t-18 -12.5l-10 6l32 110h56l-19 -62q6 3 15 3q34 -1 54.5 -20t20.5 -60q0 -46 -30.5 -66.5t-77.5 -20.5q-44 0 -66 12z" />
    <glyph glyph-name="Ccircumflex" unicode="&#x108;" horiz-adv-x="634" 
d="M205 32.5q-74 42.5 -113 118t-39 172.5q0 98 39 174t113 118.5t174 42.5q60 0 110 -14t74 -33v-94q-82 55 -179 55q-72 0 -125 -31t-82 -86.5t-29 -129.5q0 -77 31 -133t86.5 -85.5t125.5 -29.5q52 0 99.5 15.5t82.5 38.5v-95q-24 -17 -76 -31.5t-115 -14.5
q-103 0 -177 42.5zM378 885l171 -173h-98l-73 79l-73 -79h-97z" />
    <glyph glyph-name="Cdotaccent" unicode="&#x10a;" horiz-adv-x="634" 
d="M205 32.5q-74 42.5 -113 118t-39 172.5q0 98 39 174t113 118.5t174 42.5q60 0 110 -14t74 -33v-94q-82 55 -179 55q-72 0 -125 -31t-82 -86.5t-29 -129.5q0 -77 31 -133t86.5 -85.5t125.5 -29.5q52 0 99.5 15.5t82.5 38.5v-95q-24 -17 -76 -31.5t-115 -14.5
q-103 0 -177 42.5zM335.5 750q-16.5 17 -16.5 44q0 26 17.5 43t42.5 17q26 0 42.5 -17t16.5 -44t-17 -43.5t-42 -16.5q-27 0 -43.5 17z" />
    <glyph glyph-name="D" unicode="D" horiz-adv-x="678" 
d="M417 626.5q89 -21.5 148.5 -91.5t59.5 -203q0 -192 -117 -262t-293 -70h-131v648h126q118 0 207 -21.5zM444 135q86 55 86 197q0 98 -41.5 150t-110 69.5t-168.5 17.5h-32v-489h29q151 0 237 55z" />
    <glyph glyph-name="Eth" unicode="&#xd0;" horiz-adv-x="706" 
d="M445 626.5q89 -21.5 148.5 -91.5t59.5 -203q0 -192 -117 -262t-293 -70h-131v293h-103v75h103v280h126q118 0 207 -21.5zM472 135q86 55 86 197q0 98 -41.5 150t-110 69.5t-168.5 17.5h-32v-201h142v-75h-142v-213h29q151 0 237 55z" />
    <glyph glyph-name="Dcaron" unicode="&#x10e;" horiz-adv-x="678" 
d="M417 626.5q89 -21.5 148.5 -91.5t59.5 -203q0 -192 -117 -262t-293 -70h-131v648h126q118 0 207 -21.5zM444 135q86 55 86 197q0 98 -41.5 150t-110 69.5t-168.5 17.5h-32v-489h29q151 0 237 55zM166 876h97l73 -78l73 78h98l-171 -173z" />
    <glyph glyph-name="Dcroat" unicode="&#x110;" horiz-adv-x="706" 
d="M445 626.5q89 -21.5 148.5 -91.5t59.5 -203q0 -192 -117 -262t-293 -70h-131v293h-103v75h103v280h126q118 0 207 -21.5zM472 135q86 55 86 197q0 98 -41.5 150t-110 69.5t-168.5 17.5h-32v-201h142v-75h-142v-213h29q151 0 237 55z" />
    <glyph glyph-name="E" unicode="E" horiz-adv-x="513" 
d="M84 648h383v-80h-289v-198h211v-79h-211v-210h301v-81h-395v648z" />
    <glyph glyph-name="Eacute" unicode="&#xc9;" horiz-adv-x="513" 
d="M84 648h383v-80h-289v-198h211v-79h-211v-210h301v-81h-395v648zM325 876h120l-148 -164h-89z" />
    <glyph glyph-name="Ebreve" unicode="&#x114;" horiz-adv-x="513" 
d="M84 648h383v-80h-289v-198h211v-79h-211v-210h301v-81h-395v648zM148 746q-39 43 -39 119v11h72q0 -49 22.5 -73.5t73.5 -24.5t74 24.5t23 73.5h72v-11q0 -162 -169 -162q-90 0 -129 43z" />
    <glyph glyph-name="Ecaron" unicode="&#x11a;" horiz-adv-x="513" 
d="M84 648h383v-80h-289v-198h211v-79h-211v-210h301v-81h-395v648zM107 876h97l73 -78l73 78h98l-171 -173z" />
    <glyph glyph-name="Ecircumflex" unicode="&#xca;" horiz-adv-x="513" 
d="M84 648h383v-80h-289v-198h211v-79h-211v-210h301v-81h-395v648zM277 885l171 -173h-98l-73 79l-73 -79h-97z" />
    <glyph glyph-name="Edieresis" unicode="&#xcb;" horiz-adv-x="513" 
d="M84 648h383v-80h-289v-198h211v-79h-211v-210h301v-81h-395v648zM136 749.5q-17 17.5 -17 43.5t17 43.5t43 17.5t43 -17.5t17 -43.5t-17 -43.5t-43 -17.5t-43 17.5zM332 749.5q-17 17.5 -17 43.5t17 43.5t43 17.5t43 -17.5t17 -43.5t-17 -43.5t-43 -17.5t-43 17.5z" />
    <glyph glyph-name="Edotaccent" unicode="&#x116;" horiz-adv-x="513" 
d="M84 648h383v-80h-289v-198h211v-79h-211v-210h301v-81h-395v648zM234.5 750q-16.5 17 -16.5 44q0 26 17.5 43t42.5 17q26 0 42.5 -17t16.5 -44t-17 -43.5t-42 -16.5q-27 0 -43.5 17z" />
    <glyph glyph-name="Egrave" unicode="&#xc8;" horiz-adv-x="513" 
d="M84 648h383v-80h-289v-198h211v-79h-211v-210h301v-81h-395v648zM146 876h119l117 -164h-89z" />
    <glyph glyph-name="Emacron" unicode="&#x112;" horiz-adv-x="513" 
d="M84 648h383v-80h-289v-198h211v-79h-211v-210h301v-81h-395v648zM131 830h293v-73h-293v73z" />
    <glyph glyph-name="Eogonek" unicode="&#x118;" horiz-adv-x="513" 
d="M334.5 -184q-29.5 23 -29.5 70q0 38 21 68.5t58 45.5h-300v648h383v-80h-289v-198h211v-79h-211v-210h301v-81q-52 -13 -80.5 -39t-28.5 -61q0 -25 13.5 -38.5t39.5 -13.5q17 0 30 4t20 9v-56q-10 -5 -27 -8.5t-35 -3.5q-47 0 -76.5 23z" />
    <glyph glyph-name="F" unicode="F" horiz-adv-x="499" 
d="M84 648h386v-80h-292v-211h216v-79h-216v-278h-94v648z" />
    <glyph glyph-name="G" unicode="G" horiz-adv-x="710" 
d="M202.5 33q-73.5 43 -111.5 118.5t-38 172.5q0 103 41.5 178.5t116.5 115.5t173 40q52 0 96.5 -10.5t73 -23t38.5 -19.5v-94q-36 24 -89.5 42.5t-111.5 18.5q-69 0 -124 -28.5t-87 -84t-32 -133.5q0 -72 28.5 -128.5t81 -88.5t122.5 -32q91 0 140 49t54 142h-202v80h296
v-29q0 -134 -60 -231.5t-228 -97.5q-104 0 -177.5 43z" />
    <glyph glyph-name="Gbreve" unicode="&#x11e;" horiz-adv-x="710" 
d="M202.5 33q-73.5 43 -111.5 118.5t-38 172.5q0 103 41.5 178.5t116.5 115.5t173 40q52 0 96.5 -10.5t73 -23t38.5 -19.5v-94q-36 24 -89.5 42.5t-111.5 18.5q-69 0 -124 -28.5t-87 -84t-32 -133.5q0 -72 28.5 -128.5t81 -88.5t122.5 -32q91 0 140 49t54 142h-202v80h296
v-29q0 -134 -60 -231.5t-228 -97.5q-104 0 -177.5 43zM254 746q-39 43 -39 119v11h72q0 -49 22.5 -73.5t73.5 -24.5t74 24.5t23 73.5h72v-11q0 -162 -169 -162q-90 0 -129 43z" />
    <glyph glyph-name="Gcircumflex" unicode="&#x11c;" horiz-adv-x="710" 
d="M202.5 33q-73.5 43 -111.5 118.5t-38 172.5q0 103 41.5 178.5t116.5 115.5t173 40q52 0 96.5 -10.5t73 -23t38.5 -19.5v-94q-36 24 -89.5 42.5t-111.5 18.5q-69 0 -124 -28.5t-87 -84t-32 -133.5q0 -72 28.5 -128.5t81 -88.5t122.5 -32q91 0 140 49t54 142h-202v80h296
v-29q0 -134 -60 -231.5t-228 -97.5q-104 0 -177.5 43zM383 885l171 -173h-98l-73 79l-73 -79h-97z" />
    <glyph glyph-name="Gcommaaccent" unicode="&#x122;" horiz-adv-x="710" 
d="M202.5 33q-73.5 43 -111.5 118.5t-38 172.5q0 103 41.5 178.5t116.5 115.5t173 40q52 0 96.5 -10.5t73 -23t38.5 -19.5v-94q-36 24 -89.5 42.5t-111.5 18.5q-69 0 -124 -28.5t-87 -84t-32 -133.5q0 -72 28.5 -128.5t81 -88.5t122.5 -32q91 0 140 49t54 142h-202v80h296
v-29q0 -134 -60 -231.5t-228 -97.5q-104 0 -177.5 43zM417 -70.5q17 -16.5 17 -46.5q0 -26 -14 -49t-35 -41h-54q16 14 27.5 30t16.5 30q-21 -2 -35.5 10.5t-14.5 33.5q0 23 14.5 36t36.5 13q24 0 41 -16.5z" />
    <glyph glyph-name="Gdotaccent" unicode="&#x120;" horiz-adv-x="710" 
d="M202.5 33q-73.5 43 -111.5 118.5t-38 172.5q0 103 41.5 178.5t116.5 115.5t173 40q52 0 96.5 -10.5t73 -23t38.5 -19.5v-94q-36 24 -89.5 42.5t-111.5 18.5q-69 0 -124 -28.5t-87 -84t-32 -133.5q0 -72 28.5 -128.5t81 -88.5t122.5 -32q91 0 140 49t54 142h-202v80h296
v-29q0 -134 -60 -231.5t-228 -97.5q-104 0 -177.5 43zM340.5 750q-16.5 17 -16.5 44q0 26 17.5 43t42.5 17q26 0 42.5 -17t16.5 -44t-17 -43.5t-42 -16.5q-27 0 -43.5 17z" />
    <glyph glyph-name="H" unicode="H" horiz-adv-x="698" 
d="M84 648h94v-278h342v278h94v-648h-94v289h-342v-289h-94v648z" />
    <glyph glyph-name="Hbar" unicode="&#x126;" horiz-adv-x="731" 
d="M722 473h-80v-473h-94v289h-342v-289h-94v473h-103v73h103v102h94v-102h342v102h94v-102h80v-73zM548 473h-342v-103h342v103z" />
    <glyph glyph-name="Hcircumflex" unicode="&#x124;" horiz-adv-x="698" 
d="M84 648h94v-278h342v278h94v-648h-94v289h-342v-289h-94v648zM347 885l171 -173h-98l-73 79l-73 -79h-97z" />
    <glyph glyph-name="I" unicode="I" horiz-adv-x="262" 
d="M84 648h94v-648h-94v648z" />
    <glyph glyph-name="IJ" unicode="&#x132;" horiz-adv-x="727" 
d="M84 648h94v-648h-94v648zM371 -3.5q-35 6.5 -54 15.5v88q21 -12 49.5 -19t60.5 -7q54 0 82 19t38.5 55.5t10.5 97.5v323h-162v79h256v-428q0 -118 -49.5 -174t-158.5 -56q-38 0 -73 6.5z" />
    <glyph glyph-name="Iacute" unicode="&#xcd;" horiz-adv-x="262" 
d="M84 648h94v-648h-94v648zM202 876h120l-148 -164h-89z" />
    <glyph glyph-name="Iacute_J.loclNLD" horiz-adv-x="727" 
d="M84 648h94v-648h-94v648zM202 876h120l-148 -164h-89zM371 -3.5q-35 6.5 -54 15.5v88q21 -12 49.5 -19t60.5 -7q54 0 82 19t38.5 55.5t10.5 97.5v323h-162v79h256v-428q0 -118 -49.5 -174t-158.5 -56q-38 0 -73 6.5zM515 876h120l-148 -164h-89z" />
    <glyph glyph-name="Ibreve" unicode="&#x12c;" horiz-adv-x="262" 
d="M84 648h94v-648h-94v648zM2 746q-39 43 -39 119v11h72q0 -49 22.5 -73.5t73.5 -24.5t74 24.5t23 73.5h72v-11q0 -162 -169 -162q-90 0 -129 43z" />
    <glyph glyph-name="Icircumflex" unicode="&#xce;" horiz-adv-x="262" 
d="M84 648h94v-648h-94v648zM131 885l171 -173h-98l-73 79l-73 -79h-97z" />
    <glyph glyph-name="Idieresis" unicode="&#xcf;" horiz-adv-x="262" 
d="M84 648h94v-648h-94v648zM-10 749.5q-17 17.5 -17 43.5t17 43.5t43 17.5t43 -17.5t17 -43.5t-17 -43.5t-43 -17.5t-43 17.5zM186 749.5q-17 17.5 -17 43.5t17 43.5t43 17.5t43 -17.5t17 -43.5t-17 -43.5t-43 -17.5t-43 17.5z" />
    <glyph glyph-name="Idotaccent" unicode="&#x130;" horiz-adv-x="262" 
d="M84 648h94v-648h-94v648zM88.5 750q-16.5 17 -16.5 44q0 26 17.5 43t42.5 17q26 0 42.5 -17t16.5 -44t-17 -43.5t-42 -16.5q-27 0 -43.5 17z" />
    <glyph glyph-name="Igrave" unicode="&#xcc;" horiz-adv-x="262" 
d="M84 648h94v-648h-94v648zM-58 876h119l117 -164h-89z" />
    <glyph glyph-name="Imacron" unicode="&#x12a;" horiz-adv-x="262" 
d="M84 648h94v-648h-94v648zM-15 830h293v-73h-293v73z" />
    <glyph glyph-name="Iogonek" unicode="&#x12e;" horiz-adv-x="262" 
d="M41.5 -184q-29.5 23 -29.5 74q0 34 20 64.5t52 47.5v646h94v-648q-47 -14 -73.5 -40t-26.5 -60q0 -52 53 -52q29 0 50 13v-56q-10 -5 -27 -8.5t-36 -3.5q-47 0 -76.5 23z" />
    <glyph glyph-name="Itilde" unicode="&#x128;" horiz-adv-x="262" 
d="M84 648h94v-648h-94v648zM162 741.5q-18 7.5 -44 22.5q-17 11 -30 16.5t-26 5.5q-24 0 -33.5 -16t-9.5 -31h-59q0 47 26 80t72 33q24 0 43 -7.5t47 -23.5q17 -11 29.5 -16.5t24.5 -5.5q21 0 31 15.5t10 32.5h59q0 -46 -25.5 -79.5t-72.5 -33.5q-24 0 -42 7.5z" />
    <glyph glyph-name="J" unicode="J" horiz-adv-x="467" 
d="M111 -3.5q-35 6.5 -54 15.5v88q21 -12 49.5 -19t60.5 -7q54 0 82 19t38.5 55.5t10.5 97.5v323h-162v79h256v-428q0 -118 -49.5 -174t-158.5 -56q-38 0 -73 6.5z" />
    <glyph glyph-name="Jcircumflex" unicode="&#x134;" horiz-adv-x="467" 
d="M111 -3.5q-35 6.5 -54 15.5v88q21 -12 49.5 -19t60.5 -7q54 0 82 19t38.5 55.5t10.5 97.5v323h-162v79h256v-428q0 -118 -49.5 -174t-158.5 -56q-38 0 -73 6.5zM255 885l171 -173h-98l-73 79l-73 -79h-97z" />
    <glyph glyph-name="K" unicode="K" horiz-adv-x="631" 
d="M84 648h94v-312l305 312h122l-316 -318l324 -330h-127l-308 320v-320h-94v648z" />
    <glyph glyph-name="Kcommaaccent" unicode="&#x136;" horiz-adv-x="631" 
d="M84 648h94v-312l305 312h122l-316 -318l324 -330h-127l-308 320v-320h-94v648zM358 -70.5q17 -16.5 17 -46.5q0 -26 -14 -49t-35 -41h-54q16 14 27.5 30t16.5 30q-21 -2 -35.5 10.5t-14.5 33.5q0 23 14.5 36t36.5 13q24 0 41 -16.5z" />
    <glyph glyph-name="L" unicode="L" horiz-adv-x="525" 
d="M84 648h94v-567h311v-81h-405v648z" />
    <glyph glyph-name="Lacute" unicode="&#x139;" horiz-adv-x="525" 
d="M84 648h94v-567h311v-81h-405v648zM204 876h120l-148 -164h-89z" />
    <glyph glyph-name="Lcaron" unicode="&#x13d;" horiz-adv-x="525" 
d="M84 648h94v-567h311v-81h-405v648zM389 641.5q17 -16.5 17 -46.5q0 -27 -17 -54t-44 -45h-50q43 40 51 69q-21 -1 -34.5 11.5t-13.5 33.5q0 22 14 35t36 13q24 0 41 -16.5z" />
    <glyph glyph-name="Lcommaaccent" unicode="&#x13b;" horiz-adv-x="525" 
d="M84 648h94v-567h311v-81h-405v648zM327 -70.5q17 -16.5 17 -46.5q0 -26 -14 -49t-35 -41h-54q16 14 27.5 30t16.5 30q-21 -2 -35.5 10.5t-14.5 33.5q0 23 14.5 36t36.5 13q24 0 41 -16.5z" />
    <glyph glyph-name="Ldot" unicode="&#x13f;" horiz-adv-x="525" 
d="M84 648h94v-567h311v-81h-405v648zM296.5 287q-16.5 17 -16.5 43q0 25 17 42t42 17t41.5 -17t16.5 -43t-16.5 -42.5t-41.5 -16.5q-26 0 -42.5 17z" />
    <glyph glyph-name="Lslash" unicode="&#x141;" horiz-adv-x="525" 
d="M84 248l-90 -50v81l90 50v319h94v-279l156 86v-82l-156 -86v-206h311v-81h-405v248z" />
    <glyph glyph-name="M" unicode="M" horiz-adv-x="846" 
d="M222 405l-74 -405h-94l129 658h10l230 -485l231 485h10l128 -658h-92l-75 405l-197 -415h-10z" />
    <glyph glyph-name="N" unicode="N" horiz-adv-x="707" 
d="M175 453v-453h-91v658h10l438 -464v454h91v-658h-10z" />
    <glyph glyph-name="Nacute" unicode="&#x143;" horiz-adv-x="707" 
d="M175 453v-453h-91v658h10l438 -464v454h91v-658h-10zM401 876h120l-148 -164h-89z" />
    <glyph glyph-name="Nacute.loclPLK" horiz-adv-x="707" 
d="M175 453v-453h-91v658h10l438 -464v454h91v-658h-10zM386 876h108l-101 -164h-84z" />
    <glyph glyph-name="Ncaron" unicode="&#x147;" horiz-adv-x="707" 
d="M175 453v-453h-91v658h10l438 -464v454h91v-658h-10zM183 876h97l73 -78l73 78h98l-171 -173z" />
    <glyph glyph-name="Ncommaaccent" unicode="&#x145;" horiz-adv-x="707" 
d="M175 453v-453h-91v658h10l438 -464v454h91v-658h-10zM391 -70.5q17 -16.5 17 -46.5q0 -26 -14 -49t-35 -41h-54q16 14 27.5 30t16.5 30q-21 -2 -35.5 10.5t-14.5 33.5q0 23 14.5 36t36.5 13q24 0 41 -16.5z" />
    <glyph glyph-name="Eng" unicode="&#x14a;" horiz-adv-x="707" 
d="M360 -202q-29 5 -46 11v77q40 -17 91 -17q53 0 80.5 19.5t37 54.5t9.5 92v37l-357 381v-453h-91v658h10l438 -464v454h91v-618q0 -121 -45.5 -179t-155.5 -58q-33 0 -62 5z" />
    <glyph glyph-name="Ntilde" unicode="&#xd1;" horiz-adv-x="707" 
d="M175 453v-453h-91v658h10l438 -464v454h91v-658h-10zM384 741.5q-18 7.5 -44 22.5q-17 11 -30 16.5t-26 5.5q-24 0 -33.5 -16t-9.5 -31h-59q0 47 26 80t72 33q24 0 43 -7.5t47 -23.5q17 -11 29.5 -16.5t24.5 -5.5q21 0 31 15.5t10 32.5h59q0 -46 -25.5 -79.5t-72.5 -33.5
q-24 0 -42 7.5z" />
    <glyph glyph-name="O" unicode="O" horiz-adv-x="754" 
d="M203 33.5q-73 43.5 -111.5 119.5t-38.5 171q0 96 39.5 172t113 119t173.5 43t172.5 -43t111 -117.5t38.5 -169.5q0 -96 -39 -173t-113 -121t-174 -44q-99 0 -172 43.5zM497 109q52 32 80.5 88.5t28.5 128.5t-29 128t-81 87t-119 31q-66 0 -118.5 -31t-81.5 -87t-29 -128
q0 -71 29 -128t81 -89t120 -32q67 0 119 32z" />
    <glyph glyph-name="Oacute" unicode="&#xd3;" horiz-adv-x="754" 
d="M203 33.5q-73 43.5 -111.5 119.5t-38.5 171q0 96 39.5 172t113 119t173.5 43t172.5 -43t111 -117.5t38.5 -169.5q0 -96 -39 -173t-113 -121t-174 -44q-99 0 -172 43.5zM497 109q52 32 80.5 88.5t28.5 128.5t-29 128t-81 87t-119 31q-66 0 -118.5 -31t-81.5 -87t-29 -128
q0 -71 29 -128t81 -89t120 -32q67 0 119 32zM426 876h120l-148 -164h-89z" />
    <glyph glyph-name="Oacute.loclPLK" horiz-adv-x="754" 
d="M203 33.5q-73 43.5 -111.5 119.5t-38.5 171q0 96 39.5 172t113 119t173.5 43t172.5 -43t111 -117.5t38.5 -169.5q0 -96 -39 -173t-113 -121t-174 -44q-99 0 -172 43.5zM497 109q52 32 80.5 88.5t28.5 128.5t-29 128t-81 87t-119 31q-66 0 -118.5 -31t-81.5 -87t-29 -128
q0 -71 29 -128t81 -89t120 -32q67 0 119 32zM411 876h108l-101 -164h-84z" />
    <glyph glyph-name="Obreve" unicode="&#x14e;" horiz-adv-x="754" 
d="M203 33.5q-73 43.5 -111.5 119.5t-38.5 171q0 96 39.5 172t113 119t173.5 43t172.5 -43t111 -117.5t38.5 -169.5q0 -96 -39 -173t-113 -121t-174 -44q-99 0 -172 43.5zM497 109q52 32 80.5 88.5t28.5 128.5t-29 128t-81 87t-119 31q-66 0 -118.5 -31t-81.5 -87t-29 -128
q0 -71 29 -128t81 -89t120 -32q67 0 119 32zM249 746q-39 43 -39 119v11h72q0 -49 22.5 -73.5t73.5 -24.5t74 24.5t23 73.5h72v-11q0 -162 -169 -162q-90 0 -129 43z" />
    <glyph glyph-name="Ocircumflex" unicode="&#xd4;" horiz-adv-x="754" 
d="M203 33.5q-73 43.5 -111.5 119.5t-38.5 171q0 96 39.5 172t113 119t173.5 43t172.5 -43t111 -117.5t38.5 -169.5q0 -96 -39 -173t-113 -121t-174 -44q-99 0 -172 43.5zM497 109q52 32 80.5 88.5t28.5 128.5t-29 128t-81 87t-119 31q-66 0 -118.5 -31t-81.5 -87t-29 -128
q0 -71 29 -128t81 -89t120 -32q67 0 119 32zM378 885l171 -173h-98l-73 79l-73 -79h-97z" />
    <glyph glyph-name="Odieresis" unicode="&#xd6;" horiz-adv-x="754" 
d="M203 33.5q-73 43.5 -111.5 119.5t-38.5 171q0 96 39.5 172t113 119t173.5 43t172.5 -43t111 -117.5t38.5 -169.5q0 -96 -39 -173t-113 -121t-174 -44q-99 0 -172 43.5zM497 109q52 32 80.5 88.5t28.5 128.5t-29 128t-81 87t-119 31q-66 0 -118.5 -31t-81.5 -87t-29 -128
q0 -71 29 -128t81 -89t120 -32q67 0 119 32zM237 749.5q-17 17.5 -17 43.5t17 43.5t43 17.5t43 -17.5t17 -43.5t-17 -43.5t-43 -17.5t-43 17.5zM433 749.5q-17 17.5 -17 43.5t17 43.5t43 17.5t43 -17.5t17 -43.5t-17 -43.5t-43 -17.5t-43 17.5z" />
    <glyph glyph-name="Ograve" unicode="&#xd2;" horiz-adv-x="754" 
d="M203 33.5q-73 43.5 -111.5 119.5t-38.5 171q0 96 39.5 172t113 119t173.5 43t172.5 -43t111 -117.5t38.5 -169.5q0 -96 -39 -173t-113 -121t-174 -44q-99 0 -172 43.5zM497 109q52 32 80.5 88.5t28.5 128.5t-29 128t-81 87t-119 31q-66 0 -118.5 -31t-81.5 -87t-29 -128
q0 -71 29 -128t81 -89t120 -32q67 0 119 32zM247 876h119l117 -164h-89z" />
    <glyph glyph-name="Ohungarumlaut" unicode="&#x150;" horiz-adv-x="754" 
d="M203 33.5q-73 43.5 -111.5 119.5t-38.5 171q0 96 39.5 172t113 119t173.5 43t172.5 -43t111 -117.5t38.5 -169.5q0 -96 -39 -173t-113 -121t-174 -44q-99 0 -172 43.5zM497 109q52 32 80.5 88.5t28.5 128.5t-29 128t-81 87t-119 31q-66 0 -118.5 -31t-81.5 -87t-29 -128
q0 -71 29 -128t81 -89t120 -32q67 0 119 32zM334 876h119l-127 -164h-90zM530 876h119l-127 -164h-90z" />
    <glyph glyph-name="Omacron" unicode="&#x14c;" horiz-adv-x="754" 
d="M203 33.5q-73 43.5 -111.5 119.5t-38.5 171q0 96 39.5 172t113 119t173.5 43t172.5 -43t111 -117.5t38.5 -169.5q0 -96 -39 -173t-113 -121t-174 -44q-99 0 -172 43.5zM497 109q52 32 80.5 88.5t28.5 128.5t-29 128t-81 87t-119 31q-66 0 -118.5 -31t-81.5 -87t-29 -128
q0 -71 29 -128t81 -89t120 -32q67 0 119 32zM232 830h293v-73h-293v73z" />
    <glyph glyph-name="Oslash" unicode="&#xd8;" horiz-adv-x="754" 
d="M138 86q-42 45 -63.5 105.5t-21.5 132.5q0 96 39.5 172t113 119t173.5 43q86 0 156 -35l47 64h95l-79 -106q50 -44 76.5 -109.5t26.5 -143.5q0 -96 -39 -173t-113 -121t-174 -44t-177 48l-50 -68h-95zM480 548q-42 24 -103 24q-66 0 -118.5 -31t-81.5 -87t-29 -128
q0 -46 12.5 -87t36.5 -73zM497 109q52 32 80.5 88.5t28.5 128.5q0 54 -17 100t-47 77l-288 -389q23 -18 55 -27.5t69 -9.5q67 0 119 32z" />
    <glyph glyph-name="Oslashacute" unicode="&#x1fe;" horiz-adv-x="754" 
d="M138 86q-42 45 -63.5 105.5t-21.5 132.5q0 96 39.5 172t113 119t173.5 43q86 0 156 -35l47 64h95l-79 -106q50 -44 76.5 -109.5t26.5 -143.5q0 -96 -39 -173t-113 -121t-174 -44t-177 48l-50 -68h-95zM480 548q-42 24 -103 24q-66 0 -118.5 -31t-81.5 -87t-29 -128
q0 -46 12.5 -87t36.5 -73zM497 109q52 32 80.5 88.5t28.5 128.5q0 54 -17 100t-47 77l-288 -389q23 -18 55 -27.5t69 -9.5q67 0 119 32zM428 876h120l-148 -164h-89z" />
    <glyph glyph-name="Otilde" unicode="&#xd5;" horiz-adv-x="754" 
d="M203 33.5q-73 43.5 -111.5 119.5t-38.5 171q0 96 39.5 172t113 119t173.5 43t172.5 -43t111 -117.5t38.5 -169.5q0 -96 -39 -173t-113 -121t-174 -44q-99 0 -172 43.5zM497 109q52 32 80.5 88.5t28.5 128.5t-29 128t-81 87t-119 31q-66 0 -118.5 -31t-81.5 -87t-29 -128
q0 -71 29 -128t81 -89t120 -32q67 0 119 32zM409 741.5q-18 7.5 -44 22.5q-17 11 -30 16.5t-26 5.5q-24 0 -33.5 -16t-9.5 -31h-59q0 47 26 80t72 33q24 0 43 -7.5t47 -23.5q17 -11 29.5 -16.5t24.5 -5.5q21 0 31 15.5t10 32.5h59q0 -46 -25.5 -79.5t-72.5 -33.5
q-24 0 -42 7.5z" />
    <glyph glyph-name="OE" unicode="&#x152;" horiz-adv-x="1032" 
d="M203 33.5q-73 43.5 -111.5 119.5t-38.5 172t39.5 171.5t113 118.5t171.5 43q79 0 140 -32t97 -87v109h373v-80h-290v-198h212v-79h-212v-210h302v-81h-385v111q-32 -54 -96 -87.5t-143 -33.5q-99 0 -172 43.5zM496.5 110q51.5 32 79.5 88t28 128t-28.5 128t-80 87
t-118.5 31q-66 0 -118.5 -31t-81.5 -87t-29 -128q0 -71 29 -127.5t81 -88.5t120 -32q67 0 118.5 32z" />
    <glyph glyph-name="P" unicode="P" horiz-adv-x="582" 
d="M472 604q71 -44 71 -165q0 -90 -41.5 -136.5t-101 -61t-134.5 -14.5h-88v-227h-94v648h190q127 0 198 -44zM397 333.5q51 27.5 51 104.5q0 78 -50 104.5t-136 26.5h-84v-263h84q84 0 135 27.5z" />
    <glyph glyph-name="Thorn" unicode="&#xde;" horiz-adv-x="581" 
d="M472 490.5q71 -44.5 71 -165.5q0 -89 -41.5 -136t-101 -61t-134.5 -14h-88v-114h-94v648h94v-113h96q127 0 198 -44.5zM397 220q51 28 51 104q0 78 -50 105t-136 27h-84v-264h84q84 0 135 28z" />
    <glyph glyph-name="Q" unicode="Q" horiz-adv-x="754" 
d="M688 -30l-108 87q-83 -67 -205 -67q-99 0 -172 43.5t-111.5 119.5t-38.5 171q0 96 39.5 172t113 119t173.5 43t172.5 -43t111 -117.5t38.5 -169.5q0 -61 -16.5 -117t-48.5 -98l102 -81zM606 326q0 72 -29 128t-81 87t-119 31q-66 0 -118.5 -31t-81.5 -87t-29 -128
q0 -71 29 -128t81 -89t120 -32q74 0 131 37l-105 84l50 62l109 -89q43 66 43 155z" />
    <glyph glyph-name="R" unicode="R" horiz-adv-x="597" 
d="M567 0h-112l-150 238h-127v-238h-94v648h198q116 0 185 -45.5t69 -158.5q0 -80 -38 -127.5t-97 -64.5zM394.5 343q46.5 27 46.5 100t-48 99.5t-123 26.5h-92v-253h95q75 0 121.5 27z" />
    <glyph glyph-name="Racute" unicode="&#x154;" horiz-adv-x="597" 
d="M567 0h-112l-150 238h-127v-238h-94v648h198q116 0 185 -45.5t69 -158.5q0 -80 -38 -127.5t-97 -64.5zM394.5 343q46.5 27 46.5 100t-48 99.5t-123 26.5h-92v-253h95q75 0 121.5 27zM339 876h120l-148 -164h-89z" />
    <glyph glyph-name="Rcaron" unicode="&#x158;" horiz-adv-x="597" 
d="M567 0h-112l-150 238h-127v-238h-94v648h198q116 0 185 -45.5t69 -158.5q0 -80 -38 -127.5t-97 -64.5zM394.5 343q46.5 27 46.5 100t-48 99.5t-123 26.5h-92v-253h95q75 0 121.5 27zM121 876h97l73 -78l73 78h98l-171 -173z" />
    <glyph glyph-name="Rcommaaccent" unicode="&#x156;" horiz-adv-x="597" 
d="M567 0h-112l-150 238h-127v-238h-94v648h198q116 0 185 -45.5t69 -158.5q0 -80 -38 -127.5t-97 -64.5zM394.5 343q46.5 27 46.5 100t-48 99.5t-123 26.5h-92v-253h95q75 0 121.5 27zM349 -70.5q17 -16.5 17 -46.5q0 -26 -14 -49t-35 -41h-54q16 14 27.5 30t16.5 30
q-21 -2 -35.5 10.5t-14.5 33.5q0 23 14.5 36t36.5 13q24 0 41 -16.5z" />
    <glyph glyph-name="S" unicode="S" horiz-adv-x="495" 
d="M139 1q-44 11 -75 28v95q33 -22 77 -36.5t92 -14.5q57 0 88 24t31 72q0 31 -16 52.5t-40 35.5t-66 33q-52 23 -84 43t-54.5 55.5t-22.5 89.5q0 84 53.5 132t146.5 48q44 0 85.5 -10t65.5 -22v-96q-31 20 -70 33t-75 13q-51 0 -81 -24t-30 -68q0 -30 15.5 -50t38.5 -33
t65 -32q52 -22 85.5 -42.5t56.5 -57t23 -93.5q0 -91 -56 -138.5t-157 -47.5q-52 0 -96 11z" />
    <glyph glyph-name="Sacute" unicode="&#x15a;" horiz-adv-x="495" 
d="M139 1q-44 11 -75 28v95q33 -22 77 -36.5t92 -14.5q57 0 88 24t31 72q0 31 -16 52.5t-40 35.5t-66 33q-52 23 -84 43t-54.5 55.5t-22.5 89.5q0 84 53.5 132t146.5 48q44 0 85.5 -10t65.5 -22v-96q-31 20 -70 33t-75 13q-51 0 -81 -24t-30 -68q0 -30 15.5 -50t38.5 -33
t65 -32q52 -22 85.5 -42.5t56.5 -57t23 -93.5q0 -91 -56 -138.5t-157 -47.5q-52 0 -96 11zM316 876h120l-148 -164h-89z" />
    <glyph glyph-name="Sacute.loclPLK" horiz-adv-x="495" 
d="M139 1q-44 11 -75 28v95q33 -22 77 -36.5t92 -14.5q57 0 88 24t31 72q0 31 -16 52.5t-40 35.5t-66 33q-52 23 -84 43t-54.5 55.5t-22.5 89.5q0 84 53.5 132t146.5 48q44 0 85.5 -10t65.5 -22v-96q-31 20 -70 33t-75 13q-51 0 -81 -24t-30 -68q0 -30 15.5 -50t38.5 -33
t65 -32q52 -22 85.5 -42.5t56.5 -57t23 -93.5q0 -91 -56 -138.5t-157 -47.5q-52 0 -96 11zM301 876h108l-101 -164h-84z" />
    <glyph glyph-name="Scaron" unicode="&#x160;" horiz-adv-x="495" 
d="M139 1q-44 11 -75 28v95q33 -22 77 -36.5t92 -14.5q57 0 88 24t31 72q0 31 -16 52.5t-40 35.5t-66 33q-52 23 -84 43t-54.5 55.5t-22.5 89.5q0 84 53.5 132t146.5 48q44 0 85.5 -10t65.5 -22v-96q-31 20 -70 33t-75 13q-51 0 -81 -24t-30 -68q0 -30 15.5 -50t38.5 -33
t65 -32q52 -22 85.5 -42.5t56.5 -57t23 -93.5q0 -91 -56 -138.5t-157 -47.5q-52 0 -96 11zM98 876h97l73 -78l73 78h98l-171 -173z" />
    <glyph glyph-name="Scedilla" unicode="&#x15e;" horiz-adv-x="495" 
d="M139 1q-44 11 -75 28v95q33 -22 77 -36.5t92 -14.5q57 0 88 24t31 72q0 31 -16 52.5t-40 35.5t-66 33q-52 23 -84 43t-54.5 55.5t-22.5 89.5q0 84 53.5 132t146.5 48q44 0 85.5 -10t65.5 -22v-96q-31 20 -70 33t-75 13q-51 0 -81 -24t-30 -68q0 -30 15.5 -50t38.5 -33
t65 -32q52 -22 85.5 -42.5t56.5 -57t23 -93.5q0 -91 -56 -138.5t-157 -47.5q-52 0 -96 11zM148 -195v51q10 -5 26 -9.5t32 -4.5q50 0 50 39q0 20 -11 29.5t-30 9.5q-15 0 -24 -4.5t-18 -12.5l-10 6l32 110h56l-19 -62q6 3 15 3q34 -1 54.5 -20t20.5 -60q0 -46 -30.5 -66.5
t-77.5 -20.5q-44 0 -66 12z" />
    <glyph glyph-name="Scircumflex" unicode="&#x15c;" horiz-adv-x="495" 
d="M139 1q-44 11 -75 28v95q33 -22 77 -36.5t92 -14.5q57 0 88 24t31 72q0 31 -16 52.5t-40 35.5t-66 33q-52 23 -84 43t-54.5 55.5t-22.5 89.5q0 84 53.5 132t146.5 48q44 0 85.5 -10t65.5 -22v-96q-31 20 -70 33t-75 13q-51 0 -81 -24t-30 -68q0 -30 15.5 -50t38.5 -33
t65 -32q52 -22 85.5 -42.5t56.5 -57t23 -93.5q0 -91 -56 -138.5t-157 -47.5q-52 0 -96 11zM268 885l171 -173h-98l-73 79l-73 -79h-97z" />
    <glyph glyph-name="Scommaaccent" unicode="&#x218;" horiz-adv-x="495" 
d="M139 1q-44 11 -75 28v95q33 -22 77 -36.5t92 -14.5q57 0 88 24t31 72q0 31 -16 52.5t-40 35.5t-66 33q-52 23 -84 43t-54.5 55.5t-22.5 89.5q0 84 53.5 132t146.5 48q44 0 85.5 -10t65.5 -22v-96q-31 20 -70 33t-75 13q-51 0 -81 -24t-30 -68q0 -30 15.5 -50t38.5 -33
t65 -32q52 -22 85.5 -42.5t56.5 -57t23 -93.5q0 -91 -56 -138.5t-157 -47.5q-52 0 -96 11zM271 -70.5q17 -16.5 17 -46.5q0 -26 -14 -49t-35 -41h-54q16 14 27.5 30t16.5 30q-21 -2 -35.5 10.5t-14.5 33.5q0 23 14.5 36t36.5 13q24 0 41 -16.5z" />
    <glyph glyph-name="uni1E9E" unicode="&#x1e9e;" horiz-adv-x="656" 
d="M522 372q40 -22 64 -65.5t24 -105.5q0 -106 -61 -158.5t-168 -52.5q-62 0 -118 17v84q51 -20 113 -20q139 0 139 128q0 56 -33.5 91t-97.5 35q-55 0 -88 -22l-7 8l159 259h-270v-570h-94v648h497v-10l-146 -242q47 -2 87 -24z" />
    <glyph glyph-name="T" unicode="T" horiz-adv-x="552" 
d="M229 568h-189v80h472v-80h-189v-568h-94v568z" />
    <glyph glyph-name="Tbar" unicode="&#x166;" horiz-adv-x="552" 
d="M323 568v-233h106v-74h-106v-261h-94v261h-107v74h107v233h-189v80h472v-80h-189z" />
    <glyph glyph-name="Tcaron" unicode="&#x164;" horiz-adv-x="552" 
d="M229 568h-189v80h472v-80h-189v-568h-94v568zM105 876h97l73 -78l73 78h98l-171 -173z" />
    <glyph glyph-name="uni0162" unicode="&#x162;" horiz-adv-x="552" 
d="M229 568h-189v80h472v-80h-189v-568h-94v568zM313 -70.5q17 -16.5 17 -46.5q0 -26 -14 -49t-35 -41h-54q16 14 27.5 30t16.5 30q-21 -2 -35.5 10.5t-14.5 33.5q0 23 14.5 36t36.5 13q24 0 41 -16.5z" />
    <glyph glyph-name="uni021A" unicode="&#x21a;" horiz-adv-x="552" 
d="M229 568h-189v80h472v-80h-189v-568h-94v568zM313 -70.5q17 -16.5 17 -46.5q0 -26 -14 -49t-35 -41h-54q16 14 27.5 30t16.5 30q-21 -2 -35.5 10.5t-14.5 33.5q0 23 14.5 36t36.5 13q24 0 41 -16.5z" />
    <glyph glyph-name="U" unicode="U" horiz-adv-x="656" 
d="M138 56q-62 66 -62 205v387h93v-367q0 -105 36 -155.5t123 -50.5q86 0 122.5 50.5t36.5 155.5v367h93v-386q0 -142 -63 -207t-189 -65q-128 0 -190 66z" />
    <glyph glyph-name="Uacute" unicode="&#xda;" horiz-adv-x="656" 
d="M138 56q-62 66 -62 205v387h93v-367q0 -105 36 -155.5t123 -50.5q86 0 122.5 50.5t36.5 155.5v367h93v-386q0 -142 -63 -207t-189 -65q-128 0 -190 66zM375 876h120l-148 -164h-89z" />
    <glyph glyph-name="Ubreve" unicode="&#x16c;" horiz-adv-x="656" 
d="M138 56q-62 66 -62 205v387h93v-367q0 -105 36 -155.5t123 -50.5q86 0 122.5 50.5t36.5 155.5v367h93v-386q0 -142 -63 -207t-189 -65q-128 0 -190 66zM198 746q-39 43 -39 119v11h72q0 -49 22.5 -73.5t73.5 -24.5t74 24.5t23 73.5h72v-11q0 -162 -169 -162
q-90 0 -129 43z" />
    <glyph glyph-name="Ucircumflex" unicode="&#xdb;" horiz-adv-x="656" 
d="M138 56q-62 66 -62 205v387h93v-367q0 -105 36 -155.5t123 -50.5q86 0 122.5 50.5t36.5 155.5v367h93v-386q0 -142 -63 -207t-189 -65q-128 0 -190 66zM327 885l171 -173h-98l-73 79l-73 -79h-97z" />
    <glyph glyph-name="Udieresis" unicode="&#xdc;" horiz-adv-x="656" 
d="M138 56q-62 66 -62 205v387h93v-367q0 -105 36 -155.5t123 -50.5q86 0 122.5 50.5t36.5 155.5v367h93v-386q0 -142 -63 -207t-189 -65q-128 0 -190 66zM186 749.5q-17 17.5 -17 43.5t17 43.5t43 17.5t43 -17.5t17 -43.5t-17 -43.5t-43 -17.5t-43 17.5zM382 749.5
q-17 17.5 -17 43.5t17 43.5t43 17.5t43 -17.5t17 -43.5t-17 -43.5t-43 -17.5t-43 17.5z" />
    <glyph glyph-name="Ugrave" unicode="&#xd9;" horiz-adv-x="656" 
d="M138 56q-62 66 -62 205v387h93v-367q0 -105 36 -155.5t123 -50.5q86 0 122.5 50.5t36.5 155.5v367h93v-386q0 -142 -63 -207t-189 -65q-128 0 -190 66zM196 876h119l117 -164h-89z" />
    <glyph glyph-name="Uhungarumlaut" unicode="&#x170;" horiz-adv-x="656" 
d="M138 56q-62 66 -62 205v387h93v-367q0 -105 36 -155.5t123 -50.5q86 0 122.5 50.5t36.5 155.5v367h93v-386q0 -142 -63 -207t-189 -65q-128 0 -190 66zM263 876h119l-127 -164h-90zM459 876h119l-127 -164h-90z" />
    <glyph glyph-name="Umacron" unicode="&#x16a;" horiz-adv-x="656" 
d="M138 56q-62 66 -62 205v387h93v-367q0 -105 36 -155.5t123 -50.5q86 0 122.5 50.5t36.5 155.5v367h93v-386q0 -142 -63 -207t-189 -65q-128 0 -190 66zM181 830h293v-73h-293v73z" />
    <glyph glyph-name="Uogonek" unicode="&#x172;" horiz-adv-x="656" 
d="M321.5 -184q-29.5 23 -29.5 70q0 34 17 62.5t46 43.5q-12 -2 -27 -2q-128 0 -190 66t-62 205v387h93v-367q0 -105 36 -155.5t123 -50.5q86 0 122.5 50.5t36.5 155.5v367h93v-388q0 -85 -21.5 -137.5t-51 -78.5t-74.5 -53q-40 -23 -58 -41.5t-18 -50.5q0 -51 53 -51
q32 0 50 13v-56q-10 -5 -27 -8.5t-35 -3.5q-47 0 -76.5 23z" />
    <glyph glyph-name="Uring" unicode="&#x16e;" horiz-adv-x="656" 
d="M138 56q-62 66 -62 205v387h93v-367q0 -105 36 -155.5t123 -50.5q86 0 122.5 50.5t36.5 155.5v367h93v-386q0 -142 -63 -207t-189 -65q-128 0 -190 66zM252.5 719.5q-30.5 29.5 -30.5 73.5q0 43 30.5 73t75.5 30t75.5 -30t30.5 -73q0 -44 -30.5 -73.5t-75.5 -29.5
t-75.5 29.5zM365.5 754q14.5 15 14.5 39q0 23 -15 38.5t-37 15.5t-37 -15t-15 -39t15 -39t37 -15q23 0 37.5 15z" />
    <glyph glyph-name="Utilde" unicode="&#x168;" horiz-adv-x="656" 
d="M138 56q-62 66 -62 205v387h93v-367q0 -105 36 -155.5t123 -50.5q86 0 122.5 50.5t36.5 155.5v367h93v-386q0 -142 -63 -207t-189 -65q-128 0 -190 66zM358 741.5q-18 7.5 -44 22.5q-17 11 -30 16.5t-26 5.5q-24 0 -33.5 -16t-9.5 -31h-59q0 47 26 80t72 33q24 0 43 -7.5
t47 -23.5q17 -11 29.5 -16.5t24.5 -5.5q21 0 31 15.5t10 32.5h59q0 -46 -25.5 -79.5t-72.5 -33.5q-24 0 -42 7.5z" />
    <glyph glyph-name="V" unicode="V" horiz-adv-x="660" 
d="M23 648h103l205 -465l205 465h101l-302 -657h-10z" />
    <glyph glyph-name="W" unicode="W" horiz-adv-x="961" 
d="M31 648h103l165 -443l177 443h10l177 -443l167 443h100l-258 -657h-10l-181 451l-181 -451h-10z" />
    <glyph glyph-name="Wacute" unicode="&#x1e82;" horiz-adv-x="961" 
d="M31 648h103l165 -443l177 443h10l177 -443l167 443h100l-258 -657h-10l-181 451l-181 -451h-10zM563 876h120l-148 -164h-89z" />
    <glyph glyph-name="Wcircumflex" unicode="&#x174;" horiz-adv-x="961" 
d="M31 648h103l165 -443l177 443h10l177 -443l167 443h100l-258 -657h-10l-181 451l-181 -451h-10zM480 885l171 -173h-98l-73 79l-73 -79h-97z" />
    <glyph glyph-name="Wdieresis" unicode="&#x1e84;" horiz-adv-x="961" 
d="M31 648h103l165 -443l177 443h10l177 -443l167 443h100l-258 -657h-10l-181 451l-181 -451h-10zM339 749.5q-17 17.5 -17 43.5t17 43.5t43 17.5t43 -17.5t17 -43.5t-17 -43.5t-43 -17.5t-43 17.5zM535 749.5q-17 17.5 -17 43.5t17 43.5t43 17.5t43 -17.5t17 -43.5
t-17 -43.5t-43 -17.5t-43 17.5z" />
    <glyph glyph-name="Wgrave" unicode="&#x1e80;" horiz-adv-x="961" 
d="M31 648h103l165 -443l177 443h10l177 -443l167 443h100l-258 -657h-10l-181 451l-181 -451h-10zM314 876h119l117 -164h-89z" />
    <glyph glyph-name="X" unicode="X" horiz-adv-x="608" 
d="M246 331l-215 317h111l162 -250l165 250h108l-216 -317l224 -331h-111l-170 263l-174 -263h-107z" />
    <glyph glyph-name="Y" unicode="Y" horiz-adv-x="602" 
d="M253 257l-230 391h103l176 -309l177 309h100l-232 -391v-257h-94v257z" />
    <glyph glyph-name="Yacute" unicode="&#xdd;" horiz-adv-x="602" 
d="M253 257l-230 391h103l176 -309l177 309h100l-232 -391v-257h-94v257zM347 876h120l-148 -164h-89z" />
    <glyph glyph-name="Ycircumflex" unicode="&#x176;" horiz-adv-x="602" 
d="M253 257l-230 391h103l176 -309l177 309h100l-232 -391v-257h-94v257zM299 885l171 -173h-98l-73 79l-73 -79h-97z" />
    <glyph glyph-name="Ydieresis" unicode="&#x178;" horiz-adv-x="602" 
d="M253 257l-230 391h103l176 -309l177 309h100l-232 -391v-257h-94v257zM158 749.5q-17 17.5 -17 43.5t17 43.5t43 17.5t43 -17.5t17 -43.5t-17 -43.5t-43 -17.5t-43 17.5zM354 749.5q-17 17.5 -17 43.5t17 43.5t43 17.5t43 -17.5t17 -43.5t-17 -43.5t-43 -17.5t-43 17.5z
" />
    <glyph glyph-name="Ygrave" unicode="&#x1ef2;" horiz-adv-x="602" 
d="M253 257l-230 391h103l176 -309l177 309h100l-232 -391v-257h-94v257zM168 876h119l117 -164h-89z" />
    <glyph glyph-name="Z" unicode="Z" horiz-adv-x="592" 
d="M47 10l350 558h-332v80h480v-10l-349 -557h351v-81h-500v10z" />
    <glyph glyph-name="Zacute" unicode="&#x179;" horiz-adv-x="592" 
d="M47 10l350 558h-332v80h480v-10l-349 -557h351v-81h-500v10zM343 876h120l-148 -164h-89z" />
    <glyph glyph-name="Zacute.loclPLK" horiz-adv-x="592" 
d="M47 10l350 558h-332v80h480v-10l-349 -557h351v-81h-500v10zM328 876h108l-101 -164h-84z" />
    <glyph glyph-name="Zcaron" unicode="&#x17d;" horiz-adv-x="592" 
d="M47 10l350 558h-332v80h480v-10l-349 -557h351v-81h-500v10zM125 876h97l73 -78l73 78h98l-171 -173z" />
    <glyph glyph-name="Zdotaccent" unicode="&#x17b;" horiz-adv-x="592" 
d="M47 10l350 558h-332v80h480v-10l-349 -557h351v-81h-500v10zM252.5 750q-16.5 17 -16.5 44q0 26 17.5 43t42.5 17q26 0 42.5 -17t16.5 -44t-17 -43.5t-42 -16.5q-27 0 -43.5 17z" />
    <glyph glyph-name="a" unicode="a" horiz-adv-x="496" 
d="M387 411q45 -47 45 -140v-271h-82l-1 53q-42 -62 -142 -62q-77 0 -122 39.5t-45 104.5q0 71 50 110.5t139 39.5q61 0 113 -24v12q0 111 -114 111q-41 0 -78.5 -13t-62.5 -28v80q70 35 157 35q98 0 143 -47zM312.5 88.5q29.5 32.5 29.5 92.5v15q-18 11 -46 18t-60 7
q-48 0 -75 -21.5t-27 -60.5t25.5 -61t68.5 -22q55 0 84.5 32.5z" />
    <glyph glyph-name="aacute" unicode="&#xe1;" horiz-adv-x="496" 
d="M387 411q45 -47 45 -140v-271h-82l-1 53q-42 -62 -142 -62q-77 0 -122 39.5t-45 104.5q0 71 50 110.5t139 39.5q61 0 113 -24v12q0 111 -114 111q-41 0 -78.5 -13t-62.5 -28v80q70 35 157 35q98 0 143 -47zM312.5 88.5q29.5 32.5 29.5 92.5v15q-18 11 -46 18t-60 7
q-48 0 -75 -21.5t-27 -60.5t25.5 -61t68.5 -22q55 0 84.5 32.5zM280 684h120l-148 -164h-89z" />
    <glyph glyph-name="abreve" unicode="&#x103;" horiz-adv-x="496" 
d="M387 411q45 -47 45 -140v-271h-82l-1 53q-42 -62 -142 -62q-77 0 -122 39.5t-45 104.5q0 71 50 110.5t139 39.5q61 0 113 -24v12q0 111 -114 111q-41 0 -78.5 -13t-62.5 -28v80q70 35 157 35q98 0 143 -47zM312.5 88.5q29.5 32.5 29.5 92.5v15q-18 11 -46 18t-60 7
q-48 0 -75 -21.5t-27 -60.5t25.5 -61t68.5 -22q55 0 84.5 32.5zM76 673v11h70q0 -50 23 -75.5t74 -25.5t74 25.5t23 75.5h71v-11q0 -74 -39.5 -118t-128.5 -44q-167 0 -167 162z" />
    <glyph glyph-name="uni01CE" unicode="&#x1ce;" horiz-adv-x="496" 
d="M387 411q45 -47 45 -140v-271h-82l-1 53q-42 -62 -142 -62q-77 0 -122 39.5t-45 104.5q0 71 50 110.5t139 39.5q61 0 113 -24v12q0 111 -114 111q-41 0 -78.5 -13t-62.5 -28v80q70 35 157 35q98 0 143 -47zM312.5 88.5q29.5 32.5 29.5 92.5v15q-18 11 -46 18t-60 7
q-48 0 -75 -21.5t-27 -60.5t25.5 -61t68.5 -22q55 0 84.5 32.5zM73 684h97l73 -79l73 79h98l-171 -173z" />
    <glyph glyph-name="acircumflex" unicode="&#xe2;" horiz-adv-x="496" 
d="M387 411q45 -47 45 -140v-271h-82l-1 53q-42 -62 -142 -62q-77 0 -122 39.5t-45 104.5q0 71 50 110.5t139 39.5q61 0 113 -24v12q0 111 -114 111q-41 0 -78.5 -13t-62.5 -28v80q70 35 157 35q98 0 143 -47zM312.5 88.5q29.5 32.5 29.5 92.5v15q-18 11 -46 18t-60 7
q-48 0 -75 -21.5t-27 -60.5t25.5 -61t68.5 -22q55 0 84.5 32.5zM243 693l171 -173h-98l-73 78l-73 -78h-97z" />
    <glyph glyph-name="adieresis" unicode="&#xe4;" horiz-adv-x="496" 
d="M387 411q45 -47 45 -140v-271h-82l-1 53q-42 -62 -142 -62q-77 0 -122 39.5t-45 104.5q0 71 50 110.5t139 39.5q61 0 113 -24v12q0 111 -114 111q-41 0 -78.5 -13t-62.5 -28v80q70 35 157 35q98 0 143 -47zM312.5 88.5q29.5 32.5 29.5 92.5v15q-18 11 -46 18t-60 7
q-48 0 -75 -21.5t-27 -60.5t25.5 -61t68.5 -22q55 0 84.5 32.5zM106.5 570q-15.5 15 -15.5 39t16 39t39 15t38.5 -15t15.5 -39t-15.5 -39t-38.5 -15q-24 0 -39.5 15zM302 570q-15 15 -15 39t15.5 39t38.5 15t38.5 -15t15.5 -39t-15.5 -39t-38.5 -15q-24 0 -39 15z" />
    <glyph glyph-name="agrave" unicode="&#xe0;" horiz-adv-x="496" 
d="M387 411q45 -47 45 -140v-271h-82l-1 53q-42 -62 -142 -62q-77 0 -122 39.5t-45 104.5q0 71 50 110.5t139 39.5q61 0 113 -24v12q0 111 -114 111q-41 0 -78.5 -13t-62.5 -28v80q70 35 157 35q98 0 143 -47zM312.5 88.5q29.5 32.5 29.5 92.5v15q-18 11 -46 18t-60 7
q-48 0 -75 -21.5t-27 -60.5t25.5 -61t68.5 -22q55 0 84.5 32.5zM95 684h120l117 -164h-89z" />
    <glyph glyph-name="amacron" unicode="&#x101;" horiz-adv-x="496" 
d="M387 411q45 -47 45 -140v-271h-82l-1 53q-42 -62 -142 -62q-77 0 -122 39.5t-45 104.5q0 71 50 110.5t139 39.5q61 0 113 -24v12q0 111 -114 111q-41 0 -78.5 -13t-62.5 -28v80q70 35 157 35q98 0 143 -47zM312.5 88.5q29.5 32.5 29.5 92.5v15q-18 11 -46 18t-60 7
q-48 0 -75 -21.5t-27 -60.5t25.5 -61t68.5 -22q55 0 84.5 32.5zM97 641h293v-74h-293v74z" />
    <glyph glyph-name="aogonek" unicode="&#x105;" horiz-adv-x="496" 
d="M351.5 -40.5q-27.5 -25.5 -27.5 -59.5q0 -25 13.5 -38.5t39.5 -13.5q29 0 50 13v-56q-10 -5 -27 -8.5t-36 -3.5q-47 0 -76.5 23t-29.5 70q0 42 25.5 74.5t66.5 46.5l-1 46q-42 -62 -142 -62q-77 0 -122 39.5t-45 104.5q0 71 50 110.5t139 39.5q61 0 113 -24v12
q0 111 -114 111q-41 0 -78.5 -13t-62.5 -28v80q70 35 157 35q98 0 143 -47t45 -140v-271q-53 -15 -80.5 -40.5zM312.5 88.5q29.5 32.5 29.5 92.5v15q-18 11 -46 18t-60 7q-48 0 -75 -21.5t-27 -60.5t25.5 -61t68.5 -22q55 0 84.5 32.5z" />
    <glyph glyph-name="aring" unicode="&#xe5;" horiz-adv-x="496" 
d="M387 411q45 -47 45 -140v-271h-82l-1 53q-42 -62 -142 -62q-77 0 -122 39.5t-45 104.5q0 71 50 110.5t139 39.5q61 0 113 -24v12q0 111 -114 111q-41 0 -78.5 -13t-62.5 -28v80q70 35 157 35q98 0 143 -47zM312.5 88.5q29.5 32.5 29.5 92.5v15q-18 11 -46 18t-60 7
q-48 0 -75 -21.5t-27 -60.5t25.5 -61t68.5 -22q55 0 84.5 32.5zM168.5 539.5q-30.5 29.5 -30.5 73.5q0 43 30.5 73t75.5 30t75.5 -30t30.5 -73q0 -44 -30.5 -73.5t-75.5 -29.5t-75.5 29.5zM281.5 574q14.5 15 14.5 39q0 23 -15 38.5t-37 15.5t-37 -15t-15 -39t15 -39t37 -15
q23 0 37.5 15z" />
    <glyph glyph-name="atilde" unicode="&#xe3;" horiz-adv-x="496" 
d="M387 411q45 -47 45 -140v-271h-82l-1 53q-42 -62 -142 -62q-77 0 -122 39.5t-45 104.5q0 71 50 110.5t139 39.5q61 0 113 -24v12q0 111 -114 111q-41 0 -78.5 -13t-62.5 -28v80q70 35 157 35q98 0 143 -47zM312.5 88.5q29.5 32.5 29.5 92.5v15q-18 11 -46 18t-60 7
q-48 0 -75 -21.5t-27 -60.5t25.5 -61t68.5 -22q55 0 84.5 32.5zM274 549.5q-18 7.5 -44 22.5q-17 11 -30 16.5t-26 5.5q-24 0 -33.5 -16t-9.5 -31h-59q0 47 26 79.5t72 32.5q25 0 45 -8t45 -23q19 -11 30.5 -16t23.5 -5q21 0 31 15t10 32h59q0 -45 -25.5 -78.5t-72.5 -33.5
q-24 0 -42 7.5z" />
    <glyph glyph-name="ae" unicode="&#xe6;" horiz-adv-x="809" 
d="M766 192h-336q12 -124 163 -124q90 0 157 40v-80q-26 -14 -71 -25.5t-100 -11.5q-69 0 -121 22t-75 64q-17 -36 -57.5 -61t-109.5 -25q-83 0 -129.5 39t-46.5 105q0 71 50 110.5t141 39.5q61 0 111 -24v12q0 111 -112 111q-42 0 -80 -13t-63 -28v80q70 35 158 35
q58 0 94.5 -21.5t53.5 -55.5q25 36 67.5 56.5t97.5 20.5q102 0 156.5 -61t54.5 -160q0 -25 -3 -45zM645 349q-33 34 -87 34q-53 0 -88 -34.5t-39 -91.5h246q1 58 -32 92zM312.5 88.5q29.5 32.5 29.5 92.5v15q-18 11 -46 18t-60 7q-48 0 -75 -21.5t-27 -60.5t25.5 -61
t68.5 -22q55 0 84.5 32.5z" />
    <glyph glyph-name="aeacute" unicode="&#x1fd;" horiz-adv-x="809" 
d="M766 192h-336q12 -124 163 -124q90 0 157 40v-80q-26 -14 -71 -25.5t-100 -11.5q-69 0 -121 22t-75 64q-17 -36 -57.5 -61t-109.5 -25q-83 0 -129.5 39t-46.5 105q0 71 50 110.5t141 39.5q61 0 111 -24v12q0 111 -112 111q-42 0 -80 -13t-63 -28v80q70 35 158 35
q58 0 94.5 -21.5t53.5 -55.5q25 36 67.5 56.5t97.5 20.5q102 0 156.5 -61t54.5 -160q0 -25 -3 -45zM645 349q-33 34 -87 34q-53 0 -88 -34.5t-39 -91.5h246q1 58 -32 92zM312.5 88.5q29.5 32.5 29.5 92.5v15q-18 11 -46 18t-60 7q-48 0 -75 -21.5t-27 -60.5t25.5 -61
t68.5 -22q55 0 84.5 32.5zM467 684h120l-148 -164h-89z" />
    <glyph glyph-name="b" unicode="b" horiz-adv-x="580" 
d="M219.5 13q-42.5 22 -64.5 56l-2 -69h-82v663h90v-279q24 36 64 55t93 19q67 0 117 -28.5t77.5 -81t27.5 -121.5q0 -71 -28 -124.5t-78.5 -82.5t-115.5 -29q-56 0 -98.5 22zM407 112q40 43 40 114t-40.5 113t-104.5 42q-68 0 -106.5 -45t-38.5 -113q0 -69 40 -111.5
t105 -42.5t105 43z" />
    <glyph glyph-name="c" unicode="c" horiz-adv-x="444" 
d="M155.5 16.5q-53.5 25.5 -84.5 77.5t-31 126q0 71 29 125t82.5 83.5t125.5 29.5q37 0 67.5 -7t50.5 -17v-85q-53 32 -111 32q-67 0 -108.5 -42t-41.5 -115t40 -114t110 -41q38 0 68 11t47 24v-86q-18 -11 -52 -19t-72 -8q-66 0 -119.5 25.5z" />
    <glyph glyph-name="cacute" unicode="&#x107;" horiz-adv-x="444" 
d="M155.5 16.5q-53.5 25.5 -84.5 77.5t-31 126q0 71 29 125t82.5 83.5t125.5 29.5q37 0 67.5 -7t50.5 -17v-85q-53 32 -111 32q-67 0 -108.5 -42t-41.5 -115t40 -114t110 -41q38 0 68 11t47 24v-86q-18 -11 -52 -19t-72 -8q-66 0 -119.5 25.5zM313 684h120l-148 -164h-89z
" />
    <glyph glyph-name="cacute.loclPLK" horiz-adv-x="444" 
d="M155.5 16.5q-53.5 25.5 -84.5 77.5t-31 126q0 71 29 125t82.5 83.5t125.5 29.5q37 0 67.5 -7t50.5 -17v-85q-53 32 -111 32q-67 0 -108.5 -42t-41.5 -115t40 -114t110 -41q38 0 68 11t47 24v-86q-18 -11 -52 -19t-72 -8q-66 0 -119.5 25.5zM294 684h108l-101 -164h-85z
" />
    <glyph glyph-name="ccaron" unicode="&#x10d;" horiz-adv-x="444" 
d="M155.5 16.5q-53.5 25.5 -84.5 77.5t-31 126q0 71 29 125t82.5 83.5t125.5 29.5q37 0 67.5 -7t50.5 -17v-85q-53 32 -111 32q-67 0 -108.5 -42t-41.5 -115t40 -114t110 -41q38 0 68 11t47 24v-86q-18 -11 -52 -19t-72 -8q-66 0 -119.5 25.5zM106 684h97l73 -79l73 79h98
l-171 -173z" />
    <glyph glyph-name="ccedilla" unicode="&#xe7;" horiz-adv-x="444" 
d="M155.5 16.5q-53.5 25.5 -84.5 77.5t-31 126q0 71 29 125t82.5 83.5t125.5 29.5q37 0 67.5 -7t50.5 -17v-85q-53 32 -111 32q-67 0 -108.5 -42t-41.5 -115t40 -114t110 -41q38 0 68 11t47 24v-86q-18 -11 -52 -19t-72 -8q-66 0 -119.5 25.5zM180 -195v51q10 -5 26 -9.5
t32 -4.5q50 0 50 39q0 20 -11 29.5t-30 9.5q-15 0 -24 -4.5t-18 -12.5l-10 6l32 110h56l-19 -62q6 3 15 3q34 -1 54.5 -20t20.5 -60q0 -46 -30.5 -66.5t-77.5 -20.5q-44 0 -66 12z" />
    <glyph glyph-name="ccircumflex" unicode="&#x109;" horiz-adv-x="444" 
d="M155.5 16.5q-53.5 25.5 -84.5 77.5t-31 126q0 71 29 125t82.5 83.5t125.5 29.5q37 0 67.5 -7t50.5 -17v-85q-53 32 -111 32q-67 0 -108.5 -42t-41.5 -115t40 -114t110 -41q38 0 68 11t47 24v-86q-18 -11 -52 -19t-72 -8q-66 0 -119.5 25.5zM276 693l171 -173h-98l-73 78
l-73 -78h-97z" />
    <glyph glyph-name="cdotaccent" unicode="&#x10b;" horiz-adv-x="444" 
d="M155.5 16.5q-53.5 25.5 -84.5 77.5t-31 126q0 71 29 125t82.5 83.5t125.5 29.5q37 0 67.5 -7t50.5 -17v-85q-53 32 -111 32q-67 0 -108.5 -42t-41.5 -115t40 -114t110 -41q38 0 68 11t47 24v-86q-18 -11 -52 -19t-72 -8q-66 0 -119.5 25.5zM237.5 570q-15.5 15 -15.5 39
t16 39t39 15t38.5 -15t15.5 -39t-16 -39t-38 -15q-24 0 -39.5 15z" />
    <glyph glyph-name="d" unicode="d" horiz-adv-x="581" 
d="M148.5 19q-50.5 28 -79.5 80.5t-29 123.5q0 68 26.5 121t76 83.5t117.5 30.5q54 0 94.5 -18.5t65.5 -52.5v276h90v-663h-83l-1 70q-20 -35 -62 -57t-100 -22q-65 0 -115.5 28zM385.5 113q38.5 44 38.5 113t-39 112t-105 43q-69 0 -107.5 -46t-38.5 -111
q0 -68 39.5 -111.5t106.5 -43.5t105.5 44z" />
    <glyph glyph-name="eth" unicode="&#xf0;" horiz-adv-x="558" 
d="M152 20.5q-54 29.5 -83 82t-29 120.5t27.5 121t79 83.5t120.5 30.5q50 0 89.5 -18.5t58.5 -51.5q-12 42 -41.5 83t-65.5 69l-75 -45l-32 50l52 31q-44 22 -111 30v71q49 -6 96.5 -23t82.5 -38l81 47l32 -50l-61 -35q73 -61 109 -140.5t36 -183.5q0 -124 -65 -193.5
t-175 -69.5q-72 0 -126 29.5zM384 112.5q40 43.5 40 114.5q0 69 -40 111t-105 42q-67 0 -106 -44.5t-39 -111.5q0 -69 40.5 -112t104.5 -43q65 0 105 43.5z" />
    <glyph glyph-name="dcaron" unicode="&#x10f;" horiz-adv-x="698" 
d="M148.5 19q-50.5 28 -79.5 80.5t-29 123.5q0 68 26.5 121t76 83.5t117.5 30.5q54 0 94.5 -18.5t65.5 -52.5v276h90v-663h-83l-1 70q-20 -35 -62 -57t-100 -22q-65 0 -115.5 28zM385.5 113q38.5 44 38.5 113t-39 112t-105 43q-69 0 -107.5 -46t-38.5 -111
q0 -68 39.5 -111.5t106.5 -43.5t105.5 44zM674 651.5q17 -16.5 17 -46.5q0 -27 -17 -54t-44 -45h-50q43 40 51 69q-21 -1 -34.5 11.5t-13.5 33.5q0 22 14 35t36 13q24 0 41 -16.5z" />
    <glyph glyph-name="dcroat" unicode="&#x111;" horiz-adv-x="561" 
d="M587 514h-77v-514h-83l-1 70q-20 -35 -62 -57t-100 -22q-65 0 -115.5 28t-79.5 80.5t-29 123.5q0 68 26.5 121t76 83.5t117.5 30.5q54 0 94.5 -18.5t65.5 -52.5v127h-124v70h124v79h90v-79h77v-70zM385.5 113q38.5 44 38.5 113t-39 112t-105 43q-69 0 -107.5 -46
t-38.5 -111q0 -68 39.5 -111.5t106.5 -43.5t105.5 44z" />
    <glyph glyph-name="e" unicode="e" horiz-adv-x="513" 
d="M103.5 50.5q-63.5 59.5 -63.5 169.5q0 107 58.5 172.5t162.5 65.5q103 0 157.5 -60.5t54.5 -160.5q0 -25 -3 -45h-336q5 -63 47 -93.5t116 -30.5q89 0 156 40v-80q-26 -14 -71 -25.5t-100 -11.5q-115 0 -178.5 59.5zM381 257q1 58 -32.5 92t-87.5 34q-53 0 -87.5 -34.5
t-38.5 -91.5h246z" />
    <glyph glyph-name="eacute" unicode="&#xe9;" horiz-adv-x="513" 
d="M103.5 50.5q-63.5 59.5 -63.5 169.5q0 107 58.5 172.5t162.5 65.5q103 0 157.5 -60.5t54.5 -160.5q0 -25 -3 -45h-336q5 -63 47 -93.5t116 -30.5q89 0 156 40v-80q-26 -14 -71 -25.5t-100 -11.5q-115 0 -178.5 59.5zM381 257q1 58 -32.5 92t-87.5 34q-53 0 -87.5 -34.5
t-38.5 -91.5h246zM297 684h120l-148 -164h-89z" />
    <glyph glyph-name="ebreve" unicode="&#x115;" horiz-adv-x="513" 
d="M103.5 50.5q-63.5 59.5 -63.5 169.5q0 107 58.5 172.5t162.5 65.5q103 0 157.5 -60.5t54.5 -160.5q0 -25 -3 -45h-336q5 -63 47 -93.5t116 -30.5q89 0 156 40v-80q-26 -14 -71 -25.5t-100 -11.5q-115 0 -178.5 59.5zM381 257q1 58 -32.5 92t-87.5 34q-53 0 -87.5 -34.5
t-38.5 -91.5h246zM93 673v11h70q0 -50 23 -75.5t74 -25.5t74 25.5t23 75.5h71v-11q0 -74 -39.5 -118t-128.5 -44q-167 0 -167 162z" />
    <glyph glyph-name="ecaron" unicode="&#x11b;" horiz-adv-x="513" 
d="M103.5 50.5q-63.5 59.5 -63.5 169.5q0 107 58.5 172.5t162.5 65.5q103 0 157.5 -60.5t54.5 -160.5q0 -25 -3 -45h-336q5 -63 47 -93.5t116 -30.5q89 0 156 40v-80q-26 -14 -71 -25.5t-100 -11.5q-115 0 -178.5 59.5zM381 257q1 58 -32.5 92t-87.5 34q-53 0 -87.5 -34.5
t-38.5 -91.5h246zM90 684h97l73 -79l73 79h98l-171 -173z" />
    <glyph glyph-name="ecircumflex" unicode="&#xea;" horiz-adv-x="513" 
d="M103.5 50.5q-63.5 59.5 -63.5 169.5q0 107 58.5 172.5t162.5 65.5q103 0 157.5 -60.5t54.5 -160.5q0 -25 -3 -45h-336q5 -63 47 -93.5t116 -30.5q89 0 156 40v-80q-26 -14 -71 -25.5t-100 -11.5q-115 0 -178.5 59.5zM381 257q1 58 -32.5 92t-87.5 34q-53 0 -87.5 -34.5
t-38.5 -91.5h246zM260 693l171 -173h-98l-73 78l-73 -78h-97z" />
    <glyph glyph-name="edieresis" unicode="&#xeb;" horiz-adv-x="513" 
d="M103.5 50.5q-63.5 59.5 -63.5 169.5q0 107 58.5 172.5t162.5 65.5q103 0 157.5 -60.5t54.5 -160.5q0 -25 -3 -45h-336q5 -63 47 -93.5t116 -30.5q89 0 156 40v-80q-26 -14 -71 -25.5t-100 -11.5q-115 0 -178.5 59.5zM381 257q1 58 -32.5 92t-87.5 34q-53 0 -87.5 -34.5
t-38.5 -91.5h246zM123.5 570q-15.5 15 -15.5 39t16 39t39 15t38.5 -15t15.5 -39t-15.5 -39t-38.5 -15q-24 0 -39.5 15zM319 570q-15 15 -15 39t15.5 39t38.5 15t38.5 -15t15.5 -39t-15.5 -39t-38.5 -15q-24 0 -39 15z" />
    <glyph glyph-name="edotaccent" unicode="&#x117;" horiz-adv-x="513" 
d="M103.5 50.5q-63.5 59.5 -63.5 169.5q0 107 58.5 172.5t162.5 65.5q103 0 157.5 -60.5t54.5 -160.5q0 -25 -3 -45h-336q5 -63 47 -93.5t116 -30.5q89 0 156 40v-80q-26 -14 -71 -25.5t-100 -11.5q-115 0 -178.5 59.5zM381 257q1 58 -32.5 92t-87.5 34q-53 0 -87.5 -34.5
t-38.5 -91.5h246zM221.5 570q-15.5 15 -15.5 39t16 39t39 15t38.5 -15t15.5 -39t-16 -39t-38 -15q-24 0 -39.5 15z" />
    <glyph glyph-name="egrave" unicode="&#xe8;" horiz-adv-x="513" 
d="M103.5 50.5q-63.5 59.5 -63.5 169.5q0 107 58.5 172.5t162.5 65.5q103 0 157.5 -60.5t54.5 -160.5q0 -25 -3 -45h-336q5 -63 47 -93.5t116 -30.5q89 0 156 40v-80q-26 -14 -71 -25.5t-100 -11.5q-115 0 -178.5 59.5zM381 257q1 58 -32.5 92t-87.5 34q-53 0 -87.5 -34.5
t-38.5 -91.5h246zM112 684h120l117 -164h-89z" />
    <glyph glyph-name="emacron" unicode="&#x113;" horiz-adv-x="513" 
d="M103.5 50.5q-63.5 59.5 -63.5 169.5q0 107 58.5 172.5t162.5 65.5q103 0 157.5 -60.5t54.5 -160.5q0 -25 -3 -45h-336q5 -63 47 -93.5t116 -30.5q89 0 156 40v-80q-26 -14 -71 -25.5t-100 -11.5q-115 0 -178.5 59.5zM381 257q1 58 -32.5 92t-87.5 34q-53 0 -87.5 -34.5
t-38.5 -91.5h246zM114 641h293v-74h-293v74z" />
    <glyph glyph-name="eogonek" unicode="&#x119;" horiz-adv-x="513" 
d="M273.5 -184q-29.5 23 -29.5 70q0 34 17 62.5t47 44.5q-12 -2 -26 -2q-115 0 -178.5 59.5t-63.5 169.5q0 107 58.5 172.5t162.5 65.5q103 0 157.5 -60.5t54.5 -160.5q0 -25 -3 -45h-336q5 -63 47 -93.5t116 -30.5q89 0 156 40v-80q-76 -34 -109.5 -62t-33.5 -66
q0 -25 13.5 -38.5t39.5 -13.5q29 0 50 13v-56q-10 -5 -27 -8.5t-36 -3.5q-47 0 -76.5 23zM381 257q1 58 -32.5 92t-87.5 34q-53 0 -87.5 -34.5t-38.5 -91.5h246z" />
    <glyph glyph-name="f" unicode="f" horiz-adv-x="355" 
d="M108 376h-77v73h77v41q0 93 41 140t130 47q27 0 50.5 -4.5t37.5 -11.5v-79q-36 17 -78 17q-51 0 -71 -27.5t-20 -86.5v-36h124v-73h-124v-376h-90v376z" />
    <glyph glyph-name="g" unicode="g" horiz-adv-x="580" 
d="M191 -201.5q-36 5.5 -56 13.5v81q63 -23 131 -23q153 0 153 177v28q-20 -33 -60.5 -54t-96.5 -21q-68 0 -118.5 29.5t-77 81t-26.5 117.5q0 67 27.5 119.5t78 81.5t116.5 29q55 0 97.5 -21t65.5 -56l1 68h83v-402q0 -132 -58 -193t-183 -61q-41 0 -77 5.5zM380 122.5
q39 42.5 39 108.5q0 68 -39.5 109t-103.5 41t-103 -41.5t-39 -109.5t39.5 -109t104.5 -41q63 0 102 42.5z" />
    <glyph glyph-name="gbreve" unicode="&#x11f;" horiz-adv-x="580" 
d="M191 -201.5q-36 5.5 -56 13.5v81q63 -23 131 -23q153 0 153 177v28q-20 -33 -60.5 -54t-96.5 -21q-68 0 -118.5 29.5t-77 81t-26.5 117.5q0 67 27.5 119.5t78 81.5t116.5 29q55 0 97.5 -21t65.5 -56l1 68h83v-402q0 -132 -58 -193t-183 -61q-41 0 -77 5.5zM380 122.5
q39 42.5 39 108.5q0 68 -39.5 109t-103.5 41t-103 -41.5t-39 -109.5t39.5 -109t104.5 -41q63 0 102 42.5zM114 673v11h70q0 -50 23 -75.5t74 -25.5t74 25.5t23 75.5h71v-11q0 -74 -39.5 -118t-128.5 -44q-167 0 -167 162z" />
    <glyph glyph-name="gcircumflex" unicode="&#x11d;" horiz-adv-x="580" 
d="M191 -201.5q-36 5.5 -56 13.5v81q63 -23 131 -23q153 0 153 177v28q-20 -33 -60.5 -54t-96.5 -21q-68 0 -118.5 29.5t-77 81t-26.5 117.5q0 67 27.5 119.5t78 81.5t116.5 29q55 0 97.5 -21t65.5 -56l1 68h83v-402q0 -132 -58 -193t-183 -61q-41 0 -77 5.5zM380 122.5
q39 42.5 39 108.5q0 68 -39.5 109t-103.5 41t-103 -41.5t-39 -109.5t39.5 -109t104.5 -41q63 0 102 42.5zM281 693l171 -173h-98l-73 78l-73 -78h-97z" />
    <glyph glyph-name="gcommaaccent" unicode="&#x123;" horiz-adv-x="580" 
d="M191 -201.5q-36 5.5 -56 13.5v81q63 -23 131 -23q153 0 153 177v28q-20 -33 -60.5 -54t-96.5 -21q-68 0 -118.5 29.5t-77 81t-26.5 117.5q0 67 27.5 119.5t78 81.5t116.5 29q55 0 97.5 -21t65.5 -56l1 68h83v-402q0 -132 -58 -193t-183 -61q-41 0 -77 5.5zM380 122.5
q39 42.5 39 108.5q0 68 -39.5 109t-103.5 41t-103 -41.5t-39 -109.5t39.5 -109t104.5 -41q63 0 102 42.5zM230 536.5q-17 16.5 -17 46.5q0 27 17 54t44 45h50q-43 -40 -51 -69q21 1 34.5 -11.5t13.5 -33.5q0 -22 -14 -35t-36 -13q-24 0 -41 16.5z" />
    <glyph glyph-name="gdotaccent" unicode="&#x121;" horiz-adv-x="580" 
d="M191 -201.5q-36 5.5 -56 13.5v81q63 -23 131 -23q153 0 153 177v28q-20 -33 -60.5 -54t-96.5 -21q-68 0 -118.5 29.5t-77 81t-26.5 117.5q0 67 27.5 119.5t78 81.5t116.5 29q55 0 97.5 -21t65.5 -56l1 68h83v-402q0 -132 -58 -193t-183 -61q-41 0 -77 5.5zM380 122.5
q39 42.5 39 108.5q0 68 -39.5 109t-103.5 41t-103 -41.5t-39 -109.5t39.5 -109t104.5 -41q63 0 102 42.5zM242.5 570q-15.5 15 -15.5 39t16 39t39 15t38.5 -15t15.5 -39t-16 -39t-38 -15q-24 0 -39.5 15z" />
    <glyph glyph-name="h" unicode="h" horiz-adv-x="538" 
d="M71 663h90v-266q44 61 141 61q172 0 172 -194v-264h-90v247q0 61 -21 97.5t-81 36.5q-66 0 -93.5 -44t-27.5 -127v-210h-90v663z" />
    <glyph glyph-name="hbar" unicode="&#x127;" horiz-adv-x="538" 
d="M474 264v-264h-90v247q0 61 -21 97.5t-81 36.5q-66 0 -93.5 -44t-27.5 -127v-210h-90v514h-76v70h76v79h90v-79h125v-70h-125v-117q44 61 141 61q172 0 172 -194z" />
    <glyph glyph-name="hcircumflex" unicode="&#x125;" horiz-adv-x="538" 
d="M71 663h90v-266q44 61 141 61q172 0 172 -194v-264h-90v247q0 61 -21 97.5t-81 36.5q-66 0 -93.5 -44t-27.5 -127v-210h-90v663zM115 885l171 -173h-98l-73 79l-73 -79h-97z" />
    <glyph glyph-name="i" unicode="i" horiz-adv-x="246" 
d="M90.5 570q-15.5 15 -15.5 39t16 39t39 15t38.5 -15t15.5 -39t-15.5 -39t-38.5 -15q-24 0 -39.5 15zM85 376h-63v73h153v-449h-90v376z" />
    <glyph glyph-name="dotlessi" unicode="&#x131;" horiz-adv-x="246" 
d="M85 376h-63v73h153v-449h-90v376z" />
    <glyph glyph-name="iacute" unicode="&#xed;" horiz-adv-x="246" 
d="M85 376h-63v73h153v-449h-90v376zM136 684h120l-148 -164h-89z" />
    <glyph glyph-name="iacute_j.loclNLD" horiz-adv-x="492" 
d="M85 376h-63v73h153v-449h-90v376zM165 684h120l-148 -164h-89zM167 -195v77q29 -13 66 -13q54 0 76 33t22 97v377h-63v73h153v-445q0 -106 -41.5 -158.5t-132.5 -52.5q-44 0 -80 12zM407 684h120l-148 -164h-89z" />
    <glyph glyph-name="ibreve" unicode="&#x12d;" horiz-adv-x="246" 
d="M85 376h-63v73h153v-449h-90v376zM-39 673v11h70q0 -50 23 -75.5t74 -25.5t74 25.5t23 75.5h71v-11q0 -74 -39.5 -118t-128.5 -44q-167 0 -167 162z" />
    <glyph glyph-name="icircumflex" unicode="&#xee;" horiz-adv-x="246" 
d="M85 376h-63v73h153v-449h-90v376zM128 693l171 -173h-98l-73 78l-73 -78h-97z" />
    <glyph glyph-name="idieresis" unicode="&#xef;" horiz-adv-x="246" 
d="M85 376h-63v73h153v-449h-90v376zM-8.5 570q-15.5 15 -15.5 39t16 39t39 15t38.5 -15t15.5 -39t-15.5 -39t-38.5 -15q-24 0 -39.5 15zM187 570q-15 15 -15 39t15.5 39t38.5 15t38.5 -15t15.5 -39t-15.5 -39t-38.5 -15q-24 0 -39 15z" />
    <glyph glyph-name="i.loclTRK" horiz-adv-x="246" 
d="M85 376h-63v73h153v-449h-90v376zM89.5 570q-15.5 15 -15.5 39t16 39t39 15t38.5 -15t15.5 -39t-16 -39t-38 -15q-24 0 -39.5 15z" />
    <glyph glyph-name="igrave" unicode="&#xec;" horiz-adv-x="246" 
d="M85 376h-63v73h153v-449h-90v376zM-27 684h120l117 -164h-89z" />
    <glyph glyph-name="ij" unicode="&#x133;" horiz-adv-x="492" 
d="M90.5 570q-15.5 15 -15.5 39t16 39t39 15t38.5 -15t15.5 -39t-15.5 -39t-38.5 -15q-24 0 -39.5 15zM85 376h-63v73h153v-449h-90v376zM336.5 570q-15.5 15 -15.5 39t16 39t39 15t38.5 -15t15.5 -39t-15.5 -39t-38.5 -15q-24 0 -39.5 15zM167 -195v77q29 -13 66 -13
q54 0 76 33t22 97v377h-63v73h153v-445q0 -106 -41.5 -158.5t-132.5 -52.5q-44 0 -80 12z" />
    <glyph glyph-name="imacron" unicode="&#x12b;" horiz-adv-x="246" 
d="M85 376h-63v73h153v-449h-90v376zM-18 641h293v-74h-293v74z" />
    <glyph glyph-name="iogonek" unicode="&#x12f;" horiz-adv-x="246" 
d="M90.5 570q-15.5 15 -15.5 39t16 39t39 15t38.5 -15t15.5 -39t-15.5 -39t-38.5 -15q-24 0 -39.5 15zM22 449h153v-449q-50 -14 -78 -39.5t-28 -60.5q0 -52 52 -52q30 0 51 13v-56q-10 -5 -27.5 -8.5t-35.5 -3.5q-47 0 -76.5 23t-29.5 70q0 39 22 70t60 50v370h-63v73z" />
    <glyph glyph-name="itilde" unicode="&#x129;" horiz-adv-x="246" 
d="M85 376h-63v73h153v-449h-90v376zM159 549.5q-18 7.5 -44 22.5q-17 11 -30 16.5t-26 5.5q-24 0 -33.5 -16t-9.5 -31h-59q0 47 26 79.5t72 32.5q25 0 45 -8t45 -23q19 -11 30.5 -16t23.5 -5q21 0 31 15t10 32h59q0 -45 -25.5 -78.5t-72.5 -33.5q-24 0 -42 7.5z" />
    <glyph glyph-name="j" unicode="j" horiz-adv-x="246" 
d="M90.5 570q-15.5 15 -15.5 39t16 39t39 15t38.5 -15t15.5 -39t-15.5 -39t-38.5 -15q-24 0 -39.5 15zM-79 -195v77q29 -13 66 -13q54 0 76 33t22 97v377h-63v73h153v-445q0 -106 -41.5 -158.5t-132.5 -52.5q-44 0 -80 12z" />
    <glyph glyph-name="uni0237" unicode="&#x237;" horiz-adv-x="246" 
d="M-79 -195v77q29 -13 66 -13q54 0 76 33t22 97v377h-63v73h153v-445q0 -106 -41.5 -158.5t-132.5 -52.5q-44 0 -80 12z" />
    <glyph glyph-name="jcircumflex" unicode="&#x135;" horiz-adv-x="246" 
d="M-79 -195v77q29 -13 66 -13q54 0 76 33t22 97v377h-63v73h153v-445q0 -106 -41.5 -158.5t-132.5 -52.5q-44 0 -80 12zM124 693l171 -173h-98l-73 78l-73 -78h-97z" />
    <glyph glyph-name="k" unicode="k" horiz-adv-x="496" 
d="M71 663h90v-416l197 202h116l-211 -208l222 -241h-118l-206 232v-232h-90v663z" />
    <glyph glyph-name="kcommaaccent" unicode="&#x137;" horiz-adv-x="496" 
d="M71 663h90v-416l197 202h116l-211 -208l222 -241h-118l-206 232v-232h-90v663zM295 -70.5q17 -16.5 17 -46.5q0 -26 -14 -49t-35 -41h-54q16 14 27.5 30t16.5 30q-21 -2 -35.5 10.5t-14.5 33.5q0 23 14.5 36t36.5 13q24 0 41 -16.5z" />
    <glyph glyph-name="kgreenlandic" unicode="&#x138;" horiz-adv-x="493" 
d="M71 449h90v-211l197 211h116l-211 -217l221 -232h-117l-206 221v-221h-90v449z" />
    <glyph glyph-name="l" unicode="l" horiz-adv-x="232" 
d="M71 663h90v-663h-90v663z" />
    <glyph glyph-name="lacute" unicode="&#x13a;" horiz-adv-x="232" 
d="M71 663h90v-663h-90v663zM189 898h120l-148 -164h-89z" />
    <glyph glyph-name="lcaron" unicode="&#x13e;" horiz-adv-x="342" 
d="M71 663h90v-663h-90v663zM325 651.5q17 -16.5 17 -46.5q0 -27 -17 -54t-44 -45h-50q43 40 51 69q-21 -1 -34.5 11.5t-13.5 33.5q0 22 14 35t36 13q24 0 41 -16.5z" />
    <glyph glyph-name="lcommaaccent" unicode="&#x13c;" horiz-adv-x="232" 
d="M71 663h90v-663h-90v663zM153 -70.5q17 -16.5 17 -46.5q0 -26 -14 -49t-35 -41h-54q16 14 27.5 30t16.5 30q-21 -2 -35.5 10.5t-14.5 33.5q0 23 14.5 36t36.5 13q24 0 41 -16.5z" />
    <glyph glyph-name="ldot" unicode="&#x140;" horiz-adv-x="376" 
d="M71 663h90v-663h-90v663zM253.5 290q-16.5 17 -16.5 44q0 26 17.5 43t42.5 17q26 0 42.5 -17t16.5 -44q0 -26 -17 -43t-42 -17q-27 0 -43.5 17z" />
    <glyph glyph-name="lslash" unicode="&#x142;" horiz-adv-x="298" 
d="M104 275l-82 -47v75l82 45v315h90v-273l81 47v-76l-81 -46v-315h-90v275z" />
    <glyph glyph-name="m" unicode="m" horiz-adv-x="805" 
d="M71 449h82l2 -60q19 32 55 50.5t81 18.5q49 0 84.5 -20t53.5 -58q21 37 60 57.5t88 20.5q81 0 122.5 -46.5t41.5 -139.5v-272h-90v266q0 51 -19.5 83t-71.5 32q-61 0 -85 -45t-24 -124v-212h-90v266q0 51 -19.5 83t-71.5 32q-61 0 -85 -45t-24 -124v-212h-90v449z" />
    <glyph glyph-name="n" unicode="n" horiz-adv-x="538" 
d="M71 449h82l2 -62q20 35 58 53t89 18q172 0 172 -194v-264h-90v247q0 63 -21.5 98.5t-82.5 35.5q-64 0 -91.5 -44.5t-27.5 -126.5v-210h-90v449z" />
    <glyph glyph-name="nacute" unicode="&#x144;" horiz-adv-x="538" 
d="M71 449h82l2 -62q20 35 58 53t89 18q172 0 172 -194v-264h-90v247q0 63 -21.5 98.5t-82.5 35.5q-64 0 -91.5 -44.5t-27.5 -126.5v-210h-90v449zM324 684h120l-148 -164h-89z" />
    <glyph glyph-name="nacute.loclPLK" horiz-adv-x="538" 
d="M71 449h82l2 -62q20 35 58 53t89 18q172 0 172 -194v-264h-90v247q0 63 -21.5 98.5t-82.5 35.5q-64 0 -91.5 -44.5t-27.5 -126.5v-210h-90v449zM305 684h108l-101 -164h-85z" />
    <glyph glyph-name="ncaron" unicode="&#x148;" horiz-adv-x="538" 
d="M71 449h82l2 -62q20 35 58 53t89 18q172 0 172 -194v-264h-90v247q0 63 -21.5 98.5t-82.5 35.5q-64 0 -91.5 -44.5t-27.5 -126.5v-210h-90v449zM117 684h97l73 -79l73 79h98l-171 -173z" />
    <glyph glyph-name="ncommaaccent" unicode="&#x146;" horiz-adv-x="538" 
d="M71 449h82l2 -62q20 35 58 53t89 18q172 0 172 -194v-264h-90v247q0 63 -21.5 98.5t-82.5 35.5q-64 0 -91.5 -44.5t-27.5 -126.5v-210h-90v449zM308 -70.5q17 -16.5 17 -46.5q0 -26 -14 -49t-35 -41h-54q16 14 27.5 30t16.5 30q-21 -2 -35.5 10.5t-14.5 33.5
q0 23 14.5 36t36.5 13q24 0 41 -16.5z" />
    <glyph glyph-name="eng" unicode="&#x14b;" horiz-adv-x="538" 
d="M274 -203v73q12 -3 27 -3q47 0 65 30t18 93v257q0 63 -21.5 98.5t-82.5 35.5q-64 0 -91.5 -44.5t-27.5 -126.5v-210h-90v449h82l2 -62q21 35 58.5 53t88.5 18q172 0 172 -194v-261q0 -66 -11.5 -110.5t-46.5 -72t-101 -27.5q-24 0 -41 4z" />
    <glyph glyph-name="ntilde" unicode="&#xf1;" horiz-adv-x="538" 
d="M71 449h82l2 -62q20 35 58 53t89 18q172 0 172 -194v-264h-90v247q0 63 -21.5 98.5t-82.5 35.5q-64 0 -91.5 -44.5t-27.5 -126.5v-210h-90v449zM318 549.5q-18 7.5 -44 22.5q-17 11 -30 16.5t-26 5.5q-24 0 -33.5 -16t-9.5 -31h-59q0 47 26 79.5t72 32.5q25 0 45 -8
t45 -23q19 -11 30.5 -16t23.5 -5q21 0 31 15t10 32h59q0 -45 -25.5 -78.5t-72.5 -33.5q-24 0 -42 7.5z" />
    <glyph glyph-name="o" unicode="o" horiz-adv-x="558" 
d="M152 20.5q-54 29.5 -83 82t-29 120.5q0 67 29.5 120.5t83.5 84t127 30.5q108 0 172.5 -61.5t64.5 -167.5q0 -71 -30 -125t-84.5 -83.5t-124.5 -29.5q-72 0 -126 29.5zM384 112.5q40 43.5 40 114.5q0 70 -40.5 112t-104.5 42q-67 0 -106 -45t-39 -112q0 -70 40 -112.5
t105 -42.5t105 43.5z" />
    <glyph glyph-name="oacute" unicode="&#xf3;" horiz-adv-x="558" 
d="M152 20.5q-54 29.5 -83 82t-29 120.5q0 67 29.5 120.5t83.5 84t127 30.5q108 0 172.5 -61.5t64.5 -167.5q0 -71 -30 -125t-84.5 -83.5t-124.5 -29.5q-72 0 -126 29.5zM384 112.5q40 43.5 40 114.5q0 70 -40.5 112t-104.5 42q-67 0 -106 -45t-39 -112q0 -70 40 -112.5
t105 -42.5t105 43.5zM315 684h120l-148 -164h-89z" />
    <glyph glyph-name="oacute.loclPLK" horiz-adv-x="558" 
d="M152 20.5q-54 29.5 -83 82t-29 120.5q0 67 29.5 120.5t83.5 84t127 30.5q108 0 172.5 -61.5t64.5 -167.5q0 -71 -30 -125t-84.5 -83.5t-124.5 -29.5q-72 0 -126 29.5zM384 112.5q40 43.5 40 114.5q0 70 -40.5 112t-104.5 42q-67 0 -106 -45t-39 -112q0 -70 40 -112.5
t105 -42.5t105 43.5zM296 684h108l-101 -164h-85z" />
    <glyph glyph-name="obreve" unicode="&#x14f;" horiz-adv-x="558" 
d="M152 20.5q-54 29.5 -83 82t-29 120.5q0 67 29.5 120.5t83.5 84t127 30.5q108 0 172.5 -61.5t64.5 -167.5q0 -71 -30 -125t-84.5 -83.5t-124.5 -29.5q-72 0 -126 29.5zM384 112.5q40 43.5 40 114.5q0 70 -40.5 112t-104.5 42q-67 0 -106 -45t-39 -112q0 -70 40 -112.5
t105 -42.5t105 43.5zM111 673v11h70q0 -50 23 -75.5t74 -25.5t74 25.5t23 75.5h71v-11q0 -74 -39.5 -118t-128.5 -44q-167 0 -167 162z" />
    <glyph glyph-name="ocircumflex" unicode="&#xf4;" horiz-adv-x="558" 
d="M152 20.5q-54 29.5 -83 82t-29 120.5q0 67 29.5 120.5t83.5 84t127 30.5q108 0 172.5 -61.5t64.5 -167.5q0 -71 -30 -125t-84.5 -83.5t-124.5 -29.5q-72 0 -126 29.5zM384 112.5q40 43.5 40 114.5q0 70 -40.5 112t-104.5 42q-67 0 -106 -45t-39 -112q0 -70 40 -112.5
t105 -42.5t105 43.5zM278 693l171 -173h-98l-73 78l-73 -78h-97z" />
    <glyph glyph-name="odieresis" unicode="&#xf6;" horiz-adv-x="558" 
d="M152 20.5q-54 29.5 -83 82t-29 120.5q0 67 29.5 120.5t83.5 84t127 30.5q108 0 172.5 -61.5t64.5 -167.5q0 -71 -30 -125t-84.5 -83.5t-124.5 -29.5q-72 0 -126 29.5zM384 112.5q40 43.5 40 114.5q0 70 -40.5 112t-104.5 42q-67 0 -106 -45t-39 -112q0 -70 40 -112.5
t105 -42.5t105 43.5zM141.5 570q-15.5 15 -15.5 39t16 39t39 15t38.5 -15t15.5 -39t-15.5 -39t-38.5 -15q-24 0 -39.5 15zM337 570q-15 15 -15 39t15.5 39t38.5 15t38.5 -15t15.5 -39t-15.5 -39t-38.5 -15q-24 0 -39 15z" />
    <glyph glyph-name="ograve" unicode="&#xf2;" horiz-adv-x="558" 
d="M152 20.5q-54 29.5 -83 82t-29 120.5q0 67 29.5 120.5t83.5 84t127 30.5q108 0 172.5 -61.5t64.5 -167.5q0 -71 -30 -125t-84.5 -83.5t-124.5 -29.5q-72 0 -126 29.5zM384 112.5q40 43.5 40 114.5q0 70 -40.5 112t-104.5 42q-67 0 -106 -45t-39 -112q0 -70 40 -112.5
t105 -42.5t105 43.5zM130 684h120l117 -164h-89z" />
    <glyph glyph-name="ohungarumlaut" unicode="&#x151;" horiz-adv-x="558" 
d="M152 20.5q-54 29.5 -83 82t-29 120.5q0 67 29.5 120.5t83.5 84t127 30.5q108 0 172.5 -61.5t64.5 -167.5q0 -71 -30 -125t-84.5 -83.5t-124.5 -29.5q-72 0 -126 29.5zM384 112.5q40 43.5 40 114.5q0 70 -40.5 112t-104.5 42q-67 0 -106 -45t-39 -112q0 -70 40 -112.5
t105 -42.5t105 43.5zM227 684h111l-109 -164h-91zM409 684h110l-109 -164h-90z" />
    <glyph glyph-name="omacron" unicode="&#x14d;" horiz-adv-x="558" 
d="M152 20.5q-54 29.5 -83 82t-29 120.5q0 67 29.5 120.5t83.5 84t127 30.5q108 0 172.5 -61.5t64.5 -167.5q0 -71 -30 -125t-84.5 -83.5t-124.5 -29.5q-72 0 -126 29.5zM384 112.5q40 43.5 40 114.5q0 70 -40.5 112t-104.5 42q-67 0 -106 -45t-39 -112q0 -70 40 -112.5
t105 -42.5t105 43.5zM132 641h293v-74h-293v74z" />
    <glyph glyph-name="oslash" unicode="&#xf8;" horiz-adv-x="558" 
d="M116 45q-36 31 -56 77t-20 101q0 67 29.5 120.5t83.5 84t127 30.5q59 0 109 -21l30 42h76l-52 -73q36 -30 55 -75.5t19 -101.5q0 -71 -30 -125t-84.5 -83.5t-124.5 -29.5q-62 0 -110 23l-31 -44h-74zM341 367q-25 14 -62 14q-67 0 -106 -45t-39 -112q0 -64 33 -103z
M384 112.5q40 43.5 40 114.5q0 62 -33 103l-175 -247q23 -14 63 -14q65 0 105 43.5z" />
    <glyph glyph-name="oslashacute" unicode="&#x1ff;" horiz-adv-x="558" 
d="M116 45q-36 31 -56 77t-20 101q0 67 29.5 120.5t83.5 84t127 30.5q59 0 109 -21l30 42h76l-52 -73q36 -30 55 -75.5t19 -101.5q0 -71 -30 -125t-84.5 -83.5t-124.5 -29.5q-62 0 -110 23l-31 -44h-74zM341 367q-25 14 -62 14q-67 0 -106 -45t-39 -112q0 -64 33 -103z
M384 112.5q40 43.5 40 114.5q0 62 -33 103l-175 -247q23 -14 63 -14q65 0 105 43.5zM310 684h120l-148 -164h-89z" />
    <glyph glyph-name="otilde" unicode="&#xf5;" horiz-adv-x="558" 
d="M152 20.5q-54 29.5 -83 82t-29 120.5q0 67 29.5 120.5t83.5 84t127 30.5q108 0 172.5 -61.5t64.5 -167.5q0 -71 -30 -125t-84.5 -83.5t-124.5 -29.5q-72 0 -126 29.5zM384 112.5q40 43.5 40 114.5q0 70 -40.5 112t-104.5 42q-67 0 -106 -45t-39 -112q0 -70 40 -112.5
t105 -42.5t105 43.5zM309 549.5q-18 7.5 -44 22.5q-17 11 -30 16.5t-26 5.5q-24 0 -33.5 -16t-9.5 -31h-59q0 47 26 79.5t72 32.5q25 0 45 -8t45 -23q19 -11 30.5 -16t23.5 -5q21 0 31 15t10 32h59q0 -45 -25.5 -78.5t-72.5 -33.5q-24 0 -42 7.5z" />
    <glyph glyph-name="oe" unicode="&#x153;" horiz-adv-x="896" 
d="M152 20.5q-54 29.5 -83 82t-29 120.5q0 67 29.5 120.5t83.5 84t127 30.5q65 0 114 -24t72 -67q27 44 73.5 67.5t105.5 23.5q102 0 156.5 -61t54.5 -160q0 -25 -3 -45h-336q6 -63 47.5 -94t115.5 -31q88 0 157 41v-80q-26 -14 -70.5 -25.5t-99.5 -11.5q-70 0 -122.5 23.5
t-77.5 68.5q-30 -45 -78.5 -68.5t-110.5 -23.5q-72 0 -126 29.5zM764 257q1 58 -32 92t-87 34q-53 0 -88 -34.5t-39 -91.5h246zM384 112.5q40 43.5 40 114.5q0 70 -40.5 112t-104.5 42q-67 0 -106 -45t-39 -112q0 -70 40 -112.5t105 -42.5t105 43.5z" />
    <glyph glyph-name="p" unicode="p" horiz-adv-x="580" 
d="M71 449h82l2 -71q25 38 66 59t97 21q67 0 117.5 -29t77.5 -81t27 -120q0 -71 -28 -125t-78 -83t-115 -29q-52 0 -93.5 19t-64.5 51v-259h-90v647zM407 112q40 43 40 114t-40.5 113t-104.5 42q-68 0 -106.5 -45.5t-38.5 -111.5q0 -70 40 -112.5t105 -42.5t105 43z" />
    <glyph glyph-name="thorn" unicode="&#xfe;" horiz-adv-x="580" 
d="M71 663h90l-2 -280q51 75 159 75q67 0 117.5 -29t77.5 -81t27 -120q0 -71 -28 -125t-78 -83t-115 -29q-52 0 -93.5 19t-64.5 50v-258h-90v861zM407 112q40 43 40 114t-40.5 113t-104.5 42q-68 0 -106.5 -45.5t-38.5 -111.5q0 -70 40 -112.5t105 -42.5t105 43z" />
    <glyph glyph-name="q" unicode="q" horiz-adv-x="581" 
d="M420 63q-22 -32 -62.5 -52t-94.5 -20q-63 0 -113.5 27.5t-80 80t-29.5 124.5q0 68 26.5 121t77 83.5t118.5 30.5q57 0 99 -21.5t64 -56.5l2 69h83v-615l-90 -41v270zM385.5 113q38.5 44 38.5 113t-39 112t-105 43q-69 0 -107.5 -46t-38.5 -111q0 -68 39.5 -111.5
t106.5 -43.5t105.5 44z" />
    <glyph glyph-name="r" unicode="r" horiz-adv-x="332" 
d="M71 449h82l2 -65q19 33 56.5 53.5t82.5 20.5q15 0 24 -3v-82q-16 8 -40 8q-63 0 -90 -44.5t-27 -126.5v-210h-90v449z" />
    <glyph glyph-name="racute" unicode="&#x155;" horiz-adv-x="332" 
d="M71 449h82l2 -65q19 33 56.5 53.5t82.5 20.5q15 0 24 -3v-82q-16 8 -40 8q-63 0 -90 -44.5t-27 -126.5v-210h-90v449zM255 684h120l-148 -164h-89z" />
    <glyph glyph-name="rcaron" unicode="&#x159;" horiz-adv-x="332" 
d="M71 449h82l2 -65q19 33 56.5 53.5t82.5 20.5q15 0 24 -3v-82q-16 8 -40 8q-63 0 -90 -44.5t-27 -126.5v-210h-90v449zM48 684h97l73 -79l73 79h98l-171 -173z" />
    <glyph glyph-name="rcommaaccent" unicode="&#x157;" horiz-adv-x="332" 
d="M71 449h82l2 -65q19 33 56.5 53.5t82.5 20.5q15 0 24 -3v-82q-16 8 -40 8q-63 0 -90 -44.5t-27 -126.5v-210h-90v449zM152 -70.5q17 -16.5 17 -46.5q0 -26 -14 -49t-35 -41h-54q16 14 27.5 30t16.5 30q-21 -2 -35.5 10.5t-14.5 33.5q0 23 14.5 36t36.5 13q24 0 41 -16.5z
" />
    <glyph glyph-name="s" unicode="s" horiz-adv-x="381" 
d="M105 -1q-35 8 -53 18v77q63 -33 120 -33q39 0 60.5 16.5t21.5 47.5t-20.5 46t-63.5 32q-36 13 -59 26t-39 38t-16 65q0 63 40 94.5t109 31.5q34 0 62 -7t43 -14v-77q-19 11 -46 19.5t-54 8.5q-35 0 -52.5 -14.5t-17.5 -37.5q0 -25 18.5 -38t59.5 -29q38 -14 62.5 -27.5
t42 -40t17.5 -70.5q0 -70 -44.5 -105t-117.5 -35q-38 0 -73 8z" />
    <glyph glyph-name="sacute" unicode="&#x15b;" horiz-adv-x="381" 
d="M105 -1q-35 8 -53 18v77q63 -33 120 -33q39 0 60.5 16.5t21.5 47.5t-20.5 46t-63.5 32q-36 13 -59 26t-39 38t-16 65q0 63 40 94.5t109 31.5q34 0 62 -7t43 -14v-77q-19 11 -46 19.5t-54 8.5q-35 0 -52.5 -14.5t-17.5 -37.5q0 -25 18.5 -38t59.5 -29q38 -14 62.5 -27.5
t42 -40t17.5 -70.5q0 -70 -44.5 -105t-117.5 -35q-38 0 -73 8zM237 684h120l-148 -164h-89z" />
    <glyph glyph-name="sacute.loclPLK" horiz-adv-x="381" 
d="M105 -1q-35 8 -53 18v77q63 -33 120 -33q39 0 60.5 16.5t21.5 47.5t-20.5 46t-63.5 32q-36 13 -59 26t-39 38t-16 65q0 63 40 94.5t109 31.5q34 0 62 -7t43 -14v-77q-19 11 -46 19.5t-54 8.5q-35 0 -52.5 -14.5t-17.5 -37.5q0 -25 18.5 -38t59.5 -29q38 -14 62.5 -27.5
t42 -40t17.5 -70.5q0 -70 -44.5 -105t-117.5 -35q-38 0 -73 8zM218 684h108l-101 -164h-85z" />
    <glyph glyph-name="scaron" unicode="&#x161;" horiz-adv-x="381" 
d="M105 -1q-35 8 -53 18v77q63 -33 120 -33q39 0 60.5 16.5t21.5 47.5t-20.5 46t-63.5 32q-36 13 -59 26t-39 38t-16 65q0 63 40 94.5t109 31.5q34 0 62 -7t43 -14v-77q-19 11 -46 19.5t-54 8.5q-35 0 -52.5 -14.5t-17.5 -37.5q0 -25 18.5 -38t59.5 -29q38 -14 62.5 -27.5
t42 -40t17.5 -70.5q0 -70 -44.5 -105t-117.5 -35q-38 0 -73 8zM30 684h97l73 -79l73 79h98l-171 -173z" />
    <glyph glyph-name="scedilla" unicode="&#x15f;" horiz-adv-x="381" 
d="M105 -1q-35 8 -53 18v77q63 -33 120 -33q39 0 60.5 16.5t21.5 47.5t-20.5 46t-63.5 32q-36 13 -59 26t-39 38t-16 65q0 63 40 94.5t109 31.5q34 0 62 -7t43 -14v-77q-19 11 -46 19.5t-54 8.5q-35 0 -52.5 -14.5t-17.5 -37.5q0 -25 18.5 -38t59.5 -29q38 -14 62.5 -27.5
t42 -40t17.5 -70.5q0 -70 -44.5 -105t-117.5 -35q-38 0 -73 8zM94 -195v51q10 -5 26 -9.5t32 -4.5q50 0 50 39q0 20 -11 29.5t-30 9.5q-15 0 -24 -4.5t-18 -12.5l-10 6l32 110h56l-19 -62q6 3 15 3q34 -1 54.5 -20t20.5 -60q0 -46 -30.5 -66.5t-77.5 -20.5q-44 0 -66 12z
" />
    <glyph glyph-name="scircumflex" unicode="&#x15d;" horiz-adv-x="381" 
d="M105 -1q-35 8 -53 18v77q63 -33 120 -33q39 0 60.5 16.5t21.5 47.5t-20.5 46t-63.5 32q-36 13 -59 26t-39 38t-16 65q0 63 40 94.5t109 31.5q34 0 62 -7t43 -14v-77q-19 11 -46 19.5t-54 8.5q-35 0 -52.5 -14.5t-17.5 -37.5q0 -25 18.5 -38t59.5 -29q38 -14 62.5 -27.5
t42 -40t17.5 -70.5q0 -70 -44.5 -105t-117.5 -35q-38 0 -73 8zM200 693l171 -173h-98l-73 78l-73 -78h-97z" />
    <glyph glyph-name="scommaaccent" unicode="&#x219;" horiz-adv-x="381" 
d="M105 -1q-35 8 -53 18v77q63 -33 120 -33q39 0 60.5 16.5t21.5 47.5t-20.5 46t-63.5 32q-36 13 -59 26t-39 38t-16 65q0 63 40 94.5t109 31.5q34 0 62 -7t43 -14v-77q-19 11 -46 19.5t-54 8.5q-35 0 -52.5 -14.5t-17.5 -37.5q0 -25 18.5 -38t59.5 -29q38 -14 62.5 -27.5
t42 -40t17.5 -70.5q0 -70 -44.5 -105t-117.5 -35q-38 0 -73 8zM217 -70.5q17 -16.5 17 -46.5q0 -26 -14 -49t-35 -41h-54q16 14 27.5 30t16.5 30q-21 -2 -35.5 10.5t-14.5 33.5q0 23 14.5 36t36.5 13q24 0 41 -16.5z" />
    <glyph glyph-name="germandbls" unicode="&#xdf;" horiz-adv-x="618" 
d="M435 299q12 -10 39 -24q31 -16 52 -31t36 -41.5t15 -66.5q0 -71 -45.5 -108.5t-118.5 -37.5q-78 0 -125 27v77q57 -34 111 -34q35 0 60 17t25 53q0 33 -19.5 52.5t-56.5 41.5q-38 23 -57.5 43t-19.5 53q0 22 10 37.5t33 40.5q25 26 38.5 48.5t13.5 55.5q0 46 -28.5 72
t-78.5 26q-61 0 -91 -38t-30 -118v-444h-90v376h-77v73h77v12q0 103 55 159.5t156 56.5q87 0 143 -43t56 -127q0 -47 -17.5 -77t-47.5 -60q-15 -15 -22.5 -25.5t-7.5 -20.5q0 -15 12 -25z" />
    <glyph glyph-name="germandbls.calt" horiz-adv-x="656" 
d="M522 372q40 -22 64 -65.5t24 -105.5q0 -106 -61 -158.5t-168 -52.5q-62 0 -118 17v84q51 -20 113 -20q139 0 139 128q0 56 -33.5 91t-97.5 35q-55 0 -88 -22l-7 8l159 259h-270v-570h-94v648h497v-10l-146 -242q47 -2 87 -24z" />
    <glyph glyph-name="longs" unicode="&#x17f;" horiz-adv-x="355" 
d="M108 376h-77v73h77v41q0 93 41 140t130 47q27 0 50.5 -4.5t37.5 -11.5v-79q-15 7 -36 12t-42 5q-51 0 -71 -27.5t-20 -87.5v-484h-90v376z" />
    <glyph glyph-name="t" unicode="t" horiz-adv-x="378" 
d="M131 30q-34 39 -34 115v231h-73v10q35 31 82 87.5t71 98.5h10v-123h128v-73h-128v-217q0 -47 15 -69.5t59 -22.5q34 0 74 16v-76q-36 -16 -93 -16q-77 0 -111 39z" />
    <glyph glyph-name="tbar" unicode="&#x167;" horiz-adv-x="378" 
d="M335 83v-76q-36 -16 -93 -16q-77 0 -111 39t-34 115v57h-55v69h55v105h-73v10q35 31 82 87.5t71 98.5h10v-123h128v-73h-128v-105h108v-69h-108v-43q0 -47 15 -69.5t59 -22.5q34 0 74 16z" />
    <glyph glyph-name="tcaron" unicode="&#x165;" horiz-adv-x="395" 
d="M131 30q-34 39 -34 115v231h-73v10q35 31 82 87.5t71 98.5h10v-123h128v-73h-128v-217q0 -47 15 -69.5t59 -22.5q34 0 74 16v-76q-36 -16 -93 -16q-77 0 -111 39zM380 661.5q17 -16.5 17 -46.5q0 -27 -17 -54t-44 -45h-50q43 40 51 69q-21 -1 -34.5 11.5t-13.5 33.5
q0 22 14 35t36 13q24 0 41 -16.5z" />
    <glyph glyph-name="uni0163" unicode="&#x163;" horiz-adv-x="378" 
d="M131 30q-34 39 -34 115v231h-73v10q35 31 82 87.5t71 98.5h10v-123h128v-73h-128v-217q0 -47 15 -69.5t59 -22.5q34 0 74 16v-76q-36 -16 -93 -16q-77 0 -111 39zM256 -70.5q17 -16.5 17 -46.5q0 -26 -14 -49t-35 -41h-54q16 14 27.5 30t16.5 30q-21 -2 -35.5 10.5
t-14.5 33.5q0 23 14.5 36t36.5 13q24 0 41 -16.5z" />
    <glyph glyph-name="uni021B" unicode="&#x21b;" horiz-adv-x="378" 
d="M131 30q-34 39 -34 115v231h-73v10q35 31 82 87.5t71 98.5h10v-123h128v-73h-128v-217q0 -47 15 -69.5t59 -22.5q34 0 74 16v-76q-36 -16 -93 -16q-77 0 -111 39zM256 -70.5q17 -16.5 17 -46.5q0 -26 -14 -49t-35 -41h-54q16 14 27.5 30t16.5 30q-21 -2 -35.5 10.5
t-14.5 33.5q0 23 14.5 36t36.5 13q24 0 41 -16.5z" />
    <glyph glyph-name="u" unicode="u" horiz-adv-x="511" 
d="M107 47.5q-43 56.5 -43 145.5v256h90v-255q0 -127 102 -127q53 0 78 33.5t25 93.5v255h88v-256q0 -87 -43 -144.5t-149 -57.5q-105 0 -148 56.5z" />
    <glyph glyph-name="uacute" unicode="&#xfa;" horiz-adv-x="511" 
d="M107 47.5q-43 56.5 -43 145.5v256h90v-255q0 -127 102 -127q53 0 78 33.5t25 93.5v255h88v-256q0 -87 -43 -144.5t-149 -57.5q-105 0 -148 56.5zM291 684h120l-148 -164h-89z" />
    <glyph glyph-name="ubreve" unicode="&#x16d;" horiz-adv-x="511" 
d="M107 47.5q-43 56.5 -43 145.5v256h90v-255q0 -127 102 -127q53 0 78 33.5t25 93.5v255h88v-256q0 -87 -43 -144.5t-149 -57.5q-105 0 -148 56.5zM87 673v11h70q0 -50 23 -75.5t74 -25.5t74 25.5t23 75.5h71v-11q0 -74 -39.5 -118t-128.5 -44q-167 0 -167 162z" />
    <glyph glyph-name="ucircumflex" unicode="&#xfb;" horiz-adv-x="511" 
d="M107 47.5q-43 56.5 -43 145.5v256h90v-255q0 -127 102 -127q53 0 78 33.5t25 93.5v255h88v-256q0 -87 -43 -144.5t-149 -57.5q-105 0 -148 56.5zM254 693l171 -173h-98l-73 78l-73 -78h-97z" />
    <glyph glyph-name="udieresis" unicode="&#xfc;" horiz-adv-x="511" 
d="M107 47.5q-43 56.5 -43 145.5v256h90v-255q0 -127 102 -127q53 0 78 33.5t25 93.5v255h88v-256q0 -87 -43 -144.5t-149 -57.5q-105 0 -148 56.5zM117.5 570q-15.5 15 -15.5 39t16 39t39 15t38.5 -15t15.5 -39t-15.5 -39t-38.5 -15q-24 0 -39.5 15zM313 570q-15 15 -15 39
t15.5 39t38.5 15t38.5 -15t15.5 -39t-15.5 -39t-38.5 -15q-24 0 -39 15z" />
    <glyph glyph-name="ugrave" unicode="&#xf9;" horiz-adv-x="511" 
d="M107 47.5q-43 56.5 -43 145.5v256h90v-255q0 -127 102 -127q53 0 78 33.5t25 93.5v255h88v-256q0 -87 -43 -144.5t-149 -57.5q-105 0 -148 56.5zM106 684h120l117 -164h-89z" />
    <glyph glyph-name="uhungarumlaut" unicode="&#x171;" horiz-adv-x="511" 
d="M107 47.5q-43 56.5 -43 145.5v256h90v-255q0 -127 102 -127q53 0 78 33.5t25 93.5v255h88v-256q0 -87 -43 -144.5t-149 -57.5q-105 0 -148 56.5zM195 684h111l-109 -164h-91zM377 684h110l-109 -164h-90z" />
    <glyph glyph-name="umacron" unicode="&#x16b;" horiz-adv-x="511" 
d="M107 47.5q-43 56.5 -43 145.5v256h90v-255q0 -127 102 -127q53 0 78 33.5t25 93.5v255h88v-256q0 -87 -43 -144.5t-149 -57.5q-105 0 -148 56.5zM108 641h293v-74h-293v74z" />
    <glyph glyph-name="uogonek" unicode="&#x173;" horiz-adv-x="511" 
d="M243.5 -184q-29.5 23 -29.5 70q0 35 18 64t45 43q-5 -2 -22 -2q-105 0 -148 56.5t-43 145.5v256h90v-255q0 -127 102 -127q53 0 78 33.5t25 93.5v255h88v-260q0 -54 -15 -91.5t-36 -59.5t-54 -47q-32 -25 -47.5 -44t-15.5 -48q0 -24 13.5 -37.5t39.5 -13.5q17 0 30 4
t20 9v-56q-10 -5 -27 -8.5t-35 -3.5q-47 0 -76.5 23z" />
    <glyph glyph-name="uring" unicode="&#x16f;" horiz-adv-x="511" 
d="M107 47.5q-43 56.5 -43 145.5v256h90v-255q0 -127 102 -127q53 0 78 33.5t25 93.5v255h88v-256q0 -87 -43 -144.5t-149 -57.5q-105 0 -148 56.5zM179.5 539.5q-30.5 29.5 -30.5 73.5q0 43 30.5 73t75.5 30t75.5 -30t30.5 -73q0 -44 -30.5 -73.5t-75.5 -29.5t-75.5 29.5z
M292.5 574q14.5 15 14.5 39q0 23 -15 38.5t-37 15.5t-37 -15t-15 -39t15 -39t37 -15q23 0 37.5 15z" />
    <glyph glyph-name="utilde" unicode="&#x169;" horiz-adv-x="511" 
d="M107 47.5q-43 56.5 -43 145.5v256h90v-255q0 -127 102 -127q53 0 78 33.5t25 93.5v255h88v-256q0 -87 -43 -144.5t-149 -57.5q-105 0 -148 56.5zM285 549.5q-18 7.5 -44 22.5q-17 11 -30 16.5t-26 5.5q-24 0 -33.5 -16t-9.5 -31h-59q0 47 26 79.5t72 32.5q25 0 45 -8
t45 -23q19 -11 30.5 -16t23.5 -5q21 0 31 15t10 32h59q0 -45 -25.5 -78.5t-72.5 -33.5q-24 0 -42 7.5z" />
    <glyph glyph-name="v" unicode="v" horiz-adv-x="493" 
d="M15 449h99l133 -294l135 294h96l-226 -458h-10z" />
    <glyph glyph-name="w" unicode="w" horiz-adv-x="717" 
d="M22 449h99l112 -276l123 276h10l121 -276l112 276h96l-199 -458h-10l-125 284l-126 -284h-10z" />
    <glyph glyph-name="wacute" unicode="&#x1e83;" horiz-adv-x="717" 
d="M22 449h99l112 -276l123 276h10l121 -276l112 276h96l-199 -458h-10l-125 284l-126 -284h-10zM425 684h120l-148 -164h-89z" />
    <glyph glyph-name="wcircumflex" unicode="&#x175;" horiz-adv-x="717" 
d="M22 449h99l112 -276l123 276h10l121 -276l112 276h96l-199 -458h-10l-125 284l-126 -284h-10zM360 693l171 -173h-98l-73 78l-73 -78h-97z" />
    <glyph glyph-name="wdieresis" unicode="&#x1e85;" horiz-adv-x="717" 
d="M22 449h99l112 -276l123 276h10l121 -276l112 276h96l-199 -458h-10l-125 284l-126 -284h-10zM223.5 570q-15.5 15 -15.5 39t16 39t39 15t38.5 -15t15.5 -39t-15.5 -39t-38.5 -15q-24 0 -39.5 15zM419 570q-15 15 -15 39t15.5 39t38.5 15t38.5 -15t15.5 -39t-15.5 -39
t-38.5 -15q-24 0 -39 15z" />
    <glyph glyph-name="wgrave" unicode="&#x1e81;" horiz-adv-x="717" 
d="M22 449h99l112 -276l123 276h10l121 -276l112 276h96l-199 -458h-10l-125 284l-126 -284h-10zM177 684h120l117 -164h-89z" />
    <glyph glyph-name="x" unicode="x" horiz-adv-x="513" 
d="M201 224l-178 225h110l124 -166l126 166h108l-179 -225l183 -224h-110l-129 162l-130 -162h-108z" />
    <glyph glyph-name="y" unicode="y" horiz-adv-x="495" 
d="M200 25l-185 424h99l133 -324l136 324h97l-282 -647h-97z" />
    <glyph glyph-name="yacute" unicode="&#xfd;" horiz-adv-x="495" 
d="M200 25l-185 424h99l133 -324l136 324h97l-282 -647h-97zM283 684h120l-148 -164h-89z" />
    <glyph glyph-name="ycircumflex" unicode="&#x177;" horiz-adv-x="495" 
d="M200 25l-185 424h99l133 -324l136 324h97l-282 -647h-97zM246 693l171 -173h-98l-73 78l-73 -78h-97z" />
    <glyph glyph-name="ydieresis" unicode="&#xff;" horiz-adv-x="495" 
d="M200 25l-185 424h99l133 -324l136 324h97l-282 -647h-97zM109.5 570q-15.5 15 -15.5 39t16 39t39 15t38.5 -15t15.5 -39t-15.5 -39t-38.5 -15q-24 0 -39.5 15zM305 570q-15 15 -15 39t15.5 39t38.5 15t38.5 -15t15.5 -39t-15.5 -39t-38.5 -15q-24 0 -39 15z" />
    <glyph glyph-name="ygrave" unicode="&#x1ef3;" horiz-adv-x="495" 
d="M200 25l-185 424h99l133 -324l136 324h97l-282 -647h-97zM98 684h120l117 -164h-89z" />
    <glyph glyph-name="z" unicode="z" horiz-adv-x="469" 
d="M37 10l253 366h-236v73h378v-10l-253 -365h257v-74h-399v10z" />
    <glyph glyph-name="zacute" unicode="&#x17a;" horiz-adv-x="469" 
d="M37 10l253 366h-236v73h378v-10l-253 -365h257v-74h-399v10zM271 684h120l-148 -164h-89z" />
    <glyph glyph-name="zacute.loclPLK" horiz-adv-x="469" 
d="M37 10l253 366h-236v73h378v-10l-253 -365h257v-74h-399v10zM252 684h108l-101 -164h-85z" />
    <glyph glyph-name="zcaron" unicode="&#x17e;" horiz-adv-x="469" 
d="M37 10l253 366h-236v73h378v-10l-253 -365h257v-74h-399v10zM64 684h97l73 -79l73 79h98l-171 -173z" />
    <glyph glyph-name="zdotaccent" unicode="&#x17c;" horiz-adv-x="469" 
d="M37 10l253 366h-236v73h378v-10l-253 -365h257v-74h-399v10zM195.5 570q-15.5 15 -15.5 39t16 39t39 15t38.5 -15t15.5 -39t-16 -39t-38 -15q-24 0 -39.5 15z" />
    <glyph glyph-name="ordfeminine" unicode="&#xaa;" horiz-adv-x="372" 
d="M74 345.5q-34 28.5 -34 78.5q0 52 37.5 80t96.5 28q47 0 83 -17v8q0 38 -17.5 58t-62.5 20q-49 0 -104 -24v57q17 9 46.5 16.5t69.5 7.5q74 0 104.5 -33.5t30.5 -101.5v-199h-55l-2 37q-35 -44 -106 -44q-53 0 -87 28.5zM131 469.5q-19 -14.5 -19 -43.5q0 -28 17 -42.5
t49 -14.5q42 0 60.5 23.5t18.5 62.5v11q-34 18 -74 18q-33 0 -52 -14.5zM327 267v-60h-282v60h282z" />
    <glyph glyph-name="ordmasculine" unicode="&#xba;" horiz-adv-x="413" 
d="M84.5 363q-44.5 46 -44.5 122t45.5 124t122.5 48q76 0 120 -45t44 -123t-46 -125t-121 -47q-76 0 -120.5 46zM275.5 407q25.5 30 25.5 82t-25.5 80.5t-68.5 28.5q-45 0 -70 -30.5t-25 -80.5q0 -52 25.5 -81t69.5 -29q43 0 68.5 30zM65 267h282v-60h-282v60z" />
    <glyph glyph-name="uni0410" unicode="&#x410;" horiz-adv-x="645" 
d="M318 658h10l294 -658h-100l-55 128h-292l-55 -128h-97zM437 206l-115 267l-115 -267h230z" />
    <glyph glyph-name="uni0411" unicode="&#x411;" horiz-adv-x="581" 
d="M470.5 349.5q72.5 -38.5 72.5 -152.5q0 -118 -78 -157.5t-196 -39.5h-185v648h413v-80h-319v-180h100q120 0 192.5 -38.5zM398.5 103.5q49.5 25.5 49.5 92.5q0 66 -48 89.5t-134 23.5h-88v-231h88q83 0 132.5 25.5z" />
    <glyph glyph-name="uni0412" unicode="&#x412;" horiz-adv-x="590" 
d="M509 294.5q36 -37.5 36 -112.5q0 -106 -75 -144t-178 -38h-208v648h162q77 0 132.5 -12t91.5 -50.5t36 -111.5q0 -55 -24.5 -87.5t-61.5 -43.5q53 -11 89 -48.5zM388 535.5q-23 22.5 -57.5 28.5t-85.5 6h-67v-202h68q50 0 84.5 6.5t57.5 28.5t23 66t-23 66.5zM407 103
q42 23 42 83t-40.5 82.5t-113.5 22.5h-117v-211h113q74 0 116 23z" />
    <glyph glyph-name="uni0413" unicode="&#x413;" horiz-adv-x="489" 
d="M470 568h-292v-568h-94v648h386v-80z" />
    <glyph glyph-name="uni0403" unicode="&#x403;" horiz-adv-x="489" 
d="M319 712h-90l118 164h119zM470 568h-292v-568h-94v648h386v-80z" />
    <glyph glyph-name="uni0490" unicode="&#x490;" horiz-adv-x="489" 
d="M470 568h-292v-568h-94v648h300v139h86v-219z" />
    <glyph glyph-name="uni0414" unicode="&#x414;" horiz-adv-x="734" 
d="M691 81v-220h-85v140h-498v-140h-86v219h8q33 0 56.5 19t43.5 58q24 49 36 138t12 204v149h431v-567h82zM266 509q0 -144 -16 -249.5t-63 -178.5h329v487h-250v-59z" />
    <glyph glyph-name="uni0414.loclBGR" horiz-adv-x="735" 
d="M697 81v-220h-85v140h-489v-140h-85v220h68l257 577h10l256 -577h68zM199 81h334l-166 399z" />
    <glyph glyph-name="uni0415" unicode="&#x415;" horiz-adv-x="513" 
d="M84 648h383v-80h-289v-198h211v-79h-211v-210h301v-81h-395v648z" />
    <glyph glyph-name="uni0401" unicode="&#x401;" horiz-adv-x="513" 
d="M137 749.5q-17 17.5 -17 43.5t17 43.5t43 17.5t43 -17.5t17 -43.5t-17 -43.5t-43 -17.5t-43 17.5zM333 749.5q-17 17.5 -17 43.5t17 43.5t43 17.5t43 -17.5t17 -43.5t-17 -43.5t-43 -17.5t-43 17.5zM84 648h383v-80h-289v-198h211v-79h-211v-210h301v-81h-395v648z" />
    <glyph glyph-name="uni0416" unicode="&#x416;" horiz-adv-x="962" 
d="M822 0l-295 321v-321h-92v321l-295 -321h-122l311 331l-303 317h114l295 -314v314h92v-314l296 314h113l-303 -317l311 -331h-122z" />
    <glyph glyph-name="uni0417" unicode="&#x417;" horiz-adv-x="527" 
d="M450 295q32 -39 32 -110q0 -106 -66.5 -150.5t-175.5 -44.5q-60 0 -107.5 11.5t-70.5 27.5v94q71 -49 175 -49q68 0 108.5 23.5t40.5 86.5q0 58 -30 82t-93 24h-93v78h51q72 0 109.5 22t37.5 83q0 56 -35 78.5t-108 22.5q-48 0 -90 -13.5t-73 -35.5v94q23 15 70.5 27
t105.5 12q225 0 225 -179q0 -53 -25 -88.5t-64 -46.5q44 -10 76 -49z" />
    <glyph glyph-name="uni0418" unicode="&#x418;" horiz-adv-x="697" 
d="M613 658v-658h-93v459l-426 -469h-10v658h93v-459l426 469h10z" />
    <glyph glyph-name="uni0419" unicode="&#x419;" horiz-adv-x="697" 
d="M244.5 737q-41.5 44 -41.5 118v11h80q0 -51 23 -78.5t65 -27.5q43 0 65.5 27t22.5 79h81v-11q0 -73 -42.5 -117.5t-126.5 -44.5q-85 0 -126.5 44zM613 658v-658h-93v459l-426 -469h-10v658h93v-459l426 469h10z" />
    <glyph glyph-name="uni040D" unicode="&#x40d;" horiz-adv-x="697" 
d="M351 712l-148 164h120l117 -164h-89zM613 658v-658h-93v459l-426 -469h-10v658h93v-459l426 469h10z" />
    <glyph glyph-name="uni041A" unicode="&#x41a;" horiz-adv-x="631" 
d="M84 648h94v-312l305 312h122l-316 -318l324 -330h-127l-308 320v-320h-94v648z" />
    <glyph glyph-name="uni040C" unicode="&#x40c;" horiz-adv-x="631" 
d="M383 876h120l-148 -164h-89zM84 648h94v-312l305 312h122l-316 -318l324 -330h-127l-308 320v-320h-94v648z" />
    <glyph glyph-name="uni041B" unicode="&#x41b;" horiz-adv-x="687" 
d="M603 648v-648h-93v568h-255v-137q0 -140 -11.5 -231t-50 -148t-115.5 -57q-13 0 -30 3t-26 7v86q13 -6 38 -6q59 0 82.5 93.5t23.5 270.5v199h437z" />
    <glyph glyph-name="uni041B.loclBGR" horiz-adv-x="635" 
d="M512 0l-195 470l-197 -470h-97l290 658h10l289 -658h-100z" />
    <glyph glyph-name="uni041C" unicode="&#x41c;" horiz-adv-x="846" 
d="M222 405l-74 -405h-94l129 658h10l230 -485l231 485h10l128 -658h-92l-75 405l-197 -415h-10z" />
    <glyph glyph-name="uni041D" unicode="&#x41d;" horiz-adv-x="698" 
d="M84 648h94v-278h342v278h94v-648h-94v289h-342v-289h-94v648z" />
    <glyph glyph-name="uni041E" unicode="&#x41e;" horiz-adv-x="754" 
d="M203 33.5q-73 43.5 -111.5 119.5t-38.5 171q0 96 39.5 172t113 119t173.5 43t172.5 -43t111 -117.5t38.5 -169.5q0 -96 -39 -173t-113 -121t-174 -44q-99 0 -172 43.5zM497 109q52 32 80.5 88.5t28.5 128.5t-29 128t-81 87t-119 31q-66 0 -118.5 -31t-81.5 -87t-29 -128
q0 -71 29 -128t81 -89t120 -32q67 0 119 32z" />
    <glyph glyph-name="uni041F" unicode="&#x41f;" horiz-adv-x="687" 
d="M603 648v-648h-94v568h-331v-568h-94v648h519z" />
    <glyph glyph-name="uni0420" unicode="&#x420;" horiz-adv-x="582" 
d="M472 604q71 -44 71 -165q0 -90 -41.5 -136.5t-101 -61t-134.5 -14.5h-88v-227h-94v648h190q127 0 198 -44zM397 333.5q51 27.5 51 104.5q0 78 -50 104.5t-136 26.5h-84v-263h84q84 0 135 27.5z" />
    <glyph glyph-name="uni0421" unicode="&#x421;" horiz-adv-x="634" 
d="M205 32.5q-74 42.5 -113 118t-39 172.5q0 98 39 174t113 118.5t174 42.5q60 0 110 -14t74 -33v-94q-82 55 -179 55q-72 0 -125 -31t-82 -86.5t-29 -129.5q0 -77 31 -133t86.5 -85.5t125.5 -29.5q52 0 99.5 15.5t82.5 38.5v-95q-24 -17 -76 -31.5t-115 -14.5
q-103 0 -177 42.5z" />
    <glyph glyph-name="uni0422" unicode="&#x422;" horiz-adv-x="552" 
d="M229 568h-189v80h472v-80h-189v-568h-94v568z" />
    <glyph glyph-name="uni0423" unicode="&#x423;" horiz-adv-x="601" 
d="M583 648l-306 -648h-90l94 198l-261 450h103l203 -355l168 355h89z" />
    <glyph glyph-name="uni040E" unicode="&#x40e;" horiz-adv-x="601" 
d="M188.5 737q-41.5 44 -41.5 118v11h80q0 -51 23 -78.5t65 -27.5q43 0 65.5 27t22.5 79h81v-11q0 -73 -42.5 -117.5t-126.5 -44.5q-85 0 -126.5 44zM583 648l-306 -648h-90l94 198l-261 450h103l203 -355l168 355h89z" />
    <glyph glyph-name="uni0424" unicode="&#x424;" horiz-adv-x="813" 
d="M722.5 180q-37.5 -62 -107 -97t-163.5 -40v-71h-91v71q-94 4 -163.5 39.5t-107 97.5t-37.5 144t37.5 144t107 97t163.5 40v71h91v-71q94 -4 163.5 -39.5t107 -97.5t37.5 -144t-37.5 -144zM206 184q58 -54 156 -59v398q-96 -5 -155 -58t-59 -139q0 -88 58 -142zM606.5 183
q58.5 53 58.5 139q0 87 -57.5 141t-156.5 59v-397q97 5 155.5 58z" />
    <glyph glyph-name="uni0424.loclBGR" horiz-adv-x="803" 
d="M712 169q-38 -66 -107 -103.5t-158 -43.5v-60h-91v60q-90 5 -158.5 43t-106.5 104.5t-38 154.5q0 89 38 155t107 103.5t158 43.5v60h91v-60q90 -5 158.5 -43t106.5 -104.5t38 -154.5q0 -89 -38 -155zM174.5 213.5q26.5 -48.5 74 -77t108.5 -31.5v438q-59 -4 -106.5 -30.5
t-75 -74.5t-27.5 -112t26.5 -112.5zM553.5 135.5q47.5 26.5 74.5 74.5t27 112q0 96 -58 155.5t-151 65.5v-438q60 4 107.5 30.5z" />
    <glyph glyph-name="uni0425" unicode="&#x425;" horiz-adv-x="608" 
d="M246 331l-215 317h111l162 -250l165 250h108l-216 -317l224 -331h-111l-170 263l-174 -263h-107z" />
    <glyph glyph-name="uni0427" unicode="&#x427;" horiz-adv-x="656" 
d="M572 648v-648h-93v288q-61 -67 -177 -67q-120 0 -177.5 57.5t-57.5 175.5v194h94v-169q0 -84 36.5 -128.5t121.5 -44.5t122.5 44t37.5 129v169h93z" />
    <glyph glyph-name="uni0426" unicode="&#x426;" horiz-adv-x="724" 
d="M681 81v-220h-85v139h-512v648h94v-567h327v567h94v-567h82z" />
    <glyph glyph-name="uni0428" unicode="&#x428;" horiz-adv-x="985" 
d="M901 648v-648h-817v648h94v-567h268v567h93v-567h269v567h93z" />
    <glyph glyph-name="uni0429" unicode="&#x429;" horiz-adv-x="1026" 
d="M984 81v-220h-86v139h-814v648h94v-567h268v567h93v-567h269v567h93v-567h83z" />
    <glyph glyph-name="uni040F" unicode="&#x40f;" horiz-adv-x="684" 
d="M599 0h-214v-139h-86v139h-215v648h94v-567h328v567h93v-648z" />
    <glyph glyph-name="uni042C" unicode="&#x42c;" horiz-adv-x="582" 
d="M472 376.5q71 -44.5 71 -165.5q0 -89 -41.5 -136t-101 -61t-134.5 -14h-182v648h94v-227h96q127 0 198 -44.5zM397 106q51 28 51 104q0 78 -50 105t-136 27h-84v-264h84q84 0 135 28z" />
    <glyph glyph-name="uni042A" unicode="&#x42a;" horiz-adv-x="727" 
d="M617 376.5q71 -44.5 71 -165.5q0 -89 -41.5 -136t-101 -61t-134.5 -14h-182v568h-189v80h283v-227h96q127 0 198 -44.5zM542 106q51 28 51 104q0 78 -50 105t-136 27h-84v-264h84q84 0 135 28z" />
    <glyph glyph-name="uni042B" unicode="&#x42b;" horiz-adv-x="834" 
d="M472 376.5q71 -44.5 71 -165.5q0 -89 -41.5 -136t-101 -61t-134.5 -14h-182v648h94v-227h96q127 0 198 -44.5zM749 648v-648h-93v648h93zM397 106q51 28 51 104q0 78 -50 105t-136 27h-84v-264h84q84 0 135 28z" />
    <glyph glyph-name="uni0409" unicode="&#x409;" horiz-adv-x="1007" 
d="M897 376.5q71 -44.5 71 -165.5q0 -89 -41.5 -136t-101 -61t-134.5 -14h-181v568h-255v-137q0 -140 -11.5 -231t-50 -148t-115.5 -57q-13 0 -30 3t-26 7v86q13 -6 38 -6q59 0 82.5 93.5t23.5 270.5v199h437v-227h97q126 0 197 -44.5zM822.5 106q50.5 28 50.5 104
q0 78 -50 105t-135 27h-85v-264h85q84 0 134.5 28z" />
    <glyph glyph-name="uni040A" unicode="&#x40a;" horiz-adv-x="1018" 
d="M908 376.5q71 -44.5 71 -165.5q0 -89 -41.5 -136t-101.5 -61t-135 -14h-181v289h-342v-289h-94v648h94v-278h342v278h94v-227h96q127 0 198 -44.5zM833 106q51 28 51 104q0 78 -50 105t-136 27h-84v-264h84q84 0 135 28z" />
    <glyph glyph-name="uni0405" unicode="&#x405;" horiz-adv-x="495" 
d="M139 1q-44 11 -75 28v95q33 -22 77 -36.5t92 -14.5q57 0 88 24t31 72q0 31 -16 52.5t-40 35.5t-66 33q-52 23 -84 43t-54.5 55.5t-22.5 89.5q0 84 53.5 132t146.5 48q44 0 85.5 -10t65.5 -22v-96q-31 20 -70 33t-75 13q-51 0 -81 -24t-30 -68q0 -30 15.5 -50t38.5 -33
t65 -32q52 -22 85.5 -42.5t56.5 -57t23 -93.5q0 -91 -56 -138.5t-157 -47.5q-52 0 -96 11z" />
    <glyph glyph-name="uni0404" unicode="&#x404;" horiz-adv-x="634" 
d="M490.5 92.5q47.5 15.5 82.5 38.5v-95q-24 -17 -76 -31.5t-115 -14.5q-103 0 -177 42.5t-113 118t-39 172.5q0 98 39 174t113 118.5t174 42.5q60 0 110 -14t74 -33v-94q-82 55 -179 55q-99 0 -162 -56t-74 -149h291v-77h-292q6 -64 39 -112.5t86 -74.5t119 -26
q52 0 99.5 15.5z" />
    <glyph glyph-name="uni042D" unicode="&#x42d;" horiz-adv-x="634" 
d="M430 615.5q74 -42.5 112.5 -118t38.5 -172.5q0 -98 -39 -174t-113 -118.5t-174 -42.5q-63 0 -116 14t-77 33v94q86 -54 188 -54q67 0 119 27.5t82.5 75.5t35.5 110h-291v77h290q-11 94 -78 149.5t-165 55.5q-50 0 -94.5 -15.5t-76.5 -39.5v95q22 17 71.5 31.5t109.5 14.5
q103 0 177 -42.5z" />
    <glyph glyph-name="uni0406" unicode="&#x406;" horiz-adv-x="262" 
d="M84 648h94v-648h-94v648z" />
    <glyph glyph-name="uni0407" unicode="&#x407;" horiz-adv-x="262" 
d="M-10 749.5q-17 17.5 -17 43.5t17 43.5t43 17.5t43 -17.5t17 -43.5t-17 -43.5t-43 -17.5t-43 17.5zM186 749.5q-17 17.5 -17 43.5t17 43.5t43 17.5t43 -17.5t17 -43.5t-17 -43.5t-43 -17.5t-43 17.5zM84 648h94v-648h-94v648z" />
    <glyph glyph-name="uni0408" unicode="&#x408;" horiz-adv-x="467" 
d="M111 -3.5q-35 6.5 -54 15.5v88q21 -12 49.5 -19t60.5 -7q54 0 82 19t38.5 55.5t10.5 97.5v323h-162v79h256v-428q0 -118 -49.5 -174t-158.5 -56q-38 0 -73 6.5z" />
    <glyph glyph-name="uni040B" unicode="&#x40b;" horiz-adv-x="798" 
d="M678.5 369q55.5 -58 55.5 -170v-199h-93v156q0 89 -33.5 137.5t-121.5 48.5q-87 0 -125 -45t-38 -140v-157h-94v568h-189v80h512v-80h-229v-210q32 37 79 53t112 16q109 0 164.5 -58z" />
    <glyph glyph-name="uni042E" unicode="&#x42e;" horiz-adv-x="1021" 
d="M819.5 615.5q72.5 -42.5 110.5 -117.5t38 -170q0 -96 -38.5 -173t-112 -121t-173.5 -44q-93 0 -162.5 38.5t-109.5 106t-47 154.5h-147v-289h-94v648h94v-278h148q9 85 50 150t111 101.5t161 36.5q99 0 171.5 -42.5zM765 109q51 32 79 88.5t28 128.5t-28.5 128t-79.5 87
t-118 31q-66 0 -117.5 -31t-80.5 -87t-29 -128q0 -71 28.5 -128t80 -89t119.5 -32q67 0 118 32z" />
    <glyph glyph-name="uni042F" unicode="&#x42f;" horiz-adv-x="597" 
d="M513 648v-648h-94v238h-121l-156 -238h-112l170 249q-63 16 -99 61.5t-36 124.5q0 118 68.5 165.5t186.5 47.5h193zM419 316v253h-83q-57 0 -95 -9.5t-59.5 -37t-21.5 -79.5q0 -71 44 -99t134 -28h81z" />
    <glyph glyph-name="uni0402" unicode="&#x402;" horiz-adv-x="794" 
d="M681 372q59 -55 59 -164q0 -105 -51 -162t-157 -57q-33 0 -61 7v82q21 -7 47 -7q129 0 129 133q0 139 -151 139q-92 0 -132.5 -46t-40.5 -142v-155h-94v568h-189v80h512v-80h-229v-211q62 70 192 70q107 0 166 -55z" />
    <glyph glyph-name="uni0430" unicode="&#x430;" horiz-adv-x="496" 
d="M387 411q45 -47 45 -140v-271h-82l-1 53q-42 -62 -142 -62q-77 0 -122 39.5t-45 104.5q0 71 50 110.5t139 39.5q61 0 113 -24v12q0 111 -114 111q-41 0 -78.5 -13t-62.5 -28v80q70 35 157 35q98 0 143 -47zM312.5 88.5q29.5 32.5 29.5 92.5v15q-18 11 -46 18t-60 7
q-48 0 -75 -21.5t-27 -60.5t25.5 -61t68.5 -22q55 0 84.5 32.5z" />
    <glyph glyph-name="uni0431" unicode="&#x431;" horiz-adv-x="582" 
d="M434 415q49 -28 76 -78.5t27 -117.5q0 -69 -29.5 -120.5t-84 -79.5t-127.5 -28q-117 0 -175.5 71t-58.5 225v17q0 103 18.5 171t60.5 107q40 37 88.5 53.5t131.5 24.5q113 10 135 18v-79q-32 -8 -132 -18q-70 -7 -100.5 -17t-61.5 -38q-27 -24 -39 -63.5t-12 -94.5v-10
q25 41 70.5 63t100.5 22q63 0 112 -28zM403 109.5q40 41.5 40 109.5q0 67 -40.5 107.5t-104.5 40.5q-69 0 -108 -41.5t-39 -104.5q0 -67 40.5 -110t105.5 -43q66 0 106 41.5z" />
    <glyph glyph-name="uni0431.loclSRB" horiz-adv-x="558" 
d="M517 224q0 -70 -30 -122.5t-84.5 -81.5t-124.5 -29q-72 0 -126 28.5t-83 80t-29 118.5q0 74 38.5 127.5t106.5 75.5q-51 18 -76.5 45.5t-25.5 72.5q0 61 45.5 92.5t120.5 31.5h137q48 0 81 10v-75q-22 -10 -94 -10h-121q-79 0 -79 -49q0 -29 24 -43.5t82 -31.5l55 -17
q183 -58 183 -223zM384 111q40 42 40 111q0 67 -40.5 108t-104.5 41q-67 0 -106 -43.5t-39 -108.5q0 -67 40 -108.5t105 -41.5t105 42z" />
    <glyph glyph-name="uni0432" unicode="&#x432;" horiz-adv-x="481" 
d="M403.5 204q28.5 -28 28.5 -76q0 -66 -53.5 -97t-139.5 -31h-163v449h139q189 0 189 -118q0 -35 -19.5 -58t-50.5 -32q41 -9 69.5 -37zM166 385v-124h52q47 0 71 15t24 48q0 32 -25 46.5t-72 14.5h-50zM341 131q0 33 -26.5 49.5t-76.5 16.5h-72v-132h71q104 0 104 66z" />
    <glyph glyph-name="uni0432.loclBGR" horiz-adv-x="528" 
d="M452 294q35 -45 35 -109q0 -90 -60 -142t-156 -52q-109 0 -162.5 54.5t-53.5 176.5v197q0 132 50.5 195t159.5 63q90 0 139.5 -46.5t49.5 -133.5q0 -53 -26.5 -93t-69.5 -54q59 -11 94 -56zM173 563q-28 -41 -28 -125v-61h77q71 0 104.5 30.5t33.5 91.5q0 51 -26 78
t-73 27q-60 0 -88 -41zM362.5 95.5q31.5 31.5 31.5 84.5q0 67 -36 96.5t-116 29.5h-97v-85q0 -79 33.5 -118t95.5 -39q57 0 88.5 31.5z" />
    <glyph glyph-name="uni0433" unicode="&#x433;" horiz-adv-x="392" 
d="M362 376h-196v-376h-90v449h286v-73z" />
    <glyph glyph-name="uni0433.loclBGR" horiz-adv-x="406" 
d="M96.5 23.5q-44.5 32.5 -44.5 97.5q0 40 17.5 65.5t42 39.5t64.5 30q45 18 66 33t21 43q0 52 -73 52q-59 0 -114 -32v81q15 8 51.5 16.5t76.5 8.5q74 0 113.5 -31.5t39.5 -94.5q0 -40 -17 -64.5t-40.5 -37.5t-62.5 -27q-47 -18 -69 -34t-22 -49q0 -27 20 -41.5t54 -14.5
q60 0 124 41v-80q-18 -13 -54.5 -23.5t-75.5 -10.5q-73 0 -117.5 32.5z" />
    <glyph glyph-name="uni0453" unicode="&#x453;" horiz-adv-x="392" 
d="M257 520h-90l118 164h119zM362 376h-196v-376h-90v449h286v-73z" />
    <glyph glyph-name="uni0491" unicode="&#x491;" horiz-adv-x="392" 
d="M362 376h-196v-376h-90v449h203v119h83v-192z" />
    <glyph glyph-name="uni0434" unicode="&#x434;" horiz-adv-x="576" 
d="M546 73v-192h-82v120h-354v-120h-82v192h12q21 0 36 11t29 36q17 31 25.5 82.5t8.5 137.5v109h337v-376h70zM219 347q0 -197 -52 -274h221v304h-169v-30z" />
    <glyph glyph-name="uni0434.loclBGR" horiz-adv-x="580" 
d="M191 -201.5q-36 5.5 -56 13.5v81q63 -23 131 -23q153 0 153 177v28q-20 -33 -60.5 -54t-96.5 -21q-68 0 -118.5 29.5t-77 81t-26.5 117.5q0 67 27.5 119.5t78 81.5t116.5 29q55 0 97.5 -21t65.5 -56l1 68h83v-402q0 -132 -58 -193t-183 -61q-41 0 -77 5.5zM380 122.5
q39 42.5 39 108.5q0 68 -39.5 109t-103.5 41t-103 -41.5t-39 -109.5t39.5 -109t104.5 -41q63 0 102 42.5z" />
    <glyph glyph-name="uni0435" unicode="&#x435;" horiz-adv-x="513" 
d="M103.5 50.5q-63.5 59.5 -63.5 169.5q0 107 58.5 172.5t162.5 65.5q103 0 157.5 -60.5t54.5 -160.5q0 -25 -3 -45h-336q5 -63 47 -93.5t116 -30.5q89 0 156 40v-80q-26 -14 -71 -25.5t-100 -11.5q-115 0 -178.5 59.5zM381 257q1 58 -32.5 92t-87.5 34q-53 0 -87.5 -34.5
t-38.5 -91.5h246z" />
    <glyph glyph-name="uni0451" unicode="&#x451;" horiz-adv-x="513" 
d="M118 570q-15 15 -15 39t15.5 39t38.5 15t38.5 -15t15.5 -39t-15.5 -39t-38.5 -15q-24 0 -39 15zM326 570q-15 15 -15 39q0 23 16 38.5t38 15.5q23 0 38.5 -15t15.5 -39t-15.5 -39t-38.5 -15q-24 0 -39 15zM103.5 50.5q-63.5 59.5 -63.5 169.5q0 107 58.5 172.5
t162.5 65.5q103 0 157.5 -60.5t54.5 -160.5q0 -25 -3 -45h-336q5 -63 47 -93.5t116 -30.5q89 0 156 40v-80q-26 -14 -71 -25.5t-100 -11.5q-115 0 -178.5 59.5zM381 257q1 58 -32.5 92t-87.5 34q-53 0 -87.5 -34.5t-38.5 -91.5h246z" />
    <glyph glyph-name="uni0436" unicode="&#x436;" horiz-adv-x="733" 
d="M605 0l-194 225v-225h-89v225l-194 -225h-117l208 231l-198 218h108l193 -215v215h89v-215l193 215h108l-199 -218l209 -231h-117z" />
    <glyph glyph-name="uni0436.loclBGR" horiz-adv-x="733" 
d="M605 0l-194 235v-235h-89v235l-194 -235h-117l208 241l-199 208h109l193 -205v419h89v-419l193 205h109l-199 -208l208 -241h-117z" />
    <glyph glyph-name="uni0437" unicode="&#x437;" horiz-adv-x="438" 
d="M362.5 206q26.5 -28 26.5 -79q0 -72 -54 -104t-138 -32q-47 0 -85 10t-57 23v81q24 -18 62 -30t78 -12q109 0 109 66q0 34 -27 49.5t-81 15.5h-55v68h40q102 0 102 63q0 62 -83 62q-36 0 -73.5 -12.5t-61.5 -29.5v76q21 13 63 25t92 12q62 0 105 -27t43 -90
q0 -39 -19.5 -64t-50.5 -35q38 -8 64.5 -36z" />
    <glyph glyph-name="uni0437.loclBGR" horiz-adv-x="428" 
d="M367 90q31 -40 31 -109q0 -98 -61 -143t-162 -45q-50 0 -88 10t-57 24v87q25 -19 63 -31t80 -12q59 0 95.5 24t36.5 88q0 62 -34.5 89t-104.5 27h-47v73h33q64 0 99 24t35 86q0 51 -28 75t-77 24q-40 0 -78.5 -12.5t-62.5 -29.5v82q23 13 65.5 25t94.5 12q75 0 127.5 -37
t52.5 -123q0 -54 -25 -94t-65 -59q46 -15 77 -55z" />
    <glyph glyph-name="uni0438" unicode="&#x438;" horiz-adv-x="547" 
d="M471 458v-458h-87v281l-298 -290h-10v458h88v-288l297 297h10z" />
    <glyph glyph-name="uni0438.loclBGR" horiz-adv-x="544" 
d="M468 449v-449h-82l-2 59q-20 -34 -57.5 -51t-87.5 -17q-170 0 -170 194v264h90v-248q0 -62 21 -97.5t80 -35.5q64 0 91 44t27 126v211h90z" />
    <glyph glyph-name="uni0439" unicode="&#x439;" horiz-adv-x="547" 
d="M164 540.5q-37 40.5 -37 108.5v12h76v-3q0 -47 19.5 -73t57.5 -26q39 0 59 26t20 73v3h76v-12q0 -67 -38.5 -108t-116.5 -41q-79 0 -116 40.5zM471 458v-458h-87v281l-298 -290h-10v458h88v-288l297 297h10z" />
    <glyph glyph-name="uni0439.loclBGR" horiz-adv-x="544" 
d="M152 540.5q-37 40.5 -37 108.5v12h75v-3q0 -47 20 -73t58 -26q39 0 59 26t20 73v3h75v-12q0 -67 -38 -108t-116 -41q-79 0 -116 40.5zM468 449v-449h-82l-2 59q-20 -34 -57.5 -51t-87.5 -17q-170 0 -170 194v264h90v-248q0 -62 21 -97.5t80 -35.5q64 0 91 44t27 126v211
h90z" />
    <glyph glyph-name="uni045D" unicode="&#x45d;" horiz-adv-x="547" 
d="M260 520l-148 164h120l117 -164h-89zM471 458v-458h-87v281l-298 -290h-10v458h88v-288l297 297h10z" />
    <glyph glyph-name="uni045D.loclBGR" horiz-adv-x="544" 
d="M226 520l-148 164h120l117 -164h-89zM468 449v-449h-82l-2 59q-20 -34 -57.5 -51t-87.5 -17q-170 0 -170 194v264h90v-248q0 -62 21 -97.5t80 -35.5q64 0 91 44t27 126v211h90z" />
    <glyph glyph-name="uni043A" unicode="&#x43a;" horiz-adv-x="500" 
d="M372 0l-206 222v-222h-90v449h90v-211l197 211h116l-210 -217l220 -232h-117z" />
    <glyph glyph-name="uni043A.loclBGR" horiz-adv-x="501" 
d="M76 663h90v-416l197 202h116l-211 -208l222 -241h-118l-206 232v-232h-90v663z" />
    <glyph glyph-name="uni045C" unicode="&#x45c;" horiz-adv-x="500" 
d="M291 520h-89l117 164h120zM372 0l-206 222v-222h-90v449h90v-211l197 211h116l-210 -217l220 -232h-117z" />
    <glyph glyph-name="uni043B" unicode="&#x43b;" horiz-adv-x="560" 
d="M484 449v-449h-90v376h-174v-80q0 -149 -31 -226.5t-113 -77.5q-12 0 -26.5 3t-23.5 7v78q14 -6 34 -6q42 0 58.5 60.5t16.5 176.5v138h349z" />
    <glyph glyph-name="uni043B.loclBGR" horiz-adv-x="493" 
d="M379 0l-134 292l-134 -292h-96l225 458h10l228 -458h-99z" />
    <glyph glyph-name="uni043C" unicode="&#x43c;" horiz-adv-x="681" 
d="M551 0l-65 255l-140 -264h-10l-140 264l-65 -255h-90l122 457h10l168 -314l169 314h10l121 -457h-90z" />
    <glyph glyph-name="uni043D" unicode="&#x43d;" horiz-adv-x="559" 
d="M483 449v-449h-90v191h-227v-191h-90v449h90v-185h227v185h90z" />
    <glyph glyph-name="uni043E" unicode="&#x43e;" horiz-adv-x="558" 
d="M152 20.5q-54 29.5 -83 82t-29 120.5q0 67 29.5 120.5t83.5 84t127 30.5q108 0 172.5 -61.5t64.5 -167.5q0 -71 -30 -125t-84.5 -83.5t-124.5 -29.5q-72 0 -126 29.5zM384 112.5q40 43.5 40 114.5q0 70 -40.5 112t-104.5 42q-67 0 -106 -45t-39 -112q0 -70 40 -112.5
t105 -42.5t105 43.5z" />
    <glyph glyph-name="uni043F" unicode="&#x43f;" horiz-adv-x="548" 
d="M472 449v-449h-90v376h-216v-376h-90v449h396z" />
    <glyph glyph-name="uni043F.loclBGR" horiz-adv-x="548" 
d="M76 449h82l2 -62q20 35 58 53t89 18q172 0 172 -194v-264h-90v247q0 63 -21.5 98.5t-82.5 35.5q-64 0 -91.5 -44.5t-27.5 -126.5v-210h-90v449z" />
    <glyph glyph-name="uni0440" unicode="&#x440;" horiz-adv-x="585" 
d="M76 449h82l2 -71q25 38 66 59t97 21q67 0 117.5 -29t77.5 -81t27 -120q0 -71 -28 -125t-78 -83t-115 -29q-52 0 -93.5 19t-64.5 51v-259h-90v647zM412 112q40 43 40 114t-40.5 113t-104.5 42q-68 0 -106.5 -45.5t-38.5 -111.5q0 -70 40 -112.5t105 -42.5t105 43z" />
    <glyph glyph-name="uni0441" unicode="&#x441;" horiz-adv-x="444" 
d="M155.5 16.5q-53.5 25.5 -84.5 77.5t-31 126q0 71 29 125t82.5 83.5t125.5 29.5q37 0 67.5 -7t50.5 -17v-85q-53 32 -111 32q-67 0 -108.5 -42t-41.5 -115t40 -114t110 -41q38 0 68 11t47 24v-86q-18 -11 -52 -19t-72 -8q-66 0 -119.5 25.5z" />
    <glyph glyph-name="uni0442" unicode="&#x442;" horiz-adv-x="417" 
d="M387 376h-134v-376h-90v376h-133v73h357v-73z" />
    <glyph glyph-name="uni0442.loclBGR" horiz-adv-x="815" 
d="M76 449h82l2 -60q19 32 55 50.5t81 18.5q49 0 84.5 -20t53.5 -58q21 37 60 57.5t88 20.5q81 0 122.5 -46.5t41.5 -139.5v-272h-90v266q0 51 -19.5 83t-71.5 32q-61 0 -85 -45t-24 -124v-212h-90v266q0 51 -19.5 83t-71.5 32q-61 0 -85 -45t-24 -124v-212h-90v449z" />
    <glyph glyph-name="uni0443" unicode="&#x443;" horiz-adv-x="495" 
d="M200 25l-185 424h99l133 -324l136 324h97l-282 -647h-97z" />
    <glyph glyph-name="uni045E" unicode="&#x45e;" horiz-adv-x="495" 
d="M130 540.5q-37 40.5 -37 108.5v12h75v-3q0 -47 20 -73t58 -26q39 0 59 26t20 73v3h75v-12q0 -67 -38 -108t-116 -41q-79 0 -116 40.5zM200 25l-185 424h99l133 -324l136 324h97l-282 -647h-97z" />
    <glyph glyph-name="uni0444" unicode="&#x444;" horiz-adv-x="657" 
d="M586 108q-31 -53 -86.5 -83.5t-127.5 -33.5v-189h-87v189q-73 3 -128.5 33.5t-86 82t-30.5 116.5t30.5 117t86 83.5t128.5 34.5v205h87v-205q111 -5 178 -66t67 -163q0 -68 -31 -121zM151.5 143.5q20.5 -35.5 56 -56t78.5 -21.5v318q-45 -2 -80.5 -24t-55 -58t-19.5 -78
q0 -45 20.5 -80.5zM481.5 113.5q44.5 44.5 44.5 113.5q0 67 -44.5 110.5t-110.5 46.5v-318q66 3 110.5 47.5z" />
    <glyph glyph-name="uni0445" unicode="&#x445;" horiz-adv-x="513" 
d="M201 224l-178 225h110l124 -166l126 166h108l-179 -225l183 -224h-110l-129 162l-130 -162h-108z" />
    <glyph glyph-name="uni0447" unicode="&#x447;" horiz-adv-x="528" 
d="M452 449v-449h-90v189q-39 -52 -136 -52q-174 0 -174 193v119h90v-104q0 -67 23 -98.5t82 -31.5t87 31t28 99v104h90z" />
    <glyph glyph-name="uni0446" unicode="&#x446;" horiz-adv-x="568" 
d="M538 73v-192h-82v119h-380v449h90v-376h212v376h90v-376h70z" />
    <glyph glyph-name="uni0446.loclBGR" horiz-adv-x="578" 
d="M548 72v-191h-82v116h-4q-65 0 -80 59q-20 -33 -57.5 -49t-85.5 -16q-170 0 -170 194v264h90v-248q0 -62 21 -97.5t81 -35.5q63 0 90 44.5t27 125.5v211h90v-319q0 -33 11.5 -47.5t41.5 -14.5q19 0 27 4z" />
    <glyph glyph-name="uni0448" unicode="&#x448;" horiz-adv-x="768" 
d="M692 449v-449h-616v449h90v-376h173v376h90v-376h173v376h90z" />
    <glyph glyph-name="uni0448.loclBGR" horiz-adv-x="807" 
d="M731 449v-449h-83l-2 58q-19 -31 -54.5 -49t-78.5 -18q-47 0 -82.5 19.5t-54.5 56.5q-21 -37 -59 -56.5t-86 -19.5q-80 0 -121 46.5t-41 138.5v273h90v-266q0 -52 19 -83.5t70 -31.5q59 0 83 45.5t24 123.5v212h90v-266q0 -52 19 -83.5t70 -31.5q59 0 83 45.5t24 123.5
v212h90z" />
    <glyph glyph-name="uni0449" unicode="&#x449;" horiz-adv-x="792" 
d="M762 73v-192h-82v119h-604v449h90v-376h173v376h90v-376h173v376h90v-376h70z" />
    <glyph glyph-name="uni0449.loclBGR" horiz-adv-x="841" 
d="M811 72v-191h-82v116h-4q-65 0 -80 60q-20 -31 -54.5 -48.5t-77.5 -17.5q-47 0 -82.5 19.5t-54.5 56.5q-21 -37 -59 -56.5t-86 -19.5q-80 0 -121 46.5t-41 138.5v273h90v-266q0 -52 19 -83.5t70 -31.5q59 0 83 45.5t24 123.5v212h90v-266q0 -52 19 -83.5t70 -31.5
q59 0 83 45.5t24 123.5v212h90v-319q0 -33 11.5 -47.5t41.5 -14.5q17 0 27 4z" />
    <glyph glyph-name="uni045F" unicode="&#x45f;" horiz-adv-x="543" 
d="M467 0h-154v-119h-83v119h-154v449h90v-376h211v376h90v-449z" />
    <glyph glyph-name="uni044C" unicode="&#x44c;" horiz-adv-x="471" 
d="M379.5 272q55.5 -32 55.5 -118q0 -92 -60 -123t-153 -31h-146v449h90v-145h65q93 0 148.5 -32zM310 88q33 18 33 65t-32.5 64t-90.5 17h-54v-164h56q55 0 88 18z" />
    <glyph glyph-name="uni044C.loclBGR" horiz-adv-x="515" 
d="M424 313q49 -50 49 -134q0 -86 -55.5 -137t-151.5 -51q-202 0 -202 215v243h90v-142q47 56 138 56q83 0 132 -50zM350.5 93.5q31.5 32.5 31.5 85.5t-31.5 84t-82.5 31q-54 0 -84.5 -33t-30.5 -82q0 -54 31 -86t83 -32t83.5 32.5z" />
    <glyph glyph-name="uni044A" unicode="&#x44a;" horiz-adv-x="558" 
d="M466.5 272q55.5 -32 55.5 -118q0 -92 -60 -123t-153 -31h-146v376h-133v73h223v-145h66q92 0 147.5 -32zM397.5 88q32.5 18 32.5 65t-32 64t-90 17h-55v-164h57q55 0 87.5 18z" />
    <glyph glyph-name="uni044A.loclBGR" horiz-adv-x="604" 
d="M513 313q49 -50 49 -134q0 -86 -55.5 -137t-151.5 -51q-202 0 -202 215v170h-133v73h223v-143q46 57 138 57q83 0 132 -50zM439.5 93.5q31.5 32.5 31.5 85.5t-31.5 84t-82.5 31q-53 0 -84 -33t-31 -82q0 -54 31.5 -86t82.5 -32q52 0 83.5 32.5z" />
    <glyph glyph-name="uni044B" unicode="&#x44b;" horiz-adv-x="681" 
d="M379.5 272q55.5 -32 55.5 -118q0 -92 -60 -123t-153 -31h-146v449h90v-145h65q93 0 148.5 -32zM605 449v-449h-90v449h90zM310 88q33 18 33 65t-32.5 64t-90.5 17h-54v-164h56q55 0 88 18z" />
    <glyph glyph-name="uni0459" unicode="&#x459;" horiz-adv-x="789" 
d="M697.5 272q55.5 -32 55.5 -118q0 -92 -60 -123t-153 -31h-146v376h-174v-80q0 -149 -31 -226.5t-113 -77.5q-12 0 -26.5 3t-23.5 7v78q14 -6 34 -6q42 0 58.5 60.5t16.5 176.5v138h349v-145h65q93 0 148.5 -32zM628 88q33 18 33 65t-32.5 64t-90.5 17h-54v-164h56
q55 0 88 18z" />
    <glyph glyph-name="uni045A" unicode="&#x45a;" horiz-adv-x="788" 
d="M696.5 272q55.5 -32 55.5 -118q0 -92 -60 -123t-153 -31h-146v191h-227v-191h-90v449h90v-185h227v185h90v-145h65q93 0 148.5 -32zM627 88q33 18 33 65t-32.5 64t-90.5 17h-54v-164h56q55 0 88 18z" />
    <glyph glyph-name="uni0455" unicode="&#x455;" horiz-adv-x="381" 
d="M105 -1q-35 8 -53 18v77q63 -33 120 -33q39 0 60.5 16.5t21.5 47.5t-20.5 46t-63.5 32q-36 13 -59 26t-39 38t-16 65q0 63 40 94.5t109 31.5q34 0 62 -7t43 -14v-77q-19 11 -46 19.5t-54 8.5q-35 0 -52.5 -14.5t-17.5 -37.5q0 -25 18.5 -38t59.5 -29q38 -14 62.5 -27.5
t42 -40t17.5 -70.5q0 -70 -44.5 -105t-117.5 -35q-38 0 -73 8z" />
    <glyph glyph-name="uni0454" unicode="&#x454;" horiz-adv-x="449" 
d="M352 80q30 11 47 24v-86q-18 -11 -52 -19t-72 -8q-66 0 -119.5 25.5t-84.5 77.5t-31 126q0 71 29 125t82.5 83.5t125.5 29.5q67 0 118 -24v-85q-53 32 -111 32q-61 0 -101 -31.5t-49 -87.5h183v-70h-184q8 -59 47.5 -91t103.5 -32q38 0 68 11z" />
    <glyph glyph-name="uni044D" unicode="&#x44d;" horiz-adv-x="449" 
d="M294 432.5q53 -25.5 84 -77.5t31 -126q0 -71 -29 -125t-82.5 -83.5t-125.5 -29.5q-69 0 -122 24v86q55 -32 115 -32q61 0 102 32.5t49 90.5h-184v70h184q-9 56 -49 87.5t-102 31.5q-36 0 -65.5 -11t-45.5 -24v84q17 11 50 19.5t71 8.5q66 0 119 -25.5z" />
    <glyph glyph-name="uni0456" unicode="&#x456;" horiz-adv-x="270" 
d="M109.5 570q-15.5 15 -15.5 39t16 39t39 15t38.5 -15t15.5 -39t-15.5 -39t-38.5 -15q-24 0 -39.5 15zM104 376h-63v73h153v-449h-90v376z" />
    <glyph glyph-name="uni0457" unicode="&#x457;" horiz-adv-x="270" 
d="M17 570q-15 15 -15 39q0 23 16 38.5t38 15.5q23 0 38.5 -15t15.5 -39t-15.5 -39t-38.5 -15q-24 0 -39 15zM173.5 570q-15.5 15 -15.5 39t16 39t39 15t38 -15t15 -39t-15.5 -39t-37.5 -15q-24 0 -39.5 15zM104 376h-63v73h153v-449h-90v376z" />
    <glyph glyph-name="uni0458" unicode="&#x458;" horiz-adv-x="281" 
d="M122.5 570q-15.5 15 -15.5 39t16 39t39 15t38.5 -15t15.5 -39t-15.5 -39t-38.5 -15q-24 0 -39.5 15zM-48 -195v77q31 -13 67 -13q54 0 76 33t22 97v377h-63v73h153v-445q0 -106 -41.5 -158.5t-132.5 -52.5q-45 0 -81 12z" />
    <glyph glyph-name="uni045B" unicode="&#x45b;" horiz-adv-x="566" 
d="M503 234v-234h-90v217q0 61 -21.5 97.5t-81.5 36.5q-65 0 -92.5 -44t-27.5 -127v-180h-90v500h-105v70h105v93h90v-93h152v-70h-152v-133q21 31 57.5 46t82.5 15q173 0 173 -194z" />
    <glyph glyph-name="uni044E" unicode="&#x44e;" horiz-adv-x="767" 
d="M662 396.5q64 -61.5 64 -167.5q0 -71 -30 -125t-83.5 -83.5t-123.5 -29.5q-99 0 -161.5 54.5t-72.5 145.5h-89v-191h-90v449h90v-185h90q13 87 75.5 140.5t159.5 53.5q107 0 171 -61.5zM593.5 112.5q39.5 43.5 39.5 114.5q0 70 -40 112t-103 42q-66 0 -104.5 -45
t-38.5 -112q0 -70 39.5 -112.5t103.5 -42.5t103.5 43.5z" />
    <glyph glyph-name="uni044F" unicode="&#x44f;" horiz-adv-x="488" 
d="M412 449v-449h-90v157h-67l-105 -157h-107l119 165q-49 10 -75.5 44t-26.5 90q0 79 49 114.5t126 35.5h177zM322 227v152h-73q-50 0 -74.5 -17t-24.5 -59q0 -39 24.5 -57.5t75.5 -18.5h72z" />
    <glyph glyph-name="uni0452" unicode="&#x452;" horiz-adv-x="574" 
d="M516 233q0 -201 -142 -352h-104q74 75 115 160t41 173q0 68 -25.5 102.5t-90.5 34.5t-92.5 -44t-27.5 -127v-180h-90v500h-105v70h105v93h90v-93h152v-70h-152v-133q21 31 57.5 46t82.5 15q186 0 186 -195z" />
    <glyph glyph-name="Alpha" unicode="&#x391;" horiz-adv-x="645" 
d="M318 658h10l294 -658h-100l-55 128h-292l-55 -128h-97zM437 206l-115 267l-115 -267h230z" />
    <glyph glyph-name="Beta" unicode="&#x392;" horiz-adv-x="590" 
d="M509 294.5q36 -37.5 36 -112.5q0 -106 -75 -144t-178 -38h-208v648h162q77 0 132.5 -12t91.5 -50.5t36 -111.5q0 -55 -24.5 -87.5t-61.5 -43.5q53 -11 89 -48.5zM388 535.5q-23 22.5 -57.5 28.5t-85.5 6h-67v-202h68q50 0 84.5 6.5t57.5 28.5t23 66t-23 66.5zM407 103
q42 23 42 83t-40.5 82.5t-113.5 22.5h-117v-211h113q74 0 116 23z" />
    <glyph glyph-name="Gamma" unicode="&#x393;" horiz-adv-x="489" 
d="M470 568h-292v-568h-94v648h386v-80z" />
    <glyph glyph-name="uni0394" unicode="&#x394;" horiz-adv-x="644" 
d="M622 0h-600l295 658h10zM321 467l-166 -386h331z" />
    <glyph glyph-name="Epsilon" unicode="&#x395;" horiz-adv-x="513" 
d="M84 648h383v-80h-289v-198h211v-79h-211v-210h301v-81h-395v648z" />
    <glyph glyph-name="Zeta" unicode="&#x396;" horiz-adv-x="592" 
d="M47 10l350 558h-332v80h480v-10l-349 -557h351v-81h-500v10z" />
    <glyph glyph-name="Eta" unicode="&#x397;" horiz-adv-x="698" 
d="M84 648h94v-278h342v278h94v-648h-94v289h-342v-289h-94v648z" />
    <glyph glyph-name="Theta" unicode="&#x398;" horiz-adv-x="754" 
d="M203 33.5q-73 43.5 -111.5 119.5t-38.5 171q0 96 39.5 172t113 119t173.5 43t172.5 -43t111 -117.5t38.5 -169.5q0 -96 -39 -173t-113 -121t-174 -44q-99 0 -172 43.5zM497 109q52 32 80.5 88.5t28.5 128.5t-29 128t-81 87t-119 31q-66 0 -118.5 -31t-81.5 -87t-29 -128
q0 -71 29 -128t81 -89t120 -32q67 0 119 32zM230 370h294v-81h-294v81z" />
    <glyph glyph-name="Iota" unicode="&#x399;" horiz-adv-x="262" 
d="M84 648h94v-648h-94v648z" />
    <glyph glyph-name="Kappa" unicode="&#x39a;" horiz-adv-x="631" 
d="M84 648h94v-312l305 312h122l-316 -318l324 -330h-127l-308 320v-320h-94v648z" />
    <glyph glyph-name="Lambda" unicode="&#x39b;" horiz-adv-x="635" 
d="M512 0l-195 470l-197 -470h-97l290 658h10l289 -658h-100z" />
    <glyph glyph-name="Mu" unicode="&#x39c;" horiz-adv-x="846" 
d="M222 405l-74 -405h-94l129 658h10l230 -485l231 485h10l128 -658h-92l-75 405l-197 -415h-10z" />
    <glyph glyph-name="Nu" unicode="&#x39d;" horiz-adv-x="707" 
d="M175 453v-453h-91v658h10l438 -464v454h91v-658h-10z" />
    <glyph glyph-name="Xi" unicode="&#x39e;" horiz-adv-x="545" 
d="M49 648h447v-80h-447v80zM109 370h329v-79h-329v79zM44 81h457v-81h-457v81z" />
    <glyph glyph-name="Omicron" unicode="&#x39f;" horiz-adv-x="754" 
d="M203 33.5q-73 43.5 -111.5 119.5t-38.5 171q0 96 39.5 172t113 119t173.5 43t172.5 -43t111 -117.5t38.5 -169.5q0 -96 -39 -173t-113 -121t-174 -44q-99 0 -172 43.5zM497 109q52 32 80.5 88.5t28.5 128.5t-29 128t-81 87t-119 31q-66 0 -118.5 -31t-81.5 -87t-29 -128
q0 -71 29 -128t81 -89t120 -32q67 0 119 32z" />
    <glyph glyph-name="Pi" unicode="&#x3a0;" horiz-adv-x="687" 
d="M603 648v-648h-94v568h-331v-568h-94v648h519z" />
    <glyph glyph-name="Rho" unicode="&#x3a1;" horiz-adv-x="582" 
d="M472 604q71 -44 71 -165q0 -90 -41.5 -136.5t-101 -61t-134.5 -14.5h-88v-227h-94v648h190q127 0 198 -44zM397 333.5q51 27.5 51 104.5q0 78 -50 104.5t-136 26.5h-84v-263h84q84 0 135 27.5z" />
    <glyph glyph-name="Sigma" unicode="&#x3a3;" horiz-adv-x="565" 
d="M525 81v-81h-480v10l234 318l-231 310v10h467v-80h-304l180 -241l-182 -246h316z" />
    <glyph glyph-name="Tau" unicode="&#x3a4;" horiz-adv-x="552" 
d="M229 568h-189v80h472v-80h-189v-568h-94v568z" />
    <glyph glyph-name="Upsilon" unicode="&#x3a5;" horiz-adv-x="602" 
d="M253 257l-230 391h103l176 -309l177 309h100l-232 -391v-257h-94v257z" />
    <glyph glyph-name="Phi" unicode="&#x3a6;" horiz-adv-x="803" 
d="M712 169q-38 -66 -107 -103.5t-158 -43.5v-60h-91v60q-90 5 -158.5 43t-106.5 104.5t-38 154.5q0 89 38 155t107 103.5t158 43.5v60h91v-60q90 -5 158.5 -43t106.5 -104.5t38 -154.5q0 -89 -38 -155zM174.5 213.5q26.5 -48.5 74 -77t108.5 -31.5v438q-59 -4 -106.5 -30.5
t-75 -74.5t-27.5 -112t26.5 -112.5zM553.5 135.5q47.5 26.5 74.5 74.5t27 112q0 96 -58 155.5t-151 65.5v-438q60 4 107.5 30.5z" />
    <glyph glyph-name="Chi" unicode="&#x3a7;" horiz-adv-x="608" 
d="M246 331l-215 317h111l162 -250l165 250h108l-216 -317l224 -331h-111l-170 263l-174 -263h-107z" />
    <glyph glyph-name="Psi" unicode="&#x3a8;" horiz-adv-x="820" 
d="M745 648v-132q0 -285 -288 -295v-221h-94v221q-146 4 -217 79.5t-71 215.5v132h93v-130q0 -107 48 -159t147 -55v344h94v-344q97 2 145.5 53t48.5 157v134h94z" />
    <glyph glyph-name="uni03A9" unicode="&#x3a9;" horiz-adv-x="791" 
d="M685 179.5q-34 -63.5 -97 -98.5h131v-81h-268v81q77 21 125 84.5t48 160.5q0 72 -29 128t-81 87t-118 31t-118.5 -31.5t-82 -87t-29.5 -127.5q0 -97 48.5 -160.5t125.5 -84.5v-81h-269v81h130q-62 36 -96 99t-34 144q0 96 39.5 172t113 119t173.5 43t172.5 -43t111 -118
t38.5 -170q0 -84 -34 -147.5z" />
    <glyph glyph-name="Alphatonos" unicode="&#x386;" horiz-adv-x="623" 
d="M296 658h10l294 -658h-100l-55 128h-292l-55 -128h-97zM83 648h101l-93 -164h-77zM415 206l-115 267l-115 -267h230z" />
    <glyph glyph-name="Epsilontonos" unicode="&#x388;" horiz-adv-x="660" 
d="M68 648h101l-92 -164h-77zM231 648h383v-80h-289v-198h211v-79h-211v-210h301v-81h-395v648z" />
    <glyph glyph-name="Etatonos" unicode="&#x389;" horiz-adv-x="845" 
d="M68 648h101l-92 -164h-77zM231 648h94v-278h342v278h94v-648h-94v289h-342v-289h-94v648z" />
    <glyph glyph-name="Iotatonos" unicode="&#x38a;" horiz-adv-x="409" 
d="M68 648h101l-92 -164h-77zM231 648h94v-648h-94v648z" />
    <glyph glyph-name="Omicrontonos" unicode="&#x38c;" horiz-adv-x="837" 
d="M286 33.5q-73 43.5 -111.5 119.5t-38.5 171q0 96 39.5 172t113 119t173.5 43t172.5 -43t111 -117.5t38.5 -169.5q0 -96 -39 -173t-113 -121t-174 -44q-99 0 -172 43.5zM68 648h101l-92 -164h-77zM580 109q52 32 80.5 88.5t28.5 128.5t-29 128t-81 87t-119 31
q-66 0 -118.5 -31t-81.5 -87t-29 -128q0 -71 29 -128t81 -89t120 -32q67 0 119 32z" />
    <glyph glyph-name="Upsilontonos" unicode="&#x38e;" horiz-adv-x="790" 
d="M68 648h101l-92 -164h-77zM441 257l-230 391h103l176 -309l177 309h100l-232 -391v-257h-94v257z" />
    <glyph glyph-name="Omegatonos" unicode="&#x38f;" horiz-adv-x="874" 
d="M768 179.5q-34 -63.5 -97 -98.5h131v-81h-268v81q77 21 125 84.5t48 160.5q0 72 -29 128t-81 87t-118 31t-118.5 -31t-81.5 -87t-29 -128q0 -97 48 -160.5t125 -84.5v-81h-269v81h130q-62 36 -96 99t-34 144q0 96 39.5 172t113 119t173.5 43t172.5 -43t111 -118
t38.5 -170q0 -84 -34 -147.5zM169 648l-92 -164h-77l68 164h101z" />
    <glyph glyph-name="Iotadieresis" unicode="&#x3aa;" horiz-adv-x="262" 
d="M-10 749.5q-17 17.5 -17 43.5t17 43.5t43 17.5t43 -17.5t17 -43.5t-17 -43.5t-43 -17.5t-43 17.5zM186 749.5q-17 17.5 -17 43.5t17 43.5t43 17.5t43 -17.5t17 -43.5t-17 -43.5t-43 -17.5t-43 17.5zM84 648h94v-648h-94v648z" />
    <glyph glyph-name="Upsilondieresis" unicode="&#x3ab;" horiz-adv-x="602" 
d="M160 749.5q-17 17.5 -17 43.5t17 43.5t43 17.5t43 -17.5t17 -43.5t-17 -43.5t-43 -17.5t-43 17.5zM356 749.5q-17 17.5 -17 43.5t17 43.5t43 17.5t43 -17.5t17 -43.5t-17 -43.5t-43 -17.5t-43 17.5zM253 257l-230 391h103l176 -309l177 309h100l-232 -391v-257h-94v257z
" />
    <glyph glyph-name="alpha" unicode="&#x3b1;" horiz-adv-x="579" 
d="M509 449v-449h-84l-2 68q-20 -33 -62.5 -55t-99.5 -22q-61 0 -111 26.5t-80 78.5t-30 126q0 71 28.5 124.5t79 82.5t115.5 29q56 0 97 -21t64 -54l2 66h83zM377 106.5q42 37.5 42 119.5q0 77 -40 116t-100 39q-63 0 -104 -40.5t-41 -116.5q0 -74 39 -114.5t102 -40.5
q60 0 102 37.5z" />
    <glyph glyph-name="beta" unicode="&#x3b2;" horiz-adv-x="542" 
d="M467.5 298.5q38.5 -39.5 38.5 -114.5q0 -99 -59.5 -146t-144.5 -47q-95 0 -141 57v-245h-90v630q0 117 52 180.5t156 63.5q88 0 141.5 -45.5t53.5 -134.5q0 -53 -27 -92.5t-69 -55.5q51 -11 89.5 -50.5zM384 94q31 30 31 88q0 72 -41.5 97.5t-117.5 25.5h-24v71h24
q128 0 128 114q0 57 -29.5 85.5t-78.5 28.5q-56 0 -85.5 -38.5t-29.5 -109.5v-214q0 -93 34.5 -135.5t103.5 -42.5q54 0 85 30z" />
    <glyph glyph-name="beta.ss02" unicode="&#x3d0;" horiz-adv-x="528" 
d="M452 294q35 -45 35 -109q0 -90 -60 -142t-156 -52q-109 0 -162.5 54.5t-53.5 176.5v197q0 132 50.5 195t159.5 63q90 0 139.5 -46.5t49.5 -133.5q0 -53 -26.5 -93t-69.5 -54q59 -11 94 -56zM173 563q-28 -41 -28 -125v-61h77q71 0 104.5 30.5t33.5 91.5q0 51 -26 78
t-73 27q-60 0 -88 -41zM362.5 95.5q31.5 31.5 31.5 84.5q0 67 -36 96.5t-116 29.5h-97v-85q0 -79 33.5 -118t95.5 -39q57 0 88.5 31.5z" />
    <glyph glyph-name="gamma" unicode="&#x3b3;" horiz-adv-x="493" 
d="M292 57v-255h-90v257l-187 390h99l134 -308l134 308h96z" />
    <glyph glyph-name="delta" unicode="&#x3b4;" horiz-adv-x="562" 
d="M476.5 348q37.5 -54 37.5 -133q0 -66 -29.5 -117t-82.5 -79t-122 -28q-70 0 -123 28.5t-81.5 79t-28.5 116.5q0 81 48 137t129 68l-14 6q-91 41 -91 117q0 65 53.5 99.5t140.5 34.5q83 0 149 -35v-82q-69 40 -148 40q-44 0 -73 -13t-29 -41q0 -25 19 -41.5t70 -40.5
l56 -25q82 -37 119.5 -91zM382 109.5q39 40.5 39 105.5t-39 104t-101 39q-65 0 -102.5 -41t-37.5 -102q0 -66 39 -106t101 -40t101 40.5z" />
    <glyph glyph-name="epsilon" unicode="&#x3b5;" horiz-adv-x="446" 
d="M334.5 75q37.5 12 61.5 31v-82q-22 -13 -66 -23t-99 -10q-78 0 -127.5 29t-49.5 97q0 39 24.5 71t65.5 42q-36 10 -58 36.5t-22 67.5q0 64 52 94t125 30q47 0 86.5 -11t59.5 -22v-80q-24 17 -62 29.5t-75 12.5q-44 0 -68.5 -15.5t-24.5 -45.5q0 -33 28 -48t72 -15h54v-69
h-54q-54 0 -82 -15.5t-28 -50.5q0 -65 109 -65q41 0 78.5 12z" />
    <glyph glyph-name="zeta" unicode="&#x3b6;" horiz-adv-x="415" 
d="M303 525q-85 -111 -123.5 -187.5t-38.5 -139.5q0 -41 12.5 -64.5t37.5 -37t69 -25.5q52 -14 80.5 -27.5t42 -32.5t13.5 -48q0 -46 -41 -102h-83q31 44 31 78q0 23 -18.5 36t-67.5 24q-83 19 -126.5 59t-43.5 124q0 80 41 159.5t127 186.5l51 62h-218v73h353v-10z" />
    <glyph glyph-name="eta" unicode="&#x3b7;" horiz-adv-x="538" 
d="M474 264v-462h-90v445q0 63 -21.5 98.5t-82.5 35.5q-64 0 -91.5 -44.5t-27.5 -126.5v-210h-90v449h82l2 -59q21 34 59 51t88 17q172 0 172 -194z" />
    <glyph glyph-name="theta" unicode="&#x3b8;" horiz-adv-x="590" 
d="M481.5 583.5q55.5 -93.5 55.5 -248.5q0 -153 -60.5 -248.5t-181.5 -95.5q-243 0 -243 344q0 150 60.5 246t182.5 96q131 0 186.5 -93.5zM185 539.5q-37 -60.5 -41 -169.5h301q-8 230 -150 230q-73 0 -110 -60.5zM445 297h-301q4 -107 41.5 -167.5t109.5 -60.5
q142 0 150 228z" />
    <glyph glyph-name="theta.ss02" unicode="&#x3d1;" 
d="M501 585q56 -92 56 -247q0 -157 -58 -252t-185 -95q-105 0 -161 59.5t-56 160.5v16q0 28 -7.5 39.5t-30.5 11.5q-13 0 -27 -4v69q23 9 64 9q49 0 70 -28t21 -86v-12q0 -76 34.5 -116.5t98.5 -40.5q77 0 110.5 68t33.5 199v19q-30 -19 -61.5 -26.5t-72.5 -7.5
q-92 0 -148.5 48.5t-56.5 130.5q0 50 23.5 90.5t68 63.5t106.5 23q122 0 178 -92zM247.5 426q36.5 -27 97.5 -27q37 0 64 7t53 23q-7 85 -45 128t-99 43q-48 0 -77.5 -25.5t-29.5 -69.5q0 -52 36.5 -79z" />
    <glyph glyph-name="iota" unicode="&#x3b9;" horiz-adv-x="246" 
d="M85 376h-63v73h153v-449h-90v376z" />
    <glyph glyph-name="kappa" unicode="&#x3ba;" horiz-adv-x="500" 
d="M372 0l-206 222v-222h-90v449h90v-211l197 211h116l-210 -217l220 -232h-117z" />
    <glyph glyph-name="lambda" unicode="&#x3bb;" horiz-adv-x="516" 
d="M516 72v-69q-8 -3 -24 -5.5t-32 -2.5q-42 0 -65 22.5t-40 67.5l-98 253l-137 -338h-95l191 445l-38 98q-11 28 -23.5 40t-31.5 12q-17 0 -25 -4v69q22 8 57 8q41 0 64.5 -23t40.5 -67l177 -458q10 -28 23 -40t32 -12q16 0 24 4z" />
    <glyph glyph-name="uni03BC" unicode="&#x3bc;" horiz-adv-x="536" 
d="M466 449v-449h-83l-2 64q-20 -33 -54 -48.5t-73 -15.5q-29 0 -54.5 8.5t-40.5 24.5v-231h-88v647h90v-242q0 -61 21 -97t79 -36q62 0 88.5 44.5t26.5 125.5v205h90z" />
    <glyph glyph-name="nu" unicode="&#x3bd;" horiz-adv-x="493" 
d="M15 449h99l133 -294l135 294h96l-226 -458h-10z" />
    <glyph glyph-name="xi" unicode="&#x3be;" horiz-adv-x="422" 
d="M194 575q-31 -25 -31 -75q0 -58 33.5 -88t97.5 -30h43v-73h-51q-71 0 -109.5 -29t-38.5 -83q0 -38 14.5 -61.5t42.5 -37.5t78 -28q75 -20 104 -42t29 -65q0 -46 -41 -102h-83q31 44 31 78q0 22 -18 34.5t-70 24.5q-88 19 -134 60.5t-46 126.5q0 58 34 105t92 60
q-45 13 -73.5 54t-28.5 91q0 88 56.5 135t145.5 47q46 0 80.5 -7.5t54.5 -16.5v-85q-62 32 -126 32q-55 0 -86 -25z" />
    <glyph glyph-name="xi.ss02" horiz-adv-x="422" 
d="M380 27.5q29 -22.5 29 -64.5q0 -47 -40 -102h-83q31 44 31 78q0 22 -18 34.5t-70 24.5q-88 19 -134 60t-46 125q0 60 36 104t100 56q-39 13 -64 47t-25 79q0 41 18.5 73.5t51.5 47.5h-121v73h347v-73h-63q-142 0 -142 -107q0 -51 34 -80t95 -29h41v-73h-52
q-78 0 -120.5 -27.5t-42.5 -81.5q0 -51 31.5 -77t103.5 -45q74 -20 103 -42.5z" />
    <glyph glyph-name="omicron" unicode="&#x3bf;" horiz-adv-x="558" 
d="M152 20.5q-54 29.5 -83 82t-29 120.5q0 67 29.5 120.5t83.5 84t127 30.5q108 0 172.5 -61.5t64.5 -167.5q0 -71 -30 -125t-84.5 -83.5t-124.5 -29.5q-72 0 -126 29.5zM384 112.5q40 43.5 40 114.5q0 70 -40.5 112t-104.5 42q-67 0 -106 -45t-39 -112q0 -70 40 -112.5
t105 -42.5t105 43.5z" />
    <glyph glyph-name="pi" unicode="&#x3c0;" horiz-adv-x="594" 
d="M553 376h-65v-376h-90v376h-202v-376h-90v376h-65v73h512v-73z" />
    <glyph glyph-name="rho" unicode="&#x3c1;" horiz-adv-x="565" 
d="M56 187q0 131 63.5 201t171.5 70q73 0 125.5 -29t80.5 -81t28 -120q0 -71 -28 -125t-78 -83t-115 -29q-52 0 -93.5 19t-64.5 51v-259h-90v385zM392 112q40 43 40 114t-40.5 113t-104.5 42q-68 0 -106.5 -45t-38.5 -112q0 -69 40 -112t105 -43t105 43z" />
    <glyph glyph-name="uni03C2" unicode="&#x3c2;" horiz-adv-x="444" 
d="M306 -62q0 20 -15.5 33t-55.5 22q-97 25 -146 79t-49 157q0 69 29 120.5t82.5 80t125.5 28.5q67 0 118 -24v-85q-53 32 -111 32q-67 0 -108.5 -39.5t-41.5 -108.5q0 -49 15 -80t44.5 -50t78.5 -34q71 -20 99 -42.5t28 -63.5q0 -46 -41 -102h-83q31 44 31 77z" />
    <glyph glyph-name="sigma" unicode="&#x3c3;" horiz-adv-x="561" 
d="M539 376h-100q32 -24 49.5 -67t17.5 -97q0 -65 -29.5 -115t-82 -78t-120.5 -28q-71 0 -124 29t-81.5 80.5t-28.5 119.5q0 66 30 118t88.5 81.5t141.5 29.5h239v-73zM375 111q39 42 39 110t-38.5 109t-99.5 41q-65 0 -103.5 -43.5t-38.5 -108.5q0 -67 39 -108.5t101 -41.5
t101 42z" />
    <glyph glyph-name="tau" unicode="&#x3c4;" horiz-adv-x="411" 
d="M250 376v-255q0 -28 9 -41t33 -13q16 0 28 4v-69q-20 -8 -51 -8q-67 0 -88 33t-21 93v256h-130v73h351v-73h-131z" />
    <glyph glyph-name="upsilon" unicode="&#x3c5;" horiz-adv-x="511" 
d="M107 47.5q-43 56.5 -43 145.5v256h90v-255q0 -127 102 -127q53 0 78 33.5t25 93.5v255h88v-256q0 -87 -43 -144.5t-149 -57.5q-105 0 -148 56.5z" />
    <glyph glyph-name="phi" unicode="&#x3c6;" horiz-adv-x="657" 
d="M586 108q-31 -53 -86.5 -83.5t-127.5 -33.5v-189h-87v189q-73 3 -128.5 33.5t-86 82t-30.5 116.5t30.5 117t86 83.5t128.5 34.5v205h87v-205q111 -5 178 -66t67 -163q0 -68 -31 -121zM151.5 143.5q20.5 -35.5 56 -56t78.5 -21.5v318q-45 -2 -80.5 -24t-55 -58t-19.5 -78
q0 -45 20.5 -80.5zM481.5 113.5q44.5 44.5 44.5 113.5q0 67 -44.5 110.5t-110.5 46.5v-318q66 3 110.5 47.5z" />
    <glyph glyph-name="phi.ss02" unicode="&#x3d5;" horiz-adv-x="654" 
d="M582 106q-31 -53 -86.5 -83t-127.5 -32v-189h-87v189q-77 2 -132.5 34t-84.5 88t-29 127q0 62 21.5 116.5t52.5 92.5h91q-33 -38 -53.5 -94t-20.5 -112q0 -77 40.5 -124.5t114.5 -51.5v387h60q133 0 202.5 -59t69.5 -166q0 -70 -31 -123zM479.5 113.5
q42.5 43.5 42.5 113.5q0 67 -41.5 107.5t-112.5 44.5v-312q69 3 111.5 46.5z" />
    <glyph glyph-name="chi" unicode="&#x3c7;" horiz-adv-x="524" 
d="M451 -121.5q10 -10.5 26 -10.5q12 0 22 4v-69q-7 -3 -21 -5.5t-26 -2.5q-41 0 -63 21.5t-45 66.5l-82 161l-126 -242h-108l190 328l-103 203q-15 30 -27 40.5t-29 10.5q-14 0 -24 -5v69q26 8 51 8q28 0 46.5 -10t31.5 -28t31 -51l79 -154l125 236h107l-189 -319l109 -212
q15 -29 25 -39.5z" />
    <glyph glyph-name="psi" unicode="&#x3c8;" horiz-adv-x="673" 
d="M609 449v-213q0 -112 -51.5 -178.5t-177.5 -66.5v-192h-87v192q-126 0 -177.5 66.5t-51.5 178.5v213h90v-212q0 -86 33.5 -128t105.5 -42v382h87v-382q73 1 106 43t33 127v212h90z" />
    <glyph glyph-name="omega" unicode="&#x3c9;" horiz-adv-x="706" 
d="M648 337q23 -66 23 -140q0 -94 -47 -150t-125 -56q-58 0 -94 28.5t-52 78.5q-16 -51 -52.5 -79t-101.5 -28q-74 0 -119 56t-45 150q0 74 23 140t57 112h90q-34 -43 -55.5 -105.5t-21.5 -125.5q0 -67 23 -108t69 -41q41 0 67 46t26 127v72h80v-72q0 -81 26 -127t68 -46
q45 0 68 41t23 108q0 63 -21.5 125.5t-55.5 105.5h90q34 -46 57 -112z" />
    <glyph glyph-name="iotatonos" unicode="&#x3af;" horiz-adv-x="246" 
d="M148 684h108l-93 -162h-85zM85 376h-63v73h153v-449h-90v376z" />
    <glyph glyph-name="iotadieresis" unicode="&#x3ca;" horiz-adv-x="270" 
d="M17 537.5q-15 15.5 -15 39.5q0 23 16 38.5t38 15.5q24 0 39 -15t15 -40q0 -24 -15.5 -39t-38.5 -15q-24 0 -39 15.5zM173.5 537.5q-15.5 15.5 -15.5 39.5t16 39t39 15t38 -15.5t15 -39.5t-15.5 -39t-37.5 -15q-24 0 -39.5 15.5zM104 376h-63v73h153v-449h-90v376z" />
    <glyph glyph-name="iotadieresistonos" unicode="&#x390;" horiz-adv-x="246" 
d="M111 684h99l-63 -162h-72zM-52.5 537.5q-15.5 15.5 -15.5 39.5t16 39t39 15t38.5 -15.5t15.5 -39.5q0 -23 -16 -38.5t-38 -15.5q-24 0 -39.5 15.5zM230 537.5q-15 15.5 -15 39.5t15.5 39t38.5 15q24 0 39 -15t15 -40q0 -24 -15.5 -39t-38.5 -15q-24 0 -39 15.5zM85 376
h-63v73h153v-449h-90v376z" />
    <glyph glyph-name="upsilontonos" unicode="&#x3cd;" horiz-adv-x="511" 
d="M274 684h109l-93 -162h-86zM107 47.5q-43 56.5 -43 145.5v256h90v-255q0 -127 102 -127q53 0 78 33.5t25 93.5v255h88v-256q0 -87 -43 -144.5t-149 -57.5q-105 0 -148 56.5z" />
    <glyph glyph-name="upsilondieresis" unicode="&#x3cb;" horiz-adv-x="511" 
d="M118.5 537.5q-15.5 15.5 -15.5 39.5t16 39t39 15t38.5 -15.5t15.5 -39.5q0 -23 -16 -38.5t-38 -15.5q-24 0 -39.5 15.5zM313.5 537.5q-15.5 15.5 -15.5 39.5t16 39t39 15t38.5 -15.5t15.5 -39.5t-15.5 -39t-38.5 -15q-24 0 -39.5 15.5zM107 47.5q-43 56.5 -43 145.5v256
h90v-255q0 -127 102 -127q53 0 78 33.5t25 93.5v255h88v-256q0 -87 -43 -144.5t-149 -57.5q-105 0 -148 56.5z" />
    <glyph glyph-name="upsilondieresistonos" unicode="&#x3b0;" horiz-adv-x="511" 
d="M237 684h99l-63 -162h-72zM73.5 537.5q-15.5 15.5 -15.5 39.5t16 39t39 15t38.5 -15.5t15.5 -39.5t-15.5 -39t-38.5 -15q-24 0 -39.5 15.5zM356 537.5q-15 15.5 -15 39.5q0 23 16 38.5t38 15.5q24 0 39 -15t15 -40q0 -24 -15.5 -39t-38.5 -15q-24 0 -39 15.5zM107 47.5
q-43 56.5 -43 145.5v256h90v-255q0 -127 102 -127q53 0 78 33.5t25 93.5v255h88v-256q0 -87 -43 -144.5t-149 -57.5q-105 0 -148 56.5z" />
    <glyph glyph-name="omicrontonos" unicode="&#x3cc;" horiz-adv-x="558" 
d="M298 684h109l-93 -162h-86zM152 20.5q-54 29.5 -83 82t-29 120.5q0 67 29.5 120.5t83.5 84t127 30.5q108 0 172.5 -61.5t64.5 -167.5q0 -71 -30 -125t-84.5 -83.5t-124.5 -29.5q-72 0 -126 29.5zM384 112.5q40 43.5 40 114.5q0 70 -40.5 112t-104.5 42q-67 0 -106 -45
t-39 -112q0 -70 40 -112.5t105 -42.5t105 43.5z" />
    <glyph glyph-name="omegatonos" unicode="&#x3ce;" horiz-adv-x="706" 
d="M387 522h-85l70 162h108zM648 337q23 -66 23 -140q0 -94 -47 -150t-125 -56q-58 0 -94 28.5t-52 78.5q-16 -51 -52.5 -79t-101.5 -28q-74 0 -119 56t-45 150q0 74 23 140t57 112h90q-34 -43 -55.5 -105.5t-21.5 -125.5q0 -67 23 -108t69 -41q41 0 67 46t26 127v72h80v-72
q0 -81 26 -127t68 -46q45 0 68 41t23 108q0 63 -21.5 125.5t-55.5 105.5h90q34 -46 57 -112z" />
    <glyph glyph-name="alphatonos" unicode="&#x3ac;" horiz-adv-x="579" 
d="M324 522h-85l70 162h108zM509 449v-449h-84l-2 68q-20 -33 -62.5 -55t-99.5 -22q-61 0 -111 26.5t-80 78.5t-30 126q0 71 28.5 124.5t79 82.5t115.5 29q56 0 97 -21t64 -54l2 66h83zM377 106.5q42 37.5 42 119.5q0 77 -40 116t-100 39q-63 0 -104 -40.5t-41 -116.5
q0 -74 39 -114.5t102 -40.5q60 0 102 37.5z" />
    <glyph glyph-name="epsilontonos" unicode="&#x3ad;" horiz-adv-x="446" 
d="M271 522h-86l71 162h108zM334.5 75q37.5 12 61.5 31v-82q-22 -13 -66 -23t-99 -10q-78 0 -127.5 29t-49.5 97q0 39 24.5 71t65.5 42q-36 10 -58 36.5t-22 67.5q0 64 52 94t125 30q47 0 86.5 -11t59.5 -22v-80q-24 17 -62 29.5t-75 12.5q-44 0 -68.5 -15.5t-24.5 -45.5
q0 -33 28 -48t72 -15h54v-69h-54q-54 0 -82 -15.5t-28 -50.5q0 -65 109 -65q41 0 78.5 12z" />
    <glyph glyph-name="etatonos" unicode="&#x3ae;" horiz-adv-x="538" 
d="M304 522h-86l70 162h109zM474 264v-462h-90v445q0 63 -21.5 98.5t-82.5 35.5q-64 0 -91.5 -44.5t-27.5 -126.5v-210h-90v449h82l2 -59q21 34 59 51t88 17q172 0 172 -194z" />
    <glyph glyph-name="zero" unicode="0" horiz-adv-x="601" 
d="M166 34.5q-56 44.5 -84.5 120.5t-28.5 170q0 92 28.5 168t84.5 120.5t135 44.5t135 -44.5t84.5 -120.5t28.5 -168q0 -94 -29 -170t-85 -120.5t-134 -44.5q-79 0 -135 44.5zM413 141q40 67 40 184t-40 184t-112 67q-71 0 -112 -66.5t-41 -184.5q0 -117 41 -184t112 -67
q72 0 112 67z" />
    <glyph glyph-name="one" unicode="1" horiz-adv-x="428" 
d="M210 541l-148 -68v81l231 104h9v-658h-92v541z" />
    <glyph glyph-name="two" unicode="2" horiz-adv-x="525" 
d="M47 9l212 262q51 64 74 106t23 86q0 51 -30.5 82t-89.5 31q-80 0 -157 -62v93q26 21 68 36t99 15q100 0 152.5 -51.5t52.5 -141.5q0 -56 -25 -106t-92 -131l-122 -147h250v-81h-415v9z" />
    <glyph glyph-name="three" unicode="3" horiz-adv-x="538" 
d="M388 365.5q40 -21.5 63.5 -64t23.5 -102.5q0 -102 -64.5 -155.5t-172.5 -53.5q-54 0 -100 11.5t-69 26.5v95q30 -22 70.5 -35.5t89.5 -13.5q71 0 110.5 31t39.5 96q0 62 -35 94t-99 32q-60 0 -100 -30l-8 8l178 263h-239v80h389v-9l-171 -252h7q47 0 87 -21.5z" />
    <glyph glyph-name="four" unicode="4" horiz-adv-x="559" 
d="M346 118h-326v9l405 531h9v-467h91v-73h-91v-118h-88v118zM346 191v245l-186 -245h186z" />
    <glyph glyph-name="five" unicode="5" horiz-adv-x="538" 
d="M69 28v95q25 -20 66.5 -34.5t91.5 -14.5q73 0 112.5 34t39.5 98q0 61 -37 93.5t-100 32.5q-44 0 -81 -17.5t-60 -42.5l-10 3l51 373h296v-80h-219l-23 -176q33 20 86 20q86 0 139.5 -51.5t53.5 -150.5q0 -110 -62 -165t-176 -55q-106 0 -168 38z" />
    <glyph glyph-name="six" unicode="6" horiz-adv-x="569" 
d="M413.5 399.5q46.5 -23.5 74.5 -70.5t28 -115q0 -64 -27 -115t-78.5 -80t-122.5 -29q-107 0 -168.5 65t-61.5 182q0 79 30 159t83 146t119 106h142q-80 -45 -154.5 -123t-100.5 -156q21 25 55.5 39.5t78.5 14.5q56 0 102.5 -23.5zM385.5 109.5q36.5 37.5 36.5 98.5
t-37.5 98t-96.5 37q-58 0 -96 -38t-38 -97q0 -60 37 -98t97 -38q61 0 97.5 37.5z" />
    <glyph glyph-name="seven" unicode="7" horiz-adv-x="556" 
d="M233.5 309.5q56.5 156.5 136.5 257.5h-305v81h467v-9q-68 -66 -125.5 -171t-95 -228t-46.5 -240h-98q10 153 66.5 309.5z" />
    <glyph glyph-name="eight" unicode="8" horiz-adv-x="575" 
d="M132 42.5q-57 52.5 -57 137.5q0 58 26.5 100.5t69.5 58.5q-34 14 -57 49.5t-23 89.5q0 82 54 131t142 49q87 0 142 -48.5t55 -131.5q0 -53 -23.5 -88t-58.5 -49q45 -15 71.5 -55.5t26.5 -105.5q0 -55 -25.5 -98t-73 -67.5t-113.5 -24.5q-99 0 -156 52.5zM361 402
q28 27 28 73q0 45 -28 73t-74 28q-44 0 -73 -28.5t-29 -72.5q0 -46 28 -73t74 -27t74 27zM372.5 104.5q32.5 30.5 32.5 80.5q0 51 -32 81t-85 30q-52 0 -85 -30.5t-33 -80.5q0 -51 32 -81t86 -30q52 0 84.5 30.5z" />
    <glyph glyph-name="nine" unicode="9" horiz-adv-x="566" 
d="M448.5 594.5q60.5 -63.5 60.5 -184.5q0 -116 -60 -224t-169 -186h-134q209 152 256 290q-19 -24 -53 -41t-84 -17q-64 0 -112 26t-74 73t-26 107q0 62 26.5 112t77.5 79t122 29q109 0 169.5 -63.5zM375 349q36 36 36 96t-36.5 96t-94.5 36q-59 0 -95.5 -36t-36.5 -98
q0 -61 36.5 -95.5t94.5 -34.5q60 0 96 36z" />
    <glyph glyph-name="zero.tf" 
d="M164 34.5q-56 44.5 -84.5 120.5t-28.5 170q0 92 28.5 168t84.5 120.5t135 44.5t135 -44.5t84.5 -120.5t28.5 -168q0 -94 -29 -170t-85 -120.5t-134 -44.5q-79 0 -135 44.5zM411 141q40 67 40 184t-40 184t-112 67q-71 0 -112 -66.5t-41 -184.5q0 -117 41 -184t112 -67
q72 0 112 67z" />
    <glyph glyph-name="one.tf" 
d="M292 541l-147 -68v81l230 104h9v-658h-92v541z" />
    <glyph glyph-name="two.tf" 
d="M83 9l212 262q51 63 74 105.5t23 86.5q0 51 -30.5 82t-89.5 31q-77 0 -157 -62v93q67 51 167 51t152.5 -51.5t52.5 -141.5q0 -57 -25 -106.5t-92 -130.5l-122 -147h250v-81h-415v9z" />
    <glyph glyph-name="three.tf" 
d="M420.5 365.5q39.5 -21.5 63 -64t23.5 -102.5q0 -102 -64 -155.5t-172 -53.5q-54 0 -100 11.5t-70 26.5v95q29 -22 70.5 -35.5t90.5 -13.5q70 0 109.5 31t39.5 96q0 62 -35 94t-99 32q-60 0 -100 -30l-8 8l179 263h-239v80h388v-9l-171 -252h7q48 0 87.5 -21.5z" />
    <glyph glyph-name="four.tf" 
d="M351 118h-326v9l405 531h9v-467h91v-73h-91v-118h-88v118zM351 191v245l-186 -245h186z" />
    <glyph glyph-name="five.tf" 
d="M97 28v95q25 -20 66.5 -34.5t91.5 -14.5q73 0 112.5 34t39.5 98q0 61 -37 93.5t-100 32.5q-44 0 -81 -17.5t-60 -42.5l-10 3l51 373h296v-80h-218l-24 -176q33 20 86 20q86 0 139.5 -51.5t53.5 -150.5q0 -110 -62 -165t-176 -55q-106 0 -168 38z" />
    <glyph glyph-name="six.tf" 
d="M424 399.5q47 -23.5 75 -70.5t28 -115q0 -64 -27 -115t-79 -80t-123 -29q-107 0 -168.5 65t-61.5 182q0 79 30 159t83 146t119 106h142q-80 -45 -154.5 -123t-100.5 -156q21 25 55.5 39.5t78.5 14.5q56 0 103 -23.5zM395.5 109.5q36.5 37.5 36.5 98.5t-37.5 98t-96.5 37
q-58 0 -96 -38t-38 -97q0 -60 37 -98t97 -38q61 0 97.5 37.5z" />
    <glyph glyph-name="seven.tf" 
d="M252 310.5q56 156.5 136 256.5h-305v81h467v-9q-68 -66 -125.5 -171t-95 -228t-46.5 -240h-98q11 154 67 310.5z" />
    <glyph glyph-name="eight.tf" 
d="M143.5 42.5q-57.5 52.5 -57.5 137.5q0 58 26.5 100.5t69.5 58.5q-34 14 -57 49.5t-23 89.5q0 82 54.5 131t142.5 49q86 0 141 -48.5t55 -131.5q0 -53 -23 -88t-58 -49q44 -15 70.5 -56t26.5 -105q0 -55 -25.5 -98t-73 -67.5t-113.5 -24.5q-98 0 -155.5 52.5zM373 402
q28 27 28 73q0 45 -28.5 73t-73.5 28t-73.5 -28.5t-28.5 -72.5q0 -46 27.5 -73t74.5 -27q46 0 74 27zM383.5 104.5q32.5 30.5 32.5 80.5q0 51 -32 81t-85 30q-52 0 -85 -30.5t-33 -80.5t32 -80.5t86 -30.5q52 0 84.5 30.5z" />
    <glyph glyph-name="nine.tf" 
d="M464.5 594.5q60.5 -63.5 60.5 -184.5q0 -116 -60.5 -224t-169.5 -186h-134q208 153 255 288q-18 -24 -52 -40t-83 -16q-64 0 -112.5 26t-74.5 73t-26 107q0 62 26.5 112t78 79t122.5 29q109 0 169.5 -63.5zM390 349q36 36 36 96t-36 96t-95 36t-95 -36t-36 -98
q0 -61 36.5 -95.5t94.5 -34.5q59 0 95 36z" />
    <glyph glyph-name="uni00B9" unicode="&#xb9;" horiz-adv-x="376" 
d="M170 569l-98 -45v61l162 73h6v-395h-70v306z" />
    <glyph glyph-name="uni00B2" unicode="&#xb2;" horiz-adv-x="376" 
d="M55 269l120 158q29 37 41.5 60.5t12.5 45.5q0 29 -17 46t-48 17q-44 0 -94 -39v69q41 32 102 32q62 0 95 -32.5t33 -87.5q0 -35 -14.5 -64.5t-53.5 -79.5l-56 -70h132v-61h-253v6z" />
    <glyph glyph-name="uni00B3" unicode="&#xb3;" horiz-adv-x="376" 
d="M110 259.5q-28 6.5 -42 15.5v71q43 -29 96 -29q79 0 79 65q0 31 -18.5 48t-55.5 17q-34 0 -56 -15l-5 5l98 150h-135v61h240v-7l-99 -151q39 2 71 -24.5t32 -84.5q0 -63 -39.5 -95.5t-104.5 -32.5q-33 0 -61 6.5z" />
    <glyph glyph-name="fraction" unicode="&#x2044;" horiz-adv-x="453" 
d="M360 648h93l-360 -648h-93z" />
    <glyph glyph-name="onehalf" unicode="&#xbd;" horiz-adv-x="890" 
d="M170 569l-98 -45v61l162 73h6v-395h-70v306zM572 648h92l-360 -648h-92zM580 6l120 158q29 38 41 61t12 45q0 29 -17 46t-47 17q-48 0 -94 -39v69q41 32 101 32q62 0 95.5 -32.5t33.5 -87.5q0 -35 -14.5 -64t-54.5 -80l-56 -70h132v-61h-252v6z" />
    <glyph glyph-name="onequarter" unicode="&#xbc;" horiz-adv-x="890" 
d="M170 263v306l-98 -45v61l162 73h6v-395h-70zM666 648l-360 -648h-93l360 648h93zM818 65h-55v-65h-67v65h-187v7l248 323h6v-277h55v-53zM611 118h85v113z" />
    <glyph glyph-name="threequarters" unicode="&#xbe;" horiz-adv-x="890" 
d="M275.5 285.5q-39.5 -32.5 -104.5 -32.5q-33 0 -61 6.5t-42 15.5v71q43 -29 96 -29q79 0 79 65q0 31 -18.5 48t-55.5 17q-34 0 -56 -15l-5 5l98 150h-135v61h240v-7l-99 -151q39 2 71 -24.5t32 -84.5q0 -63 -39.5 -95.5zM665 648l-360 -648h-92l360 648h92zM818 65h-55
v-65h-67v65h-187v7l248 323h6v-277h55v-53zM611 118h85v113z" />
    <glyph glyph-name="asterisk" unicode="*" horiz-adv-x="373" 
d="M163 461l-91 -63l-30 53l101 48l-101 48l30 53l91 -63l-6 111h60l-7 -111l91 63l30 -53l-101 -48l101 -48l-30 -53l-91 63l7 -111h-60z" />
    <glyph glyph-name="backslash" unicode="\" horiz-adv-x="387" 
d="M11 648h93l283 -846h-93z" />
    <glyph glyph-name="periodcentered" unicode="&#xb7;" horiz-adv-x="259" 
d="M87.5 189q-16.5 17 -16.5 43q0 25 17 42t42 17t41.5 -17t16.5 -43t-16.5 -42.5t-41.5 -16.5q-26 0 -42.5 17z" />
    <glyph glyph-name="bullet" unicode="&#x2022;" horiz-adv-x="448" 
d="M148 155q-30 30 -30 77q0 45 31.5 75t75.5 30q46 0 75.5 -30t29.5 -76q0 -47 -30 -76.5t-75 -29.5q-47 0 -77 30z" />
    <glyph glyph-name="periodcentered.case" horiz-adv-x="259" 
d="M87.5 288q-16.5 17 -16.5 43q0 25 17 42t42 17t41.5 -17t16.5 -43t-16.5 -42.5t-41.5 -16.5q-26 0 -42.5 17z" />
    <glyph glyph-name="bullet.case" horiz-adv-x="448" 
d="M148 254q-30 30 -30 77q0 45 31.5 75t75.5 30q46 0 75.5 -30t29.5 -76q0 -47 -30 -76.5t-75 -29.5q-47 0 -77 30z" />
    <glyph glyph-name="exclamdown.case" horiz-adv-x="286" 
d="M95 0h96l-4 461h-88zM100.5 640q-16.5 -17 -16.5 -43q0 -25 17.5 -42t41.5 -17q26 0 42.5 17t16.5 43t-17 42.5t-42 16.5q-26 0 -42.5 -17z" />
    <glyph glyph-name="questiondown.case" horiz-adv-x="444" 
d="M211.5 556q-16.5 17 -16.5 43t17 42.5t42 16.5q26 0 42.5 -17t16.5 -42q0 -26 -17 -43t-42 -17q-26 0 -42.5 17zM101 39.5q-57 48.5 -57 134.5q0 81 48 127.5t117 53.5v107h89v-162q-72 -1 -116 -31.5t-44 -91.5q0 -51 34.5 -78t89.5 -27q47 0 89 18t58 35v-93
q-20 -15 -61 -28t-95 -13q-95 0 -152 48.5z" />
    <glyph glyph-name="colon" unicode=":" horiz-adv-x="259" 
d="M87.5 318q-16.5 17 -16.5 43q0 25 17 42t42 17t41.5 -17t16.5 -43t-16.5 -42.5t-41.5 -16.5q-26 0 -42.5 17zM87.5 8q-16.5 17 -16.5 43q0 25 17 42t42 17t41.5 -17t16.5 -43t-16.5 -42.5t-41.5 -16.5q-26 0 -42.5 17z" />
    <glyph glyph-name="comma" unicode="," horiz-adv-x="257" 
d="M97 -66.5q17 32.5 20 57.5q-26 0 -42.5 16t-16.5 42q0 28 17.5 44.5t46.5 16.5q32 0 51 -21.5t19 -62.5q0 -40 -22 -82t-58 -69h-60q28 26 45 58.5z" />
    <glyph glyph-name="ellipsis" unicode="&#x2026;" horiz-adv-x="686" 
d="M87.5 8q-16.5 17 -16.5 43q0 25 17 42t42 17t41.5 -17t16.5 -43t-16.5 -42.5t-41.5 -16.5q-26 0 -42.5 17zM301 7.5q-16 16.5 -16 43.5q0 25 17 42t42 17t41.5 -17t16.5 -43t-16.5 -42.5t-41.5 -16.5q-27 0 -43 16.5zM514.5 8q-16.5 17 -16.5 43q0 25 17 42t42 17
t41.5 -17t16.5 -43t-16.5 -42.5t-41.5 -16.5q-26 0 -42.5 17z" />
    <glyph glyph-name="exclam" unicode="!" horiz-adv-x="286" 
d="M95 648h96l-4 -461h-88zM100.5 8q-16.5 17 -16.5 43q0 25 17.5 42t41.5 17q26 0 42.5 -17t16.5 -43t-17 -42.5t-42 -16.5q-26 0 -42.5 17z" />
    <glyph glyph-name="exclamdown" unicode="&#xa1;" horiz-adv-x="286" 
d="M101 355.5q-17 16.5 -17 42.5t16.5 43t42.5 17q25 0 42 -16.5t17 -42.5q0 -27 -16.5 -43.5t-42.5 -16.5q-25 0 -42 16.5zM99 263h88l4 -461h-96z" />
    <glyph glyph-name="numbersign" unicode="#" horiz-adv-x="570" 
d="M95 169h-90l18 71h89l44 168h-91l18 71h90l43 169h88l-43 -169h126l43 169h87l-42 -169h91l-19 -71h-90l-43 -168h91l-19 -71h-90l-43 -169h-87l42 169h-126l-42 -169h-88zM326 240l43 168h-126l-43 -168h126z" />
    <glyph glyph-name="period" unicode="." horiz-adv-x="259" 
d="M87.5 8q-16.5 17 -16.5 43q0 25 17 42t42 17t41.5 -17t16.5 -43t-16.5 -42.5t-41.5 -16.5q-26 0 -42.5 17z" />
    <glyph glyph-name="question" unicode="?" horiz-adv-x="444" 
d="M145 349q72 1 116.5 31.5t44.5 91.5q0 51 -34.5 78t-89.5 27q-47 0 -89 -18t-58 -35v93q20 15 61 28t95 13q95 0 151.5 -48.5t56.5 -134.5q0 -81 -47.5 -127.5t-116.5 -53.5v-107h-90v162zM147.5 8q-16.5 17 -16.5 42q0 27 17 43.5t42 16.5t41.5 -17t16.5 -43
t-16.5 -42.5t-42.5 -16.5q-25 0 -41.5 17z" />
    <glyph glyph-name="questiondown" unicode="&#xbf;" horiz-adv-x="444" 
d="M211.5 355.5q-16.5 16.5 -16.5 43.5q0 26 17 42.5t42 16.5q26 0 42.5 -17t16.5 -42q0 -26 -17 -43t-42 -17q-26 0 -42.5 16.5zM101 -159.5q-57 48.5 -57 135.5q0 80 48 126.5t117 53.5v107h89v-162q-72 -1 -116 -31.5t-44 -90.5q0 -51 34 -78.5t90 -27.5q47 0 88.5 18
t58.5 35v-92q-20 -15 -61 -28.5t-95 -13.5q-95 0 -152 48.5z" />
    <glyph glyph-name="quotedbl" unicode="&#x22;" horiz-adv-x="424" 
d="M84 648h97l-12 -208h-73zM244 648h96l-11 -208h-73z" />
    <glyph glyph-name="quotesingle" unicode="'" horiz-adv-x="265" 
d="M84 648h97l-12 -208h-73z" />
    <glyph glyph-name="semicolon" unicode=";" horiz-adv-x="249" 
d="M86.5 318q-16.5 17 -16.5 43q0 25 17 42t42 17t41.5 -17t16.5 -43t-16.5 -42.5t-41.5 -16.5q-26 0 -42.5 17zM175 88.5q19 -21.5 19 -62.5q0 -40 -22 -82t-59 -69h-59q27 25 44 57t22 59q-27 0 -43.5 16t-16.5 42q0 28 17.5 44.5t46.5 16.5q32 0 51 -21.5z" />
    <glyph glyph-name="slash" unicode="/" horiz-adv-x="387" 
d="M283 648h93l-283 -846h-93z" />
    <glyph glyph-name="numbersign.tf" 
d="M109 169h-90l18 71h89l44 168h-91l18 71h90l43 169h88l-43 -169h126l43 169h87l-42 -169h91l-19 -71h-90l-43 -168h91l-19 -71h-90l-43 -169h-87l42 169h-126l-42 -169h-88zM340 240l43 168h-126l-43 -168h126z" />
    <glyph glyph-name="underscore" unicode="_" horiz-adv-x="392" 
d="M0 -97h392v-73h-392v73z" />
    <glyph glyph-name="braceleft" unicode="{" horiz-adv-x="384" 
d="M127 -164q-47 43 -47 116q0 35 10 62t29 58q15 28 22 45.5t7 37.5q0 35 -21 56t-57 24v17q35 2 56.5 20.5t21.5 51.5q0 19 -7 35t-22 41q-19 32 -29 57t-10 61q0 73 47 116.5t135 43.5q60 0 99 -18v-73q-17 10 -41.5 15.5t-47.5 5.5q-49 0 -75.5 -25.5t-26.5 -71.5
q0 -25 8.5 -45.5t25.5 -48.5t25 -47t8 -42q0 -40 -22.5 -59.5t-51.5 -24.5q27 -5 50.5 -28.5t23.5 -64.5q0 -24 -8 -43t-25 -52q-17 -28 -25.5 -50t-8.5 -47q0 -46 27 -70.5t75 -24.5q23 0 47 5.5t42 15.5v-74q-42 -18 -99 -18q-88 0 -135 43z" />
    <glyph glyph-name="braceright" unicode="}" horiz-adv-x="384" 
d="M23 -189v74q18 -10 42 -15.5t47 -5.5q48 0 75 24.5t27 70.5q0 25 -8.5 47.5t-25.5 51.5q-16 28 -24.5 48.5t-8.5 44.5q0 41 23.5 64.5t50.5 28.5q-29 5 -51.5 24.5t-22.5 59.5q0 23 8.5 42.5t24.5 45.5q17 30 25.5 50t8.5 45q0 46 -26.5 71.5t-75.5 25.5
q-23 0 -47.5 -5.5t-41.5 -15.5v73q40 18 100 18q87 0 134 -43.5t47 -116.5q0 -36 -10 -61.5t-29 -58.5q-14 -23 -21 -39t-7 -35q0 -33 21 -51.5t56 -20.5v-17q-36 -3 -56.5 -24t-20.5 -56q0 -19 7 -36.5t22 -44.5q19 -34 28.5 -60.5t9.5 -61.5q0 -73 -47 -116t-134 -43
q-56 0 -100 18z" />
    <glyph glyph-name="bracketleft" unicode="[" horiz-adv-x="317" 
d="M84 648h210v-77h-120v-692h120v-77h-210v846z" />
    <glyph glyph-name="bracketright" unicode="]" horiz-adv-x="317" 
d="M23 -121h120v692h-120v77h210v-846h-210v77z" />
    <glyph glyph-name="braceleft.case" horiz-adv-x="384" 
d="M127 -52q-47 43 -47 116q0 35 10 62t29 58q15 28 22 45.5t7 37.5q0 35 -21 56t-57 24v17q35 2 56.5 20.5t21.5 51.5q0 19 -7 35t-22 41q-19 32 -29 57t-10 61q0 73 47 116.5t135 43.5q60 0 99 -18v-73q-17 10 -41.5 15.5t-47.5 5.5q-49 0 -75.5 -25.5t-26.5 -71.5
q0 -25 8.5 -45.5t25.5 -48.5t25 -47t8 -42q0 -40 -22.5 -59.5t-51.5 -24.5q27 -5 50.5 -28.5t23.5 -64.5q0 -24 -8 -43t-25 -52q-17 -28 -25.5 -50t-8.5 -47q0 -46 27 -70.5t75 -24.5q23 0 47 5.5t42 15.5v-74q-42 -18 -99 -18q-88 0 -135 43z" />
    <glyph glyph-name="braceright.case" horiz-adv-x="384" 
d="M23 -77v74q18 -10 42 -15.5t47 -5.5q48 0 75 24.5t27 70.5q0 25 -8.5 47.5t-25.5 51.5q-16 28 -24.5 48.5t-8.5 44.5q0 41 23.5 64.5t50.5 28.5q-29 5 -51.5 24.5t-22.5 59.5q0 23 8.5 42.5t24.5 45.5q17 30 25.5 50t8.5 45q0 46 -26.5 71.5t-75.5 25.5q-23 0 -47.5 -5.5
t-41.5 -15.5v73q40 18 100 18q87 0 134 -43.5t47 -116.5q0 -36 -10 -61.5t-29 -58.5q-14 -23 -21 -39t-7 -35q0 -33 21 -51.5t56 -20.5v-17q-36 -3 -56.5 -24t-20.5 -56q0 -19 7 -36.5t22 -44.5q19 -34 28.5 -60.5t9.5 -61.5q0 -73 -47 -116t-134 -43q-56 0 -100 18z" />
    <glyph glyph-name="bracketleft.case" horiz-adv-x="317" 
d="M84 751h210v-77h-120v-692h120v-77h-210v846z" />
    <glyph glyph-name="bracketright.case" horiz-adv-x="317" 
d="M23 -18h120v692h-120v77h210v-846h-210v77z" />
    <glyph glyph-name="parenleft.case" horiz-adv-x="319" 
d="M92.5 78q-52.5 105 -52.5 248t53 248.5t137 176.5h113q-97 -81 -151.5 -183t-54.5 -244q0 -122 47.5 -224t158.5 -195h-115q-83 68 -135.5 173z" />
    <glyph glyph-name="parenright.case" horiz-adv-x="319" 
d="M199.5 100q47.5 102 47.5 224q0 142 -54.5 243.5t-152.5 183.5h114q84 -70 136.5 -176t52.5 -249t-52.5 -248t-134.5 -173h-116q112 93 159.5 195z" />
    <glyph glyph-name="parenleft" unicode="(" horiz-adv-x="319" 
d="M92.5 -25q-52.5 105 -52.5 248t53 248.5t137 176.5h113q-97 -81 -151.5 -183t-54.5 -244q0 -122 47.5 -224t158.5 -195h-115q-83 68 -135.5 173z" />
    <glyph glyph-name="parenright" unicode=")" horiz-adv-x="319" 
d="M135.5 -3q47.5 102 47.5 224q0 142 -54.5 243.5t-152.5 183.5h114q84 -70 136.5 -176t52.5 -249t-52.5 -248t-134.5 -173h-116q112 93 159.5 195z" />
    <glyph glyph-name="emdash.case" horiz-adv-x="790" 
d="M40 368h709v-75h-709v75z" />
    <glyph glyph-name="endash.case" horiz-adv-x="473" 
d="M40 368h393v-75h-393v75z" />
    <glyph glyph-name="hyphen.case" horiz-adv-x="273" 
d="M40 367h192v-73h-192v73z" />
    <glyph glyph-name="uni00AD.case" horiz-adv-x="273" 
d="M40 367h192v-73h-192v73z" />
    <glyph glyph-name="emdash" unicode="&#x2014;" horiz-adv-x="790" 
d="M40 281h709v-75h-709v75z" />
    <glyph glyph-name="endash" unicode="&#x2013;" horiz-adv-x="473" 
d="M40 281h393v-75h-393v75z" />
    <glyph glyph-name="hyphen" unicode="-" horiz-adv-x="273" 
d="M40 280h192v-73h-192v73z" />
    <glyph glyph-name="uni00AD" unicode="&#xad;" horiz-adv-x="273" 
d="M40 280h192v-73h-192v73z" />
    <glyph glyph-name="guillemotleft.case" horiz-adv-x="574" 
d="M40 330l140 157h105l-144 -157l144 -157h-105zM258 330l140 157h105l-144 -157l144 -157h-105z" />
    <glyph glyph-name="guillemotright.case" horiz-adv-x="574" 
d="M215 330l-144 157h104l140 -157l-140 -157h-104zM433 330l-144 157h104l140 -157l-140 -157h-104z" />
    <glyph glyph-name="guilsinglleft.case" horiz-adv-x="356" 
d="M40 330l140 157h105l-144 -157l144 -157h-105z" />
    <glyph glyph-name="guilsinglright.case" horiz-adv-x="356" 
d="M185 330l-144 157h104l140 -157l-140 -157h-104z" />
    <glyph glyph-name="guillemotleft" unicode="&#xab;" horiz-adv-x="573" 
d="M40 231l140 157h105l-144 -157l144 -157h-105zM257 231l140 157h105l-144 -157l144 -157h-105z" />
    <glyph glyph-name="guillemotright" unicode="&#xbb;" horiz-adv-x="573" 
d="M215 231l-144 157h104l140 -157l-140 -157h-104zM432 231l-144 157h104l140 -157l-140 -157h-104z" />
    <glyph glyph-name="guilsinglleft" unicode="&#x2039;" horiz-adv-x="356" 
d="M40 231l140 157h105l-144 -157l144 -157h-105z" />
    <glyph glyph-name="guilsinglright" unicode="&#x203a;" horiz-adv-x="356" 
d="M215 231l-144 157h104l140 -157l-140 -157h-104z" />
    <glyph glyph-name="quotedblbase" unicode="&#x201e;" horiz-adv-x="434" 
d="M101 -78.5q17 32.5 20 57.5q-26 0 -42.5 16t-16.5 42q0 28 17.5 44.5t46.5 16.5q32 0 51 -21.5t19 -62.5q0 -40 -22 -82t-58 -69h-60q28 26 45 58.5zM278 -78.5q17 32.5 20 57.5q-26 0 -42.5 16t-16.5 42q0 28 17.5 44.5t46.5 16.5q32 0 51 -21.5t19 -62.5q0 -40 -22 -82
t-58 -69h-60q28 26 45 58.5z" />
    <glyph glyph-name="quotedblleft" unicode="&#x201c;" horiz-adv-x="434" 
d="M156 589.5q-17 -32.5 -20 -57.5q26 0 42.5 -16t16.5 -42q0 -28 -17.5 -44.5t-46.5 -16.5q-32 0 -51 21.5t-19 62.5q0 40 22 82t58 69h60q-28 -26 -45 -58.5zM333 589.5q-17 -32.5 -20 -57.5q26 0 42.5 -16t16.5 -42q0 -28 -17.5 -44.5t-46.5 -16.5q-32 0 -51 21.5
t-19 62.5q0 40 22 82t58 69h60q-28 -26 -45 -58.5z" />
    <glyph glyph-name="quotedblright" unicode="&#x201d;" horiz-adv-x="434" 
d="M101 477.5q17 32.5 20 57.5q-26 0 -42.5 16t-16.5 42q0 28 17.5 44.5t46.5 16.5q32 0 51 -21.5t19 -62.5q0 -40 -22 -82t-58 -69h-60q28 26 45 58.5zM278 477.5q17 32.5 20 57.5q-26 0 -42.5 16t-16.5 42q0 28 17.5 44.5t46.5 16.5q32 0 51 -21.5t19 -62.5q0 -40 -22 -82
t-58 -69h-60q28 26 45 58.5z" />
    <glyph glyph-name="quoteleft" unicode="&#x2018;" horiz-adv-x="257" 
d="M156 589.5q-17 -32.5 -20 -57.5q26 0 42.5 -16t16.5 -42q0 -28 -17.5 -44.5t-46.5 -16.5q-32 0 -51 21.5t-19 62.5q0 40 22 82t58 69h60q-28 -26 -45 -58.5z" />
    <glyph glyph-name="quoteright" unicode="&#x2019;" horiz-adv-x="257" 
d="M101 477.5q17 32.5 20 57.5q-26 0 -42.5 16t-16.5 42q0 28 17.5 44.5t46.5 16.5q32 0 51 -21.5t19 -62.5q0 -40 -22 -82t-58 -69h-60q28 26 45 58.5z" />
    <glyph glyph-name="quotesinglbase" unicode="&#x201a;" horiz-adv-x="257" 
d="M101 -78.5q17 32.5 20 57.5q-26 0 -42.5 16t-16.5 42q0 28 17.5 44.5t46.5 16.5q32 0 51 -21.5t19 -62.5q0 -40 -22 -82t-58 -69h-60q28 26 45 58.5z" />
    <glyph glyph-name="anoteleia" unicode="&#x387;" horiz-adv-x="259" 
d="M87.5 347q-16.5 17 -16.5 43q0 25 17 42t42 17t41.5 -17t16.5 -43t-16.5 -42.5t-41.5 -16.5q-26 0 -42.5 17z" />
    <glyph glyph-name="uni037E" unicode="&#x37e;" horiz-adv-x="249" 
d="M86.5 318q-16.5 17 -16.5 43q0 25 17 42t42 17t41.5 -17t16.5 -43t-16.5 -42.5t-41.5 -16.5q-26 0 -42.5 17zM175 88.5q19 -21.5 19 -62.5q0 -40 -22 -82t-59 -69h-59q27 25 44 57t22 59q-27 0 -43.5 16t-16.5 42q0 28 17.5 44.5t46.5 16.5q32 0 51 -21.5z" />
    <glyph glyph-name="uni2003" unicode="&#x2003;" horiz-adv-x="790" 
 />
    <glyph glyph-name="uni2002" unicode="&#x2002;" horiz-adv-x="473" 
 />
    <glyph glyph-name="uni200A" unicode="&#x200a;" horiz-adv-x="50" 
 />
    <glyph glyph-name="uni00A0" unicode="&#xa0;" horiz-adv-x="210" 
 />
    <glyph glyph-name="uni2009" unicode="&#x2009;" horiz-adv-x="158" 
 />
    <glyph glyph-name="cent" unicode="&#xa2;" horiz-adv-x="476" 
d="M273 90q-95 6 -155.5 65t-60.5 164q0 103 58.5 167.5t157.5 69.5v92h51v-91q33 -1 61 -8.5t44 -15.5v-85q-54 32 -105 34v-316q34 2 63.5 13.5t45.5 23.5v-85q-15 -10 -44.5 -18t-64.5 -9v-91h-51v90zM273 483q-52 -6 -87.5 -50t-35.5 -110q0 -63 32 -106.5t91 -49.5v316
z" />
    <glyph glyph-name="currency" unicode="&#xa4;" 
d="M89 167l64 65q-24 38 -24 85q0 45 25 86l-65 64l60 61l65 -65q40 24 85 24q46 0 84 -25l66 66l59 -61l-65 -65q25 -39 25 -85q0 -45 -24 -85l64 -65l-60 -60l-65 64q-40 -24 -84 -24q-45 0 -84 23l-66 -63zM373.5 241q29.5 28 29.5 75t-30 76t-74 29q-45 0 -74.5 -29
t-29.5 -76q0 -46 29.5 -74.5t74.5 -28.5t74.5 28z" />
    <glyph glyph-name="dollar" unicode="$" horiz-adv-x="517" 
d="M236 2q-109 4 -173 37v87q32 -20 78 -33.5t95 -15.5v214q-60 19 -98 39t-61 55t-23 90q0 77 48.5 121t133.5 51v101h51v-101q44 -3 80 -12.5t59 -20.5v-89q-30 19 -66 31.5t-73 15.5v-204q53 -18 91.5 -38.5t66 -57.5t27.5 -93q0 -84 -49.5 -127.5t-135.5 -49.5v-92h-51
v92zM236 571q-42 -5 -66 -28.5t-24 -62.5q0 -38 23 -59.5t67 -37.5v188zM355.5 107.5q23.5 24.5 23.5 64.5t-23 63.5t-69 40.5v-198q45 5 68.5 29.5z" />
    <glyph glyph-name="Euro" unicode="&#x20ac;" horiz-adv-x="598" 
d="M194 48.5q-78 58.5 -97 168.5h-88v71h80q-2 18 -2 35q0 18 2 34h-80v71h89q21 104 97 167t204 63q52 0 96.5 -10t69.5 -23v-90q-27 17 -70.5 29t-90.5 12q-86 0 -138.5 -40t-69.5 -108h214v-71h-225q-2 -12 -2 -32q0 -23 2 -37h225v-71h-216q18 -72 75.5 -107.5
t136.5 -35.5q98 0 166 36v-89q-23 -12 -72.5 -21.5t-101.5 -9.5q-126 0 -204 58.5z" />
    <glyph glyph-name="florin" unicode="&#x192;" horiz-adv-x="463" 
d="M-37 -196v78q32 -10 56 -10q32 0 50 13t27.5 39t17.5 75l49 280h-94v78h108l19 109q18 97 59 144.5t124 47.5q40 0 68 -11v-81q-28 11 -56 11q-45 0 -67.5 -29t-34.5 -96l-17 -95h129v-78h-143l-51 -294q-11 -61 -28 -101.5t-52.5 -65.5t-96.5 -25q-41 0 -67 11z" />
    <glyph glyph-name="uni20B4" unicode="&#x20b4;" horiz-adv-x="541" 
d="M391 366q-29 -25 -66.5 -48t-45.5 -28h207v-67h-288q-19 -27 -19 -57q0 -46 31 -69.5t88 -23.5q48 0 92 14.5t77 36.5v-95q-32 -17 -79.5 -28t-106.5 -11q-89 0 -143.5 40.5t-54.5 119.5q0 38 15 73h-43v67h95q28 26 92 64l19 12h-206v68h292q20 28 20 57
q0 40 -29.5 62.5t-81.5 22.5q-38 0 -78.5 -13t-73.5 -33v96q25 12 69.5 22t95.5 10q94 0 143.5 -40.5t49.5 -110.5q0 -39 -16 -73h40v-68h-95z" />
    <glyph glyph-name="uni20BD" unicode="&#x20bd;" horiz-adv-x="636" 
d="M232 225v-63h127v-78h-127v-84h-93v84h-83v78h83v63h-83v78h83v345h190q126 0 197 -44.5t71 -166.5q0 -90 -41.5 -136.5t-101 -61t-134.5 -14.5h-88zM452 542q-50 27 -135 27h-85v-266h85q84 0 134.5 28t50.5 106t-50 105z" />
    <glyph glyph-name="cent.ss01" horiz-adv-x="476" 
d="M264 92q-92 8 -149.5 66.5t-57.5 160.5q0 100 55.5 163.5t151.5 73.5v92h73v-92q53 -4 92 -23v-85q-58 36 -126 36q-72 0 -112.5 -44t-40.5 -117q0 -71 39 -114t118 -44q42 0 75 12t51 26v-85q-13 -9 -38.5 -16.5t-57.5 -9.5v-92h-73v92z" />
    <glyph glyph-name="dollar.ss01" horiz-adv-x="517" 
d="M225 2q-103 6 -162 37v87q33 -22 88 -36t103 -14q64 0 94.5 25t30.5 71q0 34 -15 54.5t-39 32t-66 25.5q-72 22 -113.5 42.5t-66.5 55.5t-25 92q0 76 44.5 118.5t126.5 53.5v102h74v-102q73 -5 127 -32v-89q-33 21 -76 34.5t-86 13.5q-56 0 -87 -24.5t-31 -69.5
q0 -30 13.5 -48.5t38.5 -30t71 -26.5q64 -21 103.5 -40t69.5 -57.5t30 -100.5q0 -76 -46 -121t-127 -53v-92h-74v92z" />
    <glyph glyph-name="cent.tf.ss01" 
d="M315 92q-92 8 -149.5 66.5t-57.5 160.5q0 100 55.5 163.5t151.5 73.5v92h73v-92q53 -4 92 -23v-85q-58 36 -126 36q-72 0 -112.5 -44t-40.5 -117q0 -71 39 -114t118 -44q42 0 75 12t51 26v-85q-13 -9 -38.5 -16.5t-57.5 -9.5v-92h-73v92z" />
    <glyph glyph-name="dollar.tf.ss01" 
d="M268 2q-103 6 -162 37v87q33 -22 88 -36t103 -14q64 0 94.5 25t30.5 71q0 34 -15 54.5t-39 32t-66 25.5q-72 22 -113.5 42.5t-66.5 55.5t-25 92q0 76 44.5 118.5t126.5 53.5v102h74v-102q73 -5 127 -32v-89q-33 21 -76 34.5t-86 13.5q-56 0 -87 -24.5t-31 -69.5
q0 -30 13.5 -48.5t38.5 -30t71 -26.5q64 -21 103.5 -40t69.5 -57.5t30 -100.5q0 -76 -46 -121t-127 -53v-92h-74v92z" />
    <glyph glyph-name="sterling" unicode="&#xa3;" horiz-adv-x="504" 
d="M49 9q65 72 95 127t30 101q0 24 -8 42h-107v78h67q-33 49 -33 109q0 86 56 139t154 53q45 0 82.5 -11.5t61.5 -28.5v-92q-17 17 -54 33.5t-81 16.5q-59 0 -91.5 -31.5t-32.5 -85.5q0 -27 10.5 -51.5t30.5 -50.5h162v-78h-132q8 -19 8 -42q0 -37 -17 -77.5t-49 -78.5h261
v-81h-413v9z" />
    <glyph glyph-name="cent.tf" 
d="M324 90q-95 6 -155.5 65t-60.5 164q0 103 58.5 167.5t157.5 69.5v92h51v-91q33 -1 61 -8.5t44 -15.5v-85q-54 32 -105 34v-316q34 2 63.5 13.5t45.5 23.5v-85q-15 -10 -44.5 -18t-64.5 -9v-91h-51v90zM324 483q-52 -6 -87.5 -50t-35.5 -110q0 -63 32 -106.5t91 -49.5v316
z" />
    <glyph glyph-name="dollar.tf" 
d="M279 2q-109 4 -173 37v87q32 -20 78 -33.5t95 -15.5v214q-60 19 -98 39t-61 55t-23 90q0 77 48.5 121t133.5 51v101h51v-101q44 -3 80 -12.5t59 -20.5v-89q-30 19 -66 31.5t-73 15.5v-204q53 -18 91.5 -38.5t66 -57.5t27.5 -93q0 -84 -49.5 -127.5t-135.5 -49.5v-92h-51
v92zM279 571q-42 -5 -66 -28.5t-24 -62.5q0 -38 23 -59.5t67 -37.5v188zM398.5 107.5q23.5 24.5 23.5 64.5t-23 63.5t-69 40.5v-198q45 5 68.5 29.5z" />
    <glyph glyph-name="Euro.tf" 
d="M199 48.5q-78 58.5 -97 168.5h-88v71h80q-2 18 -2 35q0 18 2 34h-80v71h89q21 104 97 167t204 63q52 0 96.5 -10t69.5 -23v-90q-27 17 -70.5 29t-90.5 12q-86 0 -138.5 -40t-69.5 -108h214v-71h-225q-2 -12 -2 -32q0 -23 2 -37h225v-71h-216q18 -72 75.5 -107.5
t136.5 -35.5q98 0 166 36v-89q-23 -12 -72.5 -21.5t-101.5 -9.5q-126 0 -204 58.5z" />
    <glyph glyph-name="florin.tf" 
d="M42 -196v78q32 -10 56 -10q32 0 50 13t27.5 39t17.5 75l49 280h-94v78h108l19 109q18 97 59 144.5t124 47.5q40 0 68 -11v-81q-28 11 -56 11q-45 0 -67.5 -29t-34.5 -96l-17 -95h129v-78h-143l-51 -294q-11 -61 -28 -101.5t-52.5 -65.5t-96.5 -25q-41 0 -67 11z" />
    <glyph glyph-name="uni20B4.tf" 
d="M421 366q-29 -25 -66.5 -48t-45.5 -28h207v-67h-288q-19 -27 -19 -57q0 -46 31 -69.5t88 -23.5q48 0 92 14.5t77 36.5v-95q-32 -17 -79.5 -28t-106.5 -11q-89 0 -143.5 40.5t-54.5 119.5q0 38 15 73h-43v67h95q28 26 92 64l19 12h-206v68h292q20 28 20 57
q0 40 -29.5 62.5t-81.5 22.5q-38 0 -78.5 -13t-73.5 -33v96q25 12 69.5 22t95.5 10q94 0 143.5 -40.5t49.5 -110.5q0 -39 -16 -73h40v-68h-95z" />
    <glyph glyph-name="uni20BD.tf" 
d="M200 225v-63h127v-78h-127v-84h-93v84h-83v78h83v63h-83v78h83v345h190q126 0 197 -44.5t71 -166.5q0 -90 -41.5 -136.5t-101 -61t-134.5 -14.5h-88zM420 542q-50 27 -135 27h-85v-266h85q84 0 134.5 28t50.5 106t-50 105z" />
    <glyph glyph-name="sterling.tf" 
d="M100 9q65 72 95 127t30 101q0 24 -8 42h-107v78h67q-33 49 -33 109q0 86 56 139t154 53q45 0 82.5 -11.5t61.5 -28.5v-92q-17 17 -54 33.5t-81 16.5q-59 0 -91.5 -31.5t-32.5 -85.5q0 -27 10.5 -51.5t30.5 -50.5h162v-78h-132q8 -19 8 -42q0 -37 -17 -77.5t-49 -78.5h261
v-81h-413v9z" />
    <glyph glyph-name="yen.tf" 
d="M252 178h-144v71h148l-36 68h-126v71h85l-136 260h104l153 -318l154 318h100l-136 -260h84v-71h-126l-36 -68h148v-71h-145v-178h-91v178z" />
    <glyph glyph-name="yen" unicode="&#xa5;" horiz-adv-x="530" 
d="M218 178h-144v71h148l-36 68h-126v71h85l-136 260h104l153 -318l154 318h100l-136 -260h84v-71h-126l-36 -68h148v-71h-145v-178h-91v178z" />
    <glyph glyph-name="dotmath" unicode="&#x22c5;" horiz-adv-x="293" 
d="M104.5 189q-16.5 17 -16.5 43q0 25 17 42t42 17t41.5 -17t16.5 -43t-16.5 -42.5t-41.5 -16.5q-26 0 -42.5 17z" />
    <glyph glyph-name="plus" unicode="+" 
d="M258 189h-167v74h167v170h81v-170h168v-74h-168v-172h-81v172z" />
    <glyph glyph-name="minus" unicode="&#x2212;" 
d="M91 263h416v-74h-416v74z" />
    <glyph glyph-name="multiply" unicode="&#xd7;" 
d="M88 76l150 150l-150 150l61 60l150 -150l150 150l60 -60l-150 -150l150 -150l-60 -61l-150 150l-150 -150z" />
    <glyph glyph-name="divide" unicode="&#xf7;" 
d="M259.5 352q-15.5 16 -15.5 41t16 41t40 16t40 -16.5t16 -41.5t-16 -40.5t-40 -15.5q-25 0 -40.5 16zM90 263h416v-74h-416v74zM259.5 19q-15.5 16 -15.5 41t16 41t40 16t40 -16.5t16 -41.5t-16 -40.5t-40 -15.5q-25 0 -40.5 16z" />
    <glyph glyph-name="equal" unicode="=" 
d="M91 351h416v-74h-416v74zM91 175h416v-74h-416v74z" />
    <glyph glyph-name="notequal" unicode="&#x2260;" 
d="M200 101h-109v74h140l52 102h-192v74h225l48 92h76l-48 -92h115v-74h-148l-52 -102h200v-74h-231l-48 -94h-76z" />
    <glyph glyph-name="greater" unicode="&#x3e;" 
d="M90 92l269 132l-269 133v91l416 -217v-10l-416 -217v88z" />
    <glyph glyph-name="less" unicode="&#x3c;" 
d="M90 221v10l416 217v-88l-269 -132l269 -133v-91z" />
    <glyph glyph-name="greaterequal" unicode="&#x2265;" 
d="M91 217l269 132l-269 133v91l416 -217v-10l-416 -217v88zM91 74h416v-74h-416v74z" />
    <glyph glyph-name="lessequal" unicode="&#x2264;" 
d="M91 346v10l416 217v-88l-269 -132l269 -133v-91zM91 74h416v-74h-416v74z" />
    <glyph glyph-name="plusminus" unicode="&#xb1;" 
d="M258 290h-167v73h167v171h81v-171h168v-73h-168v-172h-81v172zM91 74h416v-74h-416v74z" />
    <glyph glyph-name="approxequal" unicode="&#x2248;" 
d="M334 83q-24 8 -54 23q-23 12 -39.5 18t-32.5 6q-24 0 -36 -13.5t-13 -34.5h-68q1 54 31.5 86.5t86.5 32.5q28 0 49.5 -7.5t50.5 -22.5q25 -13 41.5 -19t36.5 -6q25 0 37.5 14t14.5 34h68q-1 -54 -32 -86.5t-88 -32.5q-29 0 -53 8zM334 259q-24 8 -54 23q-23 12 -39.5 18
t-32.5 6q-24 0 -36 -13.5t-13 -34.5h-68q1 54 31.5 86.5t86.5 32.5q28 0 49.5 -7.5t50.5 -22.5q25 -13 41.5 -19t36.5 -6q25 0 37.5 14t14.5 34h68q-1 -54 -32 -86.5t-88 -32.5q-29 0 -53 8z" />
    <glyph glyph-name="asciitilde" unicode="~" 
d="M334 171q-24 8 -54 23q-23 12 -39.5 18t-32.5 6q-24 0 -36 -13.5t-13 -34.5h-68q1 54 31.5 86.5t86.5 32.5q28 0 49.5 -7.5t50.5 -22.5q25 -13 41.5 -19t36.5 -6q25 0 37.5 14t14.5 34h68q-1 -54 -32 -86.5t-88 -32.5q-29 0 -53 8z" />
    <glyph glyph-name="logicalnot" unicode="&#xac;" 
d="M425 278h-334v73h416v-251h-82v178z" />
    <glyph glyph-name="infinity" unicode="&#x221e;" horiz-adv-x="687" 
d="M82 209q-42 40 -42 116q0 75 42.5 114.5t108.5 39.5q47 0 86.5 -25.5t65.5 -74.5q27 49 67 74.5t86 25.5q66 0 108 -39.5t42 -114.5q0 -76 -41.5 -116t-108.5 -40q-46 0 -86 26.5t-67 75.5q-26 -49 -66 -75.5t-86 -26.5q-67 0 -109 40zM256.5 263.5q24.5 20.5 46.5 61.5
q-22 41 -46.5 61t-58.5 20q-36 0 -56.5 -22t-20.5 -60q0 -37 21 -59t57 -22q33 0 57.5 20.5zM544.5 264.5q20.5 21.5 20.5 59.5t-20 60t-56 22q-34 0 -58.5 -20t-46.5 -61q22 -41 46.5 -61.5t57.5 -20.5q36 0 56.5 21.5z" />
    <glyph glyph-name="integral" unicode="&#x222b;" horiz-adv-x="378" 
d="M51.5 -204q-22.5 3 -38.5 9v76q30 -12 65 -12q43 0 61 27t18 92v491q0 90 39 134.5t124 44.5q39 0 69 -10v-79q-27 11 -60 11q-46 0 -64 -26t-18 -81v-472q0 -69 -11.5 -113t-45 -69.5t-97.5 -25.5q-19 0 -41.5 3z" />
    <glyph glyph-name="uni2126" unicode="&#x2126;" horiz-adv-x="791" 
d="M685 179.5q-34 -63.5 -97 -98.5h131v-81h-268v81q77 21 125 84.5t48 160.5q0 72 -29 128t-81 87t-118 31t-118.5 -31.5t-82 -87t-29.5 -127.5q0 -97 48.5 -160.5t125.5 -84.5v-81h-269v81h130q-62 36 -96 99t-34 144q0 96 39.5 172t113 119t173.5 43t172.5 -43t111 -118
t38.5 -170q0 -84 -34 -147.5z" />
    <glyph glyph-name="uni2206" unicode="&#x2206;" horiz-adv-x="644" 
d="M317 658h10l295 -658h-600zM486 81l-165 385l-166 -385h331z" />
    <glyph glyph-name="product" unicode="&#x220f;" horiz-adv-x="780" 
d="M159 568h-103v80h668v-80h-103v-766h-94v766h-274v-766h-94v766z" />
    <glyph glyph-name="summation" unicode="&#x2211;" horiz-adv-x="560" 
d="M47 10l245 317l-242 311v10h467v-80h-299l188 -241l-190 -246h311v-81h-480v10z" />
    <glyph glyph-name="radical" unicode="&#x221a;" horiz-adv-x="588" 
d="M160 241h-101v73h165l77 -199l191 533h93l-239 -648h-89z" />
    <glyph glyph-name="uni00B5" unicode="&#xb5;" horiz-adv-x="536" 
d="M466 449v-449h-83l-2 64q-20 -33 -54 -48.5t-73 -15.5q-29 0 -54.5 8.5t-40.5 24.5v-231h-88v647h90v-242q0 -61 21 -97t79 -36q62 0 88.5 44.5t26.5 125.5v205h90z" />
    <glyph glyph-name="partialdiff" unicode="&#x2202;" horiz-adv-x="571" 
d="M152 20.5q-54 29.5 -83 82t-29 121.5q0 67 27 120t78.5 83.5t123.5 30.5q57 0 98.5 -22t63.5 -59q-9 119 -59 171.5t-136 52.5q-32 0 -62 -6t-45 -13v79q16 7 46.5 12t65.5 5q131 0 210.5 -82t79.5 -290q0 -148 -64 -231.5t-189 -83.5q-72 0 -126 29.5zM383.5 112.5
q40.5 43.5 40.5 115.5q0 69 -40.5 111t-104.5 42q-67 0 -106 -45t-39 -113q0 -69 40 -111.5t105 -42.5q64 0 104.5 43.5z" />
    <glyph glyph-name="percent" unicode="%" horiz-adv-x="871" 
d="M93 385.5q-45 42.5 -45 114.5q0 49 21.5 84.5t58 54.5t79.5 19t79.5 -18.5t58.5 -54t22 -84.5q0 -73 -45 -115.5t-115 -42.5q-69 0 -114 42.5zM569 648h93l-360 -648h-93zM271.5 432q25.5 25 25.5 69q0 45 -25.5 69.5t-64.5 24.5q-38 0 -63.5 -25.5t-25.5 -68.5
q0 -44 25 -69t64 -25t64.5 25zM549 32q-45 42 -45 115q0 49 21.5 84.5t58 54.5t80.5 19q43 0 79.5 -18.5t58 -54t21.5 -84.5q0 -73 -45 -115.5t-114 -42.5q-70 0 -115 42zM728 79q25 25 25 69q0 45 -25.5 69.5t-63.5 24.5q-39 0 -64.5 -25.5t-25.5 -69.5q0 -43 25.5 -68
t64.5 -25t64 25z" />
    <glyph glyph-name="perthousand" unicode="&#x2030;" horiz-adv-x="1264" 
d="M93 385.5q-45 42.5 -45 114.5q0 49 21.5 84.5t58 54.5t79.5 19t79.5 -18.5t58.5 -54t22 -84.5q0 -73 -45 -115.5t-115 -42.5q-69 0 -114 42.5zM569 648h93l-360 -648h-93zM271.5 432q25.5 25 25.5 69q0 45 -25.5 69.5t-64.5 24.5q-38 0 -63.5 -25.5t-25.5 -68.5
q0 -44 25 -69t64 -25t64.5 25zM549 32q-45 42 -45 115q0 49 21.5 84.5t58 54.5t80.5 19q43 0 79.5 -18.5t58 -54t21.5 -84.5q0 -73 -45 -115.5t-114 -42.5q-70 0 -115 42zM942 32q-45 42 -45 115q0 49 21.5 84.5t58 54.5t80.5 19q43 0 79.5 -18.5t58 -54t21.5 -84.5
q0 -73 -45 -115.5t-114 -42.5q-70 0 -115 42zM728 79q25 25 25 69q0 45 -25.5 69.5t-63.5 24.5q-39 0 -64.5 -25.5t-25.5 -69.5q0 -43 25.5 -68t64.5 -25t64 25zM1121 79q25 25 25 69q0 45 -25.5 69.5t-63.5 24.5q-39 0 -64.5 -25.5t-25.5 -69.5q0 -43 25.5 -68t64.5 -25
t64 25z" />
    <glyph glyph-name="arrowup" unicode="&#x2191;" horiz-adv-x="666" 
d="M287 505l-208 -206v105l254 254l254 -254v-105l-208 206v-505h-92v505z" />
    <glyph glyph-name="arrowright" unicode="&#x2192;" horiz-adv-x="863" 
d="M625 287h-546v87h546l-239 238h115l283 -282l-283 -282h-115z" />
    <glyph glyph-name="arrowdown" unicode="&#x2193;" horiz-adv-x="666" 
d="M79 244v105l208 -206v505h92v-505l208 206v-105l-254 -254z" />
    <glyph glyph-name="arrowleft" unicode="&#x2190;" horiz-adv-x="863" 
d="M79 330l283 282h115l-239 -238h546v-87h-546l239 -239h-115z" />
    <glyph glyph-name="lozenge" unicode="&#x25ca;" horiz-adv-x="550" 
d="M32 318l238 340h10l238 -340l-238 -328h-10zM426 318l-151 218l-151 -218l151 -206z" />
    <glyph glyph-name="uniF8FF" unicode="&#xf8ff;" horiz-adv-x="549" 
d="M92.5 598q-8.5 9 -8.5 22q0 12 8.5 21t21.5 9q12 0 21.5 -9t9.5 -21q0 -13 -9.5 -22t-21.5 -9q-13 0 -21.5 9zM159 598q-9 9 -9 22q0 12 9 21t21 9q13 0 21.5 -9t8.5 -21q0 -13 -8.5 -22t-21.5 -9q-12 0 -21 9zM223.5 598q-9.5 9 -9.5 22q0 12 9.5 21t21.5 9
q13 0 21.5 -9t8.5 -21q0 -13 -8.5 -22t-21.5 -9q-12 0 -21.5 9zM289.5 598q-8.5 9 -8.5 22q0 12 8.5 21t21.5 9q12 0 21.5 -9t9.5 -21q0 -13 -9.5 -22t-21.5 -9q-13 0 -21.5 9zM355 598q-9 9 -9 22q0 12 9 21t22 9q11 0 20.5 -9t9.5 -21q0 -13 -9 -22t-21 -9q-13 0 -22 9z
M420.5 598q-9.5 9 -9.5 22q0 12 9.5 21t21.5 9q13 0 21.5 -9t8.5 -21q0 -13 -8.5 -22t-21.5 -9q-12 0 -21.5 9zM92.5 532.5q-8.5 8.5 -8.5 21.5q0 12 8.5 21t21.5 9q12 0 21.5 -9t9.5 -21t-9.5 -21t-21.5 -9q-13 0 -21.5 8.5zM92.5 467q-8.5 9 -8.5 22q0 12 8.5 20.5
t21.5 8.5q12 0 21.5 -8.5t9.5 -20.5q0 -13 -9.5 -22t-21.5 -9q-13 0 -21.5 9zM223.5 467q-9.5 9 -9.5 22q0 12 9.5 20.5t21.5 8.5q13 0 21.5 -8.5t8.5 -20.5q0 -13 -8.5 -22t-21.5 -9q-12 0 -21.5 9zM289.5 467q-8.5 9 -8.5 22q0 12 8.5 20.5t21.5 8.5q12 0 21.5 -8.5
t9.5 -20.5q0 -13 -9.5 -22t-21.5 -9q-13 0 -21.5 9zM355 467q-9 9 -9 22q0 12 9 20.5t22 8.5q12 0 21 -8.5t9 -20.5t-9 -21.5t-21 -9.5q-13 0 -22 9zM420.5 467q-9.5 9 -9.5 22q0 12 9.5 20.5t21.5 8.5q13 0 21.5 -8.5t8.5 -20.5q0 -13 -8.5 -22t-21.5 -9q-12 0 -21.5 9z
M92.5 402q-8.5 8 -8.5 21t8.5 21.5t21.5 8.5q12 0 21.5 -9t9.5 -21t-9.5 -20.5t-21.5 -8.5q-13 0 -21.5 8zM223.5 402.5q-9.5 8.5 -9.5 20.5t9.5 21t21.5 9q13 0 21.5 -8.5t8.5 -21.5t-8.5 -21t-21.5 -8q-12 0 -21.5 8.5zM92.5 335.5q-8.5 8.5 -8.5 21.5t8.5 22t21.5 9
q12 0 21.5 -9t9.5 -22q0 -12 -9.5 -21t-21.5 -9q-13 0 -21.5 8.5zM223.5 336q-9.5 9 -9.5 21q0 13 9.5 22t21.5 9q13 0 21.5 -9t8.5 -22t-8.5 -21.5t-21.5 -8.5q-12 0 -21.5 9zM289.5 335.5q-8.5 8.5 -8.5 21.5t8.5 22t21.5 9q12 0 21.5 -9t9.5 -22q0 -12 -9.5 -21t-21.5 -9
q-13 0 -21.5 8.5zM355 335.5q-9 8.5 -9 21.5t9 22t22 9q12 0 21 -9t9 -22q0 -12 -9 -21t-21 -9q-13 0 -22 8.5zM420.5 336q-9.5 9 -9.5 21q0 13 9.5 22t21.5 9q13 0 21.5 -9t8.5 -22t-8.5 -21.5t-21.5 -8.5q-12 0 -21.5 9zM92.5 270.5q-8.5 8.5 -8.5 21.5q0 12 8.5 21
t21.5 9q12 0 21.5 -9t9.5 -21t-9.5 -21t-21.5 -9q-13 0 -21.5 8.5zM420.5 271q-9.5 9 -9.5 21t9.5 21t21.5 9q13 0 21.5 -9t8.5 -21q0 -13 -8.5 -21.5t-21.5 -8.5q-12 0 -21.5 9zM92.5 205.5q-8.5 8.5 -8.5 21.5q0 12 8.5 20.5t21.5 8.5q12 0 21.5 -8.5t9.5 -20.5t-9.5 -21
t-21.5 -9q-13 0 -21.5 8.5zM223.5 206q-9.5 9 -9.5 21t9.5 20.5t21.5 8.5q13 0 21.5 -8.5t8.5 -20.5q0 -13 -8.5 -21.5t-21.5 -8.5q-12 0 -21.5 9zM289.5 205.5q-8.5 8.5 -8.5 21.5q0 12 8.5 20.5t21.5 8.5q12 0 21.5 -8.5t9.5 -20.5t-9.5 -21t-21.5 -9q-13 0 -21.5 8.5z
M355 205.5q-9 8.5 -9 21.5q0 12 9 20.5t22 8.5q12 0 21 -8.5t9 -20.5t-9 -21t-21 -9q-13 0 -22 8.5zM420.5 206q-9.5 9 -9.5 21t9.5 20.5t21.5 8.5q13 0 21.5 -8.5t8.5 -20.5q0 -13 -8.5 -21.5t-21.5 -8.5q-12 0 -21.5 9zM92.5 139q-8.5 9 -8.5 22t8.5 21.5t21.5 8.5
q12 0 21.5 -9t9.5 -21q0 -13 -9.5 -22t-21.5 -9q-13 0 -21.5 9zM92.5 73.5q-8.5 8.5 -8.5 21.5t8.5 21.5t21.5 8.5q12 0 21.5 -8.5t9.5 -21.5q0 -12 -9.5 -21t-21.5 -9q-13 0 -21.5 8.5zM223.5 74q-9.5 9 -9.5 21q0 13 9.5 21.5t21.5 8.5q13 0 21.5 -8.5t8.5 -21.5
t-8.5 -21.5t-21.5 -8.5q-12 0 -21.5 9zM92.5 8.5q-8.5 8.5 -8.5 21.5q0 12 9 21.5t21 9.5t21.5 -9.5t9.5 -21.5t-9.5 -21t-21.5 -9q-13 0 -21.5 8.5zM159 8.5q-9 8.5 -9 21.5q0 12 9 21.5t21 9.5t21 -9.5t9 -21.5q0 -13 -8.5 -21.5t-21.5 -8.5q-12 0 -21 8.5zM223.5 9
q-9.5 9 -9.5 21t9.5 21.5t21.5 9.5t21 -9.5t9 -21.5q0 -13 -8.5 -21.5t-21.5 -8.5q-12 0 -21.5 9z" />
    <glyph glyph-name="at" unicode="@" horiz-adv-x="998" 
d="M273 -154.5q-104 52.5 -162 151.5t-58 235q0 138 61 239t166.5 154t235.5 53q119 0 216.5 -46t155 -134.5t57.5 -210.5q0 -83 -26.5 -142.5t-74.5 -90.5t-111 -31q-49 0 -81.5 19.5t-44.5 52.5q-20 -36 -58 -54t-81 -18q-50 0 -89.5 23.5t-61.5 67t-22 101.5t22.5 107
t65.5 78.5t103 29.5q47 0 80 -19t51 -54l8 61h73l-19 -171q-8 -66 -8 -87q0 -32 15.5 -49t53.5 -17q57 0 88.5 46t31.5 129q0 109 -48 184.5t-126.5 113t-171.5 37.5q-107 0 -192.5 -46t-134 -130.5t-48.5 -197.5q0 -114 47.5 -195.5t132.5 -124t195 -42.5q94 0 179.5 28
t133.5 58v-83q-14 -10 -60 -28.5t-113.5 -34t-141.5 -15.5q-135 0 -239 52.5zM565 137q31 41 31 103q0 54 -25 86t-74 32q-54 0 -86 -40.5t-32 -103.5q0 -56 27 -87t74 -31q54 0 85 41z" />
    <glyph glyph-name="ampersand" unicode="&#x26;" horiz-adv-x="690" 
d="M611 -13l-77 69q-40 -31 -93.5 -48t-113.5 -17q-77 0 -140 27.5t-99 79t-36 120.5q0 62 29 108.5t74 69.5q-35 42 -35 101q0 45 23 82t65 58t97 21q37 0 66 -8.5t44 -18.5v-82q-17 12 -45.5 22t-59.5 10q-45 0 -70 -23t-25 -61q0 -33 20 -62t69 -71l220 -193q13 29 13 68
q0 53 -29 94t-86 59l57 53q62 -16 103.5 -71.5t41.5 -133.5q0 -70 -36 -126l77 -67zM171 146q23 -36 65.5 -56.5t98.5 -20.5q83 0 137 40l-267 236q-25 -17 -41 -47t-16 -70q0 -46 23 -82z" />
    <glyph glyph-name="paragraph" unicode="&#xb6;" horiz-adv-x="707" 
d="M234 -196v71q18 -7 38 -7q25 0 34 13t9 41v305h-10q-79 0 -136 14.5t-94 60t-37 133.5q0 94 41 141t99.5 59.5t138.5 12.5h360v-80h-101v-766h-93v766h-74v-662q0 -55 -25 -84t-83 -29q-43 0 -67 11z" />
    <glyph glyph-name="section" unicode="&#xa7;" horiz-adv-x="437" 
d="M65 -183v78q71 -32 135 -32q55 0 81 22.5t26 66.5q0 35 -27 56t-84 46q-49 22 -79.5 41t-52 50.5t-21.5 77.5q0 52 27 87t66 50q-37 21 -57 53t-20 75q0 86 52.5 128t134.5 42q32 0 62 -6t50 -14v-77q-54 27 -108 27q-49 0 -78.5 -24.5t-29.5 -67.5q0 -28 15.5 -48
t39 -33t63.5 -31q48 -21 78 -39.5t50.5 -48.5t20.5 -74q0 -53 -28.5 -88.5t-67.5 -51.5q32 -15 55.5 -44.5t23.5 -78.5q0 -74 -44 -120.5t-143 -46.5q-79 0 -140 25zM303 147.5q24 23.5 24 63.5q0 28 -15 47.5t-40 34.5t-73 36q-27 -7 -50.5 -31.5t-23.5 -64.5
q0 -42 27 -65.5t93 -53.5q34 10 58 33.5z" />
    <glyph glyph-name="copyright" unicode="&#xa9;" horiz-adv-x="770" 
d="M217.5 33.5q-75.5 43.5 -120 120t-44.5 170.5q0 96 44 172.5t120 119t167 42.5t167.5 -42.5t121 -119t44.5 -172.5q0 -94 -45 -170.5t-121 -120t-167 -43.5t-166.5 43.5zM519 88q59 35 92 97t33 140q0 80 -33 141t-92 95t-134 34t-133.5 -34t-92 -95t-33.5 -141
q0 -78 33 -140t92 -97t134 -35t134 35zM277.5 200.5q-48.5 41.5 -48.5 120.5q0 77 46.5 123.5t123.5 46.5q49 0 85 -17v-62q-43 23 -80 23q-47 0 -77 -29.5t-30 -81.5q0 -49 28.5 -78t77.5 -29q46 0 84 24v-62q-14 -8 -38.5 -14t-52.5 -6q-70 0 -118.5 41.5z" />
    <glyph glyph-name="registered" unicode="&#xae;" horiz-adv-x="770" 
d="M217.5 33.5q-75.5 43.5 -120 120t-44.5 170.5q0 96 44 172.5t120 119t167 42.5t167.5 -42.5t121 -119t44.5 -172.5q0 -94 -45 -170.5t-121 -120t-167 -43.5t-166.5 43.5zM519 88q59 35 92 97t33 140q0 80 -33 141t-92 95t-134 34t-133.5 -34t-92 -95t-33.5 -141
q0 -78 33 -140t92 -97t134 -35t134 35zM273 487h112q59 0 92 -20.5t33 -79.5q0 -78 -65 -94l78 -130h-72l-70 124h-45v-124h-63v324zM367 334q32 0 48 3.5t24 14.5t8 35q0 32 -17.5 42t-59.5 10h-34v-105h31z" />
    <glyph glyph-name="trademark" unicode="&#x2122;" horiz-adv-x="860" 
d="M460 487l-38 -218h-69l78 389h10l135 -270l137 270h10l77 -389h-70l-36 218l-113 -224h-10zM132 587h-108v61h286v-61h-107v-318h-71v318z" />
    <glyph glyph-name="degree" unicode="&#xb0;" horiz-adv-x="535" 
d="M178 443q-36 35 -36 90q0 54 36 89.5t90 35.5t90 -35.5t36 -89.5q0 -55 -36 -90t-90 -35t-90 35zM318.5 480q20.5 20 20.5 53t-20.5 53t-50.5 20t-50.5 -20t-20.5 -53q0 -34 20 -53.5t51 -19.5q30 0 50.5 20z" />
    <glyph glyph-name="bar" unicode="|" horiz-adv-x="250" 
d="M79 648h92v-846h-92v846z" />
    <glyph glyph-name="brokenbar" unicode="&#xa6;" horiz-adv-x="250" 
d="M79 648h92v-331h-92v331zM79 133h92v-331h-92v331z" />
    <glyph glyph-name="uni2113" unicode="&#x2113;" horiz-adv-x="232" 
d="M71 663h90v-663h-90v663z" />
    <glyph glyph-name="dagger" unicode="&#x2020;" horiz-adv-x="586" 
d="M249 376h-165v73h164l-3 199h97l-3 -199h163v-73h-165l-8 -576h-72z" />
    <glyph glyph-name="daggerdbl" unicode="&#x2021;" horiz-adv-x="586" 
d="M253 108h-159v73h158l-3 195h-165v73h164l-3 199h97l-3 -199h163v-73h-165l-3 -195h158v-73h-158l-5 -308h-72z" />
    <glyph glyph-name="estimated" unicode="&#x212e;" horiz-adv-x="887" 
d="M253 35.5q-88 45.5 -139.5 124t-51.5 171.5t51.5 171.5t139.5 124.5t192 46q102 0 189.5 -46t139 -124.5t51.5 -171.5v-8h-617q-5 0 -6.5 -1t-1.5 -5v-187q0 -6 3 -11t9 -10q44 -46 105 -72t129 -26q72 0 135 29.5t109 80.5h56q-55 -61 -133.5 -96t-167.5 -35
q-104 0 -192 45.5zM678 342q8 0 8 5v190q0 9 -13 22q-42 44 -102 69t-125 25q-68 0 -128 -25.5t-106 -71.5q-12 -12 -12 -24v-185q0 -5 8 -5h470z" />
    <glyph glyph-name="uni2116" unicode="&#x2116;" horiz-adv-x="1120" 
d="M175 453v-453h-91v658h10l438 -464v454h91v-658h-10zM791.5 363q-44.5 46 -44.5 122t45.5 124t122.5 48q76 0 120 -45t44 -123t-46 -125t-121 -47q-76 0 -120.5 46zM982.5 407q25.5 30 25.5 82t-25.5 80.5t-68.5 28.5q-45 0 -70 -30.5t-25 -80.5q0 -52 25.5 -81t69.5 -29
q43 0 68.5 30zM772 267h282v-60h-282v60z" />
    <glyph glyph-name="asciicircum" unicode="^" 
d="M293 658h10l210 -330h-98l-117 193l-116 -193h-98z" />
    <glyph glyph-name="at.case" horiz-adv-x="998" 
d="M273 -52.5q-104 52.5 -162 151.5t-58 235q0 138 61 239t166.5 154t235.5 53q119 0 216.5 -46t155 -134.5t57.5 -210.5q0 -83 -26.5 -142.5t-74.5 -90.5t-111 -31q-49 0 -81.5 19.5t-44.5 52.5q-20 -36 -58 -54t-81 -18q-50 0 -89.5 23.5t-61.5 67t-22 101.5t22.5 107
t65.5 78.5t103 29.5q47 0 80 -19t51 -54l8 61h73l-19 -171q-8 -66 -8 -87q0 -32 15.5 -49t53.5 -17q57 0 88.5 46t31.5 129q0 109 -48 184.5t-126.5 113t-171.5 37.5q-107 0 -192.5 -46t-134 -130.5t-48.5 -197.5q0 -114 47.5 -195.5t132.5 -124t195 -42.5q94 0 179.5 28
t133.5 58v-83q-14 -10 -60 -28.5t-113.5 -34t-141.5 -15.5q-135 0 -239 52.5zM565 239q31 41 31 103q0 54 -25 86t-74 32q-54 0 -86 -40.5t-32 -103.5q0 -56 27 -87t74 -31q54 0 85 41z" />
    <glyph glyph-name="uni0374" unicode="&#x374;" horiz-adv-x="200" 
d="M90 648h97l-100 -236h-68z" />
    <glyph glyph-name="uni0375" unicode="&#x375;" horiz-adv-x="200" 
d="M79 98h97l-100 -236h-68z" />
    <glyph glyph-name="uni0308" unicode="&#x308;" horiz-adv-x="0" 
d="M-389.5 570q-15.5 15 -15.5 39t16 39t39 15t38.5 -15t15.5 -39t-15.5 -39t-38.5 -15q-24 0 -39.5 15zM-194 570q-15 15 -15 39t15.5 39t38.5 15t38.5 -15t15.5 -39t-15.5 -39t-38.5 -15q-24 0 -39 15z" />
    <glyph glyph-name="uni0307" unicode="&#x307;" horiz-adv-x="0" 
d="M-300.5 570q-15.5 15 -15.5 39t16 39t39 15t38.5 -15t15.5 -39t-16 -39t-38 -15q-24 0 -39.5 15z" />
    <glyph glyph-name="gravecomb" unicode="&#x300;" horiz-adv-x="0" 
d="M-376 684h120l117 -164h-89z" />
    <glyph glyph-name="acutecomb" unicode="&#x301;" horiz-adv-x="0" 
d="M-259 684h120l-148 -164h-89z" />
    <glyph glyph-name="uni030B" unicode="&#x30b;" horiz-adv-x="0" 
d="M-350 684h111l-109 -164h-91zM-168 684h110l-109 -164h-90z" />
    <glyph glyph-name="uni0302" unicode="&#x302;" horiz-adv-x="0" 
d="M-253 693l171 -173h-98l-73 78l-73 -78h-97z" />
    <glyph glyph-name="uni030C" unicode="&#x30c;" horiz-adv-x="0" 
d="M-423 684h97l73 -79l73 79h98l-171 -173z" />
    <glyph glyph-name="uni0306" unicode="&#x306;" horiz-adv-x="0" 
d="M-419 673v11h70q0 -50 23 -75.5t74 -25.5t74 25.5t23 75.5h71v-11q0 -74 -39.5 -118t-128.5 -44q-167 0 -167 162z" />
    <glyph glyph-name="uni030A" unicode="&#x30a;" horiz-adv-x="0" 
d="M-333.5 539.5q-30.5 29.5 -30.5 73.5q0 43 30.5 73t75.5 30t75.5 -30t30.5 -73q0 -44 -30.5 -73.5t-75.5 -29.5t-75.5 29.5zM-220.5 574q14.5 15 14.5 39q0 23 -15 38.5t-37 15.5t-37 -15t-15 -39t15 -39t37 -15q23 0 37.5 15z" />
    <glyph glyph-name="tildecomb" unicode="&#x303;" horiz-adv-x="0" 
d="M-221 549.5q-18 7.5 -44 22.5q-17 11 -30 16.5t-26 5.5q-24 0 -33.5 -16t-9.5 -31h-59q0 47 26 79.5t72 32.5q25 0 45 -8t45 -23q19 -11 30.5 -16t23.5 -5q21 0 31 15t10 32h59q0 -45 -25.5 -78.5t-72.5 -33.5q-24 0 -42 7.5z" />
    <glyph glyph-name="uni0304" unicode="&#x304;" horiz-adv-x="0" 
d="M-401 641h293v-74h-293v74z" />
    <glyph glyph-name="uni0315" unicode="&#x315;" horiz-adv-x="0" 
d="M-217 641.5q17 -16.5 17 -46.5q0 -27 -17 -54t-44 -45h-50q43 40 51 69q-21 -1 -34.5 11.5t-13.5 33.5q0 22 14 35t36 13q24 0 41 -16.5z" />
    <glyph glyph-name="uni0326" unicode="&#x326;" horiz-adv-x="0" 
d="M-214 -70.5q17 -16.5 17 -46.5q0 -26 -14 -49t-35 -41h-54q16 14 27.5 30t16.5 30q-21 -2 -35.5 10.5t-14.5 33.5q0 23 14.5 36t36.5 13q24 0 41 -16.5z" />
    <glyph glyph-name="uni0327" unicode="&#x327;" horiz-adv-x="0" 
d="M-354 -195v51q10 -5 26 -9.5t32 -4.5q50 0 50 39q0 20 -11 29.5t-30 9.5q-15 0 -24 -4.5t-18 -12.5l-10 6l32 110h56l-19 -62q6 3 15 3q34 -1 54.5 -20t20.5 -60q0 -46 -30.5 -66.5t-77.5 -20.5q-44 0 -66 12z" />
    <glyph glyph-name="uni0328" unicode="&#x328;" horiz-adv-x="0" 
d="M-282.5 -184q-29.5 23 -29.5 70q0 50 34 85.5t89 48.5l51 -17q-109 -34 -109 -103q0 -25 13.5 -38.5t39.5 -13.5q17 0 30 4t20 9v-56q-10 -5 -27 -8.5t-35 -3.5q-47 0 -76.5 23z" />
    <glyph glyph-name="uni0308.case" horiz-adv-x="0" 
d="M-394 749.5q-17 17.5 -17 43.5t17 43.5t43 17.5t43 -17.5t17 -43.5t-17 -43.5t-43 -17.5t-43 17.5zM-198 749.5q-17 17.5 -17 43.5t17 43.5t43 17.5t43 -17.5t17 -43.5t-17 -43.5t-43 -17.5t-43 17.5z" />
    <glyph glyph-name="uni0307.case" horiz-adv-x="0" 
d="M-304.5 750q-16.5 17 -16.5 44q0 26 17.5 43t42.5 17q26 0 42.5 -17t16.5 -44t-17 -43.5t-42 -16.5q-27 0 -43.5 17z" />
    <glyph glyph-name="gravecomb.case" horiz-adv-x="0" 
d="M-374 876h119l117 -164h-89z" />
    <glyph glyph-name="acutecomb.case" horiz-adv-x="0" 
d="M-249 876h120l-148 -164h-89z" />
    <glyph glyph-name="uni030B.case" horiz-adv-x="0" 
d="M-351 876h119l-127 -164h-90zM-155 876h119l-127 -164h-90z" />
    <glyph glyph-name="uni0302.case" horiz-adv-x="0" 
d="M-253 885l171 -173h-98l-73 79l-73 -79h-97z" />
    <glyph glyph-name="uni030C.case" horiz-adv-x="0" 
d="M-423 876h97l73 -78l73 78h98l-171 -173z" />
    <glyph glyph-name="uni0306.case" horiz-adv-x="0" 
d="M-381 746q-39 43 -39 119v11h72q0 -49 22.5 -73.5t73.5 -24.5t74 24.5t23 73.5h72v-11q0 -162 -169 -162q-90 0 -129 43z" />
    <glyph glyph-name="uni030A.case" horiz-adv-x="0" 
d="M-333.5 719.5q-30.5 29.5 -30.5 73.5q0 43 30.5 73t75.5 30t75.5 -30t30.5 -73q0 -44 -30.5 -73.5t-75.5 -29.5t-75.5 29.5zM-220.5 754q14.5 15 14.5 39q0 23 -15 38.5t-37 15.5t-37 -15t-15 -39t15 -39t37 -15q23 0 37.5 15z" />
    <glyph glyph-name="tildecomb.case" horiz-adv-x="0" 
d="M-221 741.5q-18 7.5 -44 22.5q-17 11 -30 16.5t-26 5.5q-24 0 -33.5 -16t-9.5 -31h-59q0 47 26 80t72 33q24 0 43 -7.5t47 -23.5q17 -11 29.5 -16.5t24.5 -5.5q21 0 31 15.5t10 32.5h59q0 -46 -25.5 -79.5t-72.5 -33.5q-24 0 -42 7.5z" />
    <glyph glyph-name="uni0304.case" horiz-adv-x="0" 
d="M-401 830h293v-73h-293v73z" />
    <glyph glyph-name="acutecomb.loclPLK" horiz-adv-x="0" 
d="M-290 684h108l-101 -164h-85z" />
    <glyph glyph-name="acutecomb.case.loclPLK" horiz-adv-x="0" 
d="M-234 876h108l-101 -164h-84z" />
    <glyph glyph-name="acute" unicode="&#xb4;" horiz-adv-x="514" 
d="M266 684h120l-148 -164h-89z" />
    <glyph glyph-name="breve" unicode="&#x2d8;" horiz-adv-x="505" 
d="M92 673v11h70q0 -50 23 -75.5t74 -25.5t74 25.5t23 75.5h71v-11q0 -74 -39.5 -118t-128.5 -44q-167 0 -167 162z" />
    <glyph glyph-name="caron" unicode="&#x2c7;" horiz-adv-x="504" 
d="M89 684h97l73 -79l73 79h98l-171 -173z" />
    <glyph glyph-name="acute.case" horiz-adv-x="514" 
d="M277 876h120l-148 -164h-89z" />
    <glyph glyph-name="breve.case" horiz-adv-x="505" 
d="M130 746q-39 43 -39 119v11h72q0 -49 22.5 -73.5t73.5 -24.5t74 24.5t23 73.5h72v-11q0 -162 -169 -162q-90 0 -129 43z" />
    <glyph glyph-name="caron.case" horiz-adv-x="504" 
d="M89 876h97l73 -78l73 78h98l-171 -173z" />
    <glyph glyph-name="circumflex.case" horiz-adv-x="504" 
d="M259 885l171 -173h-98l-73 79l-73 -79h-97z" />
    <glyph glyph-name="dieresis.case" horiz-adv-x="507" 
d="M120 749.5q-17 17.5 -17 43.5t17 43.5t43 17.5t43 -17.5t17 -43.5t-17 -43.5t-43 -17.5t-43 17.5zM316 749.5q-17 17.5 -17 43.5t17 43.5t43 17.5t43 -17.5t17 -43.5t-17 -43.5t-43 -17.5t-43 17.5z" />
    <glyph glyph-name="dotaccent.case" horiz-adv-x="523" 
d="M235.5 750q-16.5 17 -16.5 44q0 26 17.5 43t42.5 17q26 0 42.5 -17t16.5 -44t-17 -43.5t-42 -16.5q-27 0 -43.5 17z" />
    <glyph glyph-name="grave.case" horiz-adv-x="513" 
d="M151 876h119l117 -164h-89z" />
    <glyph glyph-name="hungarumlaut.case" horiz-adv-x="495" 
d="M146 876h119l-127 -164h-90zM342 876h119l-127 -164h-90z" />
    <glyph glyph-name="macron.case" horiz-adv-x="508" 
d="M116 830h293v-73h-293v73z" />
    <glyph glyph-name="ring.case" horiz-adv-x="515" 
d="M194.5 719.5q-30.5 29.5 -30.5 73.5q0 43 30.5 73t75.5 30t75.5 -30t30.5 -73q0 -44 -30.5 -73.5t-75.5 -29.5t-75.5 29.5zM307.5 754q14.5 15 14.5 39q0 23 -15 38.5t-37 15.5t-37 -15t-15 -39t15 -39t37 -15q23 0 37.5 15z" />
    <glyph glyph-name="tilde.case" horiz-adv-x="504" 
d="M290 741.5q-18 7.5 -44 22.5q-17 11 -30 16.5t-26 5.5q-24 0 -33.5 -16t-9.5 -31h-59q0 47 26 80t72 33q24 0 43 -7.5t47 -23.5q17 -11 29.5 -16.5t24.5 -5.5q21 0 31 15.5t10 32.5h59q0 -46 -25.5 -79.5t-72.5 -33.5q-24 0 -42 7.5z" />
    <glyph glyph-name="cedilla" unicode="&#xb8;" horiz-adv-x="518" 
d="M178 -195v51q10 -5 26 -9.5t32 -4.5q50 0 50 39q0 20 -11 29.5t-30 9.5q-15 0 -24 -4.5t-18 -12.5l-10 6l32 110h56l-19 -62q6 3 15 3q34 -1 54.5 -20t20.5 -60q0 -46 -30.5 -66.5t-77.5 -20.5q-44 0 -66 12z" />
    <glyph glyph-name="circumflex" unicode="&#x2c6;" horiz-adv-x="504" 
d="M259 693l171 -173h-98l-73 78l-73 -78h-97z" />
    <glyph glyph-name="dieresis" unicode="&#xa8;" horiz-adv-x="507" 
d="M124.5 570q-15.5 15 -15.5 39t16 39t39 15t38.5 -15t15.5 -39t-15.5 -39t-38.5 -15q-24 0 -39.5 15zM320 570q-15 15 -15 39t15.5 39t38.5 15t38.5 -15t15.5 -39t-15.5 -39t-38.5 -15q-24 0 -39 15z" />
    <glyph glyph-name="dotaccent" unicode="&#x2d9;" horiz-adv-x="523" 
d="M239.5 570q-15.5 15 -15.5 39t16 39t39 15t38.5 -15t15.5 -39t-16 -39t-38 -15q-24 0 -39.5 15z" />
    <glyph glyph-name="grave" unicode="`" horiz-adv-x="514" 
d="M149 684h120l117 -164h-89z" />
    <glyph glyph-name="hungarumlaut" unicode="&#x2dd;" horiz-adv-x="495" 
d="M147 684h111l-109 -164h-91zM329 684h110l-109 -164h-90z" />
    <glyph glyph-name="acute.loclPLK" horiz-adv-x="549" 
d="M241 684h108l-101 -164h-85z" />
    <glyph glyph-name="acute.case.loclPLK" horiz-adv-x="549" 
d="M302 876h108l-101 -164h-84z" />
    <glyph glyph-name="macron" unicode="&#xaf;" horiz-adv-x="508" 
d="M116 641h293v-74h-293v74z" />
    <glyph glyph-name="ogonek" unicode="&#x2db;" horiz-adv-x="518" 
d="M252.5 -184q-29.5 23 -29.5 70q0 50 34 85.5t89 48.5l51 -17q-109 -34 -109 -103q0 -25 13.5 -38.5t39.5 -13.5q17 0 30 4t20 9v-56q-10 -5 -27 -8.5t-35 -3.5q-47 0 -76.5 23z" />
    <glyph glyph-name="ring" unicode="&#x2da;" horiz-adv-x="515" 
d="M194.5 539.5q-30.5 29.5 -30.5 73.5q0 43 30.5 73t75.5 30t75.5 -30t30.5 -73q0 -44 -30.5 -73.5t-75.5 -29.5t-75.5 29.5zM307.5 574q14.5 15 14.5 39q0 23 -15 38.5t-37 15.5t-37 -15t-15 -39t15 -39t37 -15q23 0 37.5 15z" />
    <glyph glyph-name="tilde" unicode="&#x2dc;" horiz-adv-x="504" 
d="M290 549.5q-18 7.5 -44 22.5q-17 11 -30 16.5t-26 5.5q-24 0 -33.5 -16t-9.5 -31h-59q0 47 26 79.5t72 32.5q25 0 45 -8t45 -23q19 -11 30.5 -16t23.5 -5q21 0 31 15t10 32h59q0 -45 -25.5 -78.5t-72.5 -33.5q-24 0 -42 7.5z" />
    <glyph glyph-name="tonos" unicode="&#x384;" horiz-adv-x="518" 
d="M223 684h108l-93 -162h-86z" />
    <glyph glyph-name="tonos.case" horiz-adv-x="537" 
d="M210 648h100l-92 -164h-77z" />
    <glyph glyph-name="dieresistonos" unicode="&#x385;" horiz-adv-x="600" 
d="M241 684h100l-64 -162h-71zM77.5 537.5q-15.5 15.5 -15.5 39.5t16 39t39 15t38.5 -15.5t15.5 -39.5t-15.5 -39t-38.5 -15q-24 0 -39.5 15.5zM360.5 537.5q-15.5 15.5 -15.5 39.5t16 39t39 15t38 -15.5t15 -39.5t-15.5 -39t-37.5 -15q-24 0 -39.5 15.5z" />
    <glyph glyph-name="brevecombcy.case" horiz-adv-x="0" 
d="M-378.5 737q-41.5 44 -41.5 118v11h80q0 -51 23 -78.5t65 -27.5q43 0 65.5 27t22.5 79h81v-11q0 -73 -42.5 -117.5t-126.5 -44.5q-85 0 -126.5 44z" />
    <glyph glyph-name="brevecombcy" horiz-adv-x="0" 
d="M-368.5 540.5q-37.5 40.5 -37.5 108.5v12h76v-3q0 -47 20 -73t58 -26q39 0 58.5 26t19.5 73v3h76v-12q0 -67 -38 -108t-116 -41q-79 0 -116.5 40.5z" />
    <glyph glyph-name="brevecy" horiz-adv-x="504" 
d="M135.5 540.5q-37.5 40.5 -37.5 108.5v12h76v-3q0 -47 20 -73t58 -26q39 0 58.5 26t19.5 73v3h76v-12q0 -67 -38 -108t-116 -41q-79 0 -116.5 40.5z" />
    <glyph glyph-name="brevecy.case" horiz-adv-x="504" 
d="M125.5 737q-41.5 44 -41.5 118v11h80q0 -51 23 -78.5t65 -27.5q43 0 65.5 27t22.5 79h81v-11q0 -73 -42.5 -117.5t-126.5 -44.5q-85 0 -126.5 44z" />
	k="16" />
  </font>
</defs>
</svg>
